<?xml version="1.0" encoding="UTF-8" standalone="no"?>
<!DOCTYPE svg PUBLIC "-//W3C//DTD SVG 1.1//EN"
 "http://www.w3.org/Graphics/SVG/1.1/DTD/svg11.dtd">
<!-- Generated by graphviz version 2.40.1 (20161225.0304)
 -->
<!-- Title: %3 Pages: 1 -->
<svg width="651pt" height="388pt"
 viewBox="0.00 0.00 651.15 388.00" xmlns="http://www.w3.org/2000/svg" xmlns:xlink="http://www.w3.org/1999/xlink">
<g id="graph0" class="graph" transform="scale(1 1) rotate(0) translate(4 384)">
<title>%3</title>
<polygon fill="#ffffff" stroke="transparent" points="-4,4 -4,-384 647.1514,-384 647.1514,4 -4,4"/>
<!-- Map 6 -->
<g id="node1" class="node">
<title>Map 6</title>
<ellipse fill="none" stroke="#000000" cx="610.2018" cy="-276" rx="32.8992" ry="18"/>
<text text-anchor="middle" x="610.2018" y="-271.8" font-family="Times,serif" font-size="14.00" fill="#000000">Map 6</text>
</g>
<!-- Map 3 -->
<g id="node2" class="node">
<title>Map 3</title>
<ellipse fill="none" stroke="#000000" cx="304.2018" cy="-190" rx="32.8992" ry="18"/>
<text text-anchor="middle" x="304.2018" y="-185.8" font-family="Times,serif" font-size="14.00" fill="#000000">Map 3</text>
</g>
<!-- Map 6&#45;&gt;Map 3 -->
<g id="edge1" class="edge">
<title>Map 6&#45;&gt;Map 3</title>
<path fill="none" stroke="#000000" d="M584.0303,-264.667C578.7973,-262.4339 573.3323,-260.1251 568.2018,-258 532.8223,-243.3453 524.9315,-236.8351 488.2018,-226 440.4022,-211.8994 383.9633,-201.7883 346.3161,-195.9384"/>
<polygon fill="#000000" stroke="#000000" points="346.6316,-192.4462 336.2188,-194.4016 345.5783,-199.3665 346.6316,-192.4462"/>
<text text-anchor="middle" x="554.0226" y="-228.8" font-family="Times,serif" font-size="14.00" fill="#000000">broadcast</text>
</g>
<!-- Reducer 4 -->
<g id="node8" class="node">
<title>Reducer 4</title>
<ellipse fill="none" stroke="#000000" cx="46.2018" cy="-104" rx="46.4045" ry="18"/>
<text text-anchor="middle" x="46.2018" y="-99.8" font-family="Times,serif" font-size="14.00" fill="#000000">Reducer 4</text>
</g>
<!-- Map 3&#45;&gt;Reducer 4 -->
<g id="edge10" class="edge">
<title>Map 3&#45;&gt;Reducer 4</title>
<path fill="none" stroke="#000000" d="M275.6055,-180.4679C230.8946,-165.5643 144.0709,-136.623 91.0034,-118.9339"/>
<polygon fill="#000000" stroke="#000000" points="92.0988,-115.6097 81.5051,-115.7678 89.8852,-122.2505 92.0988,-115.6097"/>
<text text-anchor="middle" x="208.3087" y="-142.8" font-family="Times,serif" font-size="14.00" fill="#000000">sorted</text>
</g>
<!-- Map 7 -->
<g id="node3" class="node">
<title>Map 7</title>
<ellipse fill="none" stroke="#000000" cx="224.2018" cy="-362" rx="32.8992" ry="18"/>
<text text-anchor="middle" x="224.2018" y="-357.8" font-family="Times,serif" font-size="14.00" fill="#000000">Map 7</text>
</g>
<!-- Map 7&#45;&gt;Map 3 -->
<g id="edge2" class="edge">
<title>Map 7&#45;&gt;Map 3</title>
<path fill="none" stroke="#000000" d="M212.1718,-345.2301C198.4619,-323.8732 179.8635,-286.3427 195.5602,-258 210.4068,-231.1923 240.721,-213.5482 265.564,-202.9666"/>
<polygon fill="#000000" stroke="#000000" points="267.149,-206.1017 275.1191,-199.1212 264.5355,-199.6078 267.149,-206.1017"/>
<text text-anchor="middle" x="223.0226" y="-271.8" font-family="Times,serif" font-size="14.00" fill="#000000">broadcast</text>
</g>
<!-- Reducer 8 -->
<g id="node7" class="node">
<title>Reducer 8</title>
<ellipse fill="none" stroke="#000000" cx="304.2018" cy="-276" rx="46.4045" ry="18"/>
<text text-anchor="middle" x="304.2018" y="-271.8" font-family="Times,serif" font-size="14.00" fill="#000000">Reducer 8</text>
</g>
<!-- Map 7&#45;&gt;Reducer 8 -->
<g id="edge12" class="edge">
<title>Map 7&#45;&gt;Reducer 8</title>
<path fill="none" stroke="#000000" d="M239.2492,-345.8241C251.088,-333.0974 267.7822,-315.151 281.2813,-300.6396"/>
<polygon fill="#000000" stroke="#000000" points="284.1525,-302.6918 288.4009,-292.986 279.0271,-297.924 284.1525,-302.6918"/>
<text text-anchor="middle" x="293.3087" y="-314.8" font-family="Times,serif" font-size="14.00" fill="#000000">unsorted</text>
</g>
<!-- Map 9 -->
<g id="node4" class="node">
<title>Map 9</title>
<ellipse fill="none" stroke="#000000" cx="424.2018" cy="-362" rx="32.8992" ry="18"/>
<text text-anchor="middle" x="424.2018" y="-357.8" font-family="Times,serif" font-size="14.00" fill="#000000">Map 9</text>
</g>
<!-- Map 9&#45;&gt;Map 3 -->
<g id="edge3" class="edge">
<title>Map 9&#45;&gt;Map 3</title>
<path fill="none" stroke="#000000" d="M416.5128,-344.4229C400.8623,-308.7476 366.4225,-230.7976 362.2018,-226 355.5784,-218.4714 346.9976,-211.9868 338.4768,-206.6786"/>
<polygon fill="#000000" stroke="#000000" points="340.1077,-203.5783 329.7034,-201.5783 336.5896,-209.63 340.1077,-203.5783"/>
<text text-anchor="middle" x="421.0226" y="-271.8" font-family="Times,serif" font-size="14.00" fill="#000000">broadcast</text>
</g>
<!-- Reducer 10 -->
<g id="node5" class="node">
<title>Reducer 10</title>
<ellipse fill="none" stroke="#000000" cx="508.2018" cy="-276" rx="50.7474" ry="18"/>
<text text-anchor="middle" x="508.2018" y="-271.8" font-family="Times,serif" font-size="14.00" fill="#000000">Reducer 10</text>
</g>
<!-- Map 9&#45;&gt;Reducer 10 -->
<g id="edge7" class="edge">
<title>Map 9&#45;&gt;Reducer 10</title>
<path fill="none" stroke="#000000" d="M440.0016,-345.8241C452.4665,-333.0624 470.0576,-315.0524 484.252,-300.52"/>
<polygon fill="#000000" stroke="#000000" points="486.8364,-302.8832 491.32,-293.2838 481.8287,-297.992 486.8364,-302.8832"/>
<text text-anchor="middle" x="496.3087" y="-314.8" font-family="Times,serif" font-size="14.00" fill="#000000">unsorted</text>
</g>
<!-- Reducer 10&#45;&gt;Map 3 -->
<g id="edge4" class="edge">
<title>Reducer 10&#45;&gt;Map 3</title>
<path fill="none" stroke="#000000" d="M478.2111,-261.3811C456.6859,-251.0697 426.8879,-237.1626 400.2018,-226 381.0813,-218.002 359.4942,-209.8321 341.6398,-203.3012"/>
<polygon fill="#000000" stroke="#000000" points="342.7382,-199.9765 332.1441,-199.853 340.349,-206.5561 342.7382,-199.9765"/>
<text text-anchor="middle" x="457.0226" y="-228.8" font-family="Times,serif" font-size="14.00" fill="#000000">broadcast</text>
</g>
<!-- Reducer 2 -->
<g id="node6" class="node">
<title>Reducer 2</title>
<ellipse fill="none" stroke="#000000" cx="104.2018" cy="-276" rx="46.4045" ry="18"/>
<text text-anchor="middle" x="104.2018" y="-271.8" font-family="Times,serif" font-size="14.00" fill="#000000">Reducer 2</text>
</g>
<!-- Reducer 2&#45;&gt;Map 3 -->
<g id="edge5" class="edge">
<title>Reducer 2&#45;&gt;Map 3</title>
<path fill="none" stroke="#000000" d="M104.8557,-257.8378C106.2248,-247.0922 109.7675,-234.0503 118.5602,-226 138.9758,-207.3082 213.0429,-197.6211 261.2232,-193.186"/>
<polygon fill="#000000" stroke="#000000" points="261.7243,-196.6555 271.3793,-192.2931 261.1112,-189.6824 261.7243,-196.6555"/>
<text text-anchor="middle" x="146.0226" y="-228.8" font-family="Times,serif" font-size="14.00" fill="#000000">broadcast</text>
</g>
<!-- Reducer 8&#45;&gt;Map 3 -->
<g id="edge6" class="edge">
<title>Reducer 8&#45;&gt;Map 3</title>
<path fill="none" stroke="#000000" d="M304.2018,-257.7616C304.2018,-246.3597 304.2018,-231.4342 304.2018,-218.494"/>
<polygon fill="#000000" stroke="#000000" points="307.7019,-218.2121 304.2018,-208.2121 300.7019,-218.2121 307.7019,-218.2121"/>
<text text-anchor="middle" x="331.0226" y="-228.8" font-family="Times,serif" font-size="14.00" fill="#000000">broadcast</text>
</g>
<!-- Reducer 5 -->
<g id="node9" class="node">
<title>Reducer 5</title>
<ellipse fill="none" stroke="#000000" cx="46.2018" cy="-18" rx="46.4045" ry="18"/>
<text text-anchor="middle" x="46.2018" y="-13.8" font-family="Times,serif" font-size="14.00" fill="#000000">Reducer 5</text>
</g>
<!-- Reducer 4&#45;&gt;Reducer 5 -->
<g id="edge8" class="edge">
<title>Reducer 4&#45;&gt;Reducer 5</title>
<path fill="none" stroke="#000000" d="M46.2018,-85.7616C46.2018,-74.3597 46.2018,-59.4342 46.2018,-46.494"/>
<polygon fill="#000000" stroke="#000000" points="49.7019,-46.2121 46.2018,-36.2121 42.7019,-46.2121 49.7019,-46.2121"/>
<text text-anchor="middle" x="63.3087" y="-56.8" font-family="Times,serif" font-size="14.00" fill="#000000">sorted</text>
</g>
<!-- Map 1 -->
<g id="node10" class="node">
<title>Map 1</title>
<ellipse fill="none" stroke="#000000" cx="67.2018" cy="-362" rx="32.8992" ry="18"/>
<text text-anchor="middle" x="67.2018" y="-357.8" font-family="Times,serif" font-size="14.00" fill="#000000">Map 1</text>
</g>
<!-- Map 1&#45;&gt;Reducer 2 -->
<g id="edge11" class="edge">
<title>Map 1&#45;&gt;Reducer 2</title>
<path fill="none" stroke="#000000" d="M74.8682,-344.1807C79.9781,-332.3038 86.7905,-316.4695 92.564,-303.05"/>
<polygon fill="#000000" stroke="#000000" points="95.8081,-304.3656 96.5452,-293.7964 89.378,-301.5991 95.8081,-304.3656"/>
<text text-anchor="middle" x="112.3087" y="-314.8" font-family="Times,serif" font-size="14.00" fill="#000000">unsorted</text>
</g>
<!-- Map 1&#45;&gt;Reducer 4 -->
<g id="edge9" class="edge">
<title>Map 1&#45;&gt;Reducer 4</title>
<path fill="none" stroke="#000000" d="M61.1735,-344.0608C56.9281,-330.4897 51.5916,-311.2991 49.2018,-294 41.333,-237.0407 42.7883,-169.5686 44.5189,-132.3018"/>
<polygon fill="#000000" stroke="#000000" points="48.0207,-132.352 45.0307,-122.1879 41.0297,-131.9982 48.0207,-132.352"/>
<text text-anchor="middle" x="72.0226" y="-228.8" font-family="Times,serif" font-size="14.00" fill="#000000">broadcast</text>
</g>
</g>
</svg>
