<?xml version="1.0" encoding="UTF-8" standalone="no"?>
<!DOCTYPE svg PUBLIC "-//W3C//DTD SVG 1.1//EN"
 "http://www.w3.org/Graphics/SVG/1.1/DTD/svg11.dtd">
<!-- Generated by graphviz version 2.40.1 (20161225.0304)
 -->
<!-- Title: %3 Pages: 1 -->
<svg width="543pt" height="560pt"
 viewBox="0.00 0.00 542.83 560.00" xmlns="http://www.w3.org/2000/svg" xmlns:xlink="http://www.w3.org/1999/xlink">
<g id="graph0" class="graph" transform="scale(1 1) rotate(0) translate(4 556)">
<title>%3</title>
<polygon fill="#ffffff" stroke="transparent" points="-4,4 -4,-556 538.8253,-556 538.8253,4 -4,4"/>
<!-- Map 12 -->
<g id="node1" class="node">
<title>Map 12</title>
<ellipse fill="none" stroke="#000000" cx="249.2018" cy="-534" rx="37.243" ry="18"/>
<text text-anchor="middle" x="249.2018" y="-529.8" font-family="Times,serif" font-size="14.00" fill="#000000">Map 12</text>
</g>
<!-- Reducer 14 -->
<g id="node2" class="node">
<title>Reducer 14</title>
<ellipse fill="none" stroke="#000000" cx="484.2018" cy="-448" rx="50.7474" ry="18"/>
<text text-anchor="middle" x="484.2018" y="-443.8" font-family="Times,serif" font-size="14.00" fill="#000000">Reducer 14</text>
</g>
<!-- Map 12&#45;&gt;Reducer 14 -->
<g id="edge1" class="edge">
<title>Map 12&#45;&gt;Reducer 14</title>
<path fill="none" stroke="#000000" d="M278.9647,-523.108C319.3214,-508.3392 391.7595,-481.83 438.8932,-464.581"/>
<polygon fill="#000000" stroke="#000000" points="440.3582,-467.772 448.5463,-461.0484 437.9525,-461.1983 440.3582,-467.772"/>
<text text-anchor="middle" x="398.3087" y="-486.8" font-family="Times,serif" font-size="14.00" fill="#000000">sorted</text>
</g>
<!-- Reducer 13 -->
<g id="node10" class="node">
<title>Reducer 13</title>
<ellipse fill="none" stroke="#000000" cx="161.2018" cy="-448" rx="50.7474" ry="18"/>
<text text-anchor="middle" x="161.2018" y="-443.8" font-family="Times,serif" font-size="14.00" fill="#000000">Reducer 13</text>
</g>
<!-- Map 12&#45;&gt;Reducer 13 -->
<g id="edge8" class="edge">
<title>Map 12&#45;&gt;Reducer 13</title>
<path fill="none" stroke="#000000" d="M235.5796,-517.1706C227.1976,-507.1672 216.0202,-494.4366 205.2018,-484 200.6335,-479.5929 195.5836,-475.1281 190.5823,-470.9127"/>
<polygon fill="#000000" stroke="#000000" points="192.7843,-468.192 182.8395,-464.538 188.335,-473.5961 192.7843,-468.192"/>
<text text-anchor="middle" x="235.3087" y="-486.8" font-family="Times,serif" font-size="14.00" fill="#000000">sorted</text>
</g>
<!-- Reducer 9 -->
<g id="node9" class="node">
<title>Reducer 9</title>
<ellipse fill="none" stroke="#000000" cx="432.2018" cy="-362" rx="46.4045" ry="18"/>
<text text-anchor="middle" x="432.2018" y="-357.8" font-family="Times,serif" font-size="14.00" fill="#000000">Reducer 9</text>
</g>
<!-- Reducer 14&#45;&gt;Reducer 9 -->
<g id="edge18" class="edge">
<title>Reducer 14&#45;&gt;Reducer 9</title>
<path fill="none" stroke="#000000" d="M473.4274,-430.1807C466.1762,-418.1885 456.4856,-402.1617 448.3217,-388.6598"/>
<polygon fill="#000000" stroke="#000000" points="451.1317,-386.5428 442.9624,-379.7964 445.1416,-390.1647 451.1317,-386.5428"/>
<text text-anchor="middle" x="488.0226" y="-400.8" font-family="Times,serif" font-size="14.00" fill="#000000">broadcast</text>
</g>
<!-- Map 15 -->
<g id="node3" class="node">
<title>Map 15</title>
<ellipse fill="none" stroke="#000000" cx="267.2018" cy="-448" rx="37.243" ry="18"/>
<text text-anchor="middle" x="267.2018" y="-443.8" font-family="Times,serif" font-size="14.00" fill="#000000">Map 15</text>
</g>
<!-- Reducer 17 -->
<g id="node4" class="node">
<title>Reducer 17</title>
<ellipse fill="none" stroke="#000000" cx="317.2018" cy="-362" rx="50.7474" ry="18"/>
<text text-anchor="middle" x="317.2018" y="-357.8" font-family="Times,serif" font-size="14.00" fill="#000000">Reducer 17</text>
</g>
<!-- Map 15&#45;&gt;Reducer 17 -->
<g id="edge2" class="edge">
<title>Map 15&#45;&gt;Reducer 17</title>
<path fill="none" stroke="#000000" d="M277.3201,-430.5966C284.3219,-418.5534 293.7725,-402.2984 301.7166,-388.6346"/>
<polygon fill="#000000" stroke="#000000" points="304.9265,-390.0769 306.927,-379.6727 298.875,-386.5586 304.9265,-390.0769"/>
<text text-anchor="middle" x="312.3087" y="-400.8" font-family="Times,serif" font-size="14.00" fill="#000000">sorted</text>
</g>
<!-- Reducer 16 -->
<g id="node5" class="node">
<title>Reducer 16</title>
<ellipse fill="none" stroke="#000000" cx="198.2018" cy="-362" rx="50.7474" ry="18"/>
<text text-anchor="middle" x="198.2018" y="-357.8" font-family="Times,serif" font-size="14.00" fill="#000000">Reducer 16</text>
</g>
<!-- Map 15&#45;&gt;Reducer 16 -->
<g id="edge3" class="edge">
<title>Map 15&#45;&gt;Reducer 16</title>
<path fill="none" stroke="#000000" d="M253.5696,-431.0092C243.5889,-418.5694 229.8759,-401.4778 218.5943,-387.4167"/>
<polygon fill="#000000" stroke="#000000" points="221.2674,-385.1555 212.2794,-379.546 215.8075,-389.5361 221.2674,-385.1555"/>
<text text-anchor="middle" x="254.3087" y="-400.8" font-family="Times,serif" font-size="14.00" fill="#000000">sorted</text>
</g>
<!-- Reducer 10 -->
<g id="node8" class="node">
<title>Reducer 10</title>
<ellipse fill="none" stroke="#000000" cx="365.2018" cy="-276" rx="50.7474" ry="18"/>
<text text-anchor="middle" x="365.2018" y="-271.8" font-family="Times,serif" font-size="14.00" fill="#000000">Reducer 10</text>
</g>
<!-- Reducer 17&#45;&gt;Reducer 10 -->
<g id="edge6" class="edge">
<title>Reducer 17&#45;&gt;Reducer 10</title>
<path fill="none" stroke="#000000" d="M325.8899,-344.2291C330.7104,-334.5923 336.9206,-322.5322 342.8776,-312 344.6324,-308.8974 346.523,-305.6792 348.435,-302.5003"/>
<polygon fill="#000000" stroke="#000000" points="351.5419,-304.129 353.7855,-293.7745 345.5744,-300.4699 351.5419,-304.129"/>
<text text-anchor="middle" x="358.3639" y="-314.8" font-family="Times,serif" font-size="14.00" fill="#000000">None</text>
</g>
<!-- Reducer 5 -->
<g id="node11" class="node">
<title>Reducer 5</title>
<ellipse fill="none" stroke="#000000" cx="166.2018" cy="-276" rx="46.4045" ry="18"/>
<text text-anchor="middle" x="166.2018" y="-271.8" font-family="Times,serif" font-size="14.00" fill="#000000">Reducer 5</text>
</g>
<!-- Reducer 16&#45;&gt;Reducer 5 -->
<g id="edge9" class="edge">
<title>Reducer 16&#45;&gt;Reducer 5</title>
<path fill="none" stroke="#000000" d="M191.4154,-343.7616C187.0588,-332.053 181.3195,-316.6289 176.4174,-303.4544"/>
<polygon fill="#000000" stroke="#000000" points="179.6364,-302.0688 172.8687,-293.9172 173.0758,-304.51 179.6364,-302.0688"/>
<text text-anchor="middle" x="199.3639" y="-314.8" font-family="Times,serif" font-size="14.00" fill="#000000">None</text>
</g>
<!-- Map 1 -->
<g id="node6" class="node">
<title>Map 1</title>
<ellipse fill="none" stroke="#000000" cx="263.2018" cy="-276" rx="32.8992" ry="18"/>
<text text-anchor="middle" x="263.2018" y="-271.8" font-family="Times,serif" font-size="14.00" fill="#000000">Map 1</text>
</g>
<!-- Reducer 11 -->
<g id="node7" class="node">
<title>Reducer 11</title>
<ellipse fill="none" stroke="#000000" cx="363.2018" cy="-190" rx="50.1002" ry="18"/>
<text text-anchor="middle" x="363.2018" y="-185.8" font-family="Times,serif" font-size="14.00" fill="#000000">Reducer 11</text>
</g>
<!-- Map 1&#45;&gt;Reducer 11 -->
<g id="edge4" class="edge">
<title>Map 1&#45;&gt;Reducer 11</title>
<path fill="none" stroke="#000000" d="M275.7786,-259.1403C283.9027,-248.885 295.0713,-235.9009 306.5602,-226 312.8283,-220.5983 319.9776,-215.4231 327.0368,-210.7646"/>
<polygon fill="#000000" stroke="#000000" points="329.2927,-213.478 335.8572,-205.1618 325.5395,-207.5693 329.2927,-213.478"/>
<text text-anchor="middle" x="334.0226" y="-228.8" font-family="Times,serif" font-size="14.00" fill="#000000">broadcast</text>
</g>
<!-- Reducer 6 -->
<g id="node14" class="node">
<title>Reducer 6</title>
<ellipse fill="none" stroke="#000000" cx="241.2018" cy="-104" rx="46.4045" ry="18"/>
<text text-anchor="middle" x="241.2018" y="-99.8" font-family="Times,serif" font-size="14.00" fill="#000000">Reducer 6</text>
</g>
<!-- Map 1&#45;&gt;Reducer 6 -->
<g id="edge14" class="edge">
<title>Map 1&#45;&gt;Reducer 6</title>
<path fill="none" stroke="#000000" d="M259.3555,-257.8923C256.5716,-244.2352 252.9015,-225.0108 250.5602,-208 247.045,-182.46 244.5474,-153.2019 243.0215,-132.238"/>
<polygon fill="#000000" stroke="#000000" points="246.5013,-131.8262 242.3119,-122.0949 239.5184,-132.3148 246.5013,-131.8262"/>
<text text-anchor="middle" x="278.0226" y="-185.8" font-family="Times,serif" font-size="14.00" fill="#000000">broadcast</text>
</g>
<!-- Reducer 11&#45;&gt;Reducer 6 -->
<g id="edge15" class="edge">
<title>Reducer 11&#45;&gt;Reducer 6</title>
<path fill="none" stroke="#000000" d="M340.2545,-173.8241C320.9628,-160.225 293.2166,-140.6661 271.9949,-125.7066"/>
<polygon fill="#000000" stroke="#000000" points="273.824,-122.7138 263.634,-119.8128 269.7908,-128.4352 273.824,-122.7138"/>
<text text-anchor="middle" x="337.0226" y="-142.8" font-family="Times,serif" font-size="14.00" fill="#000000">broadcast</text>
</g>
<!-- Reducer 10&#45;&gt;Reducer 11 -->
<g id="edge5" class="edge">
<title>Reducer 10&#45;&gt;Reducer 11</title>
<path fill="none" stroke="#000000" d="M364.7777,-257.7616C364.5125,-246.3597 364.1654,-231.4342 363.8645,-218.494"/>
<polygon fill="#000000" stroke="#000000" points="367.357,-218.128 363.6253,-208.2121 360.3589,-218.2908 367.357,-218.128"/>
<text text-anchor="middle" x="382.3087" y="-228.8" font-family="Times,serif" font-size="14.00" fill="#000000">sorted</text>
</g>
<!-- Reducer 9&#45;&gt;Reducer 10 -->
<g id="edge7" class="edge">
<title>Reducer 9&#45;&gt;Reducer 10</title>
<path fill="none" stroke="#000000" d="M418.6434,-344.5966C409.0171,-332.2405 395.9368,-315.4509 385.1265,-301.575"/>
<polygon fill="#000000" stroke="#000000" points="387.6469,-299.1151 378.7401,-293.3775 382.1249,-303.4171 387.6469,-299.1151"/>
<text text-anchor="middle" x="417.3639" y="-314.8" font-family="Times,serif" font-size="14.00" fill="#000000">None</text>
</g>
<!-- Reducer 4 -->
<g id="node12" class="node">
<title>Reducer 4</title>
<ellipse fill="none" stroke="#000000" cx="83.2018" cy="-362" rx="46.4045" ry="18"/>
<text text-anchor="middle" x="83.2018" y="-357.8" font-family="Times,serif" font-size="14.00" fill="#000000">Reducer 4</text>
</g>
<!-- Reducer 13&#45;&gt;Reducer 4 -->
<g id="edge11" class="edge">
<title>Reducer 13&#45;&gt;Reducer 4</title>
<path fill="none" stroke="#000000" d="M145.4173,-430.5966C133.9241,-417.9245 118.2014,-400.5893 105.4376,-386.5164"/>
<polygon fill="#000000" stroke="#000000" points="108.0073,-384.1399 98.6966,-379.084 102.8223,-388.8426 108.0073,-384.1399"/>
<text text-anchor="middle" x="154.0226" y="-400.8" font-family="Times,serif" font-size="14.00" fill="#000000">broadcast</text>
</g>
<!-- Reducer 5&#45;&gt;Reducer 6 -->
<g id="edge16" class="edge">
<title>Reducer 5&#45;&gt;Reducer 6</title>
<path fill="none" stroke="#000000" d="M173.3388,-257.8425C181.6115,-236.9912 195.8015,-201.8193 208.9879,-172 214.991,-158.4249 222.0113,-143.5043 227.9633,-131.1069"/>
<polygon fill="#000000" stroke="#000000" points="231.2708,-132.3063 232.4677,-121.7793 224.9673,-129.2622 231.2708,-132.3063"/>
<text text-anchor="middle" x="226.3087" y="-185.8" font-family="Times,serif" font-size="14.00" fill="#000000">sorted</text>
</g>
<!-- Reducer 4&#45;&gt;Reducer 5 -->
<g id="edge10" class="edge">
<title>Reducer 4&#45;&gt;Reducer 5</title>
<path fill="none" stroke="#000000" d="M99.5999,-345.0092C111.8774,-332.288 128.8499,-314.702 142.5883,-300.467"/>
<polygon fill="#000000" stroke="#000000" points="145.4117,-302.5816 149.8377,-292.9555 140.3748,-297.7205 145.4117,-302.5816"/>
<text text-anchor="middle" x="145.3639" y="-314.8" font-family="Times,serif" font-size="14.00" fill="#000000">None</text>
</g>
<!-- Reducer 3 -->
<g id="node13" class="node">
<title>Reducer 3</title>
<ellipse fill="none" stroke="#000000" cx="46.2018" cy="-448" rx="46.4045" ry="18"/>
<text text-anchor="middle" x="46.2018" y="-443.8" font-family="Times,serif" font-size="14.00" fill="#000000">Reducer 3</text>
</g>
<!-- Reducer 3&#45;&gt;Reducer 4 -->
<g id="edge12" class="edge">
<title>Reducer 3&#45;&gt;Reducer 4</title>
<path fill="none" stroke="#000000" d="M53.8682,-430.1807C58.9781,-418.3038 65.7905,-402.4695 71.564,-389.05"/>
<polygon fill="#000000" stroke="#000000" points="74.8081,-390.3656 75.5452,-379.7964 68.378,-387.5991 74.8081,-390.3656"/>
<text text-anchor="middle" x="84.3087" y="-400.8" font-family="Times,serif" font-size="14.00" fill="#000000">sorted</text>
</g>
<!-- Reducer 7 -->
<g id="node15" class="node">
<title>Reducer 7</title>
<ellipse fill="none" stroke="#000000" cx="241.2018" cy="-18" rx="46.4045" ry="18"/>
<text text-anchor="middle" x="241.2018" y="-13.8" font-family="Times,serif" font-size="14.00" fill="#000000">Reducer 7</text>
</g>
<!-- Reducer 6&#45;&gt;Reducer 7 -->
<g id="edge13" class="edge">
<title>Reducer 6&#45;&gt;Reducer 7</title>
<path fill="none" stroke="#000000" d="M241.2018,-85.7616C241.2018,-74.3597 241.2018,-59.4342 241.2018,-46.494"/>
<polygon fill="#000000" stroke="#000000" points="244.7019,-46.2121 241.2018,-36.2121 237.7019,-46.2121 244.7019,-46.2121"/>
<text text-anchor="middle" x="258.3087" y="-56.8" font-family="Times,serif" font-size="14.00" fill="#000000">sorted</text>
</g>
<!-- Map 2 -->
<g id="node16" class="node">
<title>Map 2</title>
<ellipse fill="none" stroke="#000000" cx="148.2018" cy="-534" rx="32.8992" ry="18"/>
<text text-anchor="middle" x="148.2018" y="-529.8" font-family="Times,serif" font-size="14.00" fill="#000000">Map 2</text>
</g>
<!-- Map 2&#45;&gt;Reducer 3 -->
<g id="edge17" class="edge">
<title>Map 2&#45;&gt;Reducer 3</title>
<path fill="none" stroke="#000000" d="M129.9663,-518.6249C114.2636,-505.3854 91.3747,-486.0869 73.49,-471.0077"/>
<polygon fill="#000000" stroke="#000000" points="75.57,-468.1834 65.6687,-464.4132 71.0578,-473.5351 75.57,-468.1834"/>
<text text-anchor="middle" x="121.3087" y="-486.8" font-family="Times,serif" font-size="14.00" fill="#000000">sorted</text>
</g>
<!-- Reducer 8 -->
<g id="node17" class="node">
<title>Reducer 8</title>
<ellipse fill="none" stroke="#000000" cx="369.2018" cy="-448" rx="46.4045" ry="18"/>
<text text-anchor="middle" x="369.2018" y="-443.8" font-family="Times,serif" font-size="14.00" fill="#000000">Reducer 8</text>
</g>
<!-- Map 2&#45;&gt;Reducer 8 -->
<g id="edge20" class="edge">
<title>Map 2&#45;&gt;Reducer 8</title>
<path fill="none" stroke="#000000" d="M150.2829,-515.9936C152.5352,-505.0255 157.2247,-491.6865 166.9879,-484 192.7102,-463.7492 281.2305,-473.0402 313.2018,-466 317.0742,-465.1473 321.0602,-464.1392 325.0362,-463.0424"/>
<polygon fill="#000000" stroke="#000000" points="326.2173,-466.3435 334.8287,-460.1715 324.2479,-459.6262 326.2173,-466.3435"/>
<text text-anchor="middle" x="184.3087" y="-486.8" font-family="Times,serif" font-size="14.00" fill="#000000">sorted</text>
</g>
<!-- Reducer 8&#45;&gt;Reducer 9 -->
<g id="edge19" class="edge">
<title>Reducer 8&#45;&gt;Reducer 9</title>
<path fill="none" stroke="#000000" d="M381.9508,-430.5966C391.0024,-418.2405 403.3017,-401.4509 413.4666,-387.575"/>
<polygon fill="#000000" stroke="#000000" points="416.3856,-389.5129 419.4718,-379.3775 410.7387,-385.3762 416.3856,-389.5129"/>
<text text-anchor="middle" x="421.3087" y="-400.8" font-family="Times,serif" font-size="14.00" fill="#000000">sorted</text>
</g>
</g>
</svg>
