<?xml version="1.0" encoding="UTF-8" standalone="no"?>
<!DOCTYPE svg PUBLIC "-//W3C//DTD SVG 1.1//EN"
 "http://www.w3.org/Graphics/SVG/1.1/DTD/svg11.dtd">
<!-- Generated by graphviz version 2.40.1 (20161225.0304)
 -->
<!-- Title: %3 Pages: 1 -->
<svg width="247pt" height="302pt"
 viewBox="0.00 0.00 246.59 302.00" xmlns="http://www.w3.org/2000/svg" xmlns:xlink="http://www.w3.org/1999/xlink">
<g id="graph0" class="graph" transform="scale(1 1) rotate(0) translate(4 298)">
<title>%3</title>
<polygon fill="#ffffff" stroke="transparent" points="-4,4 -4,-298 242.5912,-298 242.5912,4 -4,4"/>
<!-- Reducer 2 -->
<g id="node1" class="node">
<title>Reducer 2</title>
<ellipse fill="none" stroke="#000000" cx="116.9496" cy="-104" rx="46.4045" ry="18"/>
<text text-anchor="middle" x="116.9496" y="-99.8" font-family="Times,serif" font-size="14.00" fill="#000000">Reducer 2</text>
</g>
<!-- Reducer 3 -->
<g id="node2" class="node">
<title>Reducer 3</title>
<ellipse fill="none" stroke="#000000" cx="116.9496" cy="-18" rx="46.4045" ry="18"/>
<text text-anchor="middle" x="116.9496" y="-13.8" font-family="Times,serif" font-size="14.00" fill="#000000">Reducer 3</text>
</g>
<!-- Reducer 2&#45;&gt;Reducer 3 -->
<g id="edge1" class="edge">
<title>Reducer 2&#45;&gt;Reducer 3</title>
<path fill="none" stroke="#000000" d="M116.9496,-85.7616C116.9496,-74.3597 116.9496,-59.4342 116.9496,-46.494"/>
<polygon fill="#000000" stroke="#000000" points="120.4497,-46.2121 116.9496,-36.2121 113.4497,-46.2121 120.4497,-46.2121"/>
<text text-anchor="middle" x="134.0565" y="-56.8" font-family="Times,serif" font-size="14.00" fill="#000000">sorted</text>
</g>
<!-- Map 4 -->
<g id="node3" class="node">
<title>Map 4</title>
<ellipse fill="none" stroke="#000000" cx="32.9496" cy="-276" rx="32.8992" ry="18"/>
<text text-anchor="middle" x="32.9496" y="-271.8" font-family="Times,serif" font-size="14.00" fill="#000000">Map 4</text>
</g>
<!-- Map 1 -->
<g id="node4" class="node">
<title>Map 1</title>
<ellipse fill="none" stroke="#000000" cx="116.9496" cy="-190" rx="32.8992" ry="18"/>
<text text-anchor="middle" x="116.9496" y="-185.8" font-family="Times,serif" font-size="14.00" fill="#000000">Map 1</text>
</g>
<!-- Map 4&#45;&gt;Map 1 -->
<g id="edge2" class="edge">
<title>Map 4&#45;&gt;Map 1</title>
<path fill="none" stroke="#000000" d="M39.7155,-257.9003C44.1674,-247.7004 50.757,-235.2004 59.308,-226 66.104,-218.6878 74.7043,-212.2767 83.1737,-206.9697"/>
<polygon fill="#000000" stroke="#000000" points="85.0306,-209.938 91.8713,-201.8474 81.4784,-203.9062 85.0306,-209.938"/>
<text text-anchor="middle" x="85.7704" y="-228.8" font-family="Times,serif" font-size="14.00" fill="#000000">broadcast</text>
</g>
<!-- Map 1&#45;&gt;Reducer 2 -->
<g id="edge5" class="edge">
<title>Map 1&#45;&gt;Reducer 2</title>
<path fill="none" stroke="#000000" d="M116.9496,-171.7616C116.9496,-160.3597 116.9496,-145.4342 116.9496,-132.494"/>
<polygon fill="#000000" stroke="#000000" points="120.4497,-132.2121 116.9496,-122.2121 113.4497,-132.2121 120.4497,-132.2121"/>
<text text-anchor="middle" x="134.0565" y="-142.8" font-family="Times,serif" font-size="14.00" fill="#000000">sorted</text>
</g>
<!-- Map 5 -->
<g id="node5" class="node">
<title>Map 5</title>
<ellipse fill="none" stroke="#000000" cx="116.9496" cy="-276" rx="32.8992" ry="18"/>
<text text-anchor="middle" x="116.9496" y="-271.8" font-family="Times,serif" font-size="14.00" fill="#000000">Map 5</text>
</g>
<!-- Map 5&#45;&gt;Map 1 -->
<g id="edge3" class="edge">
<title>Map 5&#45;&gt;Map 1</title>
<path fill="none" stroke="#000000" d="M116.9496,-257.7616C116.9496,-246.3597 116.9496,-231.4342 116.9496,-218.494"/>
<polygon fill="#000000" stroke="#000000" points="120.4497,-218.2121 116.9496,-208.2121 113.4497,-218.2121 120.4497,-218.2121"/>
<text text-anchor="middle" x="143.7704" y="-228.8" font-family="Times,serif" font-size="14.00" fill="#000000">broadcast</text>
</g>
<!-- Map 6 -->
<g id="node6" class="node">
<title>Map 6</title>
<ellipse fill="none" stroke="#000000" cx="200.9496" cy="-276" rx="32.8992" ry="18"/>
<text text-anchor="middle" x="200.9496" y="-271.8" font-family="Times,serif" font-size="14.00" fill="#000000">Map 6</text>
</g>
<!-- Map 6&#45;&gt;Map 1 -->
<g id="edge4" class="edge">
<title>Map 6&#45;&gt;Map 1</title>
<path fill="none" stroke="#000000" d="M194.3342,-257.8891C189.9624,-247.6854 183.4624,-235.1854 174.9496,-226 168.1335,-218.6454 159.4874,-212.2198 150.9654,-206.9126"/>
<polygon fill="#000000" stroke="#000000" points="152.6109,-203.8204 142.2115,-201.7946 149.0778,-209.8634 152.6109,-203.8204"/>
<text text-anchor="middle" x="211.7704" y="-228.8" font-family="Times,serif" font-size="14.00" fill="#000000">broadcast</text>
</g>
</g>
</svg>
