<?xml version="1.0" encoding="UTF-8" standalone="no"?>
<!DOCTYPE svg PUBLIC "-//W3C//DTD SVG 1.1//EN"
 "http://www.w3.org/Graphics/SVG/1.1/DTD/svg11.dtd">
<!-- Generated by graphviz version 2.40.1 (20161225.0304)
 -->
<!-- Title: %3 Pages: 1 -->
<svg width="1875pt" height="388pt"
 viewBox="0.00 0.00 1874.83 388.00" xmlns="http://www.w3.org/2000/svg" xmlns:xlink="http://www.w3.org/1999/xlink">
<g id="graph0" class="graph" transform="scale(1 1) rotate(0) translate(4 384)">
<title>%3</title>
<polygon fill="#ffffff" stroke="transparent" points="-4,4 -4,-384 1870.8253,-384 1870.8253,4 -4,4"/>
<!-- Map 15 -->
<g id="node1" class="node">
<title>Map 15</title>
<ellipse fill="none" stroke="#000000" cx="465.6235" cy="-362" rx="37.243" ry="18"/>
<text text-anchor="middle" x="465.6235" y="-357.8" font-family="Times,serif" font-size="14.00" fill="#000000">Map 15</text>
</g>
<!-- Map 7 -->
<g id="node2" class="node">
<title>Map 7</title>
<ellipse fill="none" stroke="#000000" cx="1032.6235" cy="-276" rx="32.8992" ry="18"/>
<text text-anchor="middle" x="1032.6235" y="-271.8" font-family="Times,serif" font-size="14.00" fill="#000000">Map 7</text>
</g>
<!-- Map 15&#45;&gt;Map 7 -->
<g id="edge1" class="edge">
<title>Map 15&#45;&gt;Map 7</title>
<path fill="none" stroke="#000000" d="M502.6318,-359.4547C561.0297,-355.0459 677.9612,-344.6248 775.6235,-326 799.285,-321.4876 804.4626,-317.2027 827.9819,-312 883.831,-299.6455 949.0041,-288.7845 990.5252,-282.3064"/>
<polygon fill="#000000" stroke="#000000" points="991.2042,-285.7431 1000.5517,-280.7557 990.1342,-278.8254 991.2042,-285.7431"/>
<text text-anchor="middle" x="855.4443" y="-314.8" font-family="Times,serif" font-size="14.00" fill="#000000">broadcast</text>
</g>
<!-- Reducer 19 -->
<g id="node10" class="node">
<title>Reducer 19</title>
<ellipse fill="none" stroke="#000000" cx="259.6235" cy="-276" rx="50.7474" ry="18"/>
<text text-anchor="middle" x="259.6235" y="-271.8" font-family="Times,serif" font-size="14.00" fill="#000000">Reducer 19</text>
</g>
<!-- Map 15&#45;&gt;Reducer 19 -->
<g id="edge9" class="edge">
<title>Map 15&#45;&gt;Reducer 19</title>
<path fill="none" stroke="#000000" d="M431.2874,-354.6597C405.8545,-348.6037 370.6832,-338.9119 341.4097,-326 324.0083,-318.3246 305.8447,-307.5379 291.0671,-297.9472"/>
<polygon fill="#000000" stroke="#000000" points="292.6109,-294.7716 282.3407,-292.1687 288.7461,-300.6081 292.6109,-294.7716"/>
<text text-anchor="middle" x="365.7305" y="-314.8" font-family="Times,serif" font-size="14.00" fill="#000000">unsorted</text>
</g>
<!-- Reducer 18 -->
<g id="node11" class="node">
<title>Reducer 18</title>
<ellipse fill="none" stroke="#000000" cx="378.6235" cy="-276" rx="50.7474" ry="18"/>
<text text-anchor="middle" x="378.6235" y="-271.8" font-family="Times,serif" font-size="14.00" fill="#000000">Reducer 18</text>
</g>
<!-- Map 15&#45;&gt;Reducer 18 -->
<g id="edge10" class="edge">
<title>Map 15&#45;&gt;Reducer 18</title>
<path fill="none" stroke="#000000" d="M437.1598,-349.9991C425.6057,-344.0685 412.7987,-336.0136 403.4097,-326 397.3792,-319.5684 392.504,-311.3913 388.7249,-303.5224"/>
<polygon fill="#000000" stroke="#000000" points="391.8682,-301.9749 384.6547,-294.215 385.4547,-304.7796 391.8682,-301.9749"/>
<text text-anchor="middle" x="427.7305" y="-314.8" font-family="Times,serif" font-size="14.00" fill="#000000">unsorted</text>
</g>
<!-- Map 1 -->
<g id="node12" class="node">
<title>Map 1</title>
<ellipse fill="none" stroke="#000000" cx="607.6235" cy="-190" rx="32.8992" ry="18"/>
<text text-anchor="middle" x="607.6235" y="-185.8" font-family="Times,serif" font-size="14.00" fill="#000000">Map 1</text>
</g>
<!-- Map 15&#45;&gt;Map 1 -->
<g id="edge11" class="edge">
<title>Map 15&#45;&gt;Map 1</title>
<path fill="none" stroke="#000000" d="M462.0752,-343.729C458.8061,-321.4928 456.7449,-283.7353 473.9819,-258 495.2241,-226.285 535.9764,-208.5922 566.92,-199.2633"/>
<polygon fill="#000000" stroke="#000000" points="567.9199,-202.6179 576.5848,-196.5212 566.0092,-195.8837 567.9199,-202.6179"/>
<text text-anchor="middle" x="501.4443" y="-271.8" font-family="Times,serif" font-size="14.00" fill="#000000">broadcast</text>
</g>
<!-- Reducer 16 -->
<g id="node13" class="node">
<title>Reducer 16</title>
<ellipse fill="none" stroke="#000000" cx="587.6235" cy="-276" rx="50.7474" ry="18"/>
<text text-anchor="middle" x="587.6235" y="-271.8" font-family="Times,serif" font-size="14.00" fill="#000000">Reducer 16</text>
</g>
<!-- Map 15&#45;&gt;Reducer 16 -->
<g id="edge19" class="edge">
<title>Map 15&#45;&gt;Reducer 16</title>
<path fill="none" stroke="#000000" d="M486.8743,-347.0199C506.0398,-333.5098 534.4776,-313.4635 556.2576,-298.1104"/>
<polygon fill="#000000" stroke="#000000" points="558.385,-300.893 564.5418,-292.2707 554.3518,-295.1716 558.385,-300.893"/>
<text text-anchor="middle" x="558.7305" y="-314.8" font-family="Times,serif" font-size="14.00" fill="#000000">unsorted</text>
</g>
<!-- Map 29 -->
<g id="node14" class="node">
<title>Map 29</title>
<ellipse fill="none" stroke="#000000" cx="702.6235" cy="-190" rx="37.243" ry="18"/>
<text text-anchor="middle" x="702.6235" y="-185.8" font-family="Times,serif" font-size="14.00" fill="#000000">Map 29</text>
</g>
<!-- Map 15&#45;&gt;Map 29 -->
<g id="edge45" class="edge">
<title>Map 15&#45;&gt;Map 29</title>
<path fill="none" stroke="#000000" d="M501.854,-357.4768C542.4316,-350.5867 607.7258,-333.765 647.6235,-294 659.3483,-282.3142 678.2757,-243.7316 690.5839,-216.9982"/>
<polygon fill="#000000" stroke="#000000" points="693.8332,-218.3082 694.7935,-207.7569 687.463,-215.4064 693.8332,-218.3082"/>
<text text-anchor="middle" x="697.4443" y="-271.8" font-family="Times,serif" font-size="14.00" fill="#000000">broadcast</text>
</g>
<!-- Map 27 -->
<g id="node17" class="node">
<title>Map 27</title>
<ellipse fill="none" stroke="#000000" cx="849.6235" cy="-190" rx="37.243" ry="18"/>
<text text-anchor="middle" x="849.6235" y="-185.8" font-family="Times,serif" font-size="14.00" fill="#000000">Map 27</text>
</g>
<!-- Map 15&#45;&gt;Map 27 -->
<g id="edge26" class="edge">
<title>Map 15&#45;&gt;Map 27</title>
<path fill="none" stroke="#000000" d="M500.5087,-355.2668C533.6679,-348.6381 584.8348,-337.8147 628.6235,-326 673.677,-313.8441 701.1108,-331.6912 728.6235,-294 738.0569,-281.0767 734.0703,-273.0443 728.6235,-258 725.0785,-248.2083 717.1686,-249.7917 713.6235,-240 711.5053,-234.1494 709.8282,-230.9307 713.6235,-226 724.6406,-211.6873 768.3216,-201.8964 803.2471,-196.1799"/>
<polygon fill="#000000" stroke="#000000" points="803.9564,-199.6115 813.2941,-194.6057 802.8728,-192.6959 803.9564,-199.6115"/>
<text text-anchor="middle" x="761.4443" y="-271.8" font-family="Times,serif" font-size="14.00" fill="#000000">broadcast</text>
</g>
<!-- Reducer 17 -->
<g id="node20" class="node">
<title>Reducer 17</title>
<ellipse fill="none" stroke="#000000" cx="50.6235" cy="-276" rx="50.7474" ry="18"/>
<text text-anchor="middle" x="50.6235" y="-271.8" font-family="Times,serif" font-size="14.00" fill="#000000">Reducer 17</text>
</g>
<!-- Map 15&#45;&gt;Reducer 17 -->
<g id="edge18" class="edge">
<title>Map 15&#45;&gt;Reducer 17</title>
<path fill="none" stroke="#000000" d="M428.0836,-360.6043C335.9553,-356.8892 104.0912,-345.6763 75.4097,-326 67.6313,-320.6638 62.1844,-312.1547 58.4206,-303.6578"/>
<polygon fill="#000000" stroke="#000000" points="61.6681,-302.3504 54.8517,-294.2395 55.1223,-304.8309 61.6681,-302.3504"/>
<text text-anchor="middle" x="99.7305" y="-314.8" font-family="Times,serif" font-size="14.00" fill="#000000">unsorted</text>
</g>
<!-- Map 23 -->
<g id="node26" class="node">
<title>Map 23</title>
<ellipse fill="none" stroke="#000000" cx="338.6235" cy="-190" rx="37.243" ry="18"/>
<text text-anchor="middle" x="338.6235" y="-185.8" font-family="Times,serif" font-size="14.00" fill="#000000">Map 23</text>
</g>
<!-- Map 15&#45;&gt;Map 23 -->
<g id="edge30" class="edge">
<title>Map 15&#45;&gt;Map 23</title>
<path fill="none" stroke="#000000" d="M428.4101,-359.7709C351.9083,-354.3309 181.1918,-337.4883 145.9819,-294 101.6454,-239.2393 222.542,-209.2515 292.614,-196.8743"/>
<polygon fill="#000000" stroke="#000000" points="293.2904,-200.3095 302.558,-195.1751 292.1113,-193.4095 293.2904,-200.3095"/>
<text text-anchor="middle" x="173.4443" y="-271.8" font-family="Times,serif" font-size="14.00" fill="#000000">broadcast</text>
</g>
<!-- Map 7&#45;&gt;Map 1 -->
<g id="edge12" class="edge">
<title>Map 7&#45;&gt;Map 1</title>
<path fill="none" stroke="#000000" d="M1000.1845,-272.6998C946.417,-266.9185 841.3485,-254.2138 806.9819,-240 797.1701,-235.9419 797.4787,-229.9516 787.6235,-226 733.0758,-204.1282 713.6478,-222.2148 656.6235,-208 652.4191,-206.9519 648.0759,-205.6675 643.7925,-204.2715"/>
<polygon fill="#000000" stroke="#000000" points="644.5945,-200.845 633.9997,-200.8705 642.298,-207.4576 644.5945,-200.845"/>
<text text-anchor="middle" x="834.4443" y="-228.8" font-family="Times,serif" font-size="14.00" fill="#000000">broadcast</text>
</g>
<!-- Map 7&#45;&gt;Map 29 -->
<g id="edge46" class="edge">
<title>Map 7&#45;&gt;Map 29</title>
<path fill="none" stroke="#000000" d="M1000.4088,-271.8868C969.4712,-267.0966 921.9615,-257.5044 883.9819,-240 874.3389,-235.5556 874.3082,-230.3528 864.6235,-226 844.0922,-216.7721 788.269,-205.3969 747.8863,-197.9338"/>
<polygon fill="#000000" stroke="#000000" points="748.4494,-194.4788 737.9831,-196.1243 747.1911,-201.3648 748.4494,-194.4788"/>
<text text-anchor="middle" x="911.4443" y="-228.8" font-family="Times,serif" font-size="14.00" fill="#000000">broadcast</text>
</g>
<!-- Map 7&#45;&gt;Map 27 -->
<g id="edge27" class="edge">
<title>Map 7&#45;&gt;Map 27</title>
<path fill="none" stroke="#000000" d="M1008.6715,-263.6313C995.6607,-256.8177 979.3419,-248.1177 964.9819,-240 954.4456,-234.0438 952.4877,-231.3349 941.6235,-226 925.1769,-217.9238 906.4359,-210.319 890.1794,-204.1985"/>
<polygon fill="#000000" stroke="#000000" points="891.0144,-200.7757 880.4212,-200.5886 888.5856,-207.3408 891.0144,-200.7757"/>
<text text-anchor="middle" x="992.4443" y="-228.8" font-family="Times,serif" font-size="14.00" fill="#000000">broadcast</text>
</g>
<!-- Reducer 11 -->
<g id="node21" class="node">
<title>Reducer 11</title>
<ellipse fill="none" stroke="#000000" cx="1272.6235" cy="-190" rx="50.1002" ry="18"/>
<text text-anchor="middle" x="1272.6235" y="-185.8" font-family="Times,serif" font-size="14.00" fill="#000000">Reducer 11</text>
</g>
<!-- Map 7&#45;&gt;Reducer 11 -->
<g id="edge20" class="edge">
<title>Map 7&#45;&gt;Reducer 11</title>
<path fill="none" stroke="#000000" d="M1061.1547,-266.837C1082.9903,-259.7405 1113.8105,-249.5427 1140.6235,-240 1170.3076,-229.4355 1203.4711,-216.8705 1229.1314,-206.9794"/>
<polygon fill="#000000" stroke="#000000" points="1230.5099,-210.199 1238.5756,-203.3291 1227.9863,-203.6697 1230.5099,-210.199"/>
<text text-anchor="middle" x="1194.7305" y="-228.8" font-family="Times,serif" font-size="14.00" fill="#000000">sorted</text>
</g>
<!-- Reducer 13 -->
<g id="node22" class="node">
<title>Reducer 13</title>
<ellipse fill="none" stroke="#000000" cx="1701.6235" cy="-104" rx="50.7474" ry="18"/>
<text text-anchor="middle" x="1701.6235" y="-99.8" font-family="Times,serif" font-size="14.00" fill="#000000">Reducer 13</text>
</g>
<!-- Map 7&#45;&gt;Reducer 13 -->
<g id="edge22" class="edge">
<title>Map 7&#45;&gt;Reducer 13</title>
<path fill="none" stroke="#000000" d="M1031.7569,-257.6604C1030.3191,-247.1215 1026.8372,-234.3585 1018.6235,-226 999.046,-206.0774 975.094,-230.4014 958.4097,-208 948.8525,-195.168 947.516,-183.7187 958.4097,-172 1010.3086,-116.1701 1567.6912,-135.9865 1642.6235,-122 1646.7687,-121.2263 1651.0345,-120.2648 1655.2857,-119.1915"/>
<polygon fill="#000000" stroke="#000000" points="1656.3833,-122.5202 1665.1154,-116.5202 1654.5475,-115.7652 1656.3833,-122.5202"/>
<text text-anchor="middle" x="975.7305" y="-185.8" font-family="Times,serif" font-size="14.00" fill="#000000">sorted</text>
</g>
<!-- Map 7&#45;&gt;Map 23 -->
<g id="edge31" class="edge">
<title>Map 7&#45;&gt;Map 23</title>
<path fill="none" stroke="#000000" d="M999.824,-272.8879C944.1675,-267.4306 827.7455,-255.2517 729.9819,-240 697.6177,-234.951 690.0028,-230.9516 657.6235,-226 561.5357,-211.3059 448.3095,-199.924 385.8971,-194.1616"/>
<polygon fill="#000000" stroke="#000000" points="385.8658,-190.6442 375.5885,-193.2184 385.228,-197.6151 385.8658,-190.6442"/>
<text text-anchor="middle" x="757.4443" y="-228.8" font-family="Times,serif" font-size="14.00" fill="#000000">broadcast</text>
</g>
<!-- Reducer 9 -->
<g id="node31" class="node">
<title>Reducer 9</title>
<ellipse fill="none" stroke="#000000" cx="1047.6235" cy="-190" rx="46.4045" ry="18"/>
<text text-anchor="middle" x="1047.6235" y="-185.8" font-family="Times,serif" font-size="14.00" fill="#000000">Reducer 9</text>
</g>
<!-- Map 7&#45;&gt;Reducer 9 -->
<g id="edge40" class="edge">
<title>Map 7&#45;&gt;Reducer 9</title>
<path fill="none" stroke="#000000" d="M1038.8827,-258.2466C1040.6859,-252.4914 1042.4743,-246.0347 1043.6235,-240 1044.9589,-232.9879 1045.8492,-225.3402 1046.4426,-218.1827"/>
<polygon fill="#000000" stroke="#000000" points="1049.9364,-218.3908 1047.1167,-208.1781 1042.9523,-217.9201 1049.9364,-218.3908"/>
<text text-anchor="middle" x="1063.7305" y="-228.8" font-family="Times,serif" font-size="14.00" fill="#000000">sorted</text>
</g>
<!-- Reducer 8 -->
<g id="node32" class="node">
<title>Reducer 8</title>
<ellipse fill="none" stroke="#000000" cx="1157.6235" cy="-190" rx="46.4045" ry="18"/>
<text text-anchor="middle" x="1157.6235" y="-185.8" font-family="Times,serif" font-size="14.00" fill="#000000">Reducer 8</text>
</g>
<!-- Map 7&#45;&gt;Reducer 8 -->
<g id="edge42" class="edge">
<title>Map 7&#45;&gt;Reducer 8</title>
<path fill="none" stroke="#000000" d="M1053.2647,-261.7988C1073.1867,-248.0925 1103.6099,-227.1614 1126.4766,-211.4291"/>
<polygon fill="#000000" stroke="#000000" points="1128.5782,-214.2316 1134.8329,-205.68 1124.6105,-208.4646 1128.5782,-214.2316"/>
<text text-anchor="middle" x="1119.7305" y="-228.8" font-family="Times,serif" font-size="14.00" fill="#000000">sorted</text>
</g>
<!-- Map 20 -->
<g id="node3" class="node">
<title>Map 20</title>
<ellipse fill="none" stroke="#000000" cx="846.6235" cy="-362" rx="37.243" ry="18"/>
<text text-anchor="middle" x="846.6235" y="-357.8" font-family="Times,serif" font-size="14.00" fill="#000000">Map 20</text>
</g>
<!-- Map 20&#45;&gt;Map 7 -->
<g id="edge2" class="edge">
<title>Map 20&#45;&gt;Map 7</title>
<path fill="none" stroke="#000000" d="M862.3662,-345.4857C873.5964,-334.5739 889.5625,-320.7262 905.9819,-312 932.5918,-297.858 965.3808,-288.7343 990.9274,-283.2108"/>
<polygon fill="#000000" stroke="#000000" points="991.9504,-286.5737 1001.0392,-281.1291 990.5388,-279.7175 991.9504,-286.5737"/>
<text text-anchor="middle" x="933.4443" y="-314.8" font-family="Times,serif" font-size="14.00" fill="#000000">broadcast</text>
</g>
<!-- Map 21 -->
<g id="node4" class="node">
<title>Map 21</title>
<ellipse fill="none" stroke="#000000" cx="939.6235" cy="-362" rx="37.243" ry="18"/>
<text text-anchor="middle" x="939.6235" y="-357.8" font-family="Times,serif" font-size="14.00" fill="#000000">Map 21</text>
</g>
<!-- Map 21&#45;&gt;Map 7 -->
<g id="edge3" class="edge">
<title>Map 21&#45;&gt;Map 7</title>
<path fill="none" stroke="#000000" d="M949.5855,-344.4823C955.9721,-334.2348 964.9331,-321.4894 974.9819,-312 982.3036,-305.0859 991.1504,-298.7805 999.6916,-293.4465"/>
<polygon fill="#000000" stroke="#000000" points="1001.6059,-296.3801 1008.4051,-288.2546 998.0228,-290.3666 1001.6059,-296.3801"/>
<text text-anchor="middle" x="1002.4443" y="-314.8" font-family="Times,serif" font-size="14.00" fill="#000000">broadcast</text>
</g>
<!-- Map 22 -->
<g id="node5" class="node">
<title>Map 22</title>
<ellipse fill="none" stroke="#000000" cx="1032.6235" cy="-362" rx="37.243" ry="18"/>
<text text-anchor="middle" x="1032.6235" y="-357.8" font-family="Times,serif" font-size="14.00" fill="#000000">Map 22</text>
</g>
<!-- Map 22&#45;&gt;Map 7 -->
<g id="edge4" class="edge">
<title>Map 22&#45;&gt;Map 7</title>
<path fill="none" stroke="#000000" d="M1032.6235,-343.7616C1032.6235,-332.3597 1032.6235,-317.4342 1032.6235,-304.494"/>
<polygon fill="#000000" stroke="#000000" points="1036.1236,-304.2121 1032.6235,-294.2121 1029.1236,-304.2121 1036.1236,-304.2121"/>
<text text-anchor="middle" x="1059.4443" y="-314.8" font-family="Times,serif" font-size="14.00" fill="#000000">broadcast</text>
</g>
<!-- Map 25 -->
<g id="node6" class="node">
<title>Map 25</title>
<ellipse fill="none" stroke="#000000" cx="1125.6235" cy="-362" rx="37.243" ry="18"/>
<text text-anchor="middle" x="1125.6235" y="-357.8" font-family="Times,serif" font-size="14.00" fill="#000000">Map 25</text>
</g>
<!-- Map 25&#45;&gt;Map 7 -->
<g id="edge5" class="edge">
<title>Map 25&#45;&gt;Map 7</title>
<path fill="none" stroke="#000000" d="M1115.8051,-344.4664C1109.4982,-334.2133 1100.629,-321.4676 1090.6235,-312 1083.2761,-305.0476 1074.3808,-298.7294 1065.7865,-293.3953"/>
<polygon fill="#000000" stroke="#000000" points="1067.4057,-290.2866 1057.0168,-288.2076 1063.8417,-296.3114 1067.4057,-290.2866"/>
<text text-anchor="middle" x="1130.4443" y="-314.8" font-family="Times,serif" font-size="14.00" fill="#000000">broadcast</text>
</g>
<!-- Map 26 -->
<g id="node7" class="node">
<title>Map 26</title>
<ellipse fill="none" stroke="#000000" cx="1218.6235" cy="-362" rx="37.243" ry="18"/>
<text text-anchor="middle" x="1218.6235" y="-357.8" font-family="Times,serif" font-size="14.00" fill="#000000">Map 26</text>
</g>
<!-- Map 26&#45;&gt;Map 7 -->
<g id="edge6" class="edge">
<title>Map 26&#45;&gt;Map 7</title>
<path fill="none" stroke="#000000" d="M1203.6393,-345.4352C1192.9147,-334.5009 1177.5992,-320.647 1161.6235,-312 1134.4551,-297.2948 1100.7402,-288.1566 1074.592,-282.7679"/>
<polygon fill="#000000" stroke="#000000" points="1075.0979,-279.3006 1064.612,-280.8159 1073.7542,-286.1704 1075.0979,-279.3006"/>
<text text-anchor="middle" x="1209.4443" y="-314.8" font-family="Times,serif" font-size="14.00" fill="#000000">broadcast</text>
</g>
<!-- Map 31 -->
<g id="node8" class="node">
<title>Map 31</title>
<ellipse fill="none" stroke="#000000" cx="1311.6235" cy="-362" rx="37.243" ry="18"/>
<text text-anchor="middle" x="1311.6235" y="-357.8" font-family="Times,serif" font-size="14.00" fill="#000000">Map 31</text>
</g>
<!-- Map 31&#45;&gt;Map 7 -->
<g id="edge7" class="edge">
<title>Map 31&#45;&gt;Map 7</title>
<path fill="none" stroke="#000000" d="M1293.6921,-345.9563C1280.0857,-334.6763 1260.404,-320.188 1240.6235,-312 1186.5052,-289.5981 1118.8901,-281.1362 1075.7234,-277.94"/>
<polygon fill="#000000" stroke="#000000" points="1075.7794,-274.4358 1065.5657,-277.2519 1075.3063,-281.4198 1075.7794,-274.4358"/>
<text text-anchor="middle" x="1293.4443" y="-314.8" font-family="Times,serif" font-size="14.00" fill="#000000">broadcast</text>
</g>
<!-- Map 32 -->
<g id="node9" class="node">
<title>Map 32</title>
<ellipse fill="none" stroke="#000000" cx="1404.6235" cy="-362" rx="37.243" ry="18"/>
<text text-anchor="middle" x="1404.6235" y="-357.8" font-family="Times,serif" font-size="14.00" fill="#000000">Map 32</text>
</g>
<!-- Map 32&#45;&gt;Map 7 -->
<g id="edge8" class="edge">
<title>Map 32&#45;&gt;Map 7</title>
<path fill="none" stroke="#000000" d="M1385.1704,-346.4261C1369.7001,-334.9211 1347.0077,-319.9341 1324.6235,-312 1279.7467,-296.0934 1145.3744,-284.2624 1075.6549,-279.0068"/>
<polygon fill="#000000" stroke="#000000" points="1075.6813,-275.4992 1065.4498,-278.2498 1075.1634,-282.4801 1075.6813,-275.4992"/>
<text text-anchor="middle" x="1380.4443" y="-314.8" font-family="Times,serif" font-size="14.00" fill="#000000">broadcast</text>
</g>
<!-- Reducer 19&#45;&gt;Map 29 -->
<g id="edge47" class="edge">
<title>Reducer 19&#45;&gt;Map 29</title>
<path fill="none" stroke="#000000" d="M272.5921,-258.3084C282.0884,-246.8711 296.0592,-232.8791 311.9819,-226 380.958,-196.2002 575.8424,-222.2149 649.6235,-208 654.326,-207.094 659.182,-205.8698 663.9583,-204.4834"/>
<polygon fill="#000000" stroke="#000000" points="665.0853,-207.7981 673.5753,-201.4601 662.9859,-201.1203 665.0853,-207.7981"/>
<text text-anchor="middle" x="339.4443" y="-228.8" font-family="Times,serif" font-size="14.00" fill="#000000">broadcast</text>
</g>
<!-- Reducer 18&#45;&gt;Map 27 -->
<g id="edge28" class="edge">
<title>Reducer 18&#45;&gt;Map 27</title>
<path fill="none" stroke="#000000" d="M413.4095,-262.748C445.5169,-251.0975 494.7715,-234.6838 538.9819,-226 630.7454,-207.9759 655.9081,-220.2165 748.6235,-208 767.0752,-205.5688 787.291,-202.1234 804.7567,-198.8968"/>
<polygon fill="#000000" stroke="#000000" points="805.5062,-202.3173 814.6883,-197.0316 804.2141,-195.4376 805.5062,-202.3173"/>
<text text-anchor="middle" x="566.4443" y="-228.8" font-family="Times,serif" font-size="14.00" fill="#000000">broadcast</text>
</g>
<!-- Reducer 2 -->
<g id="node27" class="node">
<title>Reducer 2</title>
<ellipse fill="none" stroke="#000000" cx="1348.6235" cy="-104" rx="46.4045" ry="18"/>
<text text-anchor="middle" x="1348.6235" y="-99.8" font-family="Times,serif" font-size="14.00" fill="#000000">Reducer 2</text>
</g>
<!-- Map 1&#45;&gt;Reducer 2 -->
<g id="edge33" class="edge">
<title>Map 1&#45;&gt;Reducer 2</title>
<path fill="none" stroke="#000000" d="M632.8739,-178.2863C660.0225,-166.3044 704.7701,-148.3047 745.4097,-140 882.4571,-111.9945 919.9933,-130.3477 1059.6235,-122 1140.5731,-117.1605 1234.2576,-111.2728 1292.4849,-107.5796"/>
<polygon fill="#000000" stroke="#000000" points="1292.821,-111.0654 1302.5791,-106.9387 1292.3775,-104.0794 1292.821,-111.0654"/>
<text text-anchor="middle" x="762.7305" y="-142.8" font-family="Times,serif" font-size="14.00" fill="#000000">sorted</text>
</g>
<!-- Reducer 16&#45;&gt;Map 1 -->
<g id="edge13" class="edge">
<title>Reducer 16&#45;&gt;Map 1</title>
<path fill="none" stroke="#000000" d="M591.865,-257.7616C594.5613,-246.1678 598.1047,-230.931 601.1485,-217.8426"/>
<polygon fill="#000000" stroke="#000000" points="604.6006,-218.4501 603.4567,-207.9172 597.7825,-216.8645 604.6006,-218.4501"/>
<text text-anchor="middle" x="626.4443" y="-228.8" font-family="Times,serif" font-size="14.00" fill="#000000">broadcast</text>
</g>
<!-- Reducer 30 -->
<g id="node15" class="node">
<title>Reducer 30</title>
<ellipse fill="none" stroke="#000000" cx="1582.6235" cy="-104" rx="50.7474" ry="18"/>
<text text-anchor="middle" x="1582.6235" y="-99.8" font-family="Times,serif" font-size="14.00" fill="#000000">Reducer 30</text>
</g>
<!-- Map 29&#45;&gt;Reducer 30 -->
<g id="edge14" class="edge">
<title>Map 29&#45;&gt;Reducer 30</title>
<path fill="none" stroke="#000000" d="M729.7519,-177.3793C757.4042,-165.2194 801.8744,-147.5842 842.4097,-140 991.2604,-112.1498 1374.1547,-146.3154 1523.6235,-122 1527.845,-121.3133 1532.1853,-120.4027 1536.5045,-119.3549"/>
<polygon fill="#000000" stroke="#000000" points="1537.7146,-122.6548 1546.4788,-116.7016 1535.9151,-115.89 1537.7146,-122.6548"/>
<text text-anchor="middle" x="859.7305" y="-142.8" font-family="Times,serif" font-size="14.00" fill="#000000">sorted</text>
</g>
<!-- Union 14 -->
<g id="node16" class="node">
<title>Union 14</title>
<ellipse fill="none" stroke="#000000" cx="1707.6235" cy="-190" rx="43.0409" ry="18"/>
<text text-anchor="middle" x="1707.6235" y="-185.8" font-family="Times,serif" font-size="14.00" fill="#000000">Union 14</text>
</g>
<!-- Union 14&#45;&gt;Reducer 30 -->
<g id="edge15" class="edge">
<title>Union 14&#45;&gt;Reducer 30</title>
<path fill="none" stroke="#000000" d="M1684.987,-174.426C1665.236,-160.8374 1636.3695,-140.9772 1614.3216,-125.8083"/>
<polygon fill="#000000" stroke="#000000" points="1616.1616,-122.8259 1605.9393,-120.0412 1612.1939,-128.5928 1616.1616,-122.8259"/>
<text text-anchor="middle" x="1666.7856" y="-142.8" font-family="Times,serif" font-size="14.00" fill="#000000">None</text>
</g>
<!-- Union 14&#45;&gt;Reducer 13 -->
<g id="edge23" class="edge">
<title>Union 14&#45;&gt;Reducer 13</title>
<path fill="none" stroke="#000000" d="M1704.4411,-171.7399C1703.5834,-166.0728 1702.7648,-159.7939 1702.2993,-154 1701.7361,-146.9893 1701.4616,-139.4084 1701.3496,-132.3202"/>
<polygon fill="#000000" stroke="#000000" points="1704.8482,-132.0576 1701.288,-122.0789 1697.8483,-132.0998 1704.8482,-132.0576"/>
<text text-anchor="middle" x="1716.7856" y="-142.8" font-family="Times,serif" font-size="14.00" fill="#000000">None</text>
</g>
<!-- Reducer 5 -->
<g id="node24" class="node">
<title>Reducer 5</title>
<ellipse fill="none" stroke="#000000" cx="1820.6235" cy="-104" rx="46.4045" ry="18"/>
<text text-anchor="middle" x="1820.6235" y="-99.8" font-family="Times,serif" font-size="14.00" fill="#000000">Reducer 5</text>
</g>
<!-- Union 14&#45;&gt;Reducer 5 -->
<g id="edge25" class="edge">
<title>Union 14&#45;&gt;Reducer 5</title>
<path fill="none" stroke="#000000" d="M1725.189,-173.2858C1736.1192,-163.2059 1750.6669,-150.3558 1764.4097,-140 1771.3947,-134.7364 1779.1467,-129.4476 1786.6065,-124.6059"/>
<polygon fill="#000000" stroke="#000000" points="1788.6105,-127.4792 1795.1658,-119.1558 1784.8508,-121.5745 1788.6105,-127.4792"/>
<text text-anchor="middle" x="1787.7305" y="-142.8" font-family="Times,serif" font-size="14.00" fill="#000000">unsorted</text>
</g>
<!-- Reducer 28 -->
<g id="node18" class="node">
<title>Reducer 28</title>
<ellipse fill="none" stroke="#000000" cx="1463.6235" cy="-104" rx="50.7474" ry="18"/>
<text text-anchor="middle" x="1463.6235" y="-99.8" font-family="Times,serif" font-size="14.00" fill="#000000">Reducer 28</text>
</g>
<!-- Map 27&#45;&gt;Reducer 28 -->
<g id="edge16" class="edge">
<title>Map 27&#45;&gt;Reducer 28</title>
<path fill="none" stroke="#000000" d="M861.9674,-172.7204C871.3289,-161.1551 885.3071,-146.843 901.4097,-140 952.7992,-118.1614 1348.5321,-131.0966 1403.6235,-122 1408.0899,-121.2625 1412.6901,-120.289 1417.2626,-119.1756"/>
<polygon fill="#000000" stroke="#000000" points="1418.395,-122.4965 1427.1653,-116.5524 1416.6025,-115.7298 1418.395,-122.4965"/>
<text text-anchor="middle" x="918.7305" y="-142.8" font-family="Times,serif" font-size="14.00" fill="#000000">sorted</text>
</g>
<!-- Union 12 -->
<g id="node19" class="node">
<title>Union 12</title>
<ellipse fill="none" stroke="#000000" cx="1660.6235" cy="-276" rx="43.0409" ry="18"/>
<text text-anchor="middle" x="1660.6235" y="-271.8" font-family="Times,serif" font-size="14.00" fill="#000000">Union 12</text>
</g>
<!-- Union 12&#45;&gt;Reducer 28 -->
<g id="edge17" class="edge">
<title>Union 12&#45;&gt;Reducer 28</title>
<path fill="none" stroke="#000000" d="M1658.7072,-258.0032C1656.9018,-247.8376 1653.4018,-235.3376 1646.6235,-226 1636.3872,-211.8985 1547.705,-155.8778 1497.6527,-124.8884"/>
<polygon fill="#000000" stroke="#000000" points="1499.427,-121.8706 1489.0802,-119.5917 1495.7476,-127.8256 1499.427,-121.8706"/>
<text text-anchor="middle" x="1638.7856" y="-185.8" font-family="Times,serif" font-size="14.00" fill="#000000">None</text>
</g>
<!-- Union 12&#45;&gt;Reducer 11 -->
<g id="edge21" class="edge">
<title>Union 12&#45;&gt;Reducer 11</title>
<path fill="none" stroke="#000000" d="M1641.2402,-259.5907C1625.3608,-246.5246 1603.8963,-229.8142 1593.6235,-226 1539.9526,-206.0724 1393.0293,-217.8013 1336.6235,-208 1331.2219,-207.0614 1325.6215,-205.8514 1320.0819,-204.503"/>
<polygon fill="#000000" stroke="#000000" points="1320.7904,-201.0712 1310.2325,-201.9553 1319.0374,-207.8481 1320.7904,-201.0712"/>
<text text-anchor="middle" x="1630.7856" y="-228.8" font-family="Times,serif" font-size="14.00" fill="#000000">None</text>
</g>
<!-- Reducer 4 -->
<g id="node23" class="node">
<title>Reducer 4</title>
<ellipse fill="none" stroke="#000000" cx="1814.6235" cy="-190" rx="46.4045" ry="18"/>
<text text-anchor="middle" x="1814.6235" y="-185.8" font-family="Times,serif" font-size="14.00" fill="#000000">Reducer 4</text>
</g>
<!-- Union 12&#45;&gt;Reducer 4 -->
<g id="edge36" class="edge">
<title>Union 12&#45;&gt;Reducer 4</title>
<path fill="none" stroke="#000000" d="M1686.7475,-261.4113C1712.2233,-247.1845 1751.1478,-225.4475 1779.3602,-209.6925"/>
<polygon fill="#000000" stroke="#000000" points="1781.0887,-212.7361 1788.113,-204.8046 1777.6757,-206.6245 1781.0887,-212.7361"/>
<text text-anchor="middle" x="1770.7305" y="-228.8" font-family="Times,serif" font-size="14.00" fill="#000000">unsorted</text>
</g>
<!-- Reducer 17&#45;&gt;Map 23 -->
<g id="edge32" class="edge">
<title>Reducer 17&#45;&gt;Map 23</title>
<path fill="none" stroke="#000000" d="M52.9472,-258.016C55.3396,-247.0569 60.1843,-233.7194 69.9819,-226 87.0242,-212.5727 218.9406,-199.8076 291.3687,-193.7196"/>
<polygon fill="#000000" stroke="#000000" points="291.9261,-197.1854 301.6024,-192.8705 291.3473,-190.2094 291.9261,-197.1854"/>
<text text-anchor="middle" x="97.4443" y="-228.8" font-family="Times,serif" font-size="14.00" fill="#000000">broadcast</text>
</g>
<!-- Reducer 4&#45;&gt;Reducer 5 -->
<g id="edge24" class="edge">
<title>Reducer 4&#45;&gt;Reducer 5</title>
<path fill="none" stroke="#000000" d="M1815.896,-171.7616C1816.6915,-160.3597 1817.7328,-145.4342 1818.6356,-132.494"/>
<polygon fill="#000000" stroke="#000000" points="1822.1484,-132.4315 1819.3529,-122.2121 1815.1653,-131.9442 1822.1484,-132.4315"/>
<text text-anchor="middle" x="1841.7305" y="-142.8" font-family="Times,serif" font-size="14.00" fill="#000000">unsorted</text>
</g>
<!-- Reducer 6 -->
<g id="node25" class="node">
<title>Reducer 6</title>
<ellipse fill="none" stroke="#000000" cx="1820.6235" cy="-18" rx="46.4045" ry="18"/>
<text text-anchor="middle" x="1820.6235" y="-13.8" font-family="Times,serif" font-size="14.00" fill="#000000">Reducer 6</text>
</g>
<!-- Reducer 5&#45;&gt;Reducer 6 -->
<g id="edge29" class="edge">
<title>Reducer 5&#45;&gt;Reducer 6</title>
<path fill="none" stroke="#000000" d="M1820.6235,-85.7616C1820.6235,-74.3597 1820.6235,-59.4342 1820.6235,-46.494"/>
<polygon fill="#000000" stroke="#000000" points="1824.1236,-46.2121 1820.6235,-36.2121 1817.1236,-46.2121 1824.1236,-46.2121"/>
<text text-anchor="middle" x="1837.7305" y="-56.8" font-family="Times,serif" font-size="14.00" fill="#000000">sorted</text>
</g>
<!-- Reducer 24 -->
<g id="node30" class="node">
<title>Reducer 24</title>
<ellipse fill="none" stroke="#000000" cx="999.6235" cy="-104" rx="50.7474" ry="18"/>
<text text-anchor="middle" x="999.6235" y="-99.8" font-family="Times,serif" font-size="14.00" fill="#000000">Reducer 24</text>
</g>
<!-- Map 23&#45;&gt;Reducer 24 -->
<g id="edge38" class="edge">
<title>Map 23&#45;&gt;Reducer 24</title>
<path fill="none" stroke="#000000" d="M372.4944,-182.0217C420.4946,-170.996 511.1817,-151.1967 589.4097,-140 713.0156,-122.3084 858.9042,-112.0001 939.1346,-107.2355"/>
<polygon fill="#000000" stroke="#000000" points="939.7576,-110.7052 949.5361,-106.6271 939.3488,-103.7171 939.7576,-110.7052"/>
<text text-anchor="middle" x="606.7305" y="-142.8" font-family="Times,serif" font-size="14.00" fill="#000000">sorted</text>
</g>
<!-- Union 10 -->
<g id="node28" class="node">
<title>Union 10</title>
<ellipse fill="none" stroke="#000000" cx="1323.6235" cy="-276" rx="43.0409" ry="18"/>
<text text-anchor="middle" x="1323.6235" y="-271.8" font-family="Times,serif" font-size="14.00" fill="#000000">Union 10</text>
</g>
<!-- Union 10&#45;&gt;Reducer 2 -->
<g id="edge34" class="edge">
<title>Union 10&#45;&gt;Reducer 2</title>
<path fill="none" stroke="#000000" d="M1348.569,-261.2133C1365.5298,-249.3684 1386.0395,-230.9572 1392.6235,-208 1397.0345,-192.62 1397.0345,-187.38 1392.6235,-172 1387.9999,-155.8784 1381.7206,-154.09 1372.6235,-140 1370.5456,-136.7816 1368.3431,-133.4168 1366.1481,-130.0916"/>
<polygon fill="#000000" stroke="#000000" points="1368.8955,-127.9021 1360.4462,-121.51 1363.0652,-131.776 1368.8955,-127.9021"/>
<text text-anchor="middle" x="1423.4443" y="-185.8" font-family="Times,serif" font-size="14.00" fill="#000000">broadcast</text>
</g>
<!-- Union 10&#45;&gt;Reducer 24 -->
<g id="edge39" class="edge">
<title>Union 10&#45;&gt;Reducer 24</title>
<path fill="none" stroke="#000000" d="M1336.2975,-258.5183C1339.6855,-252.8829 1342.8862,-246.4261 1344.6235,-240 1350.6802,-217.5968 1336.8628,-177.063 1331.6235,-172 1293.4577,-135.1184 1144.1913,-116.4477 1059.3765,-108.6377"/>
<polygon fill="#000000" stroke="#000000" points="1059.6376,-105.1471 1049.3646,-107.7386 1059.0114,-112.1191 1059.6376,-105.1471"/>
<text text-anchor="middle" x="1359.7856" y="-185.8" font-family="Times,serif" font-size="14.00" fill="#000000">None</text>
</g>
<!-- Union 10&#45;&gt;Reducer 9 -->
<g id="edge41" class="edge">
<title>Union 10&#45;&gt;Reducer 9</title>
<path fill="none" stroke="#000000" d="M1289.6221,-264.8627C1272.2663,-258.5831 1251.1133,-249.994 1233.2993,-240 1224.2522,-234.9244 1224.173,-230.0522 1214.6235,-226 1168.2126,-206.3061 1151.6211,-219.8773 1102.6235,-208 1099.0444,-207.1324 1095.3625,-206.1442 1091.6808,-205.0877"/>
<polygon fill="#000000" stroke="#000000" points="1092.5907,-201.7065 1082.0059,-202.1677 1090.568,-208.4079 1092.5907,-201.7065"/>
<text text-anchor="middle" x="1248.7856" y="-228.8" font-family="Times,serif" font-size="14.00" fill="#000000">None</text>
</g>
<!-- Union 10&#45;&gt;Reducer 8 -->
<g id="edge43" class="edge">
<title>Union 10&#45;&gt;Reducer 8</title>
<path fill="none" stroke="#000000" d="M1307.9022,-258.6957C1297.3915,-248.0077 1282.7576,-234.7169 1267.6235,-226 1266.0885,-225.1158 1232.8496,-214.2766 1203.3101,-204.7211"/>
<polygon fill="#000000" stroke="#000000" points="1204.0772,-201.2908 1193.4854,-201.546 1201.9245,-207.9516 1204.0772,-201.2908"/>
<text text-anchor="middle" x="1313.4443" y="-228.8" font-family="Times,serif" font-size="14.00" fill="#000000">broadcast</text>
</g>
<!-- Union 3 -->
<g id="node29" class="node">
<title>Union 3</title>
<ellipse fill="none" stroke="#000000" cx="1511.6235" cy="-276" rx="38.6968" ry="18"/>
<text text-anchor="middle" x="1511.6235" y="-271.8" font-family="Times,serif" font-size="14.00" fill="#000000">Union 3</text>
</g>
<!-- Union 3&#45;&gt;Reducer 4 -->
<g id="edge37" class="edge">
<title>Union 3&#45;&gt;Reducer 4</title>
<path fill="none" stroke="#000000" d="M1518.8323,-258.0902C1524.3506,-246.8662 1533.1177,-233.2052 1545.4097,-226 1586.6221,-201.8424 1712.8055,-217.4933 1759.6235,-208 1763.4468,-207.2248 1767.3755,-206.2706 1771.2898,-205.2096"/>
<polygon fill="#000000" stroke="#000000" points="1772.3056,-208.5592 1780.9215,-202.3934 1770.3411,-201.8405 1772.3056,-208.5592"/>
<text text-anchor="middle" x="1569.7305" y="-228.8" font-family="Times,serif" font-size="14.00" fill="#000000">unsorted</text>
</g>
<!-- Union 3&#45;&gt;Reducer 2 -->
<g id="edge35" class="edge">
<title>Union 3&#45;&gt;Reducer 2</title>
<path fill="none" stroke="#000000" d="M1505.0445,-258.119C1496.211,-235.938 1478.7862,-197.8906 1454.6235,-172 1435.5664,-151.58 1409.1326,-134.6064 1387.43,-122.7247"/>
<polygon fill="#000000" stroke="#000000" points="1388.9262,-119.5562 1378.4539,-117.9491 1385.6383,-125.736 1388.9262,-119.5562"/>
<text text-anchor="middle" x="1495.7856" y="-185.8" font-family="Times,serif" font-size="14.00" fill="#000000">None</text>
</g>
<!-- Union 3&#45;&gt;Reducer 8 -->
<g id="edge44" class="edge">
<title>Union 3&#45;&gt;Reducer 8</title>
<path fill="none" stroke="#000000" d="M1480.6049,-265.141C1447.3539,-253.8729 1392.8325,-236.4634 1344.6235,-226 1287.1915,-213.5347 1270.9275,-221.0415 1213.6235,-208 1209.7572,-207.1201 1205.7755,-206.093 1201.8023,-204.9836"/>
<polygon fill="#000000" stroke="#000000" points="1202.5959,-201.5687 1192.0141,-202.0935 1200.6136,-208.2821 1202.5959,-201.5687"/>
<text text-anchor="middle" x="1411.7856" y="-228.8" font-family="Times,serif" font-size="14.00" fill="#000000">None</text>
</g>
</g>
</svg>
