<?xml version="1.0" encoding="UTF-8" standalone="no"?>
<!DOCTYPE svg PUBLIC "-//W3C//DTD SVG 1.1//EN"
 "http://www.w3.org/Graphics/SVG/1.1/DTD/svg11.dtd">
<!-- Generated by graphviz version 2.40.1 (20161225.0304)
 -->
<!-- Title: %3 Pages: 1 -->
<svg width="644pt" height="388pt"
 viewBox="0.00 0.00 643.85 388.00" xmlns="http://www.w3.org/2000/svg" xmlns:xlink="http://www.w3.org/1999/xlink">
<g id="graph0" class="graph" transform="scale(1 1) rotate(0) translate(4 384)">
<title>%3</title>
<polygon fill="#ffffff" stroke="transparent" points="-4,4 -4,-384 639.8484,-384 639.8484,4 -4,4"/>
<!-- Map 7 -->
<g id="node1" class="node">
<title>Map 7</title>
<ellipse fill="none" stroke="#000000" cx="350.2068" cy="-362" rx="32.8992" ry="18"/>
<text text-anchor="middle" x="350.2068" y="-357.8" font-family="Times,serif" font-size="14.00" fill="#000000">Map 7</text>
</g>
<!-- Reducer 9 -->
<g id="node2" class="node">
<title>Reducer 9</title>
<ellipse fill="none" stroke="#000000" cx="116.2068" cy="-276" rx="46.4045" ry="18"/>
<text text-anchor="middle" x="116.2068" y="-271.8" font-family="Times,serif" font-size="14.00" fill="#000000">Reducer 9</text>
</g>
<!-- Map 7&#45;&gt;Reducer 9 -->
<g id="edge1" class="edge">
<title>Map 7&#45;&gt;Reducer 9</title>
<path fill="none" stroke="#000000" d="M320.2075,-354.3699C295.2407,-347.7336 258.9121,-337.4102 227.9929,-326 202.9739,-316.7672 175.6342,-304.5778 154.255,-294.546"/>
<polygon fill="#000000" stroke="#000000" points="155.7181,-291.3663 145.1821,-290.2507 152.7228,-297.6931 155.7181,-291.3663"/>
<text text-anchor="middle" x="251.3137" y="-314.8" font-family="Times,serif" font-size="14.00" fill="#000000">unsorted</text>
</g>
<!-- Map 1 -->
<g id="node4" class="node">
<title>Map 1</title>
<ellipse fill="none" stroke="#000000" cx="315.2068" cy="-190" rx="32.8992" ry="18"/>
<text text-anchor="middle" x="315.2068" y="-185.8" font-family="Times,serif" font-size="14.00" fill="#000000">Map 1</text>
</g>
<!-- Map 7&#45;&gt;Map 1 -->
<g id="edge3" class="edge">
<title>Map 7&#45;&gt;Map 1</title>
<path fill="none" stroke="#000000" d="M355.9061,-343.9283C363.5007,-321.8931 378.5861,-284.3381 400.5652,-258 409.2549,-247.5869 419.065,-252.0922 425.2068,-240 428.0245,-234.4523 428.8588,-231.0378 425.2068,-226 416.8301,-214.4446 383.8792,-204.6285 356.2059,-198.1795"/>
<polygon fill="#000000" stroke="#000000" points="356.8281,-194.7321 346.3046,-195.9588 355.2962,-201.5625 356.8281,-194.7321"/>
<text text-anchor="middle" x="427.0276" y="-271.8" font-family="Times,serif" font-size="14.00" fill="#000000">broadcast</text>
</g>
<!-- Reducer 8 -->
<g id="node5" class="node">
<title>Reducer 8</title>
<ellipse fill="none" stroke="#000000" cx="226.2068" cy="-276" rx="46.4045" ry="18"/>
<text text-anchor="middle" x="226.2068" y="-271.8" font-family="Times,serif" font-size="14.00" fill="#000000">Reducer 8</text>
</g>
<!-- Map 7&#45;&gt;Reducer 8 -->
<g id="edge17" class="edge">
<title>Map 7&#45;&gt;Reducer 8</title>
<path fill="none" stroke="#000000" d="M329.7307,-347.7988C310.0901,-334.1771 280.1605,-313.4195 257.5254,-297.721"/>
<polygon fill="#000000" stroke="#000000" points="259.456,-294.8006 249.2442,-291.9775 255.4667,-300.5526 259.456,-294.8006"/>
<text text-anchor="middle" x="319.3137" y="-314.8" font-family="Times,serif" font-size="14.00" fill="#000000">unsorted</text>
</g>
<!-- Map 13 -->
<g id="node6" class="node">
<title>Map 13</title>
<ellipse fill="none" stroke="#000000" cx="483.2068" cy="-190" rx="37.243" ry="18"/>
<text text-anchor="middle" x="483.2068" y="-185.8" font-family="Times,serif" font-size="14.00" fill="#000000">Map 13</text>
</g>
<!-- Map 7&#45;&gt;Map 13 -->
<g id="edge15" class="edge">
<title>Map 7&#45;&gt;Map 13</title>
<path fill="none" stroke="#000000" d="M382.4192,-357.2096C439.0274,-348.0342 552.4361,-326.0088 574.2068,-294 591.6677,-268.3277 580.337,-247.7762 558.2068,-226 548.7025,-216.6478 536.2994,-209.3591 524.3242,-203.8618"/>
<polygon fill="#000000" stroke="#000000" points="525.4472,-200.5357 514.8757,-199.8319 522.7009,-206.9745 525.4472,-200.5357"/>
<text text-anchor="middle" x="609.0276" y="-271.8" font-family="Times,serif" font-size="14.00" fill="#000000">broadcast</text>
</g>
<!-- Reducer 10 -->
<g id="node9" class="node">
<title>Reducer 10</title>
<ellipse fill="none" stroke="#000000" cx="514.2068" cy="-276" rx="50.7474" ry="18"/>
<text text-anchor="middle" x="514.2068" y="-271.8" font-family="Times,serif" font-size="14.00" fill="#000000">Reducer 10</text>
</g>
<!-- Map 7&#45;&gt;Reducer 10 -->
<g id="edge7" class="edge">
<title>Map 7&#45;&gt;Reducer 10</title>
<path fill="none" stroke="#000000" d="M374.0538,-349.4949C400.979,-335.3756 445.1385,-312.2187 476.6935,-295.6716"/>
<polygon fill="#000000" stroke="#000000" points="478.4101,-298.7235 485.6409,-290.9797 475.1592,-292.5242 478.4101,-298.7235"/>
<text text-anchor="middle" x="465.3137" y="-314.8" font-family="Times,serif" font-size="14.00" fill="#000000">unsorted</text>
</g>
<!-- Map 11 -->
<g id="node10" class="node">
<title>Map 11</title>
<ellipse fill="none" stroke="#000000" cx="62.2068" cy="-190" rx="37.0949" ry="18"/>
<text text-anchor="middle" x="62.2068" y="-185.8" font-family="Times,serif" font-size="14.00" fill="#000000">Map 11</text>
</g>
<!-- Map 7&#45;&gt;Map 11 -->
<g id="edge19" class="edge">
<title>Map 7&#45;&gt;Map 11</title>
<path fill="none" stroke="#000000" d="M317.2517,-360.5805C239.1918,-356.4574 46.6264,-341.5751 7.5652,-294 -13.0164,-268.9324 13.0566,-234.8775 35.7637,-212.6736"/>
<polygon fill="#000000" stroke="#000000" points="38.3714,-215.0261 43.2631,-205.6281 33.5784,-209.9243 38.3714,-215.0261"/>
<text text-anchor="middle" x="35.0276" y="-271.8" font-family="Times,serif" font-size="14.00" fill="#000000">broadcast</text>
</g>
<!-- Reducer 9&#45;&gt;Map 11 -->
<g id="edge20" class="edge">
<title>Reducer 9&#45;&gt;Map 11</title>
<path fill="none" stroke="#000000" d="M85.9061,-262.1517C77.1465,-256.5739 68.5993,-249.2354 63.5652,-240 60.0058,-233.4703 58.6759,-225.7137 58.4821,-218.2819"/>
<polygon fill="#000000" stroke="#000000" points="61.9846,-218.2744 58.8507,-208.1537 54.9893,-218.0198 61.9846,-218.2744"/>
<text text-anchor="middle" x="91.0276" y="-228.8" font-family="Times,serif" font-size="14.00" fill="#000000">broadcast</text>
</g>
<!-- Map 6 -->
<g id="node3" class="node">
<title>Map 6</title>
<ellipse fill="none" stroke="#000000" cx="323.2068" cy="-276" rx="32.8992" ry="18"/>
<text text-anchor="middle" x="323.2068" y="-271.8" font-family="Times,serif" font-size="14.00" fill="#000000">Map 6</text>
</g>
<!-- Map 6&#45;&gt;Map 1 -->
<g id="edge2" class="edge">
<title>Map 6&#45;&gt;Map 1</title>
<path fill="none" stroke="#000000" d="M306.8928,-260.2319C301.9482,-254.3968 297.146,-247.3893 294.5652,-240 291.7472,-231.932 293.5409,-223.2819 297.0237,-215.4831"/>
<polygon fill="#000000" stroke="#000000" points="300.2121,-216.9461 301.9132,-206.4887 294.0621,-213.6028 300.2121,-216.9461"/>
<text text-anchor="middle" x="321.0276" y="-228.8" font-family="Times,serif" font-size="14.00" fill="#000000">broadcast</text>
</g>
<!-- Map 6&#45;&gt;Map 13 -->
<g id="edge14" class="edge">
<title>Map 6&#45;&gt;Map 13</title>
<path fill="none" stroke="#000000" d="M346.8153,-263.3104C373.8361,-248.7868 418.32,-224.8767 449.103,-208.3308"/>
<polygon fill="#000000" stroke="#000000" points="451.0309,-211.2682 458.1821,-203.4508 447.7167,-205.1024 451.0309,-211.2682"/>
<text text-anchor="middle" x="439.0276" y="-228.8" font-family="Times,serif" font-size="14.00" fill="#000000">broadcast</text>
</g>
<!-- Map 6&#45;&gt;Map 11 -->
<g id="edge18" class="edge">
<title>Map 6&#45;&gt;Map 11</title>
<path fill="none" stroke="#000000" d="M297.0816,-264.5527C291.8448,-262.329 286.3665,-260.0529 281.2068,-258 262.0665,-250.3845 213.8286,-232.2714 194.2068,-226 164.7443,-216.5833 131.1022,-207.4321 105.1551,-200.7126"/>
<polygon fill="#000000" stroke="#000000" points="105.8131,-197.2681 95.2568,-198.1704 104.0717,-204.048 105.8131,-197.2681"/>
<text text-anchor="middle" x="260.0276" y="-228.8" font-family="Times,serif" font-size="14.00" fill="#000000">broadcast</text>
</g>
<!-- Reducer 2 -->
<g id="node14" class="node">
<title>Reducer 2</title>
<ellipse fill="none" stroke="#000000" cx="313.2068" cy="-104" rx="46.4045" ry="18"/>
<text text-anchor="middle" x="313.2068" y="-99.8" font-family="Times,serif" font-size="14.00" fill="#000000">Reducer 2</text>
</g>
<!-- Map 1&#45;&gt;Reducer 2 -->
<g id="edge12" class="edge">
<title>Map 1&#45;&gt;Reducer 2</title>
<path fill="none" stroke="#000000" d="M316.1037,-171.9425C316.4405,-162.4349 316.647,-150.5832 316.2068,-140 316.1056,-137.5679 315.9662,-135.0458 315.8024,-132.5168"/>
<polygon fill="#000000" stroke="#000000" points="319.2735,-132.0026 315.0277,-122.2957 312.2936,-132.5317 319.2735,-132.0026"/>
<text text-anchor="middle" x="333.3137" y="-142.8" font-family="Times,serif" font-size="14.00" fill="#000000">sorted</text>
</g>
<!-- Reducer 8&#45;&gt;Map 1 -->
<g id="edge4" class="edge">
<title>Reducer 8&#45;&gt;Map 1</title>
<path fill="none" stroke="#000000" d="M192.2682,-263.7785C169.7372,-255.3238 143.7337,-244.769 140.5652,-240 137.1218,-234.8174 136.5886,-230.7857 140.5652,-226 154.5264,-209.1983 215.8211,-212.4571 237.2068,-208 249.5365,-205.4303 262.9116,-202.4243 275.0467,-199.6128"/>
<polygon fill="#000000" stroke="#000000" points="275.9571,-202.9944 284.8984,-197.3108 274.3643,-196.178 275.9571,-202.9944"/>
<text text-anchor="middle" x="167.0276" y="-228.8" font-family="Times,serif" font-size="14.00" fill="#000000">broadcast</text>
</g>
<!-- Reducer 14 -->
<g id="node7" class="node">
<title>Reducer 14</title>
<ellipse fill="none" stroke="#000000" cx="456.2068" cy="-104" rx="50.7474" ry="18"/>
<text text-anchor="middle" x="456.2068" y="-99.8" font-family="Times,serif" font-size="14.00" fill="#000000">Reducer 14</text>
</g>
<!-- Map 13&#45;&gt;Reducer 14 -->
<g id="edge5" class="edge">
<title>Map 13&#45;&gt;Reducer 14</title>
<path fill="none" stroke="#000000" d="M477.6124,-172.1807C473.9444,-160.4975 469.0742,-144.985 464.906,-131.7086"/>
<polygon fill="#000000" stroke="#000000" points="468.2217,-130.5847 461.8869,-122.0923 461.5431,-132.6816 468.2217,-130.5847"/>
<text text-anchor="middle" x="488.3137" y="-142.8" font-family="Times,serif" font-size="14.00" fill="#000000">sorted</text>
</g>
<!-- Union 3 -->
<g id="node8" class="node">
<title>Union 3</title>
<ellipse fill="none" stroke="#000000" cx="189.2068" cy="-190" rx="38.6968" ry="18"/>
<text text-anchor="middle" x="189.2068" y="-185.8" font-family="Times,serif" font-size="14.00" fill="#000000">Union 3</text>
</g>
<!-- Union 3&#45;&gt;Reducer 14 -->
<g id="edge6" class="edge">
<title>Union 3&#45;&gt;Reducer 14</title>
<path fill="none" stroke="#000000" d="M217.6347,-177.715C231.6849,-171.2594 248.6952,-162.8577 263.2068,-154 272.0612,-148.5953 272.4252,-144.2627 281.8826,-140 282.5903,-139.681 351.1711,-125.5625 402.0902,-115.104"/>
<polygon fill="#000000" stroke="#000000" points="402.9216,-118.5064 412.0131,-113.0662 401.5135,-111.6494 402.9216,-118.5064"/>
<text text-anchor="middle" x="296.3689" y="-142.8" font-family="Times,serif" font-size="14.00" fill="#000000">None</text>
</g>
<!-- Reducer 12 -->
<g id="node11" class="node">
<title>Reducer 12</title>
<ellipse fill="none" stroke="#000000" cx="62.2068" cy="-104" rx="50.7474" ry="18"/>
<text text-anchor="middle" x="62.2068" y="-99.8" font-family="Times,serif" font-size="14.00" fill="#000000">Reducer 12</text>
</g>
<!-- Union 3&#45;&gt;Reducer 12 -->
<g id="edge9" class="edge">
<title>Union 3&#45;&gt;Reducer 12</title>
<path fill="none" stroke="#000000" d="M167.0851,-175.0199C146.9198,-161.3647 116.8937,-141.0321 94.13,-125.6173"/>
<polygon fill="#000000" stroke="#000000" points="96.0395,-122.6834 85.7969,-119.9744 92.1146,-128.4795 96.0395,-122.6834"/>
<text text-anchor="middle" x="148.3689" y="-142.8" font-family="Times,serif" font-size="14.00" fill="#000000">None</text>
</g>
<!-- Reducer 4 -->
<g id="node12" class="node">
<title>Reducer 4</title>
<ellipse fill="none" stroke="#000000" cx="177.2068" cy="-104" rx="46.4045" ry="18"/>
<text text-anchor="middle" x="177.2068" y="-99.8" font-family="Times,serif" font-size="14.00" fill="#000000">Reducer 4</text>
</g>
<!-- Union 3&#45;&gt;Reducer 4 -->
<g id="edge11" class="edge">
<title>Union 3&#45;&gt;Reducer 4</title>
<path fill="none" stroke="#000000" d="M181.2057,-172.0314C179.0727,-166.3761 177.0647,-160.0306 175.9929,-154 174.7475,-146.9924 174.424,-139.3462 174.5598,-132.1888"/>
<polygon fill="#000000" stroke="#000000" points="178.0566,-132.3379 175.0335,-122.1835 171.0644,-132.0068 178.0566,-132.3379"/>
<text text-anchor="middle" x="192.3137" y="-142.8" font-family="Times,serif" font-size="14.00" fill="#000000">sorted</text>
</g>
<!-- Union 3&#45;&gt;Reducer 2 -->
<g id="edge13" class="edge">
<title>Union 3&#45;&gt;Reducer 2</title>
<path fill="none" stroke="#000000" d="M201.4133,-172.5415C209.4229,-162.0608 220.6527,-149.0502 232.8826,-140 243.7482,-131.9594 256.6946,-125.1773 268.9868,-119.744"/>
<polygon fill="#000000" stroke="#000000" points="270.3593,-122.9638 278.2139,-115.8536 267.6397,-116.5137 270.3593,-122.9638"/>
<text text-anchor="middle" x="247.3689" y="-142.8" font-family="Times,serif" font-size="14.00" fill="#000000">None</text>
</g>
<!-- Reducer 10&#45;&gt;Map 13 -->
<g id="edge16" class="edge">
<title>Reducer 10&#45;&gt;Map 13</title>
<path fill="none" stroke="#000000" d="M507.6325,-257.7616C503.412,-246.053 497.8521,-230.6289 493.1031,-217.4544"/>
<polygon fill="#000000" stroke="#000000" points="496.3491,-216.1378 489.6653,-207.9172 489.7638,-218.5116 496.3491,-216.1378"/>
<text text-anchor="middle" x="527.0276" y="-228.8" font-family="Times,serif" font-size="14.00" fill="#000000">broadcast</text>
</g>
<!-- Map 11&#45;&gt;Reducer 12 -->
<g id="edge8" class="edge">
<title>Map 11&#45;&gt;Reducer 12</title>
<path fill="none" stroke="#000000" d="M62.2068,-171.7616C62.2068,-160.3597 62.2068,-145.4342 62.2068,-132.494"/>
<polygon fill="#000000" stroke="#000000" points="65.7069,-132.2121 62.2068,-122.2121 58.7069,-132.2121 65.7069,-132.2121"/>
<text text-anchor="middle" x="79.3137" y="-142.8" font-family="Times,serif" font-size="14.00" fill="#000000">sorted</text>
</g>
<!-- Reducer 5 -->
<g id="node13" class="node">
<title>Reducer 5</title>
<ellipse fill="none" stroke="#000000" cx="177.2068" cy="-18" rx="46.4045" ry="18"/>
<text text-anchor="middle" x="177.2068" y="-13.8" font-family="Times,serif" font-size="14.00" fill="#000000">Reducer 5</text>
</g>
<!-- Reducer 4&#45;&gt;Reducer 5 -->
<g id="edge10" class="edge">
<title>Reducer 4&#45;&gt;Reducer 5</title>
<path fill="none" stroke="#000000" d="M177.2068,-85.7616C177.2068,-74.3597 177.2068,-59.4342 177.2068,-46.494"/>
<polygon fill="#000000" stroke="#000000" points="180.7069,-46.2121 177.2068,-36.2121 173.7069,-46.2121 180.7069,-46.2121"/>
<text text-anchor="middle" x="194.3137" y="-56.8" font-family="Times,serif" font-size="14.00" fill="#000000">sorted</text>
</g>
</g>
</svg>
