<?xml version="1.0" encoding="UTF-8" standalone="no"?>
<!DOCTYPE svg PUBLIC "-//W3C//DTD SVG 1.1//EN"
 "http://www.w3.org/Graphics/SVG/1.1/DTD/svg11.dtd">
<!-- Generated by graphviz version 2.40.1 (20161225.0304)
 -->
<!-- Title: %3 Pages: 1 -->
<svg width="510pt" height="388pt"
 viewBox="0.00 0.00 510.32 388.00" xmlns="http://www.w3.org/2000/svg" xmlns:xlink="http://www.w3.org/1999/xlink">
<g id="graph0" class="graph" transform="scale(1 1) rotate(0) translate(4 384)">
<title>%3</title>
<polygon fill="#ffffff" stroke="transparent" points="-4,4 -4,-384 506.3209,-384 506.3209,4 -4,4"/>
<!-- Map 1 -->
<g id="node1" class="node">
<title>Map 1</title>
<ellipse fill="none" stroke="#000000" cx="259.3713" cy="-276" rx="32.8992" ry="18"/>
<text text-anchor="middle" x="259.3713" y="-271.8" font-family="Times,serif" font-size="14.00" fill="#000000">Map 1</text>
</g>
<!-- Reducer 5 -->
<g id="node2" class="node">
<title>Reducer 5</title>
<ellipse fill="none" stroke="#000000" cx="205.3713" cy="-190" rx="46.4045" ry="18"/>
<text text-anchor="middle" x="205.3713" y="-185.8" font-family="Times,serif" font-size="14.00" fill="#000000">Reducer 5</text>
</g>
<!-- Map 1&#45;&gt;Reducer 5 -->
<g id="edge1" class="edge">
<title>Map 1&#45;&gt;Reducer 5</title>
<path fill="none" stroke="#000000" d="M248.4436,-258.5966C240.8088,-246.4376 230.4784,-229.9854 221.8483,-216.2412"/>
<polygon fill="#000000" stroke="#000000" points="224.7499,-214.2804 216.4681,-207.6727 218.8217,-218.0028 224.7499,-214.2804"/>
<text text-anchor="middle" x="252.4782" y="-228.8" font-family="Times,serif" font-size="14.00" fill="#000000">sorted</text>
</g>
<!-- Reducer 2 -->
<g id="node5" class="node">
<title>Reducer 2</title>
<ellipse fill="none" stroke="#000000" cx="315.3713" cy="-190" rx="46.4045" ry="18"/>
<text text-anchor="middle" x="315.3713" y="-185.8" font-family="Times,serif" font-size="14.00" fill="#000000">Reducer 2</text>
</g>
<!-- Map 1&#45;&gt;Reducer 2 -->
<g id="edge11" class="edge">
<title>Map 1&#45;&gt;Reducer 2</title>
<path fill="none" stroke="#000000" d="M270.4351,-259.0092C278.384,-246.802 289.2498,-230.1151 298.3054,-216.2083"/>
<polygon fill="#000000" stroke="#000000" points="301.4222,-217.8358 303.946,-207.546 295.5562,-214.0161 301.4222,-217.8358"/>
<text text-anchor="middle" x="307.4782" y="-228.8" font-family="Times,serif" font-size="14.00" fill="#000000">sorted</text>
</g>
<!-- Reducer 3 -->
<g id="node3" class="node">
<title>Reducer 3</title>
<ellipse fill="none" stroke="#000000" cx="259.3713" cy="-104" rx="46.4045" ry="18"/>
<text text-anchor="middle" x="259.3713" y="-99.8" font-family="Times,serif" font-size="14.00" fill="#000000">Reducer 3</text>
</g>
<!-- Reducer 5&#45;&gt;Reducer 3 -->
<g id="edge4" class="edge">
<title>Reducer 5&#45;&gt;Reducer 3</title>
<path fill="none" stroke="#000000" d="M216.5601,-172.1807C224.2133,-159.9924 234.4832,-143.6367 243.0458,-129.9998"/>
<polygon fill="#000000" stroke="#000000" points="246.0279,-131.8323 248.3816,-121.5022 240.0997,-128.1099 246.0279,-131.8323"/>
<text text-anchor="middle" x="250.5334" y="-142.8" font-family="Times,serif" font-size="14.00" fill="#000000">None</text>
</g>
<!-- Reducer 4 -->
<g id="node4" class="node">
<title>Reducer 4</title>
<ellipse fill="none" stroke="#000000" cx="259.3713" cy="-18" rx="46.4045" ry="18"/>
<text text-anchor="middle" x="259.3713" y="-13.8" font-family="Times,serif" font-size="14.00" fill="#000000">Reducer 4</text>
</g>
<!-- Reducer 3&#45;&gt;Reducer 4 -->
<g id="edge2" class="edge">
<title>Reducer 3&#45;&gt;Reducer 4</title>
<path fill="none" stroke="#000000" d="M259.3713,-85.7616C259.3713,-74.3597 259.3713,-59.4342 259.3713,-46.494"/>
<polygon fill="#000000" stroke="#000000" points="262.8714,-46.2121 259.3713,-36.2121 255.8714,-46.2121 262.8714,-46.2121"/>
<text text-anchor="middle" x="276.4782" y="-56.8" font-family="Times,serif" font-size="14.00" fill="#000000">sorted</text>
</g>
<!-- Reducer 2&#45;&gt;Reducer 3 -->
<g id="edge3" class="edge">
<title>Reducer 2&#45;&gt;Reducer 3</title>
<path fill="none" stroke="#000000" d="M303.7681,-172.1807C295.8315,-159.9924 285.1812,-143.6367 276.3014,-129.9998"/>
<polygon fill="#000000" stroke="#000000" points="279.1578,-127.9723 270.7681,-121.5022 273.2918,-131.792 279.1578,-127.9723"/>
<text text-anchor="middle" x="305.5334" y="-142.8" font-family="Times,serif" font-size="14.00" fill="#000000">None</text>
</g>
<!-- Map 10 -->
<g id="node6" class="node">
<title>Map 10</title>
<ellipse fill="none" stroke="#000000" cx="37.3713" cy="-362" rx="37.243" ry="18"/>
<text text-anchor="middle" x="37.3713" y="-357.8" font-family="Times,serif" font-size="14.00" fill="#000000">Map 10</text>
</g>
<!-- Map 10&#45;&gt;Map 1 -->
<g id="edge5" class="edge">
<title>Map 10&#45;&gt;Map 1</title>
<path fill="none" stroke="#000000" d="M51.3554,-345.1078C61.4466,-334.0274 76.0148,-320.1334 91.7297,-312 131.0708,-291.6387 181.3206,-282.7847 216.5035,-278.9399"/>
<polygon fill="#000000" stroke="#000000" points="216.8564,-282.4222 226.4571,-277.9415 216.1577,-275.4571 216.8564,-282.4222"/>
<text text-anchor="middle" x="118.1921" y="-314.8" font-family="Times,serif" font-size="14.00" fill="#000000">broadcast</text>
</g>
<!-- Map 11 -->
<g id="node7" class="node">
<title>Map 11</title>
<ellipse fill="none" stroke="#000000" cx="129.3713" cy="-362" rx="37.0949" ry="18"/>
<text text-anchor="middle" x="129.3713" y="-357.8" font-family="Times,serif" font-size="14.00" fill="#000000">Map 11</text>
</g>
<!-- Map 11&#45;&gt;Map 1 -->
<g id="edge6" class="edge">
<title>Map 11&#45;&gt;Map 1</title>
<path fill="none" stroke="#000000" d="M137.6667,-344.1884C143.3974,-333.5748 151.9289,-320.5485 162.7297,-312 178.8397,-299.2495 199.9246,-290.6964 218.2878,-285.1398"/>
<polygon fill="#000000" stroke="#000000" points="219.4872,-288.438 228.1606,-282.3534 217.5858,-281.7012 219.4872,-288.438"/>
<text text-anchor="middle" x="189.1921" y="-314.8" font-family="Times,serif" font-size="14.00" fill="#000000">broadcast</text>
</g>
<!-- Map 6 -->
<g id="node8" class="node">
<title>Map 6</title>
<ellipse fill="none" stroke="#000000" cx="217.3713" cy="-362" rx="32.8992" ry="18"/>
<text text-anchor="middle" x="217.3713" y="-357.8" font-family="Times,serif" font-size="14.00" fill="#000000">Map 6</text>
</g>
<!-- Map 6&#45;&gt;Map 1 -->
<g id="edge7" class="edge">
<title>Map 6&#45;&gt;Map 1</title>
<path fill="none" stroke="#000000" d="M217.893,-343.6336C218.7865,-333.8224 220.8986,-321.7857 225.7297,-312 228.0373,-307.3259 231.1525,-302.8372 234.5601,-298.7104"/>
<polygon fill="#000000" stroke="#000000" points="237.1929,-301.0176 241.3378,-291.2671 232.0171,-296.3046 237.1929,-301.0176"/>
<text text-anchor="middle" x="252.1921" y="-314.8" font-family="Times,serif" font-size="14.00" fill="#000000">broadcast</text>
</g>
<!-- Map 7 -->
<g id="node9" class="node">
<title>Map 7</title>
<ellipse fill="none" stroke="#000000" cx="301.3713" cy="-362" rx="32.8992" ry="18"/>
<text text-anchor="middle" x="301.3713" y="-357.8" font-family="Times,serif" font-size="14.00" fill="#000000">Map 7</text>
</g>
<!-- Map 7&#45;&gt;Map 1 -->
<g id="edge8" class="edge">
<title>Map 7&#45;&gt;Map 1</title>
<path fill="none" stroke="#000000" d="M294.0267,-344.2298C289.9255,-334.5933 284.6005,-322.5332 279.3713,-312 277.7976,-308.83 276.0847,-305.54 274.3453,-302.2948"/>
<polygon fill="#000000" stroke="#000000" points="277.346,-300.4876 269.4665,-293.4049 271.2093,-303.8554 277.346,-300.4876"/>
<text text-anchor="middle" x="312.1921" y="-314.8" font-family="Times,serif" font-size="14.00" fill="#000000">broadcast</text>
</g>
<!-- Map 8 -->
<g id="node10" class="node">
<title>Map 8</title>
<ellipse fill="none" stroke="#000000" cx="385.3713" cy="-362" rx="32.8992" ry="18"/>
<text text-anchor="middle" x="385.3713" y="-357.8" font-family="Times,serif" font-size="14.00" fill="#000000">Map 8</text>
</g>
<!-- Map 8&#45;&gt;Map 1 -->
<g id="edge9" class="edge">
<title>Map 8&#45;&gt;Map 1</title>
<path fill="none" stroke="#000000" d="M374.1579,-344.9253C366.5052,-334.3289 355.5695,-321.054 343.3713,-312 329.785,-301.9157 312.9416,-293.986 297.9123,-288.1657"/>
<polygon fill="#000000" stroke="#000000" points="298.9438,-284.8159 288.3504,-284.6441 296.5246,-291.3845 298.9438,-284.8159"/>
<text text-anchor="middle" x="384.1921" y="-314.8" font-family="Times,serif" font-size="14.00" fill="#000000">broadcast</text>
</g>
<!-- Map 9 -->
<g id="node11" class="node">
<title>Map 9</title>
<ellipse fill="none" stroke="#000000" cx="469.3713" cy="-362" rx="32.8992" ry="18"/>
<text text-anchor="middle" x="469.3713" y="-357.8" font-family="Times,serif" font-size="14.00" fill="#000000">Map 9</text>
</g>
<!-- Map 9&#45;&gt;Map 1 -->
<g id="edge10" class="edge">
<title>Map 9&#45;&gt;Map 1</title>
<path fill="none" stroke="#000000" d="M455.4613,-345.1818C445.4286,-334.1343 430.9542,-320.2493 415.3713,-312 379.9052,-293.2248 334.8255,-284.1767 302.256,-279.8557"/>
<polygon fill="#000000" stroke="#000000" points="302.5016,-276.3597 292.1491,-278.6126 301.647,-283.3073 302.5016,-276.3597"/>
<text text-anchor="middle" x="461.1921" y="-314.8" font-family="Times,serif" font-size="14.00" fill="#000000">broadcast</text>
</g>
</g>
</svg>
