<?xml version="1.0" encoding="UTF-8" standalone="no"?>
<!DOCTYPE svg PUBLIC "-//W3C//DTD SVG 1.1//EN"
 "http://www.w3.org/Graphics/SVG/1.1/DTD/svg11.dtd">
<!-- Generated by graphviz version 2.40.1 (20161225.0304)
 -->
<!-- Title: %3 Pages: 1 -->
<svg width="718pt" height="388pt"
 viewBox="0.00 0.00 718.00 388.00" xmlns="http://www.w3.org/2000/svg" xmlns:xlink="http://www.w3.org/1999/xlink">
<g id="graph0" class="graph" transform="scale(1 1) rotate(0) translate(4 384)">
<title>%3</title>
<polygon fill="#ffffff" stroke="transparent" points="-4,4 -4,-384 713.997,-384 713.997,4 -4,4"/>
<!-- Reducer 12 -->
<g id="node1" class="node">
<title>Reducer 12</title>
<ellipse fill="none" stroke="#000000" cx="185.0474" cy="-276" rx="50.7474" ry="18"/>
<text text-anchor="middle" x="185.0474" y="-271.8" font-family="Times,serif" font-size="14.00" fill="#000000">Reducer 12</text>
</g>
<!-- Reducer 13 -->
<g id="node2" class="node">
<title>Reducer 13</title>
<ellipse fill="none" stroke="#000000" cx="262.0474" cy="-190" rx="50.7474" ry="18"/>
<text text-anchor="middle" x="262.0474" y="-185.8" font-family="Times,serif" font-size="14.00" fill="#000000">Reducer 13</text>
</g>
<!-- Reducer 12&#45;&gt;Reducer 13 -->
<g id="edge1" class="edge">
<title>Reducer 12&#45;&gt;Reducer 13</title>
<path fill="none" stroke="#000000" d="M200.6295,-258.5966C211.797,-246.1239 227.0091,-229.1337 239.4998,-215.1831"/>
<polygon fill="#000000" stroke="#000000" points="242.4256,-217.1624 246.4885,-207.3775 237.2104,-212.493 242.4256,-217.1624"/>
<text text-anchor="middle" x="245.1544" y="-228.8" font-family="Times,serif" font-size="14.00" fill="#000000">sorted</text>
</g>
<!-- Reducer 3 -->
<g id="node6" class="node">
<title>Reducer 3</title>
<ellipse fill="none" stroke="#000000" cx="356.0474" cy="-104" rx="46.4045" ry="18"/>
<text text-anchor="middle" x="356.0474" y="-99.8" font-family="Times,serif" font-size="14.00" fill="#000000">Reducer 3</text>
</g>
<!-- Reducer 13&#45;&gt;Reducer 3 -->
<g id="edge6" class="edge">
<title>Reducer 13&#45;&gt;Reducer 3</title>
<path fill="none" stroke="#000000" d="M268.5786,-171.6743C272.9521,-161.3991 279.5417,-148.8991 288.4058,-140 295.6581,-132.7191 304.6928,-126.5542 313.7738,-121.4949"/>
<polygon fill="#000000" stroke="#000000" points="315.5449,-124.519 322.806,-116.8036 312.3184,-118.3069 315.5449,-124.519"/>
<text text-anchor="middle" x="314.8682" y="-142.8" font-family="Times,serif" font-size="14.00" fill="#000000">broadcast</text>
</g>
<!-- Map 11 -->
<g id="node3" class="node">
<title>Map 11</title>
<ellipse fill="none" stroke="#000000" cx="37.0474" cy="-362" rx="37.0949" ry="18"/>
<text text-anchor="middle" x="37.0474" y="-357.8" font-family="Times,serif" font-size="14.00" fill="#000000">Map 11</text>
</g>
<!-- Map 11&#45;&gt;Reducer 12 -->
<g id="edge2" class="edge">
<title>Map 11&#45;&gt;Reducer 12</title>
<path fill="none" stroke="#000000" d="M47.9522,-344.5946C55.4656,-333.8662 66.3283,-320.5685 78.8336,-312 94.5539,-301.2286 113.7792,-293.4313 131.5315,-287.9085"/>
<polygon fill="#000000" stroke="#000000" points="132.5999,-291.2427 141.2107,-285.0698 130.6299,-284.5256 132.5999,-291.2427"/>
<text text-anchor="middle" x="102.1544" y="-314.8" font-family="Times,serif" font-size="14.00" fill="#000000">unsorted</text>
</g>
<!-- Map 14 -->
<g id="node4" class="node">
<title>Map 14</title>
<ellipse fill="none" stroke="#000000" cx="129.0474" cy="-362" rx="37.243" ry="18"/>
<text text-anchor="middle" x="129.0474" y="-357.8" font-family="Times,serif" font-size="14.00" fill="#000000">Map 14</text>
</g>
<!-- Map 14&#45;&gt;Reducer 12 -->
<g id="edge3" class="edge">
<title>Map 14&#45;&gt;Reducer 12</title>
<path fill="none" stroke="#000000" d="M129.0776,-343.7533C129.8422,-333.7474 132.0608,-321.4868 137.8336,-312 140.9916,-306.8102 145.198,-302.1019 149.8027,-297.9284"/>
<polygon fill="#000000" stroke="#000000" points="152.2596,-300.4419 157.8133,-291.4193 147.8452,-295.0093 152.2596,-300.4419"/>
<text text-anchor="middle" x="161.1544" y="-314.8" font-family="Times,serif" font-size="14.00" fill="#000000">unsorted</text>
</g>
<!-- Map 6 -->
<g id="node5" class="node">
<title>Map 6</title>
<ellipse fill="none" stroke="#000000" cx="356.0474" cy="-362" rx="32.8992" ry="18"/>
<text text-anchor="middle" x="356.0474" y="-357.8" font-family="Times,serif" font-size="14.00" fill="#000000">Map 6</text>
</g>
<!-- Map 6&#45;&gt;Reducer 12 -->
<g id="edge4" class="edge">
<title>Map 6&#45;&gt;Reducer 12</title>
<path fill="none" stroke="#000000" d="M331.6504,-349.6439C311.6208,-339.508 282.5108,-324.7959 257.0474,-312 246.2302,-306.5641 234.4897,-300.685 223.6892,-295.285"/>
<polygon fill="#000000" stroke="#000000" points="224.9965,-292.0257 214.4866,-290.6861 221.8672,-298.2873 224.9965,-292.0257"/>
<text text-anchor="middle" x="310.8682" y="-314.8" font-family="Times,serif" font-size="14.00" fill="#000000">broadcast</text>
</g>
<!-- Reducer 2 -->
<g id="node8" class="node">
<title>Reducer 2</title>
<ellipse fill="none" stroke="#000000" cx="356.0474" cy="-276" rx="46.4045" ry="18"/>
<text text-anchor="middle" x="356.0474" y="-271.8" font-family="Times,serif" font-size="14.00" fill="#000000">Reducer 2</text>
</g>
<!-- Map 6&#45;&gt;Reducer 2 -->
<g id="edge11" class="edge">
<title>Map 6&#45;&gt;Reducer 2</title>
<path fill="none" stroke="#000000" d="M356.0474,-343.7616C356.0474,-332.3597 356.0474,-317.4342 356.0474,-304.494"/>
<polygon fill="#000000" stroke="#000000" points="359.5475,-304.2121 356.0474,-294.2121 352.5475,-304.2121 359.5475,-304.2121"/>
<text text-anchor="middle" x="382.8682" y="-314.8" font-family="Times,serif" font-size="14.00" fill="#000000">broadcast</text>
</g>
<!-- Reducer 8 -->
<g id="node12" class="node">
<title>Reducer 8</title>
<ellipse fill="none" stroke="#000000" cx="527.0474" cy="-276" rx="46.4045" ry="18"/>
<text text-anchor="middle" x="527.0474" y="-271.8" font-family="Times,serif" font-size="14.00" fill="#000000">Reducer 8</text>
</g>
<!-- Map 6&#45;&gt;Reducer 8 -->
<g id="edge14" class="edge">
<title>Map 6&#45;&gt;Reducer 8</title>
<path fill="none" stroke="#000000" d="M377.6195,-348.2106C387.8278,-341.6012 400.1428,-333.5059 411.0474,-326 419.7937,-319.9798 421.0441,-317.0098 430.4058,-312 446.0933,-303.6051 464.1641,-296.303 480.4041,-290.5103"/>
<polygon fill="#000000" stroke="#000000" points="481.9381,-293.683 490.2414,-287.1023 479.6466,-287.0687 481.9381,-293.683"/>
<text text-anchor="middle" x="456.8682" y="-314.8" font-family="Times,serif" font-size="14.00" fill="#000000">broadcast</text>
</g>
<!-- Reducer 4 -->
<g id="node7" class="node">
<title>Reducer 4</title>
<ellipse fill="none" stroke="#000000" cx="356.0474" cy="-18" rx="46.4045" ry="18"/>
<text text-anchor="middle" x="356.0474" y="-13.8" font-family="Times,serif" font-size="14.00" fill="#000000">Reducer 4</text>
</g>
<!-- Reducer 3&#45;&gt;Reducer 4 -->
<g id="edge5" class="edge">
<title>Reducer 3&#45;&gt;Reducer 4</title>
<path fill="none" stroke="#000000" d="M356.0474,-85.7616C356.0474,-74.3597 356.0474,-59.4342 356.0474,-46.494"/>
<polygon fill="#000000" stroke="#000000" points="359.5475,-46.2121 356.0474,-36.2121 352.5475,-46.2121 359.5475,-46.2121"/>
<text text-anchor="middle" x="373.1544" y="-56.8" font-family="Times,serif" font-size="14.00" fill="#000000">sorted</text>
</g>
<!-- Reducer 2&#45;&gt;Reducer 3 -->
<g id="edge7" class="edge">
<title>Reducer 2&#45;&gt;Reducer 3</title>
<path fill="none" stroke="#000000" d="M356.0474,-257.9181C356.0474,-227.981 356.0474,-167.8972 356.0474,-132.2989"/>
<polygon fill="#000000" stroke="#000000" points="359.5475,-132.0977 356.0474,-122.0977 352.5475,-132.0978 359.5475,-132.0977"/>
<text text-anchor="middle" x="373.1544" y="-185.8" font-family="Times,serif" font-size="14.00" fill="#000000">sorted</text>
</g>
<!-- Reducer 9 -->
<g id="node9" class="node">
<title>Reducer 9</title>
<ellipse fill="none" stroke="#000000" cx="460.0474" cy="-190" rx="46.4045" ry="18"/>
<text text-anchor="middle" x="460.0474" y="-185.8" font-family="Times,serif" font-size="14.00" fill="#000000">Reducer 9</text>
</g>
<!-- Reducer 9&#45;&gt;Reducer 3 -->
<g id="edge8" class="edge">
<title>Reducer 9&#45;&gt;Reducer 3</title>
<path fill="none" stroke="#000000" d="M439.9952,-173.4183C424.025,-160.2122 401.491,-141.5783 383.79,-126.9409"/>
<polygon fill="#000000" stroke="#000000" points="385.975,-124.2062 376.0381,-120.5308 381.5142,-129.6007 385.975,-124.2062"/>
<text text-anchor="middle" x="440.8682" y="-142.8" font-family="Times,serif" font-size="14.00" fill="#000000">broadcast</text>
</g>
<!-- Map 1 -->
<g id="node10" class="node">
<title>Map 1</title>
<ellipse fill="none" stroke="#000000" cx="501.0474" cy="-362" rx="32.8992" ry="18"/>
<text text-anchor="middle" x="501.0474" y="-357.8" font-family="Times,serif" font-size="14.00" fill="#000000">Map 1</text>
</g>
<!-- Map 1&#45;&gt;Reducer 2 -->
<g id="edge9" class="edge">
<title>Map 1&#45;&gt;Reducer 2</title>
<path fill="none" stroke="#000000" d="M500.6559,-343.6133C499.4674,-333.0577 496.2431,-320.2936 488.0474,-312 476.7481,-300.5656 440.4976,-291.1588 408.8387,-284.832"/>
<polygon fill="#000000" stroke="#000000" points="409.2406,-281.345 398.7587,-282.8874 407.9146,-288.2183 409.2406,-281.345"/>
<text text-anchor="middle" x="520.1544" y="-314.8" font-family="Times,serif" font-size="14.00" fill="#000000">unsorted</text>
</g>
<!-- Map 5 -->
<g id="node11" class="node">
<title>Map 5</title>
<ellipse fill="none" stroke="#000000" cx="217.0474" cy="-362" rx="32.8992" ry="18"/>
<text text-anchor="middle" x="217.0474" y="-357.8" font-family="Times,serif" font-size="14.00" fill="#000000">Map 5</text>
</g>
<!-- Map 5&#45;&gt;Reducer 2 -->
<g id="edge10" class="edge">
<title>Map 5&#45;&gt;Reducer 2</title>
<path fill="none" stroke="#000000" d="M208.0866,-344.6006C204.0718,-334.1422 201.6639,-321.1342 208.8336,-312 214.899,-304.2727 263.9882,-293.3095 303.839,-285.5157"/>
<polygon fill="#000000" stroke="#000000" points="304.5834,-288.9367 313.7397,-283.6064 303.2579,-282.0633 304.5834,-288.9367"/>
<text text-anchor="middle" x="232.1544" y="-314.8" font-family="Times,serif" font-size="14.00" fill="#000000">unsorted</text>
</g>
<!-- Reducer 8&#45;&gt;Reducer 9 -->
<g id="edge12" class="edge">
<title>Reducer 8&#45;&gt;Reducer 9</title>
<path fill="none" stroke="#000000" d="M513.489,-258.5966C503.8627,-246.2405 490.7824,-229.4509 479.9721,-215.575"/>
<polygon fill="#000000" stroke="#000000" points="482.4925,-213.1151 473.5857,-207.3775 476.9705,-217.4171 482.4925,-213.1151"/>
<text text-anchor="middle" x="514.1544" y="-228.8" font-family="Times,serif" font-size="14.00" fill="#000000">sorted</text>
</g>
<!-- Map 10 -->
<g id="node13" class="node">
<title>Map 10</title>
<ellipse fill="none" stroke="#000000" cx="589.0474" cy="-362" rx="37.243" ry="18"/>
<text text-anchor="middle" x="589.0474" y="-357.8" font-family="Times,serif" font-size="14.00" fill="#000000">Map 10</text>
</g>
<!-- Map 10&#45;&gt;Reducer 8 -->
<g id="edge13" class="edge">
<title>Map 10&#45;&gt;Reducer 8</title>
<path fill="none" stroke="#000000" d="M580.9215,-344.1661C576.0587,-334.2894 569.403,-322.0204 562.0474,-312 559.1073,-307.9946 555.7412,-303.9882 552.2847,-300.1797"/>
<polygon fill="#000000" stroke="#000000" points="554.5995,-297.5351 545.1702,-292.7041 549.5288,-302.3609 554.5995,-297.5351"/>
<text text-anchor="middle" x="594.1544" y="-314.8" font-family="Times,serif" font-size="14.00" fill="#000000">unsorted</text>
</g>
<!-- Map 7 -->
<g id="node14" class="node">
<title>Map 7</title>
<ellipse fill="none" stroke="#000000" cx="677.0474" cy="-362" rx="32.8992" ry="18"/>
<text text-anchor="middle" x="677.0474" y="-357.8" font-family="Times,serif" font-size="14.00" fill="#000000">Map 7</text>
</g>
<!-- Map 7&#45;&gt;Reducer 8 -->
<g id="edge15" class="edge">
<title>Map 7&#45;&gt;Reducer 8</title>
<path fill="none" stroke="#000000" d="M662.4403,-345.8569C652.0255,-335.1107 637.2293,-321.3085 622.0474,-312 607.3542,-302.9911 590.0362,-295.6144 574.2381,-289.9366"/>
<polygon fill="#000000" stroke="#000000" points="575.2297,-286.5763 564.635,-286.6214 572.9454,-293.1931 575.2297,-286.5763"/>
<text text-anchor="middle" x="664.1544" y="-314.8" font-family="Times,serif" font-size="14.00" fill="#000000">unsorted</text>
</g>
</g>
</svg>
