<?xml version="1.0" encoding="UTF-8" standalone="no"?>
<!DOCTYPE svg PUBLIC "-//W3C//DTD SVG 1.1//EN"
 "http://www.w3.org/Graphics/SVG/1.1/DTD/svg11.dtd">
<!-- Generated by graphviz version 2.40.1 (20161225.0304)
 -->
<!-- Title: %3 Pages: 1 -->
<svg width="519pt" height="732pt"
 viewBox="0.00 0.00 519.27 732.00" xmlns="http://www.w3.org/2000/svg" xmlns:xlink="http://www.w3.org/1999/xlink">
<g id="graph0" class="graph" transform="scale(1 1) rotate(0) translate(4 728)">
<title>%3</title>
<polygon fill="#ffffff" stroke="transparent" points="-4,4 -4,-728 515.2651,-728 515.2651,4 -4,4"/>
<!-- Reducer 10 -->
<g id="node1" class="node">
<title>Reducer 10</title>
<ellipse fill="none" stroke="#000000" cx="50.6235" cy="-620" rx="50.7474" ry="18"/>
<text text-anchor="middle" x="50.6235" y="-615.8" font-family="Times,serif" font-size="14.00" fill="#000000">Reducer 10</text>
</g>
<!-- Map 5 -->
<g id="node2" class="node">
<title>Map 5</title>
<ellipse fill="none" stroke="#000000" cx="169.6235" cy="-534" rx="32.8992" ry="18"/>
<text text-anchor="middle" x="169.6235" y="-529.8" font-family="Times,serif" font-size="14.00" fill="#000000">Map 5</text>
</g>
<!-- Reducer 10&#45;&gt;Map 5 -->
<g id="edge1" class="edge">
<title>Reducer 10&#45;&gt;Map 5</title>
<path fill="none" stroke="#000000" d="M70.0252,-603.1399C81.8577,-593.1255 97.4534,-580.3943 111.9819,-570 120.3144,-564.0386 129.6263,-557.9793 138.2944,-552.5745"/>
<polygon fill="#000000" stroke="#000000" points="140.3375,-555.4271 147.0263,-547.2106 136.6736,-549.4625 140.3375,-555.4271"/>
<text text-anchor="middle" x="139.4443" y="-572.8" font-family="Times,serif" font-size="14.00" fill="#000000">broadcast</text>
</g>
<!-- Reducer 6 -->
<g id="node5" class="node">
<title>Reducer 6</title>
<ellipse fill="none" stroke="#000000" cx="59.6235" cy="-448" rx="46.4045" ry="18"/>
<text text-anchor="middle" x="59.6235" y="-443.8" font-family="Times,serif" font-size="14.00" fill="#000000">Reducer 6</text>
</g>
<!-- Map 5&#45;&gt;Reducer 6 -->
<g id="edge18" class="edge">
<title>Map 5&#45;&gt;Reducer 6</title>
<path fill="none" stroke="#000000" d="M150.463,-519.0199C133.3356,-505.6294 107.9951,-485.8178 88.4271,-470.5191"/>
<polygon fill="#000000" stroke="#000000" points="90.4688,-467.6726 80.4349,-464.2707 86.1573,-473.1873 90.4688,-467.6726"/>
<text text-anchor="middle" x="138.7305" y="-486.8" font-family="Times,serif" font-size="14.00" fill="#000000">sorted</text>
</g>
<!-- Reducer 7 -->
<g id="node7" class="node">
<title>Reducer 7</title>
<ellipse fill="none" stroke="#000000" cx="169.6235" cy="-448" rx="46.4045" ry="18"/>
<text text-anchor="middle" x="169.6235" y="-443.8" font-family="Times,serif" font-size="14.00" fill="#000000">Reducer 7</text>
</g>
<!-- Map 5&#45;&gt;Reducer 7 -->
<g id="edge17" class="edge">
<title>Map 5&#45;&gt;Reducer 7</title>
<path fill="none" stroke="#000000" d="M169.6235,-515.7616C169.6235,-504.3597 169.6235,-489.4342 169.6235,-476.494"/>
<polygon fill="#000000" stroke="#000000" points="173.1236,-476.2121 169.6235,-466.2121 166.1236,-476.2121 173.1236,-476.2121"/>
<text text-anchor="middle" x="186.7305" y="-486.8" font-family="Times,serif" font-size="14.00" fill="#000000">sorted</text>
</g>
<!-- Reducer 8 -->
<g id="node8" class="node">
<title>Reducer 8</title>
<ellipse fill="none" stroke="#000000" cx="279.6235" cy="-448" rx="46.4045" ry="18"/>
<text text-anchor="middle" x="279.6235" y="-443.8" font-family="Times,serif" font-size="14.00" fill="#000000">Reducer 8</text>
</g>
<!-- Map 5&#45;&gt;Reducer 8 -->
<g id="edge24" class="edge">
<title>Map 5&#45;&gt;Reducer 8</title>
<path fill="none" stroke="#000000" d="M188.7841,-519.0199C205.9115,-505.6294 231.2519,-485.8178 250.82,-470.5191"/>
<polygon fill="#000000" stroke="#000000" points="253.0898,-473.1873 258.8122,-464.2707 248.7783,-467.6726 253.0898,-473.1873"/>
<text text-anchor="middle" x="248.7305" y="-486.8" font-family="Times,serif" font-size="14.00" fill="#000000">sorted</text>
</g>
<!-- Reducer 11 -->
<g id="node3" class="node">
<title>Reducer 11</title>
<ellipse fill="none" stroke="#000000" cx="169.6235" cy="-620" rx="50.1002" ry="18"/>
<text text-anchor="middle" x="169.6235" y="-615.8" font-family="Times,serif" font-size="14.00" fill="#000000">Reducer 11</text>
</g>
<!-- Reducer 11&#45;&gt;Map 5 -->
<g id="edge2" class="edge">
<title>Reducer 11&#45;&gt;Map 5</title>
<path fill="none" stroke="#000000" d="M169.6235,-601.7616C169.6235,-590.3597 169.6235,-575.4342 169.6235,-562.494"/>
<polygon fill="#000000" stroke="#000000" points="173.1236,-562.2121 169.6235,-552.2121 166.1236,-562.2121 173.1236,-562.2121"/>
<text text-anchor="middle" x="196.4443" y="-572.8" font-family="Times,serif" font-size="14.00" fill="#000000">broadcast</text>
</g>
<!-- Reducer 12 -->
<g id="node4" class="node">
<title>Reducer 12</title>
<ellipse fill="none" stroke="#000000" cx="288.6235" cy="-620" rx="50.7474" ry="18"/>
<text text-anchor="middle" x="288.6235" y="-615.8" font-family="Times,serif" font-size="14.00" fill="#000000">Reducer 12</text>
</g>
<!-- Reducer 12&#45;&gt;Map 5 -->
<g id="edge3" class="edge">
<title>Reducer 12&#45;&gt;Map 5</title>
<path fill="none" stroke="#000000" d="M269.3595,-603.1139C257.6047,-593.0903 242.1007,-580.3585 227.6235,-570 219.254,-564.0115 209.889,-557.9436 201.1669,-552.5391"/>
<polygon fill="#000000" stroke="#000000" points="202.7386,-549.398 192.3789,-547.1783 199.0932,-555.374 202.7386,-549.398"/>
<text text-anchor="middle" x="272.4443" y="-572.8" font-family="Times,serif" font-size="14.00" fill="#000000">broadcast</text>
</g>
<!-- Map 4 -->
<g id="node6" class="node">
<title>Map 4</title>
<ellipse fill="none" stroke="#000000" cx="169.6235" cy="-362" rx="32.8992" ry="18"/>
<text text-anchor="middle" x="169.6235" y="-357.8" font-family="Times,serif" font-size="14.00" fill="#000000">Map 4</text>
</g>
<!-- Reducer 6&#45;&gt;Map 4 -->
<g id="edge4" class="edge">
<title>Reducer 6&#45;&gt;Map 4</title>
<path fill="none" stroke="#000000" d="M75.8105,-430.8695C85.7767,-420.7593 99.0769,-408.0223 111.9819,-398 120.0046,-391.7695 129.1504,-385.6581 137.7566,-380.2903"/>
<polygon fill="#000000" stroke="#000000" points="139.7384,-383.1815 146.4601,-374.9919 136.0984,-377.2022 139.7384,-383.1815"/>
<text text-anchor="middle" x="139.4443" y="-400.8" font-family="Times,serif" font-size="14.00" fill="#000000">broadcast</text>
</g>
<!-- Map 1 -->
<g id="node10" class="node">
<title>Map 1</title>
<ellipse fill="none" stroke="#000000" cx="276.6235" cy="-276" rx="32.8992" ry="18"/>
<text text-anchor="middle" x="276.6235" y="-271.8" font-family="Times,serif" font-size="14.00" fill="#000000">Map 1</text>
</g>
<!-- Map 4&#45;&gt;Map 1 -->
<g id="edge8" class="edge">
<title>Map 4&#45;&gt;Map 1</title>
<path fill="none" stroke="#000000" d="M165.3437,-343.701C164.0303,-333.4347 164.3698,-320.9347 170.9819,-312 185.9412,-291.7861 200.8211,-302.113 224.6235,-294 229.2409,-292.4262 234.0851,-290.7641 238.8819,-289.1115"/>
<polygon fill="#000000" stroke="#000000" points="240.2643,-292.337 248.5738,-285.7641 237.9791,-285.7205 240.2643,-292.337"/>
<text text-anchor="middle" x="198.4443" y="-314.8" font-family="Times,serif" font-size="14.00" fill="#000000">broadcast</text>
</g>
<!-- Map 13 -->
<g id="node13" class="node">
<title>Map 13</title>
<ellipse fill="none" stroke="#000000" cx="178.6235" cy="-276" rx="37.243" ry="18"/>
<text text-anchor="middle" x="178.6235" y="-271.8" font-family="Times,serif" font-size="14.00" fill="#000000">Map 13</text>
</g>
<!-- Map 4&#45;&gt;Map 13 -->
<g id="edge23" class="edge">
<title>Map 4&#45;&gt;Map 13</title>
<path fill="none" stroke="#000000" d="M139.3268,-354.8963C112.6979,-347.1086 80.1747,-332.8768 93.9819,-312 102.9422,-298.4519 118.1451,-289.9865 133.215,-284.7038"/>
<polygon fill="#000000" stroke="#000000" points="134.5109,-287.9667 143.0319,-281.6704 132.4443,-281.2787 134.5109,-287.9667"/>
<text text-anchor="middle" x="121.4443" y="-314.8" font-family="Times,serif" font-size="14.00" fill="#000000">broadcast</text>
</g>
<!-- Map 16 -->
<g id="node16" class="node">
<title>Map 16</title>
<ellipse fill="none" stroke="#000000" cx="391.6235" cy="-276" rx="37.243" ry="18"/>
<text text-anchor="middle" x="391.6235" y="-271.8" font-family="Times,serif" font-size="14.00" fill="#000000">Map 16</text>
</g>
<!-- Map 4&#45;&gt;Map 16 -->
<g id="edge21" class="edge">
<title>Map 4&#45;&gt;Map 16</title>
<path fill="none" stroke="#000000" d="M201.1522,-356.7174C228.6247,-351.3507 269.0528,-341.5807 301.6235,-326 311.2019,-321.418 311.9228,-317.5382 320.9819,-312 331.9003,-305.3251 344.205,-298.7505 355.4491,-293.0836"/>
<polygon fill="#000000" stroke="#000000" points="357.1841,-296.1301 364.5911,-288.5546 354.0766,-289.8576 357.1841,-296.1301"/>
<text text-anchor="middle" x="348.4443" y="-314.8" font-family="Times,serif" font-size="14.00" fill="#000000">broadcast</text>
</g>
<!-- Reducer 7&#45;&gt;Map 4 -->
<g id="edge5" class="edge">
<title>Reducer 7&#45;&gt;Map 4</title>
<path fill="none" stroke="#000000" d="M169.6235,-429.7616C169.6235,-418.3597 169.6235,-403.4342 169.6235,-390.494"/>
<polygon fill="#000000" stroke="#000000" points="173.1236,-390.2121 169.6235,-380.2121 166.1236,-390.2121 173.1236,-390.2121"/>
<text text-anchor="middle" x="196.4443" y="-400.8" font-family="Times,serif" font-size="14.00" fill="#000000">broadcast</text>
</g>
<!-- Reducer 8&#45;&gt;Map 4 -->
<g id="edge6" class="edge">
<title>Reducer 8&#45;&gt;Map 4</title>
<path fill="none" stroke="#000000" d="M263.5757,-430.8465C253.6878,-420.7282 240.4792,-407.9906 227.6235,-398 219.567,-391.739 210.3696,-385.6176 201.7098,-380.25"/>
<polygon fill="#000000" stroke="#000000" points="203.3189,-377.1329 192.9503,-374.955 199.6977,-383.1235 203.3189,-377.1329"/>
<text text-anchor="middle" x="270.4443" y="-400.8" font-family="Times,serif" font-size="14.00" fill="#000000">broadcast</text>
</g>
<!-- Map 3 -->
<g id="node9" class="node">
<title>Map 3</title>
<ellipse fill="none" stroke="#000000" cx="400.6235" cy="-362" rx="32.8992" ry="18"/>
<text text-anchor="middle" x="400.6235" y="-357.8" font-family="Times,serif" font-size="14.00" fill="#000000">Map 3</text>
</g>
<!-- Map 3&#45;&gt;Map 1 -->
<g id="edge7" class="edge">
<title>Map 3&#45;&gt;Map 1</title>
<path fill="none" stroke="#000000" d="M396.4507,-343.6788C393.1949,-333.1465 387.6629,-320.3838 378.6235,-312 369.2148,-303.2736 340.7807,-293.6042 316.3168,-286.4858"/>
<polygon fill="#000000" stroke="#000000" points="317.067,-283.0605 306.4914,-283.6979 315.1562,-289.7947 317.067,-283.0605"/>
<text text-anchor="middle" x="414.4443" y="-314.8" font-family="Times,serif" font-size="14.00" fill="#000000">broadcast</text>
</g>
<!-- Map 3&#45;&gt;Map 13 -->
<g id="edge22" class="edge">
<title>Map 3&#45;&gt;Map 13</title>
<path fill="none" stroke="#000000" d="M368.1064,-358.6229C335.4727,-354.3088 284.3854,-344.9951 243.9819,-326 241.7737,-324.9618 223.3027,-310.7873 206.5586,-297.7953"/>
<polygon fill="#000000" stroke="#000000" points="208.5997,-294.9489 198.5563,-291.5752 204.3037,-300.4757 208.5997,-294.9489"/>
<text text-anchor="middle" x="271.4443" y="-314.8" font-family="Times,serif" font-size="14.00" fill="#000000">broadcast</text>
</g>
<!-- Map 3&#45;&gt;Map 16 -->
<g id="edge20" class="edge">
<title>Map 3&#45;&gt;Map 16</title>
<path fill="none" stroke="#000000" d="M427.6294,-351.2469C445.9085,-342.2392 465.1352,-328.2635 455.6235,-312 450.2098,-302.7434 441.4439,-295.6831 432.1133,-290.3752"/>
<polygon fill="#000000" stroke="#000000" points="433.5886,-287.1992 423.0854,-285.8086 430.429,-293.4455 433.5886,-287.1992"/>
<text text-anchor="middle" x="484.4443" y="-314.8" font-family="Times,serif" font-size="14.00" fill="#000000">broadcast</text>
</g>
<!-- Reducer 2 -->
<g id="node15" class="node">
<title>Reducer 2</title>
<ellipse fill="none" stroke="#000000" cx="276.6235" cy="-190" rx="46.4045" ry="18"/>
<text text-anchor="middle" x="276.6235" y="-185.8" font-family="Times,serif" font-size="14.00" fill="#000000">Reducer 2</text>
</g>
<!-- Map 1&#45;&gt;Reducer 2 -->
<g id="edge19" class="edge">
<title>Map 1&#45;&gt;Reducer 2</title>
<path fill="none" stroke="#000000" d="M276.6235,-257.7616C276.6235,-246.3597 276.6235,-231.4342 276.6235,-218.494"/>
<polygon fill="#000000" stroke="#000000" points="280.1236,-218.2121 276.6235,-208.2121 273.1236,-218.2121 280.1236,-218.2121"/>
<text text-anchor="middle" x="293.7305" y="-228.8" font-family="Times,serif" font-size="14.00" fill="#000000">sorted</text>
</g>
<!-- Reducer 14 -->
<g id="node11" class="node">
<title>Reducer 14</title>
<ellipse fill="none" stroke="#000000" cx="276.6235" cy="-104" rx="50.7474" ry="18"/>
<text text-anchor="middle" x="276.6235" y="-99.8" font-family="Times,serif" font-size="14.00" fill="#000000">Reducer 14</text>
</g>
<!-- Reducer 15 -->
<g id="node12" class="node">
<title>Reducer 15</title>
<ellipse fill="none" stroke="#000000" cx="276.6235" cy="-18" rx="50.7474" ry="18"/>
<text text-anchor="middle" x="276.6235" y="-13.8" font-family="Times,serif" font-size="14.00" fill="#000000">Reducer 15</text>
</g>
<!-- Reducer 14&#45;&gt;Reducer 15 -->
<g id="edge9" class="edge">
<title>Reducer 14&#45;&gt;Reducer 15</title>
<path fill="none" stroke="#000000" d="M276.6235,-85.7616C276.6235,-74.3597 276.6235,-59.4342 276.6235,-46.494"/>
<polygon fill="#000000" stroke="#000000" points="280.1236,-46.2121 276.6235,-36.2121 273.1236,-46.2121 280.1236,-46.2121"/>
<text text-anchor="middle" x="293.7305" y="-56.8" font-family="Times,serif" font-size="14.00" fill="#000000">sorted</text>
</g>
<!-- Map 13&#45;&gt;Reducer 14 -->
<g id="edge10" class="edge">
<title>Map 13&#45;&gt;Reducer 14</title>
<path fill="none" stroke="#000000" d="M175.9147,-257.818C173.5783,-236.0056 172.5901,-199.0047 187.4097,-172 198.682,-151.4592 219.0639,-135.2062 237.5031,-123.7476"/>
<polygon fill="#000000" stroke="#000000" points="239.5285,-126.616 246.3506,-118.5099 235.9625,-120.5924 239.5285,-126.616"/>
<text text-anchor="middle" x="204.7305" y="-185.8" font-family="Times,serif" font-size="14.00" fill="#000000">sorted</text>
</g>
<!-- Reducer 17 -->
<g id="node14" class="node">
<title>Reducer 17</title>
<ellipse fill="none" stroke="#000000" cx="391.6235" cy="-190" rx="50.7474" ry="18"/>
<text text-anchor="middle" x="391.6235" y="-185.8" font-family="Times,serif" font-size="14.00" fill="#000000">Reducer 17</text>
</g>
<!-- Reducer 17&#45;&gt;Reducer 14 -->
<g id="edge11" class="edge">
<title>Reducer 17&#45;&gt;Reducer 14</title>
<path fill="none" stroke="#000000" d="M373.7832,-172.9908C362.8561,-162.9236 348.3721,-150.1891 334.6235,-140 327.5745,-134.776 319.7521,-129.5628 312.1929,-124.791"/>
<polygon fill="#000000" stroke="#000000" points="313.8485,-121.6997 303.5023,-119.4179 310.1674,-127.6536 313.8485,-121.6997"/>
<text text-anchor="middle" x="377.4443" y="-142.8" font-family="Times,serif" font-size="14.00" fill="#000000">broadcast</text>
</g>
<!-- Reducer 2&#45;&gt;Reducer 14 -->
<g id="edge12" class="edge">
<title>Reducer 2&#45;&gt;Reducer 14</title>
<path fill="none" stroke="#000000" d="M276.6235,-171.7616C276.6235,-160.3597 276.6235,-145.4342 276.6235,-132.494"/>
<polygon fill="#000000" stroke="#000000" points="280.1236,-132.2121 276.6235,-122.2121 273.1236,-132.2121 280.1236,-132.2121"/>
<text text-anchor="middle" x="303.4443" y="-142.8" font-family="Times,serif" font-size="14.00" fill="#000000">broadcast</text>
</g>
<!-- Map 16&#45;&gt;Reducer 17 -->
<g id="edge13" class="edge">
<title>Map 16&#45;&gt;Reducer 17</title>
<path fill="none" stroke="#000000" d="M391.6235,-257.7616C391.6235,-246.3597 391.6235,-231.4342 391.6235,-218.494"/>
<polygon fill="#000000" stroke="#000000" points="395.1236,-218.2121 391.6235,-208.2121 388.1236,-218.2121 395.1236,-218.2121"/>
<text text-anchor="middle" x="408.7305" y="-228.8" font-family="Times,serif" font-size="14.00" fill="#000000">sorted</text>
</g>
<!-- Map 9 -->
<g id="node17" class="node">
<title>Map 9</title>
<ellipse fill="none" stroke="#000000" cx="169.6235" cy="-706" rx="32.8992" ry="18"/>
<text text-anchor="middle" x="169.6235" y="-701.8" font-family="Times,serif" font-size="14.00" fill="#000000">Map 9</text>
</g>
<!-- Map 9&#45;&gt;Reducer 10 -->
<g id="edge15" class="edge">
<title>Map 9&#45;&gt;Reducer 10</title>
<path fill="none" stroke="#000000" d="M149.7056,-691.6055C131.0141,-678.0973 102.7847,-657.6963 81.2331,-642.1212"/>
<polygon fill="#000000" stroke="#000000" points="83.1966,-639.2219 73.0415,-636.2012 79.0964,-644.8954 83.1966,-639.2219"/>
<text text-anchor="middle" x="134.7305" y="-658.8" font-family="Times,serif" font-size="14.00" fill="#000000">sorted</text>
</g>
<!-- Map 9&#45;&gt;Reducer 11 -->
<g id="edge14" class="edge">
<title>Map 9&#45;&gt;Reducer 11</title>
<path fill="none" stroke="#000000" d="M169.6235,-687.7616C169.6235,-676.3597 169.6235,-661.4342 169.6235,-648.494"/>
<polygon fill="#000000" stroke="#000000" points="173.1236,-648.2121 169.6235,-638.2121 166.1236,-648.2121 173.1236,-648.2121"/>
<text text-anchor="middle" x="186.7305" y="-658.8" font-family="Times,serif" font-size="14.00" fill="#000000">sorted</text>
</g>
<!-- Map 9&#45;&gt;Reducer 12 -->
<g id="edge16" class="edge">
<title>Map 9&#45;&gt;Reducer 12</title>
<path fill="none" stroke="#000000" d="M189.5415,-691.6055C208.233,-678.0973 236.4624,-657.6963 258.014,-642.1212"/>
<polygon fill="#000000" stroke="#000000" points="260.1507,-644.8954 266.2056,-636.2012 256.0505,-639.2219 260.1507,-644.8954"/>
<text text-anchor="middle" x="253.7305" y="-658.8" font-family="Times,serif" font-size="14.00" fill="#000000">sorted</text>
</g>
</g>
</svg>
