<?xml version="1.0" encoding="UTF-8" standalone="no"?>
<!DOCTYPE svg PUBLIC "-//W3C//DTD SVG 1.1//EN"
 "http://www.w3.org/Graphics/SVG/1.1/DTD/svg11.dtd">
<!-- Generated by graphviz version 2.40.1 (20161225.0304)
 -->
<!-- Title: %3 Pages: 1 -->
<svg width="1120pt" height="840pt"
 viewBox="0.00 0.00 1119.84 840.00" xmlns="http://www.w3.org/2000/svg" xmlns:xlink="http://www.w3.org/1999/xlink">
<g id="graph0" class="graph" transform="scale(1 1) rotate(0) translate(4 836)">
<title>%3</title>
<polygon fill="#ffffff" stroke="transparent" points="-4,4 -4,-836 1115.8402,-836 1115.8402,4 -4,4"/>
<!-- Map 36 -->
<g id="node1" class="node">
<title>Map 36</title>
<ellipse fill="none" stroke="#000000" cx="295.2166" cy="-642" rx="37.243" ry="18"/>
<text text-anchor="middle" x="295.2166" y="-637.8" font-family="Times,serif" font-size="14.00" fill="#000000">Map 36</text>
</g>
<!-- Reducer 37 -->
<g id="node2" class="node">
<title>Reducer 37</title>
<ellipse fill="none" stroke="#000000" cx="274.2166" cy="-556" rx="50.7474" ry="18"/>
<text text-anchor="middle" x="274.2166" y="-551.8" font-family="Times,serif" font-size="14.00" fill="#000000">Reducer 37</text>
</g>
<!-- Map 36&#45;&gt;Reducer 37 -->
<g id="edge1" class="edge">
<title>Map 36&#45;&gt;Reducer 37</title>
<path fill="none" stroke="#000000" d="M290.7631,-623.7616C287.951,-612.2456 284.2613,-597.1353 281.0798,-584.1064"/>
<polygon fill="#000000" stroke="#000000" points="284.4361,-583.0964 278.6638,-574.2121 277.6359,-584.757 284.4361,-583.0964"/>
<text text-anchor="middle" x="302.3236" y="-594.8" font-family="Times,serif" font-size="14.00" fill="#000000">sorted</text>
</g>
<!-- Reducer 38 -->
<g id="node5" class="node">
<title>Reducer 38</title>
<ellipse fill="none" stroke="#000000" cx="264.2166" cy="-448" rx="50.7474" ry="18"/>
<text text-anchor="middle" x="264.2166" y="-443.8" font-family="Times,serif" font-size="14.00" fill="#000000">Reducer 38</text>
</g>
<!-- Reducer 37&#45;&gt;Reducer 38 -->
<g id="edge13" class="edge">
<title>Reducer 37&#45;&gt;Reducer 38</title>
<path fill="none" stroke="#000000" d="M272.5203,-537.6793C270.9593,-520.821 268.6208,-495.5651 266.8228,-476.147"/>
<polygon fill="#000000" stroke="#000000" points="270.2951,-475.6848 265.8879,-466.0502 263.3249,-476.3303 270.2951,-475.6848"/>
<text text-anchor="middle" x="287.3236" y="-497.8" font-family="Times,serif" font-size="14.00" fill="#000000">sorted</text>
</g>
<!-- Reducer 34 -->
<g id="node3" class="node">
<title>Reducer 34</title>
<ellipse fill="none" stroke="#000000" cx="144.2166" cy="-502" rx="50.7474" ry="18"/>
<text text-anchor="middle" x="144.2166" y="-497.8" font-family="Times,serif" font-size="14.00" fill="#000000">Reducer 34</text>
</g>
<!-- Reducer 35 -->
<g id="node4" class="node">
<title>Reducer 35</title>
<ellipse fill="none" stroke="#000000" cx="172.2166" cy="-362" rx="50.7474" ry="18"/>
<text text-anchor="middle" x="172.2166" y="-357.8" font-family="Times,serif" font-size="14.00" fill="#000000">Reducer 35</text>
</g>
<!-- Reducer 34&#45;&gt;Reducer 35 -->
<g id="edge2" class="edge">
<title>Reducer 34&#45;&gt;Reducer 35</title>
<path fill="none" stroke="#000000" d="M147.8198,-483.9841C152.5609,-460.2784 160.9465,-418.3507 166.5433,-390.3667"/>
<polygon fill="#000000" stroke="#000000" points="170.0091,-390.8836 168.5383,-380.3914 163.1451,-389.5107 170.0091,-390.8836"/>
<text text-anchor="middle" x="175.3236" y="-443.8" font-family="Times,serif" font-size="14.00" fill="#000000">sorted</text>
</g>
<!-- Reducer 23 -->
<g id="node27" class="node">
<title>Reducer 23</title>
<ellipse fill="none" stroke="#000000" cx="172.2166" cy="-276" rx="50.7474" ry="18"/>
<text text-anchor="middle" x="172.2166" y="-271.8" font-family="Times,serif" font-size="14.00" fill="#000000">Reducer 23</text>
</g>
<!-- Reducer 35&#45;&gt;Reducer 23 -->
<g id="edge23" class="edge">
<title>Reducer 35&#45;&gt;Reducer 23</title>
<path fill="none" stroke="#000000" d="M172.2166,-343.7616C172.2166,-332.3597 172.2166,-317.4342 172.2166,-304.494"/>
<polygon fill="#000000" stroke="#000000" points="175.7167,-304.2121 172.2166,-294.2121 168.7167,-304.2121 175.7167,-304.2121"/>
<text text-anchor="middle" x="187.3787" y="-314.8" font-family="Times,serif" font-size="14.00" fill="#000000">None</text>
</g>
<!-- Reducer 38&#45;&gt;Reducer 35 -->
<g id="edge3" class="edge">
<title>Reducer 38&#45;&gt;Reducer 35</title>
<path fill="none" stroke="#000000" d="M246.0404,-431.0092C232.3056,-418.1702 213.2699,-400.3759 197.9685,-386.0724"/>
<polygon fill="#000000" stroke="#000000" points="200.0505,-383.2276 190.3551,-378.9555 195.2703,-388.3413 200.0505,-383.2276"/>
<text text-anchor="middle" x="250.0374" y="-400.8" font-family="Times,serif" font-size="14.00" fill="#000000">broadcast</text>
</g>
<!-- Map 33 -->
<g id="node6" class="node">
<title>Map 33</title>
<ellipse fill="none" stroke="#000000" cx="124.2166" cy="-642" rx="37.243" ry="18"/>
<text text-anchor="middle" x="124.2166" y="-637.8" font-family="Times,serif" font-size="14.00" fill="#000000">Map 33</text>
</g>
<!-- Map 33&#45;&gt;Reducer 34 -->
<g id="edge4" class="edge">
<title>Map 33&#45;&gt;Reducer 34</title>
<path fill="none" stroke="#000000" d="M126.7903,-623.9841C130.1768,-600.2784 136.1665,-558.3507 140.1642,-530.3667"/>
<polygon fill="#000000" stroke="#000000" points="143.6398,-530.7859 141.5893,-520.3914 136.7102,-529.7958 143.6398,-530.7859"/>
<text text-anchor="middle" x="149.3236" y="-594.8" font-family="Times,serif" font-size="14.00" fill="#000000">sorted</text>
</g>
<!-- Map 29 -->
<g id="node7" class="node">
<title>Map 29</title>
<ellipse fill="none" stroke="#000000" cx="555.2166" cy="-362" rx="37.243" ry="18"/>
<text text-anchor="middle" x="555.2166" y="-357.8" font-family="Times,serif" font-size="14.00" fill="#000000">Map 29</text>
</g>
<!-- Map 40 -->
<g id="node8" class="node">
<title>Map 40</title>
<ellipse fill="none" stroke="#000000" cx="428.2166" cy="-276" rx="37.243" ry="18"/>
<text text-anchor="middle" x="428.2166" y="-271.8" font-family="Times,serif" font-size="14.00" fill="#000000">Map 40</text>
</g>
<!-- Map 29&#45;&gt;Map 40 -->
<g id="edge5" class="edge">
<title>Map 29&#45;&gt;Map 40</title>
<path fill="none" stroke="#000000" d="M530.4884,-348.4923C519.0524,-342.0099 505.4112,-333.9389 493.575,-326 480.5905,-317.2908 466.7634,-306.8904 455.1869,-297.8364"/>
<polygon fill="#000000" stroke="#000000" points="457.2157,-294.9786 447.1995,-291.525 452.8758,-300.471 457.2157,-294.9786"/>
<text text-anchor="middle" x="520.0374" y="-314.8" font-family="Times,serif" font-size="14.00" fill="#000000">broadcast</text>
</g>
<!-- Map 26 -->
<g id="node19" class="node">
<title>Map 26</title>
<ellipse fill="none" stroke="#000000" cx="646.2166" cy="-276" rx="37.243" ry="18"/>
<text text-anchor="middle" x="646.2166" y="-271.8" font-family="Times,serif" font-size="14.00" fill="#000000">Map 26</text>
</g>
<!-- Map 29&#45;&gt;Map 26 -->
<g id="edge14" class="edge">
<title>Map 29&#45;&gt;Map 26</title>
<path fill="none" stroke="#000000" d="M585.6399,-351.4402C598.8583,-345.6162 613.6923,-337.2471 624.2166,-326 630.2053,-319.6 634.7373,-311.3042 638.0839,-303.3156"/>
<polygon fill="#000000" stroke="#000000" points="641.3907,-304.4646 641.5963,-293.8718 634.8298,-302.0244 641.3907,-304.4646"/>
<text text-anchor="middle" x="660.0374" y="-314.8" font-family="Times,serif" font-size="14.00" fill="#000000">broadcast</text>
</g>
<!-- Reducer 41 -->
<g id="node32" class="node">
<title>Reducer 41</title>
<ellipse fill="none" stroke="#000000" cx="428.2166" cy="-190" rx="50.7474" ry="18"/>
<text text-anchor="middle" x="428.2166" y="-185.8" font-family="Times,serif" font-size="14.00" fill="#000000">Reducer 41</text>
</g>
<!-- Map 40&#45;&gt;Reducer 41 -->
<g id="edge55" class="edge">
<title>Map 40&#45;&gt;Reducer 41</title>
<path fill="none" stroke="#000000" d="M428.2166,-257.7616C428.2166,-246.3597 428.2166,-231.4342 428.2166,-218.494"/>
<polygon fill="#000000" stroke="#000000" points="431.7167,-218.2121 428.2166,-208.2121 424.7167,-218.2121 431.7167,-218.2121"/>
<text text-anchor="middle" x="445.3236" y="-228.8" font-family="Times,serif" font-size="14.00" fill="#000000">sorted</text>
</g>
<!-- Map 30 -->
<g id="node9" class="node">
<title>Map 30</title>
<ellipse fill="none" stroke="#000000" cx="458.2166" cy="-362" rx="37.243" ry="18"/>
<text text-anchor="middle" x="458.2166" y="-357.8" font-family="Times,serif" font-size="14.00" fill="#000000">Map 30</text>
</g>
<!-- Map 30&#45;&gt;Map 40 -->
<g id="edge6" class="edge">
<title>Map 30&#45;&gt;Map 40</title>
<path fill="none" stroke="#000000" d="M434.6615,-347.5205C427.4857,-341.7886 420.4704,-334.5169 416.575,-326 413.3273,-318.8991 413.6659,-310.8025 415.5165,-303.2234"/>
<polygon fill="#000000" stroke="#000000" points="418.854,-304.278 418.6459,-293.6852 412.2028,-302.0958 418.854,-304.278"/>
<text text-anchor="middle" x="443.0374" y="-314.8" font-family="Times,serif" font-size="14.00" fill="#000000">broadcast</text>
</g>
<!-- Map 30&#45;&gt;Map 26 -->
<g id="edge15" class="edge">
<title>Map 30&#45;&gt;Map 26</title>
<path fill="none" stroke="#000000" d="M489.128,-351.594C506.6452,-345.1858 528.6937,-336.2458 547.2166,-326 556.5079,-320.8606 557.3888,-317.3249 566.575,-312 579.5682,-304.4683 594.4193,-297.3792 607.7493,-291.5163"/>
<polygon fill="#000000" stroke="#000000" points="609.3369,-294.6435 617.1385,-287.4752 606.5695,-288.2138 609.3369,-294.6435"/>
<text text-anchor="middle" x="593.0374" y="-314.8" font-family="Times,serif" font-size="14.00" fill="#000000">broadcast</text>
</g>
<!-- Map 17 -->
<g id="node10" class="node">
<title>Map 17</title>
<ellipse fill="none" stroke="#000000" cx="632.2166" cy="-642" rx="37.243" ry="18"/>
<text text-anchor="middle" x="632.2166" y="-637.8" font-family="Times,serif" font-size="14.00" fill="#000000">Map 17</text>
</g>
<!-- Reducer 18 -->
<g id="node11" class="node">
<title>Reducer 18</title>
<ellipse fill="none" stroke="#000000" cx="694.2166" cy="-556" rx="50.7474" ry="18"/>
<text text-anchor="middle" x="694.2166" y="-551.8" font-family="Times,serif" font-size="14.00" fill="#000000">Reducer 18</text>
</g>
<!-- Map 17&#45;&gt;Reducer 18 -->
<g id="edge7" class="edge">
<title>Map 17&#45;&gt;Reducer 18</title>
<path fill="none" stroke="#000000" d="M644.7632,-624.5966C653.6125,-612.3218 665.6162,-595.6716 675.5811,-581.8492"/>
<polygon fill="#000000" stroke="#000000" points="678.4669,-583.8313 681.4759,-573.6727 672.7887,-579.7376 678.4669,-583.8313"/>
<text text-anchor="middle" x="683.3236" y="-594.8" font-family="Times,serif" font-size="14.00" fill="#000000">sorted</text>
</g>
<!-- Reducer 19 -->
<g id="node22" class="node">
<title>Reducer 19</title>
<ellipse fill="none" stroke="#000000" cx="692.2166" cy="-448" rx="50.7474" ry="18"/>
<text text-anchor="middle" x="692.2166" y="-443.8" font-family="Times,serif" font-size="14.00" fill="#000000">Reducer 19</text>
</g>
<!-- Reducer 18&#45;&gt;Reducer 19 -->
<g id="edge18" class="edge">
<title>Reducer 18&#45;&gt;Reducer 19</title>
<path fill="none" stroke="#000000" d="M691.6593,-537.7221C690.9789,-532.0543 690.3398,-525.7794 690.0028,-520 689.1581,-505.5187 689.5334,-489.379 690.1965,-476.0567"/>
<polygon fill="#000000" stroke="#000000" points="693.6912,-476.2466 690.7722,-466.0619 686.7028,-475.844 693.6912,-476.2466"/>
<text text-anchor="middle" x="706.3236" y="-497.8" font-family="Times,serif" font-size="14.00" fill="#000000">sorted</text>
</g>
<!-- Map 12 -->
<g id="node12" class="node">
<title>Map 12</title>
<ellipse fill="none" stroke="#000000" cx="523.2166" cy="-814" rx="37.243" ry="18"/>
<text text-anchor="middle" x="523.2166" y="-809.8" font-family="Times,serif" font-size="14.00" fill="#000000">Map 12</text>
</g>
<!-- Map 12&#45;&gt;Map 36 -->
<g id="edge30" class="edge">
<title>Map 12&#45;&gt;Map 36</title>
<path fill="none" stroke="#000000" d="M486.7088,-809.9255C416.1792,-801.3849 264.6876,-779.5763 225.575,-746 201.5389,-725.3661 186.4073,-704.1977 204.2166,-678 214.437,-662.9657 232.0113,-654.21 249.0066,-649.1109"/>
<polygon fill="#000000" stroke="#000000" points="250.1061,-652.4408 258.8863,-646.5113 248.3248,-645.6712 250.1061,-652.4408"/>
<text text-anchor="middle" x="252.0374" y="-723.8" font-family="Times,serif" font-size="14.00" fill="#000000">broadcast</text>
</g>
<!-- Map 12&#45;&gt;Map 33 -->
<g id="edge39" class="edge">
<title>Map 12&#45;&gt;Map 33</title>
<path fill="none" stroke="#000000" d="M485.7507,-812.0429C372.044,-805.7035 36.8675,-783.9163 7.575,-746 -20.781,-709.2959 40.7518,-675.2345 84.7639,-656.6545"/>
<polygon fill="#000000" stroke="#000000" points="86.1993,-659.8488 94.1266,-652.8197 83.5461,-653.3711 86.1993,-659.8488"/>
<text text-anchor="middle" x="35.0374" y="-723.8" font-family="Times,serif" font-size="14.00" fill="#000000">broadcast</text>
</g>
<!-- Map 12&#45;&gt;Map 17 -->
<g id="edge42" class="edge">
<title>Map 12&#45;&gt;Map 17</title>
<path fill="none" stroke="#000000" d="M531.2533,-796.1133C541.0748,-774.9082 558.7274,-738.8138 577.575,-710 587.504,-694.8208 600.1021,-678.9612 610.6988,-666.3801"/>
<polygon fill="#000000" stroke="#000000" points="613.4892,-668.5021 617.3251,-658.626 608.1677,-663.9545 613.4892,-668.5021"/>
<text text-anchor="middle" x="604.0374" y="-723.8" font-family="Times,serif" font-size="14.00" fill="#000000">broadcast</text>
</g>
<!-- Reducer 15 -->
<g id="node13" class="node">
<title>Reducer 15</title>
<ellipse fill="none" stroke="#000000" cx="121.2166" cy="-728" rx="50.7474" ry="18"/>
<text text-anchor="middle" x="121.2166" y="-723.8" font-family="Times,serif" font-size="14.00" fill="#000000">Reducer 15</text>
</g>
<!-- Map 12&#45;&gt;Reducer 15 -->
<g id="edge8" class="edge">
<title>Map 12&#45;&gt;Reducer 15</title>
<path fill="none" stroke="#000000" d="M485.9393,-812.4877C396.218,-808.5603 173.6053,-797.0001 146.0028,-778 138.2328,-772.6516 132.7879,-764.1395 129.0233,-755.6437"/>
<polygon fill="#000000" stroke="#000000" points="132.2712,-754.3372 125.4527,-746.228 125.726,-756.8193 132.2712,-754.3372"/>
<text text-anchor="middle" x="170.3236" y="-766.8" font-family="Times,serif" font-size="14.00" fill="#000000">unsorted</text>
</g>
<!-- Reducer 14 -->
<g id="node14" class="node">
<title>Reducer 14</title>
<ellipse fill="none" stroke="#000000" cx="691.2166" cy="-728" rx="50.7474" ry="18"/>
<text text-anchor="middle" x="691.2166" y="-723.8" font-family="Times,serif" font-size="14.00" fill="#000000">Reducer 14</text>
</g>
<!-- Map 12&#45;&gt;Reducer 14 -->
<g id="edge9" class="edge">
<title>Map 12&#45;&gt;Reducer 14</title>
<path fill="none" stroke="#000000" d="M549.0984,-800.751C576.9109,-786.5137 621.3961,-763.7415 653.1868,-747.4676"/>
<polygon fill="#000000" stroke="#000000" points="654.8953,-750.5251 662.2019,-742.8528 651.7055,-744.294 654.8953,-750.5251"/>
<text text-anchor="middle" x="641.3236" y="-766.8" font-family="Times,serif" font-size="14.00" fill="#000000">unsorted</text>
</g>
<!-- Reducer 16 -->
<g id="node15" class="node">
<title>Reducer 16</title>
<ellipse fill="none" stroke="#000000" cx="339.2166" cy="-728" rx="50.7474" ry="18"/>
<text text-anchor="middle" x="339.2166" y="-723.8" font-family="Times,serif" font-size="14.00" fill="#000000">Reducer 16</text>
</g>
<!-- Map 12&#45;&gt;Reducer 16 -->
<g id="edge10" class="edge">
<title>Map 12&#45;&gt;Reducer 16</title>
<path fill="none" stroke="#000000" d="M496.0668,-801.3104C465.2335,-786.8992 414.6273,-763.2463 379.2608,-746.7163"/>
<polygon fill="#000000" stroke="#000000" points="380.711,-743.5307 370.1697,-742.4672 377.747,-749.8723 380.711,-743.5307"/>
<text text-anchor="middle" x="466.3236" y="-766.8" font-family="Times,serif" font-size="14.00" fill="#000000">unsorted</text>
</g>
<!-- Reducer 13 -->
<g id="node18" class="node">
<title>Reducer 13</title>
<ellipse fill="none" stroke="#000000" cx="900.2166" cy="-728" rx="50.7474" ry="18"/>
<text text-anchor="middle" x="900.2166" y="-723.8" font-family="Times,serif" font-size="14.00" fill="#000000">Reducer 13</text>
</g>
<!-- Map 12&#45;&gt;Reducer 13 -->
<g id="edge12" class="edge">
<title>Map 12&#45;&gt;Reducer 13</title>
<path fill="none" stroke="#000000" d="M560.4896,-812.5398C613.0954,-809.691 711.6905,-801.4445 792.2166,-778 817.1616,-770.7375 843.6575,-758.5465 864.1626,-748.0206"/>
<polygon fill="#000000" stroke="#000000" points="865.8978,-751.063 873.1352,-743.3253 862.6522,-744.8608 865.8978,-751.063"/>
<text text-anchor="middle" x="852.3236" y="-766.8" font-family="Times,serif" font-size="14.00" fill="#000000">unsorted</text>
</g>
<!-- Map 20 -->
<g id="node20" class="node">
<title>Map 20</title>
<ellipse fill="none" stroke="#000000" cx="555.2166" cy="-448" rx="37.243" ry="18"/>
<text text-anchor="middle" x="555.2166" y="-443.8" font-family="Times,serif" font-size="14.00" fill="#000000">Map 20</text>
</g>
<!-- Map 12&#45;&gt;Map 20 -->
<g id="edge16" class="edge">
<title>Map 12&#45;&gt;Map 20</title>
<path fill="none" stroke="#000000" d="M523.2166,-795.8801C523.2166,-778.4759 523.2166,-751.441 523.2166,-728 523.2166,-728 523.2166,-728 523.2166,-556 523.2166,-527.6381 533.4872,-496.7487 542.3911,-475.2986"/>
<polygon fill="#000000" stroke="#000000" points="545.7139,-476.4328 546.4725,-465.8651 539.2894,-473.6532 545.7139,-476.4328"/>
<text text-anchor="middle" x="550.0374" y="-637.8" font-family="Times,serif" font-size="14.00" fill="#000000">broadcast</text>
</g>
<!-- Map 5 -->
<g id="node23" class="node">
<title>Map 5</title>
<ellipse fill="none" stroke="#000000" cx="778.2166" cy="-642" rx="32.8992" ry="18"/>
<text text-anchor="middle" x="778.2166" y="-637.8" font-family="Times,serif" font-size="14.00" fill="#000000">Map 5</text>
</g>
<!-- Map 12&#45;&gt;Map 5 -->
<g id="edge45" class="edge">
<title>Map 12&#45;&gt;Map 5</title>
<path fill="none" stroke="#000000" d="M558.8492,-808.0528C616.3187,-797.7252 725.6345,-774.7958 751.2166,-746 769.7197,-725.1725 775.8231,-693.2504 777.697,-670.2671"/>
<polygon fill="#000000" stroke="#000000" points="781.2018,-670.2898 778.3016,-660.0997 774.2141,-669.8743 781.2018,-670.2898"/>
<text text-anchor="middle" x="796.0374" y="-723.8" font-family="Times,serif" font-size="14.00" fill="#000000">broadcast</text>
</g>
<!-- Reducer 15&#45;&gt;Map 33 -->
<g id="edge40" class="edge">
<title>Reducer 15&#45;&gt;Map 33</title>
<path fill="none" stroke="#000000" d="M121.6269,-709.9457C121.8633,-700.439 122.1898,-688.5872 122.575,-678 122.6633,-675.5733 122.7626,-673.0549 122.8674,-670.5285"/>
<polygon fill="#000000" stroke="#000000" points="126.3739,-670.4555 123.3163,-660.3114 119.3807,-670.1481 126.3739,-670.4555"/>
<text text-anchor="middle" x="150.0374" y="-680.8" font-family="Times,serif" font-size="14.00" fill="#000000">broadcast</text>
</g>
<!-- Reducer 14&#45;&gt;Map 17 -->
<g id="edge43" class="edge">
<title>Reducer 14&#45;&gt;Map 17</title>
<path fill="none" stroke="#000000" d="M657.4986,-714.3836C648.1232,-708.8782 639.0256,-701.5232 633.575,-692 629.8808,-685.5456 628.5063,-677.814 628.3128,-670.382"/>
<polygon fill="#000000" stroke="#000000" points="631.8159,-670.3679 628.707,-660.2395 624.8212,-670.096 631.8159,-670.3679"/>
<text text-anchor="middle" x="660.0374" y="-680.8" font-family="Times,serif" font-size="14.00" fill="#000000">broadcast</text>
</g>
<!-- Reducer 16&#45;&gt;Map 36 -->
<g id="edge31" class="edge">
<title>Reducer 16&#45;&gt;Map 36</title>
<path fill="none" stroke="#000000" d="M317.2773,-711.7519C311.236,-706.1666 305.3211,-699.4281 301.575,-692 298.2541,-685.415 296.4307,-677.7464 295.4787,-670.4216"/>
<polygon fill="#000000" stroke="#000000" points="298.9657,-670.119 294.6478,-660.444 291.9899,-670.7 298.9657,-670.119"/>
<text text-anchor="middle" x="328.0374" y="-680.8" font-family="Times,serif" font-size="14.00" fill="#000000">broadcast</text>
</g>
<!-- Reducer 9 -->
<g id="node16" class="node">
<title>Reducer 9</title>
<ellipse fill="none" stroke="#000000" cx="939.2166" cy="-190" rx="46.4045" ry="18"/>
<text text-anchor="middle" x="939.2166" y="-185.8" font-family="Times,serif" font-size="14.00" fill="#000000">Reducer 9</text>
</g>
<!-- Reducer 10 -->
<g id="node17" class="node">
<title>Reducer 10</title>
<ellipse fill="none" stroke="#000000" cx="1061.2166" cy="-104" rx="50.7474" ry="18"/>
<text text-anchor="middle" x="1061.2166" y="-99.8" font-family="Times,serif" font-size="14.00" fill="#000000">Reducer 10</text>
</g>
<!-- Reducer 9&#45;&gt;Reducer 10 -->
<g id="edge11" class="edge">
<title>Reducer 9&#45;&gt;Reducer 10</title>
<path fill="none" stroke="#000000" d="M961.5933,-174.2263C980.6986,-160.7586 1008.3909,-141.2378 1029.7324,-126.1938"/>
<polygon fill="#000000" stroke="#000000" points="1031.996,-128.8804 1038.1528,-120.2581 1027.9629,-123.159 1031.996,-128.8804"/>
<text text-anchor="middle" x="1031.3236" y="-142.8" font-family="Times,serif" font-size="14.00" fill="#000000">unsorted</text>
</g>
<!-- Map 1 -->
<g id="node39" class="node">
<title>Map 1</title>
<ellipse fill="none" stroke="#000000" cx="825.2166" cy="-18" rx="32.8992" ry="18"/>
<text text-anchor="middle" x="825.2166" y="-13.8" font-family="Times,serif" font-size="14.00" fill="#000000">Map 1</text>
</g>
<!-- Reducer 9&#45;&gt;Map 1 -->
<g id="edge51" class="edge">
<title>Reducer 9&#45;&gt;Map 1</title>
<path fill="none" stroke="#000000" d="M939.9933,-171.9139C940.2403,-143.5433 936.6771,-88.2853 908.2166,-54 897.5182,-41.112 881.3303,-32.7145 866.0828,-27.3026"/>
<polygon fill="#000000" stroke="#000000" points="866.8569,-23.8755 856.2659,-24.1602 864.7228,-30.5423 866.8569,-23.8755"/>
<text text-anchor="middle" x="962.0374" y="-99.8" font-family="Times,serif" font-size="14.00" fill="#000000">broadcast</text>
</g>
<!-- Reducer 10&#45;&gt;Map 1 -->
<g id="edge48" class="edge">
<title>Reducer 10&#45;&gt;Map 1</title>
<path fill="none" stroke="#000000" d="M1032.4137,-89.1338C1010.9576,-78.4392 980.7385,-64.1673 953.2166,-54 924.4785,-43.3834 891.1362,-34.0992 865.6871,-27.6193"/>
<polygon fill="#000000" stroke="#000000" points="866.2012,-24.1399 855.6503,-25.1044 864.4998,-30.93 866.2012,-24.1399"/>
<text text-anchor="middle" x="1013.0374" y="-56.8" font-family="Times,serif" font-size="14.00" fill="#000000">broadcast</text>
</g>
<!-- Reducer 13&#45;&gt;Map 5 -->
<g id="edge46" class="edge">
<title>Reducer 13&#45;&gt;Map 5</title>
<path fill="none" stroke="#000000" d="M877.2694,-711.8241C857.371,-697.7973 828.478,-677.4301 807.0275,-662.3093"/>
<polygon fill="#000000" stroke="#000000" points="808.8181,-659.2893 798.6281,-656.3884 804.7849,-665.0107 808.8181,-659.2893"/>
<text text-anchor="middle" x="873.0374" y="-680.8" font-family="Times,serif" font-size="14.00" fill="#000000">broadcast</text>
</g>
<!-- Reducer 27 -->
<g id="node30" class="node">
<title>Reducer 27</title>
<ellipse fill="none" stroke="#000000" cx="646.2166" cy="-190" rx="50.7474" ry="18"/>
<text text-anchor="middle" x="646.2166" y="-185.8" font-family="Times,serif" font-size="14.00" fill="#000000">Reducer 27</text>
</g>
<!-- Map 26&#45;&gt;Reducer 27 -->
<g id="edge26" class="edge">
<title>Map 26&#45;&gt;Reducer 27</title>
<path fill="none" stroke="#000000" d="M646.2166,-257.7616C646.2166,-246.3597 646.2166,-231.4342 646.2166,-218.494"/>
<polygon fill="#000000" stroke="#000000" points="649.7167,-218.2121 646.2166,-208.2121 642.7167,-218.2121 649.7167,-218.2121"/>
<text text-anchor="middle" x="663.3236" y="-228.8" font-family="Times,serif" font-size="14.00" fill="#000000">sorted</text>
</g>
<!-- Reducer 21 -->
<g id="node25" class="node">
<title>Reducer 21</title>
<ellipse fill="none" stroke="#000000" cx="663.2166" cy="-362" rx="50.7474" ry="18"/>
<text text-anchor="middle" x="663.2166" y="-357.8" font-family="Times,serif" font-size="14.00" fill="#000000">Reducer 21</text>
</g>
<!-- Map 20&#45;&gt;Reducer 21 -->
<g id="edge20" class="edge">
<title>Map 20&#45;&gt;Reducer 21</title>
<path fill="none" stroke="#000000" d="M574.7746,-432.426C591.4011,-419.1864 615.5041,-399.9933 634.3501,-384.9863"/>
<polygon fill="#000000" stroke="#000000" points="636.6876,-387.5991 642.3301,-378.6318 632.3271,-382.1231 636.6876,-387.5991"/>
<text text-anchor="middle" x="632.3236" y="-400.8" font-family="Times,serif" font-size="14.00" fill="#000000">sorted</text>
</g>
<!-- Reducer 22 -->
<g id="node26" class="node">
<title>Reducer 22</title>
<ellipse fill="none" stroke="#000000" cx="345.2166" cy="-362" rx="50.7474" ry="18"/>
<text text-anchor="middle" x="345.2166" y="-357.8" font-family="Times,serif" font-size="14.00" fill="#000000">Reducer 22</text>
</g>
<!-- Map 20&#45;&gt;Reducer 22 -->
<g id="edge21" class="edge">
<title>Map 20&#45;&gt;Reducer 22</title>
<path fill="none" stroke="#000000" d="M526.4573,-436.2224C490.6078,-421.5411 429.0324,-396.3246 387.7308,-379.4106"/>
<polygon fill="#000000" stroke="#000000" points="389.0505,-376.1689 378.47,-375.6181 386.3976,-382.6468 389.0505,-376.1689"/>
<text text-anchor="middle" x="479.3236" y="-400.8" font-family="Times,serif" font-size="14.00" fill="#000000">sorted</text>
</g>
<!-- Map 39 -->
<g id="node21" class="node">
<title>Map 39</title>
<ellipse fill="none" stroke="#000000" cx="588.2166" cy="-556" rx="37.243" ry="18"/>
<text text-anchor="middle" x="588.2166" y="-551.8" font-family="Times,serif" font-size="14.00" fill="#000000">Map 39</text>
</g>
<!-- Map 39&#45;&gt;Map 20 -->
<g id="edge17" class="edge">
<title>Map 39&#45;&gt;Map 20</title>
<path fill="none" stroke="#000000" d="M582.7673,-538.166C577.5606,-521.1257 569.6367,-495.1929 563.6212,-475.506"/>
<polygon fill="#000000" stroke="#000000" points="566.9435,-474.4012 560.674,-465.8605 560.249,-476.4468 566.9435,-474.4012"/>
<text text-anchor="middle" x="603.0374" y="-497.8" font-family="Times,serif" font-size="14.00" fill="#000000">broadcast</text>
</g>
<!-- Reducer 7 -->
<g id="node40" class="node">
<title>Reducer 7</title>
<ellipse fill="none" stroke="#000000" cx="779.2166" cy="-362" rx="46.4045" ry="18"/>
<text text-anchor="middle" x="779.2166" y="-357.8" font-family="Times,serif" font-size="14.00" fill="#000000">Reducer 7</text>
</g>
<!-- Reducer 19&#45;&gt;Reducer 7 -->
<g id="edge53" class="edge">
<title>Reducer 19&#45;&gt;Reducer 7</title>
<path fill="none" stroke="#000000" d="M695.9663,-429.6854C698.8294,-419.4139 703.669,-406.9139 711.575,-398 718.3278,-390.3864 727.085,-384.1084 736.0457,-379.0476"/>
<polygon fill="#000000" stroke="#000000" points="737.7496,-382.1066 745.0075,-374.3882 734.5204,-375.8959 737.7496,-382.1066"/>
<text text-anchor="middle" x="738.0374" y="-400.8" font-family="Times,serif" font-size="14.00" fill="#000000">broadcast</text>
</g>
<!-- Reducer 6 -->
<g id="node24" class="node">
<title>Reducer 6</title>
<ellipse fill="none" stroke="#000000" cx="779.2166" cy="-502" rx="46.4045" ry="18"/>
<text text-anchor="middle" x="779.2166" y="-497.8" font-family="Times,serif" font-size="14.00" fill="#000000">Reducer 6</text>
</g>
<!-- Map 5&#45;&gt;Reducer 6 -->
<g id="edge19" class="edge">
<title>Map 5&#45;&gt;Reducer 6</title>
<path fill="none" stroke="#000000" d="M778.3453,-623.9841C778.5139,-600.3829 778.8115,-558.7198 779.0114,-530.7374"/>
<polygon fill="#000000" stroke="#000000" points="782.5136,-530.4161 779.0853,-520.3914 775.5138,-530.3661 782.5136,-530.4161"/>
<text text-anchor="middle" x="795.3236" y="-594.8" font-family="Times,serif" font-size="14.00" fill="#000000">sorted</text>
</g>
<!-- Reducer 6&#45;&gt;Reducer 7 -->
<g id="edge54" class="edge">
<title>Reducer 6&#45;&gt;Reducer 7</title>
<path fill="none" stroke="#000000" d="M779.2166,-483.9841C779.2166,-460.3829 779.2166,-418.7198 779.2166,-390.7374"/>
<polygon fill="#000000" stroke="#000000" points="782.7167,-390.3913 779.2166,-380.3914 775.7167,-390.3914 782.7167,-390.3913"/>
<text text-anchor="middle" x="796.3236" y="-443.8" font-family="Times,serif" font-size="14.00" fill="#000000">sorted</text>
</g>
<!-- Reducer 8 -->
<g id="node42" class="node">
<title>Reducer 8</title>
<ellipse fill="none" stroke="#000000" cx="779.2166" cy="-276" rx="46.4045" ry="18"/>
<text text-anchor="middle" x="779.2166" y="-271.8" font-family="Times,serif" font-size="14.00" fill="#000000">Reducer 8</text>
</g>
<!-- Reducer 21&#45;&gt;Reducer 8 -->
<g id="edge58" class="edge">
<title>Reducer 21&#45;&gt;Reducer 8</title>
<path fill="none" stroke="#000000" d="M685.3084,-345.6216C703.4841,-332.1465 729.4162,-312.921 749.4264,-298.0858"/>
<polygon fill="#000000" stroke="#000000" points="751.6511,-300.7935 757.5998,-292.0263 747.4822,-295.1703 751.6511,-300.7935"/>
<text text-anchor="middle" x="742.3787" y="-314.8" font-family="Times,serif" font-size="14.00" fill="#000000">None</text>
</g>
<!-- Reducer 22&#45;&gt;Reducer 23 -->
<g id="edge22" class="edge">
<title>Reducer 22&#45;&gt;Reducer 23</title>
<path fill="none" stroke="#000000" d="M315.4769,-347.2161C286.5484,-332.8355 242.4559,-310.9166 210.8314,-295.1958"/>
<polygon fill="#000000" stroke="#000000" points="212.3699,-292.052 201.8573,-290.7347 209.2539,-298.3202 212.3699,-292.052"/>
<text text-anchor="middle" x="283.3787" y="-314.8" font-family="Times,serif" font-size="14.00" fill="#000000">None</text>
</g>
<!-- Reducer 24 -->
<g id="node28" class="node">
<title>Reducer 24</title>
<ellipse fill="none" stroke="#000000" cx="163.2166" cy="-190" rx="50.7474" ry="18"/>
<text text-anchor="middle" x="163.2166" y="-185.8" font-family="Times,serif" font-size="14.00" fill="#000000">Reducer 24</text>
</g>
<!-- Reducer 23&#45;&gt;Reducer 24 -->
<g id="edge24" class="edge">
<title>Reducer 23&#45;&gt;Reducer 24</title>
<path fill="none" stroke="#000000" d="M170.308,-257.7616C169.1147,-246.3597 167.5528,-231.4342 166.1985,-218.494"/>
<polygon fill="#000000" stroke="#000000" points="169.6444,-217.7935 165.1225,-208.2121 162.6825,-218.5221 169.6444,-217.7935"/>
<text text-anchor="middle" x="185.3236" y="-228.8" font-family="Times,serif" font-size="14.00" fill="#000000">sorted</text>
</g>
<!-- Reducer 25 -->
<g id="node29" class="node">
<title>Reducer 25</title>
<ellipse fill="none" stroke="#000000" cx="163.2166" cy="-104" rx="50.7474" ry="18"/>
<text text-anchor="middle" x="163.2166" y="-99.8" font-family="Times,serif" font-size="14.00" fill="#000000">Reducer 25</text>
</g>
<!-- Reducer 24&#45;&gt;Reducer 25 -->
<g id="edge25" class="edge">
<title>Reducer 24&#45;&gt;Reducer 25</title>
<path fill="none" stroke="#000000" d="M163.2166,-171.7616C163.2166,-160.3597 163.2166,-145.4342 163.2166,-132.494"/>
<polygon fill="#000000" stroke="#000000" points="166.7167,-132.2121 163.2166,-122.2121 159.7167,-132.2121 166.7167,-132.2121"/>
<text text-anchor="middle" x="187.3236" y="-142.8" font-family="Times,serif" font-size="14.00" fill="#000000">unsorted</text>
</g>
<!-- Map 31 -->
<g id="node36" class="node">
<title>Map 31</title>
<ellipse fill="none" stroke="#000000" cx="305.2166" cy="-18" rx="37.243" ry="18"/>
<text text-anchor="middle" x="305.2166" y="-13.8" font-family="Times,serif" font-size="14.00" fill="#000000">Map 31</text>
</g>
<!-- Reducer 24&#45;&gt;Map 31 -->
<g id="edge33" class="edge">
<title>Reducer 24&#45;&gt;Map 31</title>
<path fill="none" stroke="#000000" d="M128.4545,-176.8116C85.3582,-158.4793 20.8867,-123.3169 49.575,-86 74.8824,-53.0809 191.9861,-32.7393 258.5783,-23.6313"/>
<polygon fill="#000000" stroke="#000000" points="259.3614,-27.0579 268.8105,-22.2658 258.4353,-20.1195 259.3614,-27.0579"/>
<text text-anchor="middle" x="77.0374" y="-99.8" font-family="Times,serif" font-size="14.00" fill="#000000">broadcast</text>
</g>
<!-- Reducer 25&#45;&gt;Map 31 -->
<g id="edge34" class="edge">
<title>Reducer 25&#45;&gt;Map 31</title>
<path fill="none" stroke="#000000" d="M177.2677,-86.3939C186.4159,-75.8576 199.1182,-62.8404 212.575,-54 227.7425,-44.0357 246.0835,-36.1826 262.4306,-30.3877"/>
<polygon fill="#000000" stroke="#000000" points="263.9553,-33.5668 272.3051,-27.0451 261.7108,-26.9364 263.9553,-33.5668"/>
<text text-anchor="middle" x="239.0374" y="-56.8" font-family="Times,serif" font-size="14.00" fill="#000000">broadcast</text>
</g>
<!-- Reducer 28 -->
<g id="node31" class="node">
<title>Reducer 28</title>
<ellipse fill="none" stroke="#000000" cx="768.2166" cy="-104" rx="50.7474" ry="18"/>
<text text-anchor="middle" x="768.2166" y="-99.8" font-family="Times,serif" font-size="14.00" fill="#000000">Reducer 28</text>
</g>
<!-- Reducer 27&#45;&gt;Reducer 28 -->
<g id="edge27" class="edge">
<title>Reducer 27&#45;&gt;Reducer 28</title>
<path fill="none" stroke="#000000" d="M669.1639,-173.8241C688.3343,-160.3105 715.8532,-140.9119 737.0224,-125.9894"/>
<polygon fill="#000000" stroke="#000000" points="739.2154,-128.7257 745.3722,-120.1034 735.1823,-123.0043 739.2154,-128.7257"/>
<text text-anchor="middle" x="738.3236" y="-142.8" font-family="Times,serif" font-size="14.00" fill="#000000">unsorted</text>
</g>
<!-- Reducer 27&#45;&gt;Map 1 -->
<g id="edge49" class="edge">
<title>Reducer 27&#45;&gt;Map 1</title>
<path fill="none" stroke="#000000" d="M642.3493,-171.8527C638.6592,-149.3969 636.0718,-111.0661 654.575,-86 684.5429,-45.4029 742.6535,-29.0128 782.6703,-22.415"/>
<polygon fill="#000000" stroke="#000000" points="783.3127,-25.8577 792.6787,-20.905 782.2684,-18.936 783.3127,-25.8577"/>
<text text-anchor="middle" x="681.0374" y="-99.8" font-family="Times,serif" font-size="14.00" fill="#000000">broadcast</text>
</g>
<!-- Reducer 28&#45;&gt;Map 1 -->
<g id="edge50" class="edge">
<title>Reducer 28&#45;&gt;Map 1</title>
<path fill="none" stroke="#000000" d="M772.6235,-85.9224C775.5801,-75.9695 780.1282,-63.7054 786.575,-54 789.89,-49.0094 794.0303,-44.221 798.3586,-39.8568"/>
<polygon fill="#000000" stroke="#000000" points="800.8166,-42.3499 805.7078,-32.9517 796.0233,-37.2484 800.8166,-42.3499"/>
<text text-anchor="middle" x="813.0374" y="-56.8" font-family="Times,serif" font-size="14.00" fill="#000000">broadcast</text>
</g>
<!-- Reducer 42 -->
<g id="node33" class="node">
<title>Reducer 42</title>
<ellipse fill="none" stroke="#000000" cx="464.2166" cy="-104" rx="50.7474" ry="18"/>
<text text-anchor="middle" x="464.2166" y="-99.8" font-family="Times,serif" font-size="14.00" fill="#000000">Reducer 42</text>
</g>
<!-- Reducer 41&#45;&gt;Reducer 42 -->
<g id="edge28" class="edge">
<title>Reducer 41&#45;&gt;Reducer 42</title>
<path fill="none" stroke="#000000" d="M435.6758,-172.1807C440.6145,-160.383 447.1876,-144.6805 452.7809,-131.3187"/>
<polygon fill="#000000" stroke="#000000" points="456.0102,-132.6682 456.6431,-122.0923 449.5531,-129.9652 456.0102,-132.6682"/>
<text text-anchor="middle" x="472.3236" y="-142.8" font-family="Times,serif" font-size="14.00" fill="#000000">unsorted</text>
</g>
<!-- Reducer 41&#45;&gt;Map 31 -->
<g id="edge35" class="edge">
<title>Reducer 41&#45;&gt;Map 31</title>
<path fill="none" stroke="#000000" d="M403.7303,-173.9171C386.6548,-161.558 364.5175,-143.0694 350.575,-122 333.0184,-95.469 341.8565,-82.7417 328.2166,-54 326.5949,-50.5828 324.7065,-47.0983 322.7221,-43.7091"/>
<polygon fill="#000000" stroke="#000000" points="325.6087,-41.7229 317.362,-35.0714 319.6609,-45.4138 325.6087,-41.7229"/>
<text text-anchor="middle" x="377.0374" y="-99.8" font-family="Times,serif" font-size="14.00" fill="#000000">broadcast</text>
</g>
<!-- Reducer 42&#45;&gt;Map 31 -->
<g id="edge36" class="edge">
<title>Reducer 42&#45;&gt;Map 31</title>
<path fill="none" stroke="#000000" d="M436.1566,-88.8229C409.0464,-74.1595 367.9504,-51.9315 339.0446,-36.2969"/>
<polygon fill="#000000" stroke="#000000" points="340.5821,-33.1494 330.1211,-31.4704 337.2518,-39.3064 340.5821,-33.1494"/>
<text text-anchor="middle" x="421.0374" y="-56.8" font-family="Times,serif" font-size="14.00" fill="#000000">broadcast</text>
</g>
<!-- Map 11 -->
<g id="node34" class="node">
<title>Map 11</title>
<ellipse fill="none" stroke="#000000" cx="449.2166" cy="-728" rx="37.0949" ry="18"/>
<text text-anchor="middle" x="449.2166" y="-723.8" font-family="Times,serif" font-size="14.00" fill="#000000">Map 11</text>
</g>
<!-- Map 11&#45;&gt;Map 36 -->
<g id="edge29" class="edge">
<title>Map 11&#45;&gt;Map 36</title>
<path fill="none" stroke="#000000" d="M422.823,-715.0907C409.4496,-708.4134 393.0247,-700.003 378.575,-692 377.9,-691.6262 350.769,-675.348 327.6426,-661.4668"/>
<polygon fill="#000000" stroke="#000000" points="329.414,-658.448 319.0388,-656.3023 325.8114,-664.4498 329.414,-658.448"/>
<text text-anchor="middle" x="405.0374" y="-680.8" font-family="Times,serif" font-size="14.00" fill="#000000">broadcast</text>
</g>
<!-- Map 11&#45;&gt;Map 33 -->
<g id="edge38" class="edge">
<title>Map 11&#45;&gt;Map 33</title>
<path fill="none" stroke="#000000" d="M420.7431,-716.4529C413.7946,-713.9978 406.3155,-711.6515 399.2166,-710 329.2421,-693.7214 307.9686,-710.6 238.575,-692 210.5552,-684.4897 180.567,-671.1606 158.3319,-660.1525"/>
<polygon fill="#000000" stroke="#000000" points="159.8105,-656.9783 149.3056,-655.6005 156.6585,-663.2285 159.8105,-656.9783"/>
<text text-anchor="middle" x="265.0374" y="-680.8" font-family="Times,serif" font-size="14.00" fill="#000000">broadcast</text>
</g>
<!-- Map 11&#45;&gt;Map 17 -->
<g id="edge41" class="edge">
<title>Map 11&#45;&gt;Map 17</title>
<path fill="none" stroke="#000000" d="M462.5915,-711.1494C472.2691,-700.0875 486.2897,-686.1986 501.575,-678 533.5543,-660.8472 546.3487,-670.0561 581.2166,-660 585.0156,-658.9043 588.9447,-657.6821 592.8584,-656.4046"/>
<polygon fill="#000000" stroke="#000000" points="594.1188,-659.6732 602.4718,-653.1557 591.8776,-653.0416 594.1188,-659.6732"/>
<text text-anchor="middle" x="528.0374" y="-680.8" font-family="Times,serif" font-size="14.00" fill="#000000">broadcast</text>
</g>
<!-- Map 11&#45;&gt;Map 5 -->
<g id="edge44" class="edge">
<title>Map 11&#45;&gt;Map 5</title>
<path fill="none" stroke="#000000" d="M483.6084,-721.2155C502.3679,-717.6328 526.0228,-713.3064 547.2166,-710 609.2013,-700.33 627.9471,-712.5604 687.2166,-692 698.6515,-688.0333 700.0387,-683.9562 710.575,-678 721.7937,-671.658 734.208,-664.9607 745.3065,-659.0851"/>
<polygon fill="#000000" stroke="#000000" points="747.0466,-662.1244 754.2646,-654.3687 743.7855,-655.9304 747.0466,-662.1244"/>
<text text-anchor="middle" x="737.0374" y="-680.8" font-family="Times,serif" font-size="14.00" fill="#000000">broadcast</text>
</g>
<!-- Map 32 -->
<g id="node35" class="node">
<title>Map 32</title>
<ellipse fill="none" stroke="#000000" cx="269.2166" cy="-104" rx="37.243" ry="18"/>
<text text-anchor="middle" x="269.2166" y="-99.8" font-family="Times,serif" font-size="14.00" fill="#000000">Map 32</text>
</g>
<!-- Map 32&#45;&gt;Map 31 -->
<g id="edge32" class="edge">
<title>Map 32&#45;&gt;Map 31</title>
<path fill="none" stroke="#000000" d="M268.6116,-85.7612C268.9092,-75.9874 270.3,-63.9457 274.575,-54 276.3739,-49.8151 278.8329,-45.7527 281.5814,-41.9564"/>
<polygon fill="#000000" stroke="#000000" points="284.3475,-44.1021 287.9165,-34.1265 278.9056,-39.6991 284.3475,-44.1021"/>
<text text-anchor="middle" x="301.0374" y="-56.8" font-family="Times,serif" font-size="14.00" fill="#000000">broadcast</text>
</g>
<!-- Union 2 -->
<g id="node37" class="node">
<title>Union 2</title>
<ellipse fill="none" stroke="#000000" cx="571.2166" cy="-104" rx="38.6968" ry="18"/>
<text text-anchor="middle" x="571.2166" y="-99.8" font-family="Times,serif" font-size="14.00" fill="#000000">Union 2</text>
</g>
<!-- Union 2&#45;&gt;Map 31 -->
<g id="edge37" class="edge">
<title>Union 2&#45;&gt;Map 31</title>
<path fill="none" stroke="#000000" d="M543.7972,-91.0211C519.9762,-80.1003 484.3478,-64.6113 452.2166,-54 418.4045,-42.8336 379.1955,-33.401 349.7792,-26.9958"/>
<polygon fill="#000000" stroke="#000000" points="350.3191,-23.5321 339.8077,-24.8586 348.8521,-30.3766 350.3191,-23.5321"/>
<text text-anchor="middle" x="503.3787" y="-56.8" font-family="Times,serif" font-size="14.00" fill="#000000">None</text>
</g>
<!-- Union 2&#45;&gt;Map 1 -->
<g id="edge52" class="edge">
<title>Union 2&#45;&gt;Map 1</title>
<path fill="none" stroke="#000000" d="M577.7517,-85.9308C582.6808,-74.9376 590.5541,-61.5943 601.8924,-54 630.6899,-34.7117 725.9479,-24.9071 782.3256,-20.6781"/>
<polygon fill="#000000" stroke="#000000" points="782.6535,-24.1637 792.3753,-19.9523 782.1492,-17.1818 782.6535,-24.1637"/>
<text text-anchor="middle" x="616.3787" y="-56.8" font-family="Times,serif" font-size="14.00" fill="#000000">None</text>
</g>
<!-- Reducer 3 -->
<g id="node41" class="node">
<title>Reducer 3</title>
<ellipse fill="none" stroke="#000000" cx="544.2166" cy="-18" rx="46.4045" ry="18"/>
<text text-anchor="middle" x="544.2166" y="-13.8" font-family="Times,serif" font-size="14.00" fill="#000000">Reducer 3</text>
</g>
<!-- Union 2&#45;&gt;Reducer 3 -->
<g id="edge56" class="edge">
<title>Union 2&#45;&gt;Reducer 3</title>
<path fill="none" stroke="#000000" d="M555.7778,-87.2774C551.4527,-81.5774 547.3064,-74.8927 545.0028,-68 542.71,-61.1401 541.8263,-53.4496 541.6774,-46.1957"/>
<polygon fill="#000000" stroke="#000000" points="545.1802,-46.1042 541.9063,-36.0279 538.182,-45.9465 545.1802,-46.1042"/>
<text text-anchor="middle" x="561.3236" y="-56.8" font-family="Times,serif" font-size="14.00" fill="#000000">sorted</text>
</g>
<!-- Map 4 -->
<g id="node38" class="node">
<title>Map 4</title>
<ellipse fill="none" stroke="#000000" cx="870.2166" cy="-104" rx="32.8992" ry="18"/>
<text text-anchor="middle" x="870.2166" y="-99.8" font-family="Times,serif" font-size="14.00" fill="#000000">Map 4</text>
</g>
<!-- Map 4&#45;&gt;Map 1 -->
<g id="edge47" class="edge">
<title>Map 4&#45;&gt;Map 1</title>
<path fill="none" stroke="#000000" d="M861.1102,-86.5966C854.7668,-74.4736 846.1902,-58.0829 839.0115,-44.3635"/>
<polygon fill="#000000" stroke="#000000" points="842.0469,-42.6151 834.3095,-35.3775 835.8446,-45.8605 842.0469,-42.6151"/>
<text text-anchor="middle" x="877.0374" y="-56.8" font-family="Times,serif" font-size="14.00" fill="#000000">broadcast</text>
</g>
<!-- Reducer 7&#45;&gt;Reducer 8 -->
<g id="edge59" class="edge">
<title>Reducer 7&#45;&gt;Reducer 8</title>
<path fill="none" stroke="#000000" d="M779.2166,-343.7616C779.2166,-332.3597 779.2166,-317.4342 779.2166,-304.494"/>
<polygon fill="#000000" stroke="#000000" points="782.7167,-304.2121 779.2166,-294.2121 775.7167,-304.2121 782.7167,-304.2121"/>
<text text-anchor="middle" x="794.3787" y="-314.8" font-family="Times,serif" font-size="14.00" fill="#000000">None</text>
</g>
<!-- Reducer 8&#45;&gt;Reducer 9 -->
<g id="edge57" class="edge">
<title>Reducer 8&#45;&gt;Reducer 9</title>
<path fill="none" stroke="#000000" d="M806.3584,-261.4113C832.9072,-247.1413 873.5137,-225.3153 902.8463,-209.549"/>
<polygon fill="#000000" stroke="#000000" points="904.7905,-212.4777 911.9417,-204.6603 901.4763,-206.3119 904.7905,-212.4777"/>
<text text-anchor="middle" x="885.3236" y="-228.8" font-family="Times,serif" font-size="14.00" fill="#000000">sorted</text>
</g>
</g>
</svg>
