<?xml version="1.0" encoding="UTF-8" standalone="no"?>
<!DOCTYPE svg PUBLIC "-//W3C//DTD SVG 1.1//EN"
 "http://www.w3.org/Graphics/SVG/1.1/DTD/svg11.dtd">
<!-- Generated by graphviz version 2.40.1 (20161225.0304)
 -->
<!-- Title: %3 Pages: 1 -->
<svg width="440pt" height="646pt"
 viewBox="0.00 0.00 440.27 646.00" xmlns="http://www.w3.org/2000/svg" xmlns:xlink="http://www.w3.org/1999/xlink">
<g id="graph0" class="graph" transform="scale(1 1) rotate(0) translate(4 642)">
<title>%3</title>
<polygon fill="#ffffff" stroke="transparent" points="-4,4 -4,-642 436.2651,-642 436.2651,4 -4,4"/>
<!-- Map 9 -->
<g id="node1" class="node">
<title>Map 9</title>
<ellipse fill="none" stroke="#000000" cx="143.6235" cy="-448" rx="32.8992" ry="18"/>
<text text-anchor="middle" x="143.6235" y="-443.8" font-family="Times,serif" font-size="14.00" fill="#000000">Map 9</text>
</g>
<!-- Map 5 -->
<g id="node2" class="node">
<title>Map 5</title>
<ellipse fill="none" stroke="#000000" cx="270.6235" cy="-276" rx="32.8992" ry="18"/>
<text text-anchor="middle" x="270.6235" y="-271.8" font-family="Times,serif" font-size="14.00" fill="#000000">Map 5</text>
</g>
<!-- Map 9&#45;&gt;Map 5 -->
<g id="edge1" class="edge">
<title>Map 9&#45;&gt;Map 5</title>
<path fill="none" stroke="#000000" d="M169.5244,-436.7584C180.7016,-430.7969 193.132,-422.5086 201.6235,-412 221.8004,-387.0305 211.6596,-372.7307 225.9819,-344 233.3841,-329.1513 243.3942,-313.6099 252.0596,-301.1389"/>
<polygon fill="#000000" stroke="#000000" points="255.1464,-302.8365 258.0751,-292.6545 249.436,-298.7878 255.1464,-302.8365"/>
<text text-anchor="middle" x="252.4443" y="-357.8" font-family="Times,serif" font-size="14.00" fill="#000000">broadcast</text>
</g>
<!-- Map 10 -->
<g id="node7" class="node">
<title>Map 10</title>
<ellipse fill="none" stroke="#000000" cx="143.6235" cy="-362" rx="37.243" ry="18"/>
<text text-anchor="middle" x="143.6235" y="-357.8" font-family="Times,serif" font-size="14.00" fill="#000000">Map 10</text>
</g>
<!-- Map 9&#45;&gt;Map 10 -->
<g id="edge15" class="edge">
<title>Map 9&#45;&gt;Map 10</title>
<path fill="none" stroke="#000000" d="M143.6235,-429.7616C143.6235,-418.3597 143.6235,-403.4342 143.6235,-390.494"/>
<polygon fill="#000000" stroke="#000000" points="147.1236,-390.2121 143.6235,-380.2121 140.1236,-390.2121 147.1236,-390.2121"/>
<text text-anchor="middle" x="170.4443" y="-400.8" font-family="Times,serif" font-size="14.00" fill="#000000">broadcast</text>
</g>
<!-- Map 12 -->
<g id="node9" class="node">
<title>Map 12</title>
<ellipse fill="none" stroke="#000000" cx="50.6235" cy="-362" rx="37.243" ry="18"/>
<text text-anchor="middle" x="50.6235" y="-357.8" font-family="Times,serif" font-size="14.00" fill="#000000">Map 12</text>
</g>
<!-- Map 9&#45;&gt;Map 12 -->
<g id="edge14" class="edge">
<title>Map 9&#45;&gt;Map 12</title>
<path fill="none" stroke="#000000" d="M119.4051,-435.7454C108.4807,-429.5266 95.8469,-421.3158 85.9819,-412 78.6023,-405.0312 71.8094,-396.3064 66.1919,-388.1045"/>
<polygon fill="#000000" stroke="#000000" points="68.9832,-385.9776 60.5855,-379.5177 63.1218,-389.8045 68.9832,-385.9776"/>
<text text-anchor="middle" x="113.4443" y="-400.8" font-family="Times,serif" font-size="14.00" fill="#000000">broadcast</text>
</g>
<!-- Reducer 6 -->
<g id="node13" class="node">
<title>Reducer 6</title>
<ellipse fill="none" stroke="#000000" cx="225.6235" cy="-190" rx="46.4045" ry="18"/>
<text text-anchor="middle" x="225.6235" y="-185.8" font-family="Times,serif" font-size="14.00" fill="#000000">Reducer 6</text>
</g>
<!-- Map 5&#45;&gt;Reducer 6 -->
<g id="edge11" class="edge">
<title>Map 5&#45;&gt;Reducer 6</title>
<path fill="none" stroke="#000000" d="M261.5171,-258.5966C255.2154,-246.5534 246.7099,-230.2984 239.5602,-216.6346"/>
<polygon fill="#000000" stroke="#000000" points="242.6083,-214.9103 234.8709,-207.6727 236.406,-218.1557 242.6083,-214.9103"/>
<text text-anchor="middle" x="267.7305" y="-228.8" font-family="Times,serif" font-size="14.00" fill="#000000">sorted</text>
</g>
<!-- Reducer 4 -->
<g id="node3" class="node">
<title>Reducer 4</title>
<ellipse fill="none" stroke="#000000" cx="334.6235" cy="-362" rx="46.4045" ry="18"/>
<text text-anchor="middle" x="334.6235" y="-357.8" font-family="Times,serif" font-size="14.00" fill="#000000">Reducer 4</text>
</g>
<!-- Reducer 4&#45;&gt;Map 5 -->
<g id="edge2" class="edge">
<title>Reducer 4&#45;&gt;Map 5</title>
<path fill="none" stroke="#000000" d="M321.6722,-344.5966C312.3559,-332.0779 299.653,-315.0083 289.2496,-301.0288"/>
<polygon fill="#000000" stroke="#000000" points="291.898,-298.725 283.1201,-292.7922 286.2824,-302.9041 291.898,-298.725"/>
<text text-anchor="middle" x="332.4443" y="-314.8" font-family="Times,serif" font-size="14.00" fill="#000000">broadcast</text>
</g>
<!-- Map 1 -->
<g id="node4" class="node">
<title>Map 1</title>
<ellipse fill="none" stroke="#000000" cx="376.6235" cy="-534" rx="32.8992" ry="18"/>
<text text-anchor="middle" x="376.6235" y="-529.8" font-family="Times,serif" font-size="14.00" fill="#000000">Map 1</text>
</g>
<!-- Map 3 -->
<g id="node5" class="node">
<title>Map 3</title>
<ellipse fill="none" stroke="#000000" cx="376.6235" cy="-448" rx="32.8992" ry="18"/>
<text text-anchor="middle" x="376.6235" y="-443.8" font-family="Times,serif" font-size="14.00" fill="#000000">Map 3</text>
</g>
<!-- Map 1&#45;&gt;Map 3 -->
<g id="edge3" class="edge">
<title>Map 1&#45;&gt;Map 3</title>
<path fill="none" stroke="#000000" d="M376.6235,-515.7616C376.6235,-504.3597 376.6235,-489.4342 376.6235,-476.494"/>
<polygon fill="#000000" stroke="#000000" points="380.1236,-476.2121 376.6235,-466.2121 373.1236,-476.2121 380.1236,-476.2121"/>
<text text-anchor="middle" x="403.4443" y="-486.8" font-family="Times,serif" font-size="14.00" fill="#000000">broadcast</text>
</g>
<!-- Map 3&#45;&gt;Reducer 4 -->
<g id="edge8" class="edge">
<title>Map 3&#45;&gt;Reducer 4</title>
<path fill="none" stroke="#000000" d="M360.3994,-431.9559C355.2623,-426.0986 349.9944,-419.1478 346.4097,-412 343.04,-405.2811 340.6116,-397.5668 338.8699,-390.2408"/>
<polygon fill="#000000" stroke="#000000" points="342.2675,-389.385 336.8384,-380.2869 335.4088,-390.7848 342.2675,-389.385"/>
<text text-anchor="middle" x="369.7305" y="-400.8" font-family="Times,serif" font-size="14.00" fill="#000000">unsorted</text>
</g>
<!-- Map 3&#45;&gt;Reducer 6 -->
<g id="edge10" class="edge">
<title>Map 3&#45;&gt;Reducer 6</title>
<path fill="none" stroke="#000000" d="M387.3122,-430.6767C390.2867,-424.9446 393.1144,-418.3927 394.6235,-412 398.6856,-394.793 398.118,-364.8235 389.6235,-344 380.9412,-322.716 337.0013,-265.6344 288.6235,-226 281.0296,-219.7785 272.2211,-214.0089 263.641,-208.9924"/>
<polygon fill="#000000" stroke="#000000" points="265.2757,-205.8963 254.843,-204.05 261.8473,-211.9993 265.2757,-205.8963"/>
<text text-anchor="middle" x="405.4443" y="-314.8" font-family="Times,serif" font-size="14.00" fill="#000000">broadcast</text>
</g>
<!-- Map 2 -->
<g id="node6" class="node">
<title>Map 2</title>
<ellipse fill="none" stroke="#000000" cx="376.6235" cy="-620" rx="32.8992" ry="18"/>
<text text-anchor="middle" x="376.6235" y="-615.8" font-family="Times,serif" font-size="14.00" fill="#000000">Map 2</text>
</g>
<!-- Map 2&#45;&gt;Map 1 -->
<g id="edge4" class="edge">
<title>Map 2&#45;&gt;Map 1</title>
<path fill="none" stroke="#000000" d="M376.6235,-601.7616C376.6235,-590.3597 376.6235,-575.4342 376.6235,-562.494"/>
<polygon fill="#000000" stroke="#000000" points="380.1236,-562.2121 376.6235,-552.2121 373.1236,-562.2121 380.1236,-562.2121"/>
<text text-anchor="middle" x="403.4443" y="-572.8" font-family="Times,serif" font-size="14.00" fill="#000000">broadcast</text>
</g>
<!-- Reducer 11 -->
<g id="node8" class="node">
<title>Reducer 11</title>
<ellipse fill="none" stroke="#000000" cx="169.6235" cy="-276" rx="50.1002" ry="18"/>
<text text-anchor="middle" x="169.6235" y="-271.8" font-family="Times,serif" font-size="14.00" fill="#000000">Reducer 11</text>
</g>
<!-- Map 10&#45;&gt;Reducer 11 -->
<g id="edge5" class="edge">
<title>Map 10&#45;&gt;Reducer 11</title>
<path fill="none" stroke="#000000" d="M149.0108,-344.1807C152.5429,-332.4975 157.2327,-316.985 161.2465,-303.7086"/>
<polygon fill="#000000" stroke="#000000" points="164.61,-304.6773 164.1538,-294.0923 157.9096,-302.6515 164.61,-304.6773"/>
<text text-anchor="middle" x="174.7305" y="-314.8" font-family="Times,serif" font-size="14.00" fill="#000000">sorted</text>
</g>
<!-- Reducer 11&#45;&gt;Reducer 6 -->
<g id="edge12" class="edge">
<title>Reducer 11&#45;&gt;Reducer 6</title>
<path fill="none" stroke="#000000" d="M173.6166,-257.9186C176.3578,-247.9645 180.6616,-235.7005 186.9819,-226 189.849,-221.5996 193.3677,-217.366 197.1028,-213.4449"/>
<polygon fill="#000000" stroke="#000000" points="199.6982,-215.8035 204.438,-206.328 194.8237,-210.7795 199.6982,-215.8035"/>
<text text-anchor="middle" x="213.4443" y="-228.8" font-family="Times,serif" font-size="14.00" fill="#000000">broadcast</text>
</g>
<!-- Reducer 13 -->
<g id="node10" class="node">
<title>Reducer 13</title>
<ellipse fill="none" stroke="#000000" cx="50.6235" cy="-276" rx="50.7474" ry="18"/>
<text text-anchor="middle" x="50.6235" y="-271.8" font-family="Times,serif" font-size="14.00" fill="#000000">Reducer 13</text>
</g>
<!-- Map 12&#45;&gt;Reducer 13 -->
<g id="edge6" class="edge">
<title>Map 12&#45;&gt;Reducer 13</title>
<path fill="none" stroke="#000000" d="M50.6235,-343.7616C50.6235,-332.3597 50.6235,-317.4342 50.6235,-304.494"/>
<polygon fill="#000000" stroke="#000000" points="54.1236,-304.2121 50.6235,-294.2121 47.1236,-304.2121 54.1236,-304.2121"/>
<text text-anchor="middle" x="67.7305" y="-314.8" font-family="Times,serif" font-size="14.00" fill="#000000">sorted</text>
</g>
<!-- Reducer 13&#45;&gt;Reducer 6 -->
<g id="edge13" class="edge">
<title>Reducer 13&#45;&gt;Reducer 6</title>
<path fill="none" stroke="#000000" d="M71.1932,-259.2808C84.9503,-248.6948 103.8002,-235.2987 121.9819,-226 139.5819,-216.9988 159.945,-209.3793 177.9384,-203.5005"/>
<polygon fill="#000000" stroke="#000000" points="179.1856,-206.7768 187.6584,-200.4158 177.0681,-200.1047 179.1856,-206.7768"/>
<text text-anchor="middle" x="149.4443" y="-228.8" font-family="Times,serif" font-size="14.00" fill="#000000">broadcast</text>
</g>
<!-- Reducer 7 -->
<g id="node11" class="node">
<title>Reducer 7</title>
<ellipse fill="none" stroke="#000000" cx="225.6235" cy="-104" rx="46.4045" ry="18"/>
<text text-anchor="middle" x="225.6235" y="-99.8" font-family="Times,serif" font-size="14.00" fill="#000000">Reducer 7</text>
</g>
<!-- Reducer 8 -->
<g id="node12" class="node">
<title>Reducer 8</title>
<ellipse fill="none" stroke="#000000" cx="225.6235" cy="-18" rx="46.4045" ry="18"/>
<text text-anchor="middle" x="225.6235" y="-13.8" font-family="Times,serif" font-size="14.00" fill="#000000">Reducer 8</text>
</g>
<!-- Reducer 7&#45;&gt;Reducer 8 -->
<g id="edge7" class="edge">
<title>Reducer 7&#45;&gt;Reducer 8</title>
<path fill="none" stroke="#000000" d="M225.6235,-85.7616C225.6235,-74.3597 225.6235,-59.4342 225.6235,-46.494"/>
<polygon fill="#000000" stroke="#000000" points="229.1236,-46.2121 225.6235,-36.2121 222.1236,-46.2121 229.1236,-46.2121"/>
<text text-anchor="middle" x="242.7305" y="-56.8" font-family="Times,serif" font-size="14.00" fill="#000000">sorted</text>
</g>
<!-- Reducer 6&#45;&gt;Reducer 7 -->
<g id="edge9" class="edge">
<title>Reducer 6&#45;&gt;Reducer 7</title>
<path fill="none" stroke="#000000" d="M225.6235,-171.7616C225.6235,-160.3597 225.6235,-145.4342 225.6235,-132.494"/>
<polygon fill="#000000" stroke="#000000" points="229.1236,-132.2121 225.6235,-122.2121 222.1236,-132.2121 229.1236,-132.2121"/>
<text text-anchor="middle" x="242.7305" y="-142.8" font-family="Times,serif" font-size="14.00" fill="#000000">sorted</text>
</g>
</g>
</svg>
