<?xml version="1.0" encoding="UTF-8" standalone="no"?>
<!DOCTYPE svg PUBLIC "-//W3C//DTD SVG 1.1//EN"
 "http://www.w3.org/Graphics/SVG/1.1/DTD/svg11.dtd">
<!-- Generated by graphviz version 2.40.1 (20161225.0304)
 -->
<!-- Title: %3 Pages: 1 -->
<svg width="285pt" height="646pt"
 viewBox="0.00 0.00 285.32 646.00" xmlns="http://www.w3.org/2000/svg" xmlns:xlink="http://www.w3.org/1999/xlink">
<g id="graph0" class="graph" transform="scale(1 1) rotate(0) translate(4 642)">
<title>%3</title>
<polygon fill="#ffffff" stroke="transparent" points="-4,4 -4,-642 281.3209,-642 281.3209,4 -4,4"/>
<!-- Map 10 -->
<g id="node1" class="node">
<title>Map 10</title>
<ellipse fill="none" stroke="#000000" cx="37.3713" cy="-620" rx="37.243" ry="18"/>
<text text-anchor="middle" x="37.3713" y="-615.8" font-family="Times,serif" font-size="14.00" fill="#000000">Map 10</text>
</g>
<!-- Map 7 -->
<g id="node2" class="node">
<title>Map 7</title>
<ellipse fill="none" stroke="#000000" cx="101.3713" cy="-534" rx="32.8992" ry="18"/>
<text text-anchor="middle" x="101.3713" y="-529.8" font-family="Times,serif" font-size="14.00" fill="#000000">Map 7</text>
</g>
<!-- Map 10&#45;&gt;Map 7 -->
<g id="edge1" class="edge">
<title>Map 10&#45;&gt;Map 7</title>
<path fill="none" stroke="#000000" d="M40.1174,-601.6396C42.2966,-591.5982 46.1204,-579.3399 52.7297,-570 57.2357,-563.6324 63.2197,-557.9301 69.4454,-553.0428"/>
<polygon fill="#000000" stroke="#000000" points="71.904,-555.585 77.9685,-546.8975 67.8101,-549.907 71.904,-555.585"/>
<text text-anchor="middle" x="80.1921" y="-572.8" font-family="Times,serif" font-size="14.00" fill="#000000">broadcast</text>
</g>
<!-- Reducer 8 -->
<g id="node10" class="node">
<title>Reducer 8</title>
<ellipse fill="none" stroke="#000000" cx="101.3713" cy="-448" rx="46.4045" ry="18"/>
<text text-anchor="middle" x="101.3713" y="-443.8" font-family="Times,serif" font-size="14.00" fill="#000000">Reducer 8</text>
</g>
<!-- Map 7&#45;&gt;Reducer 8 -->
<g id="edge10" class="edge">
<title>Map 7&#45;&gt;Reducer 8</title>
<path fill="none" stroke="#000000" d="M101.3713,-515.7616C101.3713,-504.3597 101.3713,-489.4342 101.3713,-476.494"/>
<polygon fill="#000000" stroke="#000000" points="104.8714,-476.2121 101.3713,-466.2121 97.8714,-476.2121 104.8714,-476.2121"/>
<text text-anchor="middle" x="118.4782" y="-486.8" font-family="Times,serif" font-size="14.00" fill="#000000">sorted</text>
</g>
<!-- Map 5 -->
<g id="node3" class="node">
<title>Map 5</title>
<ellipse fill="none" stroke="#000000" cx="154.3713" cy="-620" rx="32.8992" ry="18"/>
<text text-anchor="middle" x="154.3713" y="-615.8" font-family="Times,serif" font-size="14.00" fill="#000000">Map 5</text>
</g>
<!-- Map 5&#45;&gt;Map 7 -->
<g id="edge2" class="edge">
<title>Map 5&#45;&gt;Map 7</title>
<path fill="none" stroke="#000000" d="M134.5533,-605.2457C127.7474,-599.3064 120.6196,-591.972 115.7297,-584 111.6391,-577.3312 108.6728,-569.4505 106.5383,-561.9417"/>
<polygon fill="#000000" stroke="#000000" points="109.9007,-560.9577 104.1157,-552.0817 103.1029,-562.628 109.9007,-560.9577"/>
<text text-anchor="middle" x="143.1921" y="-572.8" font-family="Times,serif" font-size="14.00" fill="#000000">broadcast</text>
</g>
<!-- Map 1 -->
<g id="node4" class="node">
<title>Map 1</title>
<ellipse fill="none" stroke="#000000" cx="183.3713" cy="-276" rx="32.8992" ry="18"/>
<text text-anchor="middle" x="183.3713" y="-271.8" font-family="Times,serif" font-size="14.00" fill="#000000">Map 1</text>
</g>
<!-- Map 5&#45;&gt;Map 1 -->
<g id="edge3" class="edge">
<title>Map 5&#45;&gt;Map 1</title>
<path fill="none" stroke="#000000" d="M164.0279,-602.462C172.464,-585.479 183.3713,-558.7378 183.3713,-534 183.3713,-534 183.3713,-534 183.3713,-362 183.3713,-342.7711 183.3713,-321.1237 183.3713,-304.358"/>
<polygon fill="#000000" stroke="#000000" points="186.8714,-304.1198 183.3713,-294.1199 179.8714,-304.1199 186.8714,-304.1198"/>
<text text-anchor="middle" x="210.1921" y="-443.8" font-family="Times,serif" font-size="14.00" fill="#000000">broadcast</text>
</g>
<!-- Reducer 2 -->
<g id="node9" class="node">
<title>Reducer 2</title>
<ellipse fill="none" stroke="#000000" cx="183.3713" cy="-190" rx="46.4045" ry="18"/>
<text text-anchor="middle" x="183.3713" y="-185.8" font-family="Times,serif" font-size="14.00" fill="#000000">Reducer 2</text>
</g>
<!-- Map 1&#45;&gt;Reducer 2 -->
<g id="edge8" class="edge">
<title>Map 1&#45;&gt;Reducer 2</title>
<path fill="none" stroke="#000000" d="M183.3713,-257.7616C183.3713,-246.3597 183.3713,-231.4342 183.3713,-218.494"/>
<polygon fill="#000000" stroke="#000000" points="186.8714,-218.2121 183.3713,-208.2121 179.8714,-218.2121 186.8714,-218.2121"/>
<text text-anchor="middle" x="200.4782" y="-228.8" font-family="Times,serif" font-size="14.00" fill="#000000">sorted</text>
</g>
<!-- Map 6 -->
<g id="node5" class="node">
<title>Map 6</title>
<ellipse fill="none" stroke="#000000" cx="244.3713" cy="-362" rx="32.8992" ry="18"/>
<text text-anchor="middle" x="244.3713" y="-357.8" font-family="Times,serif" font-size="14.00" fill="#000000">Map 6</text>
</g>
<!-- Map 6&#45;&gt;Map 1 -->
<g id="edge4" class="edge">
<title>Map 6&#45;&gt;Map 1</title>
<path fill="none" stroke="#000000" d="M232.3197,-345.0092C223.4636,-332.5235 211.2835,-315.3517 201.2891,-301.2612"/>
<polygon fill="#000000" stroke="#000000" points="204.0382,-299.0872 195.3979,-292.9555 198.3286,-303.137 204.0382,-299.0872"/>
<text text-anchor="middle" x="244.1921" y="-314.8" font-family="Times,serif" font-size="14.00" fill="#000000">broadcast</text>
</g>
<!-- Reducer 9 -->
<g id="node6" class="node">
<title>Reducer 9</title>
<ellipse fill="none" stroke="#000000" cx="107.3713" cy="-362" rx="46.4045" ry="18"/>
<text text-anchor="middle" x="107.3713" y="-357.8" font-family="Times,serif" font-size="14.00" fill="#000000">Reducer 9</text>
</g>
<!-- Reducer 9&#45;&gt;Map 1 -->
<g id="edge5" class="edge">
<title>Reducer 9&#45;&gt;Map 1</title>
<path fill="none" stroke="#000000" d="M106.6161,-343.8584C107.0609,-333.6445 109.1505,-321.1445 115.7297,-312 123.0133,-301.8764 134.0337,-294.3396 145.0771,-288.8526"/>
<polygon fill="#000000" stroke="#000000" points="146.5937,-292.0083 154.2775,-284.7138 143.7219,-285.6244 146.5937,-292.0083"/>
<text text-anchor="middle" x="143.1921" y="-314.8" font-family="Times,serif" font-size="14.00" fill="#000000">broadcast</text>
</g>
<!-- Reducer 3 -->
<g id="node7" class="node">
<title>Reducer 3</title>
<ellipse fill="none" stroke="#000000" cx="183.3713" cy="-104" rx="46.4045" ry="18"/>
<text text-anchor="middle" x="183.3713" y="-99.8" font-family="Times,serif" font-size="14.00" fill="#000000">Reducer 3</text>
</g>
<!-- Reducer 4 -->
<g id="node8" class="node">
<title>Reducer 4</title>
<ellipse fill="none" stroke="#000000" cx="183.3713" cy="-18" rx="46.4045" ry="18"/>
<text text-anchor="middle" x="183.3713" y="-13.8" font-family="Times,serif" font-size="14.00" fill="#000000">Reducer 4</text>
</g>
<!-- Reducer 3&#45;&gt;Reducer 4 -->
<g id="edge6" class="edge">
<title>Reducer 3&#45;&gt;Reducer 4</title>
<path fill="none" stroke="#000000" d="M183.3713,-85.7616C183.3713,-74.3597 183.3713,-59.4342 183.3713,-46.494"/>
<polygon fill="#000000" stroke="#000000" points="186.8714,-46.2121 183.3713,-36.2121 179.8714,-46.2121 186.8714,-46.2121"/>
<text text-anchor="middle" x="200.4782" y="-56.8" font-family="Times,serif" font-size="14.00" fill="#000000">sorted</text>
</g>
<!-- Reducer 2&#45;&gt;Reducer 3 -->
<g id="edge7" class="edge">
<title>Reducer 2&#45;&gt;Reducer 3</title>
<path fill="none" stroke="#000000" d="M183.3713,-171.7616C183.3713,-160.3597 183.3713,-145.4342 183.3713,-132.494"/>
<polygon fill="#000000" stroke="#000000" points="186.8714,-132.2121 183.3713,-122.2121 179.8714,-132.2121 186.8714,-132.2121"/>
<text text-anchor="middle" x="200.4782" y="-142.8" font-family="Times,serif" font-size="14.00" fill="#000000">sorted</text>
</g>
<!-- Reducer 8&#45;&gt;Reducer 9 -->
<g id="edge9" class="edge">
<title>Reducer 8&#45;&gt;Reducer 9</title>
<path fill="none" stroke="#000000" d="M102.6437,-429.7616C103.4392,-418.3597 104.4805,-403.4342 105.3833,-390.494"/>
<polygon fill="#000000" stroke="#000000" points="108.8961,-390.4315 106.1007,-380.2121 101.9131,-389.9442 108.8961,-390.4315"/>
<text text-anchor="middle" x="122.4782" y="-400.8" font-family="Times,serif" font-size="14.00" fill="#000000">sorted</text>
</g>
</g>
</svg>
