<?xml version="1.0" encoding="UTF-8" standalone="no"?>
<!DOCTYPE svg PUBLIC "-//W3C//DTD SVG 1.1//EN"
 "http://www.w3.org/Graphics/SVG/1.1/DTD/svg11.dtd">
<!-- Generated by graphviz version 2.40.1 (20161225.0304)
 -->
<!-- Title: %3 Pages: 1 -->
<svg width="568pt" height="926pt"
 viewBox="0.00 0.00 568.32 926.00" xmlns="http://www.w3.org/2000/svg" xmlns:xlink="http://www.w3.org/1999/xlink">
<g id="graph0" class="graph" transform="scale(1 1) rotate(0) translate(4 922)">
<title>%3</title>
<polygon fill="#ffffff" stroke="transparent" points="-4,4 -4,-922 564.3209,-922 564.3209,4 -4,4"/>
<!-- Reducer 17 -->
<g id="node1" class="node">
<title>Reducer 17</title>
<ellipse fill="none" stroke="#000000" cx="259.9496" cy="-448" rx="50.7474" ry="18"/>
<text text-anchor="middle" x="259.9496" y="-443.8" font-family="Times,serif" font-size="14.00" fill="#000000">Reducer 17</text>
</g>
<!-- Reducer 18 -->
<g id="node2" class="node">
<title>Reducer 18</title>
<ellipse fill="none" stroke="#000000" cx="248.9496" cy="-362" rx="50.7474" ry="18"/>
<text text-anchor="middle" x="248.9496" y="-357.8" font-family="Times,serif" font-size="14.00" fill="#000000">Reducer 18</text>
</g>
<!-- Reducer 17&#45;&gt;Reducer 18 -->
<g id="edge1" class="edge">
<title>Reducer 17&#45;&gt;Reducer 18</title>
<path fill="none" stroke="#000000" d="M257.6167,-429.7616C256.1584,-418.3597 254.2493,-403.4342 252.5941,-390.494"/>
<polygon fill="#000000" stroke="#000000" points="256.0195,-389.6872 251.279,-380.2121 249.0761,-390.5754 256.0195,-389.6872"/>
<text text-anchor="middle" x="273.0565" y="-400.8" font-family="Times,serif" font-size="14.00" fill="#000000">sorted</text>
</g>
<!-- Reducer 10 -->
<g id="node15" class="node">
<title>Reducer 10</title>
<ellipse fill="none" stroke="#000000" cx="166.9496" cy="-276" rx="50.7474" ry="18"/>
<text text-anchor="middle" x="166.9496" y="-271.8" font-family="Times,serif" font-size="14.00" fill="#000000">Reducer 10</text>
</g>
<!-- Reducer 18&#45;&gt;Reducer 10 -->
<g id="edge15" class="edge">
<title>Reducer 18&#45;&gt;Reducer 10</title>
<path fill="none" stroke="#000000" d="M232.3556,-344.5966C220.2729,-331.9245 203.744,-314.5893 190.3256,-300.5164"/>
<polygon fill="#000000" stroke="#000000" points="192.6728,-297.9061 183.239,-293.084 187.6067,-302.7367 192.6728,-297.9061"/>
<text text-anchor="middle" x="237.0565" y="-314.8" font-family="Times,serif" font-size="14.00" fill="#000000">unsorted</text>
</g>
<!-- Map 4 -->
<g id="node3" class="node">
<title>Map 4</title>
<ellipse fill="none" stroke="#000000" cx="32.9496" cy="-814" rx="32.8992" ry="18"/>
<text text-anchor="middle" x="32.9496" y="-809.8" font-family="Times,serif" font-size="14.00" fill="#000000">Map 4</text>
</g>
<!-- Map 1 -->
<g id="node4" class="node">
<title>Map 1</title>
<ellipse fill="none" stroke="#000000" cx="158.9496" cy="-728" rx="32.8992" ry="18"/>
<text text-anchor="middle" x="158.9496" y="-723.8" font-family="Times,serif" font-size="14.00" fill="#000000">Map 1</text>
</g>
<!-- Map 4&#45;&gt;Map 1 -->
<g id="edge2" class="edge">
<title>Map 4&#45;&gt;Map 1</title>
<path fill="none" stroke="#000000" d="M40.156,-796.196C45.2423,-785.5853 52.9913,-772.5593 63.308,-764 78.9762,-751.0008 99.8146,-742.422 118.04,-736.9126"/>
<polygon fill="#000000" stroke="#000000" points="119.1654,-740.232 127.847,-734.159 117.2731,-733.4926 119.1654,-740.232"/>
<text text-anchor="middle" x="90.7704" y="-766.8" font-family="Times,serif" font-size="14.00" fill="#000000">broadcast</text>
</g>
<!-- Reducer 11 -->
<g id="node14" class="node">
<title>Reducer 11</title>
<ellipse fill="none" stroke="#000000" cx="100.9496" cy="-190" rx="50.1002" ry="18"/>
<text text-anchor="middle" x="100.9496" y="-185.8" font-family="Times,serif" font-size="14.00" fill="#000000">Reducer 11</text>
</g>
<!-- Map 1&#45;&gt;Reducer 11 -->
<g id="edge12" class="edge">
<title>Map 1&#45;&gt;Reducer 11</title>
<path fill="none" stroke="#000000" d="M136.345,-714.6365C114.583,-699.8721 84.9496,-673.9092 84.9496,-642 84.9496,-642 84.9496,-642 84.9496,-276 84.9496,-256.2548 89.0765,-234.3833 93.1385,-217.6383"/>
<polygon fill="#000000" stroke="#000000" points="96.532,-218.4951 95.6218,-207.9394 89.7507,-216.7587 96.532,-218.4951"/>
<text text-anchor="middle" x="111.7704" y="-443.8" font-family="Times,serif" font-size="14.00" fill="#000000">broadcast</text>
</g>
<!-- Reducer 2 -->
<g id="node17" class="node">
<title>Reducer 2</title>
<ellipse fill="none" stroke="#000000" cx="158.9496" cy="-642" rx="46.4045" ry="18"/>
<text text-anchor="middle" x="158.9496" y="-637.8" font-family="Times,serif" font-size="14.00" fill="#000000">Reducer 2</text>
</g>
<!-- Map 1&#45;&gt;Reducer 2 -->
<g id="edge22" class="edge">
<title>Map 1&#45;&gt;Reducer 2</title>
<path fill="none" stroke="#000000" d="M158.9496,-709.7616C158.9496,-698.3597 158.9496,-683.4342 158.9496,-670.494"/>
<polygon fill="#000000" stroke="#000000" points="162.4497,-670.2121 158.9496,-660.2121 155.4497,-670.2121 162.4497,-670.2121"/>
<text text-anchor="middle" x="183.0565" y="-680.8" font-family="Times,serif" font-size="14.00" fill="#000000">unsorted</text>
</g>
<!-- Reducer 3 -->
<g id="node20" class="node">
<title>Reducer 3</title>
<ellipse fill="none" stroke="#000000" cx="268.9496" cy="-642" rx="46.4045" ry="18"/>
<text text-anchor="middle" x="268.9496" y="-637.8" font-family="Times,serif" font-size="14.00" fill="#000000">Reducer 3</text>
</g>
<!-- Map 1&#45;&gt;Reducer 3 -->
<g id="edge19" class="edge">
<title>Map 1&#45;&gt;Reducer 3</title>
<path fill="none" stroke="#000000" d="M180.06,-714.1289C189.6549,-707.6365 201.0495,-699.6598 210.9496,-692 221.7355,-683.6549 233.1899,-673.9696 243.0455,-665.358"/>
<polygon fill="#000000" stroke="#000000" points="245.3782,-667.9674 250.5633,-658.728 240.7482,-662.7174 245.3782,-667.9674"/>
<text text-anchor="middle" x="252.0565" y="-680.8" font-family="Times,serif" font-size="14.00" fill="#000000">unsorted</text>
</g>
<!-- Map 5 -->
<g id="node5" class="node">
<title>Map 5</title>
<ellipse fill="none" stroke="#000000" cx="116.9496" cy="-814" rx="32.8992" ry="18"/>
<text text-anchor="middle" x="116.9496" y="-809.8" font-family="Times,serif" font-size="14.00" fill="#000000">Map 5</text>
</g>
<!-- Map 5&#45;&gt;Map 1 -->
<g id="edge3" class="edge">
<title>Map 5&#45;&gt;Map 1</title>
<path fill="none" stroke="#000000" d="M117.4712,-795.6336C118.3648,-785.8224 120.4768,-773.7857 125.308,-764 127.6156,-759.3259 130.7308,-754.8372 134.1383,-750.7104"/>
<polygon fill="#000000" stroke="#000000" points="136.7711,-753.0176 140.916,-743.2671 131.5954,-748.3046 136.7711,-753.0176"/>
<text text-anchor="middle" x="152.7704" y="-766.8" font-family="Times,serif" font-size="14.00" fill="#000000">broadcast</text>
</g>
<!-- Map 6 -->
<g id="node6" class="node">
<title>Map 6</title>
<ellipse fill="none" stroke="#000000" cx="200.9496" cy="-814" rx="32.8992" ry="18"/>
<text text-anchor="middle" x="200.9496" y="-809.8" font-family="Times,serif" font-size="14.00" fill="#000000">Map 6</text>
</g>
<!-- Map 6&#45;&gt;Map 1 -->
<g id="edge4" class="edge">
<title>Map 6&#45;&gt;Map 1</title>
<path fill="none" stroke="#000000" d="M193.6049,-796.2298C189.5038,-786.5933 184.1787,-774.5332 178.9496,-764 177.3758,-760.83 175.6629,-757.54 173.9235,-754.2948"/>
<polygon fill="#000000" stroke="#000000" points="176.9242,-752.4876 169.0448,-745.4049 170.7876,-755.8554 176.9242,-752.4876"/>
<text text-anchor="middle" x="212.7704" y="-766.8" font-family="Times,serif" font-size="14.00" fill="#000000">broadcast</text>
</g>
<!-- Reducer 8 -->
<g id="node7" class="node">
<title>Reducer 8</title>
<ellipse fill="none" stroke="#000000" cx="297.9496" cy="-814" rx="46.4045" ry="18"/>
<text text-anchor="middle" x="297.9496" y="-809.8" font-family="Times,serif" font-size="14.00" fill="#000000">Reducer 8</text>
</g>
<!-- Reducer 8&#45;&gt;Map 1 -->
<g id="edge5" class="edge">
<title>Reducer 8&#45;&gt;Map 1</title>
<path fill="none" stroke="#000000" d="M282.1844,-796.6151C272.0281,-786.1621 258.1138,-773.1547 243.9496,-764 229.486,-754.6518 212.1876,-746.8083 196.9829,-740.8536"/>
<polygon fill="#000000" stroke="#000000" points="197.9362,-737.4724 187.3445,-737.2163 195.4647,-744.0216 197.9362,-737.4724"/>
<text text-anchor="middle" x="288.7704" y="-766.8" font-family="Times,serif" font-size="14.00" fill="#000000">broadcast</text>
</g>
<!-- Map 14 -->
<g id="node8" class="node">
<title>Map 14</title>
<ellipse fill="none" stroke="#000000" cx="522.9496" cy="-728" rx="37.243" ry="18"/>
<text text-anchor="middle" x="522.9496" y="-723.8" font-family="Times,serif" font-size="14.00" fill="#000000">Map 14</text>
</g>
<!-- Reducer 15 -->
<g id="node9" class="node">
<title>Reducer 15</title>
<ellipse fill="none" stroke="#000000" cx="476.9496" cy="-642" rx="50.7474" ry="18"/>
<text text-anchor="middle" x="476.9496" y="-637.8" font-family="Times,serif" font-size="14.00" fill="#000000">Reducer 15</text>
</g>
<!-- Map 14&#45;&gt;Reducer 15 -->
<g id="edge6" class="edge">
<title>Map 14&#45;&gt;Reducer 15</title>
<path fill="none" stroke="#000000" d="M513.4183,-710.1807C507.0039,-698.1885 498.4314,-682.1617 491.2095,-668.6598"/>
<polygon fill="#000000" stroke="#000000" points="494.2714,-666.9635 486.4686,-659.7964 488.0989,-670.2651 494.2714,-666.9635"/>
<text text-anchor="middle" x="517.1117" y="-680.8" font-family="Times,serif" font-size="14.00" fill="#000000">None</text>
</g>
<!-- Reducer 16 -->
<g id="node12" class="node">
<title>Reducer 16</title>
<ellipse fill="none" stroke="#000000" cx="370.9496" cy="-556" rx="50.7474" ry="18"/>
<text text-anchor="middle" x="370.9496" y="-551.8" font-family="Times,serif" font-size="14.00" fill="#000000">Reducer 16</text>
</g>
<!-- Reducer 15&#45;&gt;Reducer 16 -->
<g id="edge11" class="edge">
<title>Reducer 15&#45;&gt;Reducer 16</title>
<path fill="none" stroke="#000000" d="M456.5117,-625.4183C440.2344,-612.2122 417.267,-593.5783 399.2256,-578.9409"/>
<polygon fill="#000000" stroke="#000000" points="401.2955,-576.1132 391.3247,-572.5308 396.8852,-581.5492 401.2955,-576.1132"/>
<text text-anchor="middle" x="445.1117" y="-594.8" font-family="Times,serif" font-size="14.00" fill="#000000">None</text>
</g>
<!-- Map 19 -->
<g id="node10" class="node">
<title>Map 19</title>
<ellipse fill="none" stroke="#000000" cx="429.9496" cy="-728" rx="37.243" ry="18"/>
<text text-anchor="middle" x="429.9496" y="-723.8" font-family="Times,serif" font-size="14.00" fill="#000000">Map 19</text>
</g>
<!-- Map 19&#45;&gt;Reducer 15 -->
<g id="edge7" class="edge">
<title>Map 19&#45;&gt;Reducer 15</title>
<path fill="none" stroke="#000000" d="M439.688,-710.1807C446.2419,-698.1885 455.0007,-682.1617 462.3796,-668.6598"/>
<polygon fill="#000000" stroke="#000000" points="465.4992,-670.25 467.2236,-659.7964 459.3566,-666.893 465.4992,-670.25"/>
<text text-anchor="middle" x="471.1117" y="-680.8" font-family="Times,serif" font-size="14.00" fill="#000000">None</text>
</g>
<!-- Map 21 -->
<g id="node11" class="node">
<title>Map 21</title>
<ellipse fill="none" stroke="#000000" cx="259.9496" cy="-556" rx="37.243" ry="18"/>
<text text-anchor="middle" x="259.9496" y="-551.8" font-family="Times,serif" font-size="14.00" fill="#000000">Map 21</text>
</g>
<!-- Map 21&#45;&gt;Reducer 17 -->
<g id="edge8" class="edge">
<title>Map 21&#45;&gt;Reducer 17</title>
<path fill="none" stroke="#000000" d="M259.9496,-537.6793C259.9496,-520.821 259.9496,-495.5651 259.9496,-476.147"/>
<polygon fill="#000000" stroke="#000000" points="263.4497,-476.0501 259.9496,-466.0502 256.4497,-476.0502 263.4497,-476.0501"/>
<text text-anchor="middle" x="275.1117" y="-497.8" font-family="Times,serif" font-size="14.00" fill="#000000">None</text>
</g>
<!-- Reducer 16&#45;&gt;Reducer 17 -->
<g id="edge9" class="edge">
<title>Reducer 16&#45;&gt;Reducer 17</title>
<path fill="none" stroke="#000000" d="M353.1155,-538.6479C334.5581,-520.5921 305.363,-492.186 284.6043,-471.9884"/>
<polygon fill="#000000" stroke="#000000" points="286.9814,-469.418 277.3734,-464.9529 282.0999,-474.4351 286.9814,-469.418"/>
<text text-anchor="middle" x="346.1117" y="-497.8" font-family="Times,serif" font-size="14.00" fill="#000000">None</text>
</g>
<!-- Map 20 -->
<g id="node13" class="node">
<title>Map 20</title>
<ellipse fill="none" stroke="#000000" cx="370.9496" cy="-642" rx="37.243" ry="18"/>
<text text-anchor="middle" x="370.9496" y="-637.8" font-family="Times,serif" font-size="14.00" fill="#000000">Map 20</text>
</g>
<!-- Map 20&#45;&gt;Reducer 16 -->
<g id="edge10" class="edge">
<title>Map 20&#45;&gt;Reducer 16</title>
<path fill="none" stroke="#000000" d="M370.9496,-623.7616C370.9496,-612.3597 370.9496,-597.4342 370.9496,-584.494"/>
<polygon fill="#000000" stroke="#000000" points="374.4497,-584.2121 370.9496,-574.2121 367.4497,-584.2121 374.4497,-584.2121"/>
<text text-anchor="middle" x="386.1117" y="-594.8" font-family="Times,serif" font-size="14.00" fill="#000000">None</text>
</g>
<!-- Reducer 12 -->
<g id="node18" class="node">
<title>Reducer 12</title>
<ellipse fill="none" stroke="#000000" cx="100.9496" cy="-104" rx="50.7474" ry="18"/>
<text text-anchor="middle" x="100.9496" y="-99.8" font-family="Times,serif" font-size="14.00" fill="#000000">Reducer 12</text>
</g>
<!-- Reducer 11&#45;&gt;Reducer 12 -->
<g id="edge17" class="edge">
<title>Reducer 11&#45;&gt;Reducer 12</title>
<path fill="none" stroke="#000000" d="M100.9496,-171.7616C100.9496,-160.3597 100.9496,-145.4342 100.9496,-132.494"/>
<polygon fill="#000000" stroke="#000000" points="104.4497,-132.2121 100.9496,-122.2121 97.4497,-132.2121 104.4497,-132.2121"/>
<text text-anchor="middle" x="118.0565" y="-142.8" font-family="Times,serif" font-size="14.00" fill="#000000">sorted</text>
</g>
<!-- Reducer 10&#45;&gt;Reducer 11 -->
<g id="edge13" class="edge">
<title>Reducer 10&#45;&gt;Reducer 11</title>
<path fill="none" stroke="#000000" d="M153.5935,-258.5966C144.1109,-246.2405 131.2258,-229.4509 120.5769,-215.575"/>
<polygon fill="#000000" stroke="#000000" points="123.1506,-213.1797 114.2858,-207.3775 117.5974,-217.4415 123.1506,-213.1797"/>
<text text-anchor="middle" x="155.0565" y="-228.8" font-family="Times,serif" font-size="14.00" fill="#000000">sorted</text>
</g>
<!-- Map 9 -->
<g id="node16" class="node">
<title>Map 9</title>
<ellipse fill="none" stroke="#000000" cx="149.9496" cy="-502" rx="32.8992" ry="18"/>
<text text-anchor="middle" x="149.9496" y="-497.8" font-family="Times,serif" font-size="14.00" fill="#000000">Map 9</text>
</g>
<!-- Map 9&#45;&gt;Reducer 10 -->
<g id="edge14" class="edge">
<title>Map 9&#45;&gt;Reducer 10</title>
<path fill="none" stroke="#000000" d="M151.312,-483.8875C154.2651,-444.6289 161.2745,-351.4447 164.819,-304.3243"/>
<polygon fill="#000000" stroke="#000000" points="168.3206,-304.4331 165.5806,-294.1988 161.3403,-303.908 168.3206,-304.4331"/>
<text text-anchor="middle" x="182.0565" y="-400.8" font-family="Times,serif" font-size="14.00" fill="#000000">unsorted</text>
</g>
<!-- Reducer 2&#45;&gt;Map 21 -->
<g id="edge20" class="edge">
<title>Reducer 2&#45;&gt;Map 21</title>
<path fill="none" stroke="#000000" d="M173.4474,-624.8785C182.411,-614.7715 194.438,-602.0346 206.308,-592 213.0182,-586.3273 220.6452,-580.7551 227.9993,-575.7531"/>
<polygon fill="#000000" stroke="#000000" points="230.0272,-578.6082 236.4358,-570.1713 226.1647,-572.7703 230.0272,-578.6082"/>
<text text-anchor="middle" x="233.7704" y="-594.8" font-family="Times,serif" font-size="14.00" fill="#000000">broadcast</text>
</g>
<!-- Reducer 2&#45;&gt;Map 9 -->
<g id="edge16" class="edge">
<title>Reducer 2&#45;&gt;Map 9</title>
<path fill="none" stroke="#000000" d="M144.6996,-624.721C140.8862,-619.0938 137.2786,-612.5907 135.308,-606 127.7218,-580.6284 133.4557,-550.5717 139.8378,-529.3118"/>
<polygon fill="#000000" stroke="#000000" points="143.2184,-530.2327 142.9673,-519.6408 136.5584,-528.0774 143.2184,-530.2327"/>
<text text-anchor="middle" x="162.7704" y="-594.8" font-family="Times,serif" font-size="14.00" fill="#000000">broadcast</text>
</g>
<!-- Reducer 13 -->
<g id="node19" class="node">
<title>Reducer 13</title>
<ellipse fill="none" stroke="#000000" cx="100.9496" cy="-18" rx="50.7474" ry="18"/>
<text text-anchor="middle" x="100.9496" y="-13.8" font-family="Times,serif" font-size="14.00" fill="#000000">Reducer 13</text>
</g>
<!-- Reducer 12&#45;&gt;Reducer 13 -->
<g id="edge18" class="edge">
<title>Reducer 12&#45;&gt;Reducer 13</title>
<path fill="none" stroke="#000000" d="M100.9496,-85.7616C100.9496,-74.3597 100.9496,-59.4342 100.9496,-46.494"/>
<polygon fill="#000000" stroke="#000000" points="104.4497,-46.2121 100.9496,-36.2121 97.4497,-46.2121 104.4497,-46.2121"/>
<text text-anchor="middle" x="118.0565" y="-56.8" font-family="Times,serif" font-size="14.00" fill="#000000">sorted</text>
</g>
<!-- Reducer 3&#45;&gt;Map 21 -->
<g id="edge21" class="edge">
<title>Reducer 3&#45;&gt;Map 21</title>
<path fill="none" stroke="#000000" d="M267.1922,-623.9434C266.2547,-614.436 265.0668,-602.5843 263.9496,-592 263.6934,-589.5728 263.4229,-587.054 263.1484,-584.5273"/>
<polygon fill="#000000" stroke="#000000" points="266.5969,-583.8667 262.0234,-574.3099 259.639,-584.6329 266.5969,-583.8667"/>
<text text-anchor="middle" x="292.7704" y="-594.8" font-family="Times,serif" font-size="14.00" fill="#000000">broadcast</text>
</g>
<!-- Map 7 -->
<g id="node21" class="node">
<title>Map 7</title>
<ellipse fill="none" stroke="#000000" cx="297.9496" cy="-900" rx="32.8992" ry="18"/>
<text text-anchor="middle" x="297.9496" y="-895.8" font-family="Times,serif" font-size="14.00" fill="#000000">Map 7</text>
</g>
<!-- Map 7&#45;&gt;Reducer 8 -->
<g id="edge23" class="edge">
<title>Map 7&#45;&gt;Reducer 8</title>
<path fill="none" stroke="#000000" d="M297.9496,-881.7616C297.9496,-870.3597 297.9496,-855.4342 297.9496,-842.494"/>
<polygon fill="#000000" stroke="#000000" points="301.4497,-842.2121 297.9496,-832.2121 294.4497,-842.2121 301.4497,-842.2121"/>
<text text-anchor="middle" x="315.0565" y="-852.8" font-family="Times,serif" font-size="14.00" fill="#000000">sorted</text>
</g>
</g>
</svg>
