<?xml version="1.0" encoding="UTF-8" standalone="no"?>
<!DOCTYPE svg PUBLIC "-//W3C//DTD SVG 1.1//EN"
 "http://www.w3.org/Graphics/SVG/1.1/DTD/svg11.dtd">
<!-- Generated by graphviz version 2.40.1 (20161225.0304)
 -->
<!-- Title: %3 Pages: 1 -->
<svg width="292pt" height="560pt"
 viewBox="0.00 0.00 292.42 560.00" xmlns="http://www.w3.org/2000/svg" xmlns:xlink="http://www.w3.org/1999/xlink">
<g id="graph0" class="graph" transform="scale(1 1) rotate(0) translate(4 556)">
<title>%3</title>
<polygon fill="#ffffff" stroke="transparent" points="-4,4 -4,-556 288.4157,-556 288.4157,4 -4,4"/>
<!-- Reducer 2 -->
<g id="node1" class="node">
<title>Reducer 2</title>
<ellipse fill="none" stroke="#000000" cx="46.2018" cy="-362" rx="46.4045" ry="18"/>
<text text-anchor="middle" x="46.2018" y="-357.8" font-family="Times,serif" font-size="14.00" fill="#000000">Reducer 2</text>
</g>
<!-- Map 5 -->
<g id="node2" class="node">
<title>Map 5</title>
<ellipse fill="none" stroke="#000000" cx="153.2018" cy="-276" rx="32.8992" ry="18"/>
<text text-anchor="middle" x="153.2018" y="-271.8" font-family="Times,serif" font-size="14.00" fill="#000000">Map 5</text>
</g>
<!-- Reducer 2&#45;&gt;Map 5 -->
<g id="edge1" class="edge">
<title>Reducer 2&#45;&gt;Map 5</title>
<path fill="none" stroke="#000000" d="M61.6964,-344.8504C71.2556,-334.7335 84.0461,-321.996 96.5602,-312 104.3305,-305.7932 113.2157,-299.7235 121.6086,-294.3893"/>
<polygon fill="#000000" stroke="#000000" points="123.4525,-297.3643 130.1094,-289.1219 119.7654,-291.414 123.4525,-297.3643"/>
<text text-anchor="middle" x="124.0226" y="-314.8" font-family="Times,serif" font-size="14.00" fill="#000000">broadcast</text>
</g>
<!-- Reducer 6 -->
<g id="node6" class="node">
<title>Reducer 6</title>
<ellipse fill="none" stroke="#000000" cx="191.2018" cy="-190" rx="46.4045" ry="18"/>
<text text-anchor="middle" x="191.2018" y="-185.8" font-family="Times,serif" font-size="14.00" fill="#000000">Reducer 6</text>
</g>
<!-- Map 5&#45;&gt;Reducer 6 -->
<g id="edge6" class="edge">
<title>Map 5&#45;&gt;Reducer 6</title>
<path fill="none" stroke="#000000" d="M157.2081,-257.9659C159.692,-248.252 163.3074,-236.2022 167.9879,-226 169.491,-222.7238 171.257,-219.3978 173.1325,-216.1581"/>
<polygon fill="#000000" stroke="#000000" points="176.2863,-217.7135 178.5809,-207.3701 170.3369,-214.025 176.2863,-217.7135"/>
<text text-anchor="middle" x="192.3087" y="-228.8" font-family="Times,serif" font-size="14.00" fill="#000000">unsorted</text>
</g>
<!-- Reducer 3 -->
<g id="node3" class="node">
<title>Reducer 3</title>
<ellipse fill="none" stroke="#000000" cx="156.2018" cy="-362" rx="46.4045" ry="18"/>
<text text-anchor="middle" x="156.2018" y="-357.8" font-family="Times,serif" font-size="14.00" fill="#000000">Reducer 3</text>
</g>
<!-- Reducer 3&#45;&gt;Map 5 -->
<g id="edge2" class="edge">
<title>Reducer 3&#45;&gt;Map 5</title>
<path fill="none" stroke="#000000" d="M155.3015,-343.6886C155.0403,-338.0194 154.7695,-331.7522 154.5602,-326 154.3044,-318.9694 154.0745,-311.3812 153.8797,-304.2924"/>
<polygon fill="#000000" stroke="#000000" points="157.3723,-303.9594 153.6121,-294.0543 150.3746,-304.1423 157.3723,-303.9594"/>
<text text-anchor="middle" x="182.0226" y="-314.8" font-family="Times,serif" font-size="14.00" fill="#000000">broadcast</text>
</g>
<!-- Map 4 -->
<g id="node4" class="node">
<title>Map 4</title>
<ellipse fill="none" stroke="#000000" cx="156.2018" cy="-534" rx="32.8992" ry="18"/>
<text text-anchor="middle" x="156.2018" y="-529.8" font-family="Times,serif" font-size="14.00" fill="#000000">Map 4</text>
</g>
<!-- Map 1 -->
<g id="node5" class="node">
<title>Map 1</title>
<ellipse fill="none" stroke="#000000" cx="156.2018" cy="-448" rx="32.8992" ry="18"/>
<text text-anchor="middle" x="156.2018" y="-443.8" font-family="Times,serif" font-size="14.00" fill="#000000">Map 1</text>
</g>
<!-- Map 4&#45;&gt;Map 1 -->
<g id="edge3" class="edge">
<title>Map 4&#45;&gt;Map 1</title>
<path fill="none" stroke="#000000" d="M156.2018,-515.7616C156.2018,-504.3597 156.2018,-489.4342 156.2018,-476.494"/>
<polygon fill="#000000" stroke="#000000" points="159.7019,-476.2121 156.2018,-466.2121 152.7019,-476.2121 159.7019,-476.2121"/>
<text text-anchor="middle" x="183.0226" y="-486.8" font-family="Times,serif" font-size="14.00" fill="#000000">broadcast</text>
</g>
<!-- Map 1&#45;&gt;Reducer 2 -->
<g id="edge8" class="edge">
<title>Map 1&#45;&gt;Reducer 2</title>
<path fill="none" stroke="#000000" d="M134.9927,-434.1481C125.356,-427.6596 113.9159,-419.6806 103.9879,-412 93.2245,-403.673 81.8088,-393.9913 71.9917,-385.3776"/>
<polygon fill="#000000" stroke="#000000" points="74.3105,-382.7559 64.5043,-378.7447 69.6688,-387.9957 74.3105,-382.7559"/>
<text text-anchor="middle" x="128.3087" y="-400.8" font-family="Times,serif" font-size="14.00" fill="#000000">unsorted</text>
</g>
<!-- Map 1&#45;&gt;Reducer 3 -->
<g id="edge7" class="edge">
<title>Map 1&#45;&gt;Reducer 3</title>
<path fill="none" stroke="#000000" d="M156.2018,-429.7616C156.2018,-418.3597 156.2018,-403.4342 156.2018,-390.494"/>
<polygon fill="#000000" stroke="#000000" points="159.7019,-390.2121 156.2018,-380.2121 152.7019,-390.2121 159.7019,-390.2121"/>
<text text-anchor="middle" x="180.3087" y="-400.8" font-family="Times,serif" font-size="14.00" fill="#000000">unsorted</text>
</g>
<!-- Map 1&#45;&gt;Reducer 6 -->
<g id="edge5" class="edge">
<title>Map 1&#45;&gt;Reducer 6</title>
<path fill="none" stroke="#000000" d="M181.6985,-436.4005C191.644,-430.5377 202.1025,-422.425 208.2018,-412 249.9858,-340.5821 240.9301,-304.9616 216.2018,-226 215.123,-222.5553 213.5857,-219.1511 211.7966,-215.8907"/>
<polygon fill="#000000" stroke="#000000" points="214.5743,-213.7356 206.2603,-207.1684 208.6643,-217.4869 214.5743,-213.7356"/>
<text text-anchor="middle" x="260.3087" y="-314.8" font-family="Times,serif" font-size="14.00" fill="#000000">unsorted</text>
</g>
<!-- Reducer 7 -->
<g id="node7" class="node">
<title>Reducer 7</title>
<ellipse fill="none" stroke="#000000" cx="191.2018" cy="-104" rx="46.4045" ry="18"/>
<text text-anchor="middle" x="191.2018" y="-99.8" font-family="Times,serif" font-size="14.00" fill="#000000">Reducer 7</text>
</g>
<!-- Reducer 6&#45;&gt;Reducer 7 -->
<g id="edge4" class="edge">
<title>Reducer 6&#45;&gt;Reducer 7</title>
<path fill="none" stroke="#000000" d="M191.2018,-171.7616C191.2018,-160.3597 191.2018,-145.4342 191.2018,-132.494"/>
<polygon fill="#000000" stroke="#000000" points="194.7019,-132.2121 191.2018,-122.2121 187.7019,-132.2121 194.7019,-132.2121"/>
<text text-anchor="middle" x="208.3087" y="-142.8" font-family="Times,serif" font-size="14.00" fill="#000000">sorted</text>
</g>
<!-- Reducer 8 -->
<g id="node8" class="node">
<title>Reducer 8</title>
<ellipse fill="none" stroke="#000000" cx="191.2018" cy="-18" rx="46.4045" ry="18"/>
<text text-anchor="middle" x="191.2018" y="-13.8" font-family="Times,serif" font-size="14.00" fill="#000000">Reducer 8</text>
</g>
<!-- Reducer 7&#45;&gt;Reducer 8 -->
<g id="edge9" class="edge">
<title>Reducer 7&#45;&gt;Reducer 8</title>
<path fill="none" stroke="#000000" d="M191.2018,-85.7616C191.2018,-74.3597 191.2018,-59.4342 191.2018,-46.494"/>
<polygon fill="#000000" stroke="#000000" points="194.7019,-46.2121 191.2018,-36.2121 187.7019,-46.2121 194.7019,-46.2121"/>
<text text-anchor="middle" x="208.3087" y="-56.8" font-family="Times,serif" font-size="14.00" fill="#000000">sorted</text>
</g>
</g>
</svg>
