<?xml version="1.0" encoding="UTF-8" standalone="no"?>
<!DOCTYPE svg PUBLIC "-//W3C//DTD SVG 1.1//EN"
 "http://www.w3.org/Graphics/SVG/1.1/DTD/svg11.dtd">
<!-- Generated by graphviz version 2.40.1 (20161225.0304)
 -->
<!-- Title: %3 Pages: 1 -->
<svg width="1268pt" height="474pt"
 viewBox="0.00 0.00 1267.74 474.00" xmlns="http://www.w3.org/2000/svg" xmlns:xlink="http://www.w3.org/1999/xlink">
<g id="graph0" class="graph" transform="scale(1 1) rotate(0) translate(4 470)">
<title>%3</title>
<polygon fill="#ffffff" stroke="transparent" points="-4,4 -4,-470 1263.7426,-470 1263.7426,4 -4,4"/>
<!-- Reducer 10 -->
<g id="node1" class="node">
<title>Reducer 10</title>
<ellipse fill="none" stroke="#000000" cx="197.3713" cy="-362" rx="50.7474" ry="18"/>
<text text-anchor="middle" x="197.3713" y="-357.8" font-family="Times,serif" font-size="14.00" fill="#000000">Reducer 10</text>
</g>
<!-- Map 7 -->
<g id="node2" class="node">
<title>Map 7</title>
<ellipse fill="none" stroke="#000000" cx="209.3713" cy="-276" rx="32.8992" ry="18"/>
<text text-anchor="middle" x="209.3713" y="-271.8" font-family="Times,serif" font-size="14.00" fill="#000000">Map 7</text>
</g>
<!-- Reducer 10&#45;&gt;Map 7 -->
<g id="edge1" class="edge">
<title>Reducer 10&#45;&gt;Map 7</title>
<path fill="none" stroke="#000000" d="M197.8533,-343.8682C198.2919,-334.3403 199.1296,-322.4928 200.7297,-312 201.1424,-309.2936 201.657,-306.4911 202.2282,-303.6996"/>
<polygon fill="#000000" stroke="#000000" points="205.6686,-304.3538 204.4636,-293.8277 198.8414,-302.8077 205.6686,-304.3538"/>
<text text-anchor="middle" x="227.1921" y="-314.8" font-family="Times,serif" font-size="14.00" fill="#000000">broadcast</text>
</g>
<!-- Map 1 -->
<g id="node14" class="node">
<title>Map 1</title>
<ellipse fill="none" stroke="#000000" cx="125.3713" cy="-276" rx="32.8992" ry="18"/>
<text text-anchor="middle" x="125.3713" y="-271.8" font-family="Times,serif" font-size="14.00" fill="#000000">Map 1</text>
</g>
<!-- Reducer 10&#45;&gt;Map 1 -->
<g id="edge12" class="edge">
<title>Reducer 10&#45;&gt;Map 1</title>
<path fill="none" stroke="#000000" d="M166.3035,-347.6387C156.9705,-342.0302 147.4402,-334.8031 140.7297,-326 135.8301,-319.5726 132.481,-311.571 130.1964,-303.8666"/>
<polygon fill="#000000" stroke="#000000" points="133.5703,-302.9302 127.7655,-294.067 126.7762,-304.6156 133.5703,-302.9302"/>
<text text-anchor="middle" x="168.1921" y="-314.8" font-family="Times,serif" font-size="14.00" fill="#000000">broadcast</text>
</g>
<!-- Reducer 2 -->
<g id="node12" class="node">
<title>Reducer 2</title>
<ellipse fill="none" stroke="#000000" cx="272.3713" cy="-190" rx="46.4045" ry="18"/>
<text text-anchor="middle" x="272.3713" y="-185.8" font-family="Times,serif" font-size="14.00" fill="#000000">Reducer 2</text>
</g>
<!-- Map 7&#45;&gt;Reducer 2 -->
<g id="edge33" class="edge">
<title>Map 7&#45;&gt;Reducer 2</title>
<path fill="none" stroke="#000000" d="M205.4884,-257.7115C204.3413,-247.6925 204.6183,-235.4327 210.1574,-226 214.6084,-218.4204 221.3199,-212.2863 228.7111,-207.3763"/>
<polygon fill="#000000" stroke="#000000" points="230.7492,-210.2386 237.6053,-202.1612 227.2085,-204.2001 230.7492,-210.2386"/>
<text text-anchor="middle" x="233.4782" y="-228.8" font-family="Times,serif" font-size="14.00" fill="#000000">unsorted</text>
</g>
<!-- Map 13 -->
<g id="node3" class="node">
<title>Map 13</title>
<ellipse fill="none" stroke="#000000" cx="630.3713" cy="-276" rx="37.243" ry="18"/>
<text text-anchor="middle" x="630.3713" y="-271.8" font-family="Times,serif" font-size="14.00" fill="#000000">Map 13</text>
</g>
<!-- Reducer 21 -->
<g id="node4" class="node">
<title>Reducer 21</title>
<ellipse fill="none" stroke="#000000" cx="1003.3713" cy="-190" rx="50.7474" ry="18"/>
<text text-anchor="middle" x="1003.3713" y="-185.8" font-family="Times,serif" font-size="14.00" fill="#000000">Reducer 21</text>
</g>
<!-- Map 13&#45;&gt;Reducer 21 -->
<g id="edge2" class="edge">
<title>Map 13&#45;&gt;Reducer 21</title>
<path fill="none" stroke="#000000" d="M658.3313,-263.9495C664.5086,-261.6673 671.087,-259.5215 677.3713,-258 748.639,-240.7458 772.9467,-266.3603 841.3713,-240 851.2794,-236.1829 851.1081,-230.4906 860.7297,-226 887.7165,-213.4047 919.7123,-204.8145 946.5553,-199.1941"/>
<polygon fill="#000000" stroke="#000000" points="947.4544,-202.5835 956.5696,-197.1832 946.0763,-195.7205 947.4544,-202.5835"/>
<text text-anchor="middle" x="887.1921" y="-228.8" font-family="Times,serif" font-size="14.00" fill="#000000">broadcast</text>
</g>
<!-- Map 13&#45;&gt;Reducer 2 -->
<g id="edge31" class="edge">
<title>Map 13&#45;&gt;Reducer 2</title>
<path fill="none" stroke="#000000" d="M606.94,-261.8357C584.7901,-248.6858 552.9827,-230.4838 539.3713,-226 501.2608,-213.4457 394.3056,-201.5491 327.9033,-195.0677"/>
<polygon fill="#000000" stroke="#000000" points="327.901,-191.5513 317.6111,-194.0747 327.2287,-198.5189 327.901,-191.5513"/>
<text text-anchor="middle" x="595.1921" y="-228.8" font-family="Times,serif" font-size="14.00" fill="#000000">broadcast</text>
</g>
<!-- Reducer 16 -->
<g id="node15" class="node">
<title>Reducer 16</title>
<ellipse fill="none" stroke="#000000" cx="626.3713" cy="-190" rx="50.7474" ry="18"/>
<text text-anchor="middle" x="626.3713" y="-185.8" font-family="Times,serif" font-size="14.00" fill="#000000">Reducer 16</text>
</g>
<!-- Map 13&#45;&gt;Reducer 16 -->
<g id="edge15" class="edge">
<title>Map 13&#45;&gt;Reducer 16</title>
<path fill="none" stroke="#000000" d="M629.523,-257.7616C628.9927,-246.3597 628.2985,-231.4342 627.6966,-218.494"/>
<polygon fill="#000000" stroke="#000000" points="631.1793,-218.0387 627.2184,-208.2121 624.1869,-218.3639 631.1793,-218.0387"/>
<text text-anchor="middle" x="655.1921" y="-228.8" font-family="Times,serif" font-size="14.00" fill="#000000">broadcast</text>
</g>
<!-- Reducer 22 -->
<g id="node10" class="node">
<title>Reducer 22</title>
<ellipse fill="none" stroke="#000000" cx="879.3713" cy="-104" rx="50.7474" ry="18"/>
<text text-anchor="middle" x="879.3713" y="-99.8" font-family="Times,serif" font-size="14.00" fill="#000000">Reducer 22</text>
</g>
<!-- Reducer 21&#45;&gt;Reducer 22 -->
<g id="edge8" class="edge">
<title>Reducer 21&#45;&gt;Reducer 22</title>
<path fill="none" stroke="#000000" d="M980.0478,-173.8241C960.5632,-160.3105 932.5931,-140.9119 911.0769,-125.9894"/>
<polygon fill="#000000" stroke="#000000" points="912.802,-122.9264 902.5902,-120.1034 908.8127,-128.6784 912.802,-122.9264"/>
<text text-anchor="middle" x="965.4782" y="-142.8" font-family="Times,serif" font-size="14.00" fill="#000000">sorted</text>
</g>
<!-- Map 20 -->
<g id="node5" class="node">
<title>Map 20</title>
<ellipse fill="none" stroke="#000000" cx="1129.3713" cy="-276" rx="37.243" ry="18"/>
<text text-anchor="middle" x="1129.3713" y="-271.8" font-family="Times,serif" font-size="14.00" fill="#000000">Map 20</text>
</g>
<!-- Map 20&#45;&gt;Reducer 21 -->
<g id="edge3" class="edge">
<title>Map 20&#45;&gt;Reducer 21</title>
<path fill="none" stroke="#000000" d="M1113.1467,-259.4945C1102.4351,-249.1251 1087.7667,-235.8893 1073.3713,-226 1064.3232,-219.7842 1054.0613,-213.9247 1044.2381,-208.8098"/>
<polygon fill="#000000" stroke="#000000" points="1045.5122,-205.5323 1035.0083,-204.1468 1042.3556,-211.7802 1045.5122,-205.5323"/>
<text text-anchor="middle" x="1114.4782" y="-228.8" font-family="Times,serif" font-size="14.00" fill="#000000">unsorted</text>
</g>
<!-- Map 23 -->
<g id="node6" class="node">
<title>Map 23</title>
<ellipse fill="none" stroke="#000000" cx="1036.3713" cy="-276" rx="37.243" ry="18"/>
<text text-anchor="middle" x="1036.3713" y="-271.8" font-family="Times,serif" font-size="14.00" fill="#000000">Map 23</text>
</g>
<!-- Map 23&#45;&gt;Reducer 21 -->
<g id="edge4" class="edge">
<title>Map 23&#45;&gt;Reducer 21</title>
<path fill="none" stroke="#000000" d="M1029.5337,-258.1807C1025.0506,-246.4975 1019.0981,-230.985 1014.0036,-217.7086"/>
<polygon fill="#000000" stroke="#000000" points="1017.164,-216.1747 1010.3137,-208.0923 1010.6286,-218.6825 1017.164,-216.1747"/>
<text text-anchor="middle" x="1045.4782" y="-228.8" font-family="Times,serif" font-size="14.00" fill="#000000">unsorted</text>
</g>
<!-- Map 24 -->
<g id="node7" class="node">
<title>Map 24</title>
<ellipse fill="none" stroke="#000000" cx="1222.3713" cy="-276" rx="37.243" ry="18"/>
<text text-anchor="middle" x="1222.3713" y="-271.8" font-family="Times,serif" font-size="14.00" fill="#000000">Map 24</text>
</g>
<!-- Map 24&#45;&gt;Reducer 21 -->
<g id="edge5" class="edge">
<title>Map 24&#45;&gt;Reducer 21</title>
<path fill="none" stroke="#000000" d="M1201.9475,-260.7813C1186.329,-249.7675 1163.8884,-235.2502 1142.3713,-226 1115.7849,-214.5706 1084.727,-206.104 1058.7204,-200.2635"/>
<polygon fill="#000000" stroke="#000000" points="1059.1683,-196.7792 1048.6531,-198.0757 1057.6817,-203.6196 1059.1683,-196.7792"/>
<text text-anchor="middle" x="1194.1921" y="-228.8" font-family="Times,serif" font-size="14.00" fill="#000000">broadcast</text>
</g>
<!-- Map 8 -->
<g id="node8" class="node">
<title>Map 8</title>
<ellipse fill="none" stroke="#000000" cx="527.3713" cy="-276" rx="32.8992" ry="18"/>
<text text-anchor="middle" x="527.3713" y="-271.8" font-family="Times,serif" font-size="14.00" fill="#000000">Map 8</text>
</g>
<!-- Map 8&#45;&gt;Reducer 21 -->
<g id="edge6" class="edge">
<title>Map 8&#45;&gt;Reducer 21</title>
<path fill="none" stroke="#000000" d="M554.9105,-266.0941C564.1683,-263.09 574.6214,-260.047 584.3713,-258 656.9981,-242.7519 678.5176,-258.553 750.3713,-240 765.9394,-235.9802 768.2768,-230.442 783.7297,-226 836.9602,-210.6986 899.4385,-201.2461 944.1216,-195.8897"/>
<polygon fill="#000000" stroke="#000000" points="944.6992,-199.3462 954.2266,-194.7118 943.8886,-192.3933 944.6992,-199.3462"/>
<text text-anchor="middle" x="810.1921" y="-228.8" font-family="Times,serif" font-size="14.00" fill="#000000">broadcast</text>
</g>
<!-- Map 8&#45;&gt;Reducer 2 -->
<g id="edge34" class="edge">
<title>Map 8&#45;&gt;Reducer 2</title>
<path fill="none" stroke="#000000" d="M502.4368,-264.0624C496.9135,-261.7732 491.0207,-259.5959 485.3713,-258 432.3547,-243.0237 414.927,-257.6209 362.7297,-240 342.2339,-233.081 320.9861,-221.5772 304.248,-211.3473"/>
<polygon fill="#000000" stroke="#000000" points="305.7788,-208.1762 295.4465,-205.8323 302.062,-214.1079 305.7788,-208.1762"/>
<text text-anchor="middle" x="389.1921" y="-228.8" font-family="Times,serif" font-size="14.00" fill="#000000">broadcast</text>
</g>
<!-- Map 8&#45;&gt;Reducer 16 -->
<g id="edge19" class="edge">
<title>Map 8&#45;&gt;Reducer 16</title>
<path fill="none" stroke="#000000" d="M504.4035,-262.8333C489.978,-252.8667 475.8239,-238.7608 485.7297,-226 488.576,-222.3333 534.7304,-210.963 573.4005,-201.9708"/>
<polygon fill="#000000" stroke="#000000" points="574.597,-205.2866 583.5518,-199.6242 573.0204,-198.4664 574.597,-205.2866"/>
<text text-anchor="middle" x="512.1921" y="-228.8" font-family="Times,serif" font-size="14.00" fill="#000000">broadcast</text>
</g>
<!-- Map 9 -->
<g id="node9" class="node">
<title>Map 9</title>
<ellipse fill="none" stroke="#000000" cx="552.3713" cy="-448" rx="32.8992" ry="18"/>
<text text-anchor="middle" x="552.3713" y="-443.8" font-family="Times,serif" font-size="14.00" fill="#000000">Map 9</text>
</g>
<!-- Map 9&#45;&gt;Reducer 10 -->
<g id="edge22" class="edge">
<title>Map 9&#45;&gt;Reducer 10</title>
<path fill="none" stroke="#000000" d="M519.3791,-446.4956C438.9592,-442.5481 237.6697,-430.8765 214.1574,-412 207.3552,-406.5389 203.291,-398.2182 200.8691,-389.9225"/>
<polygon fill="#000000" stroke="#000000" points="204.2509,-389.0067 198.6557,-380.0098 197.4191,-390.5322 204.2509,-389.0067"/>
<text text-anchor="middle" x="237.4782" y="-400.8" font-family="Times,serif" font-size="14.00" fill="#000000">unsorted</text>
</g>
<!-- Map 9&#45;&gt;Reducer 21 -->
<g id="edge7" class="edge">
<title>Map 9&#45;&gt;Reducer 21</title>
<path fill="none" stroke="#000000" d="M584.529,-444.05C658.2196,-433.3737 841.0333,-397.4178 946.3713,-294 968.3845,-272.388 984.1551,-240.4498 993.45,-217.6754"/>
<polygon fill="#000000" stroke="#000000" points="996.7614,-218.8177 997.1502,-208.23 990.2437,-216.2643 996.7614,-218.8177"/>
<text text-anchor="middle" x="950.1921" y="-314.8" font-family="Times,serif" font-size="14.00" fill="#000000">broadcast</text>
</g>
<!-- Map 9&#45;&gt;Reducer 2 -->
<g id="edge35" class="edge">
<title>Map 9&#45;&gt;Reducer 2</title>
<path fill="none" stroke="#000000" d="M523.4063,-439.2913C477.2176,-423.9383 386.9795,-387.7031 336.7297,-326 309.8752,-293.0247 291.1482,-246.9872 281.0722,-217.8381"/>
<polygon fill="#000000" stroke="#000000" points="284.3657,-216.6509 277.8698,-208.2811 277.7284,-218.875 284.3657,-216.6509"/>
<text text-anchor="middle" x="363.1921" y="-314.8" font-family="Times,serif" font-size="14.00" fill="#000000">broadcast</text>
</g>
<!-- Map 9&#45;&gt;Reducer 16 -->
<g id="edge20" class="edge">
<title>Map 9&#45;&gt;Reducer 16</title>
<path fill="none" stroke="#000000" d="M527.9487,-435.8496C477.2083,-408.741 367.1954,-339.2683 393.3713,-258 414.3993,-192.7143 471.8263,-219.9191 539.3713,-208 550.3029,-206.071 561.964,-203.804 573.0805,-201.5415"/>
<polygon fill="#000000" stroke="#000000" points="574.0131,-204.9229 583.0999,-199.4748 572.5989,-198.0672 574.0131,-204.9229"/>
<text text-anchor="middle" x="426.1921" y="-314.8" font-family="Times,serif" font-size="14.00" fill="#000000">broadcast</text>
</g>
<!-- Reducer 11 -->
<g id="node20" class="node">
<title>Reducer 11</title>
<ellipse fill="none" stroke="#000000" cx="723.3713" cy="-362" rx="50.1002" ry="18"/>
<text text-anchor="middle" x="723.3713" y="-357.8" font-family="Times,serif" font-size="14.00" fill="#000000">Reducer 11</text>
</g>
<!-- Map 9&#45;&gt;Reducer 11 -->
<g id="edge21" class="edge">
<title>Map 9&#45;&gt;Reducer 11</title>
<path fill="none" stroke="#000000" d="M576.8714,-435.6783C605.1499,-421.4564 652.0044,-397.8921 685.1006,-381.2473"/>
<polygon fill="#000000" stroke="#000000" points="686.6825,-384.3695 694.0437,-376.7495 683.5373,-378.1158 686.6825,-384.3695"/>
<text text-anchor="middle" x="671.4782" y="-400.8" font-family="Times,serif" font-size="14.00" fill="#000000">unsorted</text>
</g>
<!-- Reducer 12 -->
<g id="node21" class="node">
<title>Reducer 12</title>
<ellipse fill="none" stroke="#000000" cx="1050.3713" cy="-362" rx="50.7474" ry="18"/>
<text text-anchor="middle" x="1050.3713" y="-357.8" font-family="Times,serif" font-size="14.00" fill="#000000">Reducer 12</text>
</g>
<!-- Map 9&#45;&gt;Reducer 12 -->
<g id="edge23" class="edge">
<title>Map 9&#45;&gt;Reducer 12</title>
<path fill="none" stroke="#000000" d="M585.5668,-447.6505C673.8179,-446.3413 912.4745,-440.2172 985.3713,-412 1000.3289,-406.2102 1014.7095,-395.8333 1026.1244,-386.0279"/>
<polygon fill="#000000" stroke="#000000" points="1028.7777,-388.3492 1033.8778,-379.0627 1024.0997,-383.1418 1028.7777,-388.3492"/>
<text text-anchor="middle" x="1032.4782" y="-400.8" font-family="Times,serif" font-size="14.00" fill="#000000">unsorted</text>
</g>
<!-- Union 4 -->
<g id="node11" class="node">
<title>Union 4</title>
<ellipse fill="none" stroke="#000000" cx="491.3713" cy="-190" rx="38.6968" ry="18"/>
<text text-anchor="middle" x="491.3713" y="-185.8" font-family="Times,serif" font-size="14.00" fill="#000000">Union 4</text>
</g>
<!-- Union 4&#45;&gt;Reducer 22 -->
<g id="edge9" class="edge">
<title>Union 4&#45;&gt;Reducer 22</title>
<path fill="none" stroke="#000000" d="M515.1475,-175.6248C538.4348,-161.6532 571.3709,-142.2204 578.0471,-140 621.4373,-125.5693 744.5262,-114.1567 819.2818,-108.3041"/>
<polygon fill="#000000" stroke="#000000" points="819.7951,-111.7749 829.496,-107.5154 819.2562,-104.7957 819.7951,-111.7749"/>
<text text-anchor="middle" x="592.5334" y="-142.8" font-family="Times,serif" font-size="14.00" fill="#000000">None</text>
</g>
<!-- Reducer 3 -->
<g id="node13" class="node">
<title>Reducer 3</title>
<ellipse fill="none" stroke="#000000" cx="353.3713" cy="-104" rx="46.4045" ry="18"/>
<text text-anchor="middle" x="353.3713" y="-99.8" font-family="Times,serif" font-size="14.00" fill="#000000">Reducer 3</text>
</g>
<!-- Union 4&#45;&gt;Reducer 3 -->
<g id="edge11" class="edge">
<title>Union 4&#45;&gt;Reducer 3</title>
<path fill="none" stroke="#000000" d="M465.2819,-176.3873C453.187,-169.8829 438.7179,-161.8236 426.0471,-154 411.8595,-145.2399 396.5945,-134.8873 383.7347,-125.8812"/>
<polygon fill="#000000" stroke="#000000" points="385.4467,-122.8056 375.2588,-119.8975 381.4096,-128.5241 385.4467,-122.8056"/>
<text text-anchor="middle" x="440.5334" y="-142.8" font-family="Times,serif" font-size="14.00" fill="#000000">None</text>
</g>
<!-- Reducer 17 -->
<g id="node16" class="node">
<title>Reducer 17</title>
<ellipse fill="none" stroke="#000000" cx="602.3713" cy="-104" rx="50.7474" ry="18"/>
<text text-anchor="middle" x="602.3713" y="-99.8" font-family="Times,serif" font-size="14.00" fill="#000000">Reducer 17</text>
</g>
<!-- Union 4&#45;&gt;Reducer 17 -->
<g id="edge14" class="edge">
<title>Union 4&#45;&gt;Reducer 17</title>
<path fill="none" stroke="#000000" d="M498.7292,-171.9169C503.7338,-161.469 511.2331,-148.7114 521.0471,-140 530.6142,-131.5077 542.5068,-124.7416 554.2176,-119.4738"/>
<polygon fill="#000000" stroke="#000000" points="555.6578,-122.6651 563.5225,-115.566 552.9473,-116.2112 555.6578,-122.6651"/>
<text text-anchor="middle" x="535.5334" y="-142.8" font-family="Times,serif" font-size="14.00" fill="#000000">None</text>
</g>
<!-- Reducer 5 -->
<g id="node22" class="node">
<title>Reducer 5</title>
<ellipse fill="none" stroke="#000000" cx="463.3713" cy="-104" rx="46.4045" ry="18"/>
<text text-anchor="middle" x="463.3713" y="-99.8" font-family="Times,serif" font-size="14.00" fill="#000000">Reducer 5</text>
</g>
<!-- Union 4&#45;&gt;Reducer 5 -->
<g id="edge24" class="edge">
<title>Union 4&#45;&gt;Reducer 5</title>
<path fill="none" stroke="#000000" d="M475.35,-173.3627C470.8603,-167.6673 466.5544,-160.9638 464.1574,-154 461.8034,-147.1609 460.8982,-139.4777 460.7483,-132.2241"/>
<polygon fill="#000000" stroke="#000000" points="464.2513,-132.1323 460.9882,-122.0526 457.2533,-131.9673 464.2513,-132.1323"/>
<text text-anchor="middle" x="480.4782" y="-142.8" font-family="Times,serif" font-size="14.00" fill="#000000">sorted</text>
</g>
<!-- Reducer 2&#45;&gt;Reducer 3 -->
<g id="edge10" class="edge">
<title>Reducer 2&#45;&gt;Reducer 3</title>
<path fill="none" stroke="#000000" d="M288.3743,-173.0092C300.3559,-160.288 316.9194,-142.702 330.3268,-128.467"/>
<polygon fill="#000000" stroke="#000000" points="333.0931,-130.6348 337.4015,-120.9555 327.9974,-125.8354 333.0931,-130.6348"/>
<text text-anchor="middle" x="334.4782" y="-142.8" font-family="Times,serif" font-size="14.00" fill="#000000">sorted</text>
</g>
<!-- Map 1&#45;&gt;Reducer 2 -->
<g id="edge30" class="edge">
<title>Map 1&#45;&gt;Reducer 2</title>
<path fill="none" stroke="#000000" d="M131.4297,-257.9619C135.8828,-247.263 142.9514,-234.2266 153.1574,-226 171.6226,-211.1161 196.1531,-202.3777 218.1601,-197.2509"/>
<polygon fill="#000000" stroke="#000000" points="219.0122,-200.648 228.063,-195.1404 217.5531,-193.8017 219.0122,-200.648"/>
<text text-anchor="middle" x="176.4782" y="-228.8" font-family="Times,serif" font-size="14.00" fill="#000000">unsorted</text>
</g>
<!-- Reducer 16&#45;&gt;Reducer 17 -->
<g id="edge13" class="edge">
<title>Reducer 16&#45;&gt;Reducer 17</title>
<path fill="none" stroke="#000000" d="M621.2815,-171.7616C618.046,-160.1678 613.7939,-144.931 610.1413,-131.8426"/>
<polygon fill="#000000" stroke="#000000" points="613.4307,-130.6083 607.3714,-121.9172 606.6883,-132.49 613.4307,-130.6083"/>
<text text-anchor="middle" x="632.4782" y="-142.8" font-family="Times,serif" font-size="14.00" fill="#000000">sorted</text>
</g>
<!-- Map 15 -->
<g id="node17" class="node">
<title>Map 15</title>
<ellipse fill="none" stroke="#000000" cx="723.3713" cy="-276" rx="37.243" ry="18"/>
<text text-anchor="middle" x="723.3713" y="-271.8" font-family="Times,serif" font-size="14.00" fill="#000000">Map 15</text>
</g>
<!-- Map 15&#45;&gt;Reducer 16 -->
<g id="edge16" class="edge">
<title>Map 15&#45;&gt;Reducer 16</title>
<path fill="none" stroke="#000000" d="M712.8591,-258.4432C706.1448,-248.1818 696.7659,-235.4356 686.3713,-226 679.9063,-220.1315 672.342,-214.7206 664.8052,-209.9728"/>
<polygon fill="#000000" stroke="#000000" points="666.4142,-206.8567 656.0378,-204.7163 662.8147,-212.8603 666.4142,-206.8567"/>
<text text-anchor="middle" x="722.4782" y="-228.8" font-family="Times,serif" font-size="14.00" fill="#000000">unsorted</text>
</g>
<!-- Map 18 -->
<g id="node18" class="node">
<title>Map 18</title>
<ellipse fill="none" stroke="#000000" cx="900.3713" cy="-276" rx="37.243" ry="18"/>
<text text-anchor="middle" x="900.3713" y="-271.8" font-family="Times,serif" font-size="14.00" fill="#000000">Map 18</text>
</g>
<!-- Map 18&#45;&gt;Reducer 16 -->
<g id="edge17" class="edge">
<title>Map 18&#45;&gt;Reducer 16</title>
<path fill="none" stroke="#000000" d="M914.3187,-259.0665C921.2452,-248.5264 926.5608,-235.2612 918.3713,-226 903.3032,-208.9601 767.826,-198.2035 686.8028,-193.2364"/>
<polygon fill="#000000" stroke="#000000" points="686.9111,-189.7367 676.7193,-192.6308 686.4914,-196.7241 686.9111,-189.7367"/>
<text text-anchor="middle" x="946.4782" y="-228.8" font-family="Times,serif" font-size="14.00" fill="#000000">unsorted</text>
</g>
<!-- Map 19 -->
<g id="node19" class="node">
<title>Map 19</title>
<ellipse fill="none" stroke="#000000" cx="439.3713" cy="-276" rx="37.243" ry="18"/>
<text text-anchor="middle" x="439.3713" y="-271.8" font-family="Times,serif" font-size="14.00" fill="#000000">Map 19</text>
</g>
<!-- Map 19&#45;&gt;Reducer 16 -->
<g id="edge18" class="edge">
<title>Map 19&#45;&gt;Reducer 16</title>
<path fill="none" stroke="#000000" d="M426.9315,-258.5581C421.1048,-248.0836 416.9695,-235.0737 424.7297,-226 441.4908,-206.4019 513.9994,-212.6137 539.3713,-208 550.2927,-206.014 561.9493,-203.7221 573.0647,-201.4531"/>
<polygon fill="#000000" stroke="#000000" points="573.9977,-204.8344 583.0838,-199.3853 572.5828,-197.9789 573.9977,-204.8344"/>
<text text-anchor="middle" x="451.1921" y="-228.8" font-family="Times,serif" font-size="14.00" fill="#000000">broadcast</text>
</g>
<!-- Reducer 11&#45;&gt;Map 15 -->
<g id="edge29" class="edge">
<title>Reducer 11&#45;&gt;Map 15</title>
<path fill="none" stroke="#000000" d="M723.3713,-343.7616C723.3713,-332.3597 723.3713,-317.4342 723.3713,-304.494"/>
<polygon fill="#000000" stroke="#000000" points="726.8714,-304.2121 723.3713,-294.2121 719.8714,-304.2121 726.8714,-304.2121"/>
<text text-anchor="middle" x="750.1921" y="-314.8" font-family="Times,serif" font-size="14.00" fill="#000000">broadcast</text>
</g>
<!-- Reducer 11&#45;&gt;Map 18 -->
<g id="edge28" class="edge">
<title>Reducer 11&#45;&gt;Map 18</title>
<path fill="none" stroke="#000000" d="M753.3969,-347.4113C784.1878,-332.4507 832.0716,-309.1852 864.7568,-293.3042"/>
<polygon fill="#000000" stroke="#000000" points="866.4958,-296.3506 873.9608,-288.8322 863.4367,-290.0544 866.4958,-296.3506"/>
<text text-anchor="middle" x="849.1921" y="-314.8" font-family="Times,serif" font-size="14.00" fill="#000000">broadcast</text>
</g>
<!-- Reducer 12&#45;&gt;Map 20 -->
<g id="edge27" class="edge">
<title>Reducer 12&#45;&gt;Map 20</title>
<path fill="none" stroke="#000000" d="M1076.8107,-346.6277C1085.3086,-340.8707 1094.3348,-333.8105 1101.3713,-326 1107.4977,-319.1996 1112.837,-310.8295 1117.1637,-302.8961"/>
<polygon fill="#000000" stroke="#000000" points="1120.3254,-304.4006 1121.7641,-293.9039 1114.0936,-301.2124 1120.3254,-304.4006"/>
<text text-anchor="middle" x="1138.1921" y="-314.8" font-family="Times,serif" font-size="14.00" fill="#000000">broadcast</text>
</g>
<!-- Reducer 12&#45;&gt;Map 23 -->
<g id="edge26" class="edge">
<title>Reducer 12&#45;&gt;Map 23</title>
<path fill="none" stroke="#000000" d="M1047.4023,-343.7616C1045.5276,-332.2456 1043.0677,-317.1353 1040.9468,-304.1064"/>
<polygon fill="#000000" stroke="#000000" points="1044.3974,-303.5198 1039.3361,-294.2121 1037.4884,-304.6446 1044.3974,-303.5198"/>
<text text-anchor="middle" x="1070.1921" y="-314.8" font-family="Times,serif" font-size="14.00" fill="#000000">broadcast</text>
</g>
<!-- Reducer 6 -->
<g id="node23" class="node">
<title>Reducer 6</title>
<ellipse fill="none" stroke="#000000" cx="463.3713" cy="-18" rx="46.4045" ry="18"/>
<text text-anchor="middle" x="463.3713" y="-13.8" font-family="Times,serif" font-size="14.00" fill="#000000">Reducer 6</text>
</g>
<!-- Reducer 5&#45;&gt;Reducer 6 -->
<g id="edge25" class="edge">
<title>Reducer 5&#45;&gt;Reducer 6</title>
<path fill="none" stroke="#000000" d="M463.3713,-85.7616C463.3713,-74.3597 463.3713,-59.4342 463.3713,-46.494"/>
<polygon fill="#000000" stroke="#000000" points="466.8714,-46.2121 463.3713,-36.2121 459.8714,-46.2121 466.8714,-46.2121"/>
<text text-anchor="middle" x="480.4782" y="-56.8" font-family="Times,serif" font-size="14.00" fill="#000000">sorted</text>
</g>
<!-- Map 14 -->
<g id="node24" class="node">
<title>Map 14</title>
<ellipse fill="none" stroke="#000000" cx="37.3713" cy="-276" rx="37.243" ry="18"/>
<text text-anchor="middle" x="37.3713" y="-271.8" font-family="Times,serif" font-size="14.00" fill="#000000">Map 14</text>
</g>
<!-- Map 14&#45;&gt;Reducer 2 -->
<g id="edge32" class="edge">
<title>Map 14&#45;&gt;Reducer 2</title>
<path fill="none" stroke="#000000" d="M49.0972,-258.483C57.4436,-247.4249 69.647,-233.8011 83.7297,-226 106.2822,-213.507 170.431,-202.9701 217.688,-196.5853"/>
<polygon fill="#000000" stroke="#000000" points="218.3402,-200.0296 227.7946,-195.2477 217.4218,-193.0901 218.3402,-200.0296"/>
<text text-anchor="middle" x="111.1921" y="-228.8" font-family="Times,serif" font-size="14.00" fill="#000000">broadcast</text>
</g>
</g>
</svg>
