<?xml version="1.0" encoding="UTF-8" standalone="no"?>
<!DOCTYPE svg PUBLIC "-//W3C//DTD SVG 1.1//EN"
 "http://www.w3.org/Graphics/SVG/1.1/DTD/svg11.dtd">
<!-- Generated by graphviz version 2.40.1 (20161225.0304)
 -->
<!-- Title: %3 Pages: 1 -->
<svg width="845pt" height="646pt"
 viewBox="0.00 0.00 845.23 646.00" xmlns="http://www.w3.org/2000/svg" xmlns:xlink="http://www.w3.org/1999/xlink">
<g id="graph0" class="graph" transform="scale(1 1) rotate(0) translate(4 642)">
<title>%3</title>
<polygon fill="#ffffff" stroke="transparent" points="-4,4 -4,-642 841.2297,-642 841.2297,4 -4,4"/>
<!-- Reducer 18 -->
<g id="node1" class="node">
<title>Reducer 18</title>
<ellipse fill="none" stroke="#000000" cx="183.0158" cy="-190" rx="50.7474" ry="18"/>
<text text-anchor="middle" x="183.0158" y="-185.8" font-family="Times,serif" font-size="14.00" fill="#000000">Reducer 18</text>
</g>
<!-- Reducer 19 -->
<g id="node2" class="node">
<title>Reducer 19</title>
<ellipse fill="none" stroke="#000000" cx="183.0158" cy="-104" rx="50.7474" ry="18"/>
<text text-anchor="middle" x="183.0158" y="-99.8" font-family="Times,serif" font-size="14.00" fill="#000000">Reducer 19</text>
</g>
<!-- Reducer 18&#45;&gt;Reducer 19 -->
<g id="edge1" class="edge">
<title>Reducer 18&#45;&gt;Reducer 19</title>
<path fill="none" stroke="#000000" d="M183.0158,-171.7616C183.0158,-160.3597 183.0158,-145.4342 183.0158,-132.494"/>
<polygon fill="#000000" stroke="#000000" points="186.5159,-132.2121 183.0158,-122.2121 179.5159,-132.2121 186.5159,-132.2121"/>
<text text-anchor="middle" x="200.1227" y="-142.8" font-family="Times,serif" font-size="14.00" fill="#000000">sorted</text>
</g>
<!-- Union 6 -->
<g id="node3" class="node">
<title>Union 6</title>
<ellipse fill="none" stroke="#000000" cx="296.0158" cy="-190" rx="38.6968" ry="18"/>
<text text-anchor="middle" x="296.0158" y="-185.8" font-family="Times,serif" font-size="14.00" fill="#000000">Union 6</text>
</g>
<!-- Union 6&#45;&gt;Reducer 19 -->
<g id="edge2" class="edge">
<title>Union 6&#45;&gt;Reducer 19</title>
<path fill="none" stroke="#000000" d="M275.8136,-174.6249C258.2609,-161.2662 232.6027,-141.7387 212.7127,-126.6012"/>
<polygon fill="#000000" stroke="#000000" points="214.6593,-123.6843 204.582,-120.4132 210.4199,-129.2546 214.6593,-123.6843"/>
<text text-anchor="middle" x="262.1779" y="-142.8" font-family="Times,serif" font-size="14.00" fill="#000000">None</text>
</g>
<!-- Reducer 5 -->
<g id="node26" class="node">
<title>Reducer 5</title>
<ellipse fill="none" stroke="#000000" cx="298.0158" cy="-104" rx="46.4045" ry="18"/>
<text text-anchor="middle" x="298.0158" y="-99.8" font-family="Times,serif" font-size="14.00" fill="#000000">Reducer 5</text>
</g>
<!-- Union 6&#45;&gt;Reducer 5 -->
<g id="edge28" class="edge">
<title>Union 6&#45;&gt;Reducer 5</title>
<path fill="none" stroke="#000000" d="M296.1586,-171.9463C296.2594,-162.4398 296.4253,-150.5879 296.6916,-140 296.7526,-137.5733 296.8255,-135.055 296.9054,-132.5286"/>
<polygon fill="#000000" stroke="#000000" points="300.411,-132.4269 297.2598,-122.3116 293.4152,-132.1842 300.411,-132.4269"/>
<text text-anchor="middle" x="312.1779" y="-142.8" font-family="Times,serif" font-size="14.00" fill="#000000">None</text>
</g>
<!-- Reducer 7 -->
<g id="node28" class="node">
<title>Reducer 7</title>
<ellipse fill="none" stroke="#000000" cx="450.0158" cy="-104" rx="46.4045" ry="18"/>
<text text-anchor="middle" x="450.0158" y="-99.8" font-family="Times,serif" font-size="14.00" fill="#000000">Reducer 7</text>
</g>
<!-- Union 6&#45;&gt;Reducer 7 -->
<g id="edge30" class="edge">
<title>Union 6&#45;&gt;Reducer 7</title>
<path fill="none" stroke="#000000" d="M309.6845,-172.6981C318.9061,-162.011 331.895,-148.7204 345.8019,-140 362.3587,-129.618 382.2843,-121.7912 400.2584,-116.1327"/>
<polygon fill="#000000" stroke="#000000" points="401.4356,-119.4337 410.0095,-113.2097 399.4256,-112.7285 401.4356,-119.4337"/>
<text text-anchor="middle" x="363.1227" y="-142.8" font-family="Times,serif" font-size="14.00" fill="#000000">sorted</text>
</g>
<!-- Reducer 17 -->
<g id="node4" class="node">
<title>Reducer 17</title>
<ellipse fill="none" stroke="#000000" cx="183.0158" cy="-276" rx="50.7474" ry="18"/>
<text text-anchor="middle" x="183.0158" y="-271.8" font-family="Times,serif" font-size="14.00" fill="#000000">Reducer 17</text>
</g>
<!-- Reducer 17&#45;&gt;Reducer 18 -->
<g id="edge3" class="edge">
<title>Reducer 17&#45;&gt;Reducer 18</title>
<path fill="none" stroke="#000000" d="M183.0158,-257.7616C183.0158,-246.3597 183.0158,-231.4342 183.0158,-218.494"/>
<polygon fill="#000000" stroke="#000000" points="186.5159,-218.2121 183.0158,-208.2121 179.5159,-218.2121 186.5159,-218.2121"/>
<text text-anchor="middle" x="200.1227" y="-228.8" font-family="Times,serif" font-size="14.00" fill="#000000">sorted</text>
</g>
<!-- Map 12 -->
<g id="node5" class="node">
<title>Map 12</title>
<ellipse fill="none" stroke="#000000" cx="341.0158" cy="-620" rx="37.243" ry="18"/>
<text text-anchor="middle" x="341.0158" y="-615.8" font-family="Times,serif" font-size="14.00" fill="#000000">Map 12</text>
</g>
<!-- Reducer 14 -->
<g id="node6" class="node">
<title>Reducer 14</title>
<ellipse fill="none" stroke="#000000" cx="341.0158" cy="-534" rx="50.7474" ry="18"/>
<text text-anchor="middle" x="341.0158" y="-529.8" font-family="Times,serif" font-size="14.00" fill="#000000">Reducer 14</text>
</g>
<!-- Map 12&#45;&gt;Reducer 14 -->
<g id="edge4" class="edge">
<title>Map 12&#45;&gt;Reducer 14</title>
<path fill="none" stroke="#000000" d="M341.0158,-601.7616C341.0158,-590.3597 341.0158,-575.4342 341.0158,-562.494"/>
<polygon fill="#000000" stroke="#000000" points="344.5159,-562.2121 341.0158,-552.2121 337.5159,-562.2121 344.5159,-562.2121"/>
<text text-anchor="middle" x="365.1227" y="-572.8" font-family="Times,serif" font-size="14.00" fill="#000000">unsorted</text>
</g>
<!-- Reducer 13 -->
<g id="node12" class="node">
<title>Reducer 13</title>
<ellipse fill="none" stroke="#000000" cx="460.0158" cy="-534" rx="50.7474" ry="18"/>
<text text-anchor="middle" x="460.0158" y="-529.8" font-family="Times,serif" font-size="14.00" fill="#000000">Reducer 13</text>
</g>
<!-- Map 12&#45;&gt;Reducer 13 -->
<g id="edge9" class="edge">
<title>Map 12&#45;&gt;Reducer 13</title>
<path fill="none" stroke="#000000" d="M362.6407,-605.2826C372.0294,-598.8276 383.1199,-591.1146 393.0158,-584 405.3434,-575.1371 418.7838,-565.1686 430.369,-556.4779"/>
<polygon fill="#000000" stroke="#000000" points="432.5478,-559.2187 438.4345,-550.4097 428.3393,-553.625 432.5478,-559.2187"/>
<text text-anchor="middle" x="436.1227" y="-572.8" font-family="Times,serif" font-size="14.00" fill="#000000">unsorted</text>
</g>
<!-- Reducer 2 -->
<g id="node29" class="node">
<title>Reducer 2</title>
<ellipse fill="none" stroke="#000000" cx="406.0158" cy="-362" rx="46.4045" ry="18"/>
<text text-anchor="middle" x="406.0158" y="-357.8" font-family="Times,serif" font-size="14.00" fill="#000000">Reducer 2</text>
</g>
<!-- Map 12&#45;&gt;Reducer 2 -->
<g id="edge34" class="edge">
<title>Map 12&#45;&gt;Reducer 2</title>
<path fill="none" stroke="#000000" d="M321.2157,-604.5189C307.0161,-592.0712 289.034,-573.2063 281.0158,-552 275.3571,-537.0341 278.2072,-531.7516 281.0158,-516 291.1295,-459.2778 341.421,-410.9156 375.0498,-384.2162"/>
<polygon fill="#000000" stroke="#000000" points="377.4404,-386.7918 383.2059,-377.9031 373.1557,-381.2564 377.4404,-386.7918"/>
<text text-anchor="middle" x="315.1227" y="-486.8" font-family="Times,serif" font-size="14.00" fill="#000000">unsorted</text>
</g>
<!-- Map 1 -->
<g id="node24" class="node">
<title>Map 1</title>
<ellipse fill="none" stroke="#000000" cx="410.0158" cy="-448" rx="32.8992" ry="18"/>
<text text-anchor="middle" x="410.0158" y="-443.8" font-family="Times,serif" font-size="14.00" fill="#000000">Map 1</text>
</g>
<!-- Reducer 14&#45;&gt;Map 1 -->
<g id="edge26" class="edge">
<title>Reducer 14&#45;&gt;Map 1</title>
<path fill="none" stroke="#000000" d="M341.304,-515.9645C342.2633,-505.7859 344.8529,-493.2859 351.3742,-484 357.1831,-475.7284 365.5579,-468.9919 374.168,-463.6795"/>
<polygon fill="#000000" stroke="#000000" points="376.1183,-466.5986 383.1281,-458.6542 372.6941,-460.4933 376.1183,-466.5986"/>
<text text-anchor="middle" x="378.8366" y="-486.8" font-family="Times,serif" font-size="14.00" fill="#000000">broadcast</text>
</g>
<!-- Reducer 16 -->
<g id="node7" class="node">
<title>Reducer 16</title>
<ellipse fill="none" stroke="#000000" cx="183.0158" cy="-362" rx="50.7474" ry="18"/>
<text text-anchor="middle" x="183.0158" y="-357.8" font-family="Times,serif" font-size="14.00" fill="#000000">Reducer 16</text>
</g>
<!-- Reducer 16&#45;&gt;Reducer 17 -->
<g id="edge5" class="edge">
<title>Reducer 16&#45;&gt;Reducer 17</title>
<path fill="none" stroke="#000000" d="M183.0158,-343.7616C183.0158,-332.3597 183.0158,-317.4342 183.0158,-304.494"/>
<polygon fill="#000000" stroke="#000000" points="186.5159,-304.2121 183.0158,-294.2121 179.5159,-304.2121 186.5159,-304.2121"/>
<text text-anchor="middle" x="200.1227" y="-314.8" font-family="Times,serif" font-size="14.00" fill="#000000">sorted</text>
</g>
<!-- Map 15 -->
<g id="node8" class="node">
<title>Map 15</title>
<ellipse fill="none" stroke="#000000" cx="183.0158" cy="-448" rx="37.243" ry="18"/>
<text text-anchor="middle" x="183.0158" y="-443.8" font-family="Times,serif" font-size="14.00" fill="#000000">Map 15</text>
</g>
<!-- Map 15&#45;&gt;Reducer 16 -->
<g id="edge6" class="edge">
<title>Map 15&#45;&gt;Reducer 16</title>
<path fill="none" stroke="#000000" d="M183.0158,-429.7616C183.0158,-418.3597 183.0158,-403.4342 183.0158,-390.494"/>
<polygon fill="#000000" stroke="#000000" points="186.5159,-390.2121 183.0158,-380.2121 179.5159,-390.2121 186.5159,-390.2121"/>
<text text-anchor="middle" x="207.1227" y="-400.8" font-family="Times,serif" font-size="14.00" fill="#000000">unsorted</text>
</g>
<!-- Map 20 -->
<g id="node9" class="node">
<title>Map 20</title>
<ellipse fill="none" stroke="#000000" cx="64.0158" cy="-620" rx="37.243" ry="18"/>
<text text-anchor="middle" x="64.0158" y="-615.8" font-family="Times,serif" font-size="14.00" fill="#000000">Map 20</text>
</g>
<!-- Map 20&#45;&gt;Reducer 16 -->
<g id="edge7" class="edge">
<title>Map 20&#45;&gt;Reducer 16</title>
<path fill="none" stroke="#000000" d="M44.4419,-604.6283C21.6651,-584.7482 -11.0227,-548.7763 4.0158,-516 32.8243,-453.212 101.267,-406.3568 144.6822,-381.6647"/>
<polygon fill="#000000" stroke="#000000" points="146.5067,-384.655 153.5434,-376.7344 143.1032,-378.538 146.5067,-384.655"/>
<text text-anchor="middle" x="47.1227" y="-486.8" font-family="Times,serif" font-size="14.00" fill="#000000">unsorted</text>
</g>
<!-- Reducer 21 -->
<g id="node16" class="node">
<title>Reducer 21</title>
<ellipse fill="none" stroke="#000000" cx="183.0158" cy="-534" rx="50.7474" ry="18"/>
<text text-anchor="middle" x="183.0158" y="-529.8" font-family="Times,serif" font-size="14.00" fill="#000000">Reducer 21</text>
</g>
<!-- Map 20&#45;&gt;Reducer 21 -->
<g id="edge12" class="edge">
<title>Map 20&#45;&gt;Reducer 21</title>
<path fill="none" stroke="#000000" d="M85.6407,-605.2826C95.0294,-598.8276 106.1199,-591.1146 116.0158,-584 128.3434,-575.1371 141.7838,-565.1686 153.369,-556.4779"/>
<polygon fill="#000000" stroke="#000000" points="155.5478,-559.2187 161.4345,-550.4097 151.3393,-553.625 155.5478,-559.2187"/>
<text text-anchor="middle" x="159.1227" y="-572.8" font-family="Times,serif" font-size="14.00" fill="#000000">unsorted</text>
</g>
<!-- Reducer 22 -->
<g id="node17" class="node">
<title>Reducer 22</title>
<ellipse fill="none" stroke="#000000" cx="64.0158" cy="-534" rx="50.7474" ry="18"/>
<text text-anchor="middle" x="64.0158" y="-529.8" font-family="Times,serif" font-size="14.00" fill="#000000">Reducer 22</text>
</g>
<!-- Map 20&#45;&gt;Reducer 22 -->
<g id="edge13" class="edge">
<title>Map 20&#45;&gt;Reducer 22</title>
<path fill="none" stroke="#000000" d="M64.0158,-601.7616C64.0158,-590.3597 64.0158,-575.4342 64.0158,-562.494"/>
<polygon fill="#000000" stroke="#000000" points="67.5159,-562.2121 64.0158,-552.2121 60.5159,-562.2121 67.5159,-562.2121"/>
<text text-anchor="middle" x="88.1227" y="-572.8" font-family="Times,serif" font-size="14.00" fill="#000000">unsorted</text>
</g>
<!-- Reducer 9 -->
<g id="node10" class="node">
<title>Reducer 9</title>
<ellipse fill="none" stroke="#000000" cx="581.0158" cy="-104" rx="46.4045" ry="18"/>
<text text-anchor="middle" x="581.0158" y="-99.8" font-family="Times,serif" font-size="14.00" fill="#000000">Reducer 9</text>
</g>
<!-- Reducer 10 -->
<g id="node11" class="node">
<title>Reducer 10</title>
<ellipse fill="none" stroke="#000000" cx="581.0158" cy="-18" rx="50.7474" ry="18"/>
<text text-anchor="middle" x="581.0158" y="-13.8" font-family="Times,serif" font-size="14.00" fill="#000000">Reducer 10</text>
</g>
<!-- Reducer 9&#45;&gt;Reducer 10 -->
<g id="edge8" class="edge">
<title>Reducer 9&#45;&gt;Reducer 10</title>
<path fill="none" stroke="#000000" d="M581.0158,-85.7616C581.0158,-74.3597 581.0158,-59.4342 581.0158,-46.494"/>
<polygon fill="#000000" stroke="#000000" points="584.5159,-46.2121 581.0158,-36.2121 577.5159,-46.2121 584.5159,-46.2121"/>
<text text-anchor="middle" x="598.1227" y="-56.8" font-family="Times,serif" font-size="14.00" fill="#000000">sorted</text>
</g>
<!-- Reducer 13&#45;&gt;Map 1 -->
<g id="edge25" class="edge">
<title>Reducer 13&#45;&gt;Map 1</title>
<path fill="none" stroke="#000000" d="M431.8894,-518.9927C424.2287,-513.4578 416.8242,-506.4358 412.3742,-498 408.9018,-491.4174 407.4887,-483.6433 407.1458,-476.2117"/>
<polygon fill="#000000" stroke="#000000" points="410.6469,-476.1359 407.2703,-466.0935 403.6474,-476.0497 410.6469,-476.1359"/>
<text text-anchor="middle" x="439.8366" y="-486.8" font-family="Times,serif" font-size="14.00" fill="#000000">broadcast</text>
</g>
<!-- Map 11 -->
<g id="node13" class="node">
<title>Map 11</title>
<ellipse fill="none" stroke="#000000" cx="566.0158" cy="-534" rx="37.0949" ry="18"/>
<text text-anchor="middle" x="566.0158" y="-529.8" font-family="Times,serif" font-size="14.00" fill="#000000">Map 11</text>
</g>
<!-- Map 11&#45;&gt;Map 15 -->
<g id="edge21" class="edge">
<title>Map 11&#45;&gt;Map 15</title>
<path fill="none" stroke="#000000" d="M536.9424,-522.7306C521.2792,-516.239 501.8445,-507.496 485.3742,-498 476.1756,-492.6965 475.8907,-487.9022 466.0158,-484 444.5693,-475.5252 304.5476,-460.328 229.8286,-452.6748"/>
<polygon fill="#000000" stroke="#000000" points="230.0413,-449.1785 219.7379,-451.6465 229.3315,-456.1424 230.0413,-449.1785"/>
<text text-anchor="middle" x="512.8366" y="-486.8" font-family="Times,serif" font-size="14.00" fill="#000000">broadcast</text>
</g>
<!-- Map 23 -->
<g id="node14" class="node">
<title>Map 23</title>
<ellipse fill="none" stroke="#000000" cx="716.0158" cy="-448" rx="37.243" ry="18"/>
<text text-anchor="middle" x="716.0158" y="-443.8" font-family="Times,serif" font-size="14.00" fill="#000000">Map 23</text>
</g>
<!-- Map 11&#45;&gt;Map 23 -->
<g id="edge10" class="edge">
<title>Map 11&#45;&gt;Map 23</title>
<path fill="none" stroke="#000000" d="M590.1159,-520.1826C615.2646,-505.764 654.8703,-483.0567 682.9371,-466.9651"/>
<polygon fill="#000000" stroke="#000000" points="685.041,-469.7933 691.9755,-461.7831 681.5593,-463.7206 685.041,-469.7933"/>
<text text-anchor="middle" x="676.8366" y="-486.8" font-family="Times,serif" font-size="14.00" fill="#000000">broadcast</text>
</g>
<!-- Map 11&#45;&gt;Map 1 -->
<g id="edge24" class="edge">
<title>Map 11&#45;&gt;Map 1</title>
<path fill="none" stroke="#000000" d="M561.833,-515.904C558.4601,-505.1834 552.6461,-492.1445 543.0158,-484 529.1943,-472.311 485.2312,-461.8607 451.5958,-455.2698"/>
<polygon fill="#000000" stroke="#000000" points="452.0123,-451.7862 441.5336,-453.3512 450.7011,-458.6623 452.0123,-451.7862"/>
<text text-anchor="middle" x="581.8366" y="-486.8" font-family="Times,serif" font-size="14.00" fill="#000000">broadcast</text>
</g>
<!-- Reducer 24 -->
<g id="node18" class="node">
<title>Reducer 24</title>
<ellipse fill="none" stroke="#000000" cx="716.0158" cy="-362" rx="50.7474" ry="18"/>
<text text-anchor="middle" x="716.0158" y="-357.8" font-family="Times,serif" font-size="14.00" fill="#000000">Reducer 24</text>
</g>
<!-- Map 23&#45;&gt;Reducer 24 -->
<g id="edge14" class="edge">
<title>Map 23&#45;&gt;Reducer 24</title>
<path fill="none" stroke="#000000" d="M716.0158,-429.7616C716.0158,-418.3597 716.0158,-403.4342 716.0158,-390.494"/>
<polygon fill="#000000" stroke="#000000" points="719.5159,-390.2121 716.0158,-380.2121 712.5159,-390.2121 719.5159,-390.2121"/>
<text text-anchor="middle" x="740.1227" y="-400.8" font-family="Times,serif" font-size="14.00" fill="#000000">unsorted</text>
</g>
<!-- Reducer 29 -->
<g id="node15" class="node">
<title>Reducer 29</title>
<ellipse fill="none" stroke="#000000" cx="718.0158" cy="-534" rx="50.7474" ry="18"/>
<text text-anchor="middle" x="718.0158" y="-529.8" font-family="Times,serif" font-size="14.00" fill="#000000">Reducer 29</text>
</g>
<!-- Reducer 29&#45;&gt;Map 23 -->
<g id="edge11" class="edge">
<title>Reducer 29&#45;&gt;Map 23</title>
<path fill="none" stroke="#000000" d="M717.5916,-515.7616C717.3265,-504.3597 716.9794,-489.4342 716.6784,-476.494"/>
<polygon fill="#000000" stroke="#000000" points="720.171,-476.128 716.4393,-466.2121 713.1729,-476.2908 720.171,-476.128"/>
<text text-anchor="middle" x="744.8366" y="-486.8" font-family="Times,serif" font-size="14.00" fill="#000000">broadcast</text>
</g>
<!-- Reducer 21&#45;&gt;Map 15 -->
<g id="edge22" class="edge">
<title>Reducer 21&#45;&gt;Map 15</title>
<path fill="none" stroke="#000000" d="M183.0158,-515.7616C183.0158,-504.3597 183.0158,-489.4342 183.0158,-476.494"/>
<polygon fill="#000000" stroke="#000000" points="186.5159,-476.2121 183.0158,-466.2121 179.5159,-476.2121 186.5159,-476.2121"/>
<text text-anchor="middle" x="209.8366" y="-486.8" font-family="Times,serif" font-size="14.00" fill="#000000">broadcast</text>
</g>
<!-- Reducer 22&#45;&gt;Map 15 -->
<g id="edge23" class="edge">
<title>Reducer 22&#45;&gt;Map 15</title>
<path fill="none" stroke="#000000" d="M83.4175,-517.1399C95.25,-507.1255 110.8457,-494.3943 125.3742,-484 133.2666,-478.3534 142.0377,-472.6191 150.3081,-467.4362"/>
<polygon fill="#000000" stroke="#000000" points="152.3492,-470.2895 159.0206,-462.0589 148.6726,-464.3327 152.3492,-470.2895"/>
<text text-anchor="middle" x="152.8366" y="-486.8" font-family="Times,serif" font-size="14.00" fill="#000000">broadcast</text>
</g>
<!-- Reducer 25 -->
<g id="node20" class="node">
<title>Reducer 25</title>
<ellipse fill="none" stroke="#000000" cx="714.0158" cy="-276" rx="50.7474" ry="18"/>
<text text-anchor="middle" x="714.0158" y="-271.8" font-family="Times,serif" font-size="14.00" fill="#000000">Reducer 25</text>
</g>
<!-- Reducer 24&#45;&gt;Reducer 25 -->
<g id="edge16" class="edge">
<title>Reducer 24&#45;&gt;Reducer 25</title>
<path fill="none" stroke="#000000" d="M715.5916,-343.7616C715.3265,-332.3597 714.9794,-317.4342 714.6784,-304.494"/>
<polygon fill="#000000" stroke="#000000" points="718.171,-304.128 714.4393,-294.2121 711.1729,-304.2908 718.171,-304.128"/>
<text text-anchor="middle" x="733.1227" y="-314.8" font-family="Times,serif" font-size="14.00" fill="#000000">sorted</text>
</g>
<!-- Map 28 -->
<g id="node19" class="node">
<title>Map 28</title>
<ellipse fill="none" stroke="#000000" cx="765.0158" cy="-620" rx="37.243" ry="18"/>
<text text-anchor="middle" x="765.0158" y="-615.8" font-family="Times,serif" font-size="14.00" fill="#000000">Map 28</text>
</g>
<!-- Map 28&#45;&gt;Reducer 29 -->
<g id="edge20" class="edge">
<title>Map 28&#45;&gt;Reducer 29</title>
<path fill="none" stroke="#000000" d="M748.8515,-603.3971C743.8398,-597.6028 738.6332,-590.8322 734.8019,-584 730.9839,-577.1914 727.8473,-569.3727 725.3616,-561.9717"/>
<polygon fill="#000000" stroke="#000000" points="728.6625,-560.7982 722.3727,-552.2724 721.9729,-562.8597 728.6625,-560.7982"/>
<text text-anchor="middle" x="759.1227" y="-572.8" font-family="Times,serif" font-size="14.00" fill="#000000">unsorted</text>
</g>
<!-- Map 28&#45;&gt;Reducer 24 -->
<g id="edge15" class="edge">
<title>Map 28&#45;&gt;Reducer 24</title>
<path fill="none" stroke="#000000" d="M775.7044,-602.6767C778.6789,-596.9446 781.5067,-590.3927 783.0158,-584 784.4454,-577.9442 783.2863,-576.2163 783.0158,-570 779.6793,-493.338 806.5505,-464.3571 768.0158,-398 764.5704,-392.067 759.709,-386.8855 754.3281,-382.4422"/>
<polygon fill="#000000" stroke="#000000" points="756.3095,-379.555 746.1772,-376.4588 752.1672,-385.1978 756.3095,-379.555"/>
<text text-anchor="middle" x="813.1227" y="-486.8" font-family="Times,serif" font-size="14.00" fill="#000000">unsorted</text>
</g>
<!-- Reducer 26 -->
<g id="node21" class="node">
<title>Reducer 26</title>
<ellipse fill="none" stroke="#000000" cx="707.0158" cy="-190" rx="50.7474" ry="18"/>
<text text-anchor="middle" x="707.0158" y="-185.8" font-family="Times,serif" font-size="14.00" fill="#000000">Reducer 26</text>
</g>
<!-- Reducer 25&#45;&gt;Reducer 26 -->
<g id="edge17" class="edge">
<title>Reducer 25&#45;&gt;Reducer 26</title>
<path fill="none" stroke="#000000" d="M712.5313,-257.7616C711.6032,-246.3597 710.3883,-231.4342 709.3351,-218.494"/>
<polygon fill="#000000" stroke="#000000" points="712.798,-217.8952 708.4982,-208.2121 705.8211,-218.4631 712.798,-217.8952"/>
<text text-anchor="middle" x="728.1227" y="-228.8" font-family="Times,serif" font-size="14.00" fill="#000000">sorted</text>
</g>
<!-- Reducer 27 -->
<g id="node22" class="node">
<title>Reducer 27</title>
<ellipse fill="none" stroke="#000000" cx="707.0158" cy="-104" rx="50.7474" ry="18"/>
<text text-anchor="middle" x="707.0158" y="-99.8" font-family="Times,serif" font-size="14.00" fill="#000000">Reducer 27</text>
</g>
<!-- Reducer 26&#45;&gt;Reducer 27 -->
<g id="edge18" class="edge">
<title>Reducer 26&#45;&gt;Reducer 27</title>
<path fill="none" stroke="#000000" d="M707.0158,-171.7616C707.0158,-160.3597 707.0158,-145.4342 707.0158,-132.494"/>
<polygon fill="#000000" stroke="#000000" points="710.5159,-132.2121 707.0158,-122.2121 703.5159,-132.2121 710.5159,-132.2121"/>
<text text-anchor="middle" x="724.1227" y="-142.8" font-family="Times,serif" font-size="14.00" fill="#000000">sorted</text>
</g>
<!-- Union 8 -->
<g id="node23" class="node">
<title>Union 8</title>
<ellipse fill="none" stroke="#000000" cx="581.0158" cy="-190" rx="38.6968" ry="18"/>
<text text-anchor="middle" x="581.0158" y="-185.8" font-family="Times,serif" font-size="14.00" fill="#000000">Union 8</text>
</g>
<!-- Union 8&#45;&gt;Reducer 9 -->
<g id="edge35" class="edge">
<title>Union 8&#45;&gt;Reducer 9</title>
<path fill="none" stroke="#000000" d="M581.0158,-171.7616C581.0158,-160.3597 581.0158,-145.4342 581.0158,-132.494"/>
<polygon fill="#000000" stroke="#000000" points="584.5159,-132.2121 581.0158,-122.2121 577.5159,-132.2121 584.5159,-132.2121"/>
<text text-anchor="middle" x="598.1227" y="-142.8" font-family="Times,serif" font-size="14.00" fill="#000000">sorted</text>
</g>
<!-- Union 8&#45;&gt;Reducer 27 -->
<g id="edge19" class="edge">
<title>Union 8&#45;&gt;Reducer 27</title>
<path fill="none" stroke="#000000" d="M602.9633,-175.0199C622.9698,-161.3647 652.7595,-141.0321 675.3439,-125.6173"/>
<polygon fill="#000000" stroke="#000000" points="677.325,-128.5027 683.6114,-119.9744 673.3788,-122.721 677.325,-128.5027"/>
<text text-anchor="middle" x="667.1779" y="-142.8" font-family="Times,serif" font-size="14.00" fill="#000000">None</text>
</g>
<!-- Union 8&#45;&gt;Reducer 7 -->
<g id="edge31" class="edge">
<title>Union 8&#45;&gt;Reducer 7</title>
<path fill="none" stroke="#000000" d="M558.4961,-175.2161C537.6089,-161.5039 506.2817,-140.9379 482.6541,-125.4267"/>
<polygon fill="#000000" stroke="#000000" points="484.2938,-122.3163 474.0134,-119.7542 480.4522,-128.168 484.2938,-122.3163"/>
<text text-anchor="middle" x="539.1779" y="-142.8" font-family="Times,serif" font-size="14.00" fill="#000000">None</text>
</g>
<!-- Map 1&#45;&gt;Reducer 2 -->
<g id="edge33" class="edge">
<title>Map 1&#45;&gt;Reducer 2</title>
<path fill="none" stroke="#000000" d="M409.1675,-429.7616C408.6372,-418.3597 407.943,-403.4342 407.3411,-390.494"/>
<polygon fill="#000000" stroke="#000000" points="410.8238,-390.0387 406.8629,-380.2121 403.8313,-390.3639 410.8238,-390.0387"/>
<text text-anchor="middle" x="433.1227" y="-400.8" font-family="Times,serif" font-size="14.00" fill="#000000">unsorted</text>
</g>
<!-- Reducer 4 -->
<g id="node25" class="node">
<title>Reducer 4</title>
<ellipse fill="none" stroke="#000000" cx="406.0158" cy="-190" rx="46.4045" ry="18"/>
<text text-anchor="middle" x="406.0158" y="-185.8" font-family="Times,serif" font-size="14.00" fill="#000000">Reducer 4</text>
</g>
<!-- Reducer 4&#45;&gt;Reducer 5 -->
<g id="edge27" class="edge">
<title>Reducer 4&#45;&gt;Reducer 5</title>
<path fill="none" stroke="#000000" d="M401.6661,-171.864C398.3477,-161.3974 392.8119,-148.6387 384.0158,-140 373.7939,-129.9612 360.3592,-122.5606 347.1555,-117.1739"/>
<polygon fill="#000000" stroke="#000000" points="348.2234,-113.8364 337.6312,-113.5987 345.7633,-120.3899 348.2234,-113.8364"/>
<text text-anchor="middle" x="411.1227" y="-142.8" font-family="Times,serif" font-size="14.00" fill="#000000">sorted</text>
</g>
<!-- Reducer 3 -->
<g id="node27" class="node">
<title>Reducer 3</title>
<ellipse fill="none" stroke="#000000" cx="406.0158" cy="-276" rx="46.4045" ry="18"/>
<text text-anchor="middle" x="406.0158" y="-271.8" font-family="Times,serif" font-size="14.00" fill="#000000">Reducer 3</text>
</g>
<!-- Reducer 3&#45;&gt;Reducer 4 -->
<g id="edge29" class="edge">
<title>Reducer 3&#45;&gt;Reducer 4</title>
<path fill="none" stroke="#000000" d="M406.0158,-257.7616C406.0158,-246.3597 406.0158,-231.4342 406.0158,-218.494"/>
<polygon fill="#000000" stroke="#000000" points="409.5159,-218.2121 406.0158,-208.2121 402.5159,-218.2121 409.5159,-218.2121"/>
<text text-anchor="middle" x="423.1227" y="-228.8" font-family="Times,serif" font-size="14.00" fill="#000000">sorted</text>
</g>
<!-- Reducer 2&#45;&gt;Reducer 3 -->
<g id="edge32" class="edge">
<title>Reducer 2&#45;&gt;Reducer 3</title>
<path fill="none" stroke="#000000" d="M406.0158,-343.7616C406.0158,-332.3597 406.0158,-317.4342 406.0158,-304.494"/>
<polygon fill="#000000" stroke="#000000" points="409.5159,-304.2121 406.0158,-294.2121 402.5159,-304.2121 409.5159,-304.2121"/>
<text text-anchor="middle" x="423.1227" y="-314.8" font-family="Times,serif" font-size="14.00" fill="#000000">sorted</text>
</g>
</g>
</svg>
