<?xml version="1.0" encoding="UTF-8" standalone="no"?>
<!DOCTYPE svg PUBLIC "-//W3C//DTD SVG 1.1//EN"
 "http://www.w3.org/Graphics/SVG/1.1/DTD/svg11.dtd">
<!-- Generated by graphviz version 2.40.1 (20161225.0304)
 -->
<!-- Title: %3 Pages: 1 -->
<svg width="740pt" height="388pt"
 viewBox="0.00 0.00 739.92 388.00" xmlns="http://www.w3.org/2000/svg" xmlns:xlink="http://www.w3.org/1999/xlink">
<g id="graph0" class="graph" transform="scale(1 1) rotate(0) translate(4 384)">
<title>%3</title>
<polygon fill="#ffffff" stroke="transparent" points="-4,4 -4,-384 735.9232,-384 735.9232,4 -4,4"/>
<!-- Map 8 -->
<g id="node1" class="node">
<title>Map 8</title>
<ellipse fill="none" stroke="#000000" cx="450.2997" cy="-276" rx="32.8992" ry="18"/>
<text text-anchor="middle" x="450.2997" y="-271.8" font-family="Times,serif" font-size="14.00" fill="#000000">Map 8</text>
</g>
<!-- Map 1 -->
<g id="node2" class="node">
<title>Map 1</title>
<ellipse fill="none" stroke="#000000" cx="319.2997" cy="-190" rx="32.8992" ry="18"/>
<text text-anchor="middle" x="319.2997" y="-185.8" font-family="Times,serif" font-size="14.00" fill="#000000">Map 1</text>
</g>
<!-- Map 8&#45;&gt;Map 1 -->
<g id="edge1" class="edge">
<title>Map 8&#45;&gt;Map 1</title>
<path fill="none" stroke="#000000" d="M433.6079,-259.9706C422.239,-249.5405 406.5402,-236.0578 391.2997,-226 379.8869,-218.4682 366.6804,-211.4349 354.7185,-205.6193"/>
<polygon fill="#000000" stroke="#000000" points="355.986,-202.347 345.4502,-201.2301 352.99,-208.6734 355.986,-202.347"/>
<text text-anchor="middle" x="436.1205" y="-228.8" font-family="Times,serif" font-size="14.00" fill="#000000">broadcast</text>
</g>
<!-- Map 13 -->
<g id="node5" class="node">
<title>Map 13</title>
<ellipse fill="none" stroke="#000000" cx="117.2997" cy="-190" rx="37.243" ry="18"/>
<text text-anchor="middle" x="117.2997" y="-185.8" font-family="Times,serif" font-size="14.00" fill="#000000">Map 13</text>
</g>
<!-- Map 8&#45;&gt;Map 13 -->
<g id="edge20" class="edge">
<title>Map 8&#45;&gt;Map 13</title>
<path fill="none" stroke="#000000" d="M424.7984,-264.2616C419.4139,-262.0126 413.7202,-259.8009 408.2997,-258 375.9152,-247.2407 364.6569,-254.2685 333.6581,-240 324.0129,-235.5604 324.1771,-229.8957 314.2997,-226 254.7099,-202.4976 233.7637,-222.1968 171.2997,-208 166.5508,-206.9207 161.6291,-205.5898 156.7771,-204.1443"/>
<polygon fill="#000000" stroke="#000000" points="157.5832,-200.7287 146.9935,-201.0601 155.4785,-207.4048 157.5832,-200.7287"/>
<text text-anchor="middle" x="360.1205" y="-228.8" font-family="Times,serif" font-size="14.00" fill="#000000">broadcast</text>
</g>
<!-- Map 15 -->
<g id="node8" class="node">
<title>Map 15</title>
<ellipse fill="none" stroke="#000000" cx="559.2997" cy="-190" rx="37.243" ry="18"/>
<text text-anchor="middle" x="559.2997" y="-185.8" font-family="Times,serif" font-size="14.00" fill="#000000">Map 15</text>
</g>
<!-- Map 8&#45;&gt;Map 15 -->
<g id="edge17" class="edge">
<title>Map 8&#45;&gt;Map 15</title>
<path fill="none" stroke="#000000" d="M461.9004,-258.7885C469.5007,-248.4008 480.1366,-235.4011 491.6581,-226 500.8258,-218.5195 511.7884,-211.8913 522.1921,-206.4262"/>
<polygon fill="#000000" stroke="#000000" points="523.7701,-209.5503 531.1316,-201.9307 520.6251,-203.2966 523.7701,-209.5503"/>
<text text-anchor="middle" x="518.1205" y="-228.8" font-family="Times,serif" font-size="14.00" fill="#000000">broadcast</text>
</g>
<!-- Reducer 2 -->
<g id="node16" class="node">
<title>Reducer 2</title>
<ellipse fill="none" stroke="#000000" cx="224.2997" cy="-104" rx="46.4045" ry="18"/>
<text text-anchor="middle" x="224.2997" y="-99.8" font-family="Times,serif" font-size="14.00" fill="#000000">Reducer 2</text>
</g>
<!-- Map 1&#45;&gt;Reducer 2 -->
<g id="edge15" class="edge">
<title>Map 1&#45;&gt;Reducer 2</title>
<path fill="none" stroke="#000000" d="M318.8111,-171.5627C317.6482,-161.2503 314.6482,-148.7503 307.2997,-140 301.7689,-133.4143 285.7823,-125.8754 269.2972,-119.404"/>
<polygon fill="#000000" stroke="#000000" points="270.2,-116.0033 259.6087,-115.7323 267.7194,-122.549 270.2,-116.0033"/>
<text text-anchor="middle" x="331.4066" y="-142.8" font-family="Times,serif" font-size="14.00" fill="#000000">sorted</text>
</g>
<!-- Map 9 -->
<g id="node3" class="node">
<title>Map 9</title>
<ellipse fill="none" stroke="#000000" cx="287.2997" cy="-362" rx="32.8992" ry="18"/>
<text text-anchor="middle" x="287.2997" y="-357.8" font-family="Times,serif" font-size="14.00" fill="#000000">Map 9</text>
</g>
<!-- Map 9&#45;&gt;Map 1 -->
<g id="edge2" class="edge">
<title>Map 9&#45;&gt;Map 1</title>
<path fill="none" stroke="#000000" d="M270.141,-346.287C257.6187,-333.5792 241.6604,-314.4843 234.6581,-294 229.4827,-278.8601 230.3094,-273.3977 234.6581,-258 239.1936,-241.9405 242.2389,-237.5332 254.2997,-226 262.794,-217.8772 273.4752,-210.9763 283.7107,-205.4565"/>
<polygon fill="#000000" stroke="#000000" points="285.5817,-208.4317 292.9099,-200.78 282.4095,-202.1917 285.5817,-208.4317"/>
<text text-anchor="middle" x="262.1205" y="-271.8" font-family="Times,serif" font-size="14.00" fill="#000000">broadcast</text>
</g>
<!-- Reducer 10 -->
<g id="node4" class="node">
<title>Reducer 10</title>
<ellipse fill="none" stroke="#000000" cx="348.2997" cy="-276" rx="50.7474" ry="18"/>
<text text-anchor="middle" x="348.2997" y="-271.8" font-family="Times,serif" font-size="14.00" fill="#000000">Reducer 10</text>
</g>
<!-- Map 9&#45;&gt;Reducer 10 -->
<g id="edge9" class="edge">
<title>Map 9&#45;&gt;Reducer 10</title>
<path fill="none" stroke="#000000" d="M299.3513,-345.0092C308.0924,-332.6857 320.0717,-315.7969 329.9914,-301.8117"/>
<polygon fill="#000000" stroke="#000000" points="332.9236,-303.7274 335.8543,-293.546 327.214,-299.6776 332.9236,-303.7274"/>
<text text-anchor="middle" x="345.4066" y="-314.8" font-family="Times,serif" font-size="14.00" fill="#000000">unsorted</text>
</g>
<!-- Map 9&#45;&gt;Map 13 -->
<g id="edge21" class="edge">
<title>Map 9&#45;&gt;Map 13</title>
<path fill="none" stroke="#000000" d="M260.6638,-351.05C235.7168,-339.7335 198.633,-320.0625 173.6581,-294 152.3695,-271.7844 136.6951,-239.9491 127.3554,-217.3639"/>
<polygon fill="#000000" stroke="#000000" points="130.58,-216.0008 123.6276,-208.0061 124.077,-218.5914 130.58,-216.0008"/>
<text text-anchor="middle" x="201.1205" y="-271.8" font-family="Times,serif" font-size="14.00" fill="#000000">broadcast</text>
</g>
<!-- Map 9&#45;&gt;Map 15 -->
<g id="edge18" class="edge">
<title>Map 9&#45;&gt;Map 15</title>
<path fill="none" stroke="#000000" d="M318.7978,-356.3853C360.8352,-347.8552 436.4572,-328.8174 492.2997,-294 520.8358,-276.208 528.4584,-269.1073 545.2997,-240 549.2104,-233.2411 552.0774,-225.3313 554.1594,-217.8234"/>
<polygon fill="#000000" stroke="#000000" points="557.5912,-218.5225 556.5362,-207.9803 550.7867,-216.8794 557.5912,-218.5225"/>
<text text-anchor="middle" x="560.1205" y="-271.8" font-family="Times,serif" font-size="14.00" fill="#000000">broadcast</text>
</g>
<!-- Reducer 11 -->
<g id="node11" class="node">
<title>Reducer 11</title>
<ellipse fill="none" stroke="#000000" cx="50.2997" cy="-276" rx="50.1002" ry="18"/>
<text text-anchor="middle" x="50.2997" y="-271.8" font-family="Times,serif" font-size="14.00" fill="#000000">Reducer 11</text>
</g>
<!-- Map 9&#45;&gt;Reducer 11 -->
<g id="edge8" class="edge">
<title>Map 9&#45;&gt;Reducer 11</title>
<path fill="none" stroke="#000000" d="M254.4412,-360.1176C201.8738,-356.5134 101.942,-347.0454 74.0858,-326 66.6987,-320.4191 61.5033,-311.9603 57.8959,-303.5792"/>
<polygon fill="#000000" stroke="#000000" points="61.0921,-302.1296 54.3546,-293.953 54.5225,-304.5466 61.0921,-302.1296"/>
<text text-anchor="middle" x="98.4066" y="-314.8" font-family="Times,serif" font-size="14.00" fill="#000000">unsorted</text>
</g>
<!-- Reducer 12 -->
<g id="node12" class="node">
<title>Reducer 12</title>
<ellipse fill="none" stroke="#000000" cx="681.2997" cy="-276" rx="50.7474" ry="18"/>
<text text-anchor="middle" x="681.2997" y="-271.8" font-family="Times,serif" font-size="14.00" fill="#000000">Reducer 12</text>
</g>
<!-- Map 9&#45;&gt;Reducer 12 -->
<g id="edge10" class="edge">
<title>Map 9&#45;&gt;Reducer 12</title>
<path fill="none" stroke="#000000" d="M320.5584,-361.1204C374.5784,-358.9627 484.3074,-351.5322 573.2997,-326 598.2729,-318.8351 624.7693,-306.6458 645.2676,-296.0965"/>
<polygon fill="#000000" stroke="#000000" points="647.0088,-299.1354 654.2366,-291.3888 643.7555,-292.9373 647.0088,-299.1354"/>
<text text-anchor="middle" x="633.4066" y="-314.8" font-family="Times,serif" font-size="14.00" fill="#000000">unsorted</text>
</g>
<!-- Reducer 10&#45;&gt;Map 1 -->
<g id="edge3" class="edge">
<title>Reducer 10&#45;&gt;Map 1</title>
<path fill="none" stroke="#000000" d="M308.8751,-264.5585C288.4301,-257.7446 266.5197,-248.7446 260.6581,-240 251.2299,-225.9346 265.457,-213.5559 282.2541,-204.6338"/>
<polygon fill="#000000" stroke="#000000" points="284.2465,-207.5575 291.7164,-200.044 281.1914,-201.2593 284.2465,-207.5575"/>
<text text-anchor="middle" x="288.1205" y="-228.8" font-family="Times,serif" font-size="14.00" fill="#000000">broadcast</text>
</g>
<!-- Reducer 14 -->
<g id="node6" class="node">
<title>Reducer 14</title>
<ellipse fill="none" stroke="#000000" cx="109.2997" cy="-104" rx="50.7474" ry="18"/>
<text text-anchor="middle" x="109.2997" y="-99.8" font-family="Times,serif" font-size="14.00" fill="#000000">Reducer 14</text>
</g>
<!-- Map 13&#45;&gt;Reducer 14 -->
<g id="edge4" class="edge">
<title>Map 13&#45;&gt;Reducer 14</title>
<path fill="none" stroke="#000000" d="M112.9804,-171.7855C111.818,-166.1203 110.7106,-159.8309 110.0858,-154 109.3365,-147.0066 108.9827,-139.4319 108.8491,-132.3444"/>
<polygon fill="#000000" stroke="#000000" points="112.3478,-132.0808 108.7928,-122.1002 105.3479,-132.1193 112.3478,-132.0808"/>
<text text-anchor="middle" x="127.4066" y="-142.8" font-family="Times,serif" font-size="14.00" fill="#000000">sorted</text>
</g>
<!-- Union 3 -->
<g id="node7" class="node">
<title>Union 3</title>
<ellipse fill="none" stroke="#000000" cx="219.2997" cy="-190" rx="38.6968" ry="18"/>
<text text-anchor="middle" x="219.2997" y="-185.8" font-family="Times,serif" font-size="14.00" fill="#000000">Union 3</text>
</g>
<!-- Union 3&#45;&gt;Reducer 14 -->
<g id="edge5" class="edge">
<title>Union 3&#45;&gt;Reducer 14</title>
<path fill="none" stroke="#000000" d="M199.3795,-174.426C182.4451,-161.1864 157.8958,-141.9933 138.7007,-126.9863"/>
<polygon fill="#000000" stroke="#000000" points="140.6068,-124.0338 130.5729,-120.6318 136.2953,-129.5484 140.6068,-124.0338"/>
<text text-anchor="middle" x="186.4618" y="-142.8" font-family="Times,serif" font-size="14.00" fill="#000000">None</text>
</g>
<!-- Reducer 4 -->
<g id="node13" class="node">
<title>Reducer 4</title>
<ellipse fill="none" stroke="#000000" cx="334.2997" cy="-104" rx="46.4045" ry="18"/>
<text text-anchor="middle" x="334.2997" y="-99.8" font-family="Times,serif" font-size="14.00" fill="#000000">Reducer 4</text>
</g>
<!-- Union 3&#45;&gt;Reducer 4 -->
<g id="edge11" class="edge">
<title>Union 3&#45;&gt;Reducer 4</title>
<path fill="none" stroke="#000000" d="M233.9381,-173.0227C243.3408,-162.7231 256.1739,-149.7339 269.0858,-140 277.373,-133.7526 286.8729,-127.8843 296.0109,-122.7715"/>
<polygon fill="#000000" stroke="#000000" points="297.8401,-125.7613 304.9699,-117.9244 294.5091,-119.6046 297.8401,-125.7613"/>
<text text-anchor="middle" x="286.4066" y="-142.8" font-family="Times,serif" font-size="14.00" fill="#000000">sorted</text>
</g>
<!-- Union 3&#45;&gt;Reducer 2 -->
<g id="edge16" class="edge">
<title>Union 3&#45;&gt;Reducer 2</title>
<path fill="none" stroke="#000000" d="M219.0826,-171.9298C219.0849,-162.4188 219.2714,-150.5678 219.9755,-140 220.1439,-137.4719 220.3663,-134.8488 220.6215,-132.2232"/>
<polygon fill="#000000" stroke="#000000" points="224.1006,-132.6037 221.7235,-122.279 217.1432,-131.8326 224.1006,-132.6037"/>
<text text-anchor="middle" x="235.4618" y="-142.8" font-family="Times,serif" font-size="14.00" fill="#000000">None</text>
</g>
<!-- Reducer 16 -->
<g id="node9" class="node">
<title>Reducer 16</title>
<ellipse fill="none" stroke="#000000" cx="559.2997" cy="-104" rx="50.7474" ry="18"/>
<text text-anchor="middle" x="559.2997" y="-99.8" font-family="Times,serif" font-size="14.00" fill="#000000">Reducer 16</text>
</g>
<!-- Map 15&#45;&gt;Reducer 16 -->
<g id="edge6" class="edge">
<title>Map 15&#45;&gt;Reducer 16</title>
<path fill="none" stroke="#000000" d="M559.2997,-171.7616C559.2997,-160.3597 559.2997,-145.4342 559.2997,-132.494"/>
<polygon fill="#000000" stroke="#000000" points="562.7998,-132.2121 559.2997,-122.2121 555.7998,-132.2121 562.7998,-132.2121"/>
<text text-anchor="middle" x="576.4066" y="-142.8" font-family="Times,serif" font-size="14.00" fill="#000000">sorted</text>
</g>
<!-- Union 5 -->
<g id="node10" class="node">
<title>Union 5</title>
<ellipse fill="none" stroke="#000000" cx="444.2997" cy="-190" rx="38.6968" ry="18"/>
<text text-anchor="middle" x="444.2997" y="-185.8" font-family="Times,serif" font-size="14.00" fill="#000000">Union 5</text>
</g>
<!-- Union 5&#45;&gt;Reducer 16 -->
<g id="edge7" class="edge">
<title>Union 5&#45;&gt;Reducer 16</title>
<path fill="none" stroke="#000000" d="M464.8594,-174.6249C482.7228,-161.2662 508.8351,-141.7387 529.0772,-126.6012"/>
<polygon fill="#000000" stroke="#000000" points="531.4395,-129.2051 537.3517,-120.4132 527.2473,-123.5992 531.4395,-129.2051"/>
<text text-anchor="middle" x="523.4618" y="-142.8" font-family="Times,serif" font-size="14.00" fill="#000000">None</text>
</g>
<!-- Union 5&#45;&gt;Reducer 4 -->
<g id="edge12" class="edge">
<title>Union 5&#45;&gt;Reducer 4</title>
<path fill="none" stroke="#000000" d="M424.3795,-174.426C407.2608,-161.0423 382.3606,-141.5749 363.076,-126.4978"/>
<polygon fill="#000000" stroke="#000000" points="365.2279,-123.7375 355.1941,-120.3356 360.9164,-129.2522 365.2279,-123.7375"/>
<text text-anchor="middle" x="410.4618" y="-142.8" font-family="Times,serif" font-size="14.00" fill="#000000">None</text>
</g>
<!-- Reducer 6 -->
<g id="node14" class="node">
<title>Reducer 6</title>
<ellipse fill="none" stroke="#000000" cx="444.2997" cy="-104" rx="46.4045" ry="18"/>
<text text-anchor="middle" x="444.2997" y="-99.8" font-family="Times,serif" font-size="14.00" fill="#000000">Reducer 6</text>
</g>
<!-- Union 5&#45;&gt;Reducer 6 -->
<g id="edge14" class="edge">
<title>Union 5&#45;&gt;Reducer 6</title>
<path fill="none" stroke="#000000" d="M444.2997,-171.7616C444.2997,-160.3597 444.2997,-145.4342 444.2997,-132.494"/>
<polygon fill="#000000" stroke="#000000" points="447.7998,-132.2121 444.2997,-122.2121 440.7998,-132.2121 447.7998,-132.2121"/>
<text text-anchor="middle" x="461.4066" y="-142.8" font-family="Times,serif" font-size="14.00" fill="#000000">sorted</text>
</g>
<!-- Reducer 11&#45;&gt;Map 13 -->
<g id="edge22" class="edge">
<title>Reducer 11&#45;&gt;Map 13</title>
<path fill="none" stroke="#000000" d="M54.291,-257.6291C57.1176,-247.5844 61.674,-235.3263 68.6581,-226 73.1608,-219.9873 78.9427,-214.525 84.9379,-209.7747"/>
<polygon fill="#000000" stroke="#000000" points="87.1528,-212.4907 93.1455,-203.7535 83.0122,-206.8466 87.1528,-212.4907"/>
<text text-anchor="middle" x="96.1205" y="-228.8" font-family="Times,serif" font-size="14.00" fill="#000000">broadcast</text>
</g>
<!-- Reducer 12&#45;&gt;Map 15 -->
<g id="edge19" class="edge">
<title>Reducer 12&#45;&gt;Map 15</title>
<path fill="none" stroke="#000000" d="M658.3524,-259.8241C638.6967,-245.9684 610.2644,-225.9259 588.8986,-210.8648"/>
<polygon fill="#000000" stroke="#000000" points="590.7012,-207.8533 580.5113,-204.9524 586.6681,-213.5747 590.7012,-207.8533"/>
<text text-anchor="middle" x="654.1205" y="-228.8" font-family="Times,serif" font-size="14.00" fill="#000000">broadcast</text>
</g>
<!-- Reducer 7 -->
<g id="node15" class="node">
<title>Reducer 7</title>
<ellipse fill="none" stroke="#000000" cx="444.2997" cy="-18" rx="46.4045" ry="18"/>
<text text-anchor="middle" x="444.2997" y="-13.8" font-family="Times,serif" font-size="14.00" fill="#000000">Reducer 7</text>
</g>
<!-- Reducer 6&#45;&gt;Reducer 7 -->
<g id="edge13" class="edge">
<title>Reducer 6&#45;&gt;Reducer 7</title>
<path fill="none" stroke="#000000" d="M444.2997,-85.7616C444.2997,-74.3597 444.2997,-59.4342 444.2997,-46.494"/>
<polygon fill="#000000" stroke="#000000" points="447.7998,-46.2121 444.2997,-36.2121 440.7998,-46.2121 447.7998,-46.2121"/>
<text text-anchor="middle" x="461.4066" y="-56.8" font-family="Times,serif" font-size="14.00" fill="#000000">sorted</text>
</g>
</g>
</svg>
