<?xml version="1.0" encoding="UTF-8" standalone="no"?>
<!DOCTYPE svg PUBLIC "-//W3C//DTD SVG 1.1//EN"
 "http://www.w3.org/Graphics/SVG/1.1/DTD/svg11.dtd">
<!-- Generated by graphviz version 2.40.1 (20161225.0304)
 -->
<!-- Title: %3 Pages: 1 -->
<svg width="741pt" height="646pt"
 viewBox="0.00 0.00 741.06 646.00" xmlns="http://www.w3.org/2000/svg" xmlns:xlink="http://www.w3.org/1999/xlink">
<g id="graph0" class="graph" transform="scale(1 1) rotate(0) translate(4 642)">
<title>%3</title>
<polygon fill="#ffffff" stroke="transparent" points="-4,4 -4,-642 737.0645,-642 737.0645,4 -4,4"/>
<!-- Map 4 -->
<g id="node1" class="node">
<title>Map 4</title>
<ellipse fill="none" stroke="#000000" cx="206.8507" cy="-620" rx="32.8992" ry="18"/>
<text text-anchor="middle" x="206.8507" y="-615.8" font-family="Times,serif" font-size="14.00" fill="#000000">Map 4</text>
</g>
<!-- Map 5 -->
<g id="node2" class="node">
<title>Map 5</title>
<ellipse fill="none" stroke="#000000" cx="314.8507" cy="-362" rx="32.8992" ry="18"/>
<text text-anchor="middle" x="314.8507" y="-357.8" font-family="Times,serif" font-size="14.00" fill="#000000">Map 5</text>
</g>
<!-- Map 4&#45;&gt;Map 5 -->
<g id="edge1" class="edge">
<title>Map 4&#45;&gt;Map 5</title>
<path fill="none" stroke="#000000" d="M175.068,-614.4603C112.6995,-601.7525 -17.9867,-565.1344 2.209,-484 12.6611,-442.0098 12.3449,-422.7339 47.8507,-398 83.0971,-373.4468 205.2106,-365.5945 271.3973,-363.1174"/>
<polygon fill="#000000" stroke="#000000" points="271.6459,-366.6109 281.5178,-362.7642 271.4018,-359.6152 271.6459,-366.6109"/>
<text text-anchor="middle" x="29.6715" y="-486.8" font-family="Times,serif" font-size="14.00" fill="#000000">broadcast</text>
</g>
<!-- Map 1 -->
<g id="node8" class="node">
<title>Map 1</title>
<ellipse fill="none" stroke="#000000" cx="555.8507" cy="-534" rx="32.8992" ry="18"/>
<text text-anchor="middle" x="555.8507" y="-529.8" font-family="Times,serif" font-size="14.00" fill="#000000">Map 1</text>
</g>
<!-- Map 4&#45;&gt;Map 1 -->
<g id="edge7" class="edge">
<title>Map 4&#45;&gt;Map 1</title>
<path fill="none" stroke="#000000" d="M236.9083,-612.5933C299.787,-597.0988 445.2188,-561.2617 515.8778,-543.8501"/>
<polygon fill="#000000" stroke="#000000" points="516.8695,-547.2105 525.7416,-541.4194 515.1946,-540.4138 516.8695,-547.2105"/>
<text text-anchor="middle" x="428.6715" y="-572.8" font-family="Times,serif" font-size="14.00" fill="#000000">broadcast</text>
</g>
<!-- Map 10 -->
<g id="node9" class="node">
<title>Map 10</title>
<ellipse fill="none" stroke="#000000" cx="206.8507" cy="-534" rx="37.243" ry="18"/>
<text text-anchor="middle" x="206.8507" y="-529.8" font-family="Times,serif" font-size="14.00" fill="#000000">Map 10</text>
</g>
<!-- Map 4&#45;&gt;Map 10 -->
<g id="edge21" class="edge">
<title>Map 4&#45;&gt;Map 10</title>
<path fill="none" stroke="#000000" d="M206.8507,-601.7616C206.8507,-590.3597 206.8507,-575.4342 206.8507,-562.494"/>
<polygon fill="#000000" stroke="#000000" points="210.3507,-562.2121 206.8507,-552.2121 203.3507,-562.2121 210.3507,-562.2121"/>
<text text-anchor="middle" x="233.6715" y="-572.8" font-family="Times,serif" font-size="14.00" fill="#000000">broadcast</text>
</g>
<!-- Reducer 6 -->
<g id="node13" class="node">
<title>Reducer 6</title>
<ellipse fill="none" stroke="#000000" cx="314.8507" cy="-276" rx="46.4045" ry="18"/>
<text text-anchor="middle" x="314.8507" y="-271.8" font-family="Times,serif" font-size="14.00" fill="#000000">Reducer 6</text>
</g>
<!-- Map 5&#45;&gt;Reducer 6 -->
<g id="edge16" class="edge">
<title>Map 5&#45;&gt;Reducer 6</title>
<path fill="none" stroke="#000000" d="M314.8507,-343.7616C314.8507,-332.3597 314.8507,-317.4342 314.8507,-304.494"/>
<polygon fill="#000000" stroke="#000000" points="318.3507,-304.2121 314.8507,-294.2121 311.3507,-304.2121 318.3507,-304.2121"/>
<text text-anchor="middle" x="338.9576" y="-314.8" font-family="Times,serif" font-size="14.00" fill="#000000">unsorted</text>
</g>
<!-- Reducer 11 -->
<g id="node3" class="node">
<title>Reducer 11</title>
<ellipse fill="none" stroke="#000000" cx="147.8507" cy="-448" rx="50.1002" ry="18"/>
<text text-anchor="middle" x="147.8507" y="-443.8" font-family="Times,serif" font-size="14.00" fill="#000000">Reducer 11</text>
</g>
<!-- Reducer 11&#45;&gt;Map 5 -->
<g id="edge2" class="edge">
<title>Reducer 11&#45;&gt;Map 5</title>
<path fill="none" stroke="#000000" d="M170.1769,-431.6554C185.0274,-421.223 205.2237,-407.8576 224.209,-398 240.8846,-389.3417 260.1347,-381.4254 276.5942,-375.2346"/>
<polygon fill="#000000" stroke="#000000" points="278.259,-378.3514 286.4339,-371.6117 275.8404,-371.7825 278.259,-378.3514"/>
<text text-anchor="middle" x="251.6715" y="-400.8" font-family="Times,serif" font-size="14.00" fill="#000000">broadcast</text>
</g>
<!-- Reducer 12 -->
<g id="node4" class="node">
<title>Reducer 12</title>
<ellipse fill="none" stroke="#000000" cx="266.8507" cy="-448" rx="50.7474" ry="18"/>
<text text-anchor="middle" x="266.8507" y="-443.8" font-family="Times,serif" font-size="14.00" fill="#000000">Reducer 12</text>
</g>
<!-- Reducer 12&#45;&gt;Map 5 -->
<g id="edge3" class="edge">
<title>Reducer 12&#45;&gt;Map 5</title>
<path fill="none" stroke="#000000" d="M273.8831,-429.9914C277.9246,-420.285 283.3533,-408.2342 289.209,-398 291.2514,-394.4306 293.5624,-390.7778 295.9401,-387.2332"/>
<polygon fill="#000000" stroke="#000000" points="299.0079,-388.9537 301.8727,-378.7535 293.2723,-384.9408 299.0079,-388.9537"/>
<text text-anchor="middle" x="315.6715" y="-400.8" font-family="Times,serif" font-size="14.00" fill="#000000">broadcast</text>
</g>
<!-- Reducer 13 -->
<g id="node5" class="node">
<title>Reducer 13</title>
<ellipse fill="none" stroke="#000000" cx="385.8507" cy="-448" rx="50.7474" ry="18"/>
<text text-anchor="middle" x="385.8507" y="-443.8" font-family="Times,serif" font-size="14.00" fill="#000000">Reducer 13</text>
</g>
<!-- Reducer 13&#45;&gt;Map 5 -->
<g id="edge4" class="edge">
<title>Reducer 13&#45;&gt;Map 5</title>
<path fill="none" stroke="#000000" d="M371.4827,-430.5966C360.9823,-417.8777 346.6036,-400.4613 334.9623,-386.3606"/>
<polygon fill="#000000" stroke="#000000" points="337.5401,-383.9854 328.4745,-378.5021 332.142,-388.442 337.5401,-383.9854"/>
<text text-anchor="middle" x="380.6715" y="-400.8" font-family="Times,serif" font-size="14.00" fill="#000000">broadcast</text>
</g>
<!-- Reducer 2 -->
<g id="node6" class="node">
<title>Reducer 2</title>
<ellipse fill="none" stroke="#000000" cx="500.8507" cy="-448" rx="46.4045" ry="18"/>
<text text-anchor="middle" x="500.8507" y="-443.8" font-family="Times,serif" font-size="14.00" fill="#000000">Reducer 2</text>
</g>
<!-- Reducer 2&#45;&gt;Map 5 -->
<g id="edge5" class="edge">
<title>Reducer 2&#45;&gt;Map 5</title>
<path fill="none" stroke="#000000" d="M476.0811,-432.7006C458.5229,-422.2017 434.2055,-408.3504 411.8507,-398 392.871,-389.2123 371.0898,-380.9711 352.9819,-374.5971"/>
<polygon fill="#000000" stroke="#000000" points="353.9357,-371.2235 343.3409,-371.2565 351.6438,-377.8377 353.9357,-371.2235"/>
<text text-anchor="middle" x="465.6715" y="-400.8" font-family="Times,serif" font-size="14.00" fill="#000000">broadcast</text>
</g>
<!-- Reducer 3 -->
<g id="node7" class="node">
<title>Reducer 3</title>
<ellipse fill="none" stroke="#000000" cx="610.8507" cy="-448" rx="46.4045" ry="18"/>
<text text-anchor="middle" x="610.8507" y="-443.8" font-family="Times,serif" font-size="14.00" fill="#000000">Reducer 3</text>
</g>
<!-- Reducer 3&#45;&gt;Map 5 -->
<g id="edge6" class="edge">
<title>Reducer 3&#45;&gt;Map 5</title>
<path fill="none" stroke="#000000" d="M582.4689,-433.4753C559.7999,-422.3876 526.9539,-407.4542 496.8507,-398 449.9424,-383.268 394.2647,-373.3049 356.954,-367.6616"/>
<polygon fill="#000000" stroke="#000000" points="357.3438,-364.1813 346.94,-366.184 356.322,-371.1063 357.3438,-364.1813"/>
<text text-anchor="middle" x="558.6715" y="-400.8" font-family="Times,serif" font-size="14.00" fill="#000000">broadcast</text>
</g>
<!-- Map 1&#45;&gt;Reducer 2 -->
<g id="edge18" class="edge">
<title>Map 1&#45;&gt;Reducer 2</title>
<path fill="none" stroke="#000000" d="M542.0238,-517.5957C537.2316,-511.5974 531.977,-504.6496 527.6368,-498 522.8917,-490.7301 518.2383,-482.538 514.176,-474.9208"/>
<polygon fill="#000000" stroke="#000000" points="517.2649,-473.2746 509.5478,-466.0154 511.0537,-476.5026 517.2649,-473.2746"/>
<text text-anchor="middle" x="550.9576" y="-486.8" font-family="Times,serif" font-size="14.00" fill="#000000">unsorted</text>
</g>
<!-- Map 1&#45;&gt;Reducer 3 -->
<g id="edge17" class="edge">
<title>Map 1&#45;&gt;Reducer 3</title>
<path fill="none" stroke="#000000" d="M566.9807,-516.5966C574.7569,-504.4376 585.2786,-487.9854 594.0685,-474.2412"/>
<polygon fill="#000000" stroke="#000000" points="597.1091,-475.9829 599.5484,-465.6727 591.212,-472.2115 597.1091,-475.9829"/>
<text text-anchor="middle" x="609.9576" y="-486.8" font-family="Times,serif" font-size="14.00" fill="#000000">unsorted</text>
</g>
<!-- Reducer 7 -->
<g id="node10" class="node">
<title>Reducer 7</title>
<ellipse fill="none" stroke="#000000" cx="539.8507" cy="-190" rx="46.4045" ry="18"/>
<text text-anchor="middle" x="539.8507" y="-185.8" font-family="Times,serif" font-size="14.00" fill="#000000">Reducer 7</text>
</g>
<!-- Map 1&#45;&gt;Reducer 7 -->
<g id="edge11" class="edge">
<title>Map 1&#45;&gt;Reducer 7</title>
<path fill="none" stroke="#000000" d="M586.7494,-527.6822C624.9129,-517.8647 684.8507,-494.9692 684.8507,-448 684.8507,-448 684.8507,-448 684.8507,-276 684.8507,-231.698 634.1585,-209.7193 592.7198,-199.1536"/>
<polygon fill="#000000" stroke="#000000" points="593.502,-195.7421 582.9628,-196.827 591.8782,-202.5512 593.502,-195.7421"/>
<text text-anchor="middle" x="708.9576" y="-357.8" font-family="Times,serif" font-size="14.00" fill="#000000">unsorted</text>
</g>
<!-- Map 10&#45;&gt;Reducer 11 -->
<g id="edge8" class="edge">
<title>Map 10&#45;&gt;Reducer 11</title>
<path fill="none" stroke="#000000" d="M189.3722,-517.7019C183.6267,-511.8243 177.4781,-504.9255 172.6368,-498 167.7189,-490.965 163.2364,-482.811 159.4769,-475.155"/>
<polygon fill="#000000" stroke="#000000" points="162.53,-473.4212 155.1232,-465.8456 156.1891,-476.3867 162.53,-473.4212"/>
<text text-anchor="middle" x="196.9576" y="-486.8" font-family="Times,serif" font-size="14.00" fill="#000000">unsorted</text>
</g>
<!-- Map 10&#45;&gt;Reducer 12 -->
<g id="edge10" class="edge">
<title>Map 10&#45;&gt;Reducer 12</title>
<path fill="none" stroke="#000000" d="M218.9925,-516.5966C227.4756,-504.4376 238.9539,-487.9854 248.5429,-474.2412"/>
<polygon fill="#000000" stroke="#000000" points="251.6695,-475.8766 254.5209,-465.6727 245.9286,-471.8713 251.6695,-475.8766"/>
<text text-anchor="middle" x="264.9576" y="-486.8" font-family="Times,serif" font-size="14.00" fill="#000000">unsorted</text>
</g>
<!-- Map 10&#45;&gt;Reducer 13 -->
<g id="edge9" class="edge">
<title>Map 10&#45;&gt;Reducer 13</title>
<path fill="none" stroke="#000000" d="M236.2198,-522.5277C252.985,-515.7752 274.2953,-506.8461 292.8507,-498 311.9781,-488.8811 332.7935,-477.8029 349.8726,-468.3941"/>
<polygon fill="#000000" stroke="#000000" points="351.8961,-471.274 358.9422,-463.3617 348.4999,-465.1531 351.8961,-471.274"/>
<text text-anchor="middle" x="341.9576" y="-486.8" font-family="Times,serif" font-size="14.00" fill="#000000">unsorted</text>
</g>
<!-- Map 10&#45;&gt;Reducer 6 -->
<g id="edge15" class="edge">
<title>Map 10&#45;&gt;Reducer 6</title>
<path fill="none" stroke="#000000" d="M173.982,-525.1388C145.8173,-515.612 107.0104,-497.4241 88.8507,-466 80.845,-452.1468 81.3726,-444.1449 88.8507,-430 127.0553,-357.7355 216.0874,-313.0185 270.3038,-291.4803"/>
<polygon fill="#000000" stroke="#000000" points="271.6139,-294.7263 279.6744,-287.8504 269.0853,-288.1989 271.6139,-294.7263"/>
<text text-anchor="middle" x="133.9576" y="-400.8" font-family="Times,serif" font-size="14.00" fill="#000000">unsorted</text>
</g>
<!-- Reducer 8 -->
<g id="node14" class="node">
<title>Reducer 8</title>
<ellipse fill="none" stroke="#000000" cx="539.8507" cy="-104" rx="46.4045" ry="18"/>
<text text-anchor="middle" x="539.8507" y="-99.8" font-family="Times,serif" font-size="14.00" fill="#000000">Reducer 8</text>
</g>
<!-- Reducer 7&#45;&gt;Reducer 8 -->
<g id="edge20" class="edge">
<title>Reducer 7&#45;&gt;Reducer 8</title>
<path fill="none" stroke="#000000" d="M539.8507,-171.7616C539.8507,-160.3597 539.8507,-145.4342 539.8507,-132.494"/>
<polygon fill="#000000" stroke="#000000" points="543.3507,-132.2121 539.8507,-122.2121 536.3507,-132.2121 543.3507,-132.2121"/>
<text text-anchor="middle" x="556.9576" y="-142.8" font-family="Times,serif" font-size="14.00" fill="#000000">sorted</text>
</g>
<!-- Map 14 -->
<g id="node11" class="node">
<title>Map 14</title>
<ellipse fill="none" stroke="#000000" cx="493.8507" cy="-276" rx="37.243" ry="18"/>
<text text-anchor="middle" x="493.8507" y="-271.8" font-family="Times,serif" font-size="14.00" fill="#000000">Map 14</text>
</g>
<!-- Map 14&#45;&gt;Reducer 7 -->
<g id="edge12" class="edge">
<title>Map 14&#45;&gt;Reducer 7</title>
<path fill="none" stroke="#000000" d="M498.5548,-257.7904C501.4712,-248.0252 505.7154,-235.9823 511.209,-226 513.2451,-222.3003 515.662,-218.5931 518.2155,-215.0394"/>
<polygon fill="#000000" stroke="#000000" points="520.9955,-217.1657 524.3067,-207.1015 515.4422,-212.9042 520.9955,-217.1657"/>
<text text-anchor="middle" x="537.6715" y="-228.8" font-family="Times,serif" font-size="14.00" fill="#000000">broadcast</text>
</g>
<!-- Map 15 -->
<g id="node12" class="node">
<title>Map 15</title>
<ellipse fill="none" stroke="#000000" cx="586.8507" cy="-276" rx="37.243" ry="18"/>
<text text-anchor="middle" x="586.8507" y="-271.8" font-family="Times,serif" font-size="14.00" fill="#000000">Map 15</text>
</g>
<!-- Map 15&#45;&gt;Reducer 7 -->
<g id="edge13" class="edge">
<title>Map 15&#45;&gt;Reducer 7</title>
<path fill="none" stroke="#000000" d="M579.9203,-258.0111C575.9404,-248.3105 570.5992,-236.259 564.8507,-226 562.9932,-222.6851 560.9091,-219.2936 558.7574,-215.9815"/>
<polygon fill="#000000" stroke="#000000" points="561.5213,-213.821 553.0135,-207.5069 555.7269,-217.7484 561.5213,-213.821"/>
<text text-anchor="middle" x="597.6715" y="-228.8" font-family="Times,serif" font-size="14.00" fill="#000000">broadcast</text>
</g>
<!-- Reducer 6&#45;&gt;Reducer 7 -->
<g id="edge14" class="edge">
<title>Reducer 6&#45;&gt;Reducer 7</title>
<path fill="none" stroke="#000000" d="M348.0502,-263.3104C387.599,-248.1939 453.751,-222.9092 497.0937,-206.3427"/>
<polygon fill="#000000" stroke="#000000" points="498.4236,-209.5814 506.5149,-202.7417 495.9244,-203.0427 498.4236,-209.5814"/>
<text text-anchor="middle" x="463.9576" y="-228.8" font-family="Times,serif" font-size="14.00" fill="#000000">unsorted</text>
</g>
<!-- Reducer 9 -->
<g id="node15" class="node">
<title>Reducer 9</title>
<ellipse fill="none" stroke="#000000" cx="539.8507" cy="-18" rx="46.4045" ry="18"/>
<text text-anchor="middle" x="539.8507" y="-13.8" font-family="Times,serif" font-size="14.00" fill="#000000">Reducer 9</text>
</g>
<!-- Reducer 8&#45;&gt;Reducer 9 -->
<g id="edge19" class="edge">
<title>Reducer 8&#45;&gt;Reducer 9</title>
<path fill="none" stroke="#000000" d="M539.8507,-85.7616C539.8507,-74.3597 539.8507,-59.4342 539.8507,-46.494"/>
<polygon fill="#000000" stroke="#000000" points="543.3507,-46.2121 539.8507,-36.2121 536.3507,-46.2121 543.3507,-46.2121"/>
<text text-anchor="middle" x="556.9576" y="-56.8" font-family="Times,serif" font-size="14.00" fill="#000000">sorted</text>
</g>
</g>
</svg>
