<?xml version="1.0" encoding="UTF-8" standalone="no"?>
<!DOCTYPE svg PUBLIC "-//W3C//DTD SVG 1.1//EN"
 "http://www.w3.org/Graphics/SVG/1.1/DTD/svg11.dtd">
<!-- Generated by graphviz version 2.40.1 (20161225.0304)
 -->
<!-- Title: %3 Pages: 1 -->
<svg width="163pt" height="302pt"
 viewBox="0.00 0.00 162.59 302.00" xmlns="http://www.w3.org/2000/svg" xmlns:xlink="http://www.w3.org/1999/xlink">
<g id="graph0" class="graph" transform="scale(1 1) rotate(0) translate(4 298)">
<title>%3</title>
<polygon fill="#ffffff" stroke="transparent" points="-4,4 -4,-298 158.5912,-298 158.5912,4 -4,4"/>
<!-- Reducer 2 -->
<g id="node1" class="node">
<title>Reducer 2</title>
<ellipse fill="none" stroke="#000000" cx="74.9496" cy="-104" rx="46.4045" ry="18"/>
<text text-anchor="middle" x="74.9496" y="-99.8" font-family="Times,serif" font-size="14.00" fill="#000000">Reducer 2</text>
</g>
<!-- Reducer 3 -->
<g id="node2" class="node">
<title>Reducer 3</title>
<ellipse fill="none" stroke="#000000" cx="74.9496" cy="-18" rx="46.4045" ry="18"/>
<text text-anchor="middle" x="74.9496" y="-13.8" font-family="Times,serif" font-size="14.00" fill="#000000">Reducer 3</text>
</g>
<!-- Reducer 2&#45;&gt;Reducer 3 -->
<g id="edge1" class="edge">
<title>Reducer 2&#45;&gt;Reducer 3</title>
<path fill="none" stroke="#000000" d="M74.9496,-85.7616C74.9496,-74.3597 74.9496,-59.4342 74.9496,-46.494"/>
<polygon fill="#000000" stroke="#000000" points="78.4497,-46.2121 74.9496,-36.2121 71.4497,-46.2121 78.4497,-46.2121"/>
<text text-anchor="middle" x="92.0565" y="-56.8" font-family="Times,serif" font-size="14.00" fill="#000000">sorted</text>
</g>
<!-- Map 4 -->
<g id="node3" class="node">
<title>Map 4</title>
<ellipse fill="none" stroke="#000000" cx="32.9496" cy="-276" rx="32.8992" ry="18"/>
<text text-anchor="middle" x="32.9496" y="-271.8" font-family="Times,serif" font-size="14.00" fill="#000000">Map 4</text>
</g>
<!-- Map 1 -->
<g id="node4" class="node">
<title>Map 1</title>
<ellipse fill="none" stroke="#000000" cx="74.9496" cy="-190" rx="32.8992" ry="18"/>
<text text-anchor="middle" x="74.9496" y="-185.8" font-family="Times,serif" font-size="14.00" fill="#000000">Map 1</text>
</g>
<!-- Map 4&#45;&gt;Map 1 -->
<g id="edge2" class="edge">
<title>Map 4&#45;&gt;Map 1</title>
<path fill="none" stroke="#000000" d="M33.4712,-257.6336C34.3648,-247.8224 36.4768,-235.7857 41.308,-226 43.6156,-221.3259 46.7308,-216.8372 50.1383,-212.7104"/>
<polygon fill="#000000" stroke="#000000" points="52.7711,-215.0176 56.916,-205.2671 47.5954,-210.3046 52.7711,-215.0176"/>
<text text-anchor="middle" x="67.7704" y="-228.8" font-family="Times,serif" font-size="14.00" fill="#000000">broadcast</text>
</g>
<!-- Map 1&#45;&gt;Reducer 2 -->
<g id="edge4" class="edge">
<title>Map 1&#45;&gt;Reducer 2</title>
<path fill="none" stroke="#000000" d="M74.9496,-171.7616C74.9496,-160.3597 74.9496,-145.4342 74.9496,-132.494"/>
<polygon fill="#000000" stroke="#000000" points="78.4497,-132.2121 74.9496,-122.2121 71.4497,-132.2121 78.4497,-132.2121"/>
<text text-anchor="middle" x="92.0565" y="-142.8" font-family="Times,serif" font-size="14.00" fill="#000000">sorted</text>
</g>
<!-- Map 5 -->
<g id="node5" class="node">
<title>Map 5</title>
<ellipse fill="none" stroke="#000000" cx="116.9496" cy="-276" rx="32.8992" ry="18"/>
<text text-anchor="middle" x="116.9496" y="-271.8" font-family="Times,serif" font-size="14.00" fill="#000000">Map 5</text>
</g>
<!-- Map 5&#45;&gt;Map 1 -->
<g id="edge3" class="edge">
<title>Map 5&#45;&gt;Map 1</title>
<path fill="none" stroke="#000000" d="M109.6049,-258.2298C105.5038,-248.5933 100.1787,-236.5332 94.9496,-226 93.3758,-222.83 91.6629,-219.54 89.9235,-216.2948"/>
<polygon fill="#000000" stroke="#000000" points="92.9242,-214.4876 85.0448,-207.4049 86.7876,-217.8554 92.9242,-214.4876"/>
<text text-anchor="middle" x="127.7704" y="-228.8" font-family="Times,serif" font-size="14.00" fill="#000000">broadcast</text>
</g>
</g>
</svg>
