<?xml version="1.0" encoding="UTF-8" standalone="no"?>
<!DOCTYPE svg PUBLIC "-//W3C//DTD SVG 1.1//EN"
 "http://www.w3.org/Graphics/SVG/1.1/DTD/svg11.dtd">
<!-- Generated by graphviz version 2.40.1 (20161225.0304)
 -->
<!-- Title: %3 Pages: 1 -->
<svg width="474pt" height="388pt"
 viewBox="0.00 0.00 473.59 388.00" xmlns="http://www.w3.org/2000/svg" xmlns:xlink="http://www.w3.org/1999/xlink">
<g id="graph0" class="graph" transform="scale(1 1) rotate(0) translate(4 384)">
<title>%3</title>
<polygon fill="#ffffff" stroke="transparent" points="-4,4 -4,-384 469.5912,-384 469.5912,4 -4,4"/>
<!-- Map 4 -->
<g id="node1" class="node">
<title>Map 4</title>
<ellipse fill="none" stroke="#000000" cx="83.9496" cy="-362" rx="32.8992" ry="18"/>
<text text-anchor="middle" x="83.9496" y="-357.8" font-family="Times,serif" font-size="14.00" fill="#000000">Map 4</text>
</g>
<!-- Map 1 -->
<g id="node2" class="node">
<title>Map 1</title>
<ellipse fill="none" stroke="#000000" cx="252.9496" cy="-190" rx="32.8992" ry="18"/>
<text text-anchor="middle" x="252.9496" y="-185.8" font-family="Times,serif" font-size="14.00" fill="#000000">Map 1</text>
</g>
<!-- Map 4&#45;&gt;Map 1 -->
<g id="edge1" class="edge">
<title>Map 4&#45;&gt;Map 1</title>
<path fill="none" stroke="#000000" d="M89.8345,-344.0234C100.0954,-315.3017 123.8739,-258.9522 161.9496,-226 176.2327,-213.6388 195.2734,-205.2243 212.2453,-199.66"/>
<polygon fill="#000000" stroke="#000000" points="213.4011,-202.9668 221.9474,-196.7049 211.3615,-196.2705 213.4011,-202.9668"/>
<text text-anchor="middle" x="159.7704" y="-271.8" font-family="Times,serif" font-size="14.00" fill="#000000">broadcast</text>
</g>
<!-- Map 9 -->
<g id="node5" class="node">
<title>Map 9</title>
<ellipse fill="none" stroke="#000000" cx="32.9496" cy="-276" rx="32.8992" ry="18"/>
<text text-anchor="middle" x="32.9496" y="-271.8" font-family="Times,serif" font-size="14.00" fill="#000000">Map 9</text>
</g>
<!-- Map 4&#45;&gt;Map 9 -->
<g id="edge5" class="edge">
<title>Map 4&#45;&gt;Map 9</title>
<path fill="none" stroke="#000000" d="M58.9969,-350.1751C49.5235,-344.3146 39.7206,-336.2645 34.308,-326 30.8391,-319.4217 29.5392,-311.6491 29.3452,-304.2175"/>
<polygon fill="#000000" stroke="#000000" points="32.8473,-304.214 29.6965,-294.0985 25.8515,-303.971 32.8473,-304.214"/>
<text text-anchor="middle" x="61.7704" y="-314.8" font-family="Times,serif" font-size="14.00" fill="#000000">broadcast</text>
</g>
<!-- Reducer 2 -->
<g id="node8" class="node">
<title>Reducer 2</title>
<ellipse fill="none" stroke="#000000" cx="208.9496" cy="-104" rx="46.4045" ry="18"/>
<text text-anchor="middle" x="208.9496" y="-99.8" font-family="Times,serif" font-size="14.00" fill="#000000">Reducer 2</text>
</g>
<!-- Map 1&#45;&gt;Reducer 2 -->
<g id="edge8" class="edge">
<title>Map 1&#45;&gt;Reducer 2</title>
<path fill="none" stroke="#000000" d="M244.0455,-172.5966C237.8838,-160.5534 229.5673,-144.2984 222.5766,-130.6346"/>
<polygon fill="#000000" stroke="#000000" points="225.6621,-128.981 217.9914,-121.6727 219.4303,-132.1694 225.6621,-128.981"/>
<text text-anchor="middle" x="251.0565" y="-142.8" font-family="Times,serif" font-size="14.00" fill="#000000">sorted</text>
</g>
<!-- Reducer 6 -->
<g id="node3" class="node">
<title>Reducer 6</title>
<ellipse fill="none" stroke="#000000" cx="257.9496" cy="-276" rx="46.4045" ry="18"/>
<text text-anchor="middle" x="257.9496" y="-271.8" font-family="Times,serif" font-size="14.00" fill="#000000">Reducer 6</text>
</g>
<!-- Reducer 6&#45;&gt;Map 1 -->
<g id="edge2" class="edge">
<title>Reducer 6&#45;&gt;Map 1</title>
<path fill="none" stroke="#000000" d="M256.8892,-257.7616C256.2263,-246.3597 255.3585,-231.4342 254.6062,-218.494"/>
<polygon fill="#000000" stroke="#000000" points="258.083,-217.9921 254.0084,-208.2121 251.0948,-218.3984 258.083,-217.9921"/>
<text text-anchor="middle" x="282.7704" y="-228.8" font-family="Times,serif" font-size="14.00" fill="#000000">broadcast</text>
</g>
<!-- Reducer 8 -->
<g id="node4" class="node">
<title>Reducer 8</title>
<ellipse fill="none" stroke="#000000" cx="367.9496" cy="-276" rx="46.4045" ry="18"/>
<text text-anchor="middle" x="367.9496" y="-271.8" font-family="Times,serif" font-size="14.00" fill="#000000">Reducer 8</text>
</g>
<!-- Reducer 8&#45;&gt;Map 1 -->
<g id="edge3" class="edge">
<title>Reducer 8&#45;&gt;Map 1</title>
<path fill="none" stroke="#000000" d="M351.264,-258.7952C340.9885,-248.6586 327.2715,-235.9199 313.9496,-226 305.1299,-219.4326 295.0289,-213.0608 285.6179,-207.5492"/>
<polygon fill="#000000" stroke="#000000" points="287.2895,-204.4733 276.8706,-202.5502 283.8162,-210.5508 287.2895,-204.4733"/>
<text text-anchor="middle" x="356.7704" y="-228.8" font-family="Times,serif" font-size="14.00" fill="#000000">broadcast</text>
</g>
<!-- Reducer 10 -->
<g id="node6" class="node">
<title>Reducer 10</title>
<ellipse fill="none" stroke="#000000" cx="73.9496" cy="-190" rx="50.7474" ry="18"/>
<text text-anchor="middle" x="73.9496" y="-185.8" font-family="Times,serif" font-size="14.00" fill="#000000">Reducer 10</text>
</g>
<!-- Map 9&#45;&gt;Reducer 10 -->
<g id="edge4" class="edge">
<title>Map 9&#45;&gt;Reducer 10</title>
<path fill="none" stroke="#000000" d="M39.762,-258.1892C43.5997,-248.5407 48.6359,-236.4822 53.7357,-226 55.2096,-222.9706 56.8236,-219.8401 58.4766,-216.7478"/>
<polygon fill="#000000" stroke="#000000" points="61.6883,-218.1716 63.4516,-207.7245 55.5583,-214.7917 61.6883,-218.1716"/>
<text text-anchor="middle" x="71.0565" y="-228.8" font-family="Times,serif" font-size="14.00" fill="#000000">sorted</text>
</g>
<!-- Reducer 10&#45;&gt;Reducer 2 -->
<g id="edge11" class="edge">
<title>Reducer 10&#45;&gt;Reducer 2</title>
<path fill="none" stroke="#000000" d="M85.5292,-172.307C93.1998,-161.738 104.0795,-148.717 116.308,-140 129.5629,-130.5513 145.629,-123.1778 160.6344,-117.6331"/>
<polygon fill="#000000" stroke="#000000" points="162.0191,-120.8567 170.3018,-114.2501 159.707,-114.2496 162.0191,-120.8567"/>
<text text-anchor="middle" x="143.7704" y="-142.8" font-family="Times,serif" font-size="14.00" fill="#000000">broadcast</text>
</g>
<!-- Map 5 -->
<g id="node7" class="node">
<title>Map 5</title>
<ellipse fill="none" stroke="#000000" cx="200.9496" cy="-362" rx="32.8992" ry="18"/>
<text text-anchor="middle" x="200.9496" y="-357.8" font-family="Times,serif" font-size="14.00" fill="#000000">Map 5</text>
</g>
<!-- Map 5&#45;&gt;Reducer 6 -->
<g id="edge6" class="edge">
<title>Map 5&#45;&gt;Reducer 6</title>
<path fill="none" stroke="#000000" d="M212.2109,-345.0092C220.3018,-332.802 231.3616,-316.1151 240.579,-302.2083"/>
<polygon fill="#000000" stroke="#000000" points="243.713,-303.815 246.3203,-293.546 237.8782,-299.9477 243.713,-303.815"/>
<text text-anchor="middle" x="257.0565" y="-314.8" font-family="Times,serif" font-size="14.00" fill="#000000">unsorted</text>
</g>
<!-- Map 5&#45;&gt;Reducer 2 -->
<g id="edge9" class="edge">
<title>Map 5&#45;&gt;Reducer 2</title>
<path fill="none" stroke="#000000" d="M199.8774,-343.9521C198.4936,-317.8964 196.4696,-268.2319 198.308,-226 199.7094,-193.8052 203.1817,-156.9667 205.7815,-132.2691"/>
<polygon fill="#000000" stroke="#000000" points="209.2796,-132.4737 206.8687,-122.1568 202.3197,-131.7253 209.2796,-132.4737"/>
<text text-anchor="middle" x="225.7704" y="-228.8" font-family="Times,serif" font-size="14.00" fill="#000000">broadcast</text>
</g>
<!-- Reducer 3 -->
<g id="node9" class="node">
<title>Reducer 3</title>
<ellipse fill="none" stroke="#000000" cx="208.9496" cy="-18" rx="46.4045" ry="18"/>
<text text-anchor="middle" x="208.9496" y="-13.8" font-family="Times,serif" font-size="14.00" fill="#000000">Reducer 3</text>
</g>
<!-- Reducer 2&#45;&gt;Reducer 3 -->
<g id="edge7" class="edge">
<title>Reducer 2&#45;&gt;Reducer 3</title>
<path fill="none" stroke="#000000" d="M208.9496,-85.7616C208.9496,-74.3597 208.9496,-59.4342 208.9496,-46.494"/>
<polygon fill="#000000" stroke="#000000" points="212.4497,-46.2121 208.9496,-36.2121 205.4497,-46.2121 212.4497,-46.2121"/>
<text text-anchor="middle" x="226.0565" y="-56.8" font-family="Times,serif" font-size="14.00" fill="#000000">sorted</text>
</g>
<!-- Map 7 -->
<g id="node10" class="node">
<title>Map 7</title>
<ellipse fill="none" stroke="#000000" cx="409.9496" cy="-362" rx="32.8992" ry="18"/>
<text text-anchor="middle" x="409.9496" y="-357.8" font-family="Times,serif" font-size="14.00" fill="#000000">Map 7</text>
</g>
<!-- Map 7&#45;&gt;Reducer 8 -->
<g id="edge12" class="edge">
<title>Map 7&#45;&gt;Reducer 8</title>
<path fill="none" stroke="#000000" d="M393.7254,-345.9559C388.5883,-340.0986 383.3205,-333.1478 379.7357,-326 376.366,-319.2811 373.9376,-311.5668 372.1959,-304.2408"/>
<polygon fill="#000000" stroke="#000000" points="375.5935,-303.385 370.1645,-294.2869 368.7349,-304.7848 375.5935,-303.385"/>
<text text-anchor="middle" x="403.0565" y="-314.8" font-family="Times,serif" font-size="14.00" fill="#000000">unsorted</text>
</g>
<!-- Map 7&#45;&gt;Reducer 2 -->
<g id="edge10" class="edge">
<title>Map 7&#45;&gt;Reducer 2</title>
<path fill="none" stroke="#000000" d="M420.6382,-344.6767C423.6127,-338.9446 426.4404,-332.3927 427.9496,-326 432.1658,-308.1399 432.0413,-276.2936 422.9496,-258 388.0459,-187.77 304.0044,-142.5649 252.2338,-120.3459"/>
<polygon fill="#000000" stroke="#000000" points="253.5376,-117.0975 242.9617,-116.4638 250.8341,-123.5544 253.5376,-117.0975"/>
<text text-anchor="middle" x="438.7704" y="-228.8" font-family="Times,serif" font-size="14.00" fill="#000000">broadcast</text>
</g>
</g>
</svg>
