<?xml version="1.0" encoding="UTF-8" standalone="no"?>
<!DOCTYPE svg PUBLIC "-//W3C//DTD SVG 1.1//EN"
 "http://www.w3.org/Graphics/SVG/1.1/DTD/svg11.dtd">
<!-- Generated by graphviz version 2.40.1 (20161225.0304)
 -->
<!-- Title: %3 Pages: 1 -->
<svg width="351pt" height="560pt"
 viewBox="0.00 0.00 350.90 560.00" xmlns="http://www.w3.org/2000/svg" xmlns:xlink="http://www.w3.org/1999/xlink">
<g id="graph0" class="graph" transform="scale(1 1) rotate(0) translate(4 556)">
<title>%3</title>
<polygon fill="#ffffff" stroke="transparent" points="-4,4 -4,-556 346.8991,-556 346.8991,4 -4,4"/>
<!-- Map 4 -->
<g id="node1" class="node">
<title>Map 4</title>
<ellipse fill="none" stroke="#000000" cx="32.9496" cy="-534" rx="32.8992" ry="18"/>
<text text-anchor="middle" x="32.9496" y="-529.8" font-family="Times,serif" font-size="14.00" fill="#000000">Map 4</text>
</g>
<!-- Map 5 -->
<g id="node2" class="node">
<title>Map 5</title>
<ellipse fill="none" stroke="#000000" cx="87.9496" cy="-190" rx="32.8992" ry="18"/>
<text text-anchor="middle" x="87.9496" y="-185.8" font-family="Times,serif" font-size="14.00" fill="#000000">Map 5</text>
</g>
<!-- Map 4&#45;&gt;Map 5 -->
<g id="edge1" class="edge">
<title>Map 4&#45;&gt;Map 5</title>
<path fill="none" stroke="#000000" d="M27.6218,-516.0606C22.9674,-498.787 16.9496,-471.8432 16.9496,-448 16.9496,-448 16.9496,-448 16.9496,-276 16.9496,-248.5553 38.7179,-225.1362 58.1478,-209.6991"/>
<polygon fill="#000000" stroke="#000000" points="60.3825,-212.3976 66.2614,-203.5835 56.1691,-206.8077 60.3825,-212.3976"/>
<text text-anchor="middle" x="43.7704" y="-357.8" font-family="Times,serif" font-size="14.00" fill="#000000">broadcast</text>
</g>
<!-- Map 1 -->
<g id="node4" class="node">
<title>Map 1</title>
<ellipse fill="none" stroke="#000000" cx="105.9496" cy="-448" rx="32.8992" ry="18"/>
<text text-anchor="middle" x="105.9496" y="-443.8" font-family="Times,serif" font-size="14.00" fill="#000000">Map 1</text>
</g>
<!-- Map 4&#45;&gt;Map 1 -->
<g id="edge3" class="edge">
<title>Map 4&#45;&gt;Map 1</title>
<path fill="none" stroke="#000000" d="M47.0247,-517.4183C57.8306,-504.6881 72.9177,-486.9142 85.1204,-472.5385"/>
<polygon fill="#000000" stroke="#000000" points="88.1146,-474.4195 91.9176,-464.5308 82.7779,-469.8896 88.1146,-474.4195"/>
<text text-anchor="middle" x="99.7704" y="-486.8" font-family="Times,serif" font-size="14.00" fill="#000000">broadcast</text>
</g>
<!-- Reducer 6 -->
<g id="node5" class="node">
<title>Reducer 6</title>
<ellipse fill="none" stroke="#000000" cx="194.9496" cy="-104" rx="46.4045" ry="18"/>
<text text-anchor="middle" x="194.9496" y="-99.8" font-family="Times,serif" font-size="14.00" fill="#000000">Reducer 6</text>
</g>
<!-- Map 5&#45;&gt;Reducer 6 -->
<g id="edge5" class="edge">
<title>Map 5&#45;&gt;Reducer 6</title>
<path fill="none" stroke="#000000" d="M95.0164,-171.966C99.846,-161.5356 107.1189,-148.7791 116.7357,-140 126.0505,-131.4966 137.7215,-124.6878 149.1837,-119.3802"/>
<polygon fill="#000000" stroke="#000000" points="150.9117,-122.4466 158.7065,-115.2708 148.1382,-116.0195 150.9117,-122.4466"/>
<text text-anchor="middle" x="133.0565" y="-142.8" font-family="Times,serif" font-size="14.00" fill="#000000">sorted</text>
</g>
<!-- Reducer 3 -->
<g id="node3" class="node">
<title>Reducer 3</title>
<ellipse fill="none" stroke="#000000" cx="90.9496" cy="-276" rx="46.4045" ry="18"/>
<text text-anchor="middle" x="90.9496" y="-271.8" font-family="Times,serif" font-size="14.00" fill="#000000">Reducer 3</text>
</g>
<!-- Reducer 3&#45;&gt;Map 5 -->
<g id="edge2" class="edge">
<title>Reducer 3&#45;&gt;Map 5</title>
<path fill="none" stroke="#000000" d="M90.0493,-257.6886C89.7881,-252.0194 89.5172,-245.7522 89.308,-240 89.0522,-232.9694 88.8222,-225.3812 88.6274,-218.2924"/>
<polygon fill="#000000" stroke="#000000" points="92.12,-217.9594 88.3599,-208.0543 85.1224,-218.1423 92.12,-217.9594"/>
<text text-anchor="middle" x="115.7704" y="-228.8" font-family="Times,serif" font-size="14.00" fill="#000000">broadcast</text>
</g>
<!-- Reducer 2 -->
<g id="node9" class="node">
<title>Reducer 2</title>
<ellipse fill="none" stroke="#000000" cx="134.9496" cy="-362" rx="46.4045" ry="18"/>
<text text-anchor="middle" x="134.9496" y="-357.8" font-family="Times,serif" font-size="14.00" fill="#000000">Reducer 2</text>
</g>
<!-- Map 1&#45;&gt;Reducer 2 -->
<g id="edge10" class="edge">
<title>Map 1&#45;&gt;Reducer 2</title>
<path fill="none" stroke="#000000" d="M111.9584,-430.1807C115.8981,-418.4975 121.129,-402.985 125.606,-389.7086"/>
<polygon fill="#000000" stroke="#000000" points="128.9698,-390.6865 128.8487,-380.0923 122.3368,-388.4497 128.9698,-390.6865"/>
<text text-anchor="middle" x="139.0565" y="-400.8" font-family="Times,serif" font-size="14.00" fill="#000000">sorted</text>
</g>
<!-- Reducer 7 -->
<g id="node6" class="node">
<title>Reducer 7</title>
<ellipse fill="none" stroke="#000000" cx="194.9496" cy="-18" rx="46.4045" ry="18"/>
<text text-anchor="middle" x="194.9496" y="-13.8" font-family="Times,serif" font-size="14.00" fill="#000000">Reducer 7</text>
</g>
<!-- Reducer 6&#45;&gt;Reducer 7 -->
<g id="edge4" class="edge">
<title>Reducer 6&#45;&gt;Reducer 7</title>
<path fill="none" stroke="#000000" d="M194.9496,-85.7616C194.9496,-74.3597 194.9496,-59.4342 194.9496,-46.494"/>
<polygon fill="#000000" stroke="#000000" points="198.4497,-46.2121 194.9496,-36.2121 191.4497,-46.2121 198.4497,-46.2121"/>
<text text-anchor="middle" x="212.0565" y="-56.8" font-family="Times,serif" font-size="14.00" fill="#000000">sorted</text>
</g>
<!-- Map 8 -->
<g id="node7" class="node">
<title>Map 8</title>
<ellipse fill="none" stroke="#000000" cx="225.9496" cy="-190" rx="32.8992" ry="18"/>
<text text-anchor="middle" x="225.9496" y="-185.8" font-family="Times,serif" font-size="14.00" fill="#000000">Map 8</text>
</g>
<!-- Map 8&#45;&gt;Reducer 6 -->
<g id="edge6" class="edge">
<title>Map 8&#45;&gt;Reducer 6</title>
<path fill="none" stroke="#000000" d="M219.5263,-172.1807C215.3149,-160.4975 209.7232,-144.985 204.9375,-131.7086"/>
<polygon fill="#000000" stroke="#000000" points="208.155,-130.3129 201.4712,-122.0923 201.5697,-132.6867 208.155,-130.3129"/>
<text text-anchor="middle" x="238.7704" y="-142.8" font-family="Times,serif" font-size="14.00" fill="#000000">broadcast</text>
</g>
<!-- Map 9 -->
<g id="node8" class="node">
<title>Map 9</title>
<ellipse fill="none" stroke="#000000" cx="309.9496" cy="-190" rx="32.8992" ry="18"/>
<text text-anchor="middle" x="309.9496" y="-185.8" font-family="Times,serif" font-size="14.00" fill="#000000">Map 9</text>
</g>
<!-- Map 9&#45;&gt;Reducer 6 -->
<g id="edge7" class="edge">
<title>Map 9&#45;&gt;Reducer 6</title>
<path fill="none" stroke="#000000" d="M298.9708,-172.5997C291.7108,-162.1408 281.4349,-149.1328 269.9496,-140 260.4111,-132.4153 249.013,-125.9197 238.0173,-120.6191"/>
<polygon fill="#000000" stroke="#000000" points="239.4739,-117.4366 228.9251,-116.45 236.5562,-123.7996 239.4739,-117.4366"/>
<text text-anchor="middle" x="309.7704" y="-142.8" font-family="Times,serif" font-size="14.00" fill="#000000">broadcast</text>
</g>
<!-- Reducer 2&#45;&gt;Reducer 3 -->
<g id="edge9" class="edge">
<title>Reducer 2&#45;&gt;Reducer 3</title>
<path fill="none" stroke="#000000" d="M116.9556,-345.3945C111.6929,-339.7007 106.3813,-332.9902 102.7357,-326 99.2599,-319.3353 96.7952,-311.6396 95.0527,-304.314"/>
<polygon fill="#000000" stroke="#000000" points="98.4508,-303.4595 93.0399,-294.3506 91.5894,-304.8456 98.4508,-303.4595"/>
<text text-anchor="middle" x="126.0565" y="-314.8" font-family="Times,serif" font-size="14.00" fill="#000000">unsorted</text>
</g>
<!-- Reducer 2&#45;&gt;Reducer 6 -->
<g id="edge8" class="edge">
<title>Reducer 2&#45;&gt;Reducer 6</title>
<path fill="none" stroke="#000000" d="M143.8948,-343.9915C146.4472,-338.3346 149.0484,-331.9982 150.9496,-326 162.3377,-290.0707 181.3689,-183.3097 190.1913,-132.0629"/>
<polygon fill="#000000" stroke="#000000" points="193.6737,-132.4629 191.9125,-122.0155 186.7742,-131.2809 193.6737,-132.4629"/>
<text text-anchor="middle" x="199.7704" y="-228.8" font-family="Times,serif" font-size="14.00" fill="#000000">broadcast</text>
</g>
</g>
</svg>
