<?xml version="1.0" encoding="UTF-8" standalone="no"?>
<!DOCTYPE svg PUBLIC "-//W3C//DTD SVG 1.1//EN"
 "http://www.w3.org/Graphics/SVG/1.1/DTD/svg11.dtd">
<!-- Generated by graphviz version 2.40.1 (20161225.0304)
 -->
<!-- Title: %3 Pages: 1 -->
<svg width="577pt" height="646pt"
 viewBox="0.00 0.00 577.34 646.00" xmlns="http://www.w3.org/2000/svg" xmlns:xlink="http://www.w3.org/1999/xlink">
<g id="graph0" class="graph" transform="scale(1 1) rotate(0) translate(4 642)">
<title>%3</title>
<polygon fill="#ffffff" stroke="transparent" points="-4,4 -4,-642 573.3397,-642 573.3397,4 -4,4"/>
<!-- Map 10 -->
<g id="node1" class="node">
<title>Map 10</title>
<ellipse fill="none" stroke="#000000" cx="209.1258" cy="-620" rx="37.243" ry="18"/>
<text text-anchor="middle" x="209.1258" y="-615.8" font-family="Times,serif" font-size="14.00" fill="#000000">Map 10</text>
</g>
<!-- Map 5 -->
<g id="node2" class="node">
<title>Map 5</title>
<ellipse fill="none" stroke="#000000" cx="262.1258" cy="-362" rx="32.8992" ry="18"/>
<text text-anchor="middle" x="262.1258" y="-357.8" font-family="Times,serif" font-size="14.00" fill="#000000">Map 5</text>
</g>
<!-- Map 10&#45;&gt;Map 5 -->
<g id="edge1" class="edge">
<title>Map 10&#45;&gt;Map 5</title>
<path fill="none" stroke="#000000" d="M213.5259,-602.0465C220.4786,-573.3829 234.2304,-515.469 244.1258,-466 249.2372,-440.4475 254.2244,-411.1907 257.648,-390.2306"/>
<polygon fill="#000000" stroke="#000000" points="261.1466,-390.5201 259.2882,-380.0896 254.2364,-389.4024 261.1466,-390.5201"/>
<text text-anchor="middle" x="266.9466" y="-486.8" font-family="Times,serif" font-size="14.00" fill="#000000">broadcast</text>
</g>
<!-- Map 11 -->
<g id="node9" class="node">
<title>Map 11</title>
<ellipse fill="none" stroke="#000000" cx="97.1258" cy="-534" rx="37.0949" ry="18"/>
<text text-anchor="middle" x="97.1258" y="-529.8" font-family="Times,serif" font-size="14.00" fill="#000000">Map 11</text>
</g>
<!-- Map 10&#45;&gt;Map 11 -->
<g id="edge19" class="edge">
<title>Map 10&#45;&gt;Map 11</title>
<path fill="none" stroke="#000000" d="M189.1025,-604.6249C171.2646,-590.928 144.9811,-570.746 125.0739,-555.4601"/>
<polygon fill="#000000" stroke="#000000" points="127.0389,-552.5562 116.9758,-549.242 122.7757,-558.1083 127.0389,-552.5562"/>
<text text-anchor="middle" x="185.9466" y="-572.8" font-family="Times,serif" font-size="14.00" fill="#000000">broadcast</text>
</g>
<!-- Reducer 6 -->
<g id="node13" class="node">
<title>Reducer 6</title>
<ellipse fill="none" stroke="#000000" cx="259.1258" cy="-276" rx="46.4045" ry="18"/>
<text text-anchor="middle" x="259.1258" y="-271.8" font-family="Times,serif" font-size="14.00" fill="#000000">Reducer 6</text>
</g>
<!-- Map 5&#45;&gt;Reducer 6 -->
<g id="edge14" class="edge">
<title>Map 5&#45;&gt;Reducer 6</title>
<path fill="none" stroke="#000000" d="M261.4896,-343.7616C261.0918,-332.3597 260.5712,-317.4342 260.1198,-304.494"/>
<polygon fill="#000000" stroke="#000000" points="263.6077,-304.084 259.7611,-294.2121 256.612,-304.3281 263.6077,-304.084"/>
<text text-anchor="middle" x="284.2327" y="-314.8" font-family="Times,serif" font-size="14.00" fill="#000000">unsorted</text>
</g>
<!-- Reducer 12 -->
<g id="node3" class="node">
<title>Reducer 12</title>
<ellipse fill="none" stroke="#000000" cx="65.1258" cy="-448" rx="50.7474" ry="18"/>
<text text-anchor="middle" x="65.1258" y="-443.8" font-family="Times,serif" font-size="14.00" fill="#000000">Reducer 12</text>
</g>
<!-- Reducer 12&#45;&gt;Map 5 -->
<g id="edge2" class="edge">
<title>Reducer 12&#45;&gt;Map 5</title>
<path fill="none" stroke="#000000" d="M83.2689,-431.0265C95.7164,-420.1979 113.0741,-406.6256 130.4842,-398 158.8796,-383.9318 193.5364,-374.7372 220.1616,-369.1637"/>
<polygon fill="#000000" stroke="#000000" points="221.1882,-372.5277 230.3066,-367.1326 219.814,-365.6639 221.1882,-372.5277"/>
<text text-anchor="middle" x="157.9466" y="-400.8" font-family="Times,serif" font-size="14.00" fill="#000000">broadcast</text>
</g>
<!-- Reducer 13 -->
<g id="node4" class="node">
<title>Reducer 13</title>
<ellipse fill="none" stroke="#000000" cx="184.1258" cy="-448" rx="50.7474" ry="18"/>
<text text-anchor="middle" x="184.1258" y="-443.8" font-family="Times,serif" font-size="14.00" fill="#000000">Reducer 13</text>
</g>
<!-- Reducer 13&#45;&gt;Map 5 -->
<g id="edge3" class="edge">
<title>Reducer 13&#45;&gt;Map 5</title>
<path fill="none" stroke="#000000" d="M184.6371,-429.8059C185.7541,-419.5746 188.5937,-407.0746 195.4842,-398 202.8034,-388.3608 213.4738,-380.9994 224.1397,-375.5238"/>
<polygon fill="#000000" stroke="#000000" points="225.8468,-378.5896 233.4271,-371.1876 222.8853,-372.2468 225.8468,-378.5896"/>
<text text-anchor="middle" x="221.9466" y="-400.8" font-family="Times,serif" font-size="14.00" fill="#000000">broadcast</text>
</g>
<!-- Reducer 2 -->
<g id="node5" class="node">
<title>Reducer 2</title>
<ellipse fill="none" stroke="#000000" cx="337.1258" cy="-448" rx="46.4045" ry="18"/>
<text text-anchor="middle" x="337.1258" y="-443.8" font-family="Times,serif" font-size="14.00" fill="#000000">Reducer 2</text>
</g>
<!-- Reducer 2&#45;&gt;Map 5 -->
<g id="edge4" class="edge">
<title>Reducer 2&#45;&gt;Map 5</title>
<path fill="none" stroke="#000000" d="M321.9484,-430.5966C310.8564,-417.8777 295.6676,-400.4613 283.3706,-386.3606"/>
<polygon fill="#000000" stroke="#000000" points="285.7277,-383.7384 276.5172,-378.5021 280.4521,-388.3392 285.7277,-383.7384"/>
<text text-anchor="middle" x="329.9466" y="-400.8" font-family="Times,serif" font-size="14.00" fill="#000000">broadcast</text>
</g>
<!-- Reducer 3 -->
<g id="node6" class="node">
<title>Reducer 3</title>
<ellipse fill="none" stroke="#000000" cx="447.1258" cy="-448" rx="46.4045" ry="18"/>
<text text-anchor="middle" x="447.1258" y="-443.8" font-family="Times,serif" font-size="14.00" fill="#000000">Reducer 3</text>
</g>
<!-- Reducer 3&#45;&gt;Map 5 -->
<g id="edge5" class="edge">
<title>Reducer 3&#45;&gt;Map 5</title>
<path fill="none" stroke="#000000" d="M422.9137,-432.3626C406.0166,-421.8422 382.7124,-408.102 361.1258,-398 341.6088,-388.8666 319.086,-380.5146 300.4585,-374.1594"/>
<polygon fill="#000000" stroke="#000000" points="301.4265,-370.7926 290.8326,-370.9335 299.2022,-377.4298 301.4265,-370.7926"/>
<text text-anchor="middle" x="413.9466" y="-400.8" font-family="Times,serif" font-size="14.00" fill="#000000">broadcast</text>
</g>
<!-- Map 4 -->
<g id="node7" class="node">
<title>Map 4</title>
<ellipse fill="none" stroke="#000000" cx="447.1258" cy="-620" rx="32.8992" ry="18"/>
<text text-anchor="middle" x="447.1258" y="-615.8" font-family="Times,serif" font-size="14.00" fill="#000000">Map 4</text>
</g>
<!-- Map 1 -->
<g id="node8" class="node">
<title>Map 1</title>
<ellipse fill="none" stroke="#000000" cx="447.1258" cy="-534" rx="32.8992" ry="18"/>
<text text-anchor="middle" x="447.1258" y="-529.8" font-family="Times,serif" font-size="14.00" fill="#000000">Map 1</text>
</g>
<!-- Map 4&#45;&gt;Map 1 -->
<g id="edge6" class="edge">
<title>Map 4&#45;&gt;Map 1</title>
<path fill="none" stroke="#000000" d="M447.1258,-601.7616C447.1258,-590.3597 447.1258,-575.4342 447.1258,-562.494"/>
<polygon fill="#000000" stroke="#000000" points="450.6259,-562.2121 447.1258,-552.2121 443.6259,-562.2121 450.6259,-562.2121"/>
<text text-anchor="middle" x="473.9466" y="-572.8" font-family="Times,serif" font-size="14.00" fill="#000000">broadcast</text>
</g>
<!-- Map 1&#45;&gt;Reducer 2 -->
<g id="edge16" class="edge">
<title>Map 1&#45;&gt;Reducer 2</title>
<path fill="none" stroke="#000000" d="M425.9167,-520.1481C416.28,-513.6596 404.8399,-505.6806 394.9119,-498 384.1485,-489.673 372.7328,-479.9913 362.9157,-471.3776"/>
<polygon fill="#000000" stroke="#000000" points="365.2345,-468.7559 355.4283,-464.7447 360.5928,-473.9957 365.2345,-468.7559"/>
<text text-anchor="middle" x="418.2327" y="-486.8" font-family="Times,serif" font-size="14.00" fill="#000000">unsorted</text>
</g>
<!-- Map 1&#45;&gt;Reducer 3 -->
<g id="edge15" class="edge">
<title>Map 1&#45;&gt;Reducer 3</title>
<path fill="none" stroke="#000000" d="M447.1258,-515.7616C447.1258,-504.3597 447.1258,-489.4342 447.1258,-476.494"/>
<polygon fill="#000000" stroke="#000000" points="450.6259,-476.2121 447.1258,-466.2121 443.6259,-476.2121 450.6259,-476.2121"/>
<text text-anchor="middle" x="471.2327" y="-486.8" font-family="Times,serif" font-size="14.00" fill="#000000">unsorted</text>
</g>
<!-- Reducer 7 -->
<g id="node10" class="node">
<title>Reducer 7</title>
<ellipse fill="none" stroke="#000000" cx="407.1258" cy="-190" rx="46.4045" ry="18"/>
<text text-anchor="middle" x="407.1258" y="-185.8" font-family="Times,serif" font-size="14.00" fill="#000000">Reducer 7</text>
</g>
<!-- Map 1&#45;&gt;Reducer 7 -->
<g id="edge9" class="edge">
<title>Map 1&#45;&gt;Reducer 7</title>
<path fill="none" stroke="#000000" d="M470.8094,-521.483C480.5625,-515.4175 491.3689,-507.4008 499.1258,-498 514.5775,-479.2737 521.1258,-472.2782 521.1258,-448 521.1258,-448 521.1258,-448 521.1258,-276 521.1258,-250.9529 513.6257,-242.8852 495.1258,-226 484.0311,-215.8737 469.7045,-208.3976 455.8457,-202.9672"/>
<polygon fill="#000000" stroke="#000000" points="456.9654,-199.6503 446.3713,-199.5271 454.5763,-206.23 456.9654,-199.6503"/>
<text text-anchor="middle" x="545.2327" y="-357.8" font-family="Times,serif" font-size="14.00" fill="#000000">unsorted</text>
</g>
<!-- Map 11&#45;&gt;Reducer 12 -->
<g id="edge8" class="edge">
<title>Map 11&#45;&gt;Reducer 12</title>
<path fill="none" stroke="#000000" d="M90.4954,-516.1807C86.1481,-504.4975 80.376,-488.985 75.436,-475.7086"/>
<polygon fill="#000000" stroke="#000000" points="78.6255,-474.2439 71.8578,-466.0923 72.065,-476.6851 78.6255,-474.2439"/>
<text text-anchor="middle" x="107.2327" y="-486.8" font-family="Times,serif" font-size="14.00" fill="#000000">unsorted</text>
</g>
<!-- Map 11&#45;&gt;Reducer 13 -->
<g id="edge7" class="edge">
<title>Map 11&#45;&gt;Reducer 13</title>
<path fill="none" stroke="#000000" d="M114.2793,-518.0048C120.8514,-511.81 128.3865,-504.6262 135.1258,-498 143.4864,-489.7797 152.504,-480.6547 160.4962,-472.474"/>
<polygon fill="#000000" stroke="#000000" points="163.0321,-474.8867 167.4995,-465.2798 158.0162,-470.004 163.0321,-474.8867"/>
<text text-anchor="middle" x="173.2327" y="-486.8" font-family="Times,serif" font-size="14.00" fill="#000000">unsorted</text>
</g>
<!-- Map 11&#45;&gt;Reducer 6 -->
<g id="edge13" class="edge">
<title>Map 11&#45;&gt;Reducer 6</title>
<path fill="none" stroke="#000000" d="M70.5566,-521.1775C36.4782,-502.8629 -15.8701,-467.2833 5.1258,-430 49.1107,-351.8941 150.4678,-308.8559 211.0073,-289.2733"/>
<polygon fill="#000000" stroke="#000000" points="212.2318,-292.5573 220.7215,-286.2189 210.1321,-285.8796 212.2318,-292.5573"/>
<text text-anchor="middle" x="50.2327" y="-400.8" font-family="Times,serif" font-size="14.00" fill="#000000">unsorted</text>
</g>
<!-- Reducer 8 -->
<g id="node14" class="node">
<title>Reducer 8</title>
<ellipse fill="none" stroke="#000000" cx="407.1258" cy="-104" rx="46.4045" ry="18"/>
<text text-anchor="middle" x="407.1258" y="-99.8" font-family="Times,serif" font-size="14.00" fill="#000000">Reducer 8</text>
</g>
<!-- Reducer 7&#45;&gt;Reducer 8 -->
<g id="edge18" class="edge">
<title>Reducer 7&#45;&gt;Reducer 8</title>
<path fill="none" stroke="#000000" d="M407.1258,-171.7616C407.1258,-160.3597 407.1258,-145.4342 407.1258,-132.494"/>
<polygon fill="#000000" stroke="#000000" points="410.6259,-132.2121 407.1258,-122.2121 403.6259,-132.2121 410.6259,-132.2121"/>
<text text-anchor="middle" x="424.2327" y="-142.8" font-family="Times,serif" font-size="14.00" fill="#000000">sorted</text>
</g>
<!-- Map 14 -->
<g id="node11" class="node">
<title>Map 14</title>
<ellipse fill="none" stroke="#000000" cx="361.1258" cy="-276" rx="37.243" ry="18"/>
<text text-anchor="middle" x="361.1258" y="-271.8" font-family="Times,serif" font-size="14.00" fill="#000000">Map 14</text>
</g>
<!-- Map 14&#45;&gt;Reducer 7 -->
<g id="edge10" class="edge">
<title>Map 14&#45;&gt;Reducer 7</title>
<path fill="none" stroke="#000000" d="M364.8465,-257.7034C367.2975,-247.9127 371.07,-235.8732 376.4842,-226 378.5708,-222.1949 381.1027,-218.4259 383.8068,-214.8403"/>
<polygon fill="#000000" stroke="#000000" points="386.6936,-216.8384 390.3007,-206.8765 381.2686,-212.4147 386.6936,-216.8384"/>
<text text-anchor="middle" x="402.9466" y="-228.8" font-family="Times,serif" font-size="14.00" fill="#000000">broadcast</text>
</g>
<!-- Map 15 -->
<g id="node12" class="node">
<title>Map 15</title>
<ellipse fill="none" stroke="#000000" cx="454.1258" cy="-276" rx="37.243" ry="18"/>
<text text-anchor="middle" x="454.1258" y="-271.8" font-family="Times,serif" font-size="14.00" fill="#000000">Map 15</text>
</g>
<!-- Map 15&#45;&gt;Reducer 7 -->
<g id="edge11" class="edge">
<title>Map 15&#45;&gt;Reducer 7</title>
<path fill="none" stroke="#000000" d="M446.196,-258.149C441.7462,-248.4887 435.9339,-236.4318 430.1258,-226 428.3771,-222.8592 426.4662,-219.6173 424.517,-216.425"/>
<polygon fill="#000000" stroke="#000000" points="427.3096,-214.2908 419.0258,-207.6855 421.3824,-218.0149 427.3096,-214.2908"/>
<text text-anchor="middle" x="463.9466" y="-228.8" font-family="Times,serif" font-size="14.00" fill="#000000">broadcast</text>
</g>
<!-- Reducer 6&#45;&gt;Reducer 7 -->
<g id="edge12" class="edge">
<title>Reducer 6&#45;&gt;Reducer 7</title>
<path fill="none" stroke="#000000" d="M275.9881,-259.0894C287.165,-248.5585 302.5516,-235.2948 317.9119,-226 331.3798,-217.8504 347.0233,-210.8219 361.4151,-205.1938"/>
<polygon fill="#000000" stroke="#000000" points="363.0167,-208.3303 371.1365,-201.5245 360.5448,-201.7813 363.0167,-208.3303"/>
<text text-anchor="middle" x="341.2327" y="-228.8" font-family="Times,serif" font-size="14.00" fill="#000000">unsorted</text>
</g>
<!-- Reducer 9 -->
<g id="node15" class="node">
<title>Reducer 9</title>
<ellipse fill="none" stroke="#000000" cx="407.1258" cy="-18" rx="46.4045" ry="18"/>
<text text-anchor="middle" x="407.1258" y="-13.8" font-family="Times,serif" font-size="14.00" fill="#000000">Reducer 9</text>
</g>
<!-- Reducer 8&#45;&gt;Reducer 9 -->
<g id="edge17" class="edge">
<title>Reducer 8&#45;&gt;Reducer 9</title>
<path fill="none" stroke="#000000" d="M407.1258,-85.7616C407.1258,-74.3597 407.1258,-59.4342 407.1258,-46.494"/>
<polygon fill="#000000" stroke="#000000" points="410.6259,-46.2121 407.1258,-36.2121 403.6259,-46.2121 410.6259,-46.2121"/>
<text text-anchor="middle" x="424.2327" y="-56.8" font-family="Times,serif" font-size="14.00" fill="#000000">sorted</text>
</g>
</g>
</svg>
