<?xml version="1.0" encoding="UTF-8" standalone="no"?>
<!DOCTYPE svg PUBLIC "-//W3C//DTD SVG 1.1//EN"
 "http://www.w3.org/Graphics/SVG/1.1/DTD/svg11.dtd">
<!-- Generated by graphviz version 2.40.1 (20161225.0304)
 -->
<!-- Title: %3 Pages: 1 -->
<svg width="774pt" height="388pt"
 viewBox="0.00 0.00 773.84 388.00" xmlns="http://www.w3.org/2000/svg" xmlns:xlink="http://www.w3.org/1999/xlink">
<g id="graph0" class="graph" transform="scale(1 1) rotate(0) translate(4 384)">
<title>%3</title>
<polygon fill="#ffffff" stroke="transparent" points="-4,4 -4,-384 769.8434,-384 769.8434,4 -4,4"/>
<!-- Map 8 -->
<g id="node1" class="node">
<title>Map 8</title>
<ellipse fill="none" stroke="#000000" cx="45.2018" cy="-276" rx="32.8992" ry="18"/>
<text text-anchor="middle" x="45.2018" y="-271.8" font-family="Times,serif" font-size="14.00" fill="#000000">Map 8</text>
</g>
<!-- Reducer 9 -->
<g id="node2" class="node">
<title>Reducer 9</title>
<ellipse fill="none" stroke="#000000" cx="46.2018" cy="-190" rx="46.4045" ry="18"/>
<text text-anchor="middle" x="46.2018" y="-185.8" font-family="Times,serif" font-size="14.00" fill="#000000">Reducer 9</text>
</g>
<!-- Map 8&#45;&gt;Reducer 9 -->
<g id="edge1" class="edge">
<title>Map 8&#45;&gt;Reducer 9</title>
<path fill="none" stroke="#000000" d="M45.4139,-257.7616C45.5465,-246.3597 45.72,-231.4342 45.8705,-218.494"/>
<polygon fill="#000000" stroke="#000000" points="49.3734,-218.2522 45.99,-208.2121 42.3739,-218.1707 49.3734,-218.2522"/>
<text text-anchor="middle" x="63.3087" y="-228.8" font-family="Times,serif" font-size="14.00" fill="#000000">sorted</text>
</g>
<!-- Reducer 2 -->
<g id="node18" class="node">
<title>Reducer 2</title>
<ellipse fill="none" stroke="#000000" cx="111.2018" cy="-104" rx="46.4045" ry="18"/>
<text text-anchor="middle" x="111.2018" y="-99.8" font-family="Times,serif" font-size="14.00" fill="#000000">Reducer 2</text>
</g>
<!-- Reducer 9&#45;&gt;Reducer 2 -->
<g id="edge17" class="edge">
<title>Reducer 9&#45;&gt;Reducer 2</title>
<path fill="none" stroke="#000000" d="M48.4612,-171.5983C50.4022,-161.544 53.9833,-149.2865 60.5602,-140 64.6233,-134.2629 69.8998,-129.1138 75.5084,-124.625"/>
<polygon fill="#000000" stroke="#000000" points="77.8465,-127.2517 83.8608,-118.5294 73.7199,-121.5974 77.8465,-127.2517"/>
<text text-anchor="middle" x="88.0226" y="-142.8" font-family="Times,serif" font-size="14.00" fill="#000000">broadcast</text>
</g>
<!-- Map 18 -->
<g id="node3" class="node">
<title>Map 18</title>
<ellipse fill="none" stroke="#000000" cx="564.2018" cy="-276" rx="37.243" ry="18"/>
<text text-anchor="middle" x="564.2018" y="-271.8" font-family="Times,serif" font-size="14.00" fill="#000000">Map 18</text>
</g>
<!-- Reducer 19 -->
<g id="node4" class="node">
<title>Reducer 19</title>
<ellipse fill="none" stroke="#000000" cx="566.2018" cy="-190" rx="50.7474" ry="18"/>
<text text-anchor="middle" x="566.2018" y="-185.8" font-family="Times,serif" font-size="14.00" fill="#000000">Reducer 19</text>
</g>
<!-- Map 18&#45;&gt;Reducer 19 -->
<g id="edge2" class="edge">
<title>Map 18&#45;&gt;Reducer 19</title>
<path fill="none" stroke="#000000" d="M564.626,-257.7616C564.8911,-246.3597 565.2382,-231.4342 565.5392,-218.494"/>
<polygon fill="#000000" stroke="#000000" points="569.0447,-218.2908 565.7783,-208.2121 562.0466,-218.128 569.0447,-218.2908"/>
<text text-anchor="middle" x="582.3087" y="-228.8" font-family="Times,serif" font-size="14.00" fill="#000000">sorted</text>
</g>
<!-- Reducer 16 -->
<g id="node11" class="node">
<title>Reducer 16</title>
<ellipse fill="none" stroke="#000000" cx="566.2018" cy="-104" rx="50.7474" ry="18"/>
<text text-anchor="middle" x="566.2018" y="-99.8" font-family="Times,serif" font-size="14.00" fill="#000000">Reducer 16</text>
</g>
<!-- Reducer 19&#45;&gt;Reducer 16 -->
<g id="edge7" class="edge">
<title>Reducer 19&#45;&gt;Reducer 16</title>
<path fill="none" stroke="#000000" d="M566.2018,-171.7616C566.2018,-160.3597 566.2018,-145.4342 566.2018,-132.494"/>
<polygon fill="#000000" stroke="#000000" points="569.7019,-132.2121 566.2018,-122.2121 562.7019,-132.2121 569.7019,-132.2121"/>
<text text-anchor="middle" x="593.0226" y="-142.8" font-family="Times,serif" font-size="14.00" fill="#000000">broadcast</text>
</g>
<!-- Map 6 -->
<g id="node5" class="node">
<title>Map 6</title>
<ellipse fill="none" stroke="#000000" cx="386.2018" cy="-362" rx="32.8992" ry="18"/>
<text text-anchor="middle" x="386.2018" y="-357.8" font-family="Times,serif" font-size="14.00" fill="#000000">Map 6</text>
</g>
<!-- Map 6&#45;&gt;Map 8 -->
<g id="edge10" class="edge">
<title>Map 6&#45;&gt;Map 8</title>
<path fill="none" stroke="#000000" d="M353.5173,-359.2303C313.9799,-355.1493 245.847,-345.7568 190.5602,-326 178.4371,-321.6678 177.2248,-316.6028 165.2018,-312 131.9757,-299.2799 121.0197,-305.0512 87.2018,-294 84.9113,-293.2515 82.5731,-292.4272 80.2307,-291.5557"/>
<polygon fill="#000000" stroke="#000000" points="81.2757,-288.2052 70.6894,-287.7797 78.6998,-294.714 81.2757,-288.2052"/>
<text text-anchor="middle" x="217.0226" y="-314.8" font-family="Times,serif" font-size="14.00" fill="#000000">broadcast</text>
</g>
<!-- Map 6&#45;&gt;Map 18 -->
<g id="edge15" class="edge">
<title>Map 6&#45;&gt;Map 18</title>
<path fill="none" stroke="#000000" d="M412.6237,-350.929C428.7932,-344.0233 449.8349,-334.8028 468.2018,-326 488.9818,-316.0406 511.8811,-304.1502 530.1015,-294.4638"/>
<polygon fill="#000000" stroke="#000000" points="531.9957,-297.42 539.1671,-289.6212 528.6976,-291.2457 531.9957,-297.42"/>
<text text-anchor="middle" x="521.0226" y="-314.8" font-family="Times,serif" font-size="14.00" fill="#000000">broadcast</text>
</g>
<!-- Map 1 -->
<g id="node6" class="node">
<title>Map 1</title>
<ellipse fill="none" stroke="#000000" cx="129.2018" cy="-276" rx="32.8992" ry="18"/>
<text text-anchor="middle" x="129.2018" y="-271.8" font-family="Times,serif" font-size="14.00" fill="#000000">Map 1</text>
</g>
<!-- Map 6&#45;&gt;Map 1 -->
<g id="edge3" class="edge">
<title>Map 6&#45;&gt;Map 1</title>
<path fill="none" stroke="#000000" d="M357.7747,-352.3685C337.11,-345.2847 308.5063,-335.3092 283.5602,-326 267.725,-320.0907 264.1619,-317.563 248.2018,-312 221.9252,-302.8412 191.9344,-293.777 168.6344,-287.035"/>
<polygon fill="#000000" stroke="#000000" points="169.3413,-283.5966 158.7638,-284.2017 167.41,-290.3249 169.3413,-283.5966"/>
<text text-anchor="middle" x="310.0226" y="-314.8" font-family="Times,serif" font-size="14.00" fill="#000000">broadcast</text>
</g>
<!-- Map 13 -->
<g id="node8" class="node">
<title>Map 13</title>
<ellipse fill="none" stroke="#000000" cx="430.2018" cy="-276" rx="37.243" ry="18"/>
<text text-anchor="middle" x="430.2018" y="-271.8" font-family="Times,serif" font-size="14.00" fill="#000000">Map 13</text>
</g>
<!-- Map 6&#45;&gt;Map 13 -->
<g id="edge24" class="edge">
<title>Map 6&#45;&gt;Map 13</title>
<path fill="none" stroke="#000000" d="M395.1059,-344.5966C401.2675,-332.5534 409.584,-316.2984 416.5748,-302.6346"/>
<polygon fill="#000000" stroke="#000000" points="419.721,-304.1694 421.16,-293.6727 413.4893,-300.981 419.721,-304.1694"/>
<text text-anchor="middle" x="437.0226" y="-314.8" font-family="Times,serif" font-size="14.00" fill="#000000">broadcast</text>
</g>
<!-- Map 15 -->
<g id="node10" class="node">
<title>Map 15</title>
<ellipse fill="none" stroke="#000000" cx="657.2018" cy="-276" rx="37.243" ry="18"/>
<text text-anchor="middle" x="657.2018" y="-271.8" font-family="Times,serif" font-size="14.00" fill="#000000">Map 15</text>
</g>
<!-- Map 6&#45;&gt;Map 15 -->
<g id="edge20" class="edge">
<title>Map 6&#45;&gt;Map 15</title>
<path fill="none" stroke="#000000" d="M418.6256,-358.1564C452.7667,-353.3836 507.6425,-343.63 552.2018,-326 563.4563,-321.5471 564.8113,-317.5636 575.5602,-312 589.5323,-304.7681 605.268,-297.6083 619.1688,-291.6015"/>
<polygon fill="#000000" stroke="#000000" points="620.6301,-294.7834 628.4551,-287.6405 617.8837,-288.3446 620.6301,-294.7834"/>
<text text-anchor="middle" x="602.0226" y="-314.8" font-family="Times,serif" font-size="14.00" fill="#000000">broadcast</text>
</g>
<!-- Map 10 -->
<g id="node13" class="node">
<title>Map 10</title>
<ellipse fill="none" stroke="#000000" cx="336.2018" cy="-276" rx="37.243" ry="18"/>
<text text-anchor="middle" x="336.2018" y="-271.8" font-family="Times,serif" font-size="14.00" fill="#000000">Map 10</text>
</g>
<!-- Map 6&#45;&gt;Map 10 -->
<g id="edge25" class="edge">
<title>Map 6&#45;&gt;Map 10</title>
<path fill="none" stroke="#000000" d="M366.1383,-347.3916C359.3058,-341.4681 352.224,-334.1064 347.5602,-326 343.7148,-319.3161 341.1713,-311.4306 339.4889,-303.9219"/>
<polygon fill="#000000" stroke="#000000" points="342.9282,-303.2724 337.687,-294.0647 336.0423,-304.5311 342.9282,-303.2724"/>
<text text-anchor="middle" x="374.0226" y="-314.8" font-family="Times,serif" font-size="14.00" fill="#000000">broadcast</text>
</g>
<!-- Map 1&#45;&gt;Reducer 2 -->
<g id="edge16" class="edge">
<title>Map 1&#45;&gt;Reducer 2</title>
<path fill="none" stroke="#000000" d="M127.3095,-257.9181C124.1766,-227.981 117.8887,-167.8972 114.1633,-132.2989"/>
<polygon fill="#000000" stroke="#000000" points="117.6177,-131.6791 113.0958,-122.0977 110.6557,-132.4078 117.6177,-131.6791"/>
<text text-anchor="middle" x="138.3087" y="-185.8" font-family="Times,serif" font-size="14.00" fill="#000000">sorted</text>
</g>
<!-- Map 7 -->
<g id="node7" class="node">
<title>Map 7</title>
<ellipse fill="none" stroke="#000000" cx="78.2018" cy="-362" rx="32.8992" ry="18"/>
<text text-anchor="middle" x="78.2018" y="-357.8" font-family="Times,serif" font-size="14.00" fill="#000000">Map 7</text>
</g>
<!-- Map 7&#45;&gt;Map 8 -->
<g id="edge11" class="edge">
<title>Map 7&#45;&gt;Map 8</title>
<path fill="none" stroke="#000000" d="M57.6602,-347.7988C50.8965,-341.9194 44.1846,-334.4815 40.5602,-326 37.6264,-319.1345 37.1749,-311.2669 37.8733,-303.8359"/>
<polygon fill="#000000" stroke="#000000" points="41.3596,-304.1997 39.4873,-293.7716 34.448,-303.0912 41.3596,-304.1997"/>
<text text-anchor="middle" x="68.0226" y="-314.8" font-family="Times,serif" font-size="14.00" fill="#000000">broadcast</text>
</g>
<!-- Map 7&#45;&gt;Map 1 -->
<g id="edge4" class="edge">
<title>Map 7&#45;&gt;Map 1</title>
<path fill="none" stroke="#000000" d="M88.5224,-344.5966C95.7116,-332.4736 105.4317,-316.0829 113.5677,-302.3635"/>
<polygon fill="#000000" stroke="#000000" points="116.8062,-303.7641 118.8965,-293.3775 110.7853,-300.1935 116.8062,-303.7641"/>
<text text-anchor="middle" x="134.0226" y="-314.8" font-family="Times,serif" font-size="14.00" fill="#000000">broadcast</text>
</g>
<!-- Reducer 14 -->
<g id="node9" class="node">
<title>Reducer 14</title>
<ellipse fill="none" stroke="#000000" cx="447.2018" cy="-190" rx="50.7474" ry="18"/>
<text text-anchor="middle" x="447.2018" y="-185.8" font-family="Times,serif" font-size="14.00" fill="#000000">Reducer 14</text>
</g>
<!-- Map 13&#45;&gt;Reducer 14 -->
<g id="edge5" class="edge">
<title>Map 13&#45;&gt;Reducer 14</title>
<path fill="none" stroke="#000000" d="M433.8071,-257.7616C436.0835,-246.2456 439.0704,-231.1353 441.6459,-218.1064"/>
<polygon fill="#000000" stroke="#000000" points="445.096,-218.701 443.6017,-208.2121 438.2289,-217.3435 445.096,-218.701"/>
<text text-anchor="middle" x="456.3087" y="-228.8" font-family="Times,serif" font-size="14.00" fill="#000000">sorted</text>
</g>
<!-- Reducer 12 -->
<g id="node19" class="node">
<title>Reducer 12</title>
<ellipse fill="none" stroke="#000000" cx="336.2018" cy="-104" rx="50.7474" ry="18"/>
<text text-anchor="middle" x="336.2018" y="-99.8" font-family="Times,serif" font-size="14.00" fill="#000000">Reducer 12</text>
</g>
<!-- Reducer 14&#45;&gt;Reducer 12 -->
<g id="edge22" class="edge">
<title>Reducer 14&#45;&gt;Reducer 12</title>
<path fill="none" stroke="#000000" d="M441.6925,-171.848C437.7207,-161.3756 431.4179,-148.6166 422.2018,-140 412.2149,-130.6627 399.4555,-123.5678 386.8406,-118.2521"/>
<polygon fill="#000000" stroke="#000000" points="387.8589,-114.8927 377.2704,-114.5263 385.3193,-121.4158 387.8589,-114.8927"/>
<text text-anchor="middle" x="447.3639" y="-142.8" font-family="Times,serif" font-size="14.00" fill="#000000">None</text>
</g>
<!-- Map 15&#45;&gt;Reducer 16 -->
<g id="edge6" class="edge">
<title>Map 15&#45;&gt;Reducer 16</title>
<path fill="none" stroke="#000000" d="M657.0429,-257.916C655.9358,-230.0352 650.2768,-176.0135 624.2018,-140 619.5592,-133.5879 613.3906,-128.071 606.8084,-123.4187"/>
<polygon fill="#000000" stroke="#000000" points="608.6411,-120.4361 598.3335,-117.9858 604.8633,-126.3292 608.6411,-120.4361"/>
<text text-anchor="middle" x="667.3087" y="-185.8" font-family="Times,serif" font-size="14.00" fill="#000000">sorted</text>
</g>
<!-- Union 3 -->
<g id="node12" class="node">
<title>Union 3</title>
<ellipse fill="none" stroke="#000000" cx="221.2018" cy="-190" rx="38.6968" ry="18"/>
<text text-anchor="middle" x="221.2018" y="-185.8" font-family="Times,serif" font-size="14.00" fill="#000000">Union 3</text>
</g>
<!-- Union 3&#45;&gt;Reducer 16 -->
<g id="edge8" class="edge">
<title>Union 3&#45;&gt;Reducer 16</title>
<path fill="none" stroke="#000000" d="M250.6351,-178.037C256.7104,-175.8305 263.1136,-173.6923 269.2018,-172 311.4472,-160.2571 325.4578,-170.2018 366.2018,-154 376.8586,-149.7624 377.2545,-144.3213 387.8776,-140 425.9547,-124.511 471.4073,-115.4662 506.8939,-110.3166"/>
<polygon fill="#000000" stroke="#000000" points="507.6698,-113.7427 517.0947,-108.9031 506.7089,-106.8089 507.6698,-113.7427"/>
<text text-anchor="middle" x="402.3639" y="-142.8" font-family="Times,serif" font-size="14.00" fill="#000000">None</text>
</g>
<!-- Reducer 4 -->
<g id="node15" class="node">
<title>Reducer 4</title>
<ellipse fill="none" stroke="#000000" cx="221.2018" cy="-104" rx="46.4045" ry="18"/>
<text text-anchor="middle" x="221.2018" y="-99.8" font-family="Times,serif" font-size="14.00" fill="#000000">Reducer 4</text>
</g>
<!-- Union 3&#45;&gt;Reducer 4 -->
<g id="edge13" class="edge">
<title>Union 3&#45;&gt;Reducer 4</title>
<path fill="none" stroke="#000000" d="M221.2018,-171.7616C221.2018,-160.3597 221.2018,-145.4342 221.2018,-132.494"/>
<polygon fill="#000000" stroke="#000000" points="224.7019,-132.2121 221.2018,-122.2121 217.7019,-132.2121 224.7019,-132.2121"/>
<text text-anchor="middle" x="238.3087" y="-142.8" font-family="Times,serif" font-size="14.00" fill="#000000">sorted</text>
</g>
<!-- Union 3&#45;&gt;Reducer 2 -->
<g id="edge18" class="edge">
<title>Union 3&#45;&gt;Reducer 2</title>
<path fill="none" stroke="#000000" d="M201.2816,-174.426C184.1629,-161.0423 159.2627,-141.5749 139.9781,-126.4978"/>
<polygon fill="#000000" stroke="#000000" points="142.13,-123.7375 132.0962,-120.3356 137.8185,-129.2522 142.13,-123.7375"/>
<text text-anchor="middle" x="187.3639" y="-142.8" font-family="Times,serif" font-size="14.00" fill="#000000">None</text>
</g>
<!-- Union 3&#45;&gt;Reducer 12 -->
<g id="edge23" class="edge">
<title>Union 3&#45;&gt;Reducer 12</title>
<path fill="none" stroke="#000000" d="M241.7615,-174.6249C259.625,-161.2662 285.7373,-141.7387 305.9793,-126.6012"/>
<polygon fill="#000000" stroke="#000000" points="308.3416,-129.2051 314.2539,-120.4132 304.1494,-123.5992 308.3416,-129.2051"/>
<text text-anchor="middle" x="300.3639" y="-142.8" font-family="Times,serif" font-size="14.00" fill="#000000">None</text>
</g>
<!-- Reducer 11 -->
<g id="node14" class="node">
<title>Reducer 11</title>
<ellipse fill="none" stroke="#000000" cx="328.2018" cy="-190" rx="50.1002" ry="18"/>
<text text-anchor="middle" x="328.2018" y="-185.8" font-family="Times,serif" font-size="14.00" fill="#000000">Reducer 11</text>
</g>
<!-- Map 10&#45;&gt;Reducer 11 -->
<g id="edge9" class="edge">
<title>Map 10&#45;&gt;Reducer 11</title>
<path fill="none" stroke="#000000" d="M334.5052,-257.7616C333.4446,-246.3597 332.0561,-231.4342 330.8524,-218.494"/>
<polygon fill="#000000" stroke="#000000" points="334.3072,-217.8449 329.896,-208.2121 327.3373,-218.4933 334.3072,-217.8449"/>
<text text-anchor="middle" x="349.3087" y="-228.8" font-family="Times,serif" font-size="14.00" fill="#000000">sorted</text>
</g>
<!-- Reducer 11&#45;&gt;Reducer 12 -->
<g id="edge21" class="edge">
<title>Reducer 11&#45;&gt;Reducer 12</title>
<path fill="none" stroke="#000000" d="M329.8984,-171.7616C330.959,-160.3597 332.3475,-145.4342 333.5512,-132.494"/>
<polygon fill="#000000" stroke="#000000" points="337.0663,-132.4933 334.5077,-122.2121 330.0964,-131.8449 337.0663,-132.4933"/>
<text text-anchor="middle" x="347.3639" y="-142.8" font-family="Times,serif" font-size="14.00" fill="#000000">None</text>
</g>
<!-- Reducer 5 -->
<g id="node16" class="node">
<title>Reducer 5</title>
<ellipse fill="none" stroke="#000000" cx="221.2018" cy="-18" rx="46.4045" ry="18"/>
<text text-anchor="middle" x="221.2018" y="-13.8" font-family="Times,serif" font-size="14.00" fill="#000000">Reducer 5</text>
</g>
<!-- Reducer 4&#45;&gt;Reducer 5 -->
<g id="edge12" class="edge">
<title>Reducer 4&#45;&gt;Reducer 5</title>
<path fill="none" stroke="#000000" d="M221.2018,-85.7616C221.2018,-74.3597 221.2018,-59.4342 221.2018,-46.494"/>
<polygon fill="#000000" stroke="#000000" points="224.7019,-46.2121 221.2018,-36.2121 217.7019,-46.2121 224.7019,-46.2121"/>
<text text-anchor="middle" x="238.3087" y="-56.8" font-family="Times,serif" font-size="14.00" fill="#000000">sorted</text>
</g>
<!-- Map 17 -->
<g id="node17" class="node">
<title>Map 17</title>
<ellipse fill="none" stroke="#000000" cx="693.2018" cy="-362" rx="37.243" ry="18"/>
<text text-anchor="middle" x="693.2018" y="-357.8" font-family="Times,serif" font-size="14.00" fill="#000000">Map 17</text>
</g>
<!-- Map 17&#45;&gt;Map 18 -->
<g id="edge14" class="edge">
<title>Map 17&#45;&gt;Map 18</title>
<path fill="none" stroke="#000000" d="M675.8695,-345.8521C664.2871,-335.5005 648.4346,-322.151 633.2018,-312 623.0271,-305.2197 611.4239,-298.7345 600.6735,-293.1832"/>
<polygon fill="#000000" stroke="#000000" points="602.0083,-289.9365 591.5031,-288.5611 598.8577,-296.1874 602.0083,-289.9365"/>
<text text-anchor="middle" x="679.0226" y="-314.8" font-family="Times,serif" font-size="14.00" fill="#000000">broadcast</text>
</g>
<!-- Map 17&#45;&gt;Map 15 -->
<g id="edge19" class="edge">
<title>Map 17&#45;&gt;Map 15</title>
<path fill="none" stroke="#000000" d="M705.8214,-344.7783C711.4446,-334.871 715.6946,-322.371 710.2018,-312 706.3582,-304.7429 700.3236,-298.6774 693.6813,-293.7199"/>
<polygon fill="#000000" stroke="#000000" points="695.3351,-290.6177 685.0619,-288.0266 691.477,-296.4585 695.3351,-290.6177"/>
<text text-anchor="middle" x="739.0226" y="-314.8" font-family="Times,serif" font-size="14.00" fill="#000000">broadcast</text>
</g>
</g>
</svg>
