<?xml version="1.0" encoding="UTF-8" standalone="no"?>
<!DOCTYPE svg PUBLIC "-//W3C//DTD SVG 1.1//EN"
 "http://www.w3.org/Graphics/SVG/1.1/DTD/svg11.dtd">
<!-- Generated by graphviz version 2.40.1 (20161225.0304)
 -->
<!-- Title: %3 Pages: 1 -->
<svg width="274pt" height="388pt"
 viewBox="0.00 0.00 274.15 388.00" xmlns="http://www.w3.org/2000/svg" xmlns:xlink="http://www.w3.org/1999/xlink">
<g id="graph0" class="graph" transform="scale(1 1) rotate(0) translate(4 384)">
<title>%3</title>
<polygon fill="#ffffff" stroke="transparent" points="-4,4 -4,-384 270.1514,-384 270.1514,4 -4,4"/>
<!-- Map 5 -->
<g id="node1" class="node">
<title>Map 5</title>
<ellipse fill="none" stroke="#000000" cx="87.2018" cy="-362" rx="32.8992" ry="18"/>
<text text-anchor="middle" x="87.2018" y="-357.8" font-family="Times,serif" font-size="14.00" fill="#000000">Map 5</text>
</g>
<!-- Reducer 6 -->
<g id="node2" class="node">
<title>Reducer 6</title>
<ellipse fill="none" stroke="#000000" cx="46.2018" cy="-276" rx="46.4045" ry="18"/>
<text text-anchor="middle" x="46.2018" y="-271.8" font-family="Times,serif" font-size="14.00" fill="#000000">Reducer 6</text>
</g>
<!-- Map 5&#45;&gt;Reducer 6 -->
<g id="edge1" class="edge">
<title>Map 5&#45;&gt;Reducer 6</title>
<path fill="none" stroke="#000000" d="M76.2842,-344.7228C72.7941,-338.8835 69.0463,-332.2568 65.9879,-326 62.4532,-318.7687 59.0551,-310.7369 56.1025,-303.2639"/>
<polygon fill="#000000" stroke="#000000" points="59.3514,-301.9608 52.5037,-293.8763 52.8153,-304.4666 59.3514,-301.9608"/>
<text text-anchor="middle" x="90.3087" y="-314.8" font-family="Times,serif" font-size="14.00" fill="#000000">unsorted</text>
</g>
<!-- Map 1 -->
<g id="node6" class="node">
<title>Map 1</title>
<ellipse fill="none" stroke="#000000" cx="128.2018" cy="-190" rx="32.8992" ry="18"/>
<text text-anchor="middle" x="128.2018" y="-185.8" font-family="Times,serif" font-size="14.00" fill="#000000">Map 1</text>
</g>
<!-- Map 5&#45;&gt;Map 1 -->
<g id="edge4" class="edge">
<title>Map 5&#45;&gt;Map 1</title>
<path fill="none" stroke="#000000" d="M102.1723,-345.9353C106.8008,-340.0763 111.4115,-333.1297 114.2018,-326 127.948,-290.8763 130.0232,-246.9559 129.6199,-218.6928"/>
<polygon fill="#000000" stroke="#000000" points="133.1091,-218.2279 129.3498,-208.3225 126.1114,-218.4102 133.1091,-218.2279"/>
<text text-anchor="middle" x="156.0226" y="-271.8" font-family="Times,serif" font-size="14.00" fill="#000000">broadcast</text>
</g>
<!-- Reducer 6&#45;&gt;Map 1 -->
<g id="edge5" class="edge">
<title>Reducer 6&#45;&gt;Map 1</title>
<path fill="none" stroke="#000000" d="M47.9247,-257.738C49.6956,-247.484 53.2852,-234.984 60.5602,-226 68.4088,-216.3078 79.5803,-208.8864 90.5884,-203.3724"/>
<polygon fill="#000000" stroke="#000000" points="92.0917,-206.5336 99.7203,-199.1814 89.1718,-200.1716 92.0917,-206.5336"/>
<text text-anchor="middle" x="88.0226" y="-228.8" font-family="Times,serif" font-size="14.00" fill="#000000">broadcast</text>
</g>
<!-- Reducer 2 -->
<g id="node3" class="node">
<title>Reducer 2</title>
<ellipse fill="none" stroke="#000000" cx="128.2018" cy="-104" rx="46.4045" ry="18"/>
<text text-anchor="middle" x="128.2018" y="-99.8" font-family="Times,serif" font-size="14.00" fill="#000000">Reducer 2</text>
</g>
<!-- Reducer 3 -->
<g id="node4" class="node">
<title>Reducer 3</title>
<ellipse fill="none" stroke="#000000" cx="128.2018" cy="-18" rx="46.4045" ry="18"/>
<text text-anchor="middle" x="128.2018" y="-13.8" font-family="Times,serif" font-size="14.00" fill="#000000">Reducer 3</text>
</g>
<!-- Reducer 2&#45;&gt;Reducer 3 -->
<g id="edge2" class="edge">
<title>Reducer 2&#45;&gt;Reducer 3</title>
<path fill="none" stroke="#000000" d="M128.2018,-85.7616C128.2018,-74.3597 128.2018,-59.4342 128.2018,-46.494"/>
<polygon fill="#000000" stroke="#000000" points="131.7019,-46.2121 128.2018,-36.2121 124.7019,-46.2121 131.7019,-46.2121"/>
<text text-anchor="middle" x="145.3087" y="-56.8" font-family="Times,serif" font-size="14.00" fill="#000000">sorted</text>
</g>
<!-- Map 4 -->
<g id="node5" class="node">
<title>Map 4</title>
<ellipse fill="none" stroke="#000000" cx="233.2018" cy="-276" rx="32.8992" ry="18"/>
<text text-anchor="middle" x="233.2018" y="-271.8" font-family="Times,serif" font-size="14.00" fill="#000000">Map 4</text>
</g>
<!-- Map 4&#45;&gt;Map 1 -->
<g id="edge3" class="edge">
<title>Map 4&#45;&gt;Map 1</title>
<path fill="none" stroke="#000000" d="M214.9122,-261.0199C198.2268,-247.3538 173.3757,-226.9996 154.5499,-211.5804"/>
<polygon fill="#000000" stroke="#000000" points="156.5882,-208.7257 146.6341,-205.0969 152.1527,-214.1411 156.5882,-208.7257"/>
<text text-anchor="middle" x="213.0226" y="-228.8" font-family="Times,serif" font-size="14.00" fill="#000000">broadcast</text>
</g>
<!-- Map 1&#45;&gt;Reducer 2 -->
<g id="edge6" class="edge">
<title>Map 1&#45;&gt;Reducer 2</title>
<path fill="none" stroke="#000000" d="M128.2018,-171.7616C128.2018,-160.3597 128.2018,-145.4342 128.2018,-132.494"/>
<polygon fill="#000000" stroke="#000000" points="131.7019,-132.2121 128.2018,-122.2121 124.7019,-132.2121 131.7019,-132.2121"/>
<text text-anchor="middle" x="145.3087" y="-142.8" font-family="Times,serif" font-size="14.00" fill="#000000">sorted</text>
</g>
</g>
</svg>
