<?xml version="1.0" encoding="UTF-8" standalone="no"?>
<!DOCTYPE svg PUBLIC "-//W3C//DTD SVG 1.1//EN"
 "http://www.w3.org/Graphics/SVG/1.1/DTD/svg11.dtd">
<!-- Generated by graphviz version 2.40.1 (20161225.0304)
 -->
<!-- Title: %3 Pages: 1 -->
<svg width="358pt" height="388pt"
 viewBox="0.00 0.00 358.15 388.00" xmlns="http://www.w3.org/2000/svg" xmlns:xlink="http://www.w3.org/1999/xlink">
<g id="graph0" class="graph" transform="scale(1 1) rotate(0) translate(4 384)">
<title>%3</title>
<polygon fill="#ffffff" stroke="transparent" points="-4,4 -4,-384 354.1514,-384 354.1514,4 -4,4"/>
<!-- Map 5 -->
<g id="node1" class="node">
<title>Map 5</title>
<ellipse fill="none" stroke="#000000" cx="87.2018" cy="-362" rx="32.8992" ry="18"/>
<text text-anchor="middle" x="87.2018" y="-357.8" font-family="Times,serif" font-size="14.00" fill="#000000">Map 5</text>
</g>
<!-- Reducer 6 -->
<g id="node2" class="node">
<title>Reducer 6</title>
<ellipse fill="none" stroke="#000000" cx="46.2018" cy="-276" rx="46.4045" ry="18"/>
<text text-anchor="middle" x="46.2018" y="-271.8" font-family="Times,serif" font-size="14.00" fill="#000000">Reducer 6</text>
</g>
<!-- Map 5&#45;&gt;Reducer 6 -->
<g id="edge1" class="edge">
<title>Map 5&#45;&gt;Reducer 6</title>
<path fill="none" stroke="#000000" d="M76.2842,-344.7228C72.7941,-338.8835 69.0463,-332.2568 65.9879,-326 62.4532,-318.7687 59.0551,-310.7369 56.1025,-303.2639"/>
<polygon fill="#000000" stroke="#000000" points="59.3514,-301.9608 52.5037,-293.8763 52.8153,-304.4666 59.3514,-301.9608"/>
<text text-anchor="middle" x="90.3087" y="-314.8" font-family="Times,serif" font-size="14.00" fill="#000000">unsorted</text>
</g>
<!-- Map 1 -->
<g id="node6" class="node">
<title>Map 1</title>
<ellipse fill="none" stroke="#000000" cx="180.2018" cy="-190" rx="32.8992" ry="18"/>
<text text-anchor="middle" x="180.2018" y="-185.8" font-family="Times,serif" font-size="14.00" fill="#000000">Map 1</text>
</g>
<!-- Map 5&#45;&gt;Map 1 -->
<g id="edge4" class="edge">
<title>Map 5&#45;&gt;Map 1</title>
<path fill="none" stroke="#000000" d="M101.2651,-345.5191C105.8208,-339.6268 110.6176,-332.7655 114.2018,-326 129.1616,-297.7624 123.7906,-286.8367 137.5602,-258 144.5662,-243.3279 154.0439,-227.9043 162.2849,-215.4621"/>
<polygon fill="#000000" stroke="#000000" points="165.3157,-217.2281 168.014,-206.9826 159.5155,-213.3092 165.3157,-217.2281"/>
<text text-anchor="middle" x="164.0226" y="-271.8" font-family="Times,serif" font-size="14.00" fill="#000000">broadcast</text>
</g>
<!-- Reducer 6&#45;&gt;Map 1 -->
<g id="edge6" class="edge">
<title>Reducer 6&#45;&gt;Map 1</title>
<path fill="none" stroke="#000000" d="M47.2176,-257.6573C48.7371,-247.1174 52.3108,-234.3543 60.5602,-226 71.6856,-214.7331 109.0335,-204.6086 139.0763,-197.9879"/>
<polygon fill="#000000" stroke="#000000" points="139.8888,-201.3933 148.9363,-195.8803 138.4255,-194.548 139.8888,-201.3933"/>
<text text-anchor="middle" x="88.0226" y="-228.8" font-family="Times,serif" font-size="14.00" fill="#000000">broadcast</text>
</g>
<!-- Reducer 2 -->
<g id="node3" class="node">
<title>Reducer 2</title>
<ellipse fill="none" stroke="#000000" cx="180.2018" cy="-104" rx="46.4045" ry="18"/>
<text text-anchor="middle" x="180.2018" y="-99.8" font-family="Times,serif" font-size="14.00" fill="#000000">Reducer 2</text>
</g>
<!-- Reducer 3 -->
<g id="node4" class="node">
<title>Reducer 3</title>
<ellipse fill="none" stroke="#000000" cx="180.2018" cy="-18" rx="46.4045" ry="18"/>
<text text-anchor="middle" x="180.2018" y="-13.8" font-family="Times,serif" font-size="14.00" fill="#000000">Reducer 3</text>
</g>
<!-- Reducer 2&#45;&gt;Reducer 3 -->
<g id="edge2" class="edge">
<title>Reducer 2&#45;&gt;Reducer 3</title>
<path fill="none" stroke="#000000" d="M180.2018,-85.7616C180.2018,-74.3597 180.2018,-59.4342 180.2018,-46.494"/>
<polygon fill="#000000" stroke="#000000" points="183.7019,-46.2121 180.2018,-36.2121 176.7019,-46.2121 183.7019,-46.2121"/>
<text text-anchor="middle" x="197.3087" y="-56.8" font-family="Times,serif" font-size="14.00" fill="#000000">sorted</text>
</g>
<!-- Map 4 -->
<g id="node5" class="node">
<title>Map 4</title>
<ellipse fill="none" stroke="#000000" cx="233.2018" cy="-276" rx="32.8992" ry="18"/>
<text text-anchor="middle" x="233.2018" y="-271.8" font-family="Times,serif" font-size="14.00" fill="#000000">Map 4</text>
</g>
<!-- Map 4&#45;&gt;Map 1 -->
<g id="edge3" class="edge">
<title>Map 4&#45;&gt;Map 1</title>
<path fill="none" stroke="#000000" d="M222.4765,-258.5966C214.8839,-246.2765 204.5749,-229.5488 196.038,-215.6965"/>
<polygon fill="#000000" stroke="#000000" points="198.9565,-213.7609 190.7303,-207.084 192.9972,-217.4335 198.9565,-213.7609"/>
<text text-anchor="middle" x="236.0226" y="-228.8" font-family="Times,serif" font-size="14.00" fill="#000000">broadcast</text>
</g>
<!-- Map 1&#45;&gt;Reducer 2 -->
<g id="edge7" class="edge">
<title>Map 1&#45;&gt;Reducer 2</title>
<path fill="none" stroke="#000000" d="M180.2018,-171.7616C180.2018,-160.3597 180.2018,-145.4342 180.2018,-132.494"/>
<polygon fill="#000000" stroke="#000000" points="183.7019,-132.2121 180.2018,-122.2121 176.7019,-132.2121 183.7019,-132.2121"/>
<text text-anchor="middle" x="197.3087" y="-142.8" font-family="Times,serif" font-size="14.00" fill="#000000">sorted</text>
</g>
<!-- Map 7 -->
<g id="node7" class="node">
<title>Map 7</title>
<ellipse fill="none" stroke="#000000" cx="317.2018" cy="-276" rx="32.8992" ry="18"/>
<text text-anchor="middle" x="317.2018" y="-271.8" font-family="Times,serif" font-size="14.00" fill="#000000">Map 7</text>
</g>
<!-- Map 7&#45;&gt;Map 1 -->
<g id="edge5" class="edge">
<title>Map 7&#45;&gt;Map 1</title>
<path fill="none" stroke="#000000" d="M303.6942,-259.4533C294.3289,-248.8048 281.0853,-235.2731 267.2018,-226 252.343,-216.0755 234.3109,-208.0626 218.5247,-202.1384"/>
<polygon fill="#000000" stroke="#000000" points="219.6287,-198.816 209.0343,-198.7213 217.2572,-205.4021 219.6287,-198.816"/>
<text text-anchor="middle" x="310.0226" y="-228.8" font-family="Times,serif" font-size="14.00" fill="#000000">broadcast</text>
</g>
</g>
</svg>
