<?xml version="1.0" encoding="UTF-8" standalone="no"?>
<!DOCTYPE svg PUBLIC "-//W3C//DTD SVG 1.1//EN"
 "http://www.w3.org/Graphics/SVG/1.1/DTD/svg11.dtd">
<!-- Generated by graphviz version 2.40.1 (20161225.0304)
 -->
<!-- Title: %3 Pages: 1 -->
<svg width="308pt" height="668pt"
 viewBox="0.00 0.00 308.27 668.00" xmlns="http://www.w3.org/2000/svg" xmlns:xlink="http://www.w3.org/1999/xlink">
<g id="graph0" class="graph" transform="scale(1 1) rotate(0) translate(4 664)">
<title>%3</title>
<polygon fill="#ffffff" stroke="transparent" points="-4,4 -4,-664 304.2651,-664 304.2651,4 -4,4"/>
<!-- Reducer 8 -->
<g id="node1" class="node">
<title>Reducer 8</title>
<ellipse fill="none" stroke="#000000" cx="252.6235" cy="-362" rx="46.4045" ry="18"/>
<text text-anchor="middle" x="252.6235" y="-357.8" font-family="Times,serif" font-size="14.00" fill="#000000">Reducer 8</text>
</g>
<!-- Map 6 -->
<g id="node2" class="node">
<title>Map 6</title>
<ellipse fill="none" stroke="#000000" cx="238.6235" cy="-276" rx="32.8992" ry="18"/>
<text text-anchor="middle" x="238.6235" y="-271.8" font-family="Times,serif" font-size="14.00" fill="#000000">Map 6</text>
</g>
<!-- Reducer 8&#45;&gt;Map 6 -->
<g id="edge1" class="edge">
<title>Reducer 8&#45;&gt;Map 6</title>
<path fill="none" stroke="#000000" d="M249.6545,-343.7616C247.7798,-332.2456 245.32,-317.1353 243.199,-304.1064"/>
<polygon fill="#000000" stroke="#000000" points="246.6497,-303.5198 241.5883,-294.2121 239.7406,-304.6446 246.6497,-303.5198"/>
<text text-anchor="middle" x="273.4443" y="-314.8" font-family="Times,serif" font-size="14.00" fill="#000000">broadcast</text>
</g>
<!-- Map 3 -->
<g id="node4" class="node">
<title>Map 3</title>
<ellipse fill="none" stroke="#000000" cx="137.6235" cy="-190" rx="32.8992" ry="18"/>
<text text-anchor="middle" x="137.6235" y="-185.8" font-family="Times,serif" font-size="14.00" fill="#000000">Map 3</text>
</g>
<!-- Map 6&#45;&gt;Map 3 -->
<g id="edge4" class="edge">
<title>Map 6&#45;&gt;Map 3</title>
<path fill="none" stroke="#000000" d="M226.2117,-259.0892C218.1777,-248.8146 207.1041,-235.8282 195.6235,-226 187.9393,-219.4217 178.9318,-213.2282 170.3376,-207.8941"/>
<polygon fill="#000000" stroke="#000000" points="171.9818,-204.7992 161.6038,-202.6664 168.3866,-210.8055 171.9818,-204.7992"/>
<text text-anchor="middle" x="237.4443" y="-228.8" font-family="Times,serif" font-size="14.00" fill="#000000">broadcast</text>
</g>
<!-- Map 1 -->
<g id="node3" class="node">
<title>Map 1</title>
<ellipse fill="none" stroke="#000000" cx="43.6235" cy="-276" rx="32.8992" ry="18"/>
<text text-anchor="middle" x="43.6235" y="-271.8" font-family="Times,serif" font-size="14.00" fill="#000000">Map 1</text>
</g>
<!-- Map 1&#45;&gt;Map 3 -->
<g id="edge2" class="edge">
<title>Map 1&#45;&gt;Map 3</title>
<path fill="none" stroke="#000000" d="M53.9584,-258.4991C60.5581,-248.2576 69.7744,-235.5125 79.9819,-226 87.3491,-219.1344 96.2111,-212.8452 104.7523,-207.5111"/>
<polygon fill="#000000" stroke="#000000" points="106.6673,-210.4442 113.4609,-202.3141 103.0801,-204.4332 106.6673,-210.4442"/>
<text text-anchor="middle" x="107.4443" y="-228.8" font-family="Times,serif" font-size="14.00" fill="#000000">broadcast</text>
</g>
<!-- Reducer 4 -->
<g id="node12" class="node">
<title>Reducer 4</title>
<ellipse fill="none" stroke="#000000" cx="137.6235" cy="-104" rx="46.4045" ry="18"/>
<text text-anchor="middle" x="137.6235" y="-99.8" font-family="Times,serif" font-size="14.00" fill="#000000">Reducer 4</text>
</g>
<!-- Map 3&#45;&gt;Reducer 4 -->
<g id="edge12" class="edge">
<title>Map 3&#45;&gt;Reducer 4</title>
<path fill="none" stroke="#000000" d="M137.6235,-171.7616C137.6235,-160.3597 137.6235,-145.4342 137.6235,-132.494"/>
<polygon fill="#000000" stroke="#000000" points="141.1236,-132.2121 137.6235,-122.2121 134.1236,-132.2121 141.1236,-132.2121"/>
<text text-anchor="middle" x="154.7305" y="-142.8" font-family="Times,serif" font-size="14.00" fill="#000000">sorted</text>
</g>
<!-- Map 14 -->
<g id="node5" class="node">
<title>Map 14</title>
<ellipse fill="none" stroke="#000000" cx="137.6235" cy="-276" rx="37.243" ry="18"/>
<text text-anchor="middle" x="137.6235" y="-271.8" font-family="Times,serif" font-size="14.00" fill="#000000">Map 14</text>
</g>
<!-- Map 14&#45;&gt;Map 3 -->
<g id="edge3" class="edge">
<title>Map 14&#45;&gt;Map 3</title>
<path fill="none" stroke="#000000" d="M137.6235,-257.7616C137.6235,-246.3597 137.6235,-231.4342 137.6235,-218.494"/>
<polygon fill="#000000" stroke="#000000" points="141.1236,-218.2121 137.6235,-208.2121 134.1236,-218.2121 141.1236,-218.2121"/>
<text text-anchor="middle" x="164.4443" y="-228.8" font-family="Times,serif" font-size="14.00" fill="#000000">broadcast</text>
</g>
<!-- Map 2 -->
<g id="node6" class="node">
<title>Map 2</title>
<ellipse fill="none" stroke="#000000" cx="36.6235" cy="-362" rx="32.8992" ry="18"/>
<text text-anchor="middle" x="36.6235" y="-357.8" font-family="Times,serif" font-size="14.00" fill="#000000">Map 2</text>
</g>
<!-- Map 2&#45;&gt;Map 1 -->
<g id="edge5" class="edge">
<title>Map 2&#45;&gt;Map 1</title>
<path fill="none" stroke="#000000" d="M38.1081,-343.7616C39.0361,-332.3597 40.251,-317.4342 41.3043,-304.494"/>
<polygon fill="#000000" stroke="#000000" points="44.8183,-304.4631 42.1412,-294.2121 37.8413,-303.8952 44.8183,-304.4631"/>
<text text-anchor="middle" x="67.4443" y="-314.8" font-family="Times,serif" font-size="14.00" fill="#000000">broadcast</text>
</g>
<!-- Reducer 10 -->
<g id="node7" class="node">
<title>Reducer 10</title>
<ellipse fill="none" stroke="#000000" cx="50.6235" cy="-502" rx="50.7474" ry="18"/>
<text text-anchor="middle" x="50.6235" y="-497.8" font-family="Times,serif" font-size="14.00" fill="#000000">Reducer 10</text>
</g>
<!-- Reducer 11 -->
<g id="node8" class="node">
<title>Reducer 11</title>
<ellipse fill="none" stroke="#000000" cx="137.6235" cy="-362" rx="50.1002" ry="18"/>
<text text-anchor="middle" x="137.6235" y="-357.8" font-family="Times,serif" font-size="14.00" fill="#000000">Reducer 11</text>
</g>
<!-- Reducer 10&#45;&gt;Reducer 11 -->
<g id="edge6" class="edge">
<title>Reducer 10&#45;&gt;Reducer 11</title>
<path fill="none" stroke="#000000" d="M47.6305,-483.8051C46.0146,-468.5903 45.819,-446.75 54.2993,-430 64.3542,-410.14 83.1149,-394.03 100.2923,-382.4845"/>
<polygon fill="#000000" stroke="#000000" points="102.5371,-385.2035 109.0761,-376.8673 98.7658,-379.3062 102.5371,-385.2035"/>
<text text-anchor="middle" x="69.7856" y="-443.8" font-family="Times,serif" font-size="14.00" fill="#000000">None</text>
</g>
<!-- Reducer 11&#45;&gt;Map 14 -->
<g id="edge13" class="edge">
<title>Reducer 11&#45;&gt;Map 14</title>
<path fill="none" stroke="#000000" d="M137.6235,-343.7616C137.6235,-332.3597 137.6235,-317.4342 137.6235,-304.494"/>
<polygon fill="#000000" stroke="#000000" points="141.1236,-304.2121 137.6235,-294.2121 134.1236,-304.2121 141.1236,-304.2121"/>
<text text-anchor="middle" x="164.4443" y="-314.8" font-family="Times,serif" font-size="14.00" fill="#000000">broadcast</text>
</g>
<!-- Reducer 13 -->
<g id="node9" class="node">
<title>Reducer 13</title>
<ellipse fill="none" stroke="#000000" cx="144.6235" cy="-448" rx="50.7474" ry="18"/>
<text text-anchor="middle" x="144.6235" y="-443.8" font-family="Times,serif" font-size="14.00" fill="#000000">Reducer 13</text>
</g>
<!-- Reducer 13&#45;&gt;Reducer 11 -->
<g id="edge7" class="edge">
<title>Reducer 13&#45;&gt;Reducer 11</title>
<path fill="none" stroke="#000000" d="M143.139,-429.7616C142.211,-418.3597 140.9961,-403.4342 139.9428,-390.494"/>
<polygon fill="#000000" stroke="#000000" points="143.4057,-389.8952 139.1059,-380.2121 136.4288,-390.4631 143.4057,-389.8952"/>
<text text-anchor="middle" x="156.7856" y="-400.8" font-family="Times,serif" font-size="14.00" fill="#000000">None</text>
</g>
<!-- Map 9 -->
<g id="node10" class="node">
<title>Map 9</title>
<ellipse fill="none" stroke="#000000" cx="88.6235" cy="-642" rx="32.8992" ry="18"/>
<text text-anchor="middle" x="88.6235" y="-637.8" font-family="Times,serif" font-size="14.00" fill="#000000">Map 9</text>
</g>
<!-- Map 9&#45;&gt;Reducer 10 -->
<g id="edge8" class="edge">
<title>Map 9&#45;&gt;Reducer 10</title>
<path fill="none" stroke="#000000" d="M80.9972,-624.2451C78.6919,-618.4898 76.279,-612.0334 74.4097,-606 66.5788,-580.7245 60.0803,-551.2707 55.866,-530.1736"/>
<polygon fill="#000000" stroke="#000000" points="59.2813,-529.4008 53.9301,-520.2566 52.411,-530.742 59.2813,-529.4008"/>
<text text-anchor="middle" x="91.7305" y="-594.8" font-family="Times,serif" font-size="14.00" fill="#000000">sorted</text>
</g>
<!-- Reducer 12 -->
<g id="node11" class="node">
<title>Reducer 12</title>
<ellipse fill="none" stroke="#000000" cx="141.6235" cy="-556" rx="50.7474" ry="18"/>
<text text-anchor="middle" x="141.6235" y="-551.8" font-family="Times,serif" font-size="14.00" fill="#000000">Reducer 12</text>
</g>
<!-- Map 9&#45;&gt;Reducer 12 -->
<g id="edge10" class="edge">
<title>Map 9&#45;&gt;Reducer 12</title>
<path fill="none" stroke="#000000" d="M99.3489,-624.5966C106.8422,-612.4376 116.9814,-595.9854 125.4517,-582.2412"/>
<polygon fill="#000000" stroke="#000000" points="128.4653,-584.0222 130.7322,-573.6727 122.5061,-580.3496 128.4653,-584.0222"/>
<text text-anchor="middle" x="135.7305" y="-594.8" font-family="Times,serif" font-size="14.00" fill="#000000">sorted</text>
</g>
<!-- Reducer 12&#45;&gt;Reducer 13 -->
<g id="edge9" class="edge">
<title>Reducer 12&#45;&gt;Reducer 13</title>
<path fill="none" stroke="#000000" d="M142.1324,-537.6793C142.6007,-520.821 143.3023,-495.5651 143.8417,-476.147"/>
<polygon fill="#000000" stroke="#000000" points="147.343,-476.1435 144.1221,-466.0502 140.3457,-475.9491 147.343,-476.1435"/>
<text text-anchor="middle" x="160.7305" y="-497.8" font-family="Times,serif" font-size="14.00" fill="#000000">sorted</text>
</g>
<!-- Reducer 5 -->
<g id="node13" class="node">
<title>Reducer 5</title>
<ellipse fill="none" stroke="#000000" cx="137.6235" cy="-18" rx="46.4045" ry="18"/>
<text text-anchor="middle" x="137.6235" y="-13.8" font-family="Times,serif" font-size="14.00" fill="#000000">Reducer 5</text>
</g>
<!-- Reducer 4&#45;&gt;Reducer 5 -->
<g id="edge11" class="edge">
<title>Reducer 4&#45;&gt;Reducer 5</title>
<path fill="none" stroke="#000000" d="M137.6235,-85.7616C137.6235,-74.3597 137.6235,-59.4342 137.6235,-46.494"/>
<polygon fill="#000000" stroke="#000000" points="141.1236,-46.2121 137.6235,-36.2121 134.1236,-46.2121 141.1236,-46.2121"/>
<text text-anchor="middle" x="154.7305" y="-56.8" font-family="Times,serif" font-size="14.00" fill="#000000">sorted</text>
</g>
<!-- Map 7 -->
<g id="node14" class="node">
<title>Map 7</title>
<ellipse fill="none" stroke="#000000" cx="252.6235" cy="-448" rx="32.8992" ry="18"/>
<text text-anchor="middle" x="252.6235" y="-443.8" font-family="Times,serif" font-size="14.00" fill="#000000">Map 7</text>
</g>
<!-- Map 7&#45;&gt;Reducer 8 -->
<g id="edge14" class="edge">
<title>Map 7&#45;&gt;Reducer 8</title>
<path fill="none" stroke="#000000" d="M252.6235,-429.7616C252.6235,-418.3597 252.6235,-403.4342 252.6235,-390.494"/>
<polygon fill="#000000" stroke="#000000" points="256.1236,-390.2121 252.6235,-380.2121 249.1236,-390.2121 256.1236,-390.2121"/>
<text text-anchor="middle" x="269.7305" y="-400.8" font-family="Times,serif" font-size="14.00" fill="#000000">sorted</text>
</g>
</g>
</svg>
