<?xml version="1.0" encoding="UTF-8" standalone="no"?>
<!DOCTYPE svg PUBLIC "-//W3C//DTD SVG 1.1//EN"
 "http://www.w3.org/Graphics/SVG/1.1/DTD/svg11.dtd">
<!-- Generated by graphviz version 2.40.1 (20161225.0304)
 -->
<!-- Title: %3 Pages: 1 -->
<svg width="442pt" height="388pt"
 viewBox="0.00 0.00 442.15 388.00" xmlns="http://www.w3.org/2000/svg" xmlns:xlink="http://www.w3.org/1999/xlink">
<g id="graph0" class="graph" transform="scale(1 1) rotate(0) translate(4 384)">
<title>%3</title>
<polygon fill="#ffffff" stroke="transparent" points="-4,4 -4,-384 438.1514,-384 438.1514,4 -4,4"/>
<!-- Map 6 -->
<g id="node1" class="node">
<title>Map 6</title>
<ellipse fill="none" stroke="#000000" cx="87.2018" cy="-362" rx="32.8992" ry="18"/>
<text text-anchor="middle" x="87.2018" y="-357.8" font-family="Times,serif" font-size="14.00" fill="#000000">Map 6</text>
</g>
<!-- Reducer 7 -->
<g id="node2" class="node">
<title>Reducer 7</title>
<ellipse fill="none" stroke="#000000" cx="46.2018" cy="-276" rx="46.4045" ry="18"/>
<text text-anchor="middle" x="46.2018" y="-271.8" font-family="Times,serif" font-size="14.00" fill="#000000">Reducer 7</text>
</g>
<!-- Map 6&#45;&gt;Reducer 7 -->
<g id="edge1" class="edge">
<title>Map 6&#45;&gt;Reducer 7</title>
<path fill="none" stroke="#000000" d="M76.2842,-344.7228C72.7941,-338.8835 69.0463,-332.2568 65.9879,-326 62.4532,-318.7687 59.0551,-310.7369 56.1025,-303.2639"/>
<polygon fill="#000000" stroke="#000000" points="59.3514,-301.9608 52.5037,-293.8763 52.8153,-304.4666 59.3514,-301.9608"/>
<text text-anchor="middle" x="90.3087" y="-314.8" font-family="Times,serif" font-size="14.00" fill="#000000">unsorted</text>
</g>
<!-- Map 1 -->
<g id="node6" class="node">
<title>Map 1</title>
<ellipse fill="none" stroke="#000000" cx="233.2018" cy="-190" rx="32.8992" ry="18"/>
<text text-anchor="middle" x="233.2018" y="-185.8" font-family="Times,serif" font-size="14.00" fill="#000000">Map 1</text>
</g>
<!-- Map 6&#45;&gt;Map 1 -->
<g id="edge5" class="edge">
<title>Map 6&#45;&gt;Map 1</title>
<path fill="none" stroke="#000000" d="M101.2651,-345.5191C105.8208,-339.6268 110.6176,-332.7655 114.2018,-326 129.1616,-297.7624 118.4302,-283.5969 137.5602,-258 153.7424,-236.3474 178.8415,-218.8732 199.2678,-207.0625"/>
<polygon fill="#000000" stroke="#000000" points="201.2458,-209.9669 208.2752,-202.0398 197.8367,-203.8532 201.2458,-209.9669"/>
<text text-anchor="middle" x="165.0226" y="-271.8" font-family="Times,serif" font-size="14.00" fill="#000000">broadcast</text>
</g>
<!-- Reducer 7&#45;&gt;Map 1 -->
<g id="edge7" class="edge">
<title>Reducer 7&#45;&gt;Map 1</title>
<path fill="none" stroke="#000000" d="M46.8957,-257.8811C48.2797,-247.1518 51.8242,-234.1118 60.5602,-226 79.0855,-208.7983 145.5485,-198.8091 190.3948,-193.8851"/>
<polygon fill="#000000" stroke="#000000" points="190.8702,-197.3545 200.4483,-192.8257 190.1365,-190.3931 190.8702,-197.3545"/>
<text text-anchor="middle" x="88.0226" y="-228.8" font-family="Times,serif" font-size="14.00" fill="#000000">broadcast</text>
</g>
<!-- Reducer 2 -->
<g id="node3" class="node">
<title>Reducer 2</title>
<ellipse fill="none" stroke="#000000" cx="233.2018" cy="-104" rx="46.4045" ry="18"/>
<text text-anchor="middle" x="233.2018" y="-99.8" font-family="Times,serif" font-size="14.00" fill="#000000">Reducer 2</text>
</g>
<!-- Reducer 3 -->
<g id="node4" class="node">
<title>Reducer 3</title>
<ellipse fill="none" stroke="#000000" cx="233.2018" cy="-18" rx="46.4045" ry="18"/>
<text text-anchor="middle" x="233.2018" y="-13.8" font-family="Times,serif" font-size="14.00" fill="#000000">Reducer 3</text>
</g>
<!-- Reducer 2&#45;&gt;Reducer 3 -->
<g id="edge2" class="edge">
<title>Reducer 2&#45;&gt;Reducer 3</title>
<path fill="none" stroke="#000000" d="M233.2018,-85.7616C233.2018,-74.3597 233.2018,-59.4342 233.2018,-46.494"/>
<polygon fill="#000000" stroke="#000000" points="236.7019,-46.2121 233.2018,-36.2121 229.7019,-46.2121 236.7019,-46.2121"/>
<text text-anchor="middle" x="250.3087" y="-56.8" font-family="Times,serif" font-size="14.00" fill="#000000">sorted</text>
</g>
<!-- Map 4 -->
<g id="node5" class="node">
<title>Map 4</title>
<ellipse fill="none" stroke="#000000" cx="233.2018" cy="-276" rx="32.8992" ry="18"/>
<text text-anchor="middle" x="233.2018" y="-271.8" font-family="Times,serif" font-size="14.00" fill="#000000">Map 4</text>
</g>
<!-- Map 4&#45;&gt;Map 1 -->
<g id="edge3" class="edge">
<title>Map 4&#45;&gt;Map 1</title>
<path fill="none" stroke="#000000" d="M233.2018,-257.7616C233.2018,-246.3597 233.2018,-231.4342 233.2018,-218.494"/>
<polygon fill="#000000" stroke="#000000" points="236.7019,-218.2121 233.2018,-208.2121 229.7019,-218.2121 236.7019,-218.2121"/>
<text text-anchor="middle" x="260.0226" y="-228.8" font-family="Times,serif" font-size="14.00" fill="#000000">broadcast</text>
</g>
<!-- Map 1&#45;&gt;Reducer 2 -->
<g id="edge8" class="edge">
<title>Map 1&#45;&gt;Reducer 2</title>
<path fill="none" stroke="#000000" d="M233.2018,-171.7616C233.2018,-160.3597 233.2018,-145.4342 233.2018,-132.494"/>
<polygon fill="#000000" stroke="#000000" points="236.7019,-132.2121 233.2018,-122.2121 229.7019,-132.2121 236.7019,-132.2121"/>
<text text-anchor="middle" x="250.3087" y="-142.8" font-family="Times,serif" font-size="14.00" fill="#000000">sorted</text>
</g>
<!-- Map 5 -->
<g id="node7" class="node">
<title>Map 5</title>
<ellipse fill="none" stroke="#000000" cx="317.2018" cy="-276" rx="32.8992" ry="18"/>
<text text-anchor="middle" x="317.2018" y="-271.8" font-family="Times,serif" font-size="14.00" fill="#000000">Map 5</text>
</g>
<!-- Map 5&#45;&gt;Map 1 -->
<g id="edge4" class="edge">
<title>Map 5&#45;&gt;Map 1</title>
<path fill="none" stroke="#000000" d="M310.5864,-257.8891C306.2146,-247.6854 299.7146,-235.1854 291.2018,-226 284.3858,-218.6454 275.7396,-212.2198 267.2177,-206.9126"/>
<polygon fill="#000000" stroke="#000000" points="268.8631,-203.8204 258.4637,-201.7946 265.3301,-209.8634 268.8631,-203.8204"/>
<text text-anchor="middle" x="328.0226" y="-228.8" font-family="Times,serif" font-size="14.00" fill="#000000">broadcast</text>
</g>
<!-- Map 8 -->
<g id="node8" class="node">
<title>Map 8</title>
<ellipse fill="none" stroke="#000000" cx="401.2018" cy="-276" rx="32.8992" ry="18"/>
<text text-anchor="middle" x="401.2018" y="-271.8" font-family="Times,serif" font-size="14.00" fill="#000000">Map 8</text>
</g>
<!-- Map 8&#45;&gt;Map 1 -->
<g id="edge6" class="edge">
<title>Map 8&#45;&gt;Map 1</title>
<path fill="none" stroke="#000000" d="M390.6956,-258.8696C383.1835,-247.9747 372.1386,-234.3876 359.2018,-226 333.9235,-209.6107 301.0828,-200.5443 275.2671,-195.6103"/>
<polygon fill="#000000" stroke="#000000" points="275.8499,-192.1591 265.3919,-193.8563 274.6258,-199.0512 275.8499,-192.1591"/>
<text text-anchor="middle" x="402.0226" y="-228.8" font-family="Times,serif" font-size="14.00" fill="#000000">broadcast</text>
</g>
</g>
</svg>
