<?xml version="1.0" encoding="UTF-8" standalone="no"?>
<!DOCTYPE svg PUBLIC "-//W3C//DTD SVG 1.1//EN"
 "http://www.w3.org/Graphics/SVG/1.1/DTD/svg11.dtd">
<!-- Generated by graphviz version 2.40.1 (20161225.0304)
 -->
<!-- Title: %3 Pages: 1 -->
<svg width="264pt" height="560pt"
 viewBox="0.00 0.00 263.59 560.00" xmlns="http://www.w3.org/2000/svg" xmlns:xlink="http://www.w3.org/1999/xlink">
<g id="graph0" class="graph" transform="scale(1 1) rotate(0) translate(4 556)">
<title>%3</title>
<polygon fill="#ffffff" stroke="transparent" points="-4,4 -4,-556 259.5912,-556 259.5912,4 -4,4"/>
<!-- Map 3 -->
<g id="node1" class="node">
<title>Map 3</title>
<ellipse fill="none" stroke="#000000" cx="32.9496" cy="-448" rx="32.8992" ry="18"/>
<text text-anchor="middle" x="32.9496" y="-443.8" font-family="Times,serif" font-size="14.00" fill="#000000">Map 3</text>
</g>
<!-- Map 6 -->
<g id="node2" class="node">
<title>Map 6</title>
<ellipse fill="none" stroke="#000000" cx="134.9496" cy="-362" rx="32.8992" ry="18"/>
<text text-anchor="middle" x="134.9496" y="-357.8" font-family="Times,serif" font-size="14.00" fill="#000000">Map 6</text>
</g>
<!-- Map 3&#45;&gt;Map 6 -->
<g id="edge1" class="edge">
<title>Map 3&#45;&gt;Map 6</title>
<path fill="none" stroke="#000000" d="M46.2382,-431.1873C54.7867,-420.9497 66.4763,-407.9677 78.308,-398 85.9136,-391.5925 94.7439,-385.4559 103.1369,-380.1218"/>
<polygon fill="#000000" stroke="#000000" points="104.9757,-383.0999 111.6552,-374.8758 101.305,-377.1395 104.9757,-383.0999"/>
<text text-anchor="middle" x="105.7704" y="-400.8" font-family="Times,serif" font-size="14.00" fill="#000000">broadcast</text>
</g>
<!-- Map 1 -->
<g id="node4" class="node">
<title>Map 1</title>
<ellipse fill="none" stroke="#000000" cx="98.9496" cy="-104" rx="32.8992" ry="18"/>
<text text-anchor="middle" x="98.9496" y="-99.8" font-family="Times,serif" font-size="14.00" fill="#000000">Map 1</text>
</g>
<!-- Map 3&#45;&gt;Map 1 -->
<g id="edge3" class="edge">
<title>Map 3&#45;&gt;Map 1</title>
<path fill="none" stroke="#000000" d="M30.2857,-429.9255C27.9585,-412.5542 24.9496,-385.5422 24.9496,-362 24.9496,-362 24.9496,-362 24.9496,-190 24.9496,-161.9548 47.8407,-138.503 68.1596,-123.2104"/>
<polygon fill="#000000" stroke="#000000" points="70.2422,-126.0241 76.345,-117.3635 66.1734,-120.328 70.2422,-126.0241"/>
<text text-anchor="middle" x="51.7704" y="-271.8" font-family="Times,serif" font-size="14.00" fill="#000000">broadcast</text>
</g>
<!-- Reducer 7 -->
<g id="node5" class="node">
<title>Reducer 7</title>
<ellipse fill="none" stroke="#000000" cx="164.9496" cy="-276" rx="46.4045" ry="18"/>
<text text-anchor="middle" x="164.9496" y="-271.8" font-family="Times,serif" font-size="14.00" fill="#000000">Reducer 7</text>
</g>
<!-- Map 6&#45;&gt;Reducer 7 -->
<g id="edge8" class="edge">
<title>Map 6&#45;&gt;Reducer 7</title>
<path fill="none" stroke="#000000" d="M141.1656,-344.1807C145.2411,-332.4975 150.6525,-316.985 155.2838,-303.7086"/>
<polygon fill="#000000" stroke="#000000" points="158.6492,-304.6871 158.6383,-294.0923 152.0398,-302.3815 158.6492,-304.6871"/>
<text text-anchor="middle" x="169.0565" y="-314.8" font-family="Times,serif" font-size="14.00" fill="#000000">sorted</text>
</g>
<!-- Reducer 5 -->
<g id="node3" class="node">
<title>Reducer 5</title>
<ellipse fill="none" stroke="#000000" cx="135.9496" cy="-448" rx="46.4045" ry="18"/>
<text text-anchor="middle" x="135.9496" y="-443.8" font-family="Times,serif" font-size="14.00" fill="#000000">Reducer 5</text>
</g>
<!-- Reducer 5&#45;&gt;Map 6 -->
<g id="edge2" class="edge">
<title>Reducer 5&#45;&gt;Map 6</title>
<path fill="none" stroke="#000000" d="M135.7375,-429.7616C135.6049,-418.3597 135.4314,-403.4342 135.2809,-390.494"/>
<polygon fill="#000000" stroke="#000000" points="138.7775,-390.1707 135.1613,-380.2121 131.7779,-390.2522 138.7775,-390.1707"/>
<text text-anchor="middle" x="162.7704" y="-400.8" font-family="Times,serif" font-size="14.00" fill="#000000">broadcast</text>
</g>
<!-- Reducer 2 -->
<g id="node8" class="node">
<title>Reducer 2</title>
<ellipse fill="none" stroke="#000000" cx="98.9496" cy="-18" rx="46.4045" ry="18"/>
<text text-anchor="middle" x="98.9496" y="-13.8" font-family="Times,serif" font-size="14.00" fill="#000000">Reducer 2</text>
</g>
<!-- Map 1&#45;&gt;Reducer 2 -->
<g id="edge9" class="edge">
<title>Map 1&#45;&gt;Reducer 2</title>
<path fill="none" stroke="#000000" d="M98.9496,-85.7616C98.9496,-74.3597 98.9496,-59.4342 98.9496,-46.494"/>
<polygon fill="#000000" stroke="#000000" points="102.4497,-46.2121 98.9496,-36.2121 95.4497,-46.2121 102.4497,-46.2121"/>
<text text-anchor="middle" x="116.0565" y="-56.8" font-family="Times,serif" font-size="14.00" fill="#000000">sorted</text>
</g>
<!-- Reducer 7&#45;&gt;Map 1 -->
<g id="edge4" class="edge">
<title>Reducer 7&#45;&gt;Map 1</title>
<path fill="none" stroke="#000000" d="M169.027,-258.0454C174.2653,-230.3377 180.1434,-176.544 156.9496,-140 151.5762,-131.5338 143.4192,-124.7314 134.9054,-119.4179"/>
<polygon fill="#000000" stroke="#000000" points="136.4375,-116.264 126.0058,-114.4122 133.0059,-122.3652 136.4375,-116.264"/>
<text text-anchor="middle" x="199.7704" y="-185.8" font-family="Times,serif" font-size="14.00" fill="#000000">broadcast</text>
</g>
<!-- Reducer 8 -->
<g id="node6" class="node">
<title>Reducer 8</title>
<ellipse fill="none" stroke="#000000" cx="98.9496" cy="-190" rx="46.4045" ry="18"/>
<text text-anchor="middle" x="98.9496" y="-185.8" font-family="Times,serif" font-size="14.00" fill="#000000">Reducer 8</text>
</g>
<!-- Reducer 7&#45;&gt;Reducer 8 -->
<g id="edge10" class="edge">
<title>Reducer 7&#45;&gt;Reducer 8</title>
<path fill="none" stroke="#000000" d="M140.2176,-260.548C132.5513,-254.8303 124.5891,-247.8143 118.7357,-240 113.8323,-233.4541 109.9677,-225.5326 107.0052,-217.9437"/>
<polygon fill="#000000" stroke="#000000" points="110.2351,-216.5777 103.6189,-208.3027 103.6307,-218.8976 110.2351,-216.5777"/>
<text text-anchor="middle" x="143.0565" y="-228.8" font-family="Times,serif" font-size="14.00" fill="#000000">unsorted</text>
</g>
<!-- Reducer 8&#45;&gt;Map 1 -->
<g id="edge5" class="edge">
<title>Reducer 8&#45;&gt;Map 1</title>
<path fill="none" stroke="#000000" d="M98.9496,-171.7616C98.9496,-160.3597 98.9496,-145.4342 98.9496,-132.494"/>
<polygon fill="#000000" stroke="#000000" points="102.4497,-132.2121 98.9496,-122.2121 95.4497,-132.2121 102.4497,-132.2121"/>
<text text-anchor="middle" x="125.7704" y="-142.8" font-family="Times,serif" font-size="14.00" fill="#000000">broadcast</text>
</g>
<!-- Map 4 -->
<g id="node7" class="node">
<title>Map 4</title>
<ellipse fill="none" stroke="#000000" cx="172.9496" cy="-534" rx="32.8992" ry="18"/>
<text text-anchor="middle" x="172.9496" y="-529.8" font-family="Times,serif" font-size="14.00" fill="#000000">Map 4</text>
</g>
<!-- Map 4&#45;&gt;Reducer 5 -->
<g id="edge6" class="edge">
<title>Map 4&#45;&gt;Reducer 5</title>
<path fill="none" stroke="#000000" d="M160.4989,-517.0268C156.6462,-511.2077 152.6526,-504.5162 149.7357,-498 146.635,-491.0732 144.0817,-483.288 142.0515,-475.9603"/>
<polygon fill="#000000" stroke="#000000" points="145.3858,-474.8705 139.527,-466.043 138.6021,-476.5974 145.3858,-474.8705"/>
<text text-anchor="middle" x="174.0565" y="-486.8" font-family="Times,serif" font-size="14.00" fill="#000000">unsorted</text>
</g>
<!-- Map 4&#45;&gt;Reducer 7 -->
<g id="edge7" class="edge">
<title>Map 4&#45;&gt;Reducer 7</title>
<path fill="none" stroke="#000000" d="M187.4811,-517.5598C191.7051,-511.7763 195.7665,-504.971 197.9496,-498 199.8091,-492.0621 198.0941,-490.2205 197.9496,-484 196.1713,-407.4936 214.511,-384.4785 189.9496,-312 188.7559,-308.4777 187.1068,-304.9882 185.2197,-301.6473"/>
<polygon fill="#000000" stroke="#000000" points="188.1646,-299.7558 179.8177,-293.2305 182.2735,-303.5368 188.1646,-299.7558"/>
<text text-anchor="middle" x="228.7704" y="-400.8" font-family="Times,serif" font-size="14.00" fill="#000000">broadcast</text>
</g>
</g>
</svg>
