<?xml version="1.0" encoding="UTF-8" standalone="no"?>
<!DOCTYPE svg PUBLIC "-//W3C//DTD SVG 1.1//EN"
 "http://www.w3.org/Graphics/SVG/1.1/DTD/svg11.dtd">
<!-- Generated by graphviz version 2.40.1 (20161225.0304)
 -->
<!-- Title: %3 Pages: 1 -->
<svg width="210pt" height="388pt"
 viewBox="0.00 0.00 210.40 388.00" xmlns="http://www.w3.org/2000/svg" xmlns:xlink="http://www.w3.org/1999/xlink">
<g id="graph0" class="graph" transform="scale(1 1) rotate(0) translate(4 384)">
<title>%3</title>
<polygon fill="#ffffff" stroke="transparent" points="-4,4 -4,-384 206.4036,-384 206.4036,4 -4,4"/>
<!-- Map 4 -->
<g id="node1" class="node">
<title>Map 4</title>
<ellipse fill="none" stroke="#000000" cx="100.2018" cy="-362" rx="32.8992" ry="18"/>
<text text-anchor="middle" x="100.2018" y="-357.8" font-family="Times,serif" font-size="14.00" fill="#000000">Map 4</text>
</g>
<!-- Reducer 5 -->
<g id="node2" class="node">
<title>Reducer 5</title>
<ellipse fill="none" stroke="#000000" cx="46.2018" cy="-276" rx="46.4045" ry="18"/>
<text text-anchor="middle" x="46.2018" y="-271.8" font-family="Times,serif" font-size="14.00" fill="#000000">Reducer 5</text>
</g>
<!-- Map 4&#45;&gt;Reducer 5 -->
<g id="edge1" class="edge">
<title>Map 4&#45;&gt;Reducer 5</title>
<path fill="none" stroke="#000000" d="M89.2741,-344.5966C81.6394,-332.4376 71.3089,-315.9854 62.6788,-302.2412"/>
<polygon fill="#000000" stroke="#000000" points="65.5805,-300.2804 57.2986,-293.6727 59.6522,-304.0028 65.5805,-300.2804"/>
<text text-anchor="middle" x="94.3087" y="-314.8" font-family="Times,serif" font-size="14.00" fill="#000000">sorted</text>
</g>
<!-- Reducer 6 -->
<g id="node3" class="node">
<title>Reducer 6</title>
<ellipse fill="none" stroke="#000000" cx="156.2018" cy="-276" rx="46.4045" ry="18"/>
<text text-anchor="middle" x="156.2018" y="-271.8" font-family="Times,serif" font-size="14.00" fill="#000000">Reducer 6</text>
</g>
<!-- Map 4&#45;&gt;Reducer 6 -->
<g id="edge2" class="edge">
<title>Map 4&#45;&gt;Reducer 6</title>
<path fill="none" stroke="#000000" d="M111.2656,-345.0092C119.2145,-332.802 130.0803,-316.1151 139.1359,-302.2083"/>
<polygon fill="#000000" stroke="#000000" points="142.2527,-303.8358 144.7765,-293.546 136.3868,-300.0161 142.2527,-303.8358"/>
<text text-anchor="middle" x="149.3087" y="-314.8" font-family="Times,serif" font-size="14.00" fill="#000000">sorted</text>
</g>
<!-- Map 1 -->
<g id="node6" class="node">
<title>Map 1</title>
<ellipse fill="none" stroke="#000000" cx="100.2018" cy="-190" rx="32.8992" ry="18"/>
<text text-anchor="middle" x="100.2018" y="-185.8" font-family="Times,serif" font-size="14.00" fill="#000000">Map 1</text>
</g>
<!-- Reducer 5&#45;&gt;Map 1 -->
<g id="edge4" class="edge">
<title>Reducer 5&#45;&gt;Map 1</title>
<path fill="none" stroke="#000000" d="M54.2747,-257.9293C58.8868,-248.2047 65.0401,-236.1564 71.5602,-226 74.0546,-222.1144 76.8831,-218.1478 79.7676,-214.335"/>
<polygon fill="#000000" stroke="#000000" points="82.6357,-216.3498 86.0636,-206.3248 77.1322,-212.024 82.6357,-216.3498"/>
<text text-anchor="middle" x="99.0226" y="-228.8" font-family="Times,serif" font-size="14.00" fill="#000000">broadcast</text>
</g>
<!-- Reducer 6&#45;&gt;Map 1 -->
<g id="edge5" class="edge">
<title>Reducer 6&#45;&gt;Map 1</title>
<path fill="none" stroke="#000000" d="M145.5198,-258.2726C139.6434,-248.6486 132.1529,-236.5868 125.2018,-226 122.9635,-222.5911 120.5667,-219.0317 118.1759,-215.5342"/>
<polygon fill="#000000" stroke="#000000" points="120.9038,-213.3251 112.3387,-207.0889 115.1454,-217.3052 120.9038,-213.3251"/>
<text text-anchor="middle" x="161.0226" y="-228.8" font-family="Times,serif" font-size="14.00" fill="#000000">broadcast</text>
</g>
<!-- Reducer 2 -->
<g id="node4" class="node">
<title>Reducer 2</title>
<ellipse fill="none" stroke="#000000" cx="100.2018" cy="-104" rx="46.4045" ry="18"/>
<text text-anchor="middle" x="100.2018" y="-99.8" font-family="Times,serif" font-size="14.00" fill="#000000">Reducer 2</text>
</g>
<!-- Reducer 3 -->
<g id="node5" class="node">
<title>Reducer 3</title>
<ellipse fill="none" stroke="#000000" cx="100.2018" cy="-18" rx="46.4045" ry="18"/>
<text text-anchor="middle" x="100.2018" y="-13.8" font-family="Times,serif" font-size="14.00" fill="#000000">Reducer 3</text>
</g>
<!-- Reducer 2&#45;&gt;Reducer 3 -->
<g id="edge3" class="edge">
<title>Reducer 2&#45;&gt;Reducer 3</title>
<path fill="none" stroke="#000000" d="M100.2018,-85.7616C100.2018,-74.3597 100.2018,-59.4342 100.2018,-46.494"/>
<polygon fill="#000000" stroke="#000000" points="103.7019,-46.2121 100.2018,-36.2121 96.7019,-46.2121 103.7019,-46.2121"/>
<text text-anchor="middle" x="117.3087" y="-56.8" font-family="Times,serif" font-size="14.00" fill="#000000">sorted</text>
</g>
<!-- Map 1&#45;&gt;Reducer 2 -->
<g id="edge6" class="edge">
<title>Map 1&#45;&gt;Reducer 2</title>
<path fill="none" stroke="#000000" d="M100.2018,-171.7616C100.2018,-160.3597 100.2018,-145.4342 100.2018,-132.494"/>
<polygon fill="#000000" stroke="#000000" points="103.7019,-132.2121 100.2018,-122.2121 96.7019,-132.2121 103.7019,-132.2121"/>
<text text-anchor="middle" x="117.3087" y="-142.8" font-family="Times,serif" font-size="14.00" fill="#000000">sorted</text>
</g>
</g>
</svg>
