<?xml version="1.0" encoding="UTF-8" standalone="no"?>
<!DOCTYPE svg PUBLIC "-//W3C//DTD SVG 1.1//EN"
 "http://www.w3.org/Graphics/SVG/1.1/DTD/svg11.dtd">
<!-- Generated by graphviz version 2.40.1 (20161225.0304)
 -->
<!-- Title: %3 Pages: 1 -->
<svg width="735pt" height="388pt"
 viewBox="0.00 0.00 734.89 388.00" xmlns="http://www.w3.org/2000/svg" xmlns:xlink="http://www.w3.org/1999/xlink">
<g id="graph0" class="graph" transform="scale(1 1) rotate(0) translate(4 384)">
<title>%3</title>
<polygon fill="#ffffff" stroke="transparent" points="-4,4 -4,-384 730.8947,-384 730.8947,4 -4,4"/>
<!-- Map 11 -->
<g id="node1" class="node">
<title>Map 11</title>
<ellipse fill="none" stroke="#000000" cx="324.2712" cy="-276" rx="37.0949" ry="18"/>
<text text-anchor="middle" x="324.2712" y="-271.8" font-family="Times,serif" font-size="14.00" fill="#000000">Map 11</text>
</g>
<!-- Map 1 -->
<g id="node2" class="node">
<title>Map 1</title>
<ellipse fill="none" stroke="#000000" cx="100.2712" cy="-190" rx="32.8992" ry="18"/>
<text text-anchor="middle" x="100.2712" y="-185.8" font-family="Times,serif" font-size="14.00" fill="#000000">Map 1</text>
</g>
<!-- Map 11&#45;&gt;Map 1 -->
<g id="edge1" class="edge">
<title>Map 11&#45;&gt;Map 1</title>
<path fill="none" stroke="#000000" d="M294.4348,-265.3207C286.918,-262.7813 278.8347,-260.1791 271.2712,-258 238.0646,-248.433 227.9925,-252.1178 195.6296,-240 173.1657,-231.5888 149.2628,-219.0472 131.0077,-208.6293"/>
<polygon fill="#000000" stroke="#000000" points="132.6789,-205.5525 122.2729,-203.561 129.1657,-211.6071 132.6789,-205.5525"/>
<text text-anchor="middle" x="223.092" y="-228.8" font-family="Times,serif" font-size="14.00" fill="#000000">broadcast</text>
</g>
<!-- Map 12 -->
<g id="node8" class="node">
<title>Map 12</title>
<ellipse fill="none" stroke="#000000" cx="408.2712" cy="-190" rx="37.243" ry="18"/>
<text text-anchor="middle" x="408.2712" y="-185.8" font-family="Times,serif" font-size="14.00" fill="#000000">Map 12</text>
</g>
<!-- Map 11&#45;&gt;Map 12 -->
<g id="edge14" class="edge">
<title>Map 11&#45;&gt;Map 12</title>
<path fill="none" stroke="#000000" d="M323.3633,-257.7459C323.7573,-247.4945 325.8469,-234.9945 332.6296,-226 340.7937,-215.1735 353.0442,-207.458 365.3216,-202.0234"/>
<polygon fill="#000000" stroke="#000000" points="366.6598,-205.2579 374.6483,-198.2984 364.0634,-198.7571 366.6598,-205.2579"/>
<text text-anchor="middle" x="359.092" y="-228.8" font-family="Times,serif" font-size="14.00" fill="#000000">broadcast</text>
</g>
<!-- Reducer 2 -->
<g id="node13" class="node">
<title>Reducer 2</title>
<ellipse fill="none" stroke="#000000" cx="181.2712" cy="-104" rx="46.4045" ry="18"/>
<text text-anchor="middle" x="181.2712" y="-99.8" font-family="Times,serif" font-size="14.00" fill="#000000">Reducer 2</text>
</g>
<!-- Map 1&#45;&gt;Reducer 2 -->
<g id="edge11" class="edge">
<title>Map 1&#45;&gt;Reducer 2</title>
<path fill="none" stroke="#000000" d="M115.5066,-173.8241C127.4934,-161.0974 144.3963,-143.151 158.0641,-128.6396"/>
<polygon fill="#000000" stroke="#000000" points="160.9642,-130.6653 165.2727,-120.986 155.8686,-125.8658 160.9642,-130.6653"/>
<text text-anchor="middle" x="163.3781" y="-142.8" font-family="Times,serif" font-size="14.00" fill="#000000">sorted</text>
</g>
<!-- Map 6 -->
<g id="node3" class="node">
<title>Map 6</title>
<ellipse fill="none" stroke="#000000" cx="229.2712" cy="-276" rx="32.8992" ry="18"/>
<text text-anchor="middle" x="229.2712" y="-271.8" font-family="Times,serif" font-size="14.00" fill="#000000">Map 6</text>
</g>
<!-- Map 6&#45;&gt;Map 1 -->
<g id="edge2" class="edge">
<title>Map 6&#45;&gt;Map 1</title>
<path fill="none" stroke="#000000" d="M201.6398,-266.0867C193.515,-263.3158 184.5781,-260.4069 176.2712,-258 143.4942,-248.5032 123.1047,-266.5205 101.6296,-240 96.6899,-233.8999 95.0692,-225.8739 95.0395,-218.0427"/>
<polygon fill="#000000" stroke="#000000" points="98.5323,-218.267 95.7715,-208.0382 91.551,-217.7561 98.5323,-218.267"/>
<text text-anchor="middle" x="129.092" y="-228.8" font-family="Times,serif" font-size="14.00" fill="#000000">broadcast</text>
</g>
<!-- Map 6&#45;&gt;Map 12 -->
<g id="edge15" class="edge">
<title>Map 6&#45;&gt;Map 12</title>
<path fill="none" stroke="#000000" d="M238.7456,-258.2277C245.429,-247.353 255.3637,-234.0301 267.6296,-226 295.458,-207.7816 308.0505,-216.256 340.2712,-208 348.5189,-205.8867 357.3177,-203.5894 365.7557,-201.3651"/>
<polygon fill="#000000" stroke="#000000" points="366.6686,-204.7441 375.4409,-198.8029 364.8783,-197.9769 366.6686,-204.7441"/>
<text text-anchor="middle" x="295.092" y="-228.8" font-family="Times,serif" font-size="14.00" fill="#000000">broadcast</text>
</g>
<!-- Map 7 -->
<g id="node4" class="node">
<title>Map 7</title>
<ellipse fill="none" stroke="#000000" cx="415.2712" cy="-276" rx="32.8992" ry="18"/>
<text text-anchor="middle" x="415.2712" y="-271.8" font-family="Times,serif" font-size="14.00" fill="#000000">Map 7</text>
</g>
<!-- Map 7&#45;&gt;Map 1 -->
<g id="edge3" class="edge">
<title>Map 7&#45;&gt;Map 1</title>
<path fill="none" stroke="#000000" d="M409.4272,-257.8173C404.9006,-246.7789 397.4804,-233.4277 386.2712,-226 385.9554,-225.7907 222.2141,-205.2671 142.6633,-195.306"/>
<polygon fill="#000000" stroke="#000000" points="142.8372,-191.8006 132.4798,-194.031 141.9675,-198.7463 142.8372,-191.8006"/>
<text text-anchor="middle" x="426.092" y="-228.8" font-family="Times,serif" font-size="14.00" fill="#000000">broadcast</text>
</g>
<!-- Map 7&#45;&gt;Map 12 -->
<g id="edge16" class="edge">
<title>Map 7&#45;&gt;Map 12</title>
<path fill="none" stroke="#000000" d="M440.1837,-264.0273C455.74,-254.771 471.3973,-241.0311 463.2712,-226 459.1362,-218.3515 452.5911,-212.067 445.4366,-207.012"/>
<polygon fill="#000000" stroke="#000000" points="447.1968,-203.9845 436.8658,-201.6346 443.4765,-209.9141 447.1968,-203.9845"/>
<text text-anchor="middle" x="492.092" y="-228.8" font-family="Times,serif" font-size="14.00" fill="#000000">broadcast</text>
</g>
<!-- Map 8 -->
<g id="node5" class="node">
<title>Map 8</title>
<ellipse fill="none" stroke="#000000" cx="449.2712" cy="-362" rx="32.8992" ry="18"/>
<text text-anchor="middle" x="449.2712" y="-357.8" font-family="Times,serif" font-size="14.00" fill="#000000">Map 8</text>
</g>
<!-- Map 8&#45;&gt;Map 1 -->
<g id="edge4" class="edge">
<title>Map 8&#45;&gt;Map 1</title>
<path fill="none" stroke="#000000" d="M416.6688,-359.3433C319.8366,-351.1261 39.0146,-324.8121 12.6296,-294 -7.0736,-270.9908 -1.1289,-250.064 17.2712,-226 27.4452,-212.6942 43.5456,-204.2269 58.8695,-198.8759"/>
<polygon fill="#000000" stroke="#000000" points="60.2541,-202.1104 68.7573,-195.79 58.1686,-195.4282 60.2541,-202.1104"/>
<text text-anchor="middle" x="40.092" y="-271.8" font-family="Times,serif" font-size="14.00" fill="#000000">broadcast</text>
</g>
<!-- Reducer 9 -->
<g id="node6" class="node">
<title>Reducer 9</title>
<ellipse fill="none" stroke="#000000" cx="121.2712" cy="-276" rx="46.4045" ry="18"/>
<text text-anchor="middle" x="121.2712" y="-271.8" font-family="Times,serif" font-size="14.00" fill="#000000">Reducer 9</text>
</g>
<!-- Map 8&#45;&gt;Reducer 9 -->
<g id="edge13" class="edge">
<title>Map 8&#45;&gt;Reducer 9</title>
<path fill="none" stroke="#000000" d="M419.3778,-354.369C370.6971,-341.9134 271.2844,-316.3579 187.2712,-294 181.4625,-292.4542 175.3711,-290.8161 169.3357,-289.1826"/>
<polygon fill="#000000" stroke="#000000" points="169.8591,-285.698 159.2914,-286.455 168.0246,-292.4534 169.8591,-285.698"/>
<text text-anchor="middle" x="332.3781" y="-314.8" font-family="Times,serif" font-size="14.00" fill="#000000">unsorted</text>
</g>
<!-- Reducer 10 -->
<g id="node7" class="node">
<title>Reducer 10</title>
<ellipse fill="none" stroke="#000000" cx="676.2712" cy="-276" rx="50.7474" ry="18"/>
<text text-anchor="middle" x="676.2712" y="-271.8" font-family="Times,serif" font-size="14.00" fill="#000000">Reducer 10</text>
</g>
<!-- Map 8&#45;&gt;Reducer 10 -->
<g id="edge6" class="edge">
<title>Map 8&#45;&gt;Reducer 10</title>
<path fill="none" stroke="#000000" d="M479.4926,-354.1167C503.7815,-347.4812 538.6173,-337.2864 568.2712,-326 591.7765,-317.0538 617.3459,-305.311 637.7025,-295.4537"/>
<polygon fill="#000000" stroke="#000000" points="639.5067,-298.4676 646.953,-290.9308 636.4319,-292.179 639.5067,-298.4676"/>
<text text-anchor="middle" x="625.3781" y="-314.8" font-family="Times,serif" font-size="14.00" fill="#000000">unsorted</text>
</g>
<!-- Map 8&#45;&gt;Map 12 -->
<g id="edge17" class="edge">
<title>Map 8&#45;&gt;Map 12</title>
<path fill="none" stroke="#000000" d="M468.4948,-346.9303C499.2592,-320.9796 553.1945,-266.7225 523.2712,-226 514.6831,-214.3125 481.6635,-204.7249 453.1963,-198.3909"/>
<polygon fill="#000000" stroke="#000000" points="453.8754,-194.957 443.3645,-196.288 452.4113,-201.8022 453.8754,-194.957"/>
<text text-anchor="middle" x="558.092" y="-271.8" font-family="Times,serif" font-size="14.00" fill="#000000">broadcast</text>
</g>
<!-- Reducer 9&#45;&gt;Map 1 -->
<g id="edge5" class="edge">
<title>Reducer 9&#45;&gt;Map 1</title>
<path fill="none" stroke="#000000" d="M82.053,-266.2767C58.416,-259.5345 31.5753,-249.9993 24.6296,-240 11.9841,-221.795 36.1338,-208.4899 60.4274,-200.2021"/>
<polygon fill="#000000" stroke="#000000" points="61.5445,-203.5198 70.0236,-197.1672 59.4337,-196.8456 61.5445,-203.5198"/>
<text text-anchor="middle" x="52.092" y="-228.8" font-family="Times,serif" font-size="14.00" fill="#000000">broadcast</text>
</g>
<!-- Reducer 10&#45;&gt;Map 12 -->
<g id="edge18" class="edge">
<title>Reducer 10&#45;&gt;Map 12</title>
<path fill="none" stroke="#000000" d="M648.0727,-260.9291C626.6682,-249.9907 596.2478,-235.503 568.2712,-226 530.5649,-213.1921 486.3014,-203.6336 453.9006,-197.5969"/>
<polygon fill="#000000" stroke="#000000" points="454.2864,-194.1097 443.821,-195.761 453.032,-200.9964 454.2864,-194.1097"/>
<text text-anchor="middle" x="628.092" y="-228.8" font-family="Times,serif" font-size="14.00" fill="#000000">broadcast</text>
</g>
<!-- Reducer 13 -->
<g id="node9" class="node">
<title>Reducer 13</title>
<ellipse fill="none" stroke="#000000" cx="408.2712" cy="-104" rx="50.7474" ry="18"/>
<text text-anchor="middle" x="408.2712" y="-99.8" font-family="Times,serif" font-size="14.00" fill="#000000">Reducer 13</text>
</g>
<!-- Map 12&#45;&gt;Reducer 13 -->
<g id="edge7" class="edge">
<title>Map 12&#45;&gt;Reducer 13</title>
<path fill="none" stroke="#000000" d="M408.2712,-171.7616C408.2712,-160.3597 408.2712,-145.4342 408.2712,-132.494"/>
<polygon fill="#000000" stroke="#000000" points="411.7713,-132.2121 408.2712,-122.2121 404.7713,-132.2121 411.7713,-132.2121"/>
<text text-anchor="middle" x="425.3781" y="-142.8" font-family="Times,serif" font-size="14.00" fill="#000000">sorted</text>
</g>
<!-- Union 3 -->
<g id="node10" class="node">
<title>Union 3</title>
<ellipse fill="none" stroke="#000000" cx="292.2712" cy="-190" rx="38.6968" ry="18"/>
<text text-anchor="middle" x="292.2712" y="-185.8" font-family="Times,serif" font-size="14.00" fill="#000000">Union 3</text>
</g>
<!-- Union 3&#45;&gt;Reducer 13 -->
<g id="edge8" class="edge">
<title>Union 3&#45;&gt;Reducer 13</title>
<path fill="none" stroke="#000000" d="M313.0096,-174.6249C331.1089,-161.2065 357.6031,-141.5642 378.0589,-126.3987"/>
<polygon fill="#000000" stroke="#000000" points="380.1837,-129.1805 386.1324,-120.4132 376.0148,-123.5573 380.1837,-129.1805"/>
<text text-anchor="middle" x="371.4333" y="-142.8" font-family="Times,serif" font-size="14.00" fill="#000000">None</text>
</g>
<!-- Reducer 4 -->
<g id="node11" class="node">
<title>Reducer 4</title>
<ellipse fill="none" stroke="#000000" cx="292.2712" cy="-104" rx="46.4045" ry="18"/>
<text text-anchor="middle" x="292.2712" y="-99.8" font-family="Times,serif" font-size="14.00" fill="#000000">Reducer 4</text>
</g>
<!-- Union 3&#45;&gt;Reducer 4 -->
<g id="edge10" class="edge">
<title>Union 3&#45;&gt;Reducer 4</title>
<path fill="none" stroke="#000000" d="M292.2712,-171.7616C292.2712,-160.3597 292.2712,-145.4342 292.2712,-132.494"/>
<polygon fill="#000000" stroke="#000000" points="295.7713,-132.2121 292.2712,-122.2121 288.7713,-132.2121 295.7713,-132.2121"/>
<text text-anchor="middle" x="309.3781" y="-142.8" font-family="Times,serif" font-size="14.00" fill="#000000">sorted</text>
</g>
<!-- Union 3&#45;&gt;Reducer 2 -->
<g id="edge12" class="edge">
<title>Union 3&#45;&gt;Reducer 2</title>
<path fill="none" stroke="#000000" d="M272.1699,-174.426C254.8956,-161.0423 229.769,-141.5749 210.3091,-126.4978"/>
<polygon fill="#000000" stroke="#000000" points="212.4041,-123.6935 202.3555,-120.3356 208.1169,-129.227 212.4041,-123.6935"/>
<text text-anchor="middle" x="259.4333" y="-142.8" font-family="Times,serif" font-size="14.00" fill="#000000">None</text>
</g>
<!-- Reducer 5 -->
<g id="node12" class="node">
<title>Reducer 5</title>
<ellipse fill="none" stroke="#000000" cx="292.2712" cy="-18" rx="46.4045" ry="18"/>
<text text-anchor="middle" x="292.2712" y="-13.8" font-family="Times,serif" font-size="14.00" fill="#000000">Reducer 5</text>
</g>
<!-- Reducer 4&#45;&gt;Reducer 5 -->
<g id="edge9" class="edge">
<title>Reducer 4&#45;&gt;Reducer 5</title>
<path fill="none" stroke="#000000" d="M292.2712,-85.7616C292.2712,-74.3597 292.2712,-59.4342 292.2712,-46.494"/>
<polygon fill="#000000" stroke="#000000" points="295.7713,-46.2121 292.2712,-36.2121 288.7713,-46.2121 295.7713,-46.2121"/>
<text text-anchor="middle" x="309.3781" y="-56.8" font-family="Times,serif" font-size="14.00" fill="#000000">sorted</text>
</g>
</g>
</svg>
