<?xml version="1.0" encoding="UTF-8" standalone="no"?>
<!DOCTYPE svg PUBLIC "-//W3C//DTD SVG 1.1//EN"
 "http://www.w3.org/Graphics/SVG/1.1/DTD/svg11.dtd">
<!-- Generated by graphviz version 2.40.1 (20161225.0304)
 -->
<!-- Title: %3 Pages: 1 -->
<svg width="535pt" height="926pt"
 viewBox="0.00 0.00 535.32 926.00" xmlns="http://www.w3.org/2000/svg" xmlns:xlink="http://www.w3.org/1999/xlink">
<g id="graph0" class="graph" transform="scale(1 1) rotate(0) translate(4 922)">
<title>%3</title>
<polygon fill="#ffffff" stroke="transparent" points="-4,4 -4,-922 531.3209,-922 531.3209,4 -4,4"/>
<!-- Reducer 17 -->
<g id="node1" class="node">
<title>Reducer 17</title>
<ellipse fill="none" stroke="#000000" cx="100.9496" cy="-104" rx="50.7474" ry="18"/>
<text text-anchor="middle" x="100.9496" y="-99.8" font-family="Times,serif" font-size="14.00" fill="#000000">Reducer 17</text>
</g>
<!-- Reducer 18 -->
<g id="node2" class="node">
<title>Reducer 18</title>
<ellipse fill="none" stroke="#000000" cx="100.9496" cy="-18" rx="50.7474" ry="18"/>
<text text-anchor="middle" x="100.9496" y="-13.8" font-family="Times,serif" font-size="14.00" fill="#000000">Reducer 18</text>
</g>
<!-- Reducer 17&#45;&gt;Reducer 18 -->
<g id="edge1" class="edge">
<title>Reducer 17&#45;&gt;Reducer 18</title>
<path fill="none" stroke="#000000" d="M100.9496,-85.7616C100.9496,-74.3597 100.9496,-59.4342 100.9496,-46.494"/>
<polygon fill="#000000" stroke="#000000" points="104.4497,-46.2121 100.9496,-36.2121 97.4497,-46.2121 104.4497,-46.2121"/>
<text text-anchor="middle" x="118.0565" y="-56.8" font-family="Times,serif" font-size="14.00" fill="#000000">sorted</text>
</g>
<!-- Map 4 -->
<g id="node3" class="node">
<title>Map 4</title>
<ellipse fill="none" stroke="#000000" cx="32.9496" cy="-814" rx="32.8992" ry="18"/>
<text text-anchor="middle" x="32.9496" y="-809.8" font-family="Times,serif" font-size="14.00" fill="#000000">Map 4</text>
</g>
<!-- Map 1 -->
<g id="node4" class="node">
<title>Map 1</title>
<ellipse fill="none" stroke="#000000" cx="158.9496" cy="-728" rx="32.8992" ry="18"/>
<text text-anchor="middle" x="158.9496" y="-723.8" font-family="Times,serif" font-size="14.00" fill="#000000">Map 1</text>
</g>
<!-- Map 4&#45;&gt;Map 1 -->
<g id="edge2" class="edge">
<title>Map 4&#45;&gt;Map 1</title>
<path fill="none" stroke="#000000" d="M40.156,-796.196C45.2423,-785.5853 52.9913,-772.5593 63.308,-764 78.9762,-751.0008 99.8146,-742.422 118.04,-736.9126"/>
<polygon fill="#000000" stroke="#000000" points="119.1654,-740.232 127.847,-734.159 117.2731,-733.4926 119.1654,-740.232"/>
<text text-anchor="middle" x="90.7704" y="-766.8" font-family="Times,serif" font-size="14.00" fill="#000000">broadcast</text>
</g>
<!-- Reducer 16 -->
<g id="node12" class="node">
<title>Reducer 16</title>
<ellipse fill="none" stroke="#000000" cx="100.9496" cy="-190" rx="50.7474" ry="18"/>
<text text-anchor="middle" x="100.9496" y="-185.8" font-family="Times,serif" font-size="14.00" fill="#000000">Reducer 16</text>
</g>
<!-- Map 1&#45;&gt;Reducer 16 -->
<g id="edge10" class="edge">
<title>Map 1&#45;&gt;Reducer 16</title>
<path fill="none" stroke="#000000" d="M136.345,-714.6365C114.583,-699.8721 84.9496,-673.9092 84.9496,-642 84.9496,-642 84.9496,-642 84.9496,-276 84.9496,-256.2548 89.0765,-234.3833 93.1385,-217.6383"/>
<polygon fill="#000000" stroke="#000000" points="96.532,-218.4951 95.6218,-207.9394 89.7507,-216.7587 96.532,-218.4951"/>
<text text-anchor="middle" x="111.7704" y="-443.8" font-family="Times,serif" font-size="14.00" fill="#000000">broadcast</text>
</g>
<!-- Reducer 2 -->
<g id="node19" class="node">
<title>Reducer 2</title>
<ellipse fill="none" stroke="#000000" cx="158.9496" cy="-642" rx="46.4045" ry="18"/>
<text text-anchor="middle" x="158.9496" y="-637.8" font-family="Times,serif" font-size="14.00" fill="#000000">Reducer 2</text>
</g>
<!-- Map 1&#45;&gt;Reducer 2 -->
<g id="edge22" class="edge">
<title>Map 1&#45;&gt;Reducer 2</title>
<path fill="none" stroke="#000000" d="M158.9496,-709.7616C158.9496,-698.3597 158.9496,-683.4342 158.9496,-670.494"/>
<polygon fill="#000000" stroke="#000000" points="162.4497,-670.2121 158.9496,-660.2121 155.4497,-670.2121 162.4497,-670.2121"/>
<text text-anchor="middle" x="183.0565" y="-680.8" font-family="Times,serif" font-size="14.00" fill="#000000">unsorted</text>
</g>
<!-- Reducer 3 -->
<g id="node20" class="node">
<title>Reducer 3</title>
<ellipse fill="none" stroke="#000000" cx="268.9496" cy="-642" rx="46.4045" ry="18"/>
<text text-anchor="middle" x="268.9496" y="-637.8" font-family="Times,serif" font-size="14.00" fill="#000000">Reducer 3</text>
</g>
<!-- Map 1&#45;&gt;Reducer 3 -->
<g id="edge19" class="edge">
<title>Map 1&#45;&gt;Reducer 3</title>
<path fill="none" stroke="#000000" d="M180.06,-714.1289C189.6549,-707.6365 201.0495,-699.6598 210.9496,-692 221.7355,-683.6549 233.1899,-673.9696 243.0455,-665.358"/>
<polygon fill="#000000" stroke="#000000" points="245.3782,-667.9674 250.5633,-658.728 240.7482,-662.7174 245.3782,-667.9674"/>
<text text-anchor="middle" x="252.0565" y="-680.8" font-family="Times,serif" font-size="14.00" fill="#000000">unsorted</text>
</g>
<!-- Map 5 -->
<g id="node5" class="node">
<title>Map 5</title>
<ellipse fill="none" stroke="#000000" cx="116.9496" cy="-814" rx="32.8992" ry="18"/>
<text text-anchor="middle" x="116.9496" y="-809.8" font-family="Times,serif" font-size="14.00" fill="#000000">Map 5</text>
</g>
<!-- Map 5&#45;&gt;Map 1 -->
<g id="edge3" class="edge">
<title>Map 5&#45;&gt;Map 1</title>
<path fill="none" stroke="#000000" d="M117.4712,-795.6336C118.3648,-785.8224 120.4768,-773.7857 125.308,-764 127.6156,-759.3259 130.7308,-754.8372 134.1383,-750.7104"/>
<polygon fill="#000000" stroke="#000000" points="136.7711,-753.0176 140.916,-743.2671 131.5954,-748.3046 136.7711,-753.0176"/>
<text text-anchor="middle" x="152.7704" y="-766.8" font-family="Times,serif" font-size="14.00" fill="#000000">broadcast</text>
</g>
<!-- Map 6 -->
<g id="node6" class="node">
<title>Map 6</title>
<ellipse fill="none" stroke="#000000" cx="200.9496" cy="-814" rx="32.8992" ry="18"/>
<text text-anchor="middle" x="200.9496" y="-809.8" font-family="Times,serif" font-size="14.00" fill="#000000">Map 6</text>
</g>
<!-- Map 6&#45;&gt;Map 1 -->
<g id="edge4" class="edge">
<title>Map 6&#45;&gt;Map 1</title>
<path fill="none" stroke="#000000" d="M193.6049,-796.2298C189.5038,-786.5933 184.1787,-774.5332 178.9496,-764 177.3758,-760.83 175.6629,-757.54 173.9235,-754.2948"/>
<polygon fill="#000000" stroke="#000000" points="176.9242,-752.4876 169.0448,-745.4049 170.7876,-755.8554 176.9242,-752.4876"/>
<text text-anchor="middle" x="212.7704" y="-766.8" font-family="Times,serif" font-size="14.00" fill="#000000">broadcast</text>
</g>
<!-- Reducer 8 -->
<g id="node7" class="node">
<title>Reducer 8</title>
<ellipse fill="none" stroke="#000000" cx="297.9496" cy="-814" rx="46.4045" ry="18"/>
<text text-anchor="middle" x="297.9496" y="-809.8" font-family="Times,serif" font-size="14.00" fill="#000000">Reducer 8</text>
</g>
<!-- Reducer 8&#45;&gt;Map 1 -->
<g id="edge5" class="edge">
<title>Reducer 8&#45;&gt;Map 1</title>
<path fill="none" stroke="#000000" d="M282.1844,-796.6151C272.0281,-786.1621 258.1138,-773.1547 243.9496,-764 229.486,-754.6518 212.1876,-746.8083 196.9829,-740.8536"/>
<polygon fill="#000000" stroke="#000000" points="197.9362,-737.4724 187.3445,-737.2163 195.4647,-744.0216 197.9362,-737.4724"/>
<text text-anchor="middle" x="288.7704" y="-766.8" font-family="Times,serif" font-size="14.00" fill="#000000">broadcast</text>
</g>
<!-- Map 9 -->
<g id="node8" class="node">
<title>Map 9</title>
<ellipse fill="none" stroke="#000000" cx="159.9496" cy="-502" rx="32.8992" ry="18"/>
<text text-anchor="middle" x="159.9496" y="-497.8" font-family="Times,serif" font-size="14.00" fill="#000000">Map 9</text>
</g>
<!-- Reducer 15 -->
<g id="node9" class="node">
<title>Reducer 15</title>
<ellipse fill="none" stroke="#000000" cx="166.9496" cy="-276" rx="50.7474" ry="18"/>
<text text-anchor="middle" x="166.9496" y="-271.8" font-family="Times,serif" font-size="14.00" fill="#000000">Reducer 15</text>
</g>
<!-- Map 9&#45;&gt;Reducer 15 -->
<g id="edge6" class="edge">
<title>Map 9&#45;&gt;Reducer 15</title>
<path fill="none" stroke="#000000" d="M160.5106,-483.8875C161.7265,-444.6289 164.6128,-351.4447 166.0723,-304.3243"/>
<polygon fill="#000000" stroke="#000000" points="169.5745,-304.3024 166.3859,-294.1988 162.5779,-304.0856 169.5745,-304.3024"/>
<text text-anchor="middle" x="188.0565" y="-400.8" font-family="Times,serif" font-size="14.00" fill="#000000">unsorted</text>
</g>
<!-- Reducer 15&#45;&gt;Reducer 16 -->
<g id="edge11" class="edge">
<title>Reducer 15&#45;&gt;Reducer 16</title>
<path fill="none" stroke="#000000" d="M153.5935,-258.5966C144.1109,-246.2405 131.2258,-229.4509 120.5769,-215.575"/>
<polygon fill="#000000" stroke="#000000" points="123.1506,-213.1797 114.2858,-207.3775 117.5974,-217.4415 123.1506,-213.1797"/>
<text text-anchor="middle" x="155.0565" y="-228.8" font-family="Times,serif" font-size="14.00" fill="#000000">sorted</text>
</g>
<!-- Reducer 14 -->
<g id="node10" class="node">
<title>Reducer 14</title>
<ellipse fill="none" stroke="#000000" cx="261.9496" cy="-362" rx="50.7474" ry="18"/>
<text text-anchor="middle" x="261.9496" y="-357.8" font-family="Times,serif" font-size="14.00" fill="#000000">Reducer 14</text>
</g>
<!-- Reducer 14&#45;&gt;Reducer 15 -->
<g id="edge7" class="edge">
<title>Reducer 14&#45;&gt;Reducer 15</title>
<path fill="none" stroke="#000000" d="M243.1806,-345.0092C228.8679,-332.0524 208.9804,-314.049 193.1073,-299.6796"/>
<polygon fill="#000000" stroke="#000000" points="195.442,-297.072 185.6795,-292.9555 190.7441,-302.2615 195.442,-297.072"/>
<text text-anchor="middle" x="245.0565" y="-314.8" font-family="Times,serif" font-size="14.00" fill="#000000">unsorted</text>
</g>
<!-- Reducer 13 -->
<g id="node11" class="node">
<title>Reducer 13</title>
<ellipse fill="none" stroke="#000000" cx="269.9496" cy="-448" rx="50.7474" ry="18"/>
<text text-anchor="middle" x="269.9496" y="-443.8" font-family="Times,serif" font-size="14.00" fill="#000000">Reducer 13</text>
</g>
<!-- Reducer 13&#45;&gt;Reducer 14 -->
<g id="edge8" class="edge">
<title>Reducer 13&#45;&gt;Reducer 14</title>
<path fill="none" stroke="#000000" d="M268.253,-429.7616C267.1923,-418.3597 265.8039,-403.4342 264.6002,-390.494"/>
<polygon fill="#000000" stroke="#000000" points="268.055,-389.8449 263.6437,-380.2121 261.0851,-390.4933 268.055,-389.8449"/>
<text text-anchor="middle" x="283.0565" y="-400.8" font-family="Times,serif" font-size="14.00" fill="#000000">sorted</text>
</g>
<!-- Reducer 16&#45;&gt;Reducer 17 -->
<g id="edge9" class="edge">
<title>Reducer 16&#45;&gt;Reducer 17</title>
<path fill="none" stroke="#000000" d="M100.9496,-171.7616C100.9496,-160.3597 100.9496,-145.4342 100.9496,-132.494"/>
<polygon fill="#000000" stroke="#000000" points="104.4497,-132.2121 100.9496,-122.2121 97.4497,-132.2121 104.4497,-132.2121"/>
<text text-anchor="middle" x="118.0565" y="-142.8" font-family="Times,serif" font-size="14.00" fill="#000000">sorted</text>
</g>
<!-- Map 10 -->
<g id="node13" class="node">
<title>Map 10</title>
<ellipse fill="none" stroke="#000000" cx="351.9496" cy="-728" rx="37.243" ry="18"/>
<text text-anchor="middle" x="351.9496" y="-723.8" font-family="Times,serif" font-size="14.00" fill="#000000">Map 10</text>
</g>
<!-- Reducer 11 -->
<g id="node14" class="node">
<title>Reducer 11</title>
<ellipse fill="none" stroke="#000000" cx="383.9496" cy="-642" rx="50.1002" ry="18"/>
<text text-anchor="middle" x="383.9496" y="-637.8" font-family="Times,serif" font-size="14.00" fill="#000000">Reducer 11</text>
</g>
<!-- Map 10&#45;&gt;Reducer 11 -->
<g id="edge12" class="edge">
<title>Map 10&#45;&gt;Reducer 11</title>
<path fill="none" stroke="#000000" d="M358.58,-710.1807C362.9272,-698.4975 368.6993,-682.985 373.6394,-669.7086"/>
<polygon fill="#000000" stroke="#000000" points="377.0104,-670.6851 377.2175,-660.0923 370.4499,-668.2439 377.0104,-670.6851"/>
<text text-anchor="middle" x="384.1117" y="-680.8" font-family="Times,serif" font-size="14.00" fill="#000000">None</text>
</g>
<!-- Reducer 12 -->
<g id="node17" class="node">
<title>Reducer 12</title>
<ellipse fill="none" stroke="#000000" cx="383.9496" cy="-556" rx="50.7474" ry="18"/>
<text text-anchor="middle" x="383.9496" y="-551.8" font-family="Times,serif" font-size="14.00" fill="#000000">Reducer 12</text>
</g>
<!-- Reducer 11&#45;&gt;Reducer 12 -->
<g id="edge17" class="edge">
<title>Reducer 11&#45;&gt;Reducer 12</title>
<path fill="none" stroke="#000000" d="M383.9496,-623.7616C383.9496,-612.3597 383.9496,-597.4342 383.9496,-584.494"/>
<polygon fill="#000000" stroke="#000000" points="387.4497,-584.2121 383.9496,-574.2121 380.4497,-584.2121 387.4497,-584.2121"/>
<text text-anchor="middle" x="399.1117" y="-594.8" font-family="Times,serif" font-size="14.00" fill="#000000">None</text>
</g>
<!-- Map 19 -->
<g id="node15" class="node">
<title>Map 19</title>
<ellipse fill="none" stroke="#000000" cx="444.9496" cy="-728" rx="37.243" ry="18"/>
<text text-anchor="middle" x="444.9496" y="-723.8" font-family="Times,serif" font-size="14.00" fill="#000000">Map 19</text>
</g>
<!-- Map 19&#45;&gt;Reducer 11 -->
<g id="edge13" class="edge">
<title>Map 19&#45;&gt;Reducer 11</title>
<path fill="none" stroke="#000000" d="M432.6053,-710.5966C423.8987,-698.3218 412.0887,-681.6716 402.2845,-667.8492"/>
<polygon fill="#000000" stroke="#000000" points="405.1251,-665.8043 396.4848,-659.6727 399.4155,-669.8541 405.1251,-665.8043"/>
<text text-anchor="middle" x="433.1117" y="-680.8" font-family="Times,serif" font-size="14.00" fill="#000000">None</text>
</g>
<!-- Map 21 -->
<g id="node16" class="node">
<title>Map 21</title>
<ellipse fill="none" stroke="#000000" cx="269.9496" cy="-556" rx="37.243" ry="18"/>
<text text-anchor="middle" x="269.9496" y="-551.8" font-family="Times,serif" font-size="14.00" fill="#000000">Map 21</text>
</g>
<!-- Map 21&#45;&gt;Reducer 13 -->
<g id="edge14" class="edge">
<title>Map 21&#45;&gt;Reducer 13</title>
<path fill="none" stroke="#000000" d="M269.9496,-537.6793C269.9496,-520.821 269.9496,-495.5651 269.9496,-476.147"/>
<polygon fill="#000000" stroke="#000000" points="273.4497,-476.0501 269.9496,-466.0502 266.4497,-476.0502 273.4497,-476.0501"/>
<text text-anchor="middle" x="285.1117" y="-497.8" font-family="Times,serif" font-size="14.00" fill="#000000">None</text>
</g>
<!-- Reducer 12&#45;&gt;Reducer 13 -->
<g id="edge15" class="edge">
<title>Reducer 12&#45;&gt;Reducer 13</title>
<path fill="none" stroke="#000000" d="M366.1371,-539.125C347.1743,-521.1603 316.9964,-492.5707 295.5023,-472.2079"/>
<polygon fill="#000000" stroke="#000000" points="297.6799,-469.4496 288.0132,-465.1129 292.8656,-474.5312 297.6799,-469.4496"/>
<text text-anchor="middle" x="358.1117" y="-497.8" font-family="Times,serif" font-size="14.00" fill="#000000">None</text>
</g>
<!-- Map 20 -->
<g id="node18" class="node">
<title>Map 20</title>
<ellipse fill="none" stroke="#000000" cx="489.9496" cy="-642" rx="37.243" ry="18"/>
<text text-anchor="middle" x="489.9496" y="-637.8" font-family="Times,serif" font-size="14.00" fill="#000000">Map 20</text>
</g>
<!-- Map 20&#45;&gt;Reducer 12 -->
<g id="edge16" class="edge">
<title>Map 20&#45;&gt;Reducer 12</title>
<path fill="none" stroke="#000000" d="M470.5075,-626.2263C454.2328,-613.0223 430.7866,-593.9998 412.4,-579.0824"/>
<polygon fill="#000000" stroke="#000000" points="414.3229,-576.1355 404.3521,-572.553 409.9126,-581.5714 414.3229,-576.1355"/>
<text text-anchor="middle" x="458.1117" y="-594.8" font-family="Times,serif" font-size="14.00" fill="#000000">None</text>
</g>
<!-- Reducer 2&#45;&gt;Map 9 -->
<g id="edge18" class="edge">
<title>Reducer 2&#45;&gt;Map 9</title>
<path fill="none" stroke="#000000" d="M147.0879,-624.4209C143.9188,-618.7815 140.9268,-612.347 139.308,-606 132.7399,-580.2482 140.1453,-550.4648 147.8522,-529.3876"/>
<polygon fill="#000000" stroke="#000000" points="151.2205,-530.3839 151.5998,-519.7958 144.7005,-527.8364 151.2205,-530.3839"/>
<text text-anchor="middle" x="166.7704" y="-594.8" font-family="Times,serif" font-size="14.00" fill="#000000">broadcast</text>
</g>
<!-- Reducer 2&#45;&gt;Map 21 -->
<g id="edge20" class="edge">
<title>Reducer 2&#45;&gt;Map 21</title>
<path fill="none" stroke="#000000" d="M175.4961,-624.8978C185.6704,-614.7976 199.2257,-602.0612 212.308,-592 220.0005,-586.0839 228.7001,-580.2532 236.9656,-575.0637"/>
<polygon fill="#000000" stroke="#000000" points="239.0005,-577.9216 245.696,-569.7106 235.3414,-571.9541 239.0005,-577.9216"/>
<text text-anchor="middle" x="239.7704" y="-594.8" font-family="Times,serif" font-size="14.00" fill="#000000">broadcast</text>
</g>
<!-- Reducer 3&#45;&gt;Map 21 -->
<g id="edge21" class="edge">
<title>Reducer 3&#45;&gt;Map 21</title>
<path fill="none" stroke="#000000" d="M269.5566,-623.6879C269.7181,-618.0187 269.8697,-611.7517 269.9496,-606 270.0472,-598.9681 270.0831,-591.3793 270.0864,-584.2904"/>
<polygon fill="#000000" stroke="#000000" points="273.5861,-584.0471 270.0704,-574.0526 266.5862,-584.0581 273.5861,-584.0471"/>
<text text-anchor="middle" x="296.7704" y="-594.8" font-family="Times,serif" font-size="14.00" fill="#000000">broadcast</text>
</g>
<!-- Map 7 -->
<g id="node21" class="node">
<title>Map 7</title>
<ellipse fill="none" stroke="#000000" cx="297.9496" cy="-900" rx="32.8992" ry="18"/>
<text text-anchor="middle" x="297.9496" y="-895.8" font-family="Times,serif" font-size="14.00" fill="#000000">Map 7</text>
</g>
<!-- Map 7&#45;&gt;Reducer 8 -->
<g id="edge23" class="edge">
<title>Map 7&#45;&gt;Reducer 8</title>
<path fill="none" stroke="#000000" d="M297.9496,-881.7616C297.9496,-870.3597 297.9496,-855.4342 297.9496,-842.494"/>
<polygon fill="#000000" stroke="#000000" points="301.4497,-842.2121 297.9496,-832.2121 294.4497,-842.2121 301.4497,-842.2121"/>
<text text-anchor="middle" x="315.0565" y="-852.8" font-family="Times,serif" font-size="14.00" fill="#000000">sorted</text>
</g>
</g>
</svg>
