<?xml version="1.0" encoding="UTF-8" standalone="no"?>
<!DOCTYPE svg PUBLIC "-//W3C//DTD SVG 1.1//EN"
 "http://www.w3.org/Graphics/SVG/1.1/DTD/svg11.dtd">
<!-- Generated by graphviz version 2.40.1 (20161225.0304)
 -->
<!-- Title: %3 Pages: 1 -->
<svg width="1309pt" height="582pt"
 viewBox="0.00 0.00 1308.50 582.00" xmlns="http://www.w3.org/2000/svg" xmlns:xlink="http://www.w3.org/1999/xlink">
<g id="graph0" class="graph" transform="scale(1 1) rotate(0) translate(4 578)">
<title>%3</title>
<polygon fill="#ffffff" stroke="transparent" points="-4,4 -4,-578 1304.5015,-578 1304.5015,4 -4,4"/>
<!-- Map 20 -->
<g id="node1" class="node">
<title>Map 20</title>
<ellipse fill="none" stroke="#000000" cx="185.2997" cy="-384" rx="37.243" ry="18"/>
<text text-anchor="middle" x="185.2997" y="-379.8" font-family="Times,serif" font-size="14.00" fill="#000000">Map 20</text>
</g>
<!-- Reducer 21 -->
<g id="node2" class="node">
<title>Reducer 21</title>
<ellipse fill="none" stroke="#000000" cx="281.2997" cy="-244" rx="50.7474" ry="18"/>
<text text-anchor="middle" x="281.2997" y="-239.8" font-family="Times,serif" font-size="14.00" fill="#000000">Reducer 21</text>
</g>
<!-- Map 20&#45;&gt;Reducer 21 -->
<g id="edge1" class="edge">
<title>Map 20&#45;&gt;Reducer 21</title>
<path fill="none" stroke="#000000" d="M197.0712,-366.8333C213.6065,-342.7192 243.855,-298.6068 263.246,-270.3284"/>
<polygon fill="#000000" stroke="#000000" points="266.3603,-271.9755 269.129,-261.7488 260.5872,-268.0168 266.3603,-271.9755"/>
<text text-anchor="middle" x="236.4066" y="-336.8" font-family="Times,serif" font-size="14.00" fill="#000000">sorted</text>
</g>
<!-- Reducer 2 -->
<g id="node5" class="node">
<title>Reducer 2</title>
<ellipse fill="none" stroke="#000000" cx="534.2997" cy="-104" rx="46.4045" ry="18"/>
<text text-anchor="middle" x="534.2997" y="-99.8" font-family="Times,serif" font-size="14.00" fill="#000000">Reducer 2</text>
</g>
<!-- Reducer 21&#45;&gt;Reducer 2 -->
<g id="edge14" class="edge">
<title>Reducer 21&#45;&gt;Reducer 2</title>
<path fill="none" stroke="#000000" d="M298.09,-226.937C313.5927,-211.6402 337.634,-189.0478 360.6581,-172 382.9686,-155.4805 388.8918,-151.1844 414.2997,-140 436.742,-130.121 462.6895,-121.9616 484.7029,-115.9229"/>
<polygon fill="#000000" stroke="#000000" points="485.7574,-119.264 494.5136,-113.2991 483.9488,-112.5017 485.7574,-119.264"/>
<text text-anchor="middle" x="388.1205" y="-185.8" font-family="Times,serif" font-size="14.00" fill="#000000">broadcast</text>
</g>
<!-- Map 18 -->
<g id="node3" class="node">
<title>Map 18</title>
<ellipse fill="none" stroke="#000000" cx="798.2997" cy="-384" rx="37.243" ry="18"/>
<text text-anchor="middle" x="798.2997" y="-379.8" font-family="Times,serif" font-size="14.00" fill="#000000">Map 18</text>
</g>
<!-- Reducer 19 -->
<g id="node4" class="node">
<title>Reducer 19</title>
<ellipse fill="none" stroke="#000000" cx="798.2997" cy="-298" rx="50.7474" ry="18"/>
<text text-anchor="middle" x="798.2997" y="-293.8" font-family="Times,serif" font-size="14.00" fill="#000000">Reducer 19</text>
</g>
<!-- Map 18&#45;&gt;Reducer 19 -->
<g id="edge2" class="edge">
<title>Map 18&#45;&gt;Reducer 19</title>
<path fill="none" stroke="#000000" d="M798.2997,-365.7616C798.2997,-354.3597 798.2997,-339.4342 798.2997,-326.494"/>
<polygon fill="#000000" stroke="#000000" points="801.7998,-326.2121 798.2997,-316.2121 794.7998,-326.2121 801.7998,-326.2121"/>
<text text-anchor="middle" x="815.4066" y="-336.8" font-family="Times,serif" font-size="14.00" fill="#000000">sorted</text>
</g>
<!-- Reducer 17 -->
<g id="node14" class="node">
<title>Reducer 17</title>
<ellipse fill="none" stroke="#000000" cx="798.2997" cy="-190" rx="50.7474" ry="18"/>
<text text-anchor="middle" x="798.2997" y="-185.8" font-family="Times,serif" font-size="14.00" fill="#000000">Reducer 17</text>
</g>
<!-- Reducer 19&#45;&gt;Reducer 17 -->
<g id="edge9" class="edge">
<title>Reducer 19&#45;&gt;Reducer 17</title>
<path fill="none" stroke="#000000" d="M798.2997,-279.6793C798.2997,-262.821 798.2997,-237.5651 798.2997,-218.147"/>
<polygon fill="#000000" stroke="#000000" points="801.7998,-218.0501 798.2997,-208.0502 794.7998,-218.0502 801.7998,-218.0501"/>
<text text-anchor="middle" x="825.1205" y="-239.8" font-family="Times,serif" font-size="14.00" fill="#000000">broadcast</text>
</g>
<!-- Reducer 3 -->
<g id="node6" class="node">
<title>Reducer 3</title>
<ellipse fill="none" stroke="#000000" cx="534.2997" cy="-18" rx="46.4045" ry="18"/>
<text text-anchor="middle" x="534.2997" y="-13.8" font-family="Times,serif" font-size="14.00" fill="#000000">Reducer 3</text>
</g>
<!-- Reducer 2&#45;&gt;Reducer 3 -->
<g id="edge3" class="edge">
<title>Reducer 2&#45;&gt;Reducer 3</title>
<path fill="none" stroke="#000000" d="M534.2997,-85.7616C534.2997,-74.3597 534.2997,-59.4342 534.2997,-46.494"/>
<polygon fill="#000000" stroke="#000000" points="537.7998,-46.2121 534.2997,-36.2121 530.7998,-46.2121 537.7998,-46.2121"/>
<text text-anchor="middle" x="551.4066" y="-56.8" font-family="Times,serif" font-size="14.00" fill="#000000">sorted</text>
</g>
<!-- Map 4 -->
<g id="node7" class="node">
<title>Map 4</title>
<ellipse fill="none" stroke="#000000" cx="643.2997" cy="-470" rx="32.8992" ry="18"/>
<text text-anchor="middle" x="643.2997" y="-465.8" font-family="Times,serif" font-size="14.00" fill="#000000">Map 4</text>
</g>
<!-- Map 4&#45;&gt;Map 20 -->
<g id="edge21" class="edge">
<title>Map 4&#45;&gt;Map 20</title>
<path fill="none" stroke="#000000" d="M617.2743,-458.8022C609.9696,-456.1124 601.9345,-453.5669 594.2997,-452 520.0436,-436.7605 325.0678,-459.4335 253.6581,-434 237.4521,-428.228 221.7808,-417.2881 209.5406,-407.1097"/>
<polygon fill="#000000" stroke="#000000" points="211.4956,-404.172 201.6504,-400.2577 206.9058,-409.4572 211.4956,-404.172"/>
<text text-anchor="middle" x="281.1205" y="-422.8" font-family="Times,serif" font-size="14.00" fill="#000000">broadcast</text>
</g>
<!-- Map 4&#45;&gt;Map 18 -->
<g id="edge24" class="edge">
<title>Map 4&#45;&gt;Map 18</title>
<path fill="none" stroke="#000000" d="M639.2052,-451.9015C637.9441,-441.4481 638.4395,-428.6902 645.6581,-420 659.0617,-403.8639 711.6299,-394.1102 751.3603,-388.9016"/>
<polygon fill="#000000" stroke="#000000" points="751.9218,-392.3587 761.4096,-387.6435 751.0522,-385.413 751.9218,-392.3587"/>
<text text-anchor="middle" x="673.1205" y="-422.8" font-family="Times,serif" font-size="14.00" fill="#000000">broadcast</text>
</g>
<!-- Map 1 -->
<g id="node8" class="node">
<title>Map 1</title>
<ellipse fill="none" stroke="#000000" cx="350.2997" cy="-384" rx="32.8992" ry="18"/>
<text text-anchor="middle" x="350.2997" y="-379.8" font-family="Times,serif" font-size="14.00" fill="#000000">Map 1</text>
</g>
<!-- Map 4&#45;&gt;Map 1 -->
<g id="edge4" class="edge">
<title>Map 4&#45;&gt;Map 1</title>
<path fill="none" stroke="#000000" d="M616.9747,-458.9143C609.7384,-456.2588 601.8125,-453.7025 594.2997,-452 510.8662,-433.093 480.4901,-469.5077 402.6581,-434 390.0257,-428.237 378.546,-418.1373 369.5764,-408.5167"/>
<polygon fill="#000000" stroke="#000000" points="372.1851,-406.1832 362.947,-400.9959 366.934,-410.812 372.1851,-406.1832"/>
<text text-anchor="middle" x="430.1205" y="-422.8" font-family="Times,serif" font-size="14.00" fill="#000000">broadcast</text>
</g>
<!-- Map 14 -->
<g id="node11" class="node">
<title>Map 14</title>
<ellipse fill="none" stroke="#000000" cx="534.2997" cy="-384" rx="37.243" ry="18"/>
<text text-anchor="middle" x="534.2997" y="-379.8" font-family="Times,serif" font-size="14.00" fill="#000000">Map 14</text>
</g>
<!-- Map 4&#45;&gt;Map 14 -->
<g id="edge30" class="edge">
<title>Map 4&#45;&gt;Map 14</title>
<path fill="none" stroke="#000000" d="M615.0297,-460.4215C600.1336,-454.4253 582.1981,-445.616 568.6581,-434 561.0264,-427.4528 554.3085,-418.8352 548.8842,-410.6019"/>
<polygon fill="#000000" stroke="#000000" points="551.7607,-408.5988 543.5239,-401.9349 545.8073,-412.2808 551.7607,-408.5988"/>
<text text-anchor="middle" x="596.1205" y="-422.8" font-family="Times,serif" font-size="14.00" fill="#000000">broadcast</text>
</g>
<!-- Map 16 -->
<g id="node13" class="node">
<title>Map 16</title>
<ellipse fill="none" stroke="#000000" cx="929.2997" cy="-384" rx="37.243" ry="18"/>
<text text-anchor="middle" x="929.2997" y="-379.8" font-family="Times,serif" font-size="14.00" fill="#000000">Map 16</text>
</g>
<!-- Map 4&#45;&gt;Map 16 -->
<g id="edge27" class="edge">
<title>Map 4&#45;&gt;Map 16</title>
<path fill="none" stroke="#000000" d="M665.0205,-456.4261C675.4721,-449.7959 688.1293,-441.6213 699.2997,-434 708.0706,-428.0158 708.8143,-423.9799 718.6581,-420 770.9563,-398.8556 788.7552,-411.8488 844.2997,-402 857.7923,-399.6076 872.4125,-396.6465 885.6611,-393.8215"/>
<polygon fill="#000000" stroke="#000000" points="886.4481,-397.2323 895.4835,-391.6995 884.9699,-390.3902 886.4481,-397.2323"/>
<text text-anchor="middle" x="746.1205" y="-422.8" font-family="Times,serif" font-size="14.00" fill="#000000">broadcast</text>
</g>
<!-- Map 12 -->
<g id="node18" class="node">
<title>Map 12</title>
<ellipse fill="none" stroke="#000000" cx="1098.2997" cy="-384" rx="37.243" ry="18"/>
<text text-anchor="middle" x="1098.2997" y="-379.8" font-family="Times,serif" font-size="14.00" fill="#000000">Map 12</text>
</g>
<!-- Map 4&#45;&gt;Map 12 -->
<g id="edge34" class="edge">
<title>Map 4&#45;&gt;Map 12</title>
<path fill="none" stroke="#000000" d="M669.9505,-459.1559C677.4047,-456.4675 685.5803,-453.8343 693.2997,-452 757.7672,-436.6814 776.1347,-446.0099 841.2997,-434 866.6817,-429.3221 872.4184,-425.3931 897.6581,-420 950.6201,-408.6834 1011.9601,-398.0322 1052.7363,-391.2948"/>
<polygon fill="#000000" stroke="#000000" points="1053.3417,-394.7423 1062.6425,-389.6682 1052.2075,-387.8348 1053.3417,-394.7423"/>
<text text-anchor="middle" x="925.1205" y="-422.8" font-family="Times,serif" font-size="14.00" fill="#000000">broadcast</text>
</g>
<!-- Map 1&#45;&gt;Reducer 2 -->
<g id="edge10" class="edge">
<title>Map 1&#45;&gt;Reducer 2</title>
<path fill="none" stroke="#000000" d="M359.228,-366.4574C374.5575,-336.7836 407.3998,-275.1172 440.0858,-226 463.2947,-191.124 493.3484,-153.282 513.1974,-129.1424"/>
<polygon fill="#000000" stroke="#000000" points="516.0879,-131.1391 519.7647,-121.2027 510.694,-126.6775 516.0879,-131.1391"/>
<text text-anchor="middle" x="457.4066" y="-239.8" font-family="Times,serif" font-size="14.00" fill="#000000">sorted</text>
</g>
<!-- Map 5 -->
<g id="node9" class="node">
<title>Map 5</title>
<ellipse fill="none" stroke="#000000" cx="646.2997" cy="-556" rx="32.8992" ry="18"/>
<text text-anchor="middle" x="646.2997" y="-551.8" font-family="Times,serif" font-size="14.00" fill="#000000">Map 5</text>
</g>
<!-- Map 5&#45;&gt;Map 20 -->
<g id="edge22" class="edge">
<title>Map 5&#45;&gt;Map 20</title>
<path fill="none" stroke="#000000" d="M613.198,-555.0886C546.4385,-552.7688 391.1241,-544.9307 263.2997,-520 214.7307,-510.5272 186.1954,-527.7017 156.6581,-488 139.5626,-465.0215 153.1133,-432.383 166.7961,-409.826"/>
<polygon fill="#000000" stroke="#000000" points="169.9227,-411.4344 172.3794,-401.1283 164.0319,-407.6529 169.9227,-411.4344"/>
<text text-anchor="middle" x="184.1205" y="-465.8" font-family="Times,serif" font-size="14.00" fill="#000000">broadcast</text>
</g>
<!-- Map 5&#45;&gt;Map 18 -->
<g id="edge25" class="edge">
<title>Map 5&#45;&gt;Map 18</title>
<path fill="none" stroke="#000000" d="M678.0792,-551.1151C715.357,-543.7741 776.7024,-526.4202 813.2997,-488 835.8425,-464.3343 855.129,-449.6141 841.2997,-420 838.5962,-414.2108 834.4531,-409.024 829.7861,-404.5111"/>
<polygon fill="#000000" stroke="#000000" points="832.0277,-401.8228 822.1526,-397.9846 827.4788,-407.1433 832.0277,-401.8228"/>
<text text-anchor="middle" x="870.1205" y="-465.8" font-family="Times,serif" font-size="14.00" fill="#000000">broadcast</text>
</g>
<!-- Map 5&#45;&gt;Map 1 -->
<g id="edge5" class="edge">
<title>Map 5&#45;&gt;Map 1</title>
<path fill="none" stroke="#000000" d="M613.0949,-555.2645C525.0907,-552.603 288.9493,-540.6062 235.6581,-488 213.7976,-466.4206 204.7764,-444.5038 223.2997,-420 233.6634,-406.2902 275.4763,-396.2878 308.3304,-390.3546"/>
<polygon fill="#000000" stroke="#000000" points="308.9391,-393.8014 318.1941,-388.6443 307.7431,-386.9043 308.9391,-393.8014"/>
<text text-anchor="middle" x="263.1205" y="-465.8" font-family="Times,serif" font-size="14.00" fill="#000000">broadcast</text>
</g>
<!-- Reducer 6 -->
<g id="node10" class="node">
<title>Reducer 6</title>
<ellipse fill="none" stroke="#000000" cx="344.2997" cy="-470" rx="46.4045" ry="18"/>
<text text-anchor="middle" x="344.2997" y="-465.8" font-family="Times,serif" font-size="14.00" fill="#000000">Reducer 6</text>
</g>
<!-- Map 5&#45;&gt;Reducer 6 -->
<g id="edge20" class="edge">
<title>Map 5&#45;&gt;Reducer 6</title>
<path fill="none" stroke="#000000" d="M613.5043,-552.916C557.9522,-547.3682 447.8888,-534.8855 412.0858,-520 396.8359,-513.6597 381.8485,-503.1824 369.8601,-493.4522"/>
<polygon fill="#000000" stroke="#000000" points="371.9769,-490.6591 362.0731,-486.8954 367.4682,-496.0137 371.9769,-490.6591"/>
<text text-anchor="middle" x="436.4066" y="-508.8" font-family="Times,serif" font-size="14.00" fill="#000000">unsorted</text>
</g>
<!-- Map 5&#45;&gt;Map 14 -->
<g id="edge31" class="edge">
<title>Map 5&#45;&gt;Map 14</title>
<path fill="none" stroke="#000000" d="M619.7409,-545.2426C596.6417,-534.4023 564.3325,-515.3501 547.6581,-488 533.7327,-465.159 531.3929,-434.2713 531.9262,-412.1017"/>
<polygon fill="#000000" stroke="#000000" points="535.4279,-412.1392 532.3806,-401.9921 528.435,-411.8248 535.4279,-412.1392"/>
<text text-anchor="middle" x="575.1205" y="-465.8" font-family="Times,serif" font-size="14.00" fill="#000000">broadcast</text>
</g>
<!-- Map 5&#45;&gt;Map 16 -->
<g id="edge28" class="edge">
<title>Map 5&#45;&gt;Map 16</title>
<path fill="none" stroke="#000000" d="M679.0437,-553.3638C746.3638,-547.7369 898.1887,-533.9249 948.2997,-520 981.6486,-510.733 1000.5146,-517.0714 1019.2997,-488 1035.7038,-462.6133 1035.5859,-444.7945 1018.2997,-420 1008.3533,-405.7334 991.7293,-397.116 975.5236,-391.9127"/>
<polygon fill="#000000" stroke="#000000" points="976.1258,-388.4459 965.5508,-389.0942 974.222,-395.182 976.1258,-388.4459"/>
<text text-anchor="middle" x="1059.1205" y="-465.8" font-family="Times,serif" font-size="14.00" fill="#000000">broadcast</text>
</g>
<!-- Reducer 11 -->
<g id="node16" class="node">
<title>Reducer 11</title>
<ellipse fill="none" stroke="#000000" cx="50.2997" cy="-470" rx="50.1002" ry="18"/>
<text text-anchor="middle" x="50.2997" y="-465.8" font-family="Times,serif" font-size="14.00" fill="#000000">Reducer 11</text>
</g>
<!-- Map 5&#45;&gt;Reducer 11 -->
<g id="edge15" class="edge">
<title>Map 5&#45;&gt;Reducer 11</title>
<path fill="none" stroke="#000000" d="M613.2216,-555.8521C497.9858,-555.0749 118.7605,-550.2234 74.0858,-520 66.3342,-514.7558 61.0382,-506.2687 57.4514,-497.7638"/>
<polygon fill="#000000" stroke="#000000" points="60.7418,-496.5706 54.088,-488.3257 54.148,-498.9204 60.7418,-496.5706"/>
<text text-anchor="middle" x="98.4066" y="-508.8" font-family="Times,serif" font-size="14.00" fill="#000000">unsorted</text>
</g>
<!-- Reducer 10 -->
<g id="node17" class="node">
<title>Reducer 10</title>
<ellipse fill="none" stroke="#000000" cx="753.2997" cy="-470" rx="50.7474" ry="18"/>
<text text-anchor="middle" x="753.2997" y="-465.8" font-family="Times,serif" font-size="14.00" fill="#000000">Reducer 10</text>
</g>
<!-- Map 5&#45;&gt;Reducer 10 -->
<g id="edge16" class="edge">
<title>Map 5&#45;&gt;Reducer 10</title>
<path fill="none" stroke="#000000" d="M664.9377,-541.0199C681.4193,-527.773 705.7195,-508.242 724.6673,-493.0129"/>
<polygon fill="#000000" stroke="#000000" points="727.083,-495.5617 732.6848,-486.5689 722.6977,-490.1056 727.083,-495.5617"/>
<text text-anchor="middle" x="730.4066" y="-508.8" font-family="Times,serif" font-size="14.00" fill="#000000">unsorted</text>
</g>
<!-- Map 5&#45;&gt;Map 12 -->
<g id="edge35" class="edge">
<title>Map 5&#45;&gt;Map 12</title>
<path fill="none" stroke="#000000" d="M679.273,-554.7558C740.805,-551.9461 877.055,-543.42 989.2997,-520 1035.395,-510.3822 1061.045,-524.8978 1090.2997,-488 1107.1022,-466.8076 1107.0227,-434.9464 1104.0401,-412.0771"/>
<polygon fill="#000000" stroke="#000000" points="1107.4621,-411.3061 1102.4601,-401.9664 1100.5461,-412.3869 1107.4621,-411.3061"/>
<text text-anchor="middle" x="1132.1205" y="-465.8" font-family="Times,serif" font-size="14.00" fill="#000000">broadcast</text>
</g>
<!-- Reducer 8 -->
<g id="node19" class="node">
<title>Reducer 8</title>
<ellipse fill="none" stroke="#000000" cx="454.2997" cy="-470" rx="46.4045" ry="18"/>
<text text-anchor="middle" x="454.2997" y="-465.8" font-family="Times,serif" font-size="14.00" fill="#000000">Reducer 8</text>
</g>
<!-- Map 5&#45;&gt;Reducer 8 -->
<g id="edge18" class="edge">
<title>Map 5&#45;&gt;Reducer 8</title>
<path fill="none" stroke="#000000" d="M613.5,-552.8473C569.5923,-548.0174 494.8188,-537.4642 474.0858,-520 467.3853,-514.3559 462.9385,-506.1309 459.9935,-497.9756"/>
<polygon fill="#000000" stroke="#000000" points="463.3032,-496.8263 457.0954,-488.2407 456.5942,-498.8236 463.3032,-496.8263"/>
<text text-anchor="middle" x="498.4066" y="-508.8" font-family="Times,serif" font-size="14.00" fill="#000000">unsorted</text>
</g>
<!-- Reducer 7 -->
<g id="node20" class="node">
<title>Reducer 7</title>
<ellipse fill="none" stroke="#000000" cx="1254.2997" cy="-470" rx="46.4045" ry="18"/>
<text text-anchor="middle" x="1254.2997" y="-465.8" font-family="Times,serif" font-size="14.00" fill="#000000">Reducer 7</text>
</g>
<!-- Map 5&#45;&gt;Reducer 7 -->
<g id="edge19" class="edge">
<title>Map 5&#45;&gt;Reducer 7</title>
<path fill="none" stroke="#000000" d="M679.2529,-555.2572C776.469,-552.812 1060.856,-543.7677 1150.2997,-520 1174.8704,-513.4709 1200.6371,-501.1283 1220.3763,-490.3404"/>
<polygon fill="#000000" stroke="#000000" points="1222.2557,-493.2994 1229.2724,-485.3611 1218.8368,-487.1911 1222.2557,-493.2994"/>
<text text-anchor="middle" x="1210.4066" y="-508.8" font-family="Times,serif" font-size="14.00" fill="#000000">unsorted</text>
</g>
<!-- Reducer 9 -->
<g id="node21" class="node">
<title>Reducer 9</title>
<ellipse fill="none" stroke="#000000" cx="964.2997" cy="-470" rx="46.4045" ry="18"/>
<text text-anchor="middle" x="964.2997" y="-465.8" font-family="Times,serif" font-size="14.00" fill="#000000">Reducer 9</text>
</g>
<!-- Map 5&#45;&gt;Reducer 9 -->
<g id="edge33" class="edge">
<title>Map 5&#45;&gt;Reducer 9</title>
<path fill="none" stroke="#000000" d="M679.239,-553.3558C721.849,-549.2837 797.9981,-539.7788 860.2997,-520 884.2016,-512.4119 909.5943,-500.29 929.3052,-489.8823"/>
<polygon fill="#000000" stroke="#000000" points="931.0646,-492.9102 938.2141,-485.0913 927.7491,-486.7451 931.0646,-492.9102"/>
<text text-anchor="middle" x="920.4066" y="-508.8" font-family="Times,serif" font-size="14.00" fill="#000000">unsorted</text>
</g>
<!-- Reducer 6&#45;&gt;Map 1 -->
<g id="edge6" class="edge">
<title>Reducer 6&#45;&gt;Map 1</title>
<path fill="none" stroke="#000000" d="M324.1733,-453.6221C315.1575,-444.2008 307.5718,-431.9024 312.6581,-420 314.9233,-414.6991 318.3946,-409.8058 322.3309,-405.4459"/>
<polygon fill="#000000" stroke="#000000" points="325.0435,-407.6892 329.7581,-398.2012 320.1557,-402.6783 325.0435,-407.6892"/>
<text text-anchor="middle" x="340.1205" y="-422.8" font-family="Times,serif" font-size="14.00" fill="#000000">broadcast</text>
</g>
<!-- Reducer 15 -->
<g id="node12" class="node">
<title>Reducer 15</title>
<ellipse fill="none" stroke="#000000" cx="534.2997" cy="-244" rx="50.7474" ry="18"/>
<text text-anchor="middle" x="534.2997" y="-239.8" font-family="Times,serif" font-size="14.00" fill="#000000">Reducer 15</text>
</g>
<!-- Map 14&#45;&gt;Reducer 15 -->
<g id="edge7" class="edge">
<title>Map 14&#45;&gt;Reducer 15</title>
<path fill="none" stroke="#000000" d="M534.2997,-365.9841C534.2997,-342.3829 534.2997,-300.7198 534.2997,-272.7374"/>
<polygon fill="#000000" stroke="#000000" points="537.7998,-272.3913 534.2997,-262.3914 530.7998,-272.3914 537.7998,-272.3913"/>
<text text-anchor="middle" x="551.4066" y="-336.8" font-family="Times,serif" font-size="14.00" fill="#000000">sorted</text>
</g>
<!-- Reducer 15&#45;&gt;Reducer 2 -->
<g id="edge12" class="edge">
<title>Reducer 15&#45;&gt;Reducer 2</title>
<path fill="none" stroke="#000000" d="M534.2997,-225.9841C534.2997,-202.3829 534.2997,-160.7198 534.2997,-132.7374"/>
<polygon fill="#000000" stroke="#000000" points="537.7998,-132.3913 534.2997,-122.3914 530.7998,-132.3914 537.7998,-132.3913"/>
<text text-anchor="middle" x="561.1205" y="-185.8" font-family="Times,serif" font-size="14.00" fill="#000000">broadcast</text>
</g>
<!-- Map 16&#45;&gt;Reducer 17 -->
<g id="edge8" class="edge">
<title>Map 16&#45;&gt;Reducer 17</title>
<path fill="none" stroke="#000000" d="M924.6902,-365.9888C915.8912,-334.5133 894.1308,-268.7824 856.2997,-226 850.9452,-219.9448 844.3271,-214.5608 837.4986,-209.9201"/>
<polygon fill="#000000" stroke="#000000" points="839.1416,-206.8184 828.816,-204.445 835.4078,-212.7395 839.1416,-206.8184"/>
<text text-anchor="middle" x="925.4066" y="-293.8" font-family="Times,serif" font-size="14.00" fill="#000000">sorted</text>
</g>
<!-- Reducer 17&#45;&gt;Reducer 2 -->
<g id="edge13" class="edge">
<title>Reducer 17&#45;&gt;Reducer 2</title>
<path fill="none" stroke="#000000" d="M760.7553,-177.7696C713.1109,-162.2491 630.9896,-135.4975 579.8244,-118.83"/>
<polygon fill="#000000" stroke="#000000" points="580.6158,-115.4069 570.0235,-115.6373 578.4476,-122.0626 580.6158,-115.4069"/>
<text text-anchor="middle" x="709.1205" y="-142.8" font-family="Times,serif" font-size="14.00" fill="#000000">broadcast</text>
</g>
<!-- Reducer 13 -->
<g id="node15" class="node">
<title>Reducer 13</title>
<ellipse fill="none" stroke="#000000" cx="963.2997" cy="-190" rx="50.7474" ry="18"/>
<text text-anchor="middle" x="963.2997" y="-185.8" font-family="Times,serif" font-size="14.00" fill="#000000">Reducer 13</text>
</g>
<!-- Reducer 13&#45;&gt;Reducer 2 -->
<g id="edge11" class="edge">
<title>Reducer 13&#45;&gt;Reducer 2</title>
<path fill="none" stroke="#000000" d="M921.091,-179.9075C876.34,-169.3547 803.5296,-152.6061 740.2997,-140 688.3286,-129.6386 628.6523,-119.3892 586.9531,-112.4926"/>
<polygon fill="#000000" stroke="#000000" points="587.4554,-109.0283 577.0195,-110.8569 586.3179,-115.9353 587.4554,-109.0283"/>
<text text-anchor="middle" x="829.1205" y="-142.8" font-family="Times,serif" font-size="14.00" fill="#000000">broadcast</text>
</g>
<!-- Reducer 11&#45;&gt;Map 20 -->
<g id="edge23" class="edge">
<title>Reducer 11&#45;&gt;Map 20</title>
<path fill="none" stroke="#000000" d="M52.9261,-451.5991C55.3395,-441.0386 59.9374,-428.2742 68.6581,-420 79.3162,-409.8874 112.6452,-400.1687 140.9609,-393.3836"/>
<polygon fill="#000000" stroke="#000000" points="141.7767,-396.7874 150.7221,-391.1102 140.1888,-389.9699 141.7767,-396.7874"/>
<text text-anchor="middle" x="96.1205" y="-422.8" font-family="Times,serif" font-size="14.00" fill="#000000">broadcast</text>
</g>
<!-- Reducer 10&#45;&gt;Map 18 -->
<g id="edge26" class="edge">
<title>Reducer 10&#45;&gt;Map 18</title>
<path fill="none" stroke="#000000" d="M765.321,-452.3808C769.0343,-446.6327 773.0093,-440.1464 776.2997,-434 780.1588,-426.7913 783.9139,-418.7668 787.1973,-411.2937"/>
<polygon fill="#000000" stroke="#000000" points="790.4995,-412.4731 791.2111,-401.9022 784.0627,-409.7221 790.4995,-412.4731"/>
<text text-anchor="middle" x="810.1205" y="-422.8" font-family="Times,serif" font-size="14.00" fill="#000000">broadcast</text>
</g>
<!-- Map 12&#45;&gt;Reducer 13 -->
<g id="edge17" class="edge">
<title>Map 12&#45;&gt;Reducer 13</title>
<path fill="none" stroke="#000000" d="M1086.3193,-366.7838C1062.5723,-332.6584 1009.41,-256.2622 981.3842,-215.9882"/>
<polygon fill="#000000" stroke="#000000" points="984.2274,-213.9463 975.6426,-207.7372 978.4817,-217.9446 984.2274,-213.9463"/>
<text text-anchor="middle" x="1068.4066" y="-293.8" font-family="Times,serif" font-size="14.00" fill="#000000">sorted</text>
</g>
<!-- Reducer 8&#45;&gt;Map 14 -->
<g id="edge32" class="edge">
<title>Reducer 8&#45;&gt;Map 14</title>
<path fill="none" stroke="#000000" d="M455.2022,-451.7708C456.5329,-441.5277 459.6225,-429.0277 466.6581,-420 473.7328,-410.9221 483.7511,-403.8683 493.9154,-398.5075"/>
<polygon fill="#000000" stroke="#000000" points="495.7069,-401.5301 503.2108,-394.0506 492.6805,-395.2181 495.7069,-401.5301"/>
<text text-anchor="middle" x="494.1205" y="-422.8" font-family="Times,serif" font-size="14.00" fill="#000000">broadcast</text>
</g>
<!-- Reducer 7&#45;&gt;Map 12 -->
<g id="edge36" class="edge">
<title>Reducer 7&#45;&gt;Map 12</title>
<path fill="none" stroke="#000000" d="M1227.4823,-455.2161C1200.9916,-440.6122 1160.3991,-418.2343 1131.8001,-402.4682"/>
<polygon fill="#000000" stroke="#000000" points="1133.4164,-399.3626 1122.9692,-397.5999 1130.0369,-405.4928 1133.4164,-399.3626"/>
<text text-anchor="middle" x="1213.1205" y="-422.8" font-family="Times,serif" font-size="14.00" fill="#000000">broadcast</text>
</g>
<!-- Reducer 9&#45;&gt;Map 16 -->
<g id="edge29" class="edge">
<title>Reducer 9&#45;&gt;Map 16</title>
<path fill="none" stroke="#000000" d="M963.0002,-451.8571C961.8219,-442.1114 959.5767,-430.0659 955.2997,-420 953.7168,-416.2748 951.6897,-412.5635 949.4671,-409.017"/>
<polygon fill="#000000" stroke="#000000" points="952.2397,-406.8722 943.6813,-400.6268 946.477,-410.8461 952.2397,-406.8722"/>
<text text-anchor="middle" x="987.1205" y="-422.8" font-family="Times,serif" font-size="14.00" fill="#000000">broadcast</text>
</g>
</g>
</svg>
