<?xml version="1.0" encoding="UTF-8" standalone="no"?>
<!DOCTYPE svg PUBLIC "-//W3C//DTD SVG 1.1//EN"
 "http://www.w3.org/Graphics/SVG/1.1/DTD/svg11.dtd">
<!-- Generated by graphviz version 2.40.1 (20161225.0304)
 -->
<!-- Title: %3 Pages: 1 -->
<svg width="757pt" height="496pt"
 viewBox="0.00 0.00 757.17 496.00" xmlns="http://www.w3.org/2000/svg" xmlns:xlink="http://www.w3.org/1999/xlink">
<g id="graph0" class="graph" transform="scale(1 1) rotate(0) translate(4 492)">
<title>%3</title>
<polygon fill="#ffffff" stroke="transparent" points="-4,4 -4,-492 753.1655,-492 753.1655,4 -4,4"/>
<!-- Map 11 -->
<g id="node1" class="node">
<title>Map 11</title>
<ellipse fill="none" stroke="#000000" cx="154.5239" cy="-384" rx="37.0949" ry="18"/>
<text text-anchor="middle" x="154.5239" y="-379.8" font-family="Times,serif" font-size="14.00" fill="#000000">Map 11</text>
</g>
<!-- Map 5 -->
<g id="node2" class="node">
<title>Map 5</title>
<ellipse fill="none" stroke="#000000" cx="324.5239" cy="-190" rx="32.8992" ry="18"/>
<text text-anchor="middle" x="324.5239" y="-185.8" font-family="Times,serif" font-size="14.00" fill="#000000">Map 5</text>
</g>
<!-- Map 11&#45;&gt;Map 5 -->
<g id="edge1" class="edge">
<title>Map 11&#45;&gt;Map 5</title>
<path fill="none" stroke="#000000" d="M142.3386,-366.8491C125.5675,-340.9353 100.0085,-291.2988 123.8823,-258 142.7178,-231.7285 230.2856,-209.4746 283.3157,-198.1076"/>
<polygon fill="#000000" stroke="#000000" points="284.3644,-201.4637 293.4306,-195.9813 282.9244,-194.6134 284.3644,-201.4637"/>
<text text-anchor="middle" x="151.3447" y="-271.8" font-family="Times,serif" font-size="14.00" fill="#000000">broadcast</text>
</g>
<!-- Reducer 12 -->
<g id="node7" class="node">
<title>Reducer 12</title>
<ellipse fill="none" stroke="#000000" cx="237.5239" cy="-276" rx="50.7474" ry="18"/>
<text text-anchor="middle" x="237.5239" y="-271.8" font-family="Times,serif" font-size="14.00" fill="#000000">Reducer 12</text>
</g>
<!-- Map 11&#45;&gt;Reducer 12 -->
<g id="edge11" class="edge">
<title>Map 11&#45;&gt;Reducer 12</title>
<path fill="none" stroke="#000000" d="M167.4927,-367.125C180.9769,-349.5793 202.25,-321.8985 217.8146,-301.6458"/>
<polygon fill="#000000" stroke="#000000" points="220.7778,-303.5338 224.0963,-293.4721 215.2275,-299.2683 220.7778,-303.5338"/>
<text text-anchor="middle" x="232.6308" y="-325.8" font-family="Times,serif" font-size="14.00" fill="#000000">unsorted</text>
</g>
<!-- Reducer 6 -->
<g id="node11" class="node">
<title>Reducer 6</title>
<ellipse fill="none" stroke="#000000" cx="524.5239" cy="-104" rx="46.4045" ry="18"/>
<text text-anchor="middle" x="524.5239" y="-99.8" font-family="Times,serif" font-size="14.00" fill="#000000">Reducer 6</text>
</g>
<!-- Map 5&#45;&gt;Reducer 6 -->
<g id="edge15" class="edge">
<title>Map 5&#45;&gt;Reducer 6</title>
<path fill="none" stroke="#000000" d="M350.6704,-178.757C384.6133,-164.1615 444.2052,-138.537 484.0218,-121.4159"/>
<polygon fill="#000000" stroke="#000000" points="485.6379,-124.5309 493.442,-117.3652 482.8727,-118.1002 485.6379,-124.5309"/>
<text text-anchor="middle" x="452.6308" y="-142.8" font-family="Times,serif" font-size="14.00" fill="#000000">sorted</text>
</g>
<!-- Map 3 -->
<g id="node3" class="node">
<title>Map 3</title>
<ellipse fill="none" stroke="#000000" cx="533.5239" cy="-470" rx="32.8992" ry="18"/>
<text text-anchor="middle" x="533.5239" y="-465.8" font-family="Times,serif" font-size="14.00" fill="#000000">Map 3</text>
</g>
<!-- Map 3&#45;&gt;Map 5 -->
<g id="edge2" class="edge">
<title>Map 3&#45;&gt;Map 5</title>
<path fill="none" stroke="#000000" d="M500.624,-467.4423C413.2088,-460.2238 177.1534,-437.8567 108.5239,-402 49.4622,-371.1422 29.4429,-355.8024 4.5239,-294 -8.1117,-262.662 7.9551,-240.3972 38.5239,-226 80.6188,-206.1743 212.4626,-196.1559 281.4604,-192.1578"/>
<polygon fill="#000000" stroke="#000000" points="281.7813,-195.6454 291.5689,-191.5892 281.3881,-188.6565 281.7813,-195.6454"/>
<text text-anchor="middle" x="60.3447" y="-325.8" font-family="Times,serif" font-size="14.00" fill="#000000">broadcast</text>
</g>
<!-- Reducer 4 -->
<g id="node9" class="node">
<title>Reducer 4</title>
<ellipse fill="none" stroke="#000000" cx="533.5239" cy="-330" rx="46.4045" ry="18"/>
<text text-anchor="middle" x="533.5239" y="-325.8" font-family="Times,serif" font-size="14.00" fill="#000000">Reducer 4</text>
</g>
<!-- Map 3&#45;&gt;Reducer 4 -->
<g id="edge12" class="edge">
<title>Map 3&#45;&gt;Reducer 4</title>
<path fill="none" stroke="#000000" d="M533.3941,-451.686C533.3595,-446.0167 533.3271,-439.7501 533.31,-434 533.2338,-408.3231 533.3082,-379.0801 533.3895,-358.1568"/>
<polygon fill="#000000" stroke="#000000" points="536.8899,-358.0512 533.4319,-348.0366 529.8899,-358.0218 536.8899,-358.0512"/>
<text text-anchor="middle" x="556.6308" y="-422.8" font-family="Times,serif" font-size="14.00" fill="#000000">unsorted</text>
</g>
<!-- Map 1 -->
<g id="node10" class="node">
<title>Map 1</title>
<ellipse fill="none" stroke="#000000" cx="651.5239" cy="-384" rx="32.8992" ry="18"/>
<text text-anchor="middle" x="651.5239" y="-379.8" font-family="Times,serif" font-size="14.00" fill="#000000">Map 1</text>
</g>
<!-- Map 3&#45;&gt;Map 1 -->
<g id="edge9" class="edge">
<title>Map 3&#45;&gt;Map 1</title>
<path fill="none" stroke="#000000" d="M554.4158,-455.837C563.9665,-449.2856 575.387,-441.3435 585.5239,-434 598.3577,-424.7028 612.3775,-414.1407 624.1819,-405.1272"/>
<polygon fill="#000000" stroke="#000000" points="626.5285,-407.7386 632.3372,-398.878 622.2708,-402.1823 626.5285,-407.7386"/>
<text text-anchor="middle" x="630.3447" y="-422.8" font-family="Times,serif" font-size="14.00" fill="#000000">broadcast</text>
</g>
<!-- Map 8 -->
<g id="node4" class="node">
<title>Map 8</title>
<ellipse fill="none" stroke="#000000" cx="46.5239" cy="-276" rx="32.8992" ry="18"/>
<text text-anchor="middle" x="46.5239" y="-271.8" font-family="Times,serif" font-size="14.00" fill="#000000">Map 8</text>
</g>
<!-- Map 8&#45;&gt;Map 5 -->
<g id="edge3" class="edge">
<title>Map 8&#45;&gt;Map 5</title>
<path fill="none" stroke="#000000" d="M41.7653,-258.1605C40.0807,-247.5364 40.2018,-234.5088 47.8823,-226 63.2513,-208.9734 207.3537,-197.4331 281.2549,-192.5827"/>
<polygon fill="#000000" stroke="#000000" points="281.8706,-196.0504 291.6254,-191.9158 281.4213,-189.0649 281.8706,-196.0504"/>
<text text-anchor="middle" x="75.3447" y="-228.8" font-family="Times,serif" font-size="14.00" fill="#000000">broadcast</text>
</g>
<!-- Map 9 -->
<g id="node5" class="node">
<title>Map 9</title>
<ellipse fill="none" stroke="#000000" cx="360.5239" cy="-384" rx="32.8992" ry="18"/>
<text text-anchor="middle" x="360.5239" y="-379.8" font-family="Times,serif" font-size="14.00" fill="#000000">Map 9</text>
</g>
<!-- Map 9&#45;&gt;Map 5 -->
<g id="edge4" class="edge">
<title>Map 9&#45;&gt;Map 5</title>
<path fill="none" stroke="#000000" d="M353.8518,-366.3599C347.3666,-348.421 337.7981,-319.6864 332.8823,-294 328.0404,-268.6994 325.9986,-239.4147 325.1401,-218.3799"/>
<polygon fill="#000000" stroke="#000000" points="328.6317,-218.0708 324.7905,-208.1968 321.6358,-218.3111 328.6317,-218.0708"/>
<text text-anchor="middle" x="359.3447" y="-271.8" font-family="Times,serif" font-size="14.00" fill="#000000">broadcast</text>
</g>
<!-- Reducer 10 -->
<g id="node6" class="node">
<title>Reducer 10</title>
<ellipse fill="none" stroke="#000000" cx="446.5239" cy="-276" rx="50.7474" ry="18"/>
<text text-anchor="middle" x="446.5239" y="-271.8" font-family="Times,serif" font-size="14.00" fill="#000000">Reducer 10</text>
</g>
<!-- Map 9&#45;&gt;Reducer 10 -->
<g id="edge10" class="edge">
<title>Map 9&#45;&gt;Reducer 10</title>
<path fill="none" stroke="#000000" d="M373.9614,-367.125C387.9954,-349.501 410.1721,-321.6512 426.3179,-301.375"/>
<polygon fill="#000000" stroke="#000000" points="429.1196,-303.4752 432.6109,-293.4721 423.6436,-299.1147 429.1196,-303.4752"/>
<text text-anchor="middle" x="439.6308" y="-325.8" font-family="Times,serif" font-size="14.00" fill="#000000">unsorted</text>
</g>
<!-- Reducer 10&#45;&gt;Map 5 -->
<g id="edge5" class="edge">
<title>Reducer 10&#45;&gt;Map 5</title>
<path fill="none" stroke="#000000" d="M423.5766,-259.8241C403.6782,-245.7973 374.7853,-225.4301 353.3348,-210.3093"/>
<polygon fill="#000000" stroke="#000000" points="355.1253,-207.2893 344.9354,-204.3884 351.0922,-213.0107 355.1253,-207.2893"/>
<text text-anchor="middle" x="419.3447" y="-228.8" font-family="Times,serif" font-size="14.00" fill="#000000">broadcast</text>
</g>
<!-- Reducer 12&#45;&gt;Map 5 -->
<g id="edge6" class="edge">
<title>Reducer 12&#45;&gt;Map 5</title>
<path fill="none" stroke="#000000" d="M241.2736,-257.6854C244.1366,-247.4139 248.9762,-234.9139 256.8823,-226 265.1578,-216.6696 276.4435,-209.3451 287.425,-203.8085"/>
<polygon fill="#000000" stroke="#000000" points="288.9217,-206.9724 296.5051,-199.5735 285.9629,-200.6285 288.9217,-206.9724"/>
<text text-anchor="middle" x="283.3447" y="-228.8" font-family="Times,serif" font-size="14.00" fill="#000000">broadcast</text>
</g>
<!-- Reducer 2 -->
<g id="node8" class="node">
<title>Reducer 2</title>
<ellipse fill="none" stroke="#000000" cx="651.5239" cy="-276" rx="46.4045" ry="18"/>
<text text-anchor="middle" x="651.5239" y="-271.8" font-family="Times,serif" font-size="14.00" fill="#000000">Reducer 2</text>
</g>
<!-- Reducer 2&#45;&gt;Map 5 -->
<g id="edge7" class="edge">
<title>Reducer 2&#45;&gt;Map 5</title>
<path fill="none" stroke="#000000" d="M625.4546,-260.8571C604.9239,-249.5838 575.2401,-234.6983 547.5239,-226 486.6023,-206.8807 412.9695,-197.5193 367.4372,-193.2374"/>
<polygon fill="#000000" stroke="#000000" points="367.6015,-189.7381 357.3279,-192.327 366.9736,-196.7099 367.6015,-189.7381"/>
<text text-anchor="middle" x="609.3447" y="-228.8" font-family="Times,serif" font-size="14.00" fill="#000000">broadcast</text>
</g>
<!-- Reducer 4&#45;&gt;Map 5 -->
<g id="edge8" class="edge">
<title>Reducer 4&#45;&gt;Map 5</title>
<path fill="none" stroke="#000000" d="M530.3584,-311.9662C526.8219,-296.2336 519.7636,-273.5535 506.5239,-258 471.5535,-216.918 409.236,-200.6266 367.3946,-194.1848"/>
<polygon fill="#000000" stroke="#000000" points="367.6181,-190.6818 357.2272,-192.7502 366.6401,-197.6131 367.6181,-190.6818"/>
<text text-anchor="middle" x="551.3447" y="-271.8" font-family="Times,serif" font-size="14.00" fill="#000000">broadcast</text>
</g>
<!-- Map 1&#45;&gt;Reducer 2 -->
<g id="edge16" class="edge">
<title>Map 1&#45;&gt;Reducer 2</title>
<path fill="none" stroke="#000000" d="M651.5239,-365.6793C651.5239,-348.821 651.5239,-323.5651 651.5239,-304.147"/>
<polygon fill="#000000" stroke="#000000" points="655.024,-304.0501 651.5239,-294.0502 648.024,-304.0502 655.024,-304.0501"/>
<text text-anchor="middle" x="675.6308" y="-325.8" font-family="Times,serif" font-size="14.00" fill="#000000">unsorted</text>
</g>
<!-- Map 1&#45;&gt;Reducer 6 -->
<g id="edge14" class="edge">
<title>Map 1&#45;&gt;Reducer 6</title>
<path fill="none" stroke="#000000" d="M677.2149,-372.5117C687.1931,-366.6677 697.6237,-358.5389 703.5239,-348 723.0749,-313.0782 723.3632,-294.3073 706.5239,-258 677.0145,-194.3745 606.8327,-147.507 562.7495,-123.0885"/>
<polygon fill="#000000" stroke="#000000" points="564.2227,-119.906 553.7627,-118.2206 560.8886,-126.0611 564.2227,-119.906"/>
<text text-anchor="middle" x="722.3447" y="-228.8" font-family="Times,serif" font-size="14.00" fill="#000000">broadcast</text>
</g>
<!-- Reducer 7 -->
<g id="node12" class="node">
<title>Reducer 7</title>
<ellipse fill="none" stroke="#000000" cx="524.5239" cy="-18" rx="46.4045" ry="18"/>
<text text-anchor="middle" x="524.5239" y="-13.8" font-family="Times,serif" font-size="14.00" fill="#000000">Reducer 7</text>
</g>
<!-- Reducer 6&#45;&gt;Reducer 7 -->
<g id="edge13" class="edge">
<title>Reducer 6&#45;&gt;Reducer 7</title>
<path fill="none" stroke="#000000" d="M524.5239,-85.7616C524.5239,-74.3597 524.5239,-59.4342 524.5239,-46.494"/>
<polygon fill="#000000" stroke="#000000" points="528.024,-46.2121 524.5239,-36.2121 521.024,-46.2121 528.024,-46.2121"/>
<text text-anchor="middle" x="541.6308" y="-56.8" font-family="Times,serif" font-size="14.00" fill="#000000">sorted</text>
</g>
</g>
</svg>
