<?xml version="1.0" encoding="UTF-8" standalone="no"?>
<!DOCTYPE svg PUBLIC "-//W3C//DTD SVG 1.1//EN"
 "http://www.w3.org/Graphics/SVG/1.1/DTD/svg11.dtd">
<!-- Generated by graphviz version 2.40.1 (20161225.0304)
 -->
<!-- Title: %3 Pages: 1 -->
<svg width="603pt" height="560pt"
 viewBox="0.00 0.00 602.64 560.00" xmlns="http://www.w3.org/2000/svg" xmlns:xlink="http://www.w3.org/1999/xlink">
<g id="graph0" class="graph" transform="scale(1 1) rotate(0) translate(4 556)">
<title>%3</title>
<polygon fill="#ffffff" stroke="transparent" points="-4,4 -4,-556 598.6416,-556 598.6416,4 -4,4"/>
<!-- Map 7 -->
<g id="node1" class="node">
<title>Map 7</title>
<ellipse fill="none" stroke="#000000" cx="371" cy="-362" rx="32.8992" ry="18"/>
<text text-anchor="middle" x="371" y="-357.8" font-family="Times,serif" font-size="14.00" fill="#000000">Map 7</text>
</g>
<!-- Map 4 -->
<g id="node2" class="node">
<title>Map 4</title>
<ellipse fill="none" stroke="#000000" cx="223" cy="-276" rx="32.8992" ry="18"/>
<text text-anchor="middle" x="223" y="-271.8" font-family="Times,serif" font-size="14.00" fill="#000000">Map 4</text>
</g>
<!-- Map 7&#45;&gt;Map 4 -->
<g id="edge1" class="edge">
<title>Map 7&#45;&gt;Map 4</title>
<path fill="none" stroke="#000000" d="M348.1993,-348.751C323.0303,-334.1257 282.3618,-310.494 254.2383,-294.152"/>
<polygon fill="#000000" stroke="#000000" points="255.9884,-291.121 245.5837,-289.123 252.4715,-297.1734 255.9884,-291.121"/>
<text text-anchor="middle" x="332.8208" y="-314.8" font-family="Times,serif" font-size="14.00" fill="#000000">broadcast</text>
</g>
<!-- Map 11 -->
<g id="node9" class="node">
<title>Map 11</title>
<ellipse fill="none" stroke="#000000" cx="431" cy="-276" rx="37.0949" ry="18"/>
<text text-anchor="middle" x="431" y="-271.8" font-family="Times,serif" font-size="14.00" fill="#000000">Map 11</text>
</g>
<!-- Map 7&#45;&gt;Map 11 -->
<g id="edge14" class="edge">
<title>Map 7&#45;&gt;Map 11</title>
<path fill="none" stroke="#000000" d="M376.1834,-343.9019C379.5548,-333.9426 384.5923,-321.679 391.3584,-312 394.7706,-307.1188 398.9575,-302.4261 403.3177,-298.1334"/>
<polygon fill="#000000" stroke="#000000" points="405.7274,-300.6723 410.7129,-291.3238 400.9857,-295.5229 405.7274,-300.6723"/>
<text text-anchor="middle" x="418.8208" y="-314.8" font-family="Times,serif" font-size="14.00" fill="#000000">broadcast</text>
</g>
<!-- Reducer 5 -->
<g id="node11" class="node">
<title>Reducer 5</title>
<ellipse fill="none" stroke="#000000" cx="223" cy="-104" rx="46.4045" ry="18"/>
<text text-anchor="middle" x="223" y="-99.8" font-family="Times,serif" font-size="14.00" fill="#000000">Reducer 5</text>
</g>
<!-- Map 4&#45;&gt;Reducer 5 -->
<g id="edge9" class="edge">
<title>Map 4&#45;&gt;Reducer 5</title>
<path fill="none" stroke="#000000" d="M223,-257.9181C223,-227.981 223,-167.8972 223,-132.2989"/>
<polygon fill="#000000" stroke="#000000" points="226.5001,-132.0977 223,-122.0977 219.5001,-132.0978 226.5001,-132.0977"/>
<text text-anchor="middle" x="240.1069" y="-185.8" font-family="Times,serif" font-size="14.00" fill="#000000">sorted</text>
</g>
<!-- Map 8 -->
<g id="node3" class="node">
<title>Map 8</title>
<ellipse fill="none" stroke="#000000" cx="326" cy="-448" rx="32.8992" ry="18"/>
<text text-anchor="middle" x="326" y="-443.8" font-family="Times,serif" font-size="14.00" fill="#000000">Map 8</text>
</g>
<!-- Map 8&#45;&gt;Map 4 -->
<g id="edge2" class="edge">
<title>Map 8&#45;&gt;Map 4</title>
<path fill="none" stroke="#000000" d="M311.5399,-431.6526C300.4483,-418.4519 285.387,-399.0073 275.3584,-380 260.4464,-351.7371 267.4463,-339.9744 252,-312 249.8021,-308.0195 247.1567,-304.0375 244.3694,-300.2498"/>
<polygon fill="#000000" stroke="#000000" points="247.0892,-298.0463 238.1598,-292.344 241.5843,-302.3702 247.0892,-298.0463"/>
<text text-anchor="middle" x="302.8208" y="-357.8" font-family="Times,serif" font-size="14.00" fill="#000000">broadcast</text>
</g>
<!-- Reducer 9 -->
<g id="node5" class="node">
<title>Reducer 9</title>
<ellipse fill="none" stroke="#000000" cx="184" cy="-362" rx="46.4045" ry="18"/>
<text text-anchor="middle" x="184" y="-357.8" font-family="Times,serif" font-size="14.00" fill="#000000">Reducer 9</text>
</g>
<!-- Map 8&#45;&gt;Reducer 9 -->
<g id="edge13" class="edge">
<title>Map 8&#45;&gt;Reducer 9</title>
<path fill="none" stroke="#000000" d="M294.6014,-442.0126C263.0033,-435.4286 217.0958,-424.1584 203.7861,-412 197.3179,-406.0913 192.933,-397.7956 189.9733,-389.657"/>
<polygon fill="#000000" stroke="#000000" points="193.2873,-388.525 187.0256,-379.9786 186.591,-390.5645 193.2873,-388.525"/>
<text text-anchor="middle" x="228.1069" y="-400.8" font-family="Times,serif" font-size="14.00" fill="#000000">unsorted</text>
</g>
<!-- Reducer 10 -->
<g id="node8" class="node">
<title>Reducer 10</title>
<ellipse fill="none" stroke="#000000" cx="473" cy="-362" rx="50.7474" ry="18"/>
<text text-anchor="middle" x="473" y="-357.8" font-family="Times,serif" font-size="14.00" fill="#000000">Reducer 10</text>
</g>
<!-- Map 8&#45;&gt;Reducer 10 -->
<g id="edge6" class="edge">
<title>Map 8&#45;&gt;Reducer 10</title>
<path fill="none" stroke="#000000" d="M348.6466,-434.751C372.3797,-420.8663 409.9878,-398.8643 437.6369,-382.6886"/>
<polygon fill="#000000" stroke="#000000" points="439.7333,-385.5171 446.5974,-377.4464 436.1986,-379.4752 439.7333,-385.5171"/>
<text text-anchor="middle" x="433.1069" y="-400.8" font-family="Times,serif" font-size="14.00" fill="#000000">unsorted</text>
</g>
<!-- Map 8&#45;&gt;Map 11 -->
<g id="edge15" class="edge">
<title>Map 8&#45;&gt;Map 11</title>
<path fill="none" stroke="#000000" d="M357.5327,-442.5453C410.5241,-432.6325 513.5728,-409.8938 533,-380 550.0993,-353.6883 537.5477,-332.7412 514,-312 502.3166,-301.7091 487.2369,-293.9901 473.1427,-288.3943"/>
<polygon fill="#000000" stroke="#000000" points="474.1895,-285.0496 463.5964,-284.854 471.7554,-291.6128 474.1895,-285.0496"/>
<text text-anchor="middle" x="567.8208" y="-357.8" font-family="Times,serif" font-size="14.00" fill="#000000">broadcast</text>
</g>
<!-- Reducer 2 -->
<g id="node4" class="node">
<title>Reducer 2</title>
<ellipse fill="none" stroke="#000000" cx="74" cy="-362" rx="46.4045" ry="18"/>
<text text-anchor="middle" x="74" y="-357.8" font-family="Times,serif" font-size="14.00" fill="#000000">Reducer 2</text>
</g>
<!-- Reducer 2&#45;&gt;Map 4 -->
<g id="edge3" class="edge">
<title>Reducer 2&#45;&gt;Map 4</title>
<path fill="none" stroke="#000000" d="M92.0886,-345.2138C104.025,-334.7325 120.3605,-321.4774 136.3584,-312 151.6776,-302.9247 169.7116,-295.0358 185.3487,-288.9749"/>
<polygon fill="#000000" stroke="#000000" points="186.6042,-292.2421 194.7296,-285.443 184.1377,-285.691 186.6042,-292.2421"/>
<text text-anchor="middle" x="163.8208" y="-314.8" font-family="Times,serif" font-size="14.00" fill="#000000">broadcast</text>
</g>
<!-- Reducer 9&#45;&gt;Map 4 -->
<g id="edge4" class="edge">
<title>Reducer 9&#45;&gt;Map 4</title>
<path fill="none" stroke="#000000" d="M187.7115,-343.9103C190.0711,-334.1801 193.5889,-322.1325 198.3584,-312 200.0519,-308.4023 202.0871,-304.7662 204.2527,-301.2587"/>
<polygon fill="#000000" stroke="#000000" points="207.1842,-303.171 209.784,-292.9001 201.3466,-299.308 207.1842,-303.171"/>
<text text-anchor="middle" x="225.8208" y="-314.8" font-family="Times,serif" font-size="14.00" fill="#000000">broadcast</text>
</g>
<!-- Map 3 -->
<g id="node6" class="node">
<title>Map 3</title>
<ellipse fill="none" stroke="#000000" cx="37" cy="-534" rx="32.8992" ry="18"/>
<text text-anchor="middle" x="37" y="-529.8" font-family="Times,serif" font-size="14.00" fill="#000000">Map 3</text>
</g>
<!-- Map 1 -->
<g id="node7" class="node">
<title>Map 1</title>
<ellipse fill="none" stroke="#000000" cx="37" cy="-448" rx="32.8992" ry="18"/>
<text text-anchor="middle" x="37" y="-443.8" font-family="Times,serif" font-size="14.00" fill="#000000">Map 1</text>
</g>
<!-- Map 3&#45;&gt;Map 1 -->
<g id="edge5" class="edge">
<title>Map 3&#45;&gt;Map 1</title>
<path fill="none" stroke="#000000" d="M37,-515.7616C37,-504.3597 37,-489.4342 37,-476.494"/>
<polygon fill="#000000" stroke="#000000" points="40.5001,-476.2121 37,-466.2121 33.5001,-476.2121 40.5001,-476.2121"/>
<text text-anchor="middle" x="63.8208" y="-486.8" font-family="Times,serif" font-size="14.00" fill="#000000">broadcast</text>
</g>
<!-- Map 1&#45;&gt;Reducer 2 -->
<g id="edge12" class="edge">
<title>Map 1&#45;&gt;Reducer 2</title>
<path fill="none" stroke="#000000" d="M44.6664,-430.1807C49.7763,-418.3038 56.5887,-402.4695 62.3622,-389.05"/>
<polygon fill="#000000" stroke="#000000" points="65.6063,-390.3656 66.3434,-379.7964 59.1762,-387.5991 65.6063,-390.3656"/>
<text text-anchor="middle" x="82.1069" y="-400.8" font-family="Times,serif" font-size="14.00" fill="#000000">unsorted</text>
</g>
<!-- Map 1&#45;&gt;Reducer 5 -->
<g id="edge8" class="edge">
<title>Map 1&#45;&gt;Reducer 5</title>
<path fill="none" stroke="#000000" d="M24.8848,-431.1306C14.0941,-414.4211 0,-387.6809 0,-362 0,-362 0,-362 0,-190 0,-153.5411 105.078,-126.6126 170.9742,-113.3099"/>
<polygon fill="#000000" stroke="#000000" points="171.6615,-116.7419 180.7932,-111.3695 170.3044,-109.8747 171.6615,-116.7419"/>
<text text-anchor="middle" x="26.8208" y="-271.8" font-family="Times,serif" font-size="14.00" fill="#000000">broadcast</text>
</g>
<!-- Reducer 10&#45;&gt;Map 11 -->
<g id="edge16" class="edge">
<title>Reducer 10&#45;&gt;Map 11</title>
<path fill="none" stroke="#000000" d="M464.4052,-343.9143C459.8615,-334.399 454.1686,-322.5489 449,-312 447.5242,-308.988 445.9691,-305.8399 444.4162,-302.7126"/>
<polygon fill="#000000" stroke="#000000" points="447.4415,-300.9363 439.8459,-293.55 441.1775,-304.0608 447.4415,-300.9363"/>
<text text-anchor="middle" x="482.8208" y="-314.8" font-family="Times,serif" font-size="14.00" fill="#000000">broadcast</text>
</g>
<!-- Reducer 12 -->
<g id="node10" class="node">
<title>Reducer 12</title>
<ellipse fill="none" stroke="#000000" cx="378" cy="-190" rx="50.7474" ry="18"/>
<text text-anchor="middle" x="378" y="-185.8" font-family="Times,serif" font-size="14.00" fill="#000000">Reducer 12</text>
</g>
<!-- Map 11&#45;&gt;Reducer 12 -->
<g id="edge7" class="edge">
<title>Map 11&#45;&gt;Reducer 12</title>
<path fill="none" stroke="#000000" d="M420.2747,-258.5966C412.7813,-246.4376 402.6421,-229.9854 394.1719,-216.2412"/>
<polygon fill="#000000" stroke="#000000" points="397.1175,-214.3496 388.8913,-207.6727 391.1582,-218.0222 397.1175,-214.3496"/>
<text text-anchor="middle" x="425.1069" y="-228.8" font-family="Times,serif" font-size="14.00" fill="#000000">sorted</text>
</g>
<!-- Reducer 12&#45;&gt;Reducer 5 -->
<g id="edge10" class="edge">
<title>Reducer 12&#45;&gt;Reducer 5</title>
<path fill="none" stroke="#000000" d="M350.6459,-174.8229C325.0349,-160.6129 286.6199,-139.2988 258.6241,-123.7656"/>
<polygon fill="#000000" stroke="#000000" points="260.0052,-120.5293 249.5628,-118.7381 256.609,-126.6503 260.0052,-120.5293"/>
<text text-anchor="middle" x="336.8208" y="-142.8" font-family="Times,serif" font-size="14.00" fill="#000000">broadcast</text>
</g>
<!-- Reducer 6 -->
<g id="node12" class="node">
<title>Reducer 6</title>
<ellipse fill="none" stroke="#000000" cx="223" cy="-18" rx="46.4045" ry="18"/>
<text text-anchor="middle" x="223" y="-13.8" font-family="Times,serif" font-size="14.00" fill="#000000">Reducer 6</text>
</g>
<!-- Reducer 5&#45;&gt;Reducer 6 -->
<g id="edge11" class="edge">
<title>Reducer 5&#45;&gt;Reducer 6</title>
<path fill="none" stroke="#000000" d="M223,-85.7616C223,-74.3597 223,-59.4342 223,-46.494"/>
<polygon fill="#000000" stroke="#000000" points="226.5001,-46.2121 223,-36.2121 219.5001,-46.2121 226.5001,-46.2121"/>
<text text-anchor="middle" x="240.1069" y="-56.8" font-family="Times,serif" font-size="14.00" fill="#000000">sorted</text>
</g>
</g>
</svg>
