<?xml version="1.0" encoding="UTF-8" standalone="no"?>
<!DOCTYPE svg PUBLIC "-//W3C//DTD SVG 1.1//EN"
 "http://www.w3.org/Graphics/SVG/1.1/DTD/svg11.dtd">
<!-- Generated by graphviz version 2.40.1 (20161225.0304)
 -->
<!-- Title: %3 Pages: 1 -->
<svg width="348pt" height="410pt"
 viewBox="0.00 0.00 347.90 410.00" xmlns="http://www.w3.org/2000/svg" xmlns:xlink="http://www.w3.org/1999/xlink">
<g id="graph0" class="graph" transform="scale(1 1) rotate(0) translate(4 406)">
<title>%3</title>
<polygon fill="#ffffff" stroke="transparent" points="-4,4 -4,-406 343.8991,-406 343.8991,4 -4,4"/>
<!-- Map 4 -->
<g id="node1" class="node">
<title>Map 4</title>
<ellipse fill="none" stroke="#000000" cx="88.9496" cy="-384" rx="32.8992" ry="18"/>
<text text-anchor="middle" x="88.9496" y="-379.8" font-family="Times,serif" font-size="14.00" fill="#000000">Map 4</text>
</g>
<!-- Map 7 -->
<g id="node2" class="node">
<title>Map 7</title>
<ellipse fill="none" stroke="#000000" cx="283.9496" cy="-298" rx="32.8992" ry="18"/>
<text text-anchor="middle" x="283.9496" y="-293.8" font-family="Times,serif" font-size="14.00" fill="#000000">Map 7</text>
</g>
<!-- Map 4&#45;&gt;Map 7 -->
<g id="edge1" class="edge">
<title>Map 4&#45;&gt;Map 7</title>
<path fill="none" stroke="#000000" d="M114.8441,-372.5799C149.3222,-357.3741 210.4249,-330.4263 248.9738,-313.4252"/>
<polygon fill="#000000" stroke="#000000" points="250.5212,-316.5681 258.2585,-309.3304 247.6965,-310.1633 250.5212,-316.5681"/>
<text text-anchor="middle" x="225.7704" y="-336.8" font-family="Times,serif" font-size="14.00" fill="#000000">broadcast</text>
</g>
<!-- Map 1 -->
<g id="node8" class="node">
<title>Map 1</title>
<ellipse fill="none" stroke="#000000" cx="32.9496" cy="-244" rx="32.8992" ry="18"/>
<text text-anchor="middle" x="32.9496" y="-239.8" font-family="Times,serif" font-size="14.00" fill="#000000">Map 1</text>
</g>
<!-- Map 4&#45;&gt;Map 1 -->
<g id="edge6" class="edge">
<title>Map 4&#45;&gt;Map 1</title>
<path fill="none" stroke="#000000" d="M81.8571,-366.2689C72.2634,-342.2847 55.0617,-299.2803 43.828,-271.1961"/>
<polygon fill="#000000" stroke="#000000" points="46.9481,-269.572 39.9844,-261.5871 40.4487,-272.1718 46.9481,-269.572"/>
<text text-anchor="middle" x="100.7704" y="-336.8" font-family="Times,serif" font-size="14.00" fill="#000000">broadcast</text>
</g>
<!-- Reducer 8 -->
<g id="node4" class="node">
<title>Reducer 8</title>
<ellipse fill="none" stroke="#000000" cx="209.9496" cy="-190" rx="46.4045" ry="18"/>
<text text-anchor="middle" x="209.9496" y="-185.8" font-family="Times,serif" font-size="14.00" fill="#000000">Reducer 8</text>
</g>
<!-- Map 7&#45;&gt;Reducer 8 -->
<g id="edge3" class="edge">
<title>Map 7&#45;&gt;Reducer 8</title>
<path fill="none" stroke="#000000" d="M281.1611,-279.9938C278.0533,-264.4905 271.8177,-242.1325 259.9496,-226 255.8186,-220.3847 250.5505,-215.2953 244.9919,-210.828"/>
<polygon fill="#000000" stroke="#000000" points="246.8636,-207.8595 236.7387,-204.7392 242.7078,-213.4924 246.8636,-207.8595"/>
<text text-anchor="middle" x="293.0565" y="-239.8" font-family="Times,serif" font-size="14.00" fill="#000000">sorted</text>
</g>
<!-- Map 5 -->
<g id="node3" class="node">
<title>Map 5</title>
<ellipse fill="none" stroke="#000000" cx="114.9496" cy="-298" rx="32.8992" ry="18"/>
<text text-anchor="middle" x="114.9496" y="-293.8" font-family="Times,serif" font-size="14.00" fill="#000000">Map 5</text>
</g>
<!-- Map 5&#45;&gt;Reducer 8 -->
<g id="edge2" class="edge">
<title>Map 5&#45;&gt;Reducer 8</title>
<path fill="none" stroke="#000000" d="M119.3124,-279.9389C123.8707,-264.1884 132.3445,-241.4974 146.308,-226 152.6105,-219.0051 160.6034,-213.0415 168.778,-208.0987"/>
<polygon fill="#000000" stroke="#000000" points="170.6306,-211.0729 177.6483,-203.1355 167.2125,-204.9641 170.6306,-211.0729"/>
<text text-anchor="middle" x="173.7704" y="-239.8" font-family="Times,serif" font-size="14.00" fill="#000000">broadcast</text>
</g>
<!-- Reducer 2 -->
<g id="node6" class="node">
<title>Reducer 2</title>
<ellipse fill="none" stroke="#000000" cx="150.9496" cy="-104" rx="46.4045" ry="18"/>
<text text-anchor="middle" x="150.9496" y="-99.8" font-family="Times,serif" font-size="14.00" fill="#000000">Reducer 2</text>
</g>
<!-- Map 5&#45;&gt;Reducer 2 -->
<g id="edge8" class="edge">
<title>Map 5&#45;&gt;Reducer 2</title>
<path fill="none" stroke="#000000" d="M108.4038,-279.9864C100.3756,-255.0849 89.2312,-209.0252 101.308,-172 106.5006,-156.0803 116.9872,-140.791 126.9897,-128.756"/>
<polygon fill="#000000" stroke="#000000" points="129.8372,-130.8158 133.7661,-120.9763 124.5588,-126.2181 129.8372,-130.8158"/>
<text text-anchor="middle" x="128.7704" y="-185.8" font-family="Times,serif" font-size="14.00" fill="#000000">broadcast</text>
</g>
<!-- Reducer 8&#45;&gt;Reducer 2 -->
<g id="edge10" class="edge">
<title>Reducer 8&#45;&gt;Reducer 2</title>
<path fill="none" stroke="#000000" d="M198.01,-172.5966C189.6684,-160.4376 178.3814,-143.9854 168.9522,-130.2412"/>
<polygon fill="#000000" stroke="#000000" points="171.6171,-127.9387 163.0738,-121.6727 165.8449,-131.8987 171.6171,-127.9387"/>
<text text-anchor="middle" x="211.7704" y="-142.8" font-family="Times,serif" font-size="14.00" fill="#000000">broadcast</text>
</g>
<!-- Map 9 -->
<g id="node5" class="node">
<title>Map 9</title>
<ellipse fill="none" stroke="#000000" cx="199.9496" cy="-298" rx="32.8992" ry="18"/>
<text text-anchor="middle" x="199.9496" y="-293.8" font-family="Times,serif" font-size="14.00" fill="#000000">Map 9</text>
</g>
<!-- Map 9&#45;&gt;Reducer 8 -->
<g id="edge4" class="edge">
<title>Map 9&#45;&gt;Reducer 8</title>
<path fill="none" stroke="#000000" d="M201.48,-279.9445C202.73,-265.3787 204.5683,-244.3643 206.308,-226 206.5379,-223.5727 206.7818,-221.0539 207.0302,-218.5272"/>
<polygon fill="#000000" stroke="#000000" points="210.5394,-218.6084 208.0519,-208.3097 203.5742,-217.9118 210.5394,-218.6084"/>
<text text-anchor="middle" x="233.7704" y="-239.8" font-family="Times,serif" font-size="14.00" fill="#000000">broadcast</text>
</g>
<!-- Reducer 3 -->
<g id="node7" class="node">
<title>Reducer 3</title>
<ellipse fill="none" stroke="#000000" cx="150.9496" cy="-18" rx="46.4045" ry="18"/>
<text text-anchor="middle" x="150.9496" y="-13.8" font-family="Times,serif" font-size="14.00" fill="#000000">Reducer 3</text>
</g>
<!-- Reducer 2&#45;&gt;Reducer 3 -->
<g id="edge5" class="edge">
<title>Reducer 2&#45;&gt;Reducer 3</title>
<path fill="none" stroke="#000000" d="M150.9496,-85.7616C150.9496,-74.3597 150.9496,-59.4342 150.9496,-46.494"/>
<polygon fill="#000000" stroke="#000000" points="154.4497,-46.2121 150.9496,-36.2121 147.4497,-46.2121 154.4497,-46.2121"/>
<text text-anchor="middle" x="168.0565" y="-56.8" font-family="Times,serif" font-size="14.00" fill="#000000">sorted</text>
</g>
<!-- Map 1&#45;&gt;Reducer 2 -->
<g id="edge7" class="edge">
<title>Map 1&#45;&gt;Reducer 2</title>
<path fill="none" stroke="#000000" d="M29.5655,-226.0526C27.6053,-210.7909 27.006,-188.7509 35.7357,-172 49.4895,-145.6086 78.3378,-128.6008 103.7252,-118.1948"/>
<polygon fill="#000000" stroke="#000000" points="105.1754,-121.3869 113.2471,-114.524 102.6574,-114.8554 105.1754,-121.3869"/>
<text text-anchor="middle" x="53.0565" y="-185.8" font-family="Times,serif" font-size="14.00" fill="#000000">sorted</text>
</g>
<!-- Map 6 -->
<g id="node9" class="node">
<title>Map 6</title>
<ellipse fill="none" stroke="#000000" cx="306.9496" cy="-190" rx="32.8992" ry="18"/>
<text text-anchor="middle" x="306.9496" y="-185.8" font-family="Times,serif" font-size="14.00" fill="#000000">Map 6</text>
</g>
<!-- Map 6&#45;&gt;Reducer 2 -->
<g id="edge9" class="edge">
<title>Map 6&#45;&gt;Reducer 2</title>
<path fill="none" stroke="#000000" d="M289.9998,-174.5269C277.6318,-163.8129 260.0989,-149.7757 242.9496,-140 228.5262,-131.7782 211.857,-124.627 196.7024,-118.9123"/>
<polygon fill="#000000" stroke="#000000" points="197.5951,-115.5122 187.0012,-115.3676 195.1926,-122.0871 197.5951,-115.5122"/>
<text text-anchor="middle" x="289.7704" y="-142.8" font-family="Times,serif" font-size="14.00" fill="#000000">broadcast</text>
</g>
</g>
</svg>
