<?xml version="1.0" encoding="UTF-8" standalone="no"?>
<!DOCTYPE svg PUBLIC "-//W3C//DTD SVG 1.1//EN"
 "http://www.w3.org/Graphics/SVG/1.1/DTD/svg11.dtd">
<!-- Generated by graphviz version 2.40.1 (20161225.0304)
 -->
<!-- Title: %3 Pages: 1 -->
<svg width="534pt" height="388pt"
 viewBox="0.00 0.00 533.90 388.00" xmlns="http://www.w3.org/2000/svg" xmlns:xlink="http://www.w3.org/1999/xlink">
<g id="graph0" class="graph" transform="scale(1 1) rotate(0) translate(4 384)">
<title>%3</title>
<polygon fill="#ffffff" stroke="transparent" points="-4,4 -4,-384 529.8991,-384 529.8991,4 -4,4"/>
<!-- Reducer 4 -->
<g id="node1" class="node">
<title>Reducer 4</title>
<ellipse fill="none" stroke="#000000" cx="242.9496" cy="-104" rx="46.4045" ry="18"/>
<text text-anchor="middle" x="242.9496" y="-99.8" font-family="Times,serif" font-size="14.00" fill="#000000">Reducer 4</text>
</g>
<!-- Reducer 5 -->
<g id="node2" class="node">
<title>Reducer 5</title>
<ellipse fill="none" stroke="#000000" cx="242.9496" cy="-18" rx="46.4045" ry="18"/>
<text text-anchor="middle" x="242.9496" y="-13.8" font-family="Times,serif" font-size="14.00" fill="#000000">Reducer 5</text>
</g>
<!-- Reducer 4&#45;&gt;Reducer 5 -->
<g id="edge1" class="edge">
<title>Reducer 4&#45;&gt;Reducer 5</title>
<path fill="none" stroke="#000000" d="M242.9496,-85.7616C242.9496,-74.3597 242.9496,-59.4342 242.9496,-46.494"/>
<polygon fill="#000000" stroke="#000000" points="246.4497,-46.2121 242.9496,-36.2121 239.4497,-46.2121 246.4497,-46.2121"/>
<text text-anchor="middle" x="260.0565" y="-56.8" font-family="Times,serif" font-size="14.00" fill="#000000">sorted</text>
</g>
<!-- Map 3 -->
<g id="node3" class="node">
<title>Map 3</title>
<ellipse fill="none" stroke="#000000" cx="242.9496" cy="-190" rx="32.8992" ry="18"/>
<text text-anchor="middle" x="242.9496" y="-185.8" font-family="Times,serif" font-size="14.00" fill="#000000">Map 3</text>
</g>
<!-- Map 3&#45;&gt;Reducer 4 -->
<g id="edge2" class="edge">
<title>Map 3&#45;&gt;Reducer 4</title>
<path fill="none" stroke="#000000" d="M242.9496,-171.7616C242.9496,-160.3597 242.9496,-145.4342 242.9496,-132.494"/>
<polygon fill="#000000" stroke="#000000" points="246.4497,-132.2121 242.9496,-122.2121 239.4497,-132.2121 246.4497,-132.2121"/>
<text text-anchor="middle" x="260.0565" y="-142.8" font-family="Times,serif" font-size="14.00" fill="#000000">sorted</text>
</g>
<!-- Map 1 -->
<g id="node4" class="node">
<title>Map 1</title>
<ellipse fill="none" stroke="#000000" cx="32.9496" cy="-276" rx="32.8992" ry="18"/>
<text text-anchor="middle" x="32.9496" y="-271.8" font-family="Times,serif" font-size="14.00" fill="#000000">Map 1</text>
</g>
<!-- Map 1&#45;&gt;Map 3 -->
<g id="edge3" class="edge">
<title>Map 1&#45;&gt;Map 3</title>
<path fill="none" stroke="#000000" d="M45.0336,-259.115C53.8519,-248.0377 66.7684,-234.1445 81.308,-226 118.1331,-205.3719 165.8825,-196.5638 199.9151,-192.8027"/>
<polygon fill="#000000" stroke="#000000" points="200.4087,-196.2709 210.0093,-191.79 199.7099,-189.3058 200.4087,-196.2709"/>
<text text-anchor="middle" x="108.7704" y="-228.8" font-family="Times,serif" font-size="14.00" fill="#000000">broadcast</text>
</g>
<!-- Map 10 -->
<g id="node5" class="node">
<title>Map 10</title>
<ellipse fill="none" stroke="#000000" cx="120.9496" cy="-276" rx="37.243" ry="18"/>
<text text-anchor="middle" x="120.9496" y="-271.8" font-family="Times,serif" font-size="14.00" fill="#000000">Map 10</text>
</g>
<!-- Map 10&#45;&gt;Map 3 -->
<g id="edge4" class="edge">
<title>Map 10&#45;&gt;Map 3</title>
<path fill="none" stroke="#000000" d="M127.4386,-258.2219C132.0985,-247.6209 139.3262,-234.5961 149.308,-226 164.2019,-213.1737 184.1617,-204.6599 201.8268,-199.1491"/>
<polygon fill="#000000" stroke="#000000" points="203.2687,-202.3759 211.9069,-196.2414 201.3286,-195.6501 203.2687,-202.3759"/>
<text text-anchor="middle" x="176.7704" y="-228.8" font-family="Times,serif" font-size="14.00" fill="#000000">broadcast</text>
</g>
<!-- Map 6 -->
<g id="node6" class="node">
<title>Map 6</title>
<ellipse fill="none" stroke="#000000" cx="208.9496" cy="-276" rx="32.8992" ry="18"/>
<text text-anchor="middle" x="208.9496" y="-271.8" font-family="Times,serif" font-size="14.00" fill="#000000">Map 6</text>
</g>
<!-- Map 6&#45;&gt;Map 3 -->
<g id="edge5" class="edge">
<title>Map 6&#45;&gt;Map 3</title>
<path fill="none" stroke="#000000" d="M206.4603,-257.7985C205.8515,-248.0356 206.2956,-235.9924 210.308,-226 212.1745,-221.3515 214.9312,-216.9227 218.0646,-212.8618"/>
<polygon fill="#000000" stroke="#000000" points="220.9125,-214.922 224.861,-205.0904 215.6433,-210.3138 220.9125,-214.922"/>
<text text-anchor="middle" x="236.7704" y="-228.8" font-family="Times,serif" font-size="14.00" fill="#000000">broadcast</text>
</g>
<!-- Map 7 -->
<g id="node7" class="node">
<title>Map 7</title>
<ellipse fill="none" stroke="#000000" cx="293.9496" cy="-362" rx="32.8992" ry="18"/>
<text text-anchor="middle" x="293.9496" y="-357.8" font-family="Times,serif" font-size="14.00" fill="#000000">Map 7</text>
</g>
<!-- Map 7&#45;&gt;Map 3 -->
<g id="edge6" class="edge">
<title>Map 7&#45;&gt;Map 3</title>
<path fill="none" stroke="#000000" d="M291.7764,-343.8757C288.1881,-317.3043 279.7928,-266.5356 263.9496,-226 262.6457,-222.6641 261.061,-219.2723 259.3527,-215.9709"/>
<polygon fill="#000000" stroke="#000000" points="262.2833,-214.0409 254.3418,-207.0278 256.1765,-217.4626 262.2833,-214.0409"/>
<text text-anchor="middle" x="309.7704" y="-271.8" font-family="Times,serif" font-size="14.00" fill="#000000">broadcast</text>
</g>
<!-- Reducer 8 -->
<g id="node9" class="node">
<title>Reducer 8</title>
<ellipse fill="none" stroke="#000000" cx="395.9496" cy="-276" rx="46.4045" ry="18"/>
<text text-anchor="middle" x="395.9496" y="-271.8" font-family="Times,serif" font-size="14.00" fill="#000000">Reducer 8</text>
</g>
<!-- Map 7&#45;&gt;Reducer 8 -->
<g id="edge9" class="edge">
<title>Map 7&#45;&gt;Reducer 8</title>
<path fill="none" stroke="#000000" d="M312.1851,-346.6249C327.8878,-333.3854 350.7767,-314.0869 368.6613,-299.0077"/>
<polygon fill="#000000" stroke="#000000" points="371.0935,-301.5351 376.4827,-292.4132 366.5813,-296.1834 371.0935,-301.5351"/>
<text text-anchor="middle" x="375.0565" y="-314.8" font-family="Times,serif" font-size="14.00" fill="#000000">unsorted</text>
</g>
<!-- Map 9 -->
<g id="node8" class="node">
<title>Map 9</title>
<ellipse fill="none" stroke="#000000" cx="492.9496" cy="-276" rx="32.8992" ry="18"/>
<text text-anchor="middle" x="492.9496" y="-271.8" font-family="Times,serif" font-size="14.00" fill="#000000">Map 9</text>
</g>
<!-- Map 9&#45;&gt;Map 3 -->
<g id="edge7" class="edge">
<title>Map 9&#45;&gt;Map 3</title>
<path fill="none" stroke="#000000" d="M469.2778,-263.3389C447.9528,-252.3231 415.5058,-236.5177 385.9496,-226 352.4387,-214.075 313.1815,-204.4902 284.286,-198.2179"/>
<polygon fill="#000000" stroke="#000000" points="284.6484,-194.7167 274.1389,-196.0587 283.1915,-201.5634 284.6484,-194.7167"/>
<text text-anchor="middle" x="445.7704" y="-228.8" font-family="Times,serif" font-size="14.00" fill="#000000">broadcast</text>
</g>
<!-- Reducer 8&#45;&gt;Map 3 -->
<g id="edge8" class="edge">
<title>Reducer 8&#45;&gt;Map 3</title>
<path fill="none" stroke="#000000" d="M369.299,-261.0199C343.1459,-246.3195 303.2251,-223.8804 275.274,-208.1693"/>
<polygon fill="#000000" stroke="#000000" points="276.7233,-204.9689 266.291,-203.12 273.2933,-211.071 276.7233,-204.9689"/>
<text text-anchor="middle" x="354.7704" y="-228.8" font-family="Times,serif" font-size="14.00" fill="#000000">broadcast</text>
</g>
<!-- Map 2 -->
<g id="node10" class="node">
<title>Map 2</title>
<ellipse fill="none" stroke="#000000" cx="32.9496" cy="-362" rx="32.8992" ry="18"/>
<text text-anchor="middle" x="32.9496" y="-357.8" font-family="Times,serif" font-size="14.00" fill="#000000">Map 2</text>
</g>
<!-- Map 2&#45;&gt;Map 1 -->
<g id="edge10" class="edge">
<title>Map 2&#45;&gt;Map 1</title>
<path fill="none" stroke="#000000" d="M32.9496,-343.7616C32.9496,-332.3597 32.9496,-317.4342 32.9496,-304.494"/>
<polygon fill="#000000" stroke="#000000" points="36.4497,-304.2121 32.9496,-294.2121 29.4497,-304.2121 36.4497,-304.2121"/>
<text text-anchor="middle" x="59.7704" y="-314.8" font-family="Times,serif" font-size="14.00" fill="#000000">broadcast</text>
</g>
</g>
</svg>
