<?xml version="1.0" encoding="UTF-8" standalone="no"?>
<!DOCTYPE svg PUBLIC "-//W3C//DTD SVG 1.1//EN"
 "http://www.w3.org/Graphics/SVG/1.1/DTD/svg11.dtd">
<!-- Generated by graphviz version 2.40.1 (20161225.0304)
 -->
<!-- Title: %3 Pages: 1 -->
<svg width="492pt" height="1248pt"
 viewBox="0.00 0.00 492.37 1248.00" xmlns="http://www.w3.org/2000/svg" xmlns:xlink="http://www.w3.org/1999/xlink">
<g id="graph0" class="graph" transform="scale(1 1) rotate(0) translate(4 1244)">
<title>%3</title>
<polygon fill="#ffffff" stroke="transparent" points="-4,4 -4,-1244 488.3713,-1244 488.3713,4 -4,4"/>
<!-- Reducer 2 -->
<g id="node1" class="node">
<title>Reducer 2</title>
<ellipse fill="none" stroke="#000000" cx="359" cy="-1050" rx="46.4045" ry="18"/>
<text text-anchor="middle" x="359" y="-1045.8" font-family="Times,serif" font-size="14.00" fill="#000000">Reducer 2</text>
</g>
<!-- Map 6 -->
<g id="node2" class="node">
<title>Map 6</title>
<ellipse fill="none" stroke="#000000" cx="359" cy="-964" rx="32.8992" ry="18"/>
<text text-anchor="middle" x="359" y="-959.8" font-family="Times,serif" font-size="14.00" fill="#000000">Map 6</text>
</g>
<!-- Reducer 2&#45;&gt;Map 6 -->
<g id="edge1" class="edge">
<title>Reducer 2&#45;&gt;Map 6</title>
<path fill="none" stroke="#000000" d="M359,-1031.7616C359,-1020.3597 359,-1005.4342 359,-992.494"/>
<polygon fill="#000000" stroke="#000000" points="362.5001,-992.2121 359,-982.2121 355.5001,-992.2121 362.5001,-992.2121"/>
<text text-anchor="middle" x="385.8208" y="-1002.8" font-family="Times,serif" font-size="14.00" fill="#000000">broadcast</text>
</g>
<!-- Map 10 -->
<g id="node18" class="node">
<title>Map 10</title>
<ellipse fill="none" stroke="#000000" cx="447" cy="-964" rx="37.243" ry="18"/>
<text text-anchor="middle" x="447" y="-959.8" font-family="Times,serif" font-size="14.00" fill="#000000">Map 10</text>
</g>
<!-- Reducer 2&#45;&gt;Map 10 -->
<g id="edge25" class="edge">
<title>Reducer 2&#45;&gt;Map 10</title>
<path fill="none" stroke="#000000" d="M387.8016,-1035.7676C397.8002,-1029.9299 408.6,-1022.5276 417,-1014 423.71,-1007.1881 429.5524,-998.5963 434.2541,-990.4654"/>
<polygon fill="#000000" stroke="#000000" points="437.3712,-992.0594 439.0632,-981.6005 431.2183,-988.7215 437.3712,-992.0594"/>
<text text-anchor="middle" x="455.8208" y="-1002.8" font-family="Times,serif" font-size="14.00" fill="#000000">broadcast</text>
</g>
<!-- Reducer 7 -->
<g id="node19" class="node">
<title>Reducer 7</title>
<ellipse fill="none" stroke="#000000" cx="359" cy="-878" rx="46.4045" ry="18"/>
<text text-anchor="middle" x="359" y="-873.8" font-family="Times,serif" font-size="14.00" fill="#000000">Reducer 7</text>
</g>
<!-- Map 6&#45;&gt;Reducer 7 -->
<g id="edge16" class="edge">
<title>Map 6&#45;&gt;Reducer 7</title>
<path fill="none" stroke="#000000" d="M359,-945.7616C359,-934.3597 359,-919.4342 359,-906.494"/>
<polygon fill="#000000" stroke="#000000" points="362.5001,-906.2121 359,-896.2121 355.5001,-906.2121 362.5001,-906.2121"/>
<text text-anchor="middle" x="383.1069" y="-916.8" font-family="Times,serif" font-size="14.00" fill="#000000">unsorted</text>
</g>
<!-- Map 18 -->
<g id="node3" class="node">
<title>Map 18</title>
<ellipse fill="none" stroke="#000000" cx="90" cy="-620" rx="37.243" ry="18"/>
<text text-anchor="middle" x="90" y="-615.8" font-family="Times,serif" font-size="14.00" fill="#000000">Map 18</text>
</g>
<!-- Reducer 19 -->
<g id="node4" class="node">
<title>Reducer 19</title>
<ellipse fill="none" stroke="#000000" cx="90" cy="-534" rx="50.7474" ry="18"/>
<text text-anchor="middle" x="90" y="-529.8" font-family="Times,serif" font-size="14.00" fill="#000000">Reducer 19</text>
</g>
<!-- Map 18&#45;&gt;Reducer 19 -->
<g id="edge2" class="edge">
<title>Map 18&#45;&gt;Reducer 19</title>
<path fill="none" stroke="#000000" d="M90,-601.7616C90,-590.3597 90,-575.4342 90,-562.494"/>
<polygon fill="#000000" stroke="#000000" points="93.5001,-562.2121 90,-552.2121 86.5001,-562.2121 93.5001,-562.2121"/>
<text text-anchor="middle" x="114.1069" y="-572.8" font-family="Times,serif" font-size="14.00" fill="#000000">unsorted</text>
</g>
<!-- Reducer 13 -->
<g id="node11" class="node">
<title>Reducer 13</title>
<ellipse fill="none" stroke="#000000" cx="163" cy="-276" rx="50.7474" ry="18"/>
<text text-anchor="middle" x="163" y="-271.8" font-family="Times,serif" font-size="14.00" fill="#000000">Reducer 13</text>
</g>
<!-- Map 18&#45;&gt;Reducer 13 -->
<g id="edge11" class="edge">
<title>Map 18&#45;&gt;Reducer 13</title>
<path fill="none" stroke="#000000" d="M62.0168,-607.6353C35.5971,-593.8392 0,-568.7947 0,-534 0,-534 0,-534 0,-362 0,-313.412 57.3561,-292.2066 104.0218,-282.9945"/>
<polygon fill="#000000" stroke="#000000" points="104.8865,-286.3946 114.0946,-281.1544 103.6284,-279.5086 104.8865,-286.3946"/>
<text text-anchor="middle" x="24.1069" y="-443.8" font-family="Times,serif" font-size="14.00" fill="#000000">unsorted</text>
</g>
<!-- Map 11 -->
<g id="node16" class="node">
<title>Map 11</title>
<ellipse fill="none" stroke="#000000" cx="226" cy="-448" rx="37.0949" ry="18"/>
<text text-anchor="middle" x="226" y="-443.8" font-family="Times,serif" font-size="14.00" fill="#000000">Map 11</text>
</g>
<!-- Reducer 19&#45;&gt;Map 11 -->
<g id="edge23" class="edge">
<title>Reducer 19&#45;&gt;Map 11</title>
<path fill="none" stroke="#000000" d="M114.9445,-518.2263C137.3457,-504.0608 170.337,-483.1986 194.5416,-467.8928"/>
<polygon fill="#000000" stroke="#000000" points="196.4443,-470.8308 203.0256,-462.5279 192.703,-464.9144 196.4443,-470.8308"/>
<text text-anchor="middle" x="193.8208" y="-486.8" font-family="Times,serif" font-size="14.00" fill="#000000">broadcast</text>
</g>
<!-- Map 17 -->
<g id="node17" class="node">
<title>Map 17</title>
<ellipse fill="none" stroke="#000000" cx="134" cy="-448" rx="37.243" ry="18"/>
<text text-anchor="middle" x="134" y="-443.8" font-family="Times,serif" font-size="14.00" fill="#000000">Map 17</text>
</g>
<!-- Reducer 19&#45;&gt;Map 17 -->
<g id="edge18" class="edge">
<title>Reducer 19&#45;&gt;Map 17</title>
<path fill="none" stroke="#000000" d="M56.9356,-520.255C39.8403,-511.0809 24.4343,-498.1375 34.3584,-484 41.2242,-474.2193 66.7905,-465.0928 90.3049,-458.4762"/>
<polygon fill="#000000" stroke="#000000" points="91.4578,-461.7902 100.1964,-455.7996 89.6293,-455.0332 91.4578,-461.7902"/>
<text text-anchor="middle" x="61.8208" y="-486.8" font-family="Times,serif" font-size="14.00" fill="#000000">broadcast</text>
</g>
<!-- Map 3 -->
<g id="node5" class="node">
<title>Map 3</title>
<ellipse fill="none" stroke="#000000" cx="186" cy="-1222" rx="32.8992" ry="18"/>
<text text-anchor="middle" x="186" y="-1217.8" font-family="Times,serif" font-size="14.00" fill="#000000">Map 3</text>
</g>
<!-- Map 1 -->
<g id="node6" class="node">
<title>Map 1</title>
<ellipse fill="none" stroke="#000000" cx="270" cy="-1136" rx="32.8992" ry="18"/>
<text text-anchor="middle" x="270" y="-1131.8" font-family="Times,serif" font-size="14.00" fill="#000000">Map 1</text>
</g>
<!-- Map 3&#45;&gt;Map 1 -->
<g id="edge3" class="edge">
<title>Map 3&#45;&gt;Map 1</title>
<path fill="none" stroke="#000000" d="M192.766,-1203.9003C197.2178,-1193.7004 203.8074,-1181.2004 212.3584,-1172 219.1545,-1164.6878 227.7547,-1158.2767 236.2241,-1152.9697"/>
<polygon fill="#000000" stroke="#000000" points="238.0811,-1155.938 244.9217,-1147.8474 234.5288,-1149.9062 238.0811,-1155.938"/>
<text text-anchor="middle" x="239.8208" y="-1174.8" font-family="Times,serif" font-size="14.00" fill="#000000">broadcast</text>
</g>
<!-- Map 1&#45;&gt;Reducer 2 -->
<g id="edge20" class="edge">
<title>Map 1&#45;&gt;Reducer 2</title>
<path fill="none" stroke="#000000" d="M286.324,-1120.2263C299.6569,-1107.3428 318.7225,-1088.9199 333.9808,-1074.1758"/>
<polygon fill="#000000" stroke="#000000" points="336.8033,-1076.3156 341.5624,-1066.8498 331.9391,-1071.2817 336.8033,-1076.3156"/>
<text text-anchor="middle" x="344.1069" y="-1088.8" font-family="Times,serif" font-size="14.00" fill="#000000">unsorted</text>
</g>
<!-- Reducer 8 -->
<g id="node12" class="node">
<title>Reducer 8</title>
<ellipse fill="none" stroke="#000000" cx="270" cy="-792" rx="46.4045" ry="18"/>
<text text-anchor="middle" x="270" y="-787.8" font-family="Times,serif" font-size="14.00" fill="#000000">Reducer 8</text>
</g>
<!-- Map 1&#45;&gt;Reducer 8 -->
<g id="edge21" class="edge">
<title>Map 1&#45;&gt;Reducer 8</title>
<path fill="none" stroke="#000000" d="M264.6722,-1118.0606C260.0178,-1100.787 254,-1073.8432 254,-1050 254,-1050 254,-1050 254,-878 254,-858.2548 258.127,-836.3833 262.1889,-819.6383"/>
<polygon fill="#000000" stroke="#000000" points="265.5824,-820.4951 264.6722,-809.9394 258.8012,-818.7587 265.5824,-820.4951"/>
<text text-anchor="middle" x="280.8208" y="-959.8" font-family="Times,serif" font-size="14.00" fill="#000000">broadcast</text>
</g>
<!-- Map 4 -->
<g id="node7" class="node">
<title>Map 4</title>
<ellipse fill="none" stroke="#000000" cx="270" cy="-1222" rx="32.8992" ry="18"/>
<text text-anchor="middle" x="270" y="-1217.8" font-family="Times,serif" font-size="14.00" fill="#000000">Map 4</text>
</g>
<!-- Map 4&#45;&gt;Map 1 -->
<g id="edge4" class="edge">
<title>Map 4&#45;&gt;Map 1</title>
<path fill="none" stroke="#000000" d="M270,-1203.7616C270,-1192.3597 270,-1177.4342 270,-1164.494"/>
<polygon fill="#000000" stroke="#000000" points="273.5001,-1164.2121 270,-1154.2121 266.5001,-1164.2121 273.5001,-1164.2121"/>
<text text-anchor="middle" x="296.8208" y="-1174.8" font-family="Times,serif" font-size="14.00" fill="#000000">broadcast</text>
</g>
<!-- Map 5 -->
<g id="node8" class="node">
<title>Map 5</title>
<ellipse fill="none" stroke="#000000" cx="354" cy="-1222" rx="32.8992" ry="18"/>
<text text-anchor="middle" x="354" y="-1217.8" font-family="Times,serif" font-size="14.00" fill="#000000">Map 5</text>
</g>
<!-- Map 5&#45;&gt;Map 1 -->
<g id="edge5" class="edge">
<title>Map 5&#45;&gt;Map 1</title>
<path fill="none" stroke="#000000" d="M347.3846,-1203.8891C343.0128,-1193.6854 336.5128,-1181.1854 328,-1172 321.1839,-1164.6454 312.5378,-1158.2198 304.0159,-1152.9126"/>
<polygon fill="#000000" stroke="#000000" points="305.6613,-1149.8204 295.2619,-1147.7946 302.1283,-1155.8634 305.6613,-1149.8204"/>
<text text-anchor="middle" x="365.8208" y="-1174.8" font-family="Times,serif" font-size="14.00" fill="#000000">broadcast</text>
</g>
<!-- Reducer 14 -->
<g id="node9" class="node">
<title>Reducer 14</title>
<ellipse fill="none" stroke="#000000" cx="255" cy="-190" rx="50.7474" ry="18"/>
<text text-anchor="middle" x="255" y="-185.8" font-family="Times,serif" font-size="14.00" fill="#000000">Reducer 14</text>
</g>
<!-- Reducer 15 -->
<g id="node10" class="node">
<title>Reducer 15</title>
<ellipse fill="none" stroke="#000000" cx="255" cy="-104" rx="50.7474" ry="18"/>
<text text-anchor="middle" x="255" y="-99.8" font-family="Times,serif" font-size="14.00" fill="#000000">Reducer 15</text>
</g>
<!-- Reducer 14&#45;&gt;Reducer 15 -->
<g id="edge6" class="edge">
<title>Reducer 14&#45;&gt;Reducer 15</title>
<path fill="none" stroke="#000000" d="M255,-171.7616C255,-160.3597 255,-145.4342 255,-132.494"/>
<polygon fill="#000000" stroke="#000000" points="258.5001,-132.2121 255,-122.2121 251.5001,-132.2121 258.5001,-132.2121"/>
<text text-anchor="middle" x="272.1069" y="-142.8" font-family="Times,serif" font-size="14.00" fill="#000000">sorted</text>
</g>
<!-- Reducer 16 -->
<g id="node14" class="node">
<title>Reducer 16</title>
<ellipse fill="none" stroke="#000000" cx="255" cy="-18" rx="50.7474" ry="18"/>
<text text-anchor="middle" x="255" y="-13.8" font-family="Times,serif" font-size="14.00" fill="#000000">Reducer 16</text>
</g>
<!-- Reducer 15&#45;&gt;Reducer 16 -->
<g id="edge10" class="edge">
<title>Reducer 15&#45;&gt;Reducer 16</title>
<path fill="none" stroke="#000000" d="M255,-85.7616C255,-74.3597 255,-59.4342 255,-46.494"/>
<polygon fill="#000000" stroke="#000000" points="258.5001,-46.2121 255,-36.2121 251.5001,-46.2121 258.5001,-46.2121"/>
<text text-anchor="middle" x="272.1069" y="-56.8" font-family="Times,serif" font-size="14.00" fill="#000000">sorted</text>
</g>
<!-- Reducer 13&#45;&gt;Reducer 14 -->
<g id="edge7" class="edge">
<title>Reducer 13&#45;&gt;Reducer 14</title>
<path fill="none" stroke="#000000" d="M181.1762,-259.0092C194.911,-246.1702 213.9467,-228.3759 229.2481,-214.0724"/>
<polygon fill="#000000" stroke="#000000" points="231.9463,-216.3413 236.8615,-206.9555 227.1661,-211.2276 231.9463,-216.3413"/>
<text text-anchor="middle" x="232.1069" y="-228.8" font-family="Times,serif" font-size="14.00" fill="#000000">sorted</text>
</g>
<!-- Reducer 8&#45;&gt;Reducer 14 -->
<g id="edge8" class="edge">
<title>Reducer 8&#45;&gt;Reducer 14</title>
<path fill="none" stroke="#000000" d="M288.9279,-775.2314C304.8374,-759.2028 325,-733.4703 325,-706 325,-706 325,-706 325,-276 325,-250.2905 305.9504,-228.0009 287.7263,-212.5595"/>
<polygon fill="#000000" stroke="#000000" points="289.4763,-209.477 279.4826,-205.959 285.1012,-214.9414 289.4763,-209.477"/>
<text text-anchor="middle" x="351.8208" y="-486.8" font-family="Times,serif" font-size="14.00" fill="#000000">broadcast</text>
</g>
<!-- Reducer 9 -->
<g id="node13" class="node">
<title>Reducer 9</title>
<ellipse fill="none" stroke="#000000" cx="215" cy="-706" rx="46.4045" ry="18"/>
<text text-anchor="middle" x="215" y="-701.8" font-family="Times,serif" font-size="14.00" fill="#000000">Reducer 9</text>
</g>
<!-- Reducer 8&#45;&gt;Reducer 9 -->
<g id="edge9" class="edge">
<title>Reducer 8&#45;&gt;Reducer 9</title>
<path fill="none" stroke="#000000" d="M258.604,-774.1807C250.8091,-761.9924 240.349,-745.6367 231.6278,-731.9998"/>
<polygon fill="#000000" stroke="#000000" points="234.5296,-730.041 226.1933,-723.5022 228.6325,-733.8124 234.5296,-730.041"/>
<text text-anchor="middle" x="270.1069" y="-744.8" font-family="Times,serif" font-size="14.00" fill="#000000">unsorted</text>
</g>
<!-- Reducer 9&#45;&gt;Map 18 -->
<g id="edge17" class="edge">
<title>Reducer 9&#45;&gt;Map 18</title>
<path fill="none" stroke="#000000" d="M171.963,-699.3896C151.493,-694.3284 127.9327,-685.4623 111.3584,-670 104.9793,-664.0489 100.4224,-655.8779 97.2034,-647.8655"/>
<polygon fill="#000000" stroke="#000000" points="100.4827,-646.6387 93.908,-638.3307 93.8667,-648.9254 100.4827,-646.6387"/>
<text text-anchor="middle" x="138.8208" y="-658.8" font-family="Times,serif" font-size="14.00" fill="#000000">broadcast</text>
</g>
<!-- Reducer 9&#45;&gt;Map 11 -->
<g id="edge24" class="edge">
<title>Reducer 9&#45;&gt;Map 11</title>
<path fill="none" stroke="#000000" d="M218.7134,-687.9134C223.3785,-664.184 231.1216,-621.1872 234,-584 236.8843,-546.7359 233.1595,-503.6559 229.8859,-476.139"/>
<polygon fill="#000000" stroke="#000000" points="233.3385,-475.5411 228.6226,-466.0537 226.3927,-476.4112 233.3385,-475.5411"/>
<text text-anchor="middle" x="261.8208" y="-572.8" font-family="Times,serif" font-size="14.00" fill="#000000">broadcast</text>
</g>
<!-- Reducer 9&#45;&gt;Map 17 -->
<g id="edge19" class="edge">
<title>Reducer 9&#45;&gt;Map 17</title>
<path fill="none" stroke="#000000" d="M208.1255,-688.1051C199.3705,-664.583 184.4141,-621.81 176.3584,-584 167.0375,-540.2517 182.9121,-524.9872 165,-484 163.1669,-479.8055 160.6716,-475.7376 157.8874,-471.9387"/>
<polygon fill="#000000" stroke="#000000" points="160.5186,-469.6275 151.4757,-464.1069 155.1022,-474.0618 160.5186,-469.6275"/>
<text text-anchor="middle" x="203.8208" y="-572.8" font-family="Times,serif" font-size="14.00" fill="#000000">broadcast</text>
</g>
<!-- Reducer 12 -->
<g id="node15" class="node">
<title>Reducer 12</title>
<ellipse fill="none" stroke="#000000" cx="163" cy="-362" rx="50.7474" ry="18"/>
<text text-anchor="middle" x="163" y="-357.8" font-family="Times,serif" font-size="14.00" fill="#000000">Reducer 12</text>
</g>
<!-- Reducer 12&#45;&gt;Reducer 13 -->
<g id="edge12" class="edge">
<title>Reducer 12&#45;&gt;Reducer 13</title>
<path fill="none" stroke="#000000" d="M163,-343.7616C163,-332.3597 163,-317.4342 163,-304.494"/>
<polygon fill="#000000" stroke="#000000" points="166.5001,-304.2121 163,-294.2121 159.5001,-304.2121 166.5001,-304.2121"/>
<text text-anchor="middle" x="187.1069" y="-314.8" font-family="Times,serif" font-size="14.00" fill="#000000">unsorted</text>
</g>
<!-- Map 11&#45;&gt;Reducer 12 -->
<g id="edge13" class="edge">
<title>Map 11&#45;&gt;Reducer 12</title>
<path fill="none" stroke="#000000" d="M217.9285,-430.1258C213.0827,-420.2365 206.426,-407.9683 199,-398 196.0529,-394.0439 192.6797,-390.1017 189.2062,-386.3553"/>
<polygon fill="#000000" stroke="#000000" points="191.5251,-383.7197 182.0402,-378.9987 186.5108,-388.6042 191.5251,-383.7197"/>
<text text-anchor="middle" x="232.1069" y="-400.8" font-family="Times,serif" font-size="14.00" fill="#000000">unsorted</text>
</g>
<!-- Map 17&#45;&gt;Reducer 12 -->
<g id="edge14" class="edge">
<title>Map 17&#45;&gt;Reducer 12</title>
<path fill="none" stroke="#000000" d="M140.0465,-429.9436C143.2341,-420.4363 147.2139,-408.5846 150.7861,-398 151.7161,-395.2446 152.6877,-392.3712 153.6592,-389.5021"/>
<polygon fill="#000000" stroke="#000000" points="157.0044,-390.5358 156.9004,-379.9414 150.375,-388.2882 157.0044,-390.5358"/>
<text text-anchor="middle" x="175.1069" y="-400.8" font-family="Times,serif" font-size="14.00" fill="#000000">unsorted</text>
</g>
<!-- Map 10&#45;&gt;Reducer 7 -->
<g id="edge15" class="edge">
<title>Map 10&#45;&gt;Reducer 7</title>
<path fill="none" stroke="#000000" d="M436.6334,-946.6654C430.0514,-936.4828 420.923,-923.7413 411,-914 405.5592,-908.6588 399.2442,-903.5666 392.9296,-898.9812"/>
<polygon fill="#000000" stroke="#000000" points="394.613,-895.8893 384.401,-893.0667 390.6239,-901.6415 394.613,-895.8893"/>
<text text-anchor="middle" x="448.1069" y="-916.8" font-family="Times,serif" font-size="14.00" fill="#000000">unsorted</text>
</g>
<!-- Reducer 7&#45;&gt;Reducer 8 -->
<g id="edge22" class="edge">
<title>Reducer 7&#45;&gt;Reducer 8</title>
<path fill="none" stroke="#000000" d="M341.4165,-861.0092C328.1296,-848.1702 309.7146,-830.3759 294.9121,-816.0724"/>
<polygon fill="#000000" stroke="#000000" points="297.1704,-813.3875 287.547,-808.9555 292.3062,-818.4213 297.1704,-813.3875"/>
<text text-anchor="middle" x="337.1069" y="-830.8" font-family="Times,serif" font-size="14.00" fill="#000000">sorted</text>
</g>
</g>
</svg>
