<?xml version="1.0" encoding="UTF-8" standalone="no"?>
<!DOCTYPE svg PUBLIC "-//W3C//DTD SVG 1.1//EN"
 "http://www.w3.org/Graphics/SVG/1.1/DTD/svg11.dtd">
<!-- Generated by graphviz version 2.40.1 (20161225.0304)
 -->
<!-- Title: %3 Pages: 1 -->
<svg width="470pt" height="560pt"
 viewBox="0.00 0.00 469.64 560.00" xmlns="http://www.w3.org/2000/svg" xmlns:xlink="http://www.w3.org/1999/xlink">
<g id="graph0" class="graph" transform="scale(1 1) rotate(0) translate(4 556)">
<title>%3</title>
<polygon fill="#ffffff" stroke="transparent" points="-4,4 -4,-556 465.6416,-556 465.6416,4 -4,4"/>
<!-- Map 4 -->
<g id="node1" class="node">
<title>Map 4</title>
<ellipse fill="none" stroke="#000000" cx="137" cy="-534" rx="32.8992" ry="18"/>
<text text-anchor="middle" x="137" y="-529.8" font-family="Times,serif" font-size="14.00" fill="#000000">Map 4</text>
</g>
<!-- Map 7 -->
<g id="node2" class="node">
<title>Map 7</title>
<ellipse fill="none" stroke="#000000" cx="212" cy="-448" rx="32.8992" ry="18"/>
<text text-anchor="middle" x="212" y="-443.8" font-family="Times,serif" font-size="14.00" fill="#000000">Map 7</text>
</g>
<!-- Map 4&#45;&gt;Map 7 -->
<g id="edge1" class="edge">
<title>Map 4&#45;&gt;Map 7</title>
<path fill="none" stroke="#000000" d="M144.9004,-516.236C149.897,-506.148 156.9866,-493.648 165.3584,-484 170.3361,-478.2635 176.3499,-472.8263 182.3802,-467.9972"/>
<polygon fill="#000000" stroke="#000000" points="184.6701,-470.6531 190.5176,-461.8181 180.4368,-465.0782 184.6701,-470.6531"/>
<text text-anchor="middle" x="191.8208" y="-486.8" font-family="Times,serif" font-size="14.00" fill="#000000">broadcast</text>
</g>
<!-- Map 1 -->
<g id="node5" class="node">
<title>Map 1</title>
<ellipse fill="none" stroke="#000000" cx="175" cy="-190" rx="32.8992" ry="18"/>
<text text-anchor="middle" x="175" y="-185.8" font-family="Times,serif" font-size="14.00" fill="#000000">Map 1</text>
</g>
<!-- Map 4&#45;&gt;Map 1 -->
<g id="edge4" class="edge">
<title>Map 4&#45;&gt;Map 1</title>
<path fill="none" stroke="#000000" d="M105.2251,-528.5338C64.7539,-519.5393 0,-497.4254 0,-448 0,-448 0,-448 0,-276 0,-248.8743 12.7027,-241.4477 35,-226 50.8655,-215.0083 98.2077,-204.2287 133.4737,-197.3745"/>
<polygon fill="#000000" stroke="#000000" points="134.3525,-200.7701 143.5223,-195.463 133.0444,-193.8934 134.3525,-200.7701"/>
<text text-anchor="middle" x="26.8208" y="-357.8" font-family="Times,serif" font-size="14.00" fill="#000000">broadcast</text>
</g>
<!-- Reducer 8 -->
<g id="node8" class="node">
<title>Reducer 8</title>
<ellipse fill="none" stroke="#000000" cx="171" cy="-362" rx="46.4045" ry="18"/>
<text text-anchor="middle" x="171" y="-357.8" font-family="Times,serif" font-size="14.00" fill="#000000">Reducer 8</text>
</g>
<!-- Map 7&#45;&gt;Reducer 8 -->
<g id="edge14" class="edge">
<title>Map 7&#45;&gt;Reducer 8</title>
<path fill="none" stroke="#000000" d="M203.5048,-430.1807C197.8425,-418.3038 190.2936,-402.4695 183.8959,-389.05"/>
<polygon fill="#000000" stroke="#000000" points="186.9471,-387.3169 179.4843,-379.7964 180.6285,-390.3293 186.9471,-387.3169"/>
<text text-anchor="middle" x="210.1069" y="-400.8" font-family="Times,serif" font-size="14.00" fill="#000000">sorted</text>
</g>
<!-- Map 5 -->
<g id="node3" class="node">
<title>Map 5</title>
<ellipse fill="none" stroke="#000000" cx="238" cy="-534" rx="32.8992" ry="18"/>
<text text-anchor="middle" x="238" y="-529.8" font-family="Times,serif" font-size="14.00" fill="#000000">Map 5</text>
</g>
<!-- Map 5&#45;&gt;Map 7 -->
<g id="edge2" class="edge">
<title>Map 5&#45;&gt;Map 7</title>
<path fill="none" stroke="#000000" d="M232.6128,-516.1807C229.0569,-504.4191 224.3278,-488.7766 220.2963,-475.4416"/>
<polygon fill="#000000" stroke="#000000" points="223.6245,-474.3557 217.3803,-465.7964 216.924,-476.3814 223.6245,-474.3557"/>
<text text-anchor="middle" x="252.8208" y="-486.8" font-family="Times,serif" font-size="14.00" fill="#000000">broadcast</text>
</g>
<!-- Map 5&#45;&gt;Map 1 -->
<g id="edge5" class="edge">
<title>Map 5&#45;&gt;Map 1</title>
<path fill="none" stroke="#000000" d="M260.0776,-520.1473C268.3837,-514.1188 277.404,-506.4879 284,-498 298.8974,-478.8298 306,-472.2782 306,-448 306,-448 306,-448 306,-276 306,-232.295 254.415,-209.5764 215.986,-198.7156"/>
<polygon fill="#000000" stroke="#000000" points="216.6081,-195.2597 206.0452,-196.0815 214.8151,-202.0262 216.6081,-195.2597"/>
<text text-anchor="middle" x="332.8208" y="-357.8" font-family="Times,serif" font-size="14.00" fill="#000000">broadcast</text>
</g>
<!-- Map 6 -->
<g id="node4" class="node">
<title>Map 6</title>
<ellipse fill="none" stroke="#000000" cx="373" cy="-534" rx="32.8992" ry="18"/>
<text text-anchor="middle" x="373" y="-529.8" font-family="Times,serif" font-size="14.00" fill="#000000">Map 6</text>
</g>
<!-- Map 6&#45;&gt;Map 7 -->
<g id="edge3" class="edge">
<title>Map 6&#45;&gt;Map 7</title>
<path fill="none" stroke="#000000" d="M350.1169,-520.7437C332.239,-510.4845 306.7014,-496.0432 284,-484 271.7256,-477.4884 258.1255,-470.6048 246.0807,-464.6202"/>
<polygon fill="#000000" stroke="#000000" points="247.3251,-461.3311 236.8095,-460.0377 244.2234,-467.6064 247.3251,-461.3311"/>
<text text-anchor="middle" x="334.8208" y="-486.8" font-family="Times,serif" font-size="14.00" fill="#000000">broadcast</text>
</g>
<!-- Map 6&#45;&gt;Map 1 -->
<g id="edge6" class="edge">
<title>Map 6&#45;&gt;Map 1</title>
<path fill="none" stroke="#000000" d="M384.4603,-517.0375C394.6678,-500.2589 408,-473.4691 408,-448 408,-448 408,-448 408,-276 408,-235.787 284.3102,-208.5186 217.1713,-196.6793"/>
<polygon fill="#000000" stroke="#000000" points="217.3581,-193.1601 206.9091,-194.9121 216.17,-200.0585 217.3581,-193.1601"/>
<text text-anchor="middle" x="434.8208" y="-357.8" font-family="Times,serif" font-size="14.00" fill="#000000">broadcast</text>
</g>
<!-- Reducer 2 -->
<g id="node9" class="node">
<title>Reducer 2</title>
<ellipse fill="none" stroke="#000000" cx="54" cy="-104" rx="46.4045" ry="18"/>
<text text-anchor="middle" x="54" y="-99.8" font-family="Times,serif" font-size="14.00" fill="#000000">Reducer 2</text>
</g>
<!-- Map 1&#45;&gt;Reducer 2 -->
<g id="edge11" class="edge">
<title>Map 1&#45;&gt;Reducer 2</title>
<path fill="none" stroke="#000000" d="M154.7473,-175.6055C135.6228,-162.0129 106.6786,-141.441 84.7139,-125.8297"/>
<polygon fill="#000000" stroke="#000000" points="86.5537,-122.8434 76.3751,-119.903 82.4984,-128.5491 86.5537,-122.8434"/>
<text text-anchor="middle" x="139.1069" y="-142.8" font-family="Times,serif" font-size="14.00" fill="#000000">sorted</text>
</g>
<!-- Reducer 10 -->
<g id="node6" class="node">
<title>Reducer 10</title>
<ellipse fill="none" stroke="#000000" cx="227" cy="-276" rx="50.7474" ry="18"/>
<text text-anchor="middle" x="227" y="-271.8" font-family="Times,serif" font-size="14.00" fill="#000000">Reducer 10</text>
</g>
<!-- Reducer 10&#45;&gt;Map 1 -->
<g id="edge7" class="edge">
<title>Reducer 10&#45;&gt;Map 1</title>
<path fill="none" stroke="#000000" d="M216.2256,-258.1807C208.8777,-246.0286 199.025,-229.7336 190.7942,-216.1211"/>
<polygon fill="#000000" stroke="#000000" points="193.5751,-213.9559 185.4058,-207.2096 187.585,-217.5779 193.5751,-213.9559"/>
<text text-anchor="middle" x="230.8208" y="-228.8" font-family="Times,serif" font-size="14.00" fill="#000000">broadcast</text>
</g>
<!-- Reducer 9 -->
<g id="node7" class="node">
<title>Reducer 9</title>
<ellipse fill="none" stroke="#000000" cx="112" cy="-276" rx="46.4045" ry="18"/>
<text text-anchor="middle" x="112" y="-271.8" font-family="Times,serif" font-size="14.00" fill="#000000">Reducer 9</text>
</g>
<!-- Reducer 9&#45;&gt;Map 1 -->
<g id="edge8" class="edge">
<title>Reducer 9&#45;&gt;Map 1</title>
<path fill="none" stroke="#000000" d="M120.2355,-258.1475C125.1634,-248.265 131.9074,-235.9964 139.3584,-226 142.7091,-221.5046 146.6013,-217.0157 150.5574,-212.8088"/>
<polygon fill="#000000" stroke="#000000" points="153.1294,-215.1851 157.6444,-205.6004 148.1377,-210.2775 153.1294,-215.1851"/>
<text text-anchor="middle" x="166.8208" y="-228.8" font-family="Times,serif" font-size="14.00" fill="#000000">broadcast</text>
</g>
<!-- Reducer 8&#45;&gt;Reducer 10 -->
<g id="edge9" class="edge">
<title>Reducer 8&#45;&gt;Reducer 10</title>
<path fill="none" stroke="#000000" d="M182.6032,-344.1807C190.4872,-332.0732 201.0491,-315.8531 209.8933,-302.2711"/>
<polygon fill="#000000" stroke="#000000" points="212.8879,-304.0863 215.4116,-293.7964 207.0219,-300.2666 212.8879,-304.0863"/>
<text text-anchor="middle" x="226.1069" y="-314.8" font-family="Times,serif" font-size="14.00" fill="#000000">unsorted</text>
</g>
<!-- Reducer 8&#45;&gt;Reducer 9 -->
<g id="edge13" class="edge">
<title>Reducer 8&#45;&gt;Reducer 9</title>
<path fill="none" stroke="#000000" d="M156.8185,-344.7214C152.1993,-338.882 147.1426,-332.2556 142.7861,-326 137.5939,-318.5444 132.2855,-310.2198 127.5712,-302.5349"/>
<polygon fill="#000000" stroke="#000000" points="130.5197,-300.6468 122.3525,-293.8979 124.5284,-304.2669 130.5197,-300.6468"/>
<text text-anchor="middle" x="167.1069" y="-314.8" font-family="Times,serif" font-size="14.00" fill="#000000">unsorted</text>
</g>
<!-- Reducer 8&#45;&gt;Reducer 2 -->
<g id="edge12" class="edge">
<title>Reducer 8&#45;&gt;Reducer 2</title>
<path fill="none" stroke="#000000" d="M134.4488,-350.9428C107.8446,-340.7754 73.6725,-322.826 57,-294 27.572,-243.1204 37.6522,-171.0331 46.5022,-131.9013"/>
<polygon fill="#000000" stroke="#000000" points="49.9455,-132.5513 48.874,-122.0108 43.1385,-130.9189 49.9455,-132.5513"/>
<text text-anchor="middle" x="66.8208" y="-228.8" font-family="Times,serif" font-size="14.00" fill="#000000">broadcast</text>
</g>
<!-- Reducer 3 -->
<g id="node10" class="node">
<title>Reducer 3</title>
<ellipse fill="none" stroke="#000000" cx="54" cy="-18" rx="46.4045" ry="18"/>
<text text-anchor="middle" x="54" y="-13.8" font-family="Times,serif" font-size="14.00" fill="#000000">Reducer 3</text>
</g>
<!-- Reducer 2&#45;&gt;Reducer 3 -->
<g id="edge10" class="edge">
<title>Reducer 2&#45;&gt;Reducer 3</title>
<path fill="none" stroke="#000000" d="M54,-85.7616C54,-74.3597 54,-59.4342 54,-46.494"/>
<polygon fill="#000000" stroke="#000000" points="57.5001,-46.2121 54,-36.2121 50.5001,-46.2121 57.5001,-46.2121"/>
<text text-anchor="middle" x="71.1069" y="-56.8" font-family="Times,serif" font-size="14.00" fill="#000000">sorted</text>
</g>
</g>
</svg>
