<?xml version="1.0" encoding="UTF-8" standalone="no"?>
<!DOCTYPE svg PUBLIC "-//W3C//DTD SVG 1.1//EN"
 "http://www.w3.org/Graphics/SVG/1.1/DTD/svg11.dtd">
<!-- Generated by graphviz version 2.40.1 (20161225.0304)
 -->
<!-- Title: %3 Pages: 1 -->
<svg width="424pt" height="560pt"
 viewBox="0.00 0.00 424.15 560.00" xmlns="http://www.w3.org/2000/svg" xmlns:xlink="http://www.w3.org/1999/xlink">
<g id="graph0" class="graph" transform="scale(1 1) rotate(0) translate(4 556)">
<title>%3</title>
<polygon fill="#ffffff" stroke="transparent" points="-4,4 -4,-556 420.1514,-556 420.1514,4 -4,4"/>
<!-- Reducer 2 -->
<g id="node1" class="node">
<title>Reducer 2</title>
<ellipse fill="none" stroke="#000000" cx="46.2018" cy="-362" rx="46.4045" ry="18"/>
<text text-anchor="middle" x="46.2018" y="-357.8" font-family="Times,serif" font-size="14.00" fill="#000000">Reducer 2</text>
</g>
<!-- Map 5 -->
<g id="node2" class="node">
<title>Map 5</title>
<ellipse fill="none" stroke="#000000" cx="153.2018" cy="-276" rx="32.8992" ry="18"/>
<text text-anchor="middle" x="153.2018" y="-271.8" font-family="Times,serif" font-size="14.00" fill="#000000">Map 5</text>
</g>
<!-- Reducer 2&#45;&gt;Map 5 -->
<g id="edge1" class="edge">
<title>Reducer 2&#45;&gt;Map 5</title>
<path fill="none" stroke="#000000" d="M61.6964,-344.8504C71.2556,-334.7335 84.0461,-321.996 96.5602,-312 104.3305,-305.7932 113.2157,-299.7235 121.6086,-294.3893"/>
<polygon fill="#000000" stroke="#000000" points="123.4525,-297.3643 130.1094,-289.1219 119.7654,-291.414 123.4525,-297.3643"/>
<text text-anchor="middle" x="124.0226" y="-314.8" font-family="Times,serif" font-size="14.00" fill="#000000">broadcast</text>
</g>
<!-- Reducer 6 -->
<g id="node6" class="node">
<title>Reducer 6</title>
<ellipse fill="none" stroke="#000000" cx="262.2018" cy="-190" rx="46.4045" ry="18"/>
<text text-anchor="middle" x="262.2018" y="-185.8" font-family="Times,serif" font-size="14.00" fill="#000000">Reducer 6</text>
</g>
<!-- Map 5&#45;&gt;Reducer 6 -->
<g id="edge7" class="edge">
<title>Map 5&#45;&gt;Reducer 6</title>
<path fill="none" stroke="#000000" d="M154.613,-257.8628C156.3072,-247.3958 159.9953,-234.6371 167.9879,-226 179.1095,-213.9818 194.6777,-205.9401 209.9598,-200.5734"/>
<polygon fill="#000000" stroke="#000000" points="211.437,-203.7769 219.9115,-197.4182 209.3213,-197.1042 211.437,-203.7769"/>
<text text-anchor="middle" x="192.3087" y="-228.8" font-family="Times,serif" font-size="14.00" fill="#000000">unsorted</text>
</g>
<!-- Reducer 3 -->
<g id="node3" class="node">
<title>Reducer 3</title>
<ellipse fill="none" stroke="#000000" cx="156.2018" cy="-362" rx="46.4045" ry="18"/>
<text text-anchor="middle" x="156.2018" y="-357.8" font-family="Times,serif" font-size="14.00" fill="#000000">Reducer 3</text>
</g>
<!-- Reducer 3&#45;&gt;Map 5 -->
<g id="edge2" class="edge">
<title>Reducer 3&#45;&gt;Map 5</title>
<path fill="none" stroke="#000000" d="M155.3015,-343.6886C155.0403,-338.0194 154.7695,-331.7522 154.5602,-326 154.3044,-318.9694 154.0745,-311.3812 153.8797,-304.2924"/>
<polygon fill="#000000" stroke="#000000" points="157.3723,-303.9594 153.6121,-294.0543 150.3746,-304.1423 157.3723,-303.9594"/>
<text text-anchor="middle" x="182.0226" y="-314.8" font-family="Times,serif" font-size="14.00" fill="#000000">broadcast</text>
</g>
<!-- Map 4 -->
<g id="node4" class="node">
<title>Map 4</title>
<ellipse fill="none" stroke="#000000" cx="156.2018" cy="-534" rx="32.8992" ry="18"/>
<text text-anchor="middle" x="156.2018" y="-529.8" font-family="Times,serif" font-size="14.00" fill="#000000">Map 4</text>
</g>
<!-- Map 1 -->
<g id="node5" class="node">
<title>Map 1</title>
<ellipse fill="none" stroke="#000000" cx="156.2018" cy="-448" rx="32.8992" ry="18"/>
<text text-anchor="middle" x="156.2018" y="-443.8" font-family="Times,serif" font-size="14.00" fill="#000000">Map 1</text>
</g>
<!-- Map 4&#45;&gt;Map 1 -->
<g id="edge3" class="edge">
<title>Map 4&#45;&gt;Map 1</title>
<path fill="none" stroke="#000000" d="M156.2018,-515.7616C156.2018,-504.3597 156.2018,-489.4342 156.2018,-476.494"/>
<polygon fill="#000000" stroke="#000000" points="159.7019,-476.2121 156.2018,-466.2121 152.7019,-476.2121 159.7019,-476.2121"/>
<text text-anchor="middle" x="183.0226" y="-486.8" font-family="Times,serif" font-size="14.00" fill="#000000">broadcast</text>
</g>
<!-- Map 1&#45;&gt;Reducer 2 -->
<g id="edge10" class="edge">
<title>Map 1&#45;&gt;Reducer 2</title>
<path fill="none" stroke="#000000" d="M134.9927,-434.1481C125.356,-427.6596 113.9159,-419.6806 103.9879,-412 93.2245,-403.673 81.8088,-393.9913 71.9917,-385.3776"/>
<polygon fill="#000000" stroke="#000000" points="74.3105,-382.7559 64.5043,-378.7447 69.6688,-387.9957 74.3105,-382.7559"/>
<text text-anchor="middle" x="128.3087" y="-400.8" font-family="Times,serif" font-size="14.00" fill="#000000">unsorted</text>
</g>
<!-- Map 1&#45;&gt;Reducer 3 -->
<g id="edge9" class="edge">
<title>Map 1&#45;&gt;Reducer 3</title>
<path fill="none" stroke="#000000" d="M156.2018,-429.7616C156.2018,-418.3597 156.2018,-403.4342 156.2018,-390.494"/>
<polygon fill="#000000" stroke="#000000" points="159.7019,-390.2121 156.2018,-380.2121 152.7019,-390.2121 159.7019,-390.2121"/>
<text text-anchor="middle" x="180.3087" y="-400.8" font-family="Times,serif" font-size="14.00" fill="#000000">unsorted</text>
</g>
<!-- Map 1&#45;&gt;Reducer 6 -->
<g id="edge5" class="edge">
<title>Map 1&#45;&gt;Reducer 6</title>
<path fill="none" stroke="#000000" d="M180.9767,-435.9423C190.8002,-430.002 201.3627,-421.9553 208.2018,-412 219.2266,-395.9517 245.1055,-273.9289 256.5676,-217.9317"/>
<polygon fill="#000000" stroke="#000000" points="260.0296,-218.4711 258.5963,-207.9736 253.1705,-217.0736 260.0296,-218.4711"/>
<text text-anchor="middle" x="260.3087" y="-314.8" font-family="Times,serif" font-size="14.00" fill="#000000">unsorted</text>
</g>
<!-- Reducer 7 -->
<g id="node7" class="node">
<title>Reducer 7</title>
<ellipse fill="none" stroke="#000000" cx="262.2018" cy="-104" rx="46.4045" ry="18"/>
<text text-anchor="middle" x="262.2018" y="-99.8" font-family="Times,serif" font-size="14.00" fill="#000000">Reducer 7</text>
</g>
<!-- Reducer 6&#45;&gt;Reducer 7 -->
<g id="edge4" class="edge">
<title>Reducer 6&#45;&gt;Reducer 7</title>
<path fill="none" stroke="#000000" d="M262.2018,-171.7616C262.2018,-160.3597 262.2018,-145.4342 262.2018,-132.494"/>
<polygon fill="#000000" stroke="#000000" points="265.7019,-132.2121 262.2018,-122.2121 258.7019,-132.2121 265.7019,-132.2121"/>
<text text-anchor="middle" x="279.3087" y="-142.8" font-family="Times,serif" font-size="14.00" fill="#000000">sorted</text>
</g>
<!-- Reducer 8 -->
<g id="node10" class="node">
<title>Reducer 8</title>
<ellipse fill="none" stroke="#000000" cx="262.2018" cy="-18" rx="46.4045" ry="18"/>
<text text-anchor="middle" x="262.2018" y="-13.8" font-family="Times,serif" font-size="14.00" fill="#000000">Reducer 8</text>
</g>
<!-- Reducer 7&#45;&gt;Reducer 8 -->
<g id="edge11" class="edge">
<title>Reducer 7&#45;&gt;Reducer 8</title>
<path fill="none" stroke="#000000" d="M262.2018,-85.7616C262.2018,-74.3597 262.2018,-59.4342 262.2018,-46.494"/>
<polygon fill="#000000" stroke="#000000" points="265.7019,-46.2121 262.2018,-36.2121 258.7019,-46.2121 265.7019,-46.2121"/>
<text text-anchor="middle" x="279.3087" y="-56.8" font-family="Times,serif" font-size="14.00" fill="#000000">sorted</text>
</g>
<!-- Map 10 -->
<g id="node8" class="node">
<title>Map 10</title>
<ellipse fill="none" stroke="#000000" cx="295.2018" cy="-276" rx="37.243" ry="18"/>
<text text-anchor="middle" x="295.2018" y="-271.8" font-family="Times,serif" font-size="14.00" fill="#000000">Map 10</text>
</g>
<!-- Map 10&#45;&gt;Reducer 6 -->
<g id="edge6" class="edge">
<title>Map 10&#45;&gt;Reducer 6</title>
<path fill="none" stroke="#000000" d="M288.3642,-258.1807C283.8811,-246.4975 277.9286,-230.985 272.8342,-217.7086"/>
<polygon fill="#000000" stroke="#000000" points="275.9945,-216.1747 269.1442,-208.0923 269.4591,-218.6825 275.9945,-216.1747"/>
<text text-anchor="middle" x="307.0226" y="-228.8" font-family="Times,serif" font-size="14.00" fill="#000000">broadcast</text>
</g>
<!-- Map 9 -->
<g id="node9" class="node">
<title>Map 9</title>
<ellipse fill="none" stroke="#000000" cx="383.2018" cy="-276" rx="32.8992" ry="18"/>
<text text-anchor="middle" x="383.2018" y="-271.8" font-family="Times,serif" font-size="14.00" fill="#000000">Map 9</text>
</g>
<!-- Map 9&#45;&gt;Reducer 6 -->
<g id="edge8" class="edge">
<title>Map 9&#45;&gt;Reducer 6</title>
<path fill="none" stroke="#000000" d="M370.8338,-259.1255C362.4934,-248.609 350.7523,-235.3479 338.2018,-226 328.2309,-218.5735 316.4841,-212.1043 305.246,-206.7773"/>
<polygon fill="#000000" stroke="#000000" points="306.5289,-203.516 295.9759,-202.5753 303.6389,-209.8916 306.5289,-203.516"/>
<text text-anchor="middle" x="380.0226" y="-228.8" font-family="Times,serif" font-size="14.00" fill="#000000">broadcast</text>
</g>
</g>
</svg>
