<?xml version="1.0" encoding="UTF-8" standalone="no"?>
<!DOCTYPE svg PUBLIC "-//W3C//DTD SVG 1.1//EN"
 "http://www.w3.org/Graphics/SVG/1.1/DTD/svg11.dtd">
<!-- Generated by graphviz version 2.40.1 (20161225.0304)
 -->
<!-- Title: %3 Pages: 1 -->
<svg width="339pt" height="646pt"
 viewBox="0.00 0.00 339.15 646.00" xmlns="http://www.w3.org/2000/svg" xmlns:xlink="http://www.w3.org/1999/xlink">
<g id="graph0" class="graph" transform="scale(1 1) rotate(0) translate(4 642)">
<title>%3</title>
<polygon fill="#ffffff" stroke="transparent" points="-4,4 -4,-642 335.1514,-642 335.1514,4 -4,4"/>
<!-- Map 7 -->
<g id="node1" class="node">
<title>Map 7</title>
<ellipse fill="none" stroke="#000000" cx="32.9496" cy="-362" rx="32.8992" ry="18"/>
<text text-anchor="middle" x="32.9496" y="-357.8" font-family="Times,serif" font-size="14.00" fill="#000000">Map 7</text>
</g>
<!-- Map 6 -->
<g id="node2" class="node">
<title>Map 6</title>
<ellipse fill="none" stroke="#000000" cx="32.9496" cy="-276" rx="32.8992" ry="18"/>
<text text-anchor="middle" x="32.9496" y="-271.8" font-family="Times,serif" font-size="14.00" fill="#000000">Map 6</text>
</g>
<!-- Map 7&#45;&gt;Map 6 -->
<g id="edge1" class="edge">
<title>Map 7&#45;&gt;Map 6</title>
<path fill="none" stroke="#000000" d="M32.9496,-343.7616C32.9496,-332.3597 32.9496,-317.4342 32.9496,-304.494"/>
<polygon fill="#000000" stroke="#000000" points="36.4497,-304.2121 32.9496,-294.2121 29.4497,-304.2121 36.4497,-304.2121"/>
<text text-anchor="middle" x="59.7704" y="-314.8" font-family="Times,serif" font-size="14.00" fill="#000000">broadcast</text>
</g>
<!-- Map 8 -->
<g id="node8" class="node">
<title>Map 8</title>
<ellipse fill="none" stroke="#000000" cx="120.9496" cy="-190" rx="32.8992" ry="18"/>
<text text-anchor="middle" x="120.9496" y="-185.8" font-family="Times,serif" font-size="14.00" fill="#000000">Map 8</text>
</g>
<!-- Map 6&#45;&gt;Map 8 -->
<g id="edge5" class="edge">
<title>Map 6&#45;&gt;Map 8</title>
<path fill="none" stroke="#000000" d="M41.0316,-258.4128C46.3481,-248.1407 54.0318,-235.3938 63.308,-226 70.3222,-218.8968 78.9964,-212.5565 87.467,-207.2507"/>
<polygon fill="#000000" stroke="#000000" points="89.3255,-210.2178 96.1426,-202.1073 85.7557,-204.1964 89.3255,-210.2178"/>
<text text-anchor="middle" x="90.7704" y="-228.8" font-family="Times,serif" font-size="14.00" fill="#000000">broadcast</text>
</g>
<!-- Reducer 5 -->
<g id="node3" class="node">
<title>Reducer 5</title>
<ellipse fill="none" stroke="#000000" cx="205.9496" cy="-534" rx="46.4045" ry="18"/>
<text text-anchor="middle" x="205.9496" y="-529.8" font-family="Times,serif" font-size="14.00" fill="#000000">Reducer 5</text>
</g>
<!-- Map 1 -->
<g id="node4" class="node">
<title>Map 1</title>
<ellipse fill="none" stroke="#000000" cx="205.9496" cy="-448" rx="32.8992" ry="18"/>
<text text-anchor="middle" x="205.9496" y="-443.8" font-family="Times,serif" font-size="14.00" fill="#000000">Map 1</text>
</g>
<!-- Reducer 5&#45;&gt;Map 1 -->
<g id="edge2" class="edge">
<title>Reducer 5&#45;&gt;Map 1</title>
<path fill="none" stroke="#000000" d="M205.9496,-515.7616C205.9496,-504.3597 205.9496,-489.4342 205.9496,-476.494"/>
<polygon fill="#000000" stroke="#000000" points="209.4497,-476.2121 205.9496,-466.2121 202.4497,-476.2121 209.4497,-476.2121"/>
<text text-anchor="middle" x="232.7704" y="-486.8" font-family="Times,serif" font-size="14.00" fill="#000000">broadcast</text>
</g>
<!-- Reducer 2 -->
<g id="node9" class="node">
<title>Reducer 2</title>
<ellipse fill="none" stroke="#000000" cx="221.9496" cy="-276" rx="46.4045" ry="18"/>
<text text-anchor="middle" x="221.9496" y="-271.8" font-family="Times,serif" font-size="14.00" fill="#000000">Reducer 2</text>
</g>
<!-- Map 1&#45;&gt;Reducer 2 -->
<g id="edge9" class="edge">
<title>Map 1&#45;&gt;Reducer 2</title>
<path fill="none" stroke="#000000" d="M202.4579,-429.8462C198.9992,-408.9981 194.8542,-373.8293 199.6253,-344 201.8178,-330.2926 206.3483,-315.5988 210.7585,-303.3899"/>
<polygon fill="#000000" stroke="#000000" points="214.1232,-304.3869 214.3809,-293.7952 207.5744,-301.9144 214.1232,-304.3869"/>
<text text-anchor="middle" x="215.1117" y="-357.8" font-family="Times,serif" font-size="14.00" fill="#000000">None</text>
</g>
<!-- Reducer 3 -->
<g id="node11" class="node">
<title>Reducer 3</title>
<ellipse fill="none" stroke="#000000" cx="284.9496" cy="-362" rx="46.4045" ry="18"/>
<text text-anchor="middle" x="284.9496" y="-357.8" font-family="Times,serif" font-size="14.00" fill="#000000">Reducer 3</text>
</g>
<!-- Map 1&#45;&gt;Reducer 3 -->
<g id="edge8" class="edge">
<title>Map 1&#45;&gt;Reducer 3</title>
<path fill="none" stroke="#000000" d="M220.8089,-431.8241C232.4997,-419.0974 248.9852,-401.151 262.3155,-386.6396"/>
<polygon fill="#000000" stroke="#000000" points="265.1587,-388.7182 269.3461,-378.986 260.0035,-383.9827 265.1587,-388.7182"/>
<text text-anchor="middle" x="267.0565" y="-400.8" font-family="Times,serif" font-size="14.00" fill="#000000">sorted</text>
</g>
<!-- Reducer 9 -->
<g id="node5" class="node">
<title>Reducer 9</title>
<ellipse fill="none" stroke="#000000" cx="120.9496" cy="-104" rx="46.4045" ry="18"/>
<text text-anchor="middle" x="120.9496" y="-99.8" font-family="Times,serif" font-size="14.00" fill="#000000">Reducer 9</text>
</g>
<!-- Reducer 10 -->
<g id="node6" class="node">
<title>Reducer 10</title>
<ellipse fill="none" stroke="#000000" cx="120.9496" cy="-18" rx="50.7474" ry="18"/>
<text text-anchor="middle" x="120.9496" y="-13.8" font-family="Times,serif" font-size="14.00" fill="#000000">Reducer 10</text>
</g>
<!-- Reducer 9&#45;&gt;Reducer 10 -->
<g id="edge3" class="edge">
<title>Reducer 9&#45;&gt;Reducer 10</title>
<path fill="none" stroke="#000000" d="M120.9496,-85.7616C120.9496,-74.3597 120.9496,-59.4342 120.9496,-46.494"/>
<polygon fill="#000000" stroke="#000000" points="124.4497,-46.2121 120.9496,-36.2121 117.4497,-46.2121 124.4497,-46.2121"/>
<text text-anchor="middle" x="138.0565" y="-56.8" font-family="Times,serif" font-size="14.00" fill="#000000">sorted</text>
</g>
<!-- Map 11 -->
<g id="node7" class="node">
<title>Map 11</title>
<ellipse fill="none" stroke="#000000" cx="120.9496" cy="-276" rx="37.0949" ry="18"/>
<text text-anchor="middle" x="120.9496" y="-271.8" font-family="Times,serif" font-size="14.00" fill="#000000">Map 11</text>
</g>
<!-- Map 11&#45;&gt;Map 8 -->
<g id="edge4" class="edge">
<title>Map 11&#45;&gt;Map 8</title>
<path fill="none" stroke="#000000" d="M120.9496,-257.7616C120.9496,-246.3597 120.9496,-231.4342 120.9496,-218.494"/>
<polygon fill="#000000" stroke="#000000" points="124.4497,-218.2121 120.9496,-208.2121 117.4497,-218.2121 124.4497,-218.2121"/>
<text text-anchor="middle" x="147.7704" y="-228.8" font-family="Times,serif" font-size="14.00" fill="#000000">broadcast</text>
</g>
<!-- Map 8&#45;&gt;Reducer 9 -->
<g id="edge11" class="edge">
<title>Map 8&#45;&gt;Reducer 9</title>
<path fill="none" stroke="#000000" d="M120.9496,-171.7616C120.9496,-160.3597 120.9496,-145.4342 120.9496,-132.494"/>
<polygon fill="#000000" stroke="#000000" points="124.4497,-132.2121 120.9496,-122.2121 117.4497,-132.2121 124.4497,-132.2121"/>
<text text-anchor="middle" x="138.0565" y="-142.8" font-family="Times,serif" font-size="14.00" fill="#000000">sorted</text>
</g>
<!-- Reducer 2&#45;&gt;Map 8 -->
<g id="edge6" class="edge">
<title>Reducer 2&#45;&gt;Map 8</title>
<path fill="none" stroke="#000000" d="M209.1705,-258.6203C201.1681,-248.4218 190.2562,-235.6793 178.9496,-226 171.2653,-219.4217 162.2578,-213.2282 153.6636,-207.8941"/>
<polygon fill="#000000" stroke="#000000" points="155.3078,-204.7992 144.9298,-202.6664 151.7126,-210.8055 155.3078,-204.7992"/>
<text text-anchor="middle" x="220.7704" y="-228.8" font-family="Times,serif" font-size="14.00" fill="#000000">broadcast</text>
</g>
<!-- Map 4 -->
<g id="node10" class="node">
<title>Map 4</title>
<ellipse fill="none" stroke="#000000" cx="205.9496" cy="-620" rx="32.8992" ry="18"/>
<text text-anchor="middle" x="205.9496" y="-615.8" font-family="Times,serif" font-size="14.00" fill="#000000">Map 4</text>
</g>
<!-- Map 4&#45;&gt;Reducer 5 -->
<g id="edge7" class="edge">
<title>Map 4&#45;&gt;Reducer 5</title>
<path fill="none" stroke="#000000" d="M205.9496,-601.7616C205.9496,-590.3597 205.9496,-575.4342 205.9496,-562.494"/>
<polygon fill="#000000" stroke="#000000" points="209.4497,-562.2121 205.9496,-552.2121 202.4497,-562.2121 209.4497,-562.2121"/>
<text text-anchor="middle" x="223.0565" y="-572.8" font-family="Times,serif" font-size="14.00" fill="#000000">sorted</text>
</g>
<!-- Reducer 3&#45;&gt;Reducer 2 -->
<g id="edge10" class="edge">
<title>Reducer 3&#45;&gt;Reducer 2</title>
<path fill="none" stroke="#000000" d="M272.2006,-344.5966C263.149,-332.2405 250.8496,-315.4509 240.6847,-301.575"/>
<polygon fill="#000000" stroke="#000000" points="243.4127,-299.3762 234.6796,-293.3775 237.7657,-303.5129 243.4127,-299.3762"/>
<text text-anchor="middle" x="272.1117" y="-314.8" font-family="Times,serif" font-size="14.00" fill="#000000">None</text>
</g>
</g>
</svg>
