<?xml version="1.0" encoding="UTF-8" standalone="no"?>
<!DOCTYPE svg PUBLIC "-//W3C//DTD SVG 1.1//EN"
 "http://www.w3.org/Graphics/SVG/1.1/DTD/svg11.dtd">
<!-- Generated by graphviz version 2.40.1 (20161225.0304)
 -->
<!-- Title: %3 Pages: 1 -->
<svg width="662pt" height="474pt"
 viewBox="0.00 0.00 661.54 474.00" xmlns="http://www.w3.org/2000/svg" xmlns:xlink="http://www.w3.org/1999/xlink">
<g id="graph0" class="graph" transform="scale(1 1) rotate(0) translate(4 470)">
<title>%3</title>
<polygon fill="#ffffff" stroke="transparent" points="-4,4 -4,-470 657.5376,-470 657.5376,4 -4,4"/>
<!-- Map 4 -->
<g id="node1" class="node">
<title>Map 4</title>
<ellipse fill="none" stroke="#000000" cx="152.896" cy="-448" rx="32.8992" ry="18"/>
<text text-anchor="middle" x="152.896" y="-443.8" font-family="Times,serif" font-size="14.00" fill="#000000">Map 4</text>
</g>
<!-- Map 7 -->
<g id="node2" class="node">
<title>Map 7</title>
<ellipse fill="none" stroke="#000000" cx="233.896" cy="-362" rx="32.8992" ry="18"/>
<text text-anchor="middle" x="233.896" y="-357.8" font-family="Times,serif" font-size="14.00" fill="#000000">Map 7</text>
</g>
<!-- Map 4&#45;&gt;Map 7 -->
<g id="edge1" class="edge">
<title>Map 4&#45;&gt;Map 7</title>
<path fill="none" stroke="#000000" d="M158.4773,-429.8859C162.2843,-419.6812 168.1239,-407.1812 176.2544,-398 182.8727,-390.5265 191.4126,-384.0606 199.881,-378.7527"/>
<polygon fill="#000000" stroke="#000000" points="201.7374,-381.7216 208.5966,-373.6468 198.199,-375.6817 201.7374,-381.7216"/>
<text text-anchor="middle" x="202.7168" y="-400.8" font-family="Times,serif" font-size="14.00" fill="#000000">broadcast</text>
</g>
<!-- Map 1 -->
<g id="node5" class="node">
<title>Map 1</title>
<ellipse fill="none" stroke="#000000" cx="425.896" cy="-362" rx="32.8992" ry="18"/>
<text text-anchor="middle" x="425.896" y="-357.8" font-family="Times,serif" font-size="14.00" fill="#000000">Map 1</text>
</g>
<!-- Map 4&#45;&gt;Map 1 -->
<g id="edge4" class="edge">
<title>Map 4&#45;&gt;Map 1</title>
<path fill="none" stroke="#000000" d="M177.7829,-435.8869C183.3092,-433.6086 189.2152,-431.4801 194.896,-430 268.847,-410.732 295.5029,-441.7458 365.896,-412 370.0588,-410.241 386.1569,-396.7549 400.6309,-384.2325"/>
<polygon fill="#000000" stroke="#000000" points="403.1727,-386.6602 408.4188,-377.4553 398.5775,-381.3797 403.1727,-386.6602"/>
<text text-anchor="middle" x="410.7168" y="-400.8" font-family="Times,serif" font-size="14.00" fill="#000000">broadcast</text>
</g>
<!-- Map 12 -->
<g id="node12" class="node">
<title>Map 12</title>
<ellipse fill="none" stroke="#000000" cx="84.896" cy="-362" rx="37.243" ry="18"/>
<text text-anchor="middle" x="84.896" y="-357.8" font-family="Times,serif" font-size="14.00" fill="#000000">Map 12</text>
</g>
<!-- Map 4&#45;&gt;Map 12 -->
<g id="edge17" class="edge">
<title>Map 4&#45;&gt;Map 12</title>
<path fill="none" stroke="#000000" d="M120.2902,-444.7531C80.9814,-440.0869 18.4143,-429.9987 4.2544,-412 -9.9252,-393.9763 15.1651,-380.7691 41.008,-372.47"/>
<polygon fill="#000000" stroke="#000000" points="42.2861,-375.7413 50.8691,-369.5298 40.2859,-369.0331 42.2861,-375.7413"/>
<text text-anchor="middle" x="31.7168" y="-400.8" font-family="Times,serif" font-size="14.00" fill="#000000">broadcast</text>
</g>
<!-- Reducer 8 -->
<g id="node13" class="node">
<title>Reducer 8</title>
<ellipse fill="none" stroke="#000000" cx="233.896" cy="-276" rx="46.4045" ry="18"/>
<text text-anchor="middle" x="233.896" y="-271.8" font-family="Times,serif" font-size="14.00" fill="#000000">Reducer 8</text>
</g>
<!-- Map 7&#45;&gt;Reducer 8 -->
<g id="edge13" class="edge">
<title>Map 7&#45;&gt;Reducer 8</title>
<path fill="none" stroke="#000000" d="M233.896,-343.7616C233.896,-332.3597 233.896,-317.4342 233.896,-304.494"/>
<polygon fill="#000000" stroke="#000000" points="237.3961,-304.2121 233.896,-294.2121 230.3961,-304.2121 237.3961,-304.2121"/>
<text text-anchor="middle" x="251.003" y="-314.8" font-family="Times,serif" font-size="14.00" fill="#000000">sorted</text>
</g>
<!-- Map 5 -->
<g id="node3" class="node">
<title>Map 5</title>
<ellipse fill="none" stroke="#000000" cx="541.896" cy="-448" rx="32.8992" ry="18"/>
<text text-anchor="middle" x="541.896" y="-443.8" font-family="Times,serif" font-size="14.00" fill="#000000">Map 5</text>
</g>
<!-- Map 5&#45;&gt;Map 7 -->
<g id="edge2" class="edge">
<title>Map 5&#45;&gt;Map 7</title>
<path fill="none" stroke="#000000" d="M533.4668,-430.2589C527.1978,-419.1062 517.546,-405.4612 504.896,-398 500.0094,-395.1178 351.1684,-376.4491 276.1935,-367.1903"/>
<polygon fill="#000000" stroke="#000000" points="276.4803,-363.6993 266.1271,-365.949 275.6235,-370.6466 276.4803,-363.6993"/>
<text text-anchor="middle" x="546.7168" y="-400.8" font-family="Times,serif" font-size="14.00" fill="#000000">broadcast</text>
</g>
<!-- Map 5&#45;&gt;Map 1 -->
<g id="edge5" class="edge">
<title>Map 5&#45;&gt;Map 1</title>
<path fill="none" stroke="#000000" d="M568.6491,-437.1131C588.1133,-427.6139 609.0923,-413.0313 596.896,-398 581.0684,-378.4933 514.1629,-369.1593 468.8848,-364.9996"/>
<polygon fill="#000000" stroke="#000000" points="468.997,-361.4963 458.732,-364.1193 468.3923,-368.4701 468.997,-361.4963"/>
<text text-anchor="middle" x="626.7168" y="-400.8" font-family="Times,serif" font-size="14.00" fill="#000000">broadcast</text>
</g>
<!-- Map 5&#45;&gt;Map 12 -->
<g id="edge18" class="edge">
<title>Map 5&#45;&gt;Map 12</title>
<path fill="none" stroke="#000000" d="M509.1951,-444.8749C453.8006,-439.2644 344.0387,-426.6885 308.2544,-412 298.4318,-407.9681 298.6741,-402.1387 288.896,-398 285.2445,-396.4544 189.7558,-379.9443 130.7328,-369.8275"/>
<polygon fill="#000000" stroke="#000000" points="130.9709,-366.3174 120.5235,-368.079 129.7892,-373.2169 130.9709,-366.3174"/>
<text text-anchor="middle" x="334.7168" y="-400.8" font-family="Times,serif" font-size="14.00" fill="#000000">broadcast</text>
</g>
<!-- Map 6 -->
<g id="node4" class="node">
<title>Map 6</title>
<ellipse fill="none" stroke="#000000" cx="236.896" cy="-448" rx="32.8992" ry="18"/>
<text text-anchor="middle" x="236.896" y="-443.8" font-family="Times,serif" font-size="14.00" fill="#000000">Map 6</text>
</g>
<!-- Map 6&#45;&gt;Map 7 -->
<g id="edge3" class="edge">
<title>Map 6&#45;&gt;Map 7</title>
<path fill="none" stroke="#000000" d="M235.9957,-429.6886C235.7346,-424.0194 235.4637,-417.7522 235.2544,-412 234.9987,-404.9694 234.7687,-397.3812 234.5739,-390.2924"/>
<polygon fill="#000000" stroke="#000000" points="238.0665,-389.9594 234.3064,-380.0543 231.0689,-390.1423 238.0665,-389.9594"/>
<text text-anchor="middle" x="261.7168" y="-400.8" font-family="Times,serif" font-size="14.00" fill="#000000">broadcast</text>
</g>
<!-- Map 6&#45;&gt;Map 1 -->
<g id="edge6" class="edge">
<title>Map 6&#45;&gt;Map 1</title>
<path fill="none" stroke="#000000" d="M270.2311,-447.1783C322.8014,-445.1007 421.2313,-437.7791 442.896,-412 448.7008,-405.0928 447.5309,-396.1077 443.8907,-387.6628"/>
<polygon fill="#000000" stroke="#000000" points="446.9774,-386.0128 439.1843,-378.8352 440.8005,-389.306 446.9774,-386.0128"/>
<text text-anchor="middle" x="473.7168" y="-400.8" font-family="Times,serif" font-size="14.00" fill="#000000">broadcast</text>
</g>
<!-- Map 6&#45;&gt;Map 12 -->
<g id="edge19" class="edge">
<title>Map 6&#45;&gt;Map 12</title>
<path fill="none" stroke="#000000" d="M211.435,-436.1375C206.0476,-433.8975 200.3425,-431.7208 194.896,-430 157.8086,-418.2821 139.9255,-435.918 109.2544,-412 102.0303,-406.3665 96.8152,-398.0412 93.1123,-389.793"/>
<polygon fill="#000000" stroke="#000000" points="96.3129,-388.3664 89.4301,-380.3117 89.7877,-390.9005 96.3129,-388.3664"/>
<text text-anchor="middle" x="136.7168" y="-400.8" font-family="Times,serif" font-size="14.00" fill="#000000">broadcast</text>
</g>
<!-- Reducer 2 -->
<g id="node14" class="node">
<title>Reducer 2</title>
<ellipse fill="none" stroke="#000000" cx="379.896" cy="-276" rx="46.4045" ry="18"/>
<text text-anchor="middle" x="379.896" y="-271.8" font-family="Times,serif" font-size="14.00" fill="#000000">Reducer 2</text>
</g>
<!-- Map 1&#45;&gt;Reducer 2 -->
<g id="edge15" class="edge">
<title>Map 1&#45;&gt;Reducer 2</title>
<path fill="none" stroke="#000000" d="M416.5872,-344.5966C410.1455,-332.5534 401.451,-316.2984 394.1424,-302.6346"/>
<polygon fill="#000000" stroke="#000000" points="397.1517,-300.8397 389.3489,-293.6727 390.9792,-304.1413 397.1517,-300.8397"/>
<text text-anchor="middle" x="422.003" y="-314.8" font-family="Times,serif" font-size="14.00" fill="#000000">sorted</text>
</g>
<!-- Reducer 13 -->
<g id="node6" class="node">
<title>Reducer 13</title>
<ellipse fill="none" stroke="#000000" cx="113.896" cy="-276" rx="50.7474" ry="18"/>
<text text-anchor="middle" x="113.896" y="-271.8" font-family="Times,serif" font-size="14.00" fill="#000000">Reducer 13</text>
</g>
<!-- Reducer 14 -->
<g id="node7" class="node">
<title>Reducer 14</title>
<ellipse fill="none" stroke="#000000" cx="118.896" cy="-190" rx="50.7474" ry="18"/>
<text text-anchor="middle" x="118.896" y="-185.8" font-family="Times,serif" font-size="14.00" fill="#000000">Reducer 14</text>
</g>
<!-- Reducer 13&#45;&gt;Reducer 14 -->
<g id="edge7" class="edge">
<title>Reducer 13&#45;&gt;Reducer 14</title>
<path fill="none" stroke="#000000" d="M114.9564,-257.7616C115.6193,-246.3597 116.4871,-231.4342 117.2394,-218.494"/>
<polygon fill="#000000" stroke="#000000" points="120.7508,-218.3984 117.8372,-208.2121 113.7626,-217.9921 120.7508,-218.3984"/>
<text text-anchor="middle" x="134.003" y="-228.8" font-family="Times,serif" font-size="14.00" fill="#000000">sorted</text>
</g>
<!-- Reducer 10 -->
<g id="node8" class="node">
<title>Reducer 10</title>
<ellipse fill="none" stroke="#000000" cx="233.896" cy="-104" rx="50.7474" ry="18"/>
<text text-anchor="middle" x="233.896" y="-99.8" font-family="Times,serif" font-size="14.00" fill="#000000">Reducer 10</text>
</g>
<!-- Reducer 14&#45;&gt;Reducer 10 -->
<g id="edge9" class="edge">
<title>Reducer 14&#45;&gt;Reducer 10</title>
<path fill="none" stroke="#000000" d="M136.8746,-173.0155C147.8796,-162.9571 162.4552,-150.2231 176.2544,-140 183.2729,-134.8004 191.0525,-129.5975 198.5661,-124.828"/>
<polygon fill="#000000" stroke="#000000" points="200.5611,-127.709 207.2027,-119.4543 196.863,-121.7655 200.5611,-127.709"/>
<text text-anchor="middle" x="202.7168" y="-142.8" font-family="Times,serif" font-size="14.00" fill="#000000">broadcast</text>
</g>
<!-- Reducer 11 -->
<g id="node9" class="node">
<title>Reducer 11</title>
<ellipse fill="none" stroke="#000000" cx="233.896" cy="-18" rx="50.1002" ry="18"/>
<text text-anchor="middle" x="233.896" y="-13.8" font-family="Times,serif" font-size="14.00" fill="#000000">Reducer 11</text>
</g>
<!-- Reducer 10&#45;&gt;Reducer 11 -->
<g id="edge8" class="edge">
<title>Reducer 10&#45;&gt;Reducer 11</title>
<path fill="none" stroke="#000000" d="M233.896,-85.7616C233.896,-74.3597 233.896,-59.4342 233.896,-46.494"/>
<polygon fill="#000000" stroke="#000000" points="237.3961,-46.2121 233.896,-36.2121 230.3961,-46.2121 237.3961,-46.2121"/>
<text text-anchor="middle" x="251.003" y="-56.8" font-family="Times,serif" font-size="14.00" fill="#000000">sorted</text>
</g>
<!-- Reducer 3 -->
<g id="node10" class="node">
<title>Reducer 3</title>
<ellipse fill="none" stroke="#000000" cx="365.896" cy="-190" rx="46.4045" ry="18"/>
<text text-anchor="middle" x="365.896" y="-185.8" font-family="Times,serif" font-size="14.00" fill="#000000">Reducer 3</text>
</g>
<!-- Reducer 3&#45;&gt;Reducer 10 -->
<g id="edge10" class="edge">
<title>Reducer 3&#45;&gt;Reducer 10</title>
<path fill="none" stroke="#000000" d="M341.9918,-174.426C321.0425,-160.7773 290.3818,-140.8013 267.0606,-125.6072"/>
<polygon fill="#000000" stroke="#000000" points="268.8067,-122.5675 258.5174,-120.0412 264.9855,-128.4326 268.8067,-122.5675"/>
<text text-anchor="middle" x="333.7168" y="-142.8" font-family="Times,serif" font-size="14.00" fill="#000000">broadcast</text>
</g>
<!-- Reducer 9 -->
<g id="node11" class="node">
<title>Reducer 9</title>
<ellipse fill="none" stroke="#000000" cx="233.896" cy="-190" rx="46.4045" ry="18"/>
<text text-anchor="middle" x="233.896" y="-185.8" font-family="Times,serif" font-size="14.00" fill="#000000">Reducer 9</text>
</g>
<!-- Reducer 9&#45;&gt;Reducer 10 -->
<g id="edge11" class="edge">
<title>Reducer 9&#45;&gt;Reducer 10</title>
<path fill="none" stroke="#000000" d="M233.896,-171.7616C233.896,-160.3597 233.896,-145.4342 233.896,-132.494"/>
<polygon fill="#000000" stroke="#000000" points="237.3961,-132.2121 233.896,-122.2121 230.3961,-132.2121 237.3961,-132.2121"/>
<text text-anchor="middle" x="251.003" y="-142.8" font-family="Times,serif" font-size="14.00" fill="#000000">sorted</text>
</g>
<!-- Map 12&#45;&gt;Reducer 13 -->
<g id="edge12" class="edge">
<title>Map 12&#45;&gt;Reducer 13</title>
<path fill="none" stroke="#000000" d="M90.9049,-344.1807C94.8445,-332.4975 100.0755,-316.985 104.5524,-303.7086"/>
<polygon fill="#000000" stroke="#000000" points="107.9163,-304.6865 107.7951,-294.0923 101.2832,-302.4497 107.9163,-304.6865"/>
<text text-anchor="middle" x="119.003" y="-314.8" font-family="Times,serif" font-size="14.00" fill="#000000">sorted</text>
</g>
<!-- Reducer 8&#45;&gt;Reducer 9 -->
<g id="edge16" class="edge">
<title>Reducer 8&#45;&gt;Reducer 9</title>
<path fill="none" stroke="#000000" d="M233.896,-257.7616C233.896,-246.3597 233.896,-231.4342 233.896,-218.494"/>
<polygon fill="#000000" stroke="#000000" points="237.3961,-218.2121 233.896,-208.2121 230.3961,-218.2121 237.3961,-218.2121"/>
<text text-anchor="middle" x="251.003" y="-228.8" font-family="Times,serif" font-size="14.00" fill="#000000">sorted</text>
</g>
<!-- Reducer 2&#45;&gt;Reducer 3 -->
<g id="edge14" class="edge">
<title>Reducer 2&#45;&gt;Reducer 3</title>
<path fill="none" stroke="#000000" d="M376.927,-257.7616C375.0523,-246.2456 372.5925,-231.1353 370.4715,-218.1064"/>
<polygon fill="#000000" stroke="#000000" points="373.9222,-217.5198 368.8608,-208.2121 367.0131,-218.6446 373.9222,-217.5198"/>
<text text-anchor="middle" x="390.003" y="-228.8" font-family="Times,serif" font-size="14.00" fill="#000000">sorted</text>
</g>
</g>
</svg>
