<?xml version="1.0" encoding="UTF-8" standalone="no"?>
<!DOCTYPE svg PUBLIC "-//W3C//DTD SVG 1.1//EN"
 "http://www.w3.org/Graphics/SVG/1.1/DTD/svg11.dtd">
<!-- Generated by graphviz version 2.40.1 (20161225.0304)
 -->
<!-- Title: %3 Pages: 1 -->
<svg width="3421pt" height="388pt"
 viewBox="0.00 0.00 3420.99 388.00" xmlns="http://www.w3.org/2000/svg" xmlns:xlink="http://www.w3.org/1999/xlink">
<g id="graph0" class="graph" transform="scale(1 1) rotate(0) translate(4 384)">
<title>%3</title>
<polygon fill="#ffffff" stroke="transparent" points="-4,4 -4,-384 3416.9948,-384 3416.9948,4 -4,4"/>
<!-- Map 35 -->
<g id="node1" class="node">
<title>Map 35</title>
<ellipse fill="none" stroke="#000000" cx="89.6235" cy="-190" rx="37.243" ry="18"/>
<text text-anchor="middle" x="89.6235" y="-185.8" font-family="Times,serif" font-size="14.00" fill="#000000">Map 35</text>
</g>
<!-- Reducer 36 -->
<g id="node2" class="node">
<title>Reducer 36</title>
<ellipse fill="none" stroke="#000000" cx="201.6235" cy="-104" rx="50.7474" ry="18"/>
<text text-anchor="middle" x="201.6235" y="-99.8" font-family="Times,serif" font-size="14.00" fill="#000000">Reducer 36</text>
</g>
<!-- Map 35&#45;&gt;Reducer 36 -->
<g id="edge1" class="edge">
<title>Map 35&#45;&gt;Reducer 36</title>
<path fill="none" stroke="#000000" d="M95.0351,-171.8321C98.9549,-161.3542 105.2027,-148.5948 114.4097,-140 124.524,-130.5582 137.4588,-123.4278 150.2516,-118.1114"/>
<polygon fill="#000000" stroke="#000000" points="151.8727,-121.2384 159.9577,-114.3913 149.3674,-114.7021 151.8727,-121.2384"/>
<text text-anchor="middle" x="131.7305" y="-142.8" font-family="Times,serif" font-size="14.00" fill="#000000">sorted</text>
</g>
<!-- Union 11 -->
<g id="node3" class="node">
<title>Union 11</title>
<ellipse fill="none" stroke="#000000" cx="400.6235" cy="-276" rx="42.892" ry="18"/>
<text text-anchor="middle" x="400.6235" y="-271.8" font-family="Times,serif" font-size="14.00" fill="#000000">Union 11</text>
</g>
<!-- Union 11&#45;&gt;Reducer 36 -->
<g id="edge2" class="edge">
<title>Union 11&#45;&gt;Reducer 36</title>
<path fill="none" stroke="#000000" d="M362.5621,-267.5293C320.7001,-258.0762 258.7557,-243.6277 254.6235,-240 237.9411,-225.3544 219.2684,-167.0536 209.1437,-131.7124"/>
<polygon fill="#000000" stroke="#000000" points="212.4835,-130.6598 206.4054,-121.9818 205.7452,-132.556 212.4835,-130.6598"/>
<text text-anchor="middle" x="262.4443" y="-185.8" font-family="Times,serif" font-size="14.00" fill="#000000">broadcast</text>
</g>
<!-- Reducer 28 -->
<g id="node44" class="node">
<title>Reducer 28</title>
<ellipse fill="none" stroke="#000000" cx="488.6235" cy="-190" rx="50.7474" ry="18"/>
<text text-anchor="middle" x="488.6235" y="-185.8" font-family="Times,serif" font-size="14.00" fill="#000000">Reducer 28</text>
</g>
<!-- Union 11&#45;&gt;Reducer 28 -->
<g id="edge56" class="edge">
<title>Union 11&#45;&gt;Reducer 28</title>
<path fill="none" stroke="#000000" d="M372.8187,-262.0725C357.315,-252.4243 342.9667,-239.0201 352.9819,-226 358.2266,-219.1819 398.9631,-208.9307 434.4372,-201.1091"/>
<polygon fill="#000000" stroke="#000000" points="435.2407,-204.5162 444.2693,-198.9723 433.754,-197.6759 435.2407,-204.5162"/>
<text text-anchor="middle" x="380.4443" y="-228.8" font-family="Times,serif" font-size="14.00" fill="#000000">broadcast</text>
</g>
<!-- Reducer 29 -->
<g id="node45" class="node">
<title>Reducer 29</title>
<ellipse fill="none" stroke="#000000" cx="1543.6235" cy="-190" rx="50.7474" ry="18"/>
<text text-anchor="middle" x="1543.6235" y="-185.8" font-family="Times,serif" font-size="14.00" fill="#000000">Reducer 29</text>
</g>
<!-- Union 11&#45;&gt;Reducer 29 -->
<g id="edge60" class="edge">
<title>Union 11&#45;&gt;Reducer 29</title>
<path fill="none" stroke="#000000" d="M443.3123,-273.1557C511.0464,-268.3254 647.1934,-257.3234 761.6235,-240 792.4229,-235.3373 799.3569,-229.5934 830.2993,-226 1094.1242,-195.3618 1163.1497,-232.4098 1427.6235,-208 1447.5779,-206.1583 1469.3169,-203.0759 1488.5256,-199.9775"/>
<polygon fill="#000000" stroke="#000000" points="1489.3158,-203.3945 1498.6122,-198.3125 1488.1757,-196.488 1489.3158,-203.3945"/>
<text text-anchor="middle" x="845.7856" y="-228.8" font-family="Times,serif" font-size="14.00" fill="#000000">None</text>
</g>
<!-- Reducer 10 -->
<g id="node46" class="node">
<title>Reducer 10</title>
<ellipse fill="none" stroke="#000000" cx="1156.6235" cy="-190" rx="50.7474" ry="18"/>
<text text-anchor="middle" x="1156.6235" y="-185.8" font-family="Times,serif" font-size="14.00" fill="#000000">Reducer 10</text>
</g>
<!-- Union 11&#45;&gt;Reducer 10 -->
<g id="edge62" class="edge">
<title>Union 11&#45;&gt;Reducer 10</title>
<path fill="none" stroke="#000000" d="M443.2859,-273.3078C515.9767,-268.3397 660.6356,-256.6914 708.6235,-240 719.8103,-236.109 719.9883,-229.5135 731.2993,-226 808.9224,-201.8886 1016.5183,-221.779 1096.6235,-208 1101.0229,-207.2433 1105.554,-206.2664 1110.0615,-205.1596"/>
<polygon fill="#000000" stroke="#000000" points="1111.0654,-208.5143 1119.8312,-202.5636 1109.2677,-201.7491 1111.0654,-208.5143"/>
<text text-anchor="middle" x="746.7856" y="-228.8" font-family="Times,serif" font-size="14.00" fill="#000000">None</text>
</g>
<!-- Reducer 42 -->
<g id="node48" class="node">
<title>Reducer 42</title>
<ellipse fill="none" stroke="#000000" cx="789.6235" cy="-104" rx="50.7474" ry="18"/>
<text text-anchor="middle" x="789.6235" y="-99.8" font-family="Times,serif" font-size="14.00" fill="#000000">Reducer 42</text>
</g>
<!-- Union 11&#45;&gt;Reducer 42 -->
<g id="edge72" class="edge">
<title>Union 11&#45;&gt;Reducer 42</title>
<path fill="none" stroke="#000000" d="M362.2692,-267.7721C335.6794,-261.2005 303.6602,-251.2513 295.6235,-240 292.0069,-234.9368 292.4068,-231.3262 295.6235,-226 340.5546,-151.6034 608.2554,-119.4977 729.7343,-108.6232"/>
<polygon fill="#000000" stroke="#000000" points="730.318,-112.0856 739.9743,-107.726 729.707,-105.1123 730.318,-112.0856"/>
<text text-anchor="middle" x="390.7856" y="-185.8" font-family="Times,serif" font-size="14.00" fill="#000000">None</text>
</g>
<!-- Reducer 5 -->
<g id="node53" class="node">
<title>Reducer 5</title>
<ellipse fill="none" stroke="#000000" cx="613.6235" cy="-190" rx="46.4045" ry="18"/>
<text text-anchor="middle" x="613.6235" y="-185.8" font-family="Times,serif" font-size="14.00" fill="#000000">Reducer 5</text>
</g>
<!-- Union 11&#45;&gt;Reducer 5 -->
<g id="edge86" class="edge">
<title>Union 11&#45;&gt;Reducer 5</title>
<path fill="none" stroke="#000000" d="M406.6614,-257.9095C411.2925,-246.9079 418.8128,-233.5631 429.9819,-226 474.1431,-196.0968 496.4662,-219.1366 548.6235,-208 554.4923,-206.7469 560.6164,-205.2741 566.6583,-203.7198"/>
<polygon fill="#000000" stroke="#000000" points="567.9251,-207.0047 576.6893,-201.0516 566.1256,-200.2399 567.9251,-207.0047"/>
<text text-anchor="middle" x="457.4443" y="-228.8" font-family="Times,serif" font-size="14.00" fill="#000000">broadcast</text>
</g>
<!-- Union 13 -->
<g id="node4" class="node">
<title>Union 13</title>
<ellipse fill="none" stroke="#000000" cx="714.6235" cy="-276" rx="43.0409" ry="18"/>
<text text-anchor="middle" x="714.6235" y="-271.8" font-family="Times,serif" font-size="14.00" fill="#000000">Union 13</text>
</g>
<!-- Union 13&#45;&gt;Reducer 36 -->
<g id="edge3" class="edge">
<title>Union 13&#45;&gt;Reducer 36</title>
<path fill="none" stroke="#000000" d="M752.5042,-267.1759C777.5671,-260.4829 807.1434,-250.6429 814.6235,-240 818.2014,-234.9093 818.1792,-231.1062 814.6235,-226 794.8557,-197.612 702.1456,-180.5391 668.6235,-172 524.8983,-135.3887 350.9253,-116.5532 261.3481,-108.6607"/>
<polygon fill="#000000" stroke="#000000" points="261.6388,-105.1728 251.374,-107.7965 261.0345,-112.1467 261.6388,-105.1728"/>
<text text-anchor="middle" x="817.4443" y="-185.8" font-family="Times,serif" font-size="14.00" fill="#000000">broadcast</text>
</g>
<!-- Reducer 30 -->
<g id="node19" class="node">
<title>Reducer 30</title>
<ellipse fill="none" stroke="#000000" cx="2254.6235" cy="-190" rx="50.7474" ry="18"/>
<text text-anchor="middle" x="2254.6235" y="-185.8" font-family="Times,serif" font-size="14.00" fill="#000000">Reducer 30</text>
</g>
<!-- Union 13&#45;&gt;Reducer 30 -->
<g id="edge17" class="edge">
<title>Union 13&#45;&gt;Reducer 30</title>
<path fill="none" stroke="#000000" d="M747.0972,-264.0482C755.018,-261.6076 763.5405,-259.3693 771.6235,-258 1036.8526,-213.0691 1111.6483,-286.4041 1376.6235,-240 1396.2859,-236.5566 1399.6264,-229.3821 1419.2993,-226 1586.9588,-197.1763 2016.1125,-231.335 2184.6235,-208 2191.4714,-207.0517 2198.6139,-205.6779 2205.6071,-204.1057"/>
<polygon fill="#000000" stroke="#000000" points="2206.7862,-207.4222 2215.6942,-201.6866 2205.1537,-200.6152 2206.7862,-207.4222"/>
<text text-anchor="middle" x="1434.7856" y="-228.8" font-family="Times,serif" font-size="14.00" fill="#000000">None</text>
</g>
<!-- Reducer 12 -->
<g id="node25" class="node">
<title>Reducer 12</title>
<ellipse fill="none" stroke="#000000" cx="1275.6235" cy="-190" rx="50.7474" ry="18"/>
<text text-anchor="middle" x="1275.6235" y="-185.8" font-family="Times,serif" font-size="14.00" fill="#000000">Reducer 12</text>
</g>
<!-- Union 13&#45;&gt;Reducer 12 -->
<g id="edge26" class="edge">
<title>Union 13&#45;&gt;Reducer 12</title>
<path fill="none" stroke="#000000" d="M748.4995,-264.6008C756.0635,-262.2522 764.0795,-259.9145 771.6235,-258 812.4304,-247.6441 823.7139,-249.942 864.6235,-240 886.0829,-234.7849 890.5426,-229.7873 912.2993,-226 1045.7835,-202.7635 1083.2631,-231.9366 1216.6235,-208 1220.7739,-207.2551 1225.0434,-206.3134 1229.297,-205.2533"/>
<polygon fill="#000000" stroke="#000000" points="1230.3867,-208.5845 1239.1302,-202.6012 1228.5638,-201.826 1230.3867,-208.5845"/>
<text text-anchor="middle" x="927.7856" y="-228.8" font-family="Times,serif" font-size="14.00" fill="#000000">None</text>
</g>
<!-- Union 13&#45;&gt;Reducer 28 -->
<g id="edge57" class="edge">
<title>Union 13&#45;&gt;Reducer 28</title>
<path fill="none" stroke="#000000" d="M676.1906,-267.7021C649.7848,-261.4489 614.1811,-251.9189 583.9819,-240 572.343,-235.4064 546.799,-221.9434 525.0762,-210.1438"/>
<polygon fill="#000000" stroke="#000000" points="526.5067,-206.9372 516.052,-205.2194 523.1535,-213.0819 526.5067,-206.9372"/>
<text text-anchor="middle" x="611.4443" y="-228.8" font-family="Times,serif" font-size="14.00" fill="#000000">broadcast</text>
</g>
<!-- Reducer 47 -->
<g id="node47" class="node">
<title>Reducer 47</title>
<ellipse fill="none" stroke="#000000" cx="1049.6235" cy="-104" rx="50.7474" ry="18"/>
<text text-anchor="middle" x="1049.6235" y="-99.8" font-family="Times,serif" font-size="14.00" fill="#000000">Reducer 47</text>
</g>
<!-- Union 13&#45;&gt;Reducer 47 -->
<g id="edge67" class="edge">
<title>Union 13&#45;&gt;Reducer 47</title>
<path fill="none" stroke="#000000" d="M752.3797,-266.9892C786.7569,-258.4865 833.1254,-246.1525 839.6235,-240 862.8618,-217.9979 844.3209,-197.7668 863.2993,-172 877.4957,-152.7257 884.9798,-150.2265 906.6235,-140 933.6141,-127.2472 965.6846,-118.643 992.6078,-113.054"/>
<polygon fill="#000000" stroke="#000000" points="993.5273,-116.4398 1002.653,-111.0572 992.1625,-109.5741 993.5273,-116.4398"/>
<text text-anchor="middle" x="878.7856" y="-185.8" font-family="Times,serif" font-size="14.00" fill="#000000">None</text>
</g>
<!-- Union 13&#45;&gt;Reducer 5 -->
<g id="edge87" class="edge">
<title>Union 13&#45;&gt;Reducer 5</title>
<path fill="none" stroke="#000000" d="M687.192,-262.026C676.5871,-255.9808 664.6927,-248.3701 654.9819,-240 646.6622,-232.8289 638.6806,-223.8675 631.9863,-215.5196"/>
<polygon fill="#000000" stroke="#000000" points="634.6432,-213.2338 625.7564,-207.4653 629.1062,-217.5167 634.6432,-213.2338"/>
<text text-anchor="middle" x="682.4443" y="-228.8" font-family="Times,serif" font-size="14.00" fill="#000000">broadcast</text>
</g>
<!-- Union 6 -->
<g id="node5" class="node">
<title>Union 6</title>
<ellipse fill="none" stroke="#000000" cx="272.6235" cy="-276" rx="38.6968" ry="18"/>
<text text-anchor="middle" x="272.6235" y="-271.8" font-family="Times,serif" font-size="14.00" fill="#000000">Union 6</text>
</g>
<!-- Union 6&#45;&gt;Reducer 36 -->
<g id="edge4" class="edge">
<title>Union 6&#45;&gt;Reducer 36</title>
<path fill="none" stroke="#000000" d="M245.8579,-262.845C225.9066,-251.4049 200.1454,-232.7708 188.2993,-208 176.7738,-183.8996 182.8417,-153.2527 190.1192,-131.4855"/>
<polygon fill="#000000" stroke="#000000" points="193.4861,-132.4673 193.6027,-121.8731 186.9049,-130.0822 193.4861,-132.4673"/>
<text text-anchor="middle" x="203.7856" y="-185.8" font-family="Times,serif" font-size="14.00" fill="#000000">None</text>
</g>
<!-- Union 6&#45;&gt;Reducer 28 -->
<g id="edge58" class="edge">
<title>Union 6&#45;&gt;Reducer 28</title>
<path fill="none" stroke="#000000" d="M254.8391,-259.9034C245.4021,-249.4449 237.4176,-235.9558 246.2993,-226 269.7249,-199.7414 368.8913,-213.6514 403.6235,-208 414.1164,-206.2927 425.274,-204.1612 435.9351,-201.9685"/>
<polygon fill="#000000" stroke="#000000" points="436.9007,-205.3421 445.9665,-199.8593 435.4603,-198.4918 436.9007,-205.3421"/>
<text text-anchor="middle" x="261.7856" y="-228.8" font-family="Times,serif" font-size="14.00" fill="#000000">None</text>
</g>
<!-- Union 6&#45;&gt;Reducer 5 -->
<g id="edge88" class="edge">
<title>Union 6&#45;&gt;Reducer 5</title>
<path fill="none" stroke="#000000" d="M282.846,-258.4705C290.5018,-247.1056 302.0828,-233.1335 316.2993,-226 362.582,-202.7766 497.6208,-216.9514 548.6235,-208 554.8298,-206.9108 561.299,-205.4841 567.6464,-203.91"/>
<polygon fill="#000000" stroke="#000000" points="568.676,-207.2585 577.4652,-201.3423 566.905,-200.4862 568.676,-207.2585"/>
<text text-anchor="middle" x="331.7856" y="-228.8" font-family="Times,serif" font-size="14.00" fill="#000000">None</text>
</g>
<!-- Reducer 7 -->
<g id="node54" class="node">
<title>Reducer 7</title>
<ellipse fill="none" stroke="#000000" cx="948.6235" cy="-190" rx="46.4045" ry="18"/>
<text text-anchor="middle" x="948.6235" y="-185.8" font-family="Times,serif" font-size="14.00" fill="#000000">Reducer 7</text>
</g>
<!-- Union 6&#45;&gt;Reducer 7 -->
<g id="edge90" class="edge">
<title>Union 6&#45;&gt;Reducer 7</title>
<path fill="none" stroke="#000000" d="M306.8975,-267.1138C319.904,-263.9445 334.8894,-260.5355 348.6235,-258 408.1487,-247.0111 427.0294,-261.4732 483.6235,-240 494.0374,-236.0487 493.8362,-229.502 504.4097,-226 585.3388,-199.1956 803.5562,-222.1659 887.6235,-208 892.9996,-207.0941 898.571,-205.8681 904.0625,-204.4791"/>
<polygon fill="#000000" stroke="#000000" points="905.0667,-207.8332 913.8013,-201.8368 903.2337,-201.0775 905.0667,-207.8332"/>
<text text-anchor="middle" x="528.7305" y="-228.8" font-family="Times,serif" font-size="14.00" fill="#000000">unsorted</text>
</g>
<!-- Map 18 -->
<g id="node6" class="node">
<title>Map 18</title>
<ellipse fill="none" stroke="#000000" cx="1224.6235" cy="-362" rx="37.243" ry="18"/>
<text text-anchor="middle" x="1224.6235" y="-357.8" font-family="Times,serif" font-size="14.00" fill="#000000">Map 18</text>
</g>
<!-- Map 18&#45;&gt;Map 35 -->
<g id="edge63" class="edge">
<title>Map 18&#45;&gt;Map 35</title>
<path fill="none" stroke="#000000" d="M1187.1526,-361.4958C1009.9648,-358.8569 260.9947,-344.7584 170.9819,-294 138.9015,-275.9098 146.8556,-254.5776 123.6235,-226 120.319,-221.9351 116.6611,-217.7655 113.0054,-213.7715"/>
<polygon fill="#000000" stroke="#000000" points="115.4662,-211.279 106.0715,-206.3808 110.3612,-216.0685 115.4662,-211.279"/>
<text text-anchor="middle" x="198.4443" y="-271.8" font-family="Times,serif" font-size="14.00" fill="#000000">broadcast</text>
</g>
<!-- Map 46 -->
<g id="node7" class="node">
<title>Map 46</title>
<ellipse fill="none" stroke="#000000" cx="1381.6235" cy="-190" rx="37.243" ry="18"/>
<text text-anchor="middle" x="1381.6235" y="-185.8" font-family="Times,serif" font-size="14.00" fill="#000000">Map 46</text>
</g>
<!-- Map 18&#45;&gt;Map 46 -->
<g id="edge5" class="edge">
<title>Map 18&#45;&gt;Map 46</title>
<path fill="none" stroke="#000000" d="M1198.6318,-348.8538C1165.3367,-330.1593 1114.3615,-294.1361 1135.9819,-258 1136.9472,-256.3866 1193.8331,-226.5738 1195.6235,-226 1255.3646,-206.8528 1274.8461,-223.5468 1335.6235,-208 1338.4276,-207.2827 1341.2918,-206.4417 1344.1515,-205.5221"/>
<polygon fill="#000000" stroke="#000000" points="1345.4812,-208.765 1353.7636,-202.158 1343.1688,-202.1579 1345.4812,-208.765"/>
<text text-anchor="middle" x="1163.4443" y="-271.8" font-family="Times,serif" font-size="14.00" fill="#000000">broadcast</text>
</g>
<!-- Map 2 -->
<g id="node8" class="node">
<title>Map 2</title>
<ellipse fill="none" stroke="#000000" cx="1957.6235" cy="-276" rx="32.8992" ry="18"/>
<text text-anchor="middle" x="1957.6235" y="-271.8" font-family="Times,serif" font-size="14.00" fill="#000000">Map 2</text>
</g>
<!-- Map 18&#45;&gt;Map 2 -->
<g id="edge74" class="edge">
<title>Map 18&#45;&gt;Map 2</title>
<path fill="none" stroke="#000000" d="M1261.9949,-359.4063C1322.8137,-354.8423 1446.8495,-344.1038 1550.6235,-326 1576.8997,-321.416 1582.5968,-315.9079 1608.9819,-312 1744.0285,-291.9983 1782.7539,-325.3577 1915.6235,-294 1918.2825,-293.3725 1920.986,-292.5881 1923.6742,-291.7003"/>
<polygon fill="#000000" stroke="#000000" points="1925.0912,-294.9073 1933.2337,-288.1287 1922.6412,-288.35 1925.0912,-294.9073"/>
<text text-anchor="middle" x="1636.4443" y="-314.8" font-family="Times,serif" font-size="14.00" fill="#000000">broadcast</text>
</g>
<!-- Reducer 22 -->
<g id="node9" class="node">
<title>Reducer 22</title>
<ellipse fill="none" stroke="#000000" cx="1034.6235" cy="-276" rx="50.7474" ry="18"/>
<text text-anchor="middle" x="1034.6235" y="-271.8" font-family="Times,serif" font-size="14.00" fill="#000000">Reducer 22</text>
</g>
<!-- Map 18&#45;&gt;Reducer 22 -->
<g id="edge47" class="edge">
<title>Map 18&#45;&gt;Reducer 22</title>
<path fill="none" stroke="#000000" d="M1188.2495,-357.7869C1145.8744,-352.2518 1079.1406,-341.3944 1059.4097,-326 1052.1625,-320.3456 1046.8826,-312.0149 1043.1073,-303.7682"/>
<polygon fill="#000000" stroke="#000000" points="1046.2863,-302.2903 1039.3388,-294.2913 1039.7817,-304.8769 1046.2863,-302.2903"/>
<text text-anchor="middle" x="1083.7305" y="-314.8" font-family="Times,serif" font-size="14.00" fill="#000000">unsorted</text>
</g>
<!-- Map 33 -->
<g id="node10" class="node">
<title>Map 33</title>
<ellipse fill="none" stroke="#000000" cx="2371.6235" cy="-190" rx="37.243" ry="18"/>
<text text-anchor="middle" x="2371.6235" y="-185.8" font-family="Times,serif" font-size="14.00" fill="#000000">Map 33</text>
</g>
<!-- Map 18&#45;&gt;Map 33 -->
<g id="edge68" class="edge">
<title>Map 18&#45;&gt;Map 33</title>
<path fill="none" stroke="#000000" d="M1262.0821,-359.6902C1308.2866,-356.0394 1388.7938,-347.0475 1454.6235,-326 1467.876,-321.7628 1469.2214,-315.7368 1482.6235,-312 1578.8303,-285.1754 1616.1451,-336.296 1706.6235,-294 1726.94,-284.5027 1721.5366,-267.2166 1741.9819,-258 1811.2908,-226.756 2010.1169,-259.4082 2083.6235,-240 2097.0758,-236.4481 2098.237,-229.7921 2111.6235,-226 2198.7707,-201.3134 2225.8021,-225.7424 2314.6235,-208 2320.157,-206.8947 2325.9114,-205.4468 2331.5432,-203.8518"/>
<polygon fill="#000000" stroke="#000000" points="2332.9062,-207.0968 2341.4738,-200.8641 2330.8894,-200.3936 2332.9062,-207.0968"/>
<text text-anchor="middle" x="1769.4443" y="-271.8" font-family="Times,serif" font-size="14.00" fill="#000000">broadcast</text>
</g>
<!-- Reducer 19 -->
<g id="node13" class="node">
<title>Reducer 19</title>
<ellipse fill="none" stroke="#000000" cx="1855.6235" cy="-276" rx="50.7474" ry="18"/>
<text text-anchor="middle" x="1855.6235" y="-271.8" font-family="Times,serif" font-size="14.00" fill="#000000">Reducer 19</text>
</g>
<!-- Map 18&#45;&gt;Reducer 19 -->
<g id="edge10" class="edge">
<title>Map 18&#45;&gt;Reducer 19</title>
<path fill="none" stroke="#000000" d="M1261.6404,-358.6503C1322.3571,-352.8429 1440.2916,-340.1614 1479.6235,-326 1490.8067,-321.9735 1491.0779,-315.5869 1502.4097,-312 1625.1937,-273.1351 1664.652,-315.5554 1791.6235,-294 1796.9576,-293.0945 1802.4841,-291.917 1807.9536,-290.5977"/>
<polygon fill="#000000" stroke="#000000" points="1808.8691,-293.9762 1817.6835,-288.0975 1807.127,-287.1964 1808.8691,-293.9762"/>
<text text-anchor="middle" x="1526.7305" y="-314.8" font-family="Times,serif" font-size="14.00" fill="#000000">unsorted</text>
</g>
<!-- Map 41 -->
<g id="node14" class="node">
<title>Map 41</title>
<ellipse fill="none" stroke="#000000" cx="1050.6235" cy="-190" rx="37.243" ry="18"/>
<text text-anchor="middle" x="1050.6235" y="-185.8" font-family="Times,serif" font-size="14.00" fill="#000000">Map 41</text>
</g>
<!-- Map 18&#45;&gt;Map 41 -->
<g id="edge11" class="edge">
<title>Map 18&#45;&gt;Map 41</title>
<path fill="none" stroke="#000000" d="M1187.4993,-358.809C1088.9306,-349.9575 826.4706,-323.7764 801.9819,-294 791.8188,-281.6424 791.5746,-270.1526 801.9819,-258 818.8988,-238.2462 892.6968,-247.4196 917.6235,-240 932.1129,-235.6872 934.5303,-231.4702 948.6235,-226 972.601,-216.6934 979.3844,-216.602 1003.6235,-208 1006.3641,-207.0274 1009.1864,-206.0035 1012.023,-204.958"/>
<polygon fill="#000000" stroke="#000000" points="1013.4856,-208.1478 1021.6236,-201.3637 1011.0312,-201.5922 1013.4856,-208.1478"/>
<text text-anchor="middle" x="829.4443" y="-271.8" font-family="Times,serif" font-size="14.00" fill="#000000">broadcast</text>
</g>
<!-- Reducer 21 -->
<g id="node15" class="node">
<title>Reducer 21</title>
<ellipse fill="none" stroke="#000000" cx="915.6235" cy="-276" rx="50.7474" ry="18"/>
<text text-anchor="middle" x="915.6235" y="-271.8" font-family="Times,serif" font-size="14.00" fill="#000000">Reducer 21</text>
</g>
<!-- Map 18&#45;&gt;Reducer 21 -->
<g id="edge46" class="edge">
<title>Map 18&#45;&gt;Reducer 21</title>
<path fill="none" stroke="#000000" d="M1187.1203,-360.6212C1140.9365,-357.9087 1060.7137,-349.8624 996.4097,-326 978.4812,-319.347 960.2223,-308.4649 945.6095,-298.5489"/>
<polygon fill="#000000" stroke="#000000" points="947.2196,-295.4043 937.0176,-292.5461 943.2105,-301.1425 947.2196,-295.4043"/>
<text text-anchor="middle" x="1020.7305" y="-314.8" font-family="Times,serif" font-size="14.00" fill="#000000">unsorted</text>
</g>
<!-- Map 26 -->
<g id="node16" class="node">
<title>Map 26</title>
<ellipse fill="none" stroke="#000000" cx="2650.6235" cy="-276" rx="37.243" ry="18"/>
<text text-anchor="middle" x="2650.6235" y="-271.8" font-family="Times,serif" font-size="14.00" fill="#000000">Map 26</text>
</g>
<!-- Map 18&#45;&gt;Map 26 -->
<g id="edge27" class="edge">
<title>Map 18&#45;&gt;Map 26</title>
<path fill="none" stroke="#000000" d="M1261.88,-360.0154C1326.8097,-356.5803 1464.9234,-349.3788 1581.6235,-344 1629.5033,-341.7932 1967.3406,-341.7098 2012.6235,-326 2022.6549,-322.5199 2021.9794,-315.5622 2031.9819,-312 2085.1976,-293.0482 2467.4986,-280.962 2603.0873,-277.2324"/>
<polygon fill="#000000" stroke="#000000" points="2603.2708,-280.7288 2613.1719,-276.9579 2603.0803,-273.7313 2603.2708,-280.7288"/>
<text text-anchor="middle" x="2059.4443" y="-314.8" font-family="Times,serif" font-size="14.00" fill="#000000">broadcast</text>
</g>
<!-- Map 49 -->
<g id="node23" class="node">
<title>Map 49</title>
<ellipse fill="none" stroke="#000000" cx="1932.6235" cy="-190" rx="37.243" ry="18"/>
<text text-anchor="middle" x="1932.6235" y="-185.8" font-family="Times,serif" font-size="14.00" fill="#000000">Map 49</text>
</g>
<!-- Map 18&#45;&gt;Map 49 -->
<g id="edge22" class="edge">
<title>Map 18&#45;&gt;Map 49</title>
<path fill="none" stroke="#000000" d="M1260.8924,-357.6303C1300.9839,-352.2885 1367.2229,-341.9415 1422.6235,-326 1438.7241,-321.3671 1441.8762,-317.7196 1457.6235,-312 1481.7985,-303.2193 1497.5277,-314.8242 1512.6235,-294 1522.0143,-281.0457 1523.0093,-270.1711 1512.6235,-258 1478.7418,-218.294 1363.7528,-263.9188 1399.6235,-226 1412.0125,-212.9037 1705.6408,-209.2736 1723.6235,-208 1779.3346,-204.0543 1843.2994,-198.3766 1885.6371,-194.4578"/>
<polygon fill="#000000" stroke="#000000" points="1886.019,-197.9375 1895.6518,-193.5263 1885.3706,-190.9676 1886.019,-197.9375"/>
<text text-anchor="middle" x="1547.4443" y="-271.8" font-family="Times,serif" font-size="14.00" fill="#000000">broadcast</text>
</g>
<!-- Reducer 23 -->
<g id="node24" class="node">
<title>Reducer 23</title>
<ellipse fill="none" stroke="#000000" cx="1452.6235" cy="-276" rx="50.7474" ry="18"/>
<text text-anchor="middle" x="1452.6235" y="-271.8" font-family="Times,serif" font-size="14.00" fill="#000000">Reducer 23</text>
</g>
<!-- Map 18&#45;&gt;Reducer 23 -->
<g id="edge48" class="edge">
<title>Map 18&#45;&gt;Reducer 23</title>
<path fill="none" stroke="#000000" d="M1256.878,-352.8223C1279.8807,-346.0333 1311.4251,-336.2253 1338.6235,-326 1363.6462,-316.5927 1391.103,-304.603 1412.7997,-294.7227"/>
<polygon fill="#000000" stroke="#000000" points="1414.3968,-297.8408 1422.0269,-290.4901 1411.4782,-291.4782 1414.3968,-297.8408"/>
<text text-anchor="middle" x="1394.7305" y="-314.8" font-family="Times,serif" font-size="14.00" fill="#000000">unsorted</text>
</g>
<!-- Map 56 -->
<g id="node38" class="node">
<title>Map 56</title>
<ellipse fill="none" stroke="#000000" cx="1677.6235" cy="-190" rx="37.243" ry="18"/>
<text text-anchor="middle" x="1677.6235" y="-185.8" font-family="Times,serif" font-size="14.00" fill="#000000">Map 56</text>
</g>
<!-- Map 18&#45;&gt;Map 56 -->
<g id="edge50" class="edge">
<title>Map 18&#45;&gt;Map 56</title>
<path fill="none" stroke="#000000" d="M1218.7064,-344.0848C1209.7793,-313.2601 1197.573,-251.0881 1234.6235,-226 1268.6131,-202.9846 1562.9977,-213.8774 1603.6235,-208 1614.135,-206.4793 1625.3358,-204.1407 1635.7584,-201.6471"/>
<polygon fill="#000000" stroke="#000000" points="1636.6066,-205.0429 1645.4648,-199.2306 1634.9154,-198.2502 1636.6066,-205.0429"/>
<text text-anchor="middle" x="1239.4443" y="-271.8" font-family="Times,serif" font-size="14.00" fill="#000000">broadcast</text>
</g>
<!-- Reducer 20 -->
<g id="node41" class="node">
<title>Reducer 20</title>
<ellipse fill="none" stroke="#000000" cx="50.6235" cy="-276" rx="50.7474" ry="18"/>
<text text-anchor="middle" x="50.6235" y="-271.8" font-family="Times,serif" font-size="14.00" fill="#000000">Reducer 20</text>
</g>
<!-- Map 18&#45;&gt;Reducer 20 -->
<g id="edge45" class="edge">
<title>Map 18&#45;&gt;Reducer 20</title>
<path fill="none" stroke="#000000" d="M1187.1587,-361.9025C994.5784,-361.2661 123.1977,-356.6944 75.4097,-326 67.3546,-320.8262 61.825,-312.1971 58.0715,-303.551"/>
<polygon fill="#000000" stroke="#000000" points="61.2833,-302.1439 54.5482,-293.9653 54.713,-304.5589 61.2833,-302.1439"/>
<text text-anchor="middle" x="99.7305" y="-314.8" font-family="Times,serif" font-size="14.00" fill="#000000">unsorted</text>
</g>
<!-- Reducer 24 -->
<g id="node42" class="node">
<title>Reducer 24</title>
<ellipse fill="none" stroke="#000000" cx="1333.6235" cy="-276" rx="50.7474" ry="18"/>
<text text-anchor="middle" x="1333.6235" y="-271.8" font-family="Times,serif" font-size="14.00" fill="#000000">Reducer 24</text>
</g>
<!-- Map 18&#45;&gt;Reducer 24 -->
<g id="edge49" class="edge">
<title>Map 18&#45;&gt;Reducer 24</title>
<path fill="none" stroke="#000000" d="M1244.1106,-346.6249C1260.9664,-333.3258 1285.5711,-313.9129 1304.7206,-298.8042"/>
<polygon fill="#000000" stroke="#000000" points="1307.138,-301.3551 1312.8207,-292.4132 1302.8021,-295.8597 1307.138,-301.3551"/>
<text text-anchor="middle" x="1310.7305" y="-314.8" font-family="Times,serif" font-size="14.00" fill="#000000">unsorted</text>
</g>
<!-- Map 46&#45;&gt;Reducer 47 -->
<g id="edge66" class="edge">
<title>Map 46&#45;&gt;Reducer 47</title>
<path fill="none" stroke="#000000" d="M1353.1339,-178.1401C1347.3881,-175.9504 1341.3527,-173.7924 1335.6235,-172 1256.3599,-147.202 1162.3031,-126.4538 1104.2878,-114.6268"/>
<polygon fill="#000000" stroke="#000000" points="1104.7341,-111.1463 1094.2386,-112.594 1103.3461,-118.0073 1104.7341,-111.1463"/>
<text text-anchor="middle" x="1283.7305" y="-142.8" font-family="Times,serif" font-size="14.00" fill="#000000">sorted</text>
</g>
<!-- Map 2&#45;&gt;Map 35 -->
<g id="edge64" class="edge">
<title>Map 2&#45;&gt;Map 35</title>
<path fill="none" stroke="#000000" d="M1933.2522,-263.7913C1927.5945,-261.4581 1921.504,-259.3309 1915.6235,-258 1818.7399,-236.0718 1562.8528,-272.4894 1468.9819,-240 1458.948,-236.5272 1459.7027,-229.3394 1449.6235,-226 1380.5851,-203.1261 212.2225,-220.7717 140.6235,-208 136.4119,-207.2487 132.084,-206.1947 127.8145,-204.9695"/>
<polygon fill="#000000" stroke="#000000" points="128.6313,-201.5566 118.0408,-201.8619 126.5102,-208.2275 128.6313,-201.5566"/>
<text text-anchor="middle" x="1496.4443" y="-228.8" font-family="Times,serif" font-size="14.00" fill="#000000">broadcast</text>
</g>
<!-- Map 2&#45;&gt;Map 46 -->
<g id="edge6" class="edge">
<title>Map 2&#45;&gt;Map 46</title>
<path fill="none" stroke="#000000" d="M1932.6876,-264.0674C1927.1644,-261.7779 1921.272,-259.5992 1915.6235,-258 1863.0388,-243.1121 1844.6018,-260.6018 1793.9819,-240 1784.1473,-235.9974 1784.6196,-229.5805 1774.6235,-226 1713.6281,-204.152 1547.9615,-215.642 1483.6235,-208 1464.8157,-205.766 1444.2177,-202.3233 1426.4864,-199.0446"/>
<polygon fill="#000000" stroke="#000000" points="1426.8886,-195.5588 1416.413,-197.1435 1425.5904,-202.4374 1426.8886,-195.5588"/>
<text text-anchor="middle" x="1821.4443" y="-228.8" font-family="Times,serif" font-size="14.00" fill="#000000">broadcast</text>
</g>
<!-- Map 2&#45;&gt;Map 33 -->
<g id="edge69" class="edge">
<title>Map 2&#45;&gt;Map 33</title>
<path fill="none" stroke="#000000" d="M1990.5894,-274.893C2100.7877,-271.0346 2450.3555,-257.4592 2466.6235,-240 2470.8653,-235.4477 2470.1849,-231.1023 2466.6235,-226 2453.3445,-206.9753 2439.3164,-216.2276 2417.6235,-208 2415.2381,-207.0952 2412.7858,-206.1577 2410.3145,-205.2072"/>
<polygon fill="#000000" stroke="#000000" points="2411.3784,-201.8659 2400.7892,-201.5188 2408.8507,-208.3936 2411.3784,-201.8659"/>
<text text-anchor="middle" x="2496.4443" y="-228.8" font-family="Times,serif" font-size="14.00" fill="#000000">broadcast</text>
</g>
<!-- Map 2&#45;&gt;Map 41 -->
<g id="edge12" class="edge">
<title>Map 2&#45;&gt;Map 41</title>
<path fill="none" stroke="#000000" d="M1933.2349,-263.8664C1927.5781,-261.5292 1921.4923,-259.3816 1915.6235,-258 1847.8843,-242.0535 1668.5468,-263.327 1602.9819,-240 1592.9783,-236.4409 1593.6632,-229.4561 1583.6235,-226 1481.2248,-190.7501 1202.6528,-230.0419 1096.6235,-208 1093.614,-207.3744 1090.5454,-206.571 1087.4934,-205.6521"/>
<polygon fill="#000000" stroke="#000000" points="1088.488,-202.2937 1077.8937,-202.3989 1086.2413,-208.9233 1088.488,-202.2937"/>
<text text-anchor="middle" x="1630.4443" y="-228.8" font-family="Times,serif" font-size="14.00" fill="#000000">broadcast</text>
</g>
<!-- Reducer 14 -->
<g id="node20" class="node">
<title>Reducer 14</title>
<ellipse fill="none" stroke="#000000" cx="2124.6235" cy="-190" rx="50.7474" ry="18"/>
<text text-anchor="middle" x="2124.6235" y="-185.8" font-family="Times,serif" font-size="14.00" fill="#000000">Reducer 14</text>
</g>
<!-- Map 2&#45;&gt;Reducer 14 -->
<g id="edge18" class="edge">
<title>Map 2&#45;&gt;Reducer 14</title>
<path fill="none" stroke="#000000" d="M1990.2668,-272.7538C2017.9157,-268.7048 2057.5776,-259.724 2086.6235,-240 2095.5532,-233.9362 2103.2593,-225.0848 2109.3527,-216.5086"/>
<polygon fill="#000000" stroke="#000000" points="2112.2926,-218.4082 2114.8942,-208.1377 2106.4557,-214.5442 2112.2926,-218.4082"/>
<text text-anchor="middle" x="2119.7305" y="-228.8" font-family="Times,serif" font-size="14.00" fill="#000000">sorted</text>
</g>
<!-- Reducer 16 -->
<g id="node21" class="node">
<title>Reducer 16</title>
<ellipse fill="none" stroke="#000000" cx="2596.6235" cy="-190" rx="50.7474" ry="18"/>
<text text-anchor="middle" x="2596.6235" y="-185.8" font-family="Times,serif" font-size="14.00" fill="#000000">Reducer 16</text>
</g>
<!-- Map 2&#45;&gt;Reducer 16 -->
<g id="edge20" class="edge">
<title>Map 2&#45;&gt;Reducer 16</title>
<path fill="none" stroke="#000000" d="M1990.5396,-274.9899C2104.3664,-271.3499 2477.1193,-258.154 2527.6235,-240 2543.5725,-234.2671 2559.0651,-223.652 2571.3158,-213.6725"/>
<polygon fill="#000000" stroke="#000000" points="2573.8921,-216.0762 2579.2448,-206.9329 2569.3586,-210.7425 2573.8921,-216.0762"/>
<text text-anchor="middle" x="2571.7305" y="-228.8" font-family="Times,serif" font-size="14.00" fill="#000000">sorted</text>
</g>
<!-- Map 2&#45;&gt;Map 49 -->
<g id="edge23" class="edge">
<title>Map 2&#45;&gt;Map 49</title>
<path fill="none" stroke="#000000" d="M1952.4435,-258.1807C1949.0472,-246.4975 1944.5378,-230.985 1940.6784,-217.7086"/>
<polygon fill="#000000" stroke="#000000" points="1944.0353,-216.7178 1937.8829,-208.0923 1937.3136,-218.6718 1944.0353,-216.7178"/>
<text text-anchor="middle" x="1973.4443" y="-228.8" font-family="Times,serif" font-size="14.00" fill="#000000">broadcast</text>
</g>
<!-- Map 2&#45;&gt;Reducer 12 -->
<g id="edge25" class="edge">
<title>Map 2&#45;&gt;Reducer 12</title>
<path fill="none" stroke="#000000" d="M1932.742,-263.8663C1927.2154,-261.5893 1921.3079,-259.4666 1915.6235,-258 1838.1105,-238.0013 1811.0359,-268.9681 1736.4097,-240 1726.7025,-236.2319 1727.4272,-229.5095 1717.6235,-226 1637.6126,-197.3579 1419.392,-222.3166 1335.6235,-208 1331.1614,-207.2374 1326.564,-206.2469 1321.9934,-205.1228"/>
<polygon fill="#000000" stroke="#000000" points="1322.6571,-201.6776 1312.093,-202.4851 1320.8549,-208.4416 1322.6571,-201.6776"/>
<text text-anchor="middle" x="1753.7305" y="-228.8" font-family="Times,serif" font-size="14.00" fill="#000000">sorted</text>
</g>
<!-- Map 2&#45;&gt;Map 56 -->
<g id="edge51" class="edge">
<title>Map 2&#45;&gt;Map 56</title>
<path fill="none" stroke="#000000" d="M1932.9995,-263.554C1906.9775,-250.5521 1867.5453,-231.3185 1851.6235,-226 1809.2816,-211.8562 1759.2081,-202.1992 1723.6749,-196.476"/>
<polygon fill="#000000" stroke="#000000" points="1724.0203,-192.9874 1713.5987,-194.8956 1722.9356,-199.9029 1724.0203,-192.9874"/>
<text text-anchor="middle" x="1910.4443" y="-228.8" font-family="Times,serif" font-size="14.00" fill="#000000">broadcast</text>
</g>
<!-- Map 2&#45;&gt;Reducer 10 -->
<g id="edge61" class="edge">
<title>Map 2&#45;&gt;Reducer 10</title>
<path fill="none" stroke="#000000" d="M1932.7681,-263.7625C1927.2399,-261.492 1921.3251,-259.3981 1915.6235,-258 1813.3649,-232.9243 1778.0135,-276.9177 1679.4097,-240 1669.6579,-236.3489 1670.4388,-229.4768 1660.6235,-226 1567.3337,-192.9543 1313.1954,-224.5753 1215.6235,-208 1211.407,-207.2837 1207.0701,-206.3528 1202.7531,-205.2917"/>
<polygon fill="#000000" stroke="#000000" points="1203.3472,-201.8275 1192.782,-202.6193 1201.535,-208.5889 1203.3472,-201.8275"/>
<text text-anchor="middle" x="1696.7305" y="-228.8" font-family="Times,serif" font-size="14.00" fill="#000000">sorted</text>
</g>
<!-- Map 2&#45;&gt;Reducer 5 -->
<g id="edge85" class="edge">
<title>Map 2&#45;&gt;Reducer 5</title>
<path fill="none" stroke="#000000" d="M1933.244,-263.8275C1927.5867,-261.4924 1921.4984,-259.3553 1915.6235,-258 1835.3648,-239.484 1622.9368,-267.8184 1545.4097,-240 1535.6086,-236.4832 1536.4705,-229.3861 1526.6235,-226 1440.5486,-196.401 798.1386,-217.5929 707.6235,-208 693.2637,-206.4781 677.8205,-203.9151 663.6844,-201.1933"/>
<polygon fill="#000000" stroke="#000000" points="664.1474,-197.7168 653.6563,-199.1959 662.7799,-204.582 664.1474,-197.7168"/>
<text text-anchor="middle" x="1562.7305" y="-228.8" font-family="Times,serif" font-size="14.00" fill="#000000">sorted</text>
</g>
<!-- Reducer 3 -->
<g id="node55" class="node">
<title>Reducer 3</title>
<ellipse fill="none" stroke="#000000" cx="2867.6235" cy="-190" rx="46.4045" ry="18"/>
<text text-anchor="middle" x="2867.6235" y="-185.8" font-family="Times,serif" font-size="14.00" fill="#000000">Reducer 3</text>
</g>
<!-- Map 2&#45;&gt;Reducer 3 -->
<g id="edge91" class="edge">
<title>Map 2&#45;&gt;Reducer 3</title>
<path fill="none" stroke="#000000" d="M1990.74,-275.6044C2117.5992,-273.9064 2572.5999,-266.0918 2714.6235,-240 2753.4369,-232.8694 2795.9861,-218.391 2826.3389,-206.8411"/>
<polygon fill="#000000" stroke="#000000" points="2827.6783,-210.0758 2835.7449,-203.2071 2825.1555,-203.5462 2827.6783,-210.0758"/>
<text text-anchor="middle" x="2787.7305" y="-228.8" font-family="Times,serif" font-size="14.00" fill="#000000">sorted</text>
</g>
<!-- Reducer 22&#45;&gt;Map 46 -->
<g id="edge7" class="edge">
<title>Reducer 22&#45;&gt;Map 46</title>
<path fill="none" stroke="#000000" d="M1057.4604,-259.8858C1076.4652,-246.8056 1102.2406,-229.9122 1113.9819,-226 1207.7457,-194.758 1239.3275,-230.2437 1335.6235,-208 1338.4436,-207.3486 1341.3196,-206.5561 1344.1878,-205.671"/>
<polygon fill="#000000" stroke="#000000" points="1345.4887,-208.9252 1353.8166,-202.3757 1343.222,-202.3023 1345.4887,-208.9252"/>
<text text-anchor="middle" x="1141.4443" y="-228.8" font-family="Times,serif" font-size="14.00" fill="#000000">broadcast</text>
</g>
<!-- Reducer 34 -->
<g id="node11" class="node">
<title>Reducer 34</title>
<ellipse fill="none" stroke="#000000" cx="3068.6235" cy="-104" rx="50.7474" ry="18"/>
<text text-anchor="middle" x="3068.6235" y="-99.8" font-family="Times,serif" font-size="14.00" fill="#000000">Reducer 34</text>
</g>
<!-- Map 33&#45;&gt;Reducer 34 -->
<g id="edge8" class="edge">
<title>Map 33&#45;&gt;Reducer 34</title>
<path fill="none" stroke="#000000" d="M2399.4559,-177.7316C2405.3603,-175.521 2411.6238,-173.4589 2417.6235,-172 2529.1163,-144.8892 2869.8162,-118.2356 3008.7212,-108.1887"/>
<polygon fill="#000000" stroke="#000000" points="3009.0407,-111.6748 3018.7636,-107.4658 3008.5381,-104.6929 3009.0407,-111.6748"/>
<text text-anchor="middle" x="2655.7305" y="-142.8" font-family="Times,serif" font-size="14.00" fill="#000000">sorted</text>
</g>
<!-- Union 4 -->
<g id="node12" class="node">
<title>Union 4</title>
<ellipse fill="none" stroke="#000000" cx="3155.6235" cy="-276" rx="38.6968" ry="18"/>
<text text-anchor="middle" x="3155.6235" y="-271.8" font-family="Times,serif" font-size="14.00" fill="#000000">Union 4</text>
</g>
<!-- Union 4&#45;&gt;Reducer 34 -->
<g id="edge9" class="edge">
<title>Union 4&#45;&gt;Reducer 34</title>
<path fill="none" stroke="#000000" d="M3182.7713,-262.981C3202.9749,-251.6159 3228.985,-233.0164 3240.6235,-208 3247.3727,-193.4931 3247.3727,-186.5069 3240.6235,-172 3231.3099,-151.9809 3222.196,-150.2189 3202.6235,-140 3178.6008,-127.4576 3149.8138,-118.9865 3125.0892,-113.4306"/>
<polygon fill="#000000" stroke="#000000" points="3125.6353,-109.9682 3115.1241,-111.2971 3124.1698,-116.8131 3125.6353,-109.9682"/>
<text text-anchor="middle" x="3261.7856" y="-185.8" font-family="Times,serif" font-size="14.00" fill="#000000">None</text>
</g>
<!-- Reducer 27 -->
<g id="node43" class="node">
<title>Reducer 27</title>
<ellipse fill="none" stroke="#000000" cx="3101.6235" cy="-190" rx="50.7474" ry="18"/>
<text text-anchor="middle" x="3101.6235" y="-185.8" font-family="Times,serif" font-size="14.00" fill="#000000">Reducer 27</text>
</g>
<!-- Union 4&#45;&gt;Reducer 27 -->
<g id="edge54" class="edge">
<title>Union 4&#45;&gt;Reducer 27</title>
<path fill="none" stroke="#000000" d="M3144.6958,-258.5966C3137.0611,-246.4376 3126.7306,-229.9854 3118.1006,-216.2412"/>
<polygon fill="#000000" stroke="#000000" points="3121.0022,-214.2804 3112.7203,-207.6727 3115.0739,-218.0028 3121.0022,-214.2804"/>
<text text-anchor="middle" x="3147.7856" y="-228.8" font-family="Times,serif" font-size="14.00" fill="#000000">None</text>
</g>
<!-- Union 4&#45;&gt;Reducer 3 -->
<g id="edge92" class="edge">
<title>Union 4&#45;&gt;Reducer 3</title>
<path fill="none" stroke="#000000" d="M3117.022,-272.7036C3060.1258,-267.3948 2956.8602,-255.9122 2923.2993,-240 2910.5166,-233.9394 2898.5351,-223.9883 2888.9859,-214.5529"/>
<polygon fill="#000000" stroke="#000000" points="2891.3399,-211.9518 2881.8802,-207.1806 2886.2999,-216.8096 2891.3399,-211.9518"/>
<text text-anchor="middle" x="2938.7856" y="-228.8" font-family="Times,serif" font-size="14.00" fill="#000000">None</text>
</g>
<!-- Reducer 8 -->
<g id="node56" class="node">
<title>Reducer 8</title>
<ellipse fill="none" stroke="#000000" cx="2749.6235" cy="-104" rx="46.4045" ry="18"/>
<text text-anchor="middle" x="2749.6235" y="-99.8" font-family="Times,serif" font-size="14.00" fill="#000000">Reducer 8</text>
</g>
<!-- Union 4&#45;&gt;Reducer 8 -->
<g id="edge96" class="edge">
<title>Union 4&#45;&gt;Reducer 8</title>
<path fill="none" stroke="#000000" d="M3163.5233,-258.3101C3172.4686,-235.2568 3183.1921,-195.1626 3161.6235,-172 3137.5683,-146.1668 2911.6439,-120.282 2804.9374,-109.3767"/>
<polygon fill="#000000" stroke="#000000" points="2804.988,-105.8639 2794.686,-108.3376 2804.282,-112.8283 2804.988,-105.8639"/>
<text text-anchor="middle" x="3198.7305" y="-185.8" font-family="Times,serif" font-size="14.00" fill="#000000">unsorted</text>
</g>
<!-- Reducer 19&#45;&gt;Map 33 -->
<g id="edge70" class="edge">
<title>Reducer 19&#45;&gt;Map 33</title>
<path fill="none" stroke="#000000" d="M1892.0838,-263.4603C1899.7738,-261.2694 1907.8993,-259.2839 1915.6235,-258 1941.6192,-253.6792 2371.3466,-258.9842 2389.6235,-240 2395.9203,-233.4596 2394.7164,-224.5593 2390.8479,-216.0798"/>
<polygon fill="#000000" stroke="#000000" points="2393.7899,-214.1712 2385.8332,-207.1754 2387.6906,-217.6062 2393.7899,-214.1712"/>
<text text-anchor="middle" x="2421.4443" y="-228.8" font-family="Times,serif" font-size="14.00" fill="#000000">broadcast</text>
</g>
<!-- Map 41&#45;&gt;Reducer 42 -->
<g id="edge71" class="edge">
<title>Map 41&#45;&gt;Reducer 42</title>
<path fill="none" stroke="#000000" d="M1021.6375,-178.5968C1015.7016,-176.3469 1009.4789,-174.0496 1003.6235,-172 947.3002,-152.2848 881.8189,-131.8338 838.2701,-118.5762"/>
<polygon fill="#000000" stroke="#000000" points="839.0929,-115.1683 828.5074,-115.6127 837.0596,-121.8665 839.0929,-115.1683"/>
<text text-anchor="middle" x="962.7305" y="-142.8" font-family="Times,serif" font-size="14.00" fill="#000000">sorted</text>
</g>
<!-- Reducer 21&#45;&gt;Map 41 -->
<g id="edge13" class="edge">
<title>Reducer 21&#45;&gt;Map 41</title>
<path fill="none" stroke="#000000" d="M954.3016,-264.3081C977.3115,-256.8738 1003.8675,-247.3076 1013.6235,-240 1022.091,-233.6575 1029.4964,-224.8469 1035.4125,-216.386"/>
<polygon fill="#000000" stroke="#000000" points="1038.4749,-218.098 1041.0206,-207.8136 1032.617,-214.2658 1038.4749,-218.098"/>
<text text-anchor="middle" x="1054.4443" y="-228.8" font-family="Times,serif" font-size="14.00" fill="#000000">broadcast</text>
</g>
<!-- Reducer 31 -->
<g id="node17" class="node">
<title>Reducer 31</title>
<ellipse fill="none" stroke="#000000" cx="2477.6235" cy="-190" rx="50.7474" ry="18"/>
<text text-anchor="middle" x="2477.6235" y="-185.8" font-family="Times,serif" font-size="14.00" fill="#000000">Reducer 31</text>
</g>
<!-- Map 26&#45;&gt;Reducer 31 -->
<g id="edge14" class="edge">
<title>Map 26&#45;&gt;Reducer 31</title>
<path fill="none" stroke="#000000" d="M2637.461,-258.9022C2628.2413,-248.0211 2615.0304,-234.437 2600.6235,-226 2575.126,-211.068 2564.9785,-216.3117 2536.6235,-208 2533.0749,-206.9598 2529.41,-205.8727 2525.725,-204.7703"/>
<polygon fill="#000000" stroke="#000000" points="2526.5735,-201.3706 2515.989,-201.8381 2524.5548,-208.0732 2526.5735,-201.3706"/>
<text text-anchor="middle" x="2636.7305" y="-228.8" font-family="Times,serif" font-size="14.00" fill="#000000">sorted</text>
</g>
<!-- Map 26&#45;&gt;Reducer 30 -->
<g id="edge16" class="edge">
<title>Map 26&#45;&gt;Reducer 30</title>
<path fill="none" stroke="#000000" d="M2613.1245,-275.3628C2534.7456,-273.5118 2356.3743,-266.4367 2302.4097,-240 2291.0672,-234.4435 2280.9781,-225.0117 2273.0272,-215.8274"/>
<polygon fill="#000000" stroke="#000000" points="2275.632,-213.4827 2266.6127,-207.9236 2270.1967,-217.8939 2275.632,-213.4827"/>
<text text-anchor="middle" x="2319.7305" y="-228.8" font-family="Times,serif" font-size="14.00" fill="#000000">sorted</text>
</g>
<!-- Reducer 32 -->
<g id="node40" class="node">
<title>Reducer 32</title>
<ellipse fill="none" stroke="#000000" cx="2982.6235" cy="-190" rx="50.7474" ry="18"/>
<text text-anchor="middle" x="2982.6235" y="-185.8" font-family="Times,serif" font-size="14.00" fill="#000000">Reducer 32</text>
</g>
<!-- Map 26&#45;&gt;Reducer 32 -->
<g id="edge43" class="edge">
<title>Map 26&#45;&gt;Reducer 32</title>
<path fill="none" stroke="#000000" d="M2679.1239,-263.9189C2685.152,-261.6947 2691.534,-259.5797 2697.6235,-258 2752.3796,-243.7953 2768.5783,-253.039 2823.6235,-240 2842.6824,-235.4854 2846.7608,-231.9868 2865.4097,-226 2887.8943,-218.7818 2912.9021,-211.0595 2934.0243,-204.6253"/>
<polygon fill="#000000" stroke="#000000" points="2935.1915,-207.9287 2943.7419,-201.6724 2933.1562,-201.2311 2935.1915,-207.9287"/>
<text text-anchor="middle" x="2882.7305" y="-228.8" font-family="Times,serif" font-size="14.00" fill="#000000">sorted</text>
</g>
<!-- Map 26&#45;&gt;Reducer 27 -->
<g id="edge53" class="edge">
<title>Map 26&#45;&gt;Reducer 27</title>
<path fill="none" stroke="#000000" d="M2678.2779,-263.7999C2684.5308,-261.4971 2691.2174,-259.3805 2697.6235,-258 2830.8014,-229.3005 2872.1536,-275.7163 3003.6235,-240 3026.4875,-233.7886 3050.2029,-221.8575 3068.5767,-211.2079"/>
<polygon fill="#000000" stroke="#000000" points="3070.6,-214.0766 3077.4021,-205.9536 3067.0191,-208.0619 3070.6,-214.0766"/>
<text text-anchor="middle" x="3057.7305" y="-228.8" font-family="Times,serif" font-size="14.00" fill="#000000">sorted</text>
</g>
<!-- Map 26&#45;&gt;Reducer 28 -->
<g id="edge55" class="edge">
<title>Map 26&#45;&gt;Reducer 28</title>
<path fill="none" stroke="#000000" d="M2613.2602,-274.2374C2517.7368,-269.5512 2266.3696,-256.0401 2184.4097,-240 2164.359,-236.0759 2160.7922,-229.2635 2140.6235,-226 1967.0915,-197.9206 732.8942,-231.0556 558.6235,-208 551.6864,-207.0822 544.45,-205.7102 537.3738,-204.1253"/>
<polygon fill="#000000" stroke="#000000" points="537.7151,-200.608 527.1745,-201.6791 536.0824,-207.4149 537.7151,-200.608"/>
<text text-anchor="middle" x="2201.7305" y="-228.8" font-family="Times,serif" font-size="14.00" fill="#000000">sorted</text>
</g>
<!-- Map 26&#45;&gt;Reducer 29 -->
<g id="edge59" class="edge">
<title>Map 26&#45;&gt;Reducer 29</title>
<path fill="none" stroke="#000000" d="M2613.2996,-274.7716C2526.6664,-271.5837 2314.1674,-261.7348 2246.4097,-240 2234.7291,-236.2532 2234.4085,-229.4043 2222.6235,-226 2096.3905,-189.5353 1762.1331,-223.2213 1631.6235,-208 1620.0031,-206.6447 1607.6358,-204.5379 1595.9574,-202.2364"/>
<polygon fill="#000000" stroke="#000000" points="1596.407,-198.7559 1585.908,-200.1777 1595.0022,-205.6135 1596.407,-198.7559"/>
<text text-anchor="middle" x="2263.7305" y="-228.8" font-family="Times,serif" font-size="14.00" fill="#000000">sorted</text>
</g>
<!-- Union 15 -->
<g id="node18" class="node">
<title>Union 15</title>
<ellipse fill="none" stroke="#000000" cx="1654.6235" cy="-276" rx="43.0409" ry="18"/>
<text text-anchor="middle" x="1654.6235" y="-271.8" font-family="Times,serif" font-size="14.00" fill="#000000">Union 15</text>
</g>
<!-- Union 15&#45;&gt;Reducer 31 -->
<g id="edge15" class="edge">
<title>Union 15&#45;&gt;Reducer 31</title>
<path fill="none" stroke="#000000" d="M1687.0962,-264.0427C1695.0171,-261.6023 1703.5398,-259.3655 1711.6235,-258 1780.1264,-246.4288 2271.0358,-262.9082 2336.6235,-240 2346.417,-236.5794 2346.0142,-230.6259 2355.2993,-226 2381.1057,-213.143 2389.9654,-216.1425 2417.6235,-208 2421.3891,-206.8914 2425.2855,-205.7377 2429.201,-204.5734"/>
<polygon fill="#000000" stroke="#000000" points="2430.3273,-207.89 2438.9098,-201.6779 2428.3266,-201.182 2430.3273,-207.89"/>
<text text-anchor="middle" x="2370.7856" y="-228.8" font-family="Times,serif" font-size="14.00" fill="#000000">None</text>
</g>
<!-- Union 15&#45;&gt;Reducer 14 -->
<g id="edge19" class="edge">
<title>Union 15&#45;&gt;Reducer 14</title>
<path fill="none" stroke="#000000" d="M1687.4254,-264.1096C1695.2597,-261.6987 1703.6615,-259.4581 1711.6235,-258 1851.304,-232.4204 1895.1631,-282.6075 2030.6235,-240 2041.922,-236.4462 2042.964,-231.7849 2053.2993,-226 2063.5969,-220.2363 2074.9275,-214.3275 2085.4672,-209.0065"/>
<polygon fill="#000000" stroke="#000000" points="2087.1008,-212.1029 2094.4799,-204.5004 2083.9704,-205.8419 2087.1008,-212.1029"/>
<text text-anchor="middle" x="2068.7856" y="-228.8" font-family="Times,serif" font-size="14.00" fill="#000000">None</text>
</g>
<!-- Reducer 50 -->
<g id="node37" class="node">
<title>Reducer 50</title>
<ellipse fill="none" stroke="#000000" cx="1985.6235" cy="-104" rx="50.7474" ry="18"/>
<text text-anchor="middle" x="1985.6235" y="-99.8" font-family="Times,serif" font-size="14.00" fill="#000000">Reducer 50</text>
</g>
<!-- Union 15&#45;&gt;Reducer 50 -->
<g id="edge40" class="edge">
<title>Union 15&#45;&gt;Reducer 50</title>
<path fill="none" stroke="#000000" d="M1687.4307,-264.1384C1695.2648,-261.7263 1703.6651,-259.478 1711.6235,-258 1743.6922,-252.0446 1982.2782,-263.7602 2004.6235,-240 2032.0357,-210.8522 2015.3379,-161.4675 2000.5855,-130.9094"/>
<polygon fill="#000000" stroke="#000000" points="2003.5621,-129.0398 1995.9225,-121.6989 1997.3168,-132.2016 2003.5621,-129.0398"/>
<text text-anchor="middle" x="2034.7856" y="-185.8" font-family="Times,serif" font-size="14.00" fill="#000000">None</text>
</g>
<!-- Union 15&#45;&gt;Reducer 7 -->
<g id="edge89" class="edge">
<title>Union 15&#45;&gt;Reducer 7</title>
<path fill="none" stroke="#000000" d="M1622.1513,-264.0398C1614.2304,-261.5995 1605.7076,-259.3634 1597.6235,-258 1562.7566,-252.1195 989.0291,-262.0783 961.4097,-240 954.7424,-234.6703 951.2667,-226.3832 949.5305,-218.0779"/>
<polygon fill="#000000" stroke="#000000" points="952.994,-217.5725 948.1778,-208.1357 946.0579,-218.5163 952.994,-217.5725"/>
<text text-anchor="middle" x="985.7305" y="-228.8" font-family="Times,serif" font-size="14.00" fill="#000000">unsorted</text>
</g>
<!-- Union 17 -->
<g id="node22" class="node">
<title>Union 17</title>
<ellipse fill="none" stroke="#000000" cx="2749.6235" cy="-276" rx="43.0409" ry="18"/>
<text text-anchor="middle" x="2749.6235" y="-271.8" font-family="Times,serif" font-size="14.00" fill="#000000">Union 17</text>
</g>
<!-- Union 17&#45;&gt;Reducer 16 -->
<g id="edge21" class="edge">
<title>Union 17&#45;&gt;Reducer 16</title>
<path fill="none" stroke="#000000" d="M2721.7093,-262.1002C2708.9642,-255.602 2693.7462,-247.6287 2680.2993,-240 2669.9975,-234.1556 2667.7633,-232.1213 2657.6235,-226 2649.3513,-221.0061 2640.4102,-215.6861 2631.9902,-210.7108"/>
<polygon fill="#000000" stroke="#000000" points="2633.5065,-207.5418 2623.1144,-205.479 2629.9519,-213.5721 2633.5065,-207.5418"/>
<text text-anchor="middle" x="2695.7856" y="-228.8" font-family="Times,serif" font-size="14.00" fill="#000000">None</text>
</g>
<!-- Reducer 57 -->
<g id="node39" class="node">
<title>Reducer 57</title>
<ellipse fill="none" stroke="#000000" cx="2350.6235" cy="-104" rx="50.7474" ry="18"/>
<text text-anchor="middle" x="2350.6235" y="-99.8" font-family="Times,serif" font-size="14.00" fill="#000000">Reducer 57</text>
</g>
<!-- Union 17&#45;&gt;Reducer 57 -->
<g id="edge42" class="edge">
<title>Union 17&#45;&gt;Reducer 57</title>
<path fill="none" stroke="#000000" d="M2739.2573,-258.2948C2724.2768,-234.4494 2694.2058,-192.6306 2656.6235,-172 2578.5101,-129.12 2475.136,-113.2741 2410.7715,-107.422"/>
<polygon fill="#000000" stroke="#000000" points="2411.0486,-103.933 2400.7861,-106.5659 2410.4506,-110.9074 2411.0486,-103.933"/>
<text text-anchor="middle" x="2716.7856" y="-185.8" font-family="Times,serif" font-size="14.00" fill="#000000">None</text>
</g>
<!-- Union 17&#45;&gt;Reducer 32 -->
<g id="edge44" class="edge">
<title>Union 17&#45;&gt;Reducer 32</title>
<path fill="none" stroke="#000000" d="M2792.5567,-273.103C2845.6394,-268.7607 2932.1092,-258.9673 2957.6235,-240 2965.2066,-234.3628 2970.6377,-225.7815 2974.4569,-217.3109"/>
<polygon fill="#000000" stroke="#000000" points="2977.7323,-218.5451 2978.1128,-207.9571 2971.2126,-215.9969 2977.7323,-218.5451"/>
<text text-anchor="middle" x="2984.7856" y="-228.8" font-family="Times,serif" font-size="14.00" fill="#000000">None</text>
</g>
<!-- Union 17&#45;&gt;Reducer 8 -->
<g id="edge95" class="edge">
<title>Union 17&#45;&gt;Reducer 8</title>
<path fill="none" stroke="#000000" d="M2749.6235,-257.9181C2749.6235,-227.981 2749.6235,-167.8972 2749.6235,-132.2989"/>
<polygon fill="#000000" stroke="#000000" points="2753.1236,-132.0977 2749.6235,-122.0977 2746.1236,-132.0978 2753.1236,-132.0977"/>
<text text-anchor="middle" x="2776.4443" y="-185.8" font-family="Times,serif" font-size="14.00" fill="#000000">broadcast</text>
</g>
<!-- Map 49&#45;&gt;Reducer 50 -->
<g id="edge39" class="edge">
<title>Map 49&#45;&gt;Reducer 50</title>
<path fill="none" stroke="#000000" d="M1943.3489,-172.5966C1950.8422,-160.4376 1960.9814,-143.9854 1969.4517,-130.2412"/>
<polygon fill="#000000" stroke="#000000" points="1972.4653,-132.0222 1974.7322,-121.6727 1966.5061,-128.3496 1972.4653,-132.0222"/>
<text text-anchor="middle" x="1979.7305" y="-142.8" font-family="Times,serif" font-size="14.00" fill="#000000">sorted</text>
</g>
<!-- Reducer 23&#45;&gt;Map 49 -->
<g id="edge24" class="edge">
<title>Reducer 23&#45;&gt;Map 49</title>
<path fill="none" stroke="#000000" d="M1414.639,-264.03C1407.6709,-261.9429 1400.4451,-259.8503 1393.6235,-258 1360.2714,-248.9536 1339.4032,-267.117 1317.9819,-240 1314.1249,-235.1174 1313.6808,-230.4962 1317.9819,-226 1333.5752,-209.6995 1701.1135,-209.4681 1723.6235,-208 1779.3557,-204.3651 1843.3164,-198.6257 1885.6473,-194.6077"/>
<polygon fill="#000000" stroke="#000000" points="1886.0385,-198.0863 1895.6603,-193.651 1885.3727,-191.1181 1886.0385,-198.0863"/>
<text text-anchor="middle" x="1345.4443" y="-228.8" font-family="Times,serif" font-size="14.00" fill="#000000">broadcast</text>
</g>
<!-- Map 25 -->
<g id="node26" class="node">
<title>Map 25</title>
<ellipse fill="none" stroke="#000000" cx="2006.6235" cy="-362" rx="37.243" ry="18"/>
<text text-anchor="middle" x="2006.6235" y="-357.8" font-family="Times,serif" font-size="14.00" fill="#000000">Map 25</text>
</g>
<!-- Map 25&#45;&gt;Map 2 -->
<g id="edge75" class="edge">
<title>Map 25&#45;&gt;Map 2</title>
<path fill="none" stroke="#000000" d="M1980.8992,-348.7977C1972.3683,-343.0264 1963.822,-335.4016 1958.9819,-326 1955.578,-319.3879 1954.2995,-311.6042 1954.1053,-304.1726"/>
<polygon fill="#000000" stroke="#000000" points="1957.6072,-304.1717 1954.4443,-294.06 1950.6111,-303.9371 1957.6072,-304.1717"/>
<text text-anchor="middle" x="1986.4443" y="-314.8" font-family="Times,serif" font-size="14.00" fill="#000000">broadcast</text>
</g>
<!-- Map 25&#45;&gt;Map 26 -->
<g id="edge28" class="edge">
<title>Map 25&#45;&gt;Map 26</title>
<path fill="none" stroke="#000000" d="M2041.9018,-355.7801C2081.9881,-348.4125 2144.6922,-335.892 2166.6235,-326 2176.3025,-321.6344 2176.0141,-315.6581 2185.9819,-312 2261.5266,-284.2762 2500.2069,-277.9009 2602.8903,-276.4362"/>
<polygon fill="#000000" stroke="#000000" points="2603.024,-279.9349 2612.9765,-276.302 2602.9308,-272.9355 2603.024,-279.9349"/>
<text text-anchor="middle" x="2213.4443" y="-314.8" font-family="Times,serif" font-size="14.00" fill="#000000">broadcast</text>
</g>
<!-- Map 37 -->
<g id="node27" class="node">
<title>Map 37</title>
<ellipse fill="none" stroke="#000000" cx="2318.6235" cy="-362" rx="37.243" ry="18"/>
<text text-anchor="middle" x="2318.6235" y="-357.8" font-family="Times,serif" font-size="14.00" fill="#000000">Map 37</text>
</g>
<!-- Map 37&#45;&gt;Map 2 -->
<g id="edge76" class="edge">
<title>Map 37&#45;&gt;Map 2</title>
<path fill="none" stroke="#000000" d="M2297.3677,-347.1016C2277.3198,-333.1702 2249.4894,-314.1852 2243.6235,-312 2200.1325,-295.798 2069.5302,-284.1758 2000.8753,-279.002"/>
<polygon fill="#000000" stroke="#000000" points="2001.0434,-275.505 1990.8121,-278.2565 2000.5261,-282.4859 2001.0434,-275.505"/>
<text text-anchor="middle" x="2293.4443" y="-314.8" font-family="Times,serif" font-size="14.00" fill="#000000">broadcast</text>
</g>
<!-- Map 37&#45;&gt;Map 26 -->
<g id="edge29" class="edge">
<title>Map 37&#45;&gt;Map 26</title>
<path fill="none" stroke="#000000" d="M2354.5934,-356.9831C2386.851,-351.7228 2435.0552,-341.959 2474.6235,-326 2485.8483,-321.4727 2486.7681,-316.5543 2497.9819,-312 2532.5449,-297.9629 2573.8343,-288.6393 2604.75,-283.0047"/>
<polygon fill="#000000" stroke="#000000" points="2605.5701,-286.4142 2614.812,-281.2337 2604.3567,-279.5202 2605.5701,-286.4142"/>
<text text-anchor="middle" x="2525.4443" y="-314.8" font-family="Times,serif" font-size="14.00" fill="#000000">broadcast</text>
</g>
<!-- Map 38 -->
<g id="node28" class="node">
<title>Map 38</title>
<ellipse fill="none" stroke="#000000" cx="3282.6235" cy="-362" rx="37.243" ry="18"/>
<text text-anchor="middle" x="3282.6235" y="-357.8" font-family="Times,serif" font-size="14.00" fill="#000000">Map 38</text>
</g>
<!-- Map 38&#45;&gt;Map 26 -->
<g id="edge30" class="edge">
<title>Map 38&#45;&gt;Map 26</title>
<path fill="none" stroke="#000000" d="M3266.9789,-345.6439C3254.5731,-333.8863 3236.1284,-318.9325 3216.6235,-312 3107.885,-273.3515 2810.7211,-316.9505 2697.6235,-294 2694.4124,-293.3484 2691.1335,-292.5014 2687.8756,-291.5303"/>
<polygon fill="#000000" stroke="#000000" points="2688.8474,-288.1649 2678.2536,-288.3159 2686.6294,-294.8042 2688.8474,-288.1649"/>
<text text-anchor="middle" x="3269.4443" y="-314.8" font-family="Times,serif" font-size="14.00" fill="#000000">broadcast</text>
</g>
<!-- Map 40 -->
<g id="node29" class="node">
<title>Map 40</title>
<ellipse fill="none" stroke="#000000" cx="2641.6235" cy="-362" rx="37.243" ry="18"/>
<text text-anchor="middle" x="2641.6235" y="-357.8" font-family="Times,serif" font-size="14.00" fill="#000000">Map 40</text>
</g>
<!-- Map 40&#45;&gt;Map 2 -->
<g id="edge78" class="edge">
<title>Map 40&#45;&gt;Map 2</title>
<path fill="none" stroke="#000000" d="M2614.5911,-349.4454C2601.2043,-342.9234 2584.9574,-334.5438 2570.9819,-326 2561.9228,-320.4618 2561.6218,-315.5743 2551.6235,-312 2500.2306,-293.6276 2128.9691,-281.0575 2000.9117,-277.2286"/>
<polygon fill="#000000" stroke="#000000" points="2000.7999,-273.7238 1990.7008,-276.9264 2000.5928,-280.7208 2000.7999,-273.7238"/>
<text text-anchor="middle" x="2598.4443" y="-314.8" font-family="Times,serif" font-size="14.00" fill="#000000">broadcast</text>
</g>
<!-- Map 40&#45;&gt;Map 26 -->
<g id="edge31" class="edge">
<title>Map 40&#45;&gt;Map 26</title>
<path fill="none" stroke="#000000" d="M2674.7333,-353.4615C2686.3914,-350.4615 2699.587,-347.0733 2711.6235,-344 2743.1654,-335.9464 2762.632,-351.6923 2782.6235,-326 2819.8838,-278.1148 2809.4425,-327.0293 2697.6235,-294 2694.7011,-293.1368 2691.7027,-292.1747 2688.7032,-291.1567"/>
<polygon fill="#000000" stroke="#000000" points="2689.8055,-287.8339 2679.2109,-287.7674 2687.4516,-294.4263 2689.8055,-287.8339"/>
<text text-anchor="middle" x="2821.4443" y="-314.8" font-family="Times,serif" font-size="14.00" fill="#000000">broadcast</text>
</g>
<!-- Map 43 -->
<g id="node30" class="node">
<title>Map 43</title>
<ellipse fill="none" stroke="#000000" cx="3375.6235" cy="-362" rx="37.243" ry="18"/>
<text text-anchor="middle" x="3375.6235" y="-357.8" font-family="Times,serif" font-size="14.00" fill="#000000">Map 43</text>
</g>
<!-- Map 43&#45;&gt;Map 26 -->
<g id="edge32" class="edge">
<title>Map 43&#45;&gt;Map 26</title>
<path fill="none" stroke="#000000" d="M3358.0377,-346.0863C3343.723,-334.2324 3322.3896,-318.9464 3300.6235,-312 3172.91,-271.2416 2829.0694,-320.3437 2697.6235,-294 2694.4108,-293.3561 2691.1308,-292.5146 2687.8721,-291.5473"/>
<polygon fill="#000000" stroke="#000000" points="2688.8426,-288.1815 2678.249,-288.3392 2686.6288,-294.8222 2688.8426,-288.1815"/>
<text text-anchor="middle" x="3356.4443" y="-314.8" font-family="Times,serif" font-size="14.00" fill="#000000">broadcast</text>
</g>
<!-- Map 45 -->
<g id="node31" class="node">
<title>Map 45</title>
<ellipse fill="none" stroke="#000000" cx="2502.6235" cy="-362" rx="37.243" ry="18"/>
<text text-anchor="middle" x="2502.6235" y="-357.8" font-family="Times,serif" font-size="14.00" fill="#000000">Map 45</text>
</g>
<!-- Map 45&#45;&gt;Map 2 -->
<g id="edge80" class="edge">
<title>Map 45&#45;&gt;Map 2</title>
<path fill="none" stroke="#000000" d="M2472.5044,-351.2809C2455.721,-344.8332 2434.6977,-335.9567 2416.9819,-326 2407.7257,-320.7978 2407.5835,-315.6796 2397.6235,-312 2325.6412,-285.4073 2097.0594,-278.3901 2000.9041,-276.5949"/>
<polygon fill="#000000" stroke="#000000" points="2000.724,-273.0912 1990.6638,-276.4142 2000.6005,-280.0902 2000.724,-273.0912"/>
<text text-anchor="middle" x="2444.4443" y="-314.8" font-family="Times,serif" font-size="14.00" fill="#000000">broadcast</text>
</g>
<!-- Map 45&#45;&gt;Map 26 -->
<g id="edge33" class="edge">
<title>Map 45&#45;&gt;Map 26</title>
<path fill="none" stroke="#000000" d="M2537.6196,-355.4693C2569.9739,-348.8278 2615.0366,-337.8518 2628.6235,-326 2635.3303,-320.1497 2640.0764,-311.8696 2643.3979,-303.7274"/>
<polygon fill="#000000" stroke="#000000" points="2646.7894,-304.6313 2646.779,-294.0365 2640.1801,-302.3253 2646.7894,-304.6313"/>
<text text-anchor="middle" x="2666.4443" y="-314.8" font-family="Times,serif" font-size="14.00" fill="#000000">broadcast</text>
</g>
<!-- Map 48 -->
<g id="node32" class="node">
<title>Map 48</title>
<ellipse fill="none" stroke="#000000" cx="3096.6235" cy="-362" rx="37.243" ry="18"/>
<text text-anchor="middle" x="3096.6235" y="-357.8" font-family="Times,serif" font-size="14.00" fill="#000000">Map 48</text>
</g>
<!-- Map 48&#45;&gt;Map 26 -->
<g id="edge34" class="edge">
<title>Map 48&#45;&gt;Map 26</title>
<path fill="none" stroke="#000000" d="M3089.0766,-343.9343C3083.3267,-332.6444 3074.2371,-318.9686 3061.6235,-312 3026.1793,-292.418 2737.2481,-302.3454 2697.6235,-294 2694.4173,-293.3247 2691.1418,-292.461 2687.8862,-291.4786"/>
<polygon fill="#000000" stroke="#000000" points="2688.8623,-288.1143 2678.2683,-288.245 2686.6315,-294.7494 2688.8623,-288.1143"/>
<text text-anchor="middle" x="3105.4443" y="-314.8" font-family="Times,serif" font-size="14.00" fill="#000000">broadcast</text>
</g>
<!-- Map 51 -->
<g id="node33" class="node">
<title>Map 51</title>
<ellipse fill="none" stroke="#000000" cx="2153.6235" cy="-362" rx="37.243" ry="18"/>
<text text-anchor="middle" x="2153.6235" y="-357.8" font-family="Times,serif" font-size="14.00" fill="#000000">Map 51</text>
</g>
<!-- Map 51&#45;&gt;Map 2 -->
<g id="edge81" class="edge">
<title>Map 51&#45;&gt;Map 2</title>
<path fill="none" stroke="#000000" d="M2136.7172,-345.719C2124.5064,-334.7697 2107.1439,-320.7838 2089.6235,-312 2061.0035,-297.6513 2025.9306,-288.4326 1999.1327,-282.9195"/>
<polygon fill="#000000" stroke="#000000" points="1999.7855,-279.4809 1989.298,-280.985 1998.4344,-286.3493 1999.7855,-279.4809"/>
<text text-anchor="middle" x="2139.4443" y="-314.8" font-family="Times,serif" font-size="14.00" fill="#000000">broadcast</text>
</g>
<!-- Map 51&#45;&gt;Map 26 -->
<g id="edge35" class="edge">
<title>Map 51&#45;&gt;Map 26</title>
<path fill="none" stroke="#000000" d="M2190.1315,-357.6394C2224.6528,-352.7077 2277.452,-343.05 2320.6235,-326 2331.8808,-321.5541 2332.5254,-315.9038 2343.9819,-312 2390.7693,-296.0574 2529.2951,-284.4012 2603.0938,-279.1298"/>
<polygon fill="#000000" stroke="#000000" points="2603.764,-282.5914 2613.4939,-278.3986 2603.273,-275.6086 2603.764,-282.5914"/>
<text text-anchor="middle" x="2371.4443" y="-314.8" font-family="Times,serif" font-size="14.00" fill="#000000">broadcast</text>
</g>
<!-- Map 52 -->
<g id="node34" class="node">
<title>Map 52</title>
<ellipse fill="none" stroke="#000000" cx="2757.6235" cy="-362" rx="37.243" ry="18"/>
<text text-anchor="middle" x="2757.6235" y="-357.8" font-family="Times,serif" font-size="14.00" fill="#000000">Map 52</text>
</g>
<!-- Map 52&#45;&gt;Map 2 -->
<g id="edge82" class="edge">
<title>Map 52&#45;&gt;Map 2</title>
<path fill="none" stroke="#000000" d="M2743.1983,-345.2453C2732.0618,-333.6118 2715.5633,-318.9927 2697.6235,-312 2632.8165,-286.7388 2149.2048,-278.4646 2000.8,-276.5061"/>
<polygon fill="#000000" stroke="#000000" points="2000.7488,-273.0052 1990.7045,-276.3759 2000.6585,-280.0047 2000.7488,-273.0052"/>
<text text-anchor="middle" x="2748.4443" y="-314.8" font-family="Times,serif" font-size="14.00" fill="#000000">broadcast</text>
</g>
<!-- Map 52&#45;&gt;Map 26 -->
<g id="edge36" class="edge">
<title>Map 52&#45;&gt;Map 26</title>
<path fill="none" stroke="#000000" d="M2794.0246,-357.1672C2843.7028,-350.2027 2927.6362,-336.9748 2936.6235,-326 2940.5658,-321.186 2940.8549,-316.562 2936.6235,-312 2918.5137,-292.4749 2723.6098,-299.8236 2697.6235,-294 2694.4262,-293.2835 2691.1571,-292.3906 2687.9058,-291.3885"/>
<polygon fill="#000000" stroke="#000000" points="2688.8896,-288.0263 2678.2952,-288.1213 2686.6365,-294.6538 2688.8896,-288.0263"/>
<text text-anchor="middle" x="2967.4443" y="-314.8" font-family="Times,serif" font-size="14.00" fill="#000000">broadcast</text>
</g>
<!-- Map 53 -->
<g id="node35" class="node">
<title>Map 53</title>
<ellipse fill="none" stroke="#000000" cx="3189.6235" cy="-362" rx="37.243" ry="18"/>
<text text-anchor="middle" x="3189.6235" y="-357.8" font-family="Times,serif" font-size="14.00" fill="#000000">Map 53</text>
</g>
<!-- Map 53&#45;&gt;Map 26 -->
<g id="edge37" class="edge">
<title>Map 53&#45;&gt;Map 26</title>
<path fill="none" stroke="#000000" d="M3176.8925,-344.7396C3167.2654,-333.1833 3152.9447,-318.8741 3136.6235,-312 3046.6414,-274.1014 2793.249,-313.7193 2697.6235,-294 2694.4144,-293.3382 2691.137,-292.4841 2687.8801,-291.5082"/>
<polygon fill="#000000" stroke="#000000" points="2688.8537,-288.1432 2678.2599,-288.2855 2686.6302,-294.7807 2688.8537,-288.1432"/>
<text text-anchor="middle" x="3185.4443" y="-314.8" font-family="Times,serif" font-size="14.00" fill="#000000">broadcast</text>
</g>
<!-- Map 55 -->
<g id="node36" class="node">
<title>Map 55</title>
<ellipse fill="none" stroke="#000000" cx="2942.6235" cy="-362" rx="37.243" ry="18"/>
<text text-anchor="middle" x="2942.6235" y="-357.8" font-family="Times,serif" font-size="14.00" fill="#000000">Map 55</text>
</g>
<!-- Map 55&#45;&gt;Map 2 -->
<g id="edge84" class="edge">
<title>Map 55&#45;&gt;Map 2</title>
<path fill="none" stroke="#000000" d="M2918.2048,-348.255C2892.1722,-333.6282 2854.4198,-312.5042 2852.6235,-312 2811.2428,-300.3848 2173.688,-281.9784 2000.6637,-277.1767"/>
<polygon fill="#000000" stroke="#000000" points="2000.7435,-273.6776 1990.6505,-276.8996 2000.5498,-280.675 2000.7435,-273.6776"/>
<text text-anchor="middle" x="2905.4443" y="-314.8" font-family="Times,serif" font-size="14.00" fill="#000000">broadcast</text>
</g>
<!-- Map 55&#45;&gt;Map 26 -->
<g id="edge38" class="edge">
<title>Map 55&#45;&gt;Map 26</title>
<path fill="none" stroke="#000000" d="M2971.1765,-350.3087C2991.0666,-340.5586 3011.85,-326.0411 2998.6235,-312 2975.6505,-287.6121 2730.3724,-301.074 2697.6235,-294 2694.4208,-293.3082 2691.1478,-292.4328 2687.894,-291.4425"/>
<polygon fill="#000000" stroke="#000000" points="2688.8731,-288.079 2678.2789,-288.1954 2686.6333,-294.711 2688.8731,-288.079"/>
<text text-anchor="middle" x="3030.4443" y="-314.8" font-family="Times,serif" font-size="14.00" fill="#000000">broadcast</text>
</g>
<!-- Map 56&#45;&gt;Reducer 57 -->
<g id="edge41" class="edge">
<title>Map 56&#45;&gt;Reducer 57</title>
<path fill="none" stroke="#000000" d="M1702.9666,-176.5146C1726.6625,-164.6185 1763.4016,-147.9701 1797.4097,-140 1809.28,-137.2181 2149.1124,-116.2761 2290.1642,-107.6728"/>
<polygon fill="#000000" stroke="#000000" points="2290.6035,-111.1526 2300.372,-107.0506 2290.1775,-104.1656 2290.6035,-111.1526"/>
<text text-anchor="middle" x="1814.7305" y="-142.8" font-family="Times,serif" font-size="14.00" fill="#000000">sorted</text>
</g>
<!-- Reducer 20&#45;&gt;Map 35 -->
<g id="edge65" class="edge">
<title>Reducer 20&#45;&gt;Map 35</title>
<path fill="none" stroke="#000000" d="M57.054,-257.7108C60.5816,-248.1399 65.2022,-236.3014 69.9819,-226 71.4653,-222.8031 73.1093,-219.4965 74.7965,-216.2422"/>
<polygon fill="#000000" stroke="#000000" points="77.9269,-217.8107 79.5679,-207.3437 71.7577,-214.5028 77.9269,-217.8107"/>
<text text-anchor="middle" x="97.4443" y="-228.8" font-family="Times,serif" font-size="14.00" fill="#000000">broadcast</text>
</g>
<!-- Reducer 24&#45;&gt;Map 56 -->
<g id="edge52" class="edge">
<title>Reducer 24&#45;&gt;Map 56</title>
<path fill="none" stroke="#000000" d="M1292.9913,-265.1489C1271.1065,-258.3952 1247.3157,-249.2564 1240.9819,-240 1237.4682,-234.8649 1236.6926,-230.5075 1240.9819,-226 1268.7927,-196.7746 1563.6986,-213.7934 1603.6235,-208 1614.1343,-206.4748 1625.3349,-204.1345 1635.7574,-201.6408"/>
<polygon fill="#000000" stroke="#000000" points="1636.6056,-205.0366 1645.4639,-199.2245 1634.9146,-198.2439 1636.6056,-205.0366"/>
<text text-anchor="middle" x="1268.4443" y="-228.8" font-family="Times,serif" font-size="14.00" fill="#000000">broadcast</text>
</g>
<!-- Map 1 -->
<g id="node49" class="node">
<title>Map 1</title>
<ellipse fill="none" stroke="#000000" cx="1808.6235" cy="-362" rx="32.8992" ry="18"/>
<text text-anchor="middle" x="1808.6235" y="-357.8" font-family="Times,serif" font-size="14.00" fill="#000000">Map 1</text>
</g>
<!-- Map 1&#45;&gt;Map 2 -->
<g id="edge73" class="edge">
<title>Map 1&#45;&gt;Map 2</title>
<path fill="none" stroke="#000000" d="M1814.129,-344.1965C1818.3964,-333.3093 1825.396,-319.9843 1835.9819,-312 1864.9542,-290.1482 1881.1042,-305.1941 1915.6235,-294 1917.9157,-293.2567 1920.2552,-292.4364 1922.5986,-291.5677"/>
<polygon fill="#000000" stroke="#000000" points="1924.1268,-294.7273 1932.1421,-287.7988 1921.5555,-288.2167 1924.1268,-294.7273"/>
<text text-anchor="middle" x="1863.4443" y="-314.8" font-family="Times,serif" font-size="14.00" fill="#000000">broadcast</text>
</g>
<!-- Map 39 -->
<g id="node50" class="node">
<title>Map 39</title>
<ellipse fill="none" stroke="#000000" cx="1896.6235" cy="-362" rx="37.243" ry="18"/>
<text text-anchor="middle" x="1896.6235" y="-357.8" font-family="Times,serif" font-size="14.00" fill="#000000">Map 39</text>
</g>
<!-- Map 39&#45;&gt;Map 2 -->
<g id="edge77" class="edge">
<title>Map 39&#45;&gt;Map 2</title>
<path fill="none" stroke="#000000" d="M1893.0582,-343.7283C1892.0596,-333.7147 1892.4748,-321.4545 1897.9819,-312 1901.2321,-306.4202 1912.1476,-299.2318 1923.7683,-292.7476"/>
<polygon fill="#000000" stroke="#000000" points="1925.522,-295.7786 1932.6769,-287.9646 1922.2108,-289.6113 1925.522,-295.7786"/>
<text text-anchor="middle" x="1925.4443" y="-314.8" font-family="Times,serif" font-size="14.00" fill="#000000">broadcast</text>
</g>
<!-- Map 44 -->
<g id="node51" class="node">
<title>Map 44</title>
<ellipse fill="none" stroke="#000000" cx="1627.6235" cy="-362" rx="37.243" ry="18"/>
<text text-anchor="middle" x="1627.6235" y="-357.8" font-family="Times,serif" font-size="14.00" fill="#000000">Map 44</text>
</g>
<!-- Map 44&#45;&gt;Map 2 -->
<g id="edge79" class="edge">
<title>Map 44&#45;&gt;Map 2</title>
<path fill="none" stroke="#000000" d="M1643.1072,-345.4101C1654.9919,-333.8587 1672.46,-319.2699 1690.9819,-312 1784.2179,-275.4046 1818.3916,-318.0443 1915.6235,-294 1918.1168,-293.3835 1920.6511,-292.635 1923.1763,-291.7978"/>
<polygon fill="#000000" stroke="#000000" points="1924.6184,-294.9955 1932.764,-288.2206 1922.1714,-288.4371 1924.6184,-294.9955"/>
<text text-anchor="middle" x="1718.4443" y="-314.8" font-family="Times,serif" font-size="14.00" fill="#000000">broadcast</text>
</g>
<!-- Map 54 -->
<g id="node52" class="node">
<title>Map 54</title>
<ellipse fill="none" stroke="#000000" cx="1720.6235" cy="-362" rx="37.243" ry="18"/>
<text text-anchor="middle" x="1720.6235" y="-357.8" font-family="Times,serif" font-size="14.00" fill="#000000">Map 54</text>
</g>
<!-- Map 54&#45;&gt;Map 2 -->
<g id="edge83" class="edge">
<title>Map 54&#45;&gt;Map 2</title>
<path fill="none" stroke="#000000" d="M1731.4915,-344.6556C1739.5545,-333.3733 1751.6125,-319.4239 1765.9819,-312 1825.4953,-281.2528 1850.928,-311.37 1915.6235,-294 1918.104,-293.334 1920.6289,-292.5486 1923.1471,-291.6846"/>
<polygon fill="#000000" stroke="#000000" points="1924.6138,-294.8716 1932.7198,-288.0493 1922.1286,-288.3276 1924.6138,-294.8716"/>
<text text-anchor="middle" x="1793.4443" y="-314.8" font-family="Times,serif" font-size="14.00" fill="#000000">broadcast</text>
</g>
<!-- Reducer 7&#45;&gt;Reducer 8 -->
<g id="edge94" class="edge">
<title>Reducer 7&#45;&gt;Reducer 8</title>
<path fill="none" stroke="#000000" d="M981.9907,-177.5403C989.3477,-175.2836 997.1709,-173.2515 1004.6235,-172 1185.9064,-141.5567 1648.8319,-173.429 1831.6235,-154 1864.3814,-150.5182 1871.6766,-143.7075 1904.4097,-140 2128.1055,-114.6633 2185.7182,-131.9688 2410.6235,-122 2510.2462,-117.5843 2626.2667,-111.1426 2693.4912,-107.2819"/>
<polygon fill="#000000" stroke="#000000" points="2694.0692,-110.7545 2703.8514,-106.6852 2693.6666,-103.7661 2694.0692,-110.7545"/>
<text text-anchor="middle" x="1928.7305" y="-142.8" font-family="Times,serif" font-size="14.00" fill="#000000">unsorted</text>
</g>
<!-- Reducer 9 -->
<g id="node57" class="node">
<title>Reducer 9</title>
<ellipse fill="none" stroke="#000000" cx="2749.6235" cy="-18" rx="46.4045" ry="18"/>
<text text-anchor="middle" x="2749.6235" y="-13.8" font-family="Times,serif" font-size="14.00" fill="#000000">Reducer 9</text>
</g>
<!-- Reducer 8&#45;&gt;Reducer 9 -->
<g id="edge93" class="edge">
<title>Reducer 8&#45;&gt;Reducer 9</title>
<path fill="none" stroke="#000000" d="M2749.6235,-85.7616C2749.6235,-74.3597 2749.6235,-59.4342 2749.6235,-46.494"/>
<polygon fill="#000000" stroke="#000000" points="2753.1236,-46.2121 2749.6235,-36.2121 2746.1236,-46.2121 2753.1236,-46.2121"/>
<text text-anchor="middle" x="2766.7305" y="-56.8" font-family="Times,serif" font-size="14.00" fill="#000000">sorted</text>
</g>
</g>
</svg>
