<?xml version="1.0" encoding="UTF-8" standalone="no"?>
<!DOCTYPE svg PUBLIC "-//W3C//DTD SVG 1.1//EN"
 "http://www.w3.org/Graphics/SVG/1.1/DTD/svg11.dtd">
<!-- Generated by graphviz version 2.40.1 (20161225.0304)
 -->
<!-- Title: %3 Pages: 1 -->
<svg width="652pt" height="388pt"
 viewBox="0.00 0.00 652.15 388.00" xmlns="http://www.w3.org/2000/svg" xmlns:xlink="http://www.w3.org/1999/xlink">
<g id="graph0" class="graph" transform="scale(1 1) rotate(0) translate(4 384)">
<title>%3</title>
<polygon fill="#ffffff" stroke="transparent" points="-4,4 -4,-384 648.1514,-384 648.1514,4 -4,4"/>
<!-- Map 4 -->
<g id="node1" class="node">
<title>Map 4</title>
<ellipse fill="none" stroke="#000000" cx="611.2018" cy="-276" rx="32.8992" ry="18"/>
<text text-anchor="middle" x="611.2018" y="-271.8" font-family="Times,serif" font-size="14.00" fill="#000000">Map 4</text>
</g>
<!-- Map 1 -->
<g id="node2" class="node">
<title>Map 1</title>
<ellipse fill="none" stroke="#000000" cx="314.2018" cy="-190" rx="32.8992" ry="18"/>
<text text-anchor="middle" x="314.2018" y="-185.8" font-family="Times,serif" font-size="14.00" fill="#000000">Map 1</text>
</g>
<!-- Map 4&#45;&gt;Map 1 -->
<g id="edge1" class="edge">
<title>Map 4&#45;&gt;Map 1</title>
<path fill="none" stroke="#000000" d="M586.8956,-263.472C564.2151,-252.2364 529.166,-236.0204 497.2018,-226 450.0378,-211.2146 394.0538,-201.2619 356.5374,-195.6355"/>
<polygon fill="#000000" stroke="#000000" points="356.8695,-192.1469 346.4683,-194.1629 355.8565,-199.0732 356.8695,-192.1469"/>
<text text-anchor="middle" x="560.0226" y="-228.8" font-family="Times,serif" font-size="14.00" fill="#000000">broadcast</text>
</g>
<!-- Reducer 2 -->
<g id="node9" class="node">
<title>Reducer 2</title>
<ellipse fill="none" stroke="#000000" cx="46.2018" cy="-104" rx="46.4045" ry="18"/>
<text text-anchor="middle" x="46.2018" y="-99.8" font-family="Times,serif" font-size="14.00" fill="#000000">Reducer 2</text>
</g>
<!-- Map 1&#45;&gt;Reducer 2 -->
<g id="edge10" class="edge">
<title>Map 1&#45;&gt;Reducer 2</title>
<path fill="none" stroke="#000000" d="M285.7748,-180.8779C239.3896,-165.9931 147.0414,-136.359 91.5302,-118.5457"/>
<polygon fill="#000000" stroke="#000000" points="92.5388,-115.1936 81.9476,-115.4707 90.3999,-121.8588 92.5388,-115.1936"/>
<text text-anchor="middle" x="214.3087" y="-142.8" font-family="Times,serif" font-size="14.00" fill="#000000">sorted</text>
</g>
<!-- Map 5 -->
<g id="node3" class="node">
<title>Map 5</title>
<ellipse fill="none" stroke="#000000" cx="234.2018" cy="-362" rx="32.8992" ry="18"/>
<text text-anchor="middle" x="234.2018" y="-357.8" font-family="Times,serif" font-size="14.00" fill="#000000">Map 5</text>
</g>
<!-- Map 5&#45;&gt;Map 1 -->
<g id="edge2" class="edge">
<title>Map 5&#45;&gt;Map 1</title>
<path fill="none" stroke="#000000" d="M222.1718,-345.2301C208.4619,-323.8732 189.8635,-286.3427 205.5602,-258 220.4068,-231.1923 250.721,-213.5482 275.564,-202.9666"/>
<polygon fill="#000000" stroke="#000000" points="277.149,-206.1017 285.1191,-199.1212 274.5355,-199.6078 277.149,-206.1017"/>
<text text-anchor="middle" x="233.0226" y="-271.8" font-family="Times,serif" font-size="14.00" fill="#000000">broadcast</text>
</g>
<!-- Reducer 6 -->
<g id="node6" class="node">
<title>Reducer 6</title>
<ellipse fill="none" stroke="#000000" cx="314.2018" cy="-276" rx="46.4045" ry="18"/>
<text text-anchor="middle" x="314.2018" y="-271.8" font-family="Times,serif" font-size="14.00" fill="#000000">Reducer 6</text>
</g>
<!-- Map 5&#45;&gt;Reducer 6 -->
<g id="edge8" class="edge">
<title>Map 5&#45;&gt;Reducer 6</title>
<path fill="none" stroke="#000000" d="M249.2492,-345.8241C261.088,-333.0974 277.7822,-315.151 291.2813,-300.6396"/>
<polygon fill="#000000" stroke="#000000" points="294.1525,-302.6918 298.4009,-292.986 289.0271,-297.924 294.1525,-302.6918"/>
<text text-anchor="middle" x="303.3087" y="-314.8" font-family="Times,serif" font-size="14.00" fill="#000000">unsorted</text>
</g>
<!-- Map 7 -->
<g id="node4" class="node">
<title>Map 7</title>
<ellipse fill="none" stroke="#000000" cx="433.2018" cy="-362" rx="32.8992" ry="18"/>
<text text-anchor="middle" x="433.2018" y="-357.8" font-family="Times,serif" font-size="14.00" fill="#000000">Map 7</text>
</g>
<!-- Map 7&#45;&gt;Map 1 -->
<g id="edge3" class="edge">
<title>Map 7&#45;&gt;Map 1</title>
<path fill="none" stroke="#000000" d="M425.9863,-344.3983C411.7116,-309.8148 380.5268,-235.5213 372.2018,-226 365.6015,-218.4512 357.0284,-211.9598 348.5077,-206.6515"/>
<polygon fill="#000000" stroke="#000000" points="350.1369,-203.5502 339.732,-201.5532 346.6205,-209.6029 350.1369,-203.5502"/>
<text text-anchor="middle" x="431.0226" y="-271.8" font-family="Times,serif" font-size="14.00" fill="#000000">broadcast</text>
</g>
<!-- Reducer 8 -->
<g id="node7" class="node">
<title>Reducer 8</title>
<ellipse fill="none" stroke="#000000" cx="514.2018" cy="-276" rx="46.4045" ry="18"/>
<text text-anchor="middle" x="514.2018" y="-271.8" font-family="Times,serif" font-size="14.00" fill="#000000">Reducer 8</text>
</g>
<!-- Map 7&#45;&gt;Reducer 8 -->
<g id="edge12" class="edge">
<title>Map 7&#45;&gt;Reducer 8</title>
<path fill="none" stroke="#000000" d="M448.4373,-345.8241C460.4241,-333.0974 477.327,-315.151 490.9947,-300.6396"/>
<polygon fill="#000000" stroke="#000000" points="493.8949,-302.6653 498.2033,-292.986 488.7992,-297.8658 493.8949,-302.6653"/>
<text text-anchor="middle" x="503.3087" y="-314.8" font-family="Times,serif" font-size="14.00" fill="#000000">unsorted</text>
</g>
<!-- Reducer 10 -->
<g id="node5" class="node">
<title>Reducer 10</title>
<ellipse fill="none" stroke="#000000" cx="109.2018" cy="-276" rx="50.7474" ry="18"/>
<text text-anchor="middle" x="109.2018" y="-271.8" font-family="Times,serif" font-size="14.00" fill="#000000">Reducer 10</text>
</g>
<!-- Reducer 10&#45;&gt;Map 1 -->
<g id="edge4" class="edge">
<title>Reducer 10&#45;&gt;Map 1</title>
<path fill="none" stroke="#000000" d="M111.7932,-257.7196C114.2824,-246.9295 119.1346,-233.8824 128.5602,-226 149.7351,-208.2919 223.1939,-198.3143 271.1114,-193.5521"/>
<polygon fill="#000000" stroke="#000000" points="271.5941,-197.022 281.216,-192.587 270.9285,-190.0537 271.5941,-197.022"/>
<text text-anchor="middle" x="156.0226" y="-228.8" font-family="Times,serif" font-size="14.00" fill="#000000">broadcast</text>
</g>
<!-- Reducer 6&#45;&gt;Map 1 -->
<g id="edge5" class="edge">
<title>Reducer 6&#45;&gt;Map 1</title>
<path fill="none" stroke="#000000" d="M314.2018,-257.7616C314.2018,-246.3597 314.2018,-231.4342 314.2018,-218.494"/>
<polygon fill="#000000" stroke="#000000" points="317.7019,-218.2121 314.2018,-208.2121 310.7019,-218.2121 317.7019,-218.2121"/>
<text text-anchor="middle" x="341.0226" y="-228.8" font-family="Times,serif" font-size="14.00" fill="#000000">broadcast</text>
</g>
<!-- Reducer 8&#45;&gt;Map 1 -->
<g id="edge6" class="edge">
<title>Reducer 8&#45;&gt;Map 1</title>
<path fill="none" stroke="#000000" d="M485.8244,-261.5094C465.0924,-251.1317 436.1815,-237.0901 410.2018,-226 391.14,-217.863 369.5582,-209.6805 351.6922,-203.1772"/>
<polygon fill="#000000" stroke="#000000" points="352.7828,-199.85 342.1885,-199.748 350.4069,-206.4344 352.7828,-199.85"/>
<text text-anchor="middle" x="466.0226" y="-228.8" font-family="Times,serif" font-size="14.00" fill="#000000">broadcast</text>
</g>
<!-- Map 9 -->
<g id="node8" class="node">
<title>Map 9</title>
<ellipse fill="none" stroke="#000000" cx="70.2018" cy="-362" rx="32.8992" ry="18"/>
<text text-anchor="middle" x="70.2018" y="-357.8" font-family="Times,serif" font-size="14.00" fill="#000000">Map 9</text>
</g>
<!-- Map 9&#45;&gt;Reducer 10 -->
<g id="edge7" class="edge">
<title>Map 9&#45;&gt;Reducer 10</title>
<path fill="none" stroke="#000000" d="M78.2826,-344.1807C83.6687,-332.3038 90.8494,-316.4695 96.9349,-303.05"/>
<polygon fill="#000000" stroke="#000000" points="100.1888,-304.3493 101.1313,-293.7964 93.8137,-301.4582 100.1888,-304.3493"/>
<text text-anchor="middle" x="116.3087" y="-314.8" font-family="Times,serif" font-size="14.00" fill="#000000">unsorted</text>
</g>
<!-- Map 9&#45;&gt;Reducer 2 -->
<g id="edge11" class="edge">
<title>Map 9&#45;&gt;Reducer 2</title>
<path fill="none" stroke="#000000" d="M63.1606,-344.1488C58.2034,-330.6225 51.9759,-311.4495 49.2018,-294 40.1738,-237.2129 42.0484,-169.6785 44.1646,-132.3545"/>
<polygon fill="#000000" stroke="#000000" points="47.6671,-132.4201 44.7881,-122.2239 40.6804,-131.99 47.6671,-132.4201"/>
<text text-anchor="middle" x="71.0226" y="-228.8" font-family="Times,serif" font-size="14.00" fill="#000000">broadcast</text>
</g>
<!-- Reducer 3 -->
<g id="node10" class="node">
<title>Reducer 3</title>
<ellipse fill="none" stroke="#000000" cx="46.2018" cy="-18" rx="46.4045" ry="18"/>
<text text-anchor="middle" x="46.2018" y="-13.8" font-family="Times,serif" font-size="14.00" fill="#000000">Reducer 3</text>
</g>
<!-- Reducer 2&#45;&gt;Reducer 3 -->
<g id="edge9" class="edge">
<title>Reducer 2&#45;&gt;Reducer 3</title>
<path fill="none" stroke="#000000" d="M46.2018,-85.7616C46.2018,-74.3597 46.2018,-59.4342 46.2018,-46.494"/>
<polygon fill="#000000" stroke="#000000" points="49.7019,-46.2121 46.2018,-36.2121 42.7019,-46.2121 49.7019,-46.2121"/>
<text text-anchor="middle" x="63.3087" y="-56.8" font-family="Times,serif" font-size="14.00" fill="#000000">sorted</text>
</g>
</g>
</svg>
