<?xml version="1.0" encoding="UTF-8" standalone="no"?>
<!DOCTYPE svg PUBLIC "-//W3C//DTD SVG 1.1//EN"
 "http://www.w3.org/Graphics/SVG/1.1/DTD/svg11.dtd">
<!-- Generated by graphviz version 2.40.1 (20161225.0304)
 -->
<!-- Title: %3 Pages: 1 -->
<svg width="1693pt" height="388pt"
 viewBox="0.00 0.00 1692.57 388.00" xmlns="http://www.w3.org/2000/svg" xmlns:xlink="http://www.w3.org/1999/xlink">
<g id="graph0" class="graph" transform="scale(1 1) rotate(0) translate(4 384)">
<title>%3</title>
<polygon fill="#ffffff" stroke="transparent" points="-4,4 -4,-384 1688.566,-384 1688.566,4 -4,4"/>
<!-- Map 8 -->
<g id="node1" class="node">
<title>Map 8</title>
<ellipse fill="none" stroke="#000000" cx="985.9244" cy="-190" rx="32.8992" ry="18"/>
<text text-anchor="middle" x="985.9244" y="-185.8" font-family="Times,serif" font-size="14.00" fill="#000000">Map 8</text>
</g>
<!-- Map 7 -->
<g id="node2" class="node">
<title>Map 7</title>
<ellipse fill="none" stroke="#000000" cx="208.9244" cy="-104" rx="32.8992" ry="18"/>
<text text-anchor="middle" x="208.9244" y="-99.8" font-family="Times,serif" font-size="14.00" fill="#000000">Map 7</text>
</g>
<!-- Map 8&#45;&gt;Map 7 -->
<g id="edge1" class="edge">
<title>Map 8&#45;&gt;Map 7</title>
<path fill="none" stroke="#000000" d="M954.1566,-185.0217C930.6318,-181.3573 897.7907,-176.2881 868.9244,-172 813.1258,-163.7111 795.5809,-175.1444 743.2828,-154 733.439,-150.0201 733.9574,-143.4754 723.9244,-140 631.2456,-107.8964 380.0504,-135.6576 282.9244,-122 271.4966,-120.3931 259.2594,-117.7895 248.093,-115.0557"/>
<polygon fill="#000000" stroke="#000000" points="248.7478,-111.6108 238.1932,-112.5334 247.0194,-118.3941 248.7478,-111.6108"/>
<text text-anchor="middle" x="769.7452" y="-142.8" font-family="Times,serif" font-size="14.00" fill="#000000">broadcast</text>
</g>
<!-- Reducer 19 -->
<g id="node8" class="node">
<title>Reducer 19</title>
<ellipse fill="none" stroke="#000000" cx="1029.9244" cy="-104" rx="50.7474" ry="18"/>
<text text-anchor="middle" x="1029.9244" y="-99.8" font-family="Times,serif" font-size="14.00" fill="#000000">Reducer 19</text>
</g>
<!-- Map 8&#45;&gt;Reducer 19 -->
<g id="edge8" class="edge">
<title>Map 8&#45;&gt;Reducer 19</title>
<path fill="none" stroke="#000000" d="M997.1471,-172.6939C1000.7599,-166.8526 1004.6678,-160.2321 1007.9244,-154 1011.7113,-146.7531 1015.4428,-138.7161 1018.7268,-131.2433"/>
<polygon fill="#000000" stroke="#000000" points="1022.0268,-132.4283 1022.753,-121.8584 1015.5938,-129.6685 1022.0268,-132.4283"/>
<text text-anchor="middle" x="1040.7452" y="-142.8" font-family="Times,serif" font-size="14.00" fill="#000000">broadcast</text>
</g>
<!-- Map 1 -->
<g id="node11" class="node">
<title>Map 1</title>
<ellipse fill="none" stroke="#000000" cx="78.9244" cy="-104" rx="32.8992" ry="18"/>
<text text-anchor="middle" x="78.9244" y="-99.8" font-family="Times,serif" font-size="14.00" fill="#000000">Map 1</text>
</g>
<!-- Map 8&#45;&gt;Map 1 -->
<g id="edge10" class="edge">
<title>Map 8&#45;&gt;Map 1</title>
<path fill="none" stroke="#000000" d="M954.7675,-184.1373C931.2686,-179.9763 898.1912,-174.6731 868.9244,-172 801.4378,-165.8361 323.4413,-175.8199 259.2828,-154 249.2303,-150.5812 249.6062,-144.3592 239.9244,-140 229.0212,-135.0909 163.8351,-121.2679 119.8244,-112.2492"/>
<polygon fill="#000000" stroke="#000000" points="120.459,-108.8066 109.9609,-110.2356 119.0587,-115.6652 120.459,-108.8066"/>
<text text-anchor="middle" x="286.7452" y="-142.8" font-family="Times,serif" font-size="14.00" fill="#000000">broadcast</text>
</g>
<!-- Map 15 -->
<g id="node19" class="node">
<title>Map 15</title>
<ellipse fill="none" stroke="#000000" cx="668.9244" cy="-104" rx="37.243" ry="18"/>
<text text-anchor="middle" x="668.9244" y="-99.8" font-family="Times,serif" font-size="14.00" fill="#000000">Map 15</text>
</g>
<!-- Map 8&#45;&gt;Map 15 -->
<g id="edge23" class="edge">
<title>Map 8&#45;&gt;Map 15</title>
<path fill="none" stroke="#000000" d="M970.4673,-174.0048C957.5331,-161.0008 939.8094,-144.1524 930.9244,-140 893.8104,-122.655 781.1273,-111.9985 716.2655,-107.134"/>
<polygon fill="#000000" stroke="#000000" points="716.5141,-103.643 706.2851,-106.4029 716.0026,-110.6242 716.5141,-103.643"/>
<text text-anchor="middle" x="975.7452" y="-142.8" font-family="Times,serif" font-size="14.00" fill="#000000">broadcast</text>
</g>
<!-- Map 13 -->
<g id="node21" class="node">
<title>Map 13</title>
<ellipse fill="none" stroke="#000000" cx="1389.9244" cy="-104" rx="37.243" ry="18"/>
<text text-anchor="middle" x="1389.9244" y="-99.8" font-family="Times,serif" font-size="14.00" fill="#000000">Map 13</text>
</g>
<!-- Map 8&#45;&gt;Map 13 -->
<g id="edge26" class="edge">
<title>Map 8&#45;&gt;Map 13</title>
<path fill="none" stroke="#000000" d="M1016.174,-182.4538C1031.0835,-178.9239 1049.3736,-174.875 1065.9244,-172 1130.3399,-160.8105 1148.1853,-168.557 1211.9244,-154 1230.8433,-149.6792 1234.6982,-145.5865 1253.2828,-140 1284.2185,-130.7008 1319.4813,-121.4434 1346.435,-114.6451"/>
<polygon fill="#000000" stroke="#000000" points="1347.4828,-117.9908 1356.3321,-112.165 1345.7812,-111.2008 1347.4828,-117.9908"/>
<text text-anchor="middle" x="1279.7452" y="-142.8" font-family="Times,serif" font-size="14.00" fill="#000000">broadcast</text>
</g>
<!-- Map 10 -->
<g id="node22" class="node">
<title>Map 10</title>
<ellipse fill="none" stroke="#000000" cx="1519.9244" cy="-104" rx="37.243" ry="18"/>
<text text-anchor="middle" x="1519.9244" y="-99.8" font-family="Times,serif" font-size="14.00" fill="#000000">Map 10</text>
</g>
<!-- Map 8&#45;&gt;Map 10 -->
<g id="edge29" class="edge">
<title>Map 8&#45;&gt;Map 10</title>
<path fill="none" stroke="#000000" d="M1015.7153,-182.0256C1030.6733,-178.3476 1049.1398,-174.2967 1065.9244,-172 1144.1854,-161.2914 1346.4138,-180.2226 1420.9244,-154 1430.9401,-150.4751 1431.0966,-145.3249 1440.2828,-140 1453.276,-132.4683 1468.127,-125.3792 1481.4571,-119.5163"/>
<polygon fill="#000000" stroke="#000000" points="1483.0447,-122.6435 1490.8463,-115.4752 1480.2772,-116.2138 1483.0447,-122.6435"/>
<text text-anchor="middle" x="1466.7452" y="-142.8" font-family="Times,serif" font-size="14.00" fill="#000000">broadcast</text>
</g>
<!-- Map 9 -->
<g id="node3" class="node">
<title>Map 9</title>
<ellipse fill="none" stroke="#000000" cx="60.9244" cy="-190" rx="32.8992" ry="18"/>
<text text-anchor="middle" x="60.9244" y="-185.8" font-family="Times,serif" font-size="14.00" fill="#000000">Map 9</text>
</g>
<!-- Map 9&#45;&gt;Map 7 -->
<g id="edge2" class="edge">
<title>Map 9&#45;&gt;Map 7</title>
<path fill="none" stroke="#000000" d="M83.725,-176.751C108.8941,-162.1257 149.5626,-138.494 177.686,-122.152"/>
<polygon fill="#000000" stroke="#000000" points="179.4529,-125.1734 186.3407,-117.123 175.9359,-119.121 179.4529,-125.1734"/>
<text text-anchor="middle" x="170.7452" y="-142.8" font-family="Times,serif" font-size="14.00" fill="#000000">broadcast</text>
</g>
<!-- Map 9&#45;&gt;Map 1 -->
<g id="edge11" class="edge">
<title>Map 9&#45;&gt;Map 1</title>
<path fill="none" stroke="#000000" d="M33.6086,-179.8438C13.9987,-170.8891 -7.2573,-156.6891 3.2828,-140 11.1567,-127.5323 24.6588,-119.2935 38.0958,-113.8894"/>
<polygon fill="#000000" stroke="#000000" points="39.5425,-117.0896 47.7872,-110.4355 37.1925,-110.4958 39.5425,-117.0896"/>
<text text-anchor="middle" x="30.7452" y="-142.8" font-family="Times,serif" font-size="14.00" fill="#000000">broadcast</text>
</g>
<!-- Union 2 -->
<g id="node4" class="node">
<title>Union 2</title>
<ellipse fill="none" stroke="#000000" cx="208.9244" cy="-190" rx="38.6968" ry="18"/>
<text text-anchor="middle" x="208.9244" y="-185.8" font-family="Times,serif" font-size="14.00" fill="#000000">Union 2</text>
</g>
<!-- Union 2&#45;&gt;Map 7 -->
<g id="edge3" class="edge">
<title>Union 2&#45;&gt;Map 7</title>
<path fill="none" stroke="#000000" d="M208.9244,-171.7616C208.9244,-160.3597 208.9244,-145.4342 208.9244,-132.494"/>
<polygon fill="#000000" stroke="#000000" points="212.4245,-132.2121 208.9244,-122.2121 205.4245,-132.2121 212.4245,-132.2121"/>
<text text-anchor="middle" x="224.0865" y="-142.8" font-family="Times,serif" font-size="14.00" fill="#000000">None</text>
</g>
<!-- Union 2&#45;&gt;Map 1 -->
<g id="edge12" class="edge">
<title>Union 2&#45;&gt;Map 1</title>
<path fill="none" stroke="#000000" d="M171.5186,-184.6246C137.465,-178.8801 90.8363,-168.5855 79.6001,-154 74.8112,-147.7836 73.3199,-139.7235 73.3945,-131.8967"/>
<polygon fill="#000000" stroke="#000000" points="76.8831,-132.1788 74.2489,-121.9167 69.9086,-131.5816 76.8831,-132.1788"/>
<text text-anchor="middle" x="95.0865" y="-142.8" font-family="Times,serif" font-size="14.00" fill="#000000">None</text>
</g>
<!-- Reducer 3 -->
<g id="node18" class="node">
<title>Reducer 3</title>
<ellipse fill="none" stroke="#000000" cx="337.9244" cy="-104" rx="46.4045" ry="18"/>
<text text-anchor="middle" x="337.9244" y="-99.8" font-family="Times,serif" font-size="14.00" fill="#000000">Reducer 3</text>
</g>
<!-- Union 2&#45;&gt;Reducer 3 -->
<g id="edge19" class="edge">
<title>Union 2&#45;&gt;Reducer 3</title>
<path fill="none" stroke="#000000" d="M246.6681,-185.3779C269.4613,-180.8198 297.7179,-171.8018 316.9244,-154 323.3063,-148.0848 327.8173,-139.9238 330.9764,-131.9095"/>
<polygon fill="#000000" stroke="#000000" points="334.3152,-132.9616 334.1943,-122.3674 327.6822,-130.7247 334.3152,-132.9616"/>
<text text-anchor="middle" x="344.0313" y="-142.8" font-family="Times,serif" font-size="14.00" fill="#000000">sorted</text>
</g>
<!-- Map 20 -->
<g id="node5" class="node">
<title>Map 20</title>
<ellipse fill="none" stroke="#000000" cx="1182.9244" cy="-362" rx="37.243" ry="18"/>
<text text-anchor="middle" x="1182.9244" y="-357.8" font-family="Times,serif" font-size="14.00" fill="#000000">Map 20</text>
</g>
<!-- Reducer 21 -->
<g id="node6" class="node">
<title>Reducer 21</title>
<ellipse fill="none" stroke="#000000" cx="1134.9244" cy="-276" rx="50.7474" ry="18"/>
<text text-anchor="middle" x="1134.9244" y="-271.8" font-family="Times,serif" font-size="14.00" fill="#000000">Reducer 21</text>
</g>
<!-- Map 20&#45;&gt;Reducer 21 -->
<g id="edge4" class="edge">
<title>Map 20&#45;&gt;Reducer 21</title>
<path fill="none" stroke="#000000" d="M1171.8049,-344.5831C1168.1712,-338.7345 1164.18,-332.1376 1160.7105,-326 1156.52,-318.5869 1152.1928,-310.4236 1148.3082,-302.8811"/>
<polygon fill="#000000" stroke="#000000" points="1151.3226,-301.0873 1143.668,-293.7622 1145.0839,-304.2621 1151.3226,-301.0873"/>
<text text-anchor="middle" x="1184.0313" y="-314.8" font-family="Times,serif" font-size="14.00" fill="#000000">unsorted</text>
</g>
<!-- Map 20&#45;&gt;Reducer 19 -->
<g id="edge6" class="edge">
<title>Map 20&#45;&gt;Reducer 19</title>
<path fill="none" stroke="#000000" d="M1198.3036,-345.2807C1202.5969,-339.5809 1206.6947,-332.8955 1208.9244,-326 1226.8113,-270.6832 1416.9234,-393.9516 1203.9244,-140 1189.3493,-122.6227 1134.1097,-113.3308 1089.7296,-108.5691"/>
<polygon fill="#000000" stroke="#000000" points="1089.8834,-105.0668 1079.5806,-107.5372 1089.1753,-112.0309 1089.8834,-105.0668"/>
<text text-anchor="middle" x="1304.0313" y="-228.8" font-family="Times,serif" font-size="14.00" fill="#000000">unsorted</text>
</g>
<!-- Map 18 -->
<g id="node7" class="node">
<title>Map 18</title>
<ellipse fill="none" stroke="#000000" cx="1111.9244" cy="-190" rx="37.243" ry="18"/>
<text text-anchor="middle" x="1111.9244" y="-185.8" font-family="Times,serif" font-size="14.00" fill="#000000">Map 18</text>
</g>
<!-- Reducer 21&#45;&gt;Map 18 -->
<g id="edge21" class="edge">
<title>Reducer 21&#45;&gt;Map 18</title>
<path fill="none" stroke="#000000" d="M1130.0467,-257.7616C1126.946,-246.1678 1122.871,-230.931 1119.3706,-217.8426"/>
<polygon fill="#000000" stroke="#000000" points="1122.681,-216.6734 1116.7162,-207.9172 1115.9187,-218.482 1122.681,-216.6734"/>
<text text-anchor="middle" x="1150.7452" y="-228.8" font-family="Times,serif" font-size="14.00" fill="#000000">broadcast</text>
</g>
<!-- Map 18&#45;&gt;Reducer 19 -->
<g id="edge5" class="edge">
<title>Map 18&#45;&gt;Reducer 19</title>
<path fill="none" stroke="#000000" d="M1099.3416,-172.6729C1091.814,-162.7306 1081.814,-150.2306 1071.9244,-140 1067.7338,-135.665 1063.0727,-131.2911 1058.4238,-127.1581"/>
<polygon fill="#000000" stroke="#000000" points="1060.5512,-124.3707 1050.6968,-120.4794 1055.9737,-129.6666 1060.5512,-124.3707"/>
<text text-anchor="middle" x="1107.0313" y="-142.8" font-family="Times,serif" font-size="14.00" fill="#000000">unsorted</text>
</g>
<!-- Map 22 -->
<g id="node9" class="node">
<title>Map 22</title>
<ellipse fill="none" stroke="#000000" cx="822.9244" cy="-190" rx="37.243" ry="18"/>
<text text-anchor="middle" x="822.9244" y="-185.8" font-family="Times,serif" font-size="14.00" fill="#000000">Map 22</text>
</g>
<!-- Map 22&#45;&gt;Reducer 19 -->
<g id="edge7" class="edge">
<title>Map 22&#45;&gt;Reducer 19</title>
<path fill="none" stroke="#000000" d="M836.961,-173.2082C847.0757,-162.1724 861.6504,-148.2907 877.2828,-140 906.2229,-124.6514 941.676,-115.7782 971.1279,-110.6839"/>
<polygon fill="#000000" stroke="#000000" points="971.9654,-114.0938 981.2746,-109.0352 970.8426,-107.1844 971.9654,-114.0938"/>
<text text-anchor="middle" x="903.7452" y="-142.8" font-family="Times,serif" font-size="14.00" fill="#000000">broadcast</text>
</g>
<!-- Map 22&#45;&gt;Map 15 -->
<g id="edge22" class="edge">
<title>Map 22&#45;&gt;Map 15</title>
<path fill="none" stroke="#000000" d="M785.9712,-186.4083C745.5817,-181.6395 684.6772,-171.6853 670.2828,-154 665.3278,-147.9123 663.7026,-139.89 663.6735,-132.0583"/>
<polygon fill="#000000" stroke="#000000" points="667.1665,-132.2808 664.4087,-122.0512 660.1853,-131.7678 667.1665,-132.2808"/>
<text text-anchor="middle" x="696.7452" y="-142.8" font-family="Times,serif" font-size="14.00" fill="#000000">broadcast</text>
</g>
<!-- Union 16 -->
<g id="node10" class="node">
<title>Union 16</title>
<ellipse fill="none" stroke="#000000" cx="615.9244" cy="-190" rx="43.0409" ry="18"/>
<text text-anchor="middle" x="615.9244" y="-185.8" font-family="Times,serif" font-size="14.00" fill="#000000">Union 16</text>
</g>
<!-- Union 16&#45;&gt;Reducer 19 -->
<g id="edge9" class="edge">
<title>Union 16&#45;&gt;Reducer 19</title>
<path fill="none" stroke="#000000" d="M658.3672,-186.3736C696.7296,-182.0272 754.1825,-172.8231 800.9244,-154 811.5626,-149.716 811.9191,-144.176 822.6001,-140 870.0634,-121.4431 927.361,-112.4205 969.6818,-108.0516"/>
<polygon fill="#000000" stroke="#000000" points="970.2172,-111.5161 979.8308,-107.0631 969.5386,-104.5491 970.2172,-111.5161"/>
<text text-anchor="middle" x="837.0865" y="-142.8" font-family="Times,serif" font-size="14.00" fill="#000000">None</text>
</g>
<!-- Reducer 17 -->
<g id="node12" class="node">
<title>Reducer 17</title>
<ellipse fill="none" stroke="#000000" cx="562.9244" cy="-104" rx="50.7474" ry="18"/>
<text text-anchor="middle" x="562.9244" y="-99.8" font-family="Times,serif" font-size="14.00" fill="#000000">Reducer 17</text>
</g>
<!-- Union 16&#45;&gt;Reducer 17 -->
<g id="edge13" class="edge">
<title>Union 16&#45;&gt;Reducer 17</title>
<path fill="none" stroke="#000000" d="M584.6422,-177.3447C574.8715,-171.7297 565.2171,-164.0654 559.7105,-154 556.1352,-147.4646 555.3116,-139.7062 555.7989,-132.2745"/>
<polygon fill="#000000" stroke="#000000" points="559.2964,-132.5348 557.2103,-122.1473 552.3634,-131.5685 559.2964,-132.5348"/>
<text text-anchor="middle" x="576.0313" y="-142.8" font-family="Times,serif" font-size="14.00" fill="#000000">sorted</text>
</g>
<!-- Union 16&#45;&gt;Map 15 -->
<g id="edge24" class="edge">
<title>Union 16&#45;&gt;Map 15</title>
<path fill="none" stroke="#000000" d="M612.2814,-171.8773C611.1999,-161.9103 611.4441,-149.6471 616.6001,-140 620.4008,-132.8888 626.2995,-126.9029 632.7875,-121.9795"/>
<polygon fill="#000000" stroke="#000000" points="634.8695,-124.797 641.2072,-116.3068 630.9582,-118.9917 634.8695,-124.797"/>
<text text-anchor="middle" x="631.0865" y="-142.8" font-family="Times,serif" font-size="14.00" fill="#000000">None</text>
</g>
<!-- Union 4 -->
<g id="node13" class="node">
<title>Union 4</title>
<ellipse fill="none" stroke="#000000" cx="476.9244" cy="-190" rx="38.6968" ry="18"/>
<text text-anchor="middle" x="476.9244" y="-185.8" font-family="Times,serif" font-size="14.00" fill="#000000">Union 4</text>
</g>
<!-- Union 4&#45;&gt;Reducer 17 -->
<g id="edge14" class="edge">
<title>Union 4&#45;&gt;Reducer 17</title>
<path fill="none" stroke="#000000" d="M491.3106,-172.8523C499.829,-162.9697 510.998,-150.4697 521.6001,-140 525.8506,-135.8027 530.5016,-131.4989 535.1011,-127.3934"/>
<polygon fill="#000000" stroke="#000000" points="537.4976,-129.9471 542.7133,-120.725 532.885,-124.6817 537.4976,-129.9471"/>
<text text-anchor="middle" x="536.0865" y="-142.8" font-family="Times,serif" font-size="14.00" fill="#000000">None</text>
</g>
<!-- Reducer 12 -->
<g id="node15" class="node">
<title>Reducer 12</title>
<ellipse fill="none" stroke="#000000" cx="1230.9244" cy="-104" rx="50.7474" ry="18"/>
<text text-anchor="middle" x="1230.9244" y="-99.8" font-family="Times,serif" font-size="14.00" fill="#000000">Reducer 12</text>
</g>
<!-- Union 4&#45;&gt;Reducer 12 -->
<g id="edge16" class="edge">
<title>Union 4&#45;&gt;Reducer 12</title>
<path fill="none" stroke="#000000" d="M511.4149,-181.4363C527.3005,-177.8614 546.4627,-174.0659 563.9244,-172 689.997,-157.084 1012.1047,-186.1267 1134.9244,-154 1157.3725,-148.1281 1180.4995,-136.2885 1198.4281,-125.604"/>
<polygon fill="#000000" stroke="#000000" points="1200.6066,-128.3736 1207.2986,-120.1597 1196.945,-122.4076 1200.6066,-128.3736"/>
<text text-anchor="middle" x="1185.0865" y="-142.8" font-family="Times,serif" font-size="14.00" fill="#000000">None</text>
</g>
<!-- Reducer 5 -->
<g id="node16" class="node">
<title>Reducer 5</title>
<ellipse fill="none" stroke="#000000" cx="447.9244" cy="-104" rx="46.4045" ry="18"/>
<text text-anchor="middle" x="447.9244" y="-99.8" font-family="Times,serif" font-size="14.00" fill="#000000">Reducer 5</text>
</g>
<!-- Union 4&#45;&gt;Reducer 5 -->
<g id="edge17" class="edge">
<title>Union 4&#45;&gt;Reducer 5</title>
<path fill="none" stroke="#000000" d="M460.9865,-173.3335C456.5013,-167.6365 452.177,-160.9395 449.7105,-154 447.287,-147.1813 446.2517,-139.5052 445.9577,-132.2519"/>
<polygon fill="#000000" stroke="#000000" points="449.4581,-132.0852 445.9822,-122.0768 442.4581,-132.0683 449.4581,-132.0852"/>
<text text-anchor="middle" x="466.0313" y="-142.8" font-family="Times,serif" font-size="14.00" fill="#000000">sorted</text>
</g>
<!-- Union 4&#45;&gt;Reducer 3 -->
<g id="edge20" class="edge">
<title>Union 4&#45;&gt;Reducer 3</title>
<path fill="none" stroke="#000000" d="M451.297,-176.2693C439.4005,-169.74 425.1458,-161.6939 412.6001,-154 397.9801,-145.034 382.1474,-134.5492 368.8388,-125.503"/>
<polygon fill="#000000" stroke="#000000" points="370.7257,-122.5532 360.4958,-119.7965 366.7737,-128.331 370.7257,-122.5532"/>
<text text-anchor="middle" x="428.0865" y="-142.8" font-family="Times,serif" font-size="14.00" fill="#000000">None</text>
</g>
<!-- Union 11 -->
<g id="node14" class="node">
<title>Union 11</title>
<ellipse fill="none" stroke="#000000" cx="1389.9244" cy="-190" rx="42.892" ry="18"/>
<text text-anchor="middle" x="1389.9244" y="-185.8" font-family="Times,serif" font-size="14.00" fill="#000000">Union 11</text>
</g>
<!-- Union 11&#45;&gt;Reducer 12 -->
<g id="edge15" class="edge">
<title>Union 11&#45;&gt;Reducer 12</title>
<path fill="none" stroke="#000000" d="M1367.2781,-174.4617C1351.7556,-164.114 1330.5075,-150.5352 1310.9244,-140 1298.9536,-133.5601 1285.606,-127.2349 1273.2967,-121.7271"/>
<polygon fill="#000000" stroke="#000000" points="1274.6883,-118.5157 1264.126,-117.6863 1271.8658,-124.9214 1274.6883,-118.5157"/>
<text text-anchor="middle" x="1350.0313" y="-142.8" font-family="Times,serif" font-size="14.00" fill="#000000">sorted</text>
</g>
<!-- Union 11&#45;&gt;Map 13 -->
<g id="edge27" class="edge">
<title>Union 11&#45;&gt;Map 13</title>
<path fill="none" stroke="#000000" d="M1389.9244,-171.7616C1389.9244,-160.3597 1389.9244,-145.4342 1389.9244,-132.494"/>
<polygon fill="#000000" stroke="#000000" points="1393.4245,-132.2121 1389.9244,-122.2121 1386.4245,-132.2121 1393.4245,-132.2121"/>
<text text-anchor="middle" x="1405.0865" y="-142.8" font-family="Times,serif" font-size="14.00" fill="#000000">None</text>
</g>
<!-- Union 11&#45;&gt;Map 10 -->
<g id="edge30" class="edge">
<title>Union 11&#45;&gt;Map 10</title>
<path fill="none" stroke="#000000" d="M1430.9503,-184.5547C1453.0674,-179.7568 1479.5179,-170.7737 1497.9244,-154 1504.4028,-148.0962 1509.071,-139.9384 1512.3915,-131.9235"/>
<polygon fill="#000000" stroke="#000000" points="1515.733,-132.9736 1515.8047,-122.3791 1509.1418,-130.6165 1515.733,-132.9736"/>
<text text-anchor="middle" x="1522.0865" y="-142.8" font-family="Times,serif" font-size="14.00" fill="#000000">None</text>
</g>
<!-- Reducer 6 -->
<g id="node17" class="node">
<title>Reducer 6</title>
<ellipse fill="none" stroke="#000000" cx="447.9244" cy="-18" rx="46.4045" ry="18"/>
<text text-anchor="middle" x="447.9244" y="-13.8" font-family="Times,serif" font-size="14.00" fill="#000000">Reducer 6</text>
</g>
<!-- Reducer 5&#45;&gt;Reducer 6 -->
<g id="edge18" class="edge">
<title>Reducer 5&#45;&gt;Reducer 6</title>
<path fill="none" stroke="#000000" d="M447.9244,-85.7616C447.9244,-74.3597 447.9244,-59.4342 447.9244,-46.494"/>
<polygon fill="#000000" stroke="#000000" points="451.4245,-46.2121 447.9244,-36.2121 444.4245,-46.2121 451.4245,-46.2121"/>
<text text-anchor="middle" x="465.0313" y="-56.8" font-family="Times,serif" font-size="14.00" fill="#000000">sorted</text>
</g>
<!-- Map 14 -->
<g id="node20" class="node">
<title>Map 14</title>
<ellipse fill="none" stroke="#000000" cx="1610.9244" cy="-190" rx="37.243" ry="18"/>
<text text-anchor="middle" x="1610.9244" y="-185.8" font-family="Times,serif" font-size="14.00" fill="#000000">Map 14</text>
</g>
<!-- Map 14&#45;&gt;Map 13 -->
<g id="edge25" class="edge">
<title>Map 14&#45;&gt;Map 13</title>
<path fill="none" stroke="#000000" d="M1592.8409,-174.0768C1579.3788,-163.0057 1560.0901,-148.7237 1540.9244,-140 1531.1521,-135.552 1475.0327,-122.6915 1434.0552,-113.6157"/>
<polygon fill="#000000" stroke="#000000" points="1434.7817,-110.1919 1424.2624,-111.4548 1433.2733,-117.0274 1434.7817,-110.1919"/>
<text text-anchor="middle" x="1591.7452" y="-142.8" font-family="Times,serif" font-size="14.00" fill="#000000">broadcast</text>
</g>
<!-- Map 14&#45;&gt;Map 10 -->
<g id="edge28" class="edge">
<title>Map 14&#45;&gt;Map 10</title>
<path fill="none" stroke="#000000" d="M1624.0069,-173.082C1630.2599,-162.8047 1635.0008,-149.8181 1627.9244,-140 1620.1365,-129.1949 1590.6124,-119.7884 1564.3987,-113.303"/>
<polygon fill="#000000" stroke="#000000" points="1565.1049,-109.8734 1554.5663,-110.9636 1563.4846,-116.6833 1565.1049,-109.8734"/>
<text text-anchor="middle" x="1657.7452" y="-142.8" font-family="Times,serif" font-size="14.00" fill="#000000">broadcast</text>
</g>
</g>
</svg>
