<?xml version="1.0" encoding="UTF-8" standalone="no"?>
<!DOCTYPE svg PUBLIC "-//W3C//DTD SVG 1.1//EN"
 "http://www.w3.org/Graphics/SVG/1.1/DTD/svg11.dtd">
<!-- Generated by graphviz version 2.40.1 (20161225.0304)
 -->
<!-- Title: %3 Pages: 1 -->
<svg width="527pt" height="496pt"
 viewBox="0.00 0.00 526.82 496.00" xmlns="http://www.w3.org/2000/svg" xmlns:xlink="http://www.w3.org/1999/xlink">
<g id="graph0" class="graph" transform="scale(1 1) rotate(0) translate(4 492)">
<title>%3</title>
<polygon fill="#ffffff" stroke="transparent" points="-4,4 -4,-492 522.8241,-492 522.8241,4 -4,4"/>
<!-- Map 3 -->
<g id="node1" class="node">
<title>Map 3</title>
<ellipse fill="none" stroke="#000000" cx="224.1825" cy="-470" rx="32.8992" ry="18"/>
<text text-anchor="middle" x="224.1825" y="-465.8" font-family="Times,serif" font-size="14.00" fill="#000000">Map 3</text>
</g>
<!-- Map 6 -->
<g id="node2" class="node">
<title>Map 6</title>
<ellipse fill="none" stroke="#000000" cx="172.1825" cy="-190" rx="32.8992" ry="18"/>
<text text-anchor="middle" x="172.1825" y="-185.8" font-family="Times,serif" font-size="14.00" fill="#000000">Map 6</text>
</g>
<!-- Map 3&#45;&gt;Map 6 -->
<g id="edge1" class="edge">
<title>Map 3&#45;&gt;Map 6</title>
<path fill="none" stroke="#000000" d="M224.006,-451.7778C223.4106,-407.2781 220.8605,-294.0764 210.1825,-258 205.7782,-243.1195 197.6872,-227.9165 190.0996,-215.6699"/>
<polygon fill="#000000" stroke="#000000" points="192.827,-213.4412 184.4649,-206.9355 186.9448,-217.236 192.827,-213.4412"/>
<text text-anchor="middle" x="247.0033" y="-325.8" font-family="Times,serif" font-size="14.00" fill="#000000">broadcast</text>
</g>
<!-- Reducer 4 -->
<g id="node5" class="node">
<title>Reducer 4</title>
<ellipse fill="none" stroke="#000000" cx="155.1825" cy="-330" rx="46.4045" ry="18"/>
<text text-anchor="middle" x="155.1825" y="-325.8" font-family="Times,serif" font-size="14.00" fill="#000000">Reducer 4</text>
</g>
<!-- Map 3&#45;&gt;Reducer 4 -->
<g id="edge8" class="edge">
<title>Map 3&#45;&gt;Reducer 4</title>
<path fill="none" stroke="#000000" d="M195.8877,-460.6557C183.3278,-454.9891 169.6708,-446.4036 161.9687,-434 147.9418,-411.4112 147.7826,-380.4862 150.1922,-358.2389"/>
<polygon fill="#000000" stroke="#000000" points="153.6931,-358.4612 151.5318,-348.0892 146.7533,-357.5452 153.6931,-358.4612"/>
<text text-anchor="middle" x="185.2895" y="-422.8" font-family="Times,serif" font-size="14.00" fill="#000000">unsorted</text>
</g>
<!-- Map 1 -->
<g id="node6" class="node">
<title>Map 1</title>
<ellipse fill="none" stroke="#000000" cx="56.1825" cy="-384" rx="32.8992" ry="18"/>
<text text-anchor="middle" x="56.1825" y="-379.8" font-family="Times,serif" font-size="14.00" fill="#000000">Map 1</text>
</g>
<!-- Map 3&#45;&gt;Map 1 -->
<g id="edge5" class="edge">
<title>Map 3&#45;&gt;Map 1</title>
<path fill="none" stroke="#000000" d="M192.3824,-465.005C156.0496,-458.7747 99.4319,-447.3071 82.5409,-434 75.1483,-428.1759 69.5954,-419.6981 65.5412,-411.3724"/>
<polygon fill="#000000" stroke="#000000" points="68.7545,-409.9848 61.5826,-402.1864 62.326,-412.7552 68.7545,-409.9848"/>
<text text-anchor="middle" x="110.0033" y="-422.8" font-family="Times,serif" font-size="14.00" fill="#000000">broadcast</text>
</g>
<!-- Map 10 -->
<g id="node7" class="node">
<title>Map 10</title>
<ellipse fill="none" stroke="#000000" cx="403.1825" cy="-276" rx="37.243" ry="18"/>
<text text-anchor="middle" x="403.1825" y="-271.8" font-family="Times,serif" font-size="14.00" fill="#000000">Map 10</text>
</g>
<!-- Map 3&#45;&gt;Map 10 -->
<g id="edge14" class="edge">
<title>Map 3&#45;&gt;Map 10</title>
<path fill="none" stroke="#000000" d="M255.8419,-464.6412C310.9456,-454.6362 420.9387,-431.438 445.1825,-402 470.8006,-370.8934 475.0433,-347.6114 456.1825,-312 452.339,-304.7429 446.3043,-298.6774 439.662,-293.7199"/>
<polygon fill="#000000" stroke="#000000" points="441.3158,-290.6177 431.0427,-288.0266 437.4577,-296.4585 441.3158,-290.6177"/>
<text text-anchor="middle" x="492.0033" y="-379.8" font-family="Times,serif" font-size="14.00" fill="#000000">broadcast</text>
</g>
<!-- Reducer 5 -->
<g id="node9" class="node">
<title>Reducer 5</title>
<ellipse fill="none" stroke="#000000" cx="390.1825" cy="-384" rx="46.4045" ry="18"/>
<text text-anchor="middle" x="390.1825" y="-379.8" font-family="Times,serif" font-size="14.00" fill="#000000">Reducer 5</text>
</g>
<!-- Map 3&#45;&gt;Reducer 5 -->
<g id="edge7" class="edge">
<title>Map 3&#45;&gt;Reducer 5</title>
<path fill="none" stroke="#000000" d="M248.3204,-457.4949C275.9013,-443.206 321.3483,-419.6611 353.3571,-403.0782"/>
<polygon fill="#000000" stroke="#000000" points="355.1441,-406.0943 362.4132,-398.3865 351.924,-399.8789 355.1441,-406.0943"/>
<text text-anchor="middle" x="340.2895" y="-422.8" font-family="Times,serif" font-size="14.00" fill="#000000">unsorted</text>
</g>
<!-- Reducer 7 -->
<g id="node10" class="node">
<title>Reducer 7</title>
<ellipse fill="none" stroke="#000000" cx="172.1825" cy="-104" rx="46.4045" ry="18"/>
<text text-anchor="middle" x="172.1825" y="-99.8" font-family="Times,serif" font-size="14.00" fill="#000000">Reducer 7</text>
</g>
<!-- Map 6&#45;&gt;Reducer 7 -->
<g id="edge10" class="edge">
<title>Map 6&#45;&gt;Reducer 7</title>
<path fill="none" stroke="#000000" d="M172.1825,-171.7616C172.1825,-160.3597 172.1825,-145.4342 172.1825,-132.494"/>
<polygon fill="#000000" stroke="#000000" points="175.6826,-132.2121 172.1825,-122.2121 168.6826,-132.2121 175.6826,-132.2121"/>
<text text-anchor="middle" x="189.2895" y="-142.8" font-family="Times,serif" font-size="14.00" fill="#000000">sorted</text>
</g>
<!-- Map 9 -->
<g id="node3" class="node">
<title>Map 9</title>
<ellipse fill="none" stroke="#000000" cx="293.1825" cy="-384" rx="32.8992" ry="18"/>
<text text-anchor="middle" x="293.1825" y="-379.8" font-family="Times,serif" font-size="14.00" fill="#000000">Map 9</text>
</g>
<!-- Map 9&#45;&gt;Map 6 -->
<g id="edge2" class="edge">
<title>Map 9&#45;&gt;Map 6</title>
<path fill="none" stroke="#000000" d="M291.6667,-365.8996C288.0441,-333.6943 276.1273,-266.0703 238.1825,-226 229.9226,-217.2773 219.0708,-210.1734 208.5586,-204.6517"/>
<polygon fill="#000000" stroke="#000000" points="210.0018,-201.4614 199.4816,-200.2057 206.9226,-207.7478 210.0018,-201.4614"/>
<text text-anchor="middle" x="302.0033" y="-271.8" font-family="Times,serif" font-size="14.00" fill="#000000">broadcast</text>
</g>
<!-- Map 9&#45;&gt;Map 10 -->
<g id="edge15" class="edge">
<title>Map 9&#45;&gt;Map 10</title>
<path fill="none" stroke="#000000" d="M300.605,-366.2064C307.8962,-350.4177 320.2845,-327.5137 336.5409,-312 344.7713,-304.1456 355.05,-297.4884 365.0525,-292.1163"/>
<polygon fill="#000000" stroke="#000000" points="366.7481,-295.181 374.0941,-287.5465 363.5905,-288.9336 366.7481,-295.181"/>
<text text-anchor="middle" x="363.0033" y="-325.8" font-family="Times,serif" font-size="14.00" fill="#000000">broadcast</text>
</g>
<!-- Reducer 2 -->
<g id="node4" class="node">
<title>Reducer 2</title>
<ellipse fill="none" stroke="#000000" cx="60.1825" cy="-276" rx="46.4045" ry="18"/>
<text text-anchor="middle" x="60.1825" y="-271.8" font-family="Times,serif" font-size="14.00" fill="#000000">Reducer 2</text>
</g>
<!-- Reducer 2&#45;&gt;Map 6 -->
<g id="edge3" class="edge">
<title>Reducer 2&#45;&gt;Map 6</title>
<path fill="none" stroke="#000000" d="M61.3861,-257.8372C62.9722,-247.3611 66.5499,-234.6018 74.5409,-226 88.9916,-210.4448 110.7505,-201.5847 130.063,-196.5508"/>
<polygon fill="#000000" stroke="#000000" points="130.948,-199.9383 139.8875,-194.2519 129.3531,-193.1224 130.948,-199.9383"/>
<text text-anchor="middle" x="102.0033" y="-228.8" font-family="Times,serif" font-size="14.00" fill="#000000">broadcast</text>
</g>
<!-- Reducer 4&#45;&gt;Map 6 -->
<g id="edge4" class="edge">
<title>Reducer 4&#45;&gt;Map 6</title>
<path fill="none" stroke="#000000" d="M154.4905,-311.8772C154.181,-297.2734 154.2956,-276.2406 156.5409,-258 158.1778,-244.7023 161.3199,-230.2021 164.3611,-218.0207"/>
<polygon fill="#000000" stroke="#000000" points="167.8371,-218.5602 166.9672,-208.0011 161.0625,-216.798 167.8371,-218.5602"/>
<text text-anchor="middle" x="184.0033" y="-271.8" font-family="Times,serif" font-size="14.00" fill="#000000">broadcast</text>
</g>
<!-- Map 1&#45;&gt;Reducer 2 -->
<g id="edge12" class="edge">
<title>Map 1&#45;&gt;Reducer 2</title>
<path fill="none" stroke="#000000" d="M53.4208,-365.9045C51.6037,-351.3161 49.9085,-330.2908 51.9687,-312 52.2575,-309.4359 52.6585,-306.7882 53.1293,-304.1466"/>
<polygon fill="#000000" stroke="#000000" points="56.593,-304.6808 55.2014,-294.1778 49.7395,-303.2562 56.593,-304.6808"/>
<text text-anchor="middle" x="76.2895" y="-325.8" font-family="Times,serif" font-size="14.00" fill="#000000">unsorted</text>
</g>
<!-- Map 1&#45;&gt;Reducer 7 -->
<g id="edge9" class="edge">
<title>Map 1&#45;&gt;Reducer 7</title>
<path fill="none" stroke="#000000" d="M42.9907,-367.2516C21.0369,-337.1904 -17.9912,-272.8506 9.5409,-226 38.0622,-177.4661 94.1698,-142.0545 132.4226,-122.2517"/>
<polygon fill="#000000" stroke="#000000" points="134.3828,-125.1831 141.7355,-117.5549 131.2306,-118.9329 134.3828,-125.1831"/>
<text text-anchor="middle" x="37.0033" y="-228.8" font-family="Times,serif" font-size="14.00" fill="#000000">broadcast</text>
</g>
<!-- Reducer 11 -->
<g id="node8" class="node">
<title>Reducer 11</title>
<ellipse fill="none" stroke="#000000" cx="333.1825" cy="-190" rx="50.1002" ry="18"/>
<text text-anchor="middle" x="333.1825" y="-185.8" font-family="Times,serif" font-size="14.00" fill="#000000">Reducer 11</text>
</g>
<!-- Map 10&#45;&gt;Reducer 11 -->
<g id="edge6" class="edge">
<title>Map 10&#45;&gt;Reducer 11</title>
<path fill="none" stroke="#000000" d="M389.3528,-259.0092C379.2274,-246.5694 365.3157,-229.4778 353.8705,-215.4167"/>
<polygon fill="#000000" stroke="#000000" points="356.4914,-213.0921 347.4641,-207.546 351.0624,-217.5111 356.4914,-213.0921"/>
<text text-anchor="middle" x="389.2895" y="-228.8" font-family="Times,serif" font-size="14.00" fill="#000000">sorted</text>
</g>
<!-- Reducer 11&#45;&gt;Reducer 7 -->
<g id="edge11" class="edge">
<title>Reducer 11&#45;&gt;Reducer 7</title>
<path fill="none" stroke="#000000" d="M305.1385,-175.0199C278.3925,-160.7333 237.963,-139.1374 208.71,-123.5116"/>
<polygon fill="#000000" stroke="#000000" points="210.1061,-120.2893 199.6365,-118.6649 206.808,-126.4637 210.1061,-120.2893"/>
<text text-anchor="middle" x="289.0033" y="-142.8" font-family="Times,serif" font-size="14.00" fill="#000000">broadcast</text>
</g>
<!-- Reducer 5&#45;&gt;Map 10 -->
<g id="edge16" class="edge">
<title>Reducer 5&#45;&gt;Map 10</title>
<path fill="none" stroke="#000000" d="M392.3878,-365.6793C394.4171,-348.821 397.4571,-323.5651 399.7945,-304.147"/>
<polygon fill="#000000" stroke="#000000" points="403.2896,-304.3968 401.0098,-294.0502 396.3398,-303.5602 403.2896,-304.3968"/>
<text text-anchor="middle" x="425.0033" y="-325.8" font-family="Times,serif" font-size="14.00" fill="#000000">broadcast</text>
</g>
<!-- Reducer 8 -->
<g id="node11" class="node">
<title>Reducer 8</title>
<ellipse fill="none" stroke="#000000" cx="172.1825" cy="-18" rx="46.4045" ry="18"/>
<text text-anchor="middle" x="172.1825" y="-13.8" font-family="Times,serif" font-size="14.00" fill="#000000">Reducer 8</text>
</g>
<!-- Reducer 7&#45;&gt;Reducer 8 -->
<g id="edge13" class="edge">
<title>Reducer 7&#45;&gt;Reducer 8</title>
<path fill="none" stroke="#000000" d="M172.1825,-85.7616C172.1825,-74.3597 172.1825,-59.4342 172.1825,-46.494"/>
<polygon fill="#000000" stroke="#000000" points="175.6826,-46.2121 172.1825,-36.2121 168.6826,-46.2121 175.6826,-46.2121"/>
<text text-anchor="middle" x="189.2895" y="-56.8" font-family="Times,serif" font-size="14.00" fill="#000000">sorted</text>
</g>
</g>
</svg>
