<?xml version="1.0" encoding="UTF-8" standalone="no"?>
<!DOCTYPE svg PUBLIC "-//W3C//DTD SVG 1.1//EN"
 "http://www.w3.org/Graphics/SVG/1.1/DTD/svg11.dtd">
<!-- Generated by graphviz version 2.40.1 (20161225.0304)
 -->
<!-- Title: %3 Pages: 1 -->
<svg width="401pt" height="732pt"
 viewBox="0.00 0.00 401.40 732.00" xmlns="http://www.w3.org/2000/svg" xmlns:xlink="http://www.w3.org/1999/xlink">
<g id="graph0" class="graph" transform="scale(1 1) rotate(0) translate(4 728)">
<title>%3</title>
<polygon fill="#ffffff" stroke="transparent" points="-4,4 -4,-728 397.4036,-728 397.4036,4 -4,4"/>
<!-- Reducer 10 -->
<g id="node1" class="node">
<title>Reducer 10</title>
<ellipse fill="none" stroke="#000000" cx="161.2018" cy="-448" rx="50.7474" ry="18"/>
<text text-anchor="middle" x="161.2018" y="-443.8" font-family="Times,serif" font-size="14.00" fill="#000000">Reducer 10</text>
</g>
<!-- Map 5 -->
<g id="node2" class="node">
<title>Map 5</title>
<ellipse fill="none" stroke="#000000" cx="161.2018" cy="-362" rx="32.8992" ry="18"/>
<text text-anchor="middle" x="161.2018" y="-357.8" font-family="Times,serif" font-size="14.00" fill="#000000">Map 5</text>
</g>
<!-- Reducer 10&#45;&gt;Map 5 -->
<g id="edge1" class="edge">
<title>Reducer 10&#45;&gt;Map 5</title>
<path fill="none" stroke="#000000" d="M161.2018,-429.7616C161.2018,-418.3597 161.2018,-403.4342 161.2018,-390.494"/>
<polygon fill="#000000" stroke="#000000" points="164.7019,-390.2121 161.2018,-380.2121 157.7019,-390.2121 164.7019,-390.2121"/>
<text text-anchor="middle" x="188.0226" y="-400.8" font-family="Times,serif" font-size="14.00" fill="#000000">broadcast</text>
</g>
<!-- Map 1 -->
<g id="node4" class="node">
<title>Map 1</title>
<ellipse fill="none" stroke="#000000" cx="250.2018" cy="-190" rx="32.8992" ry="18"/>
<text text-anchor="middle" x="250.2018" y="-185.8" font-family="Times,serif" font-size="14.00" fill="#000000">Map 1</text>
</g>
<!-- Map 5&#45;&gt;Map 1 -->
<g id="edge3" class="edge">
<title>Map 5&#45;&gt;Map 1</title>
<path fill="none" stroke="#000000" d="M154.7994,-344.3105C148.1027,-322.6603 140.3735,-285.4935 154.5602,-258 167.0114,-233.8698 192.4207,-216.434 213.921,-205.2624"/>
<polygon fill="#000000" stroke="#000000" points="215.7312,-208.2724 223.1545,-200.713 212.6373,-201.9932 215.7312,-208.2724"/>
<text text-anchor="middle" x="182.0226" y="-271.8" font-family="Times,serif" font-size="14.00" fill="#000000">broadcast</text>
</g>
<!-- Reducer 6 -->
<g id="node5" class="node">
<title>Reducer 6</title>
<ellipse fill="none" stroke="#000000" cx="347.2018" cy="-276" rx="46.4045" ry="18"/>
<text text-anchor="middle" x="347.2018" y="-271.8" font-family="Times,serif" font-size="14.00" fill="#000000">Reducer 6</text>
</g>
<!-- Map 5&#45;&gt;Reducer 6 -->
<g id="edge9" class="edge">
<title>Map 5&#45;&gt;Reducer 6</title>
<path fill="none" stroke="#000000" d="M186.6743,-350.2224C217.9099,-335.7801 271.1953,-311.1428 307.7458,-294.2431"/>
<polygon fill="#000000" stroke="#000000" points="309.508,-297.2844 317.1158,-289.9107 306.5702,-290.9307 309.508,-297.2844"/>
<text text-anchor="middle" x="289.3087" y="-314.8" font-family="Times,serif" font-size="14.00" fill="#000000">unsorted</text>
</g>
<!-- Map 4 -->
<g id="node3" class="node">
<title>Map 4</title>
<ellipse fill="none" stroke="#000000" cx="250.2018" cy="-276" rx="32.8992" ry="18"/>
<text text-anchor="middle" x="250.2018" y="-271.8" font-family="Times,serif" font-size="14.00" fill="#000000">Map 4</text>
</g>
<!-- Map 4&#45;&gt;Map 1 -->
<g id="edge2" class="edge">
<title>Map 4&#45;&gt;Map 1</title>
<path fill="none" stroke="#000000" d="M250.2018,-257.7616C250.2018,-246.3597 250.2018,-231.4342 250.2018,-218.494"/>
<polygon fill="#000000" stroke="#000000" points="253.7019,-218.2121 250.2018,-208.2121 246.7019,-218.2121 253.7019,-218.2121"/>
<text text-anchor="middle" x="277.0226" y="-228.8" font-family="Times,serif" font-size="14.00" fill="#000000">broadcast</text>
</g>
<!-- Reducer 2 -->
<g id="node10" class="node">
<title>Reducer 2</title>
<ellipse fill="none" stroke="#000000" cx="250.2018" cy="-104" rx="46.4045" ry="18"/>
<text text-anchor="middle" x="250.2018" y="-99.8" font-family="Times,serif" font-size="14.00" fill="#000000">Reducer 2</text>
</g>
<!-- Map 1&#45;&gt;Reducer 2 -->
<g id="edge11" class="edge">
<title>Map 1&#45;&gt;Reducer 2</title>
<path fill="none" stroke="#000000" d="M250.2018,-171.7616C250.2018,-160.3597 250.2018,-145.4342 250.2018,-132.494"/>
<polygon fill="#000000" stroke="#000000" points="253.7019,-132.2121 250.2018,-122.2121 246.7019,-132.2121 253.7019,-132.2121"/>
<text text-anchor="middle" x="267.3087" y="-142.8" font-family="Times,serif" font-size="14.00" fill="#000000">sorted</text>
</g>
<!-- Reducer 6&#45;&gt;Map 1 -->
<g id="edge4" class="edge">
<title>Reducer 6&#45;&gt;Map 1</title>
<path fill="none" stroke="#000000" d="M335.8959,-258.5369C328.7387,-248.3088 318.848,-235.5646 308.2018,-226 300.6771,-219.2398 291.7228,-212.9857 283.1285,-207.6516"/>
<polygon fill="#000000" stroke="#000000" points="284.761,-204.5502 274.3777,-202.4433 281.1808,-210.5654 284.761,-204.5502"/>
<text text-anchor="middle" x="348.0226" y="-228.8" font-family="Times,serif" font-size="14.00" fill="#000000">broadcast</text>
</g>
<!-- Union 9 -->
<g id="node6" class="node">
<title>Union 9</title>
<ellipse fill="none" stroke="#000000" cx="161.2018" cy="-534" rx="38.6968" ry="18"/>
<text text-anchor="middle" x="161.2018" y="-529.8" font-family="Times,serif" font-size="14.00" fill="#000000">Union 9</text>
</g>
<!-- Union 9&#45;&gt;Reducer 10 -->
<g id="edge5" class="edge">
<title>Union 9&#45;&gt;Reducer 10</title>
<path fill="none" stroke="#000000" d="M161.2018,-515.7616C161.2018,-504.3597 161.2018,-489.4342 161.2018,-476.494"/>
<polygon fill="#000000" stroke="#000000" points="164.7019,-476.2121 161.2018,-466.2121 157.7019,-476.2121 164.7019,-476.2121"/>
<text text-anchor="middle" x="178.3087" y="-486.8" font-family="Times,serif" font-size="14.00" fill="#000000">sorted</text>
</g>
<!-- Reducer 13 -->
<g id="node8" class="node">
<title>Reducer 13</title>
<ellipse fill="none" stroke="#000000" cx="280.2018" cy="-448" rx="50.7474" ry="18"/>
<text text-anchor="middle" x="280.2018" y="-443.8" font-family="Times,serif" font-size="14.00" fill="#000000">Reducer 13</text>
</g>
<!-- Union 9&#45;&gt;Reducer 13 -->
<g id="edge7" class="edge">
<title>Union 9&#45;&gt;Reducer 13</title>
<path fill="none" stroke="#000000" d="M182.2027,-518.8229C200.8514,-505.3456 228.3427,-485.478 249.4654,-470.2128"/>
<polygon fill="#000000" stroke="#000000" points="251.7388,-472.8883 257.7937,-464.1941 247.6386,-467.2148 251.7388,-472.8883"/>
<text text-anchor="middle" x="243.3639" y="-486.8" font-family="Times,serif" font-size="14.00" fill="#000000">None</text>
</g>
<!-- Reducer 8 -->
<g id="node13" class="node">
<title>Reducer 8</title>
<ellipse fill="none" stroke="#000000" cx="46.2018" cy="-448" rx="46.4045" ry="18"/>
<text text-anchor="middle" x="46.2018" y="-443.8" font-family="Times,serif" font-size="14.00" fill="#000000">Reducer 8</text>
</g>
<!-- Union 9&#45;&gt;Reducer 8 -->
<g id="edge13" class="edge">
<title>Union 9&#45;&gt;Reducer 8</title>
<path fill="none" stroke="#000000" d="M140.6421,-518.6249C122.5853,-505.1216 96.1002,-485.3153 75.7693,-470.1113"/>
<polygon fill="#000000" stroke="#000000" points="77.8589,-467.3036 67.7544,-464.1176 73.6667,-472.9094 77.8589,-467.3036"/>
<text text-anchor="middle" x="126.3639" y="-486.8" font-family="Times,serif" font-size="14.00" fill="#000000">None</text>
</g>
<!-- Reducer 12 -->
<g id="node7" class="node">
<title>Reducer 12</title>
<ellipse fill="none" stroke="#000000" cx="280.2018" cy="-534" rx="50.7474" ry="18"/>
<text text-anchor="middle" x="280.2018" y="-529.8" font-family="Times,serif" font-size="14.00" fill="#000000">Reducer 12</text>
</g>
<!-- Reducer 12&#45;&gt;Reducer 13 -->
<g id="edge6" class="edge">
<title>Reducer 12&#45;&gt;Reducer 13</title>
<path fill="none" stroke="#000000" d="M280.2018,-515.7616C280.2018,-504.3597 280.2018,-489.4342 280.2018,-476.494"/>
<polygon fill="#000000" stroke="#000000" points="283.7019,-476.2121 280.2018,-466.2121 276.7019,-476.2121 283.7019,-476.2121"/>
<text text-anchor="middle" x="297.3087" y="-486.8" font-family="Times,serif" font-size="14.00" fill="#000000">sorted</text>
</g>
<!-- Map 11 -->
<g id="node9" class="node">
<title>Map 11</title>
<ellipse fill="none" stroke="#000000" cx="280.2018" cy="-620" rx="37.0949" ry="18"/>
<text text-anchor="middle" x="280.2018" y="-615.8" font-family="Times,serif" font-size="14.00" fill="#000000">Map 11</text>
</g>
<!-- Map 11&#45;&gt;Reducer 12 -->
<g id="edge8" class="edge">
<title>Map 11&#45;&gt;Reducer 12</title>
<path fill="none" stroke="#000000" d="M280.2018,-601.7616C280.2018,-590.3597 280.2018,-575.4342 280.2018,-562.494"/>
<polygon fill="#000000" stroke="#000000" points="283.7019,-562.2121 280.2018,-552.2121 276.7019,-562.2121 283.7019,-562.2121"/>
<text text-anchor="middle" x="297.3087" y="-572.8" font-family="Times,serif" font-size="14.00" fill="#000000">sorted</text>
</g>
<!-- Reducer 3 -->
<g id="node11" class="node">
<title>Reducer 3</title>
<ellipse fill="none" stroke="#000000" cx="250.2018" cy="-18" rx="46.4045" ry="18"/>
<text text-anchor="middle" x="250.2018" y="-13.8" font-family="Times,serif" font-size="14.00" fill="#000000">Reducer 3</text>
</g>
<!-- Reducer 2&#45;&gt;Reducer 3 -->
<g id="edge10" class="edge">
<title>Reducer 2&#45;&gt;Reducer 3</title>
<path fill="none" stroke="#000000" d="M250.2018,-85.7616C250.2018,-74.3597 250.2018,-59.4342 250.2018,-46.494"/>
<polygon fill="#000000" stroke="#000000" points="253.7019,-46.2121 250.2018,-36.2121 246.7019,-46.2121 253.7019,-46.2121"/>
<text text-anchor="middle" x="267.3087" y="-56.8" font-family="Times,serif" font-size="14.00" fill="#000000">sorted</text>
</g>
<!-- Map 7 -->
<g id="node12" class="node">
<title>Map 7</title>
<ellipse fill="none" stroke="#000000" cx="46.2018" cy="-534" rx="32.8992" ry="18"/>
<text text-anchor="middle" x="46.2018" y="-529.8" font-family="Times,serif" font-size="14.00" fill="#000000">Map 7</text>
</g>
<!-- Map 7&#45;&gt;Reducer 8 -->
<g id="edge12" class="edge">
<title>Map 7&#45;&gt;Reducer 8</title>
<path fill="none" stroke="#000000" d="M46.2018,-515.7616C46.2018,-504.3597 46.2018,-489.4342 46.2018,-476.494"/>
<polygon fill="#000000" stroke="#000000" points="49.7019,-476.2121 46.2018,-466.2121 42.7019,-476.2121 49.7019,-476.2121"/>
<text text-anchor="middle" x="63.3087" y="-486.8" font-family="Times,serif" font-size="14.00" fill="#000000">sorted</text>
</g>
<!-- Map 14 -->
<g id="node14" class="node">
<title>Map 14</title>
<ellipse fill="none" stroke="#000000" cx="280.2018" cy="-706" rx="37.243" ry="18"/>
<text text-anchor="middle" x="280.2018" y="-701.8" font-family="Times,serif" font-size="14.00" fill="#000000">Map 14</text>
</g>
<!-- Map 14&#45;&gt;Map 11 -->
<g id="edge14" class="edge">
<title>Map 14&#45;&gt;Map 11</title>
<path fill="none" stroke="#000000" d="M280.2018,-687.7616C280.2018,-676.3597 280.2018,-661.4342 280.2018,-648.494"/>
<polygon fill="#000000" stroke="#000000" points="283.7019,-648.2121 280.2018,-638.2121 276.7019,-648.2121 283.7019,-648.2121"/>
<text text-anchor="middle" x="307.0226" y="-658.8" font-family="Times,serif" font-size="14.00" fill="#000000">broadcast</text>
</g>
</g>
</svg>
