<?xml version="1.0" encoding="UTF-8" standalone="no"?>
<!DOCTYPE svg PUBLIC "-//W3C//DTD SVG 1.1//EN"
 "http://www.w3.org/Graphics/SVG/1.1/DTD/svg11.dtd">
<!-- Generated by graphviz version 2.40.1 (20161225.0304)
 -->
<!-- Title: %3 Pages: 1 -->
<svg width="573pt" height="818pt"
 viewBox="0.00 0.00 572.84 818.00" xmlns="http://www.w3.org/2000/svg" xmlns:xlink="http://www.w3.org/1999/xlink">
<g id="graph0" class="graph" transform="scale(1 1) rotate(0) translate(4 814)">
<title>%3</title>
<polygon fill="#ffffff" stroke="transparent" points="-4,4 -4,-814 568.8434,-814 568.8434,4 -4,4"/>
<!-- Map 20 -->
<g id="node1" class="node">
<title>Map 20</title>
<ellipse fill="none" stroke="#000000" cx="243.2018" cy="-276" rx="37.243" ry="18"/>
<text text-anchor="middle" x="243.2018" y="-271.8" font-family="Times,serif" font-size="14.00" fill="#000000">Map 20</text>
</g>
<!-- Reducer 21 -->
<g id="node2" class="node">
<title>Reducer 21</title>
<ellipse fill="none" stroke="#000000" cx="243.2018" cy="-190" rx="50.7474" ry="18"/>
<text text-anchor="middle" x="243.2018" y="-185.8" font-family="Times,serif" font-size="14.00" fill="#000000">Reducer 21</text>
</g>
<!-- Map 20&#45;&gt;Reducer 21 -->
<g id="edge1" class="edge">
<title>Map 20&#45;&gt;Reducer 21</title>
<path fill="none" stroke="#000000" d="M243.2018,-257.7616C243.2018,-246.3597 243.2018,-231.4342 243.2018,-218.494"/>
<polygon fill="#000000" stroke="#000000" points="246.7019,-218.2121 243.2018,-208.2121 239.7019,-218.2121 246.7019,-218.2121"/>
<text text-anchor="middle" x="260.3087" y="-228.8" font-family="Times,serif" font-size="14.00" fill="#000000">sorted</text>
</g>
<!-- Reducer 2 -->
<g id="node9" class="node">
<title>Reducer 2</title>
<ellipse fill="none" stroke="#000000" cx="330.2018" cy="-104" rx="46.4045" ry="18"/>
<text text-anchor="middle" x="330.2018" y="-99.8" font-family="Times,serif" font-size="14.00" fill="#000000">Reducer 2</text>
</g>
<!-- Reducer 21&#45;&gt;Reducer 2 -->
<g id="edge28" class="edge">
<title>Reducer 21&#45;&gt;Reducer 2</title>
<path fill="none" stroke="#000000" d="M246.9515,-171.6854C249.8145,-161.4139 254.6541,-148.9139 262.5602,-140 269.313,-132.3864 278.0702,-126.1084 287.0309,-121.0476"/>
<polygon fill="#000000" stroke="#000000" points="288.7347,-124.1066 295.9927,-116.3882 285.5056,-117.8959 288.7347,-124.1066"/>
<text text-anchor="middle" x="290.0226" y="-142.8" font-family="Times,serif" font-size="14.00" fill="#000000">broadcast</text>
</g>
<!-- Reducer 15 -->
<g id="node3" class="node">
<title>Reducer 15</title>
<ellipse fill="none" stroke="#000000" cx="104.2018" cy="-448" rx="50.7474" ry="18"/>
<text text-anchor="middle" x="104.2018" y="-443.8" font-family="Times,serif" font-size="14.00" fill="#000000">Reducer 15</text>
</g>
<!-- Map 5 -->
<g id="node4" class="node">
<title>Map 5</title>
<ellipse fill="none" stroke="#000000" cx="223.2018" cy="-362" rx="32.8992" ry="18"/>
<text text-anchor="middle" x="223.2018" y="-357.8" font-family="Times,serif" font-size="14.00" fill="#000000">Map 5</text>
</g>
<!-- Reducer 15&#45;&gt;Map 5 -->
<g id="edge2" class="edge">
<title>Reducer 15&#45;&gt;Map 5</title>
<path fill="none" stroke="#000000" d="M123.6035,-431.1399C135.436,-421.1255 151.0317,-408.3943 165.5602,-398 173.8927,-392.0386 183.2045,-385.9793 191.8726,-380.5745"/>
<polygon fill="#000000" stroke="#000000" points="193.9158,-383.4271 200.6046,-375.2106 190.2518,-377.4625 193.9158,-383.4271"/>
<text text-anchor="middle" x="193.0226" y="-400.8" font-family="Times,serif" font-size="14.00" fill="#000000">broadcast</text>
</g>
<!-- Map 5&#45;&gt;Map 20 -->
<g id="edge20" class="edge">
<title>Map 5&#45;&gt;Map 20</title>
<path fill="none" stroke="#000000" d="M192.7169,-354.769C165.9452,-346.8846 133.3161,-332.5813 147.5602,-312 154.0026,-302.6913 177.7889,-293.7174 200.0263,-287.0576"/>
<polygon fill="#000000" stroke="#000000" points="201.0959,-290.3919 209.7355,-284.2595 199.1574,-283.6657 201.0959,-290.3919"/>
<text text-anchor="middle" x="175.0226" y="-314.8" font-family="Times,serif" font-size="14.00" fill="#000000">broadcast</text>
</g>
<!-- Map 18 -->
<g id="node7" class="node">
<title>Map 18</title>
<ellipse fill="none" stroke="#000000" cx="433.2018" cy="-276" rx="37.243" ry="18"/>
<text text-anchor="middle" x="433.2018" y="-271.8" font-family="Times,serif" font-size="14.00" fill="#000000">Map 18</text>
</g>
<!-- Map 5&#45;&gt;Map 18 -->
<g id="edge22" class="edge">
<title>Map 5&#45;&gt;Map 18</title>
<path fill="none" stroke="#000000" d="M254.7305,-356.7174C282.2029,-351.3507 322.6311,-341.5807 355.2018,-326 364.7802,-321.418 365.7276,-317.8928 374.5602,-312 382.9683,-306.3904 392.2242,-300.5563 400.849,-295.259"/>
<polygon fill="#000000" stroke="#000000" points="402.8244,-298.1541 409.5466,-289.9648 399.1848,-292.1747 402.8244,-298.1541"/>
<text text-anchor="middle" x="402.0226" y="-314.8" font-family="Times,serif" font-size="14.00" fill="#000000">broadcast</text>
</g>
<!-- Map 1 -->
<g id="node12" class="node">
<title>Map 1</title>
<ellipse fill="none" stroke="#000000" cx="331.2018" cy="-276" rx="32.8992" ry="18"/>
<text text-anchor="middle" x="331.2018" y="-271.8" font-family="Times,serif" font-size="14.00" fill="#000000">Map 1</text>
</g>
<!-- Map 5&#45;&gt;Map 1 -->
<g id="edge8" class="edge">
<title>Map 5&#45;&gt;Map 1</title>
<path fill="none" stroke="#000000" d="M218.8143,-344.051C217.3687,-333.6507 217.6104,-320.896 224.5602,-312 242.92,-288.4988 261.0689,-303.8958 289.2018,-294 291.475,-293.2004 293.8,-292.3372 296.1325,-291.4366"/>
<polygon fill="#000000" stroke="#000000" points="297.6892,-294.5826 305.6505,-287.5921 295.0675,-288.0921 297.6892,-294.5826"/>
<text text-anchor="middle" x="252.0226" y="-314.8" font-family="Times,serif" font-size="14.00" fill="#000000">broadcast</text>
</g>
<!-- Reducer 16 -->
<g id="node5" class="node">
<title>Reducer 16</title>
<ellipse fill="none" stroke="#000000" cx="223.2018" cy="-448" rx="50.7474" ry="18"/>
<text text-anchor="middle" x="223.2018" y="-443.8" font-family="Times,serif" font-size="14.00" fill="#000000">Reducer 16</text>
</g>
<!-- Reducer 16&#45;&gt;Map 5 -->
<g id="edge3" class="edge">
<title>Reducer 16&#45;&gt;Map 5</title>
<path fill="none" stroke="#000000" d="M223.2018,-429.7616C223.2018,-418.3597 223.2018,-403.4342 223.2018,-390.494"/>
<polygon fill="#000000" stroke="#000000" points="226.7019,-390.2121 223.2018,-380.2121 219.7019,-390.2121 226.7019,-390.2121"/>
<text text-anchor="middle" x="250.0226" y="-400.8" font-family="Times,serif" font-size="14.00" fill="#000000">broadcast</text>
</g>
<!-- Reducer 17 -->
<g id="node6" class="node">
<title>Reducer 17</title>
<ellipse fill="none" stroke="#000000" cx="342.2018" cy="-448" rx="50.7474" ry="18"/>
<text text-anchor="middle" x="342.2018" y="-443.8" font-family="Times,serif" font-size="14.00" fill="#000000">Reducer 17</text>
</g>
<!-- Reducer 17&#45;&gt;Map 5 -->
<g id="edge4" class="edge">
<title>Reducer 17&#45;&gt;Map 5</title>
<path fill="none" stroke="#000000" d="M322.9378,-431.1139C311.183,-421.0903 295.6789,-408.3585 281.2018,-398 272.8323,-392.0115 263.4673,-385.9436 254.7451,-380.5391"/>
<polygon fill="#000000" stroke="#000000" points="256.3168,-377.398 245.9571,-375.1783 252.6715,-383.374 256.3168,-377.398"/>
<text text-anchor="middle" x="326.0226" y="-400.8" font-family="Times,serif" font-size="14.00" fill="#000000">broadcast</text>
</g>
<!-- Reducer 19 -->
<g id="node8" class="node">
<title>Reducer 19</title>
<ellipse fill="none" stroke="#000000" cx="433.2018" cy="-190" rx="50.7474" ry="18"/>
<text text-anchor="middle" x="433.2018" y="-185.8" font-family="Times,serif" font-size="14.00" fill="#000000">Reducer 19</text>
</g>
<!-- Map 18&#45;&gt;Reducer 19 -->
<g id="edge5" class="edge">
<title>Map 18&#45;&gt;Reducer 19</title>
<path fill="none" stroke="#000000" d="M433.2018,-257.7616C433.2018,-246.3597 433.2018,-231.4342 433.2018,-218.494"/>
<polygon fill="#000000" stroke="#000000" points="436.7019,-218.2121 433.2018,-208.2121 429.7019,-218.2121 436.7019,-218.2121"/>
<text text-anchor="middle" x="450.3087" y="-228.8" font-family="Times,serif" font-size="14.00" fill="#000000">sorted</text>
</g>
<!-- Reducer 19&#45;&gt;Reducer 2 -->
<g id="edge27" class="edge">
<title>Reducer 19&#45;&gt;Reducer 2</title>
<path fill="none" stroke="#000000" d="M413.3424,-173.4183C397.5258,-160.2122 375.2084,-141.5783 357.6776,-126.9409"/>
<polygon fill="#000000" stroke="#000000" points="359.9196,-124.2533 350.0003,-120.5308 355.4332,-129.6266 359.9196,-124.2533"/>
<text text-anchor="middle" x="415.0226" y="-142.8" font-family="Times,serif" font-size="14.00" fill="#000000">broadcast</text>
</g>
<!-- Reducer 3 -->
<g id="node10" class="node">
<title>Reducer 3</title>
<ellipse fill="none" stroke="#000000" cx="330.2018" cy="-18" rx="46.4045" ry="18"/>
<text text-anchor="middle" x="330.2018" y="-13.8" font-family="Times,serif" font-size="14.00" fill="#000000">Reducer 3</text>
</g>
<!-- Reducer 2&#45;&gt;Reducer 3 -->
<g id="edge6" class="edge">
<title>Reducer 2&#45;&gt;Reducer 3</title>
<path fill="none" stroke="#000000" d="M330.2018,-85.7616C330.2018,-74.3597 330.2018,-59.4342 330.2018,-46.494"/>
<polygon fill="#000000" stroke="#000000" points="333.7019,-46.2121 330.2018,-36.2121 326.7019,-46.2121 333.7019,-46.2121"/>
<text text-anchor="middle" x="347.3087" y="-56.8" font-family="Times,serif" font-size="14.00" fill="#000000">sorted</text>
</g>
<!-- Map 4 -->
<g id="node11" class="node">
<title>Map 4</title>
<ellipse fill="none" stroke="#000000" cx="454.2018" cy="-362" rx="32.8992" ry="18"/>
<text text-anchor="middle" x="454.2018" y="-357.8" font-family="Times,serif" font-size="14.00" fill="#000000">Map 4</text>
</g>
<!-- Map 4&#45;&gt;Map 20 -->
<g id="edge19" class="edge">
<title>Map 4&#45;&gt;Map 20</title>
<path fill="none" stroke="#000000" d="M421.3042,-359.3867C388.3746,-355.6667 337.0619,-346.8056 297.5602,-326 290.5804,-322.3237 277.7521,-310.6302 266.31,-299.4757"/>
<polygon fill="#000000" stroke="#000000" points="268.6381,-296.8556 259.0665,-292.3131 263.7163,-301.8331 268.6381,-296.8556"/>
<text text-anchor="middle" x="325.0226" y="-314.8" font-family="Times,serif" font-size="14.00" fill="#000000">broadcast</text>
</g>
<!-- Map 4&#45;&gt;Map 18 -->
<g id="edge21" class="edge">
<title>Map 4&#45;&gt;Map 18</title>
<path fill="none" stroke="#000000" d="M481.1408,-351.2435C499.7051,-342.1366 519.3459,-328.0296 509.2018,-312 501.8605,-300.3993 489.6587,-292.4637 477.1573,-287.0659"/>
<polygon fill="#000000" stroke="#000000" points="478.2051,-283.7194 467.6147,-283.4142 475.7033,-290.2571 478.2051,-283.7194"/>
<text text-anchor="middle" x="538.0226" y="-314.8" font-family="Times,serif" font-size="14.00" fill="#000000">broadcast</text>
</g>
<!-- Map 4&#45;&gt;Map 1 -->
<g id="edge7" class="edge">
<title>Map 4&#45;&gt;Map 1</title>
<path fill="none" stroke="#000000" d="M450.0195,-343.689C446.7603,-333.1603 441.2282,-320.3978 432.2018,-312 429.6873,-309.6606 396.4985,-298.0519 368.842,-288.64"/>
<polygon fill="#000000" stroke="#000000" points="369.944,-285.318 359.3496,-285.4213 367.6961,-291.9472 369.944,-285.318"/>
<text text-anchor="middle" x="469.0226" y="-314.8" font-family="Times,serif" font-size="14.00" fill="#000000">broadcast</text>
</g>
<!-- Map 1&#45;&gt;Reducer 2 -->
<g id="edge26" class="edge">
<title>Map 1&#45;&gt;Reducer 2</title>
<path fill="none" stroke="#000000" d="M331.0967,-257.9181C330.9226,-227.981 330.5733,-167.8972 330.3663,-132.2989"/>
<polygon fill="#000000" stroke="#000000" points="333.8652,-132.0772 330.307,-122.0977 326.8653,-132.118 333.8652,-132.0772"/>
<text text-anchor="middle" x="348.3087" y="-185.8" font-family="Times,serif" font-size="14.00" fill="#000000">sorted</text>
</g>
<!-- Map 14 -->
<g id="node13" class="node">
<title>Map 14</title>
<ellipse fill="none" stroke="#000000" cx="223.2018" cy="-534" rx="37.243" ry="18"/>
<text text-anchor="middle" x="223.2018" y="-529.8" font-family="Times,serif" font-size="14.00" fill="#000000">Map 14</text>
</g>
<!-- Map 14&#45;&gt;Reducer 15 -->
<g id="edge9" class="edge">
<title>Map 14&#45;&gt;Reducer 15</title>
<path fill="none" stroke="#000000" d="M202.4736,-519.0199C183.8621,-505.5696 156.2861,-485.6408 135.0788,-470.3145"/>
<polygon fill="#000000" stroke="#000000" points="136.8711,-467.2914 126.7159,-464.2707 132.7709,-472.9649 136.8711,-467.2914"/>
<text text-anchor="middle" x="188.3087" y="-486.8" font-family="Times,serif" font-size="14.00" fill="#000000">sorted</text>
</g>
<!-- Map 14&#45;&gt;Reducer 16 -->
<g id="edge12" class="edge">
<title>Map 14&#45;&gt;Reducer 16</title>
<path fill="none" stroke="#000000" d="M223.2018,-515.7616C223.2018,-504.3597 223.2018,-489.4342 223.2018,-476.494"/>
<polygon fill="#000000" stroke="#000000" points="226.7019,-476.2121 223.2018,-466.2121 219.7019,-476.2121 226.7019,-476.2121"/>
<text text-anchor="middle" x="240.3087" y="-486.8" font-family="Times,serif" font-size="14.00" fill="#000000">sorted</text>
</g>
<!-- Map 14&#45;&gt;Reducer 17 -->
<g id="edge11" class="edge">
<title>Map 14&#45;&gt;Reducer 17</title>
<path fill="none" stroke="#000000" d="M243.93,-519.0199C262.5415,-505.5696 290.1175,-485.6408 311.3248,-470.3145"/>
<polygon fill="#000000" stroke="#000000" points="313.6328,-472.9649 319.6877,-464.2707 309.5326,-467.2914 313.6328,-472.9649"/>
<text text-anchor="middle" x="307.3087" y="-486.8" font-family="Times,serif" font-size="14.00" fill="#000000">sorted</text>
</g>
<!-- Map 6 -->
<g id="node14" class="node">
<title>Map 6</title>
<ellipse fill="none" stroke="#000000" cx="161.2018" cy="-792" rx="32.8992" ry="18"/>
<text text-anchor="middle" x="161.2018" y="-787.8" font-family="Times,serif" font-size="14.00" fill="#000000">Map 6</text>
</g>
<!-- Reducer 9 -->
<g id="node15" class="node">
<title>Reducer 9</title>
<ellipse fill="none" stroke="#000000" cx="46.2018" cy="-706" rx="46.4045" ry="18"/>
<text text-anchor="middle" x="46.2018" y="-701.8" font-family="Times,serif" font-size="14.00" fill="#000000">Reducer 9</text>
</g>
<!-- Map 6&#45;&gt;Reducer 9 -->
<g id="edge10" class="edge">
<title>Map 6&#45;&gt;Reducer 9</title>
<path fill="none" stroke="#000000" d="M141.6936,-777.4113C123.6705,-763.9331 96.6337,-743.7143 75.9243,-728.2273"/>
<polygon fill="#000000" stroke="#000000" points="77.8694,-725.3114 67.7649,-722.1255 73.6772,-730.9173 77.8694,-725.3114"/>
<text text-anchor="middle" x="128.3087" y="-744.8" font-family="Times,serif" font-size="14.00" fill="#000000">sorted</text>
</g>
<!-- Reducer 11 -->
<g id="node16" class="node">
<title>Reducer 11</title>
<ellipse fill="none" stroke="#000000" cx="161.2018" cy="-706" rx="50.1002" ry="18"/>
<text text-anchor="middle" x="161.2018" y="-701.8" font-family="Times,serif" font-size="14.00" fill="#000000">Reducer 11</text>
</g>
<!-- Map 6&#45;&gt;Reducer 11 -->
<g id="edge13" class="edge">
<title>Map 6&#45;&gt;Reducer 11</title>
<path fill="none" stroke="#000000" d="M161.2018,-773.7616C161.2018,-762.3597 161.2018,-747.4342 161.2018,-734.494"/>
<polygon fill="#000000" stroke="#000000" points="164.7019,-734.2121 161.2018,-724.2121 157.7019,-734.2121 164.7019,-734.2121"/>
<text text-anchor="middle" x="178.3087" y="-744.8" font-family="Times,serif" font-size="14.00" fill="#000000">sorted</text>
</g>
<!-- Reducer 7 -->
<g id="node20" class="node">
<title>Reducer 7</title>
<ellipse fill="none" stroke="#000000" cx="371.2018" cy="-706" rx="46.4045" ry="18"/>
<text text-anchor="middle" x="371.2018" y="-701.8" font-family="Times,serif" font-size="14.00" fill="#000000">Reducer 7</text>
</g>
<!-- Map 6&#45;&gt;Reducer 7 -->
<g id="edge18" class="edge">
<title>Map 6&#45;&gt;Reducer 7</title>
<path fill="none" stroke="#000000" d="M187.7985,-781.108C223.6355,-766.4319 287.7824,-740.1622 329.9176,-722.9069"/>
<polygon fill="#000000" stroke="#000000" points="331.4118,-726.0772 339.3394,-719.0484 328.7589,-719.5993 331.4118,-726.0772"/>
<text text-anchor="middle" x="296.3087" y="-744.8" font-family="Times,serif" font-size="14.00" fill="#000000">sorted</text>
</g>
<!-- Reducer 10 -->
<g id="node18" class="node">
<title>Reducer 10</title>
<ellipse fill="none" stroke="#000000" cx="104.2018" cy="-620" rx="50.7474" ry="18"/>
<text text-anchor="middle" x="104.2018" y="-615.8" font-family="Times,serif" font-size="14.00" fill="#000000">Reducer 10</text>
</g>
<!-- Reducer 9&#45;&gt;Reducer 10 -->
<g id="edge15" class="edge">
<title>Reducer 9&#45;&gt;Reducer 10</title>
<path fill="none" stroke="#000000" d="M58.2194,-688.1807C66.385,-676.0732 77.3241,-659.8531 86.4841,-646.2711"/>
<polygon fill="#000000" stroke="#000000" points="89.5099,-648.0442 92.1996,-637.7964 83.7063,-644.1302 89.5099,-648.0442"/>
<text text-anchor="middle" x="94.3639" y="-658.8" font-family="Times,serif" font-size="14.00" fill="#000000">None</text>
</g>
<!-- Reducer 12 -->
<g id="node19" class="node">
<title>Reducer 12</title>
<ellipse fill="none" stroke="#000000" cx="223.2018" cy="-620" rx="50.7474" ry="18"/>
<text text-anchor="middle" x="223.2018" y="-615.8" font-family="Times,serif" font-size="14.00" fill="#000000">Reducer 12</text>
</g>
<!-- Reducer 11&#45;&gt;Reducer 12 -->
<g id="edge17" class="edge">
<title>Reducer 11&#45;&gt;Reducer 12</title>
<path fill="none" stroke="#000000" d="M156.8058,-687.7426C155.4028,-677.7334 155.4097,-665.4729 160.8776,-656 165.0062,-648.8473 171.1573,-642.9883 178.0114,-638.2318"/>
<polygon fill="#000000" stroke="#000000" points="180.2454,-640.9695 186.9697,-632.7821 176.6073,-634.9892 180.2454,-640.9695"/>
<text text-anchor="middle" x="176.3639" y="-658.8" font-family="Times,serif" font-size="14.00" fill="#000000">None</text>
</g>
<!-- Map 13 -->
<g id="node17" class="node">
<title>Map 13</title>
<ellipse fill="none" stroke="#000000" cx="267.2018" cy="-706" rx="37.243" ry="18"/>
<text text-anchor="middle" x="267.2018" y="-701.8" font-family="Times,serif" font-size="14.00" fill="#000000">Map 13</text>
</g>
<!-- Map 13&#45;&gt;Reducer 10 -->
<g id="edge14" class="edge">
<title>Map 13&#45;&gt;Reducer 10</title>
<path fill="none" stroke="#000000" d="M243.77,-691.89C233.2743,-685.4158 220.8226,-677.5203 209.8776,-670 201.3277,-664.1254 200.2155,-661.1347 191.2018,-656 178.401,-648.7081 163.8305,-642.0885 150.3229,-636.5718"/>
<polygon fill="#000000" stroke="#000000" points="151.3014,-633.1945 140.7156,-632.7558 148.7173,-639.7001 151.3014,-633.1945"/>
<text text-anchor="middle" x="225.3639" y="-658.8" font-family="Times,serif" font-size="14.00" fill="#000000">None</text>
</g>
<!-- Map 13&#45;&gt;Reducer 12 -->
<g id="edge16" class="edge">
<title>Map 13&#45;&gt;Reducer 12</title>
<path fill="none" stroke="#000000" d="M259.5235,-688.2124C255.236,-678.5708 249.6689,-666.5114 244.2018,-656 242.5836,-652.8886 240.8253,-649.665 239.0381,-646.4831"/>
<polygon fill="#000000" stroke="#000000" points="242.0369,-644.6769 234.0166,-637.7541 235.9693,-648.1674 242.0369,-644.6769"/>
<text text-anchor="middle" x="266.3639" y="-658.8" font-family="Times,serif" font-size="14.00" fill="#000000">None</text>
</g>
<!-- Reducer 8 -->
<g id="node21" class="node">
<title>Reducer 8</title>
<ellipse fill="none" stroke="#000000" cx="338.2018" cy="-620" rx="46.4045" ry="18"/>
<text text-anchor="middle" x="338.2018" y="-615.8" font-family="Times,serif" font-size="14.00" fill="#000000">Reducer 8</text>
</g>
<!-- Map 13&#45;&gt;Reducer 8 -->
<g id="edge29" class="edge">
<title>Map 13&#45;&gt;Reducer 8</title>
<path fill="none" stroke="#000000" d="M281.2291,-689.0092C291.5667,-676.4876 305.7955,-659.2527 317.4471,-645.1396"/>
<polygon fill="#000000" stroke="#000000" points="320.2931,-647.1897 323.9606,-637.2499 314.895,-642.7332 320.2931,-647.1897"/>
<text text-anchor="middle" x="322.3639" y="-658.8" font-family="Times,serif" font-size="14.00" fill="#000000">None</text>
</g>
<!-- Reducer 10&#45;&gt;Map 14 -->
<g id="edge23" class="edge">
<title>Reducer 10&#45;&gt;Map 14</title>
<path fill="none" stroke="#000000" d="M123.6035,-603.1399C135.436,-593.1255 151.0317,-580.3943 165.5602,-570 173.4527,-564.3534 182.2237,-558.6191 190.4941,-553.4362"/>
<polygon fill="#000000" stroke="#000000" points="192.5352,-556.2895 199.2067,-548.0589 188.8587,-550.3327 192.5352,-556.2895"/>
<text text-anchor="middle" x="193.0226" y="-572.8" font-family="Times,serif" font-size="14.00" fill="#000000">broadcast</text>
</g>
<!-- Reducer 12&#45;&gt;Map 14 -->
<g id="edge24" class="edge">
<title>Reducer 12&#45;&gt;Map 14</title>
<path fill="none" stroke="#000000" d="M223.2018,-601.7616C223.2018,-590.3597 223.2018,-575.4342 223.2018,-562.494"/>
<polygon fill="#000000" stroke="#000000" points="226.7019,-562.2121 223.2018,-552.2121 219.7019,-562.2121 226.7019,-562.2121"/>
<text text-anchor="middle" x="250.0226" y="-572.8" font-family="Times,serif" font-size="14.00" fill="#000000">broadcast</text>
</g>
<!-- Reducer 7&#45;&gt;Reducer 8 -->
<g id="edge30" class="edge">
<title>Reducer 7&#45;&gt;Reducer 8</title>
<path fill="none" stroke="#000000" d="M364.3642,-688.1807C359.8811,-676.4975 353.9286,-660.985 348.8342,-647.7086"/>
<polygon fill="#000000" stroke="#000000" points="351.9945,-646.1747 345.1442,-638.0923 345.4591,-648.6825 351.9945,-646.1747"/>
<text text-anchor="middle" x="372.3639" y="-658.8" font-family="Times,serif" font-size="14.00" fill="#000000">None</text>
</g>
<!-- Reducer 8&#45;&gt;Map 14 -->
<g id="edge25" class="edge">
<title>Reducer 8&#45;&gt;Map 14</title>
<path fill="none" stroke="#000000" d="M320.613,-603.2226C309.6573,-593.1197 295.0562,-580.2675 281.2018,-570 273.3703,-564.196 264.5839,-558.4054 256.2648,-553.2187"/>
<polygon fill="#000000" stroke="#000000" points="257.8463,-550.0833 247.4883,-547.8555 254.1962,-556.0564 257.8463,-550.0833"/>
<text text-anchor="middle" x="325.0226" y="-572.8" font-family="Times,serif" font-size="14.00" fill="#000000">broadcast</text>
</g>
</g>
</svg>
