<?xml version="1.0" encoding="UTF-8" standalone="no"?>
<!DOCTYPE svg PUBLIC "-//W3C//DTD SVG 1.1//EN"
 "http://www.w3.org/Graphics/SVG/1.1/DTD/svg11.dtd">
<!-- Generated by graphviz version 2.40.1 (20161225.0304)
 -->
<!-- Title: %3 Pages: 1 -->
<svg width="712pt" height="216pt"
 viewBox="0.00 0.00 712.32 216.00" xmlns="http://www.w3.org/2000/svg" xmlns:xlink="http://www.w3.org/1999/xlink">
<g id="graph0" class="graph" transform="scale(1 1) rotate(0) translate(4 212)">
<title>%3</title>
<polygon fill="#ffffff" stroke="transparent" points="-4,4 -4,-212 708.3209,-212 708.3209,4 -4,4"/>
<!-- Map 8 -->
<g id="node1" class="node">
<title>Map 8</title>
<ellipse fill="none" stroke="#000000" cx="116.9496" cy="-190" rx="32.8992" ry="18"/>
<text text-anchor="middle" x="116.9496" y="-185.8" font-family="Times,serif" font-size="14.00" fill="#000000">Map 8</text>
</g>
<!-- Map 7 -->
<g id="node2" class="node">
<title>Map 7</title>
<ellipse fill="none" stroke="#000000" cx="116.9496" cy="-104" rx="32.8992" ry="18"/>
<text text-anchor="middle" x="116.9496" y="-99.8" font-family="Times,serif" font-size="14.00" fill="#000000">Map 7</text>
</g>
<!-- Map 8&#45;&gt;Map 7 -->
<g id="edge1" class="edge">
<title>Map 8&#45;&gt;Map 7</title>
<path fill="none" stroke="#000000" d="M116.9496,-171.7616C116.9496,-160.3597 116.9496,-145.4342 116.9496,-132.494"/>
<polygon fill="#000000" stroke="#000000" points="120.4497,-132.2121 116.9496,-122.2121 113.4497,-132.2121 120.4497,-132.2121"/>
<text text-anchor="middle" x="143.7704" y="-142.8" font-family="Times,serif" font-size="14.00" fill="#000000">broadcast</text>
</g>
<!-- Map 9 -->
<g id="node3" class="node">
<title>Map 9</title>
<ellipse fill="none" stroke="#000000" cx="32.9496" cy="-190" rx="32.8992" ry="18"/>
<text text-anchor="middle" x="32.9496" y="-185.8" font-family="Times,serif" font-size="14.00" fill="#000000">Map 9</text>
</g>
<!-- Map 9&#45;&gt;Map 7 -->
<g id="edge2" class="edge">
<title>Map 9&#45;&gt;Map 7</title>
<path fill="none" stroke="#000000" d="M39.7155,-171.9003C44.1674,-161.7004 50.757,-149.2004 59.308,-140 66.104,-132.6878 74.7043,-126.2767 83.1737,-120.9697"/>
<polygon fill="#000000" stroke="#000000" points="85.0306,-123.938 91.8713,-115.8474 81.4784,-117.9062 85.0306,-123.938"/>
<text text-anchor="middle" x="86.7704" y="-142.8" font-family="Times,serif" font-size="14.00" fill="#000000">broadcast</text>
</g>
<!-- Union 3 -->
<g id="node4" class="node">
<title>Union 3</title>
<ellipse fill="none" stroke="#000000" cx="256.9496" cy="-190" rx="38.6968" ry="18"/>
<text text-anchor="middle" x="256.9496" y="-185.8" font-family="Times,serif" font-size="14.00" fill="#000000">Union 3</text>
</g>
<!-- Union 3&#45;&gt;Map 7 -->
<g id="edge3" class="edge">
<title>Union 3&#45;&gt;Map 7</title>
<path fill="none" stroke="#000000" d="M233.5167,-175.6055C209.9814,-161.1481 173.5927,-138.7951 147.7386,-122.9133"/>
<polygon fill="#000000" stroke="#000000" points="149.4242,-119.8411 139.0714,-117.5891 145.7602,-125.8056 149.4242,-119.8411"/>
<text text-anchor="middle" x="211.1117" y="-142.8" font-family="Times,serif" font-size="14.00" fill="#000000">None</text>
</g>
<!-- Reducer 4 -->
<g id="node5" class="node">
<title>Reducer 4</title>
<ellipse fill="none" stroke="#000000" cx="246.9496" cy="-104" rx="46.4045" ry="18"/>
<text text-anchor="middle" x="246.9496" y="-99.8" font-family="Times,serif" font-size="14.00" fill="#000000">Reducer 4</text>
</g>
<!-- Union 3&#45;&gt;Reducer 4 -->
<g id="edge4" class="edge">
<title>Union 3&#45;&gt;Reducer 4</title>
<path fill="none" stroke="#000000" d="M251.4204,-171.8494C249.9352,-166.1868 248.5236,-159.8828 247.7357,-154 246.802,-147.0288 246.3806,-139.4623 246.2406,-132.3755"/>
<polygon fill="#000000" stroke="#000000" points="249.7401,-132.1187 246.2146,-122.1277 242.7401,-132.1366 249.7401,-132.1187"/>
<text text-anchor="middle" x="265.0565" y="-142.8" font-family="Times,serif" font-size="14.00" fill="#000000">sorted</text>
</g>
<!-- Map 2 -->
<g id="node8" class="node">
<title>Map 2</title>
<ellipse fill="none" stroke="#000000" cx="356.9496" cy="-104" rx="32.8992" ry="18"/>
<text text-anchor="middle" x="356.9496" y="-99.8" font-family="Times,serif" font-size="14.00" fill="#000000">Map 2</text>
</g>
<!-- Union 3&#45;&gt;Map 2 -->
<g id="edge8" class="edge">
<title>Union 3&#45;&gt;Map 2</title>
<path fill="none" stroke="#000000" d="M275.7588,-173.8241C291.4148,-160.3599 313.8638,-141.0537 331.1899,-126.1533"/>
<polygon fill="#000000" stroke="#000000" points="333.932,-128.4114 339.2317,-119.2373 329.3677,-123.1041 333.932,-128.4114"/>
<text text-anchor="middle" x="328.1117" y="-142.8" font-family="Times,serif" font-size="14.00" fill="#000000">None</text>
</g>
<!-- Map 10 -->
<g id="node11" class="node">
<title>Map 10</title>
<ellipse fill="none" stroke="#000000" cx="574.9496" cy="-104" rx="37.243" ry="18"/>
<text text-anchor="middle" x="574.9496" y="-99.8" font-family="Times,serif" font-size="14.00" fill="#000000">Map 10</text>
</g>
<!-- Union 3&#45;&gt;Map 10 -->
<g id="edge11" class="edge">
<title>Union 3&#45;&gt;Map 10</title>
<path fill="none" stroke="#000000" d="M288.6701,-179.4187C297.1516,-176.7922 306.3518,-174.1241 314.9496,-172 357.5169,-161.4838 371.7957,-171.6134 411.9496,-154 421.4494,-149.8329 421.2569,-144.4547 430.6253,-140 461.814,-125.1697 499.8024,-116.0097 528.9751,-110.6428"/>
<polygon fill="#000000" stroke="#000000" points="529.6568,-114.0768 538.9006,-108.8996 528.4459,-107.1823 529.6568,-114.0768"/>
<text text-anchor="middle" x="445.1117" y="-142.8" font-family="Times,serif" font-size="14.00" fill="#000000">None</text>
</g>
<!-- Reducer 5 -->
<g id="node6" class="node">
<title>Reducer 5</title>
<ellipse fill="none" stroke="#000000" cx="246.9496" cy="-18" rx="46.4045" ry="18"/>
<text text-anchor="middle" x="246.9496" y="-13.8" font-family="Times,serif" font-size="14.00" fill="#000000">Reducer 5</text>
</g>
<!-- Reducer 4&#45;&gt;Reducer 5 -->
<g id="edge5" class="edge">
<title>Reducer 4&#45;&gt;Reducer 5</title>
<path fill="none" stroke="#000000" d="M246.9496,-85.7616C246.9496,-74.3597 246.9496,-59.4342 246.9496,-46.494"/>
<polygon fill="#000000" stroke="#000000" points="250.4497,-46.2121 246.9496,-36.2121 243.4497,-46.2121 250.4497,-46.2121"/>
<text text-anchor="middle" x="264.0565" y="-56.8" font-family="Times,serif" font-size="14.00" fill="#000000">sorted</text>
</g>
<!-- Map 1 -->
<g id="node7" class="node">
<title>Map 1</title>
<ellipse fill="none" stroke="#000000" cx="356.9496" cy="-190" rx="32.8992" ry="18"/>
<text text-anchor="middle" x="356.9496" y="-185.8" font-family="Times,serif" font-size="14.00" fill="#000000">Map 1</text>
</g>
<!-- Map 1&#45;&gt;Map 2 -->
<g id="edge6" class="edge">
<title>Map 1&#45;&gt;Map 2</title>
<path fill="none" stroke="#000000" d="M356.9496,-171.7616C356.9496,-160.3597 356.9496,-145.4342 356.9496,-132.494"/>
<polygon fill="#000000" stroke="#000000" points="360.4497,-132.2121 356.9496,-122.2121 353.4497,-132.2121 360.4497,-132.2121"/>
<text text-anchor="middle" x="383.7704" y="-142.8" font-family="Times,serif" font-size="14.00" fill="#000000">broadcast</text>
</g>
<!-- Map 6 -->
<g id="node9" class="node">
<title>Map 6</title>
<ellipse fill="none" stroke="#000000" cx="486.9496" cy="-190" rx="32.8992" ry="18"/>
<text text-anchor="middle" x="486.9496" y="-185.8" font-family="Times,serif" font-size="14.00" fill="#000000">Map 6</text>
</g>
<!-- Map 6&#45;&gt;Map 2 -->
<g id="edge7" class="edge">
<title>Map 6&#45;&gt;Map 2</title>
<path fill="none" stroke="#000000" d="M482.9776,-172.1064C479.7623,-161.4619 474.2023,-148.432 464.9496,-140 446.9157,-123.5659 421.1603,-114.6101 399.3239,-109.7419"/>
<polygon fill="#000000" stroke="#000000" points="399.7842,-106.2645 389.2903,-107.723 398.4034,-113.1269 399.7842,-106.2645"/>
<text text-anchor="middle" x="500.7704" y="-142.8" font-family="Times,serif" font-size="14.00" fill="#000000">broadcast</text>
</g>
<!-- Map 11 -->
<g id="node10" class="node">
<title>Map 11</title>
<ellipse fill="none" stroke="#000000" cx="574.9496" cy="-190" rx="37.0949" ry="18"/>
<text text-anchor="middle" x="574.9496" y="-185.8" font-family="Times,serif" font-size="14.00" fill="#000000">Map 11</text>
</g>
<!-- Map 11&#45;&gt;Map 10 -->
<g id="edge9" class="edge">
<title>Map 11&#45;&gt;Map 10</title>
<path fill="none" stroke="#000000" d="M574.9496,-171.7616C574.9496,-160.3597 574.9496,-145.4342 574.9496,-132.494"/>
<polygon fill="#000000" stroke="#000000" points="578.4497,-132.2121 574.9496,-122.2121 571.4497,-132.2121 578.4497,-132.2121"/>
<text text-anchor="middle" x="601.7704" y="-142.8" font-family="Times,serif" font-size="14.00" fill="#000000">broadcast</text>
</g>
<!-- Map 12 -->
<g id="node12" class="node">
<title>Map 12</title>
<ellipse fill="none" stroke="#000000" cx="666.9496" cy="-190" rx="37.243" ry="18"/>
<text text-anchor="middle" x="666.9496" y="-185.8" font-family="Times,serif" font-size="14.00" fill="#000000">Map 12</text>
</g>
<!-- Map 12&#45;&gt;Map 10 -->
<g id="edge10" class="edge">
<title>Map 12&#45;&gt;Map 10</title>
<path fill="none" stroke="#000000" d="M657.5054,-172.451C651.412,-162.1925 642.7982,-149.4464 632.9496,-140 626.1031,-133.4331 617.8675,-127.4532 609.7808,-122.3353"/>
<polygon fill="#000000" stroke="#000000" points="611.51,-119.291 601.1372,-117.133 607.9003,-125.2885 611.51,-119.291"/>
<text text-anchor="middle" x="671.7704" y="-142.8" font-family="Times,serif" font-size="14.00" fill="#000000">broadcast</text>
</g>
</g>
</svg>
