<?xml version="1.0" encoding="UTF-8" standalone="no"?>
<!DOCTYPE svg PUBLIC "-//W3C//DTD SVG 1.1//EN"
 "http://www.w3.org/Graphics/SVG/1.1/DTD/svg11.dtd">
<!-- Generated by graphviz version 2.40.1 (20161225.0304)
 -->
<!-- Title: %3 Pages: 1 -->
<svg width="526pt" height="302pt"
 viewBox="0.00 0.00 526.15 302.00" xmlns="http://www.w3.org/2000/svg" xmlns:xlink="http://www.w3.org/1999/xlink">
<g id="graph0" class="graph" transform="scale(1 1) rotate(0) translate(4 298)">
<title>%3</title>
<polygon fill="#ffffff" stroke="transparent" points="-4,4 -4,-298 522.1514,-298 522.1514,4 -4,4"/>
<!-- Map 3 -->
<g id="node1" class="node">
<title>Map 3</title>
<ellipse fill="none" stroke="#000000" cx="242.9496" cy="-104" rx="32.8992" ry="18"/>
<text text-anchor="middle" x="242.9496" y="-99.8" font-family="Times,serif" font-size="14.00" fill="#000000">Map 3</text>
</g>
<!-- Reducer 4 -->
<g id="node2" class="node">
<title>Reducer 4</title>
<ellipse fill="none" stroke="#000000" cx="242.9496" cy="-18" rx="46.4045" ry="18"/>
<text text-anchor="middle" x="242.9496" y="-13.8" font-family="Times,serif" font-size="14.00" fill="#000000">Reducer 4</text>
</g>
<!-- Map 3&#45;&gt;Reducer 4 -->
<g id="edge1" class="edge">
<title>Map 3&#45;&gt;Reducer 4</title>
<path fill="none" stroke="#000000" d="M242.9496,-85.7616C242.9496,-74.3597 242.9496,-59.4342 242.9496,-46.494"/>
<polygon fill="#000000" stroke="#000000" points="246.4497,-46.2121 242.9496,-36.2121 239.4497,-46.2121 246.4497,-46.2121"/>
<text text-anchor="middle" x="260.0565" y="-56.8" font-family="Times,serif" font-size="14.00" fill="#000000">sorted</text>
</g>
<!-- Map 1 -->
<g id="node3" class="node">
<title>Map 1</title>
<ellipse fill="none" stroke="#000000" cx="32.9496" cy="-190" rx="32.8992" ry="18"/>
<text text-anchor="middle" x="32.9496" y="-185.8" font-family="Times,serif" font-size="14.00" fill="#000000">Map 1</text>
</g>
<!-- Map 1&#45;&gt;Map 3 -->
<g id="edge2" class="edge">
<title>Map 1&#45;&gt;Map 3</title>
<path fill="none" stroke="#000000" d="M44.4116,-172.6038C52.5732,-161.5966 64.5124,-147.9843 78.308,-140 98.8367,-128.1189 159.401,-116.8473 201.0554,-110.1787"/>
<polygon fill="#000000" stroke="#000000" points="201.6049,-113.6354 210.9402,-108.6254 200.5181,-106.7203 201.6049,-113.6354"/>
<text text-anchor="middle" x="105.7704" y="-142.8" font-family="Times,serif" font-size="14.00" fill="#000000">broadcast</text>
</g>
<!-- Map 2 -->
<g id="node4" class="node">
<title>Map 2</title>
<ellipse fill="none" stroke="#000000" cx="116.9496" cy="-190" rx="32.8992" ry="18"/>
<text text-anchor="middle" x="116.9496" y="-185.8" font-family="Times,serif" font-size="14.00" fill="#000000">Map 2</text>
</g>
<!-- Map 2&#45;&gt;Map 3 -->
<g id="edge3" class="edge">
<title>Map 2&#45;&gt;Map 3</title>
<path fill="none" stroke="#000000" d="M124.156,-172.196C129.2423,-161.5853 136.9913,-148.5593 147.308,-140 162.9762,-127.0008 183.8146,-118.422 202.04,-112.9126"/>
<polygon fill="#000000" stroke="#000000" points="203.1654,-116.232 211.847,-110.159 201.2731,-109.4926 203.1654,-116.232"/>
<text text-anchor="middle" x="174.7704" y="-142.8" font-family="Times,serif" font-size="14.00" fill="#000000">broadcast</text>
</g>
<!-- Map 5 -->
<g id="node5" class="node">
<title>Map 5</title>
<ellipse fill="none" stroke="#000000" cx="200.9496" cy="-190" rx="32.8992" ry="18"/>
<text text-anchor="middle" x="200.9496" y="-185.8" font-family="Times,serif" font-size="14.00" fill="#000000">Map 5</text>
</g>
<!-- Map 5&#45;&gt;Map 3 -->
<g id="edge4" class="edge">
<title>Map 5&#45;&gt;Map 3</title>
<path fill="none" stroke="#000000" d="M201.4712,-171.6336C202.3648,-161.8224 204.4768,-149.7857 209.308,-140 211.6156,-135.3259 214.7308,-130.8372 218.1383,-126.7104"/>
<polygon fill="#000000" stroke="#000000" points="220.7711,-129.0176 224.916,-119.2671 215.5954,-124.3046 220.7711,-129.0176"/>
<text text-anchor="middle" x="236.7704" y="-142.8" font-family="Times,serif" font-size="14.00" fill="#000000">broadcast</text>
</g>
<!-- Map 6 -->
<g id="node6" class="node">
<title>Map 6</title>
<ellipse fill="none" stroke="#000000" cx="284.9496" cy="-190" rx="32.8992" ry="18"/>
<text text-anchor="middle" x="284.9496" y="-185.8" font-family="Times,serif" font-size="14.00" fill="#000000">Map 6</text>
</g>
<!-- Map 6&#45;&gt;Map 3 -->
<g id="edge5" class="edge">
<title>Map 6&#45;&gt;Map 3</title>
<path fill="none" stroke="#000000" d="M277.6049,-172.2298C273.5038,-162.5933 268.1787,-150.5332 262.9496,-140 261.3758,-136.83 259.6629,-133.54 257.9235,-130.2948"/>
<polygon fill="#000000" stroke="#000000" points="260.9242,-128.4876 253.0448,-121.4049 254.7876,-131.8554 260.9242,-128.4876"/>
<text text-anchor="middle" x="296.7704" y="-142.8" font-family="Times,serif" font-size="14.00" fill="#000000">broadcast</text>
</g>
<!-- Map 7 -->
<g id="node7" class="node">
<title>Map 7</title>
<ellipse fill="none" stroke="#000000" cx="369.9496" cy="-276" rx="32.8992" ry="18"/>
<text text-anchor="middle" x="369.9496" y="-271.8" font-family="Times,serif" font-size="14.00" fill="#000000">Map 7</text>
</g>
<!-- Map 7&#45;&gt;Map 3 -->
<g id="edge6" class="edge">
<title>Map 7&#45;&gt;Map 3</title>
<path fill="none" stroke="#000000" d="M369.086,-257.7833C366.7952,-229.2336 358.4355,-173.7348 327.9496,-140 316.2929,-127.1011 299.2515,-118.6696 283.4824,-113.2357"/>
<polygon fill="#000000" stroke="#000000" points="284.4769,-109.8795 273.8878,-110.2265 282.3821,-116.5587 284.4769,-109.8795"/>
<text text-anchor="middle" x="387.7704" y="-185.8" font-family="Times,serif" font-size="14.00" fill="#000000">broadcast</text>
</g>
<!-- Reducer 8 -->
<g id="node8" class="node">
<title>Reducer 8</title>
<ellipse fill="none" stroke="#000000" cx="471.9496" cy="-190" rx="46.4045" ry="18"/>
<text text-anchor="middle" x="471.9496" y="-185.8" font-family="Times,serif" font-size="14.00" fill="#000000">Reducer 8</text>
</g>
<!-- Map 7&#45;&gt;Reducer 8 -->
<g id="edge8" class="edge">
<title>Map 7&#45;&gt;Reducer 8</title>
<path fill="none" stroke="#000000" d="M388.1851,-260.6249C403.8878,-247.3854 426.7767,-228.0869 444.6613,-213.0077"/>
<polygon fill="#000000" stroke="#000000" points="447.0935,-215.5351 452.4827,-206.4132 442.5813,-210.1834 447.0935,-215.5351"/>
<text text-anchor="middle" x="452.0565" y="-228.8" font-family="Times,serif" font-size="14.00" fill="#000000">unsorted</text>
</g>
<!-- Reducer 8&#45;&gt;Map 3 -->
<g id="edge7" class="edge">
<title>Reducer 8&#45;&gt;Map 3</title>
<path fill="none" stroke="#000000" d="M444.695,-175.3404C424.032,-164.612 394.7181,-150.2067 367.9496,-140 340.1301,-129.3926 307.8127,-120.163 283.0081,-113.7052"/>
<polygon fill="#000000" stroke="#000000" points="283.7705,-110.2876 273.2148,-111.1975 282.034,-117.0688 283.7705,-110.2876"/>
<text text-anchor="middle" x="427.7704" y="-142.8" font-family="Times,serif" font-size="14.00" fill="#000000">broadcast</text>
</g>
</g>
</svg>
