<?xml version="1.0" encoding="UTF-8" standalone="no"?>
<!DOCTYPE svg PUBLIC "-//W3C//DTD SVG 1.1//EN"
 "http://www.w3.org/Graphics/SVG/1.1/DTD/svg11.dtd">
<!-- Generated by graphviz version 2.40.1 (20161225.0304)
 -->
<!-- Title: %3 Pages: 1 -->
<svg width="643pt" height="474pt"
 viewBox="0.00 0.00 642.90 474.00" xmlns="http://www.w3.org/2000/svg" xmlns:xlink="http://www.w3.org/1999/xlink">
<g id="graph0" class="graph" transform="scale(1 1) rotate(0) translate(4 470)">
<title>%3</title>
<polygon fill="#ffffff" stroke="transparent" points="-4,4 -4,-470 638.8991,-470 638.8991,4 -4,4"/>
<!-- Reducer 10 -->
<g id="node1" class="node">
<title>Reducer 10</title>
<ellipse fill="none" stroke="#000000" cx="71.9496" cy="-362" rx="50.7474" ry="18"/>
<text text-anchor="middle" x="71.9496" y="-357.8" font-family="Times,serif" font-size="14.00" fill="#000000">Reducer 10</text>
</g>
<!-- Map 4 -->
<g id="node2" class="node">
<title>Map 4</title>
<ellipse fill="none" stroke="#000000" cx="211.9496" cy="-276" rx="32.8992" ry="18"/>
<text text-anchor="middle" x="211.9496" y="-271.8" font-family="Times,serif" font-size="14.00" fill="#000000">Map 4</text>
</g>
<!-- Reducer 10&#45;&gt;Map 4 -->
<g id="edge1" class="edge">
<title>Reducer 10&#45;&gt;Map 4</title>
<path fill="none" stroke="#000000" d="M68.3565,-343.9246C67.354,-333.4794 68.1075,-320.722 75.308,-312 87.2839,-297.4934 133.9493,-287.4479 169.4435,-281.7247"/>
<polygon fill="#000000" stroke="#000000" points="170.2366,-285.1437 179.584,-280.156 169.1664,-278.226 170.2366,-285.1437"/>
<text text-anchor="middle" x="102.7704" y="-314.8" font-family="Times,serif" font-size="14.00" fill="#000000">broadcast</text>
</g>
<!-- Reducer 6 -->
<g id="node7" class="node">
<title>Reducer 6</title>
<ellipse fill="none" stroke="#000000" cx="339.9496" cy="-190" rx="46.4045" ry="18"/>
<text text-anchor="middle" x="339.9496" y="-185.8" font-family="Times,serif" font-size="14.00" fill="#000000">Reducer 6</text>
</g>
<!-- Map 4&#45;&gt;Reducer 6 -->
<g id="edge12" class="edge">
<title>Map 4&#45;&gt;Reducer 6</title>
<path fill="none" stroke="#000000" d="M221.9787,-258.805C228.9157,-248.1606 238.9921,-234.8774 250.7357,-226 263.0766,-216.6711 278.1664,-209.3801 292.4002,-203.8735"/>
<polygon fill="#000000" stroke="#000000" points="293.8793,-207.0596 302.0733,-200.3433 291.4794,-200.4838 293.8793,-207.0596"/>
<text text-anchor="middle" x="274.0565" y="-228.8" font-family="Times,serif" font-size="14.00" fill="#000000">unsorted</text>
</g>
<!-- Reducer 13 -->
<g id="node3" class="node">
<title>Reducer 13</title>
<ellipse fill="none" stroke="#000000" cx="229.9496" cy="-362" rx="50.7474" ry="18"/>
<text text-anchor="middle" x="229.9496" y="-357.8" font-family="Times,serif" font-size="14.00" fill="#000000">Reducer 13</text>
</g>
<!-- Reducer 13&#45;&gt;Map 4 -->
<g id="edge2" class="edge">
<title>Reducer 13&#45;&gt;Map 4</title>
<path fill="none" stroke="#000000" d="M226.1322,-343.7616C223.7056,-332.1678 220.5165,-316.931 217.7771,-303.8426"/>
<polygon fill="#000000" stroke="#000000" points="221.1742,-302.9881 215.6997,-293.9172 214.3226,-304.4222 221.1742,-302.9881"/>
<text text-anchor="middle" x="248.7704" y="-314.8" font-family="Times,serif" font-size="14.00" fill="#000000">broadcast</text>
</g>
<!-- Reducer 3 -->
<g id="node4" class="node">
<title>Reducer 3</title>
<ellipse fill="none" stroke="#000000" cx="403.9496" cy="-362" rx="46.4045" ry="18"/>
<text text-anchor="middle" x="403.9496" y="-357.8" font-family="Times,serif" font-size="14.00" fill="#000000">Reducer 3</text>
</g>
<!-- Reducer 3&#45;&gt;Map 4 -->
<g id="edge3" class="edge">
<title>Reducer 3&#45;&gt;Map 4</title>
<path fill="none" stroke="#000000" d="M373.5266,-348.373C339.0682,-332.9386 283.0177,-307.8326 246.8205,-291.6193"/>
<polygon fill="#000000" stroke="#000000" points="248.1789,-288.3927 237.6218,-287.499 245.3173,-294.7811 248.1789,-288.3927"/>
<text text-anchor="middle" x="345.7704" y="-314.8" font-family="Times,serif" font-size="14.00" fill="#000000">broadcast</text>
</g>
<!-- Map 9 -->
<g id="node5" class="node">
<title>Map 9</title>
<ellipse fill="none" stroke="#000000" cx="32.9496" cy="-448" rx="32.8992" ry="18"/>
<text text-anchor="middle" x="32.9496" y="-443.8" font-family="Times,serif" font-size="14.00" fill="#000000">Map 9</text>
</g>
<!-- Map 9&#45;&gt;Reducer 10 -->
<g id="edge4" class="edge">
<title>Map 9&#45;&gt;Reducer 10</title>
<path fill="none" stroke="#000000" d="M41.0304,-430.1807C46.4165,-418.3038 53.5971,-402.4695 59.6827,-389.05"/>
<polygon fill="#000000" stroke="#000000" points="62.9365,-390.3493 63.8791,-379.7964 56.5614,-387.4582 62.9365,-390.3493"/>
<text text-anchor="middle" x="79.0565" y="-400.8" font-family="Times,serif" font-size="14.00" fill="#000000">unsorted</text>
</g>
<!-- Map 9&#45;&gt;Reducer 6 -->
<g id="edge14" class="edge">
<title>Map 9&#45;&gt;Reducer 6</title>
<path fill="none" stroke="#000000" d="M23.4416,-430.6196C9.868,-403.216 -10.9871,-349.2591 12.308,-312 57.5415,-239.6516 103.6708,-254.9081 183.9496,-226 217.4304,-213.9437 256.4399,-204.9424 287.0744,-198.9559"/>
<polygon fill="#000000" stroke="#000000" points="287.9543,-202.3513 297.1224,-197.0412 286.644,-195.475 287.9543,-202.3513"/>
<text text-anchor="middle" x="39.7704" y="-314.8" font-family="Times,serif" font-size="14.00" fill="#000000">broadcast</text>
</g>
<!-- Map 12 -->
<g id="node6" class="node">
<title>Map 12</title>
<ellipse fill="none" stroke="#000000" cx="178.9496" cy="-448" rx="37.243" ry="18"/>
<text text-anchor="middle" x="178.9496" y="-443.8" font-family="Times,serif" font-size="14.00" fill="#000000">Map 12</text>
</g>
<!-- Map 12&#45;&gt;Reducer 13 -->
<g id="edge5" class="edge">
<title>Map 12&#45;&gt;Reducer 13</title>
<path fill="none" stroke="#000000" d="M189.2702,-430.5966C196.4121,-418.5534 206.0517,-402.2984 214.1546,-388.6346"/>
<polygon fill="#000000" stroke="#000000" points="217.3789,-390.0593 219.4693,-379.6727 211.358,-386.4887 217.3789,-390.0593"/>
<text text-anchor="middle" x="232.0565" y="-400.8" font-family="Times,serif" font-size="14.00" fill="#000000">unsorted</text>
</g>
<!-- Map 12&#45;&gt;Reducer 6 -->
<g id="edge9" class="edge">
<title>Map 12&#45;&gt;Reducer 6</title>
<path fill="none" stroke="#000000" d="M171.4442,-430.222C157.4363,-393.9523 131.9999,-310.4327 169.9496,-258 196.5536,-221.2428 246.344,-204.3349 285.1922,-196.5687"/>
<polygon fill="#000000" stroke="#000000" points="286.1223,-199.9562 295.3203,-194.6981 284.8509,-193.0726 286.1223,-199.9562"/>
<text text-anchor="middle" x="177.7704" y="-314.8" font-family="Times,serif" font-size="14.00" fill="#000000">broadcast</text>
</g>
<!-- Reducer 7 -->
<g id="node8" class="node">
<title>Reducer 7</title>
<ellipse fill="none" stroke="#000000" cx="339.9496" cy="-104" rx="46.4045" ry="18"/>
<text text-anchor="middle" x="339.9496" y="-99.8" font-family="Times,serif" font-size="14.00" fill="#000000">Reducer 7</text>
</g>
<!-- Reducer 6&#45;&gt;Reducer 7 -->
<g id="edge6" class="edge">
<title>Reducer 6&#45;&gt;Reducer 7</title>
<path fill="none" stroke="#000000" d="M339.9496,-171.7616C339.9496,-160.3597 339.9496,-145.4342 339.9496,-132.494"/>
<polygon fill="#000000" stroke="#000000" points="343.4497,-132.2121 339.9496,-122.2121 336.4497,-132.2121 343.4497,-132.2121"/>
<text text-anchor="middle" x="357.0565" y="-142.8" font-family="Times,serif" font-size="14.00" fill="#000000">sorted</text>
</g>
<!-- Reducer 8 -->
<g id="node14" class="node">
<title>Reducer 8</title>
<ellipse fill="none" stroke="#000000" cx="339.9496" cy="-18" rx="46.4045" ry="18"/>
<text text-anchor="middle" x="339.9496" y="-13.8" font-family="Times,serif" font-size="14.00" fill="#000000">Reducer 8</text>
</g>
<!-- Reducer 7&#45;&gt;Reducer 8 -->
<g id="edge16" class="edge">
<title>Reducer 7&#45;&gt;Reducer 8</title>
<path fill="none" stroke="#000000" d="M339.9496,-85.7616C339.9496,-74.3597 339.9496,-59.4342 339.9496,-46.494"/>
<polygon fill="#000000" stroke="#000000" points="343.4497,-46.2121 339.9496,-36.2121 336.4497,-46.2121 343.4497,-46.2121"/>
<text text-anchor="middle" x="357.0565" y="-56.8" font-family="Times,serif" font-size="14.00" fill="#000000">sorted</text>
</g>
<!-- Map 1 -->
<g id="node9" class="node">
<title>Map 1</title>
<ellipse fill="none" stroke="#000000" cx="295.9496" cy="-276" rx="32.8992" ry="18"/>
<text text-anchor="middle" x="295.9496" y="-271.8" font-family="Times,serif" font-size="14.00" fill="#000000">Map 1</text>
</g>
<!-- Map 1&#45;&gt;Reducer 6 -->
<g id="edge7" class="edge">
<title>Map 1&#45;&gt;Reducer 6</title>
<path fill="none" stroke="#000000" d="M298.3213,-257.666C300.1113,-247.8642 303.1713,-235.8262 308.308,-226 310.4028,-221.9926 313.0342,-218.0643 315.8798,-214.3621"/>
<polygon fill="#000000" stroke="#000000" points="318.5821,-216.5867 322.3266,-206.6757 313.2187,-212.0884 318.5821,-216.5867"/>
<text text-anchor="middle" x="334.7704" y="-228.8" font-family="Times,serif" font-size="14.00" fill="#000000">broadcast</text>
</g>
<!-- Map 11 -->
<g id="node10" class="node">
<title>Map 11</title>
<ellipse fill="none" stroke="#000000" cx="383.9496" cy="-276" rx="37.0949" ry="18"/>
<text text-anchor="middle" x="383.9496" y="-271.8" font-family="Times,serif" font-size="14.00" fill="#000000">Map 11</text>
</g>
<!-- Map 11&#45;&gt;Reducer 6 -->
<g id="edge8" class="edge">
<title>Map 11&#45;&gt;Reducer 6</title>
<path fill="none" stroke="#000000" d="M376.7782,-258.1416C372.7277,-248.4792 367.3959,-236.4225 361.9496,-226 360.3054,-222.8535 358.4951,-219.608 356.6407,-216.4138"/>
<polygon fill="#000000" stroke="#000000" points="359.5431,-214.4483 351.3985,-207.6722 353.5399,-218.0484 359.5431,-214.4483"/>
<text text-anchor="middle" x="394.7704" y="-228.8" font-family="Times,serif" font-size="14.00" fill="#000000">broadcast</text>
</g>
<!-- Map 14 -->
<g id="node11" class="node">
<title>Map 14</title>
<ellipse fill="none" stroke="#000000" cx="475.9496" cy="-276" rx="37.243" ry="18"/>
<text text-anchor="middle" x="475.9496" y="-271.8" font-family="Times,serif" font-size="14.00" fill="#000000">Map 14</text>
</g>
<!-- Map 14&#45;&gt;Reducer 6 -->
<g id="edge10" class="edge">
<title>Map 14&#45;&gt;Reducer 6</title>
<path fill="none" stroke="#000000" d="M462.0135,-259.0008C452.6692,-248.4345 439.6102,-235.1647 425.9496,-226 413.6193,-217.7278 399.083,-210.7614 385.5048,-205.2273"/>
<polygon fill="#000000" stroke="#000000" points="386.4206,-201.8277 375.8324,-201.4525 383.8757,-208.3487 386.4206,-201.8277"/>
<text text-anchor="middle" x="468.7704" y="-228.8" font-family="Times,serif" font-size="14.00" fill="#000000">broadcast</text>
</g>
<!-- Map 2 -->
<g id="node12" class="node">
<title>Map 2</title>
<ellipse fill="none" stroke="#000000" cx="505.9496" cy="-448" rx="32.8992" ry="18"/>
<text text-anchor="middle" x="505.9496" y="-443.8" font-family="Times,serif" font-size="14.00" fill="#000000">Map 2</text>
</g>
<!-- Map 2&#45;&gt;Reducer 3 -->
<g id="edge15" class="edge">
<title>Map 2&#45;&gt;Reducer 3</title>
<path fill="none" stroke="#000000" d="M487.714,-432.6249C472.0114,-419.3854 449.1224,-400.0869 431.2378,-385.0077"/>
<polygon fill="#000000" stroke="#000000" points="433.3178,-382.1834 423.4164,-378.4132 428.8056,-387.5351 433.3178,-382.1834"/>
<text text-anchor="middle" x="485.0565" y="-400.8" font-family="Times,serif" font-size="14.00" fill="#000000">unsorted</text>
</g>
<!-- Map 2&#45;&gt;Reducer 6 -->
<g id="edge11" class="edge">
<title>Map 2&#45;&gt;Reducer 6</title>
<path fill="none" stroke="#000000" d="M511.8226,-430.2284C522.1826,-396.0212 540.8997,-319.0134 521.9496,-258 516.8303,-241.5176 514.2435,-235.6726 499.9496,-226 482.7584,-214.3669 433.2461,-204.3069 393.8072,-197.8018"/>
<polygon fill="#000000" stroke="#000000" points="394.194,-194.3191 383.7648,-196.1852 393.0814,-201.2302 394.194,-194.3191"/>
<text text-anchor="middle" x="556.7704" y="-314.8" font-family="Times,serif" font-size="14.00" fill="#000000">broadcast</text>
</g>
<!-- Map 5 -->
<g id="node13" class="node">
<title>Map 5</title>
<ellipse fill="none" stroke="#000000" cx="601.9496" cy="-276" rx="32.8992" ry="18"/>
<text text-anchor="middle" x="601.9496" y="-271.8" font-family="Times,serif" font-size="14.00" fill="#000000">Map 5</text>
</g>
<!-- Map 5&#45;&gt;Reducer 6 -->
<g id="edge13" class="edge">
<title>Map 5&#45;&gt;Reducer 6</title>
<path fill="none" stroke="#000000" d="M590.4385,-258.8657C581.9722,-247.6772 569.4472,-233.7535 554.9496,-226 527.9865,-211.5798 449.4038,-201.0208 395.1079,-195.1939"/>
<polygon fill="#000000" stroke="#000000" points="395.2435,-191.689 384.9328,-194.1264 394.5131,-198.6508 395.2435,-191.689"/>
<text text-anchor="middle" x="597.0565" y="-228.8" font-family="Times,serif" font-size="14.00" fill="#000000">unsorted</text>
</g>
</g>
</svg>
