<?xml version="1.0" encoding="UTF-8" standalone="no"?>
<!DOCTYPE svg PUBLIC "-//W3C//DTD SVG 1.1//EN"
 "http://www.w3.org/Graphics/SVG/1.1/DTD/svg11.dtd">
<!-- Generated by graphviz version 2.40.1 (20161225.0304)
 -->
<!-- Title: %3 Pages: 1 -->
<svg width="1064pt" height="474pt"
 viewBox="0.00 0.00 1063.53 474.00" xmlns="http://www.w3.org/2000/svg" xmlns:xlink="http://www.w3.org/1999/xlink">
<g id="graph0" class="graph" transform="scale(1 1) rotate(0) translate(4 470)">
<title>%3</title>
<polygon fill="#ffffff" stroke="transparent" points="-4,4 -4,-470 1059.5272,-470 1059.5272,4 -4,4"/>
<!-- Map 1 -->
<g id="node1" class="node">
<title>Map 1</title>
<ellipse fill="none" stroke="#000000" cx="723.9036" cy="-362" rx="32.8992" ry="18"/>
<text text-anchor="middle" x="723.9036" y="-357.8" font-family="Times,serif" font-size="14.00" fill="#000000">Map 1</text>
</g>
<!-- Map 3 -->
<g id="node2" class="node">
<title>Map 3</title>
<ellipse fill="none" stroke="#000000" cx="372.9036" cy="-276" rx="32.8992" ry="18"/>
<text text-anchor="middle" x="372.9036" y="-271.8" font-family="Times,serif" font-size="14.00" fill="#000000">Map 3</text>
</g>
<!-- Map 1&#45;&gt;Map 3 -->
<g id="edge1" class="edge">
<title>Map 1&#45;&gt;Map 3</title>
<path fill="none" stroke="#000000" d="M698.2445,-350.6981C692.8715,-348.4175 687.2223,-346.0825 681.9036,-344 659.661,-335.2909 653.4896,-334.7474 631.262,-326 616.6807,-320.2617 613.9495,-316.3779 598.9036,-312 536.614,-293.8757 461.8439,-284.2262 415.8539,-279.6139"/>
<polygon fill="#000000" stroke="#000000" points="415.9409,-276.106 405.6502,-278.6261 415.2664,-283.0735 415.9409,-276.106"/>
<text text-anchor="middle" x="658.7244" y="-314.8" font-family="Times,serif" font-size="14.00" fill="#000000">broadcast</text>
</g>
<!-- Map 16 -->
<g id="node11" class="node">
<title>Map 16</title>
<ellipse fill="none" stroke="#000000" cx="731.9036" cy="-276" rx="37.243" ry="18"/>
<text text-anchor="middle" x="731.9036" y="-271.8" font-family="Times,serif" font-size="14.00" fill="#000000">Map 16</text>
</g>
<!-- Map 1&#45;&gt;Map 16 -->
<g id="edge18" class="edge">
<title>Map 1&#45;&gt;Map 16</title>
<path fill="none" stroke="#000000" d="M752.5833,-353.1029C765.4745,-347.5098 779.4426,-338.8567 786.9036,-326 794.4667,-312.9674 783.6882,-301.4215 769.7265,-292.7174"/>
<polygon fill="#000000" stroke="#000000" points="771.19,-289.525 760.7575,-287.6772 767.7606,-295.6275 771.19,-289.525"/>
<text text-anchor="middle" x="816.7244" y="-314.8" font-family="Times,serif" font-size="14.00" fill="#000000">broadcast</text>
</g>
<!-- Reducer 4 -->
<g id="node16" class="node">
<title>Reducer 4</title>
<ellipse fill="none" stroke="#000000" cx="532.9036" cy="-190" rx="46.4045" ry="18"/>
<text text-anchor="middle" x="532.9036" y="-185.8" font-family="Times,serif" font-size="14.00" fill="#000000">Reducer 4</text>
</g>
<!-- Map 3&#45;&gt;Reducer 4 -->
<g id="edge16" class="edge">
<title>Map 3&#45;&gt;Reducer 4</title>
<path fill="none" stroke="#000000" d="M396.5122,-263.3104C422.9027,-249.1255 465.9513,-225.9869 496.624,-209.5003"/>
<polygon fill="#000000" stroke="#000000" points="498.5625,-212.432 505.7137,-204.6146 495.2484,-206.2662 498.5625,-212.432"/>
<text text-anchor="middle" x="480.0106" y="-228.8" font-family="Times,serif" font-size="14.00" fill="#000000">sorted</text>
</g>
<!-- Map 11 -->
<g id="node3" class="node">
<title>Map 11</title>
<ellipse fill="none" stroke="#000000" cx="273.9036" cy="-448" rx="37.0949" ry="18"/>
<text text-anchor="middle" x="273.9036" y="-443.8" font-family="Times,serif" font-size="14.00" fill="#000000">Map 11</text>
</g>
<!-- Map 11&#45;&gt;Map 3 -->
<g id="edge2" class="edge">
<title>Map 11&#45;&gt;Map 3</title>
<path fill="none" stroke="#000000" d="M236.7602,-446.2954C150.5588,-441.025 -51.0697,-420.3891 12.262,-344 52.1695,-295.8647 242.8715,-281.5678 329.6863,-277.5168"/>
<polygon fill="#000000" stroke="#000000" points="329.9058,-281.0106 339.7413,-277.0719 329.5964,-274.0174 329.9058,-281.0106"/>
<text text-anchor="middle" x="39.7244" y="-357.8" font-family="Times,serif" font-size="14.00" fill="#000000">broadcast</text>
</g>
<!-- Reducer 12 -->
<g id="node7" class="node">
<title>Reducer 12</title>
<ellipse fill="none" stroke="#000000" cx="125.9036" cy="-362" rx="50.7474" ry="18"/>
<text text-anchor="middle" x="125.9036" y="-357.8" font-family="Times,serif" font-size="14.00" fill="#000000">Reducer 12</text>
</g>
<!-- Map 11&#45;&gt;Reducer 12 -->
<g id="edge13" class="edge">
<title>Map 11&#45;&gt;Reducer 12</title>
<path fill="none" stroke="#000000" d="M250.1249,-434.1826C226.119,-420.2333 188.7622,-398.5259 161.2803,-382.5567"/>
<polygon fill="#000000" stroke="#000000" points="162.7772,-379.3785 152.3724,-377.3805 159.2602,-385.4309 162.7772,-379.3785"/>
<text text-anchor="middle" x="233.0106" y="-400.8" font-family="Times,serif" font-size="14.00" fill="#000000">unsorted</text>
</g>
<!-- Map 11&#45;&gt;Map 16 -->
<g id="edge19" class="edge">
<title>Map 11&#45;&gt;Map 16</title>
<path fill="none" stroke="#000000" d="M276.0295,-429.8362C279.7084,-406.6389 289.4285,-366.7802 314.262,-344 323.614,-335.4213 411.4664,-314.5233 423.9036,-312 515.1767,-293.4825 623.7389,-283.5524 684.5451,-279.0597"/>
<polygon fill="#000000" stroke="#000000" points="684.8839,-282.5444 694.6062,-278.3339 684.3802,-275.5626 684.8839,-282.5444"/>
<text text-anchor="middle" x="341.7244" y="-357.8" font-family="Times,serif" font-size="14.00" fill="#000000">broadcast</text>
</g>
<!-- Reducer 13 -->
<g id="node14" class="node">
<title>Reducer 13</title>
<ellipse fill="none" stroke="#000000" cx="621.9036" cy="-362" rx="50.7474" ry="18"/>
<text text-anchor="middle" x="621.9036" y="-357.8" font-family="Times,serif" font-size="14.00" fill="#000000">Reducer 13</text>
</g>
<!-- Map 11&#45;&gt;Reducer 13 -->
<g id="edge12" class="edge">
<title>Map 11&#45;&gt;Reducer 13</title>
<path fill="none" stroke="#000000" d="M307.7642,-440.6918C361.7594,-428.884 470.5916,-404.4534 561.9036,-380 565.7528,-378.9692 569.7292,-377.8647 573.7177,-376.7288"/>
<polygon fill="#000000" stroke="#000000" points="574.9622,-380.0121 583.5909,-373.8644 573.0117,-373.2893 574.9622,-380.0121"/>
<text text-anchor="middle" x="516.0106" y="-400.8" font-family="Times,serif" font-size="14.00" fill="#000000">unsorted</text>
</g>
<!-- Map 14 -->
<g id="node4" class="node">
<title>Map 14</title>
<ellipse fill="none" stroke="#000000" cx="231.9036" cy="-362" rx="37.243" ry="18"/>
<text text-anchor="middle" x="231.9036" y="-357.8" font-family="Times,serif" font-size="14.00" fill="#000000">Map 14</text>
</g>
<!-- Map 14&#45;&gt;Map 3 -->
<g id="edge3" class="edge">
<title>Map 14&#45;&gt;Map 3</title>
<path fill="none" stroke="#000000" d="M249.9808,-346.1982C262.465,-335.7362 279.7346,-322.1288 296.262,-312 309.0713,-304.1499 323.8673,-296.8303 337.0225,-290.8687"/>
<polygon fill="#000000" stroke="#000000" points="338.5324,-294.028 346.2597,-286.7796 335.6988,-287.6271 338.5324,-294.028"/>
<text text-anchor="middle" x="323.7244" y="-314.8" font-family="Times,serif" font-size="14.00" fill="#000000">broadcast</text>
</g>
<!-- Map 7 -->
<g id="node5" class="node">
<title>Map 7</title>
<ellipse fill="none" stroke="#000000" cx="519.9036" cy="-362" rx="32.8992" ry="18"/>
<text text-anchor="middle" x="519.9036" y="-357.8" font-family="Times,serif" font-size="14.00" fill="#000000">Map 7</text>
</g>
<!-- Map 7&#45;&gt;Map 3 -->
<g id="edge4" class="edge">
<title>Map 7&#45;&gt;Map 3</title>
<path fill="none" stroke="#000000" d="M495.034,-350.1482C481.3375,-343.4172 464.1463,-334.6318 449.262,-326 433.1428,-316.652 415.7204,-305.3419 401.5934,-295.8447"/>
<polygon fill="#000000" stroke="#000000" points="403.5058,-292.9127 393.2642,-290.1994 399.5784,-298.7072 403.5058,-292.9127"/>
<text text-anchor="middle" x="476.7244" y="-314.8" font-family="Times,serif" font-size="14.00" fill="#000000">broadcast</text>
</g>
<!-- Map 7&#45;&gt;Map 16 -->
<g id="edge20" class="edge">
<title>Map 7&#45;&gt;Map 16</title>
<path fill="none" stroke="#000000" d="M524.5963,-344.1059C528.3879,-333.1827 534.8476,-319.8514 545.262,-312 566.8043,-295.7595 636.9634,-285.5791 684.8503,-280.3426"/>
<polygon fill="#000000" stroke="#000000" points="685.4271,-283.8012 695.0037,-279.2693 684.6912,-276.84 685.4271,-283.8012"/>
<text text-anchor="middle" x="572.7244" y="-314.8" font-family="Times,serif" font-size="14.00" fill="#000000">broadcast</text>
</g>
<!-- Map 8 -->
<g id="node6" class="node">
<title>Map 8</title>
<ellipse fill="none" stroke="#000000" cx="844.9036" cy="-448" rx="32.8992" ry="18"/>
<text text-anchor="middle" x="844.9036" y="-443.8" font-family="Times,serif" font-size="14.00" fill="#000000">Map 8</text>
</g>
<!-- Map 8&#45;&gt;Map 3 -->
<g id="edge5" class="edge">
<title>Map 8&#45;&gt;Map 3</title>
<path fill="none" stroke="#000000" d="M835.8512,-430.3193C823.1939,-407.2763 798.0989,-367.1934 765.9036,-344 745.7189,-329.459 735.86,-335.5849 712.9036,-326 700.0645,-320.6393 698.2389,-315.9687 684.9036,-312 635.5907,-297.324 489.4303,-284.722 416.0095,-279.1117"/>
<polygon fill="#000000" stroke="#000000" points="415.9601,-275.5981 405.7249,-278.3352 415.4331,-282.5782 415.9601,-275.5981"/>
<text text-anchor="middle" x="829.7244" y="-357.8" font-family="Times,serif" font-size="14.00" fill="#000000">broadcast</text>
</g>
<!-- Reducer 9 -->
<g id="node8" class="node">
<title>Reducer 9</title>
<ellipse fill="none" stroke="#000000" cx="422.9036" cy="-362" rx="46.4045" ry="18"/>
<text text-anchor="middle" x="422.9036" y="-357.8" font-family="Times,serif" font-size="14.00" fill="#000000">Reducer 9</text>
</g>
<!-- Map 8&#45;&gt;Reducer 9 -->
<g id="edge24" class="edge">
<title>Map 8&#45;&gt;Reducer 9</title>
<path fill="none" stroke="#000000" d="M814.5717,-440.8259C799.8981,-437.4226 782.0124,-433.3729 765.9036,-430 724.1783,-421.2634 712.8903,-422.9477 671.6898,-412 653.1672,-407.0782 649.5907,-402.255 630.9036,-398 564.1434,-382.7989 544.7713,-394.7212 477.9036,-380 474.2548,-379.1967 470.5055,-378.2469 466.7618,-377.2102"/>
<polygon fill="#000000" stroke="#000000" points="467.5206,-373.7848 456.9384,-374.3038 465.5345,-380.4972 467.5206,-373.7848"/>
<text text-anchor="middle" x="696.0106" y="-400.8" font-family="Times,serif" font-size="14.00" fill="#000000">unsorted</text>
</g>
<!-- Map 8&#45;&gt;Map 16 -->
<g id="edge21" class="edge">
<title>Map 8&#45;&gt;Map 16</title>
<path fill="none" stroke="#000000" d="M851.8206,-430.2484C861.6073,-401.8424 875.4333,-345.927 847.9036,-312 838.6926,-300.6485 805.4315,-291.0329 776.8738,-284.6027"/>
<polygon fill="#000000" stroke="#000000" points="777.5307,-281.1638 767.0159,-282.4635 776.0462,-288.0046 777.5307,-281.1638"/>
<text text-anchor="middle" x="891.7244" y="-357.8" font-family="Times,serif" font-size="14.00" fill="#000000">broadcast</text>
</g>
<!-- Reducer 10 -->
<g id="node13" class="node">
<title>Reducer 10</title>
<ellipse fill="none" stroke="#000000" cx="1004.9036" cy="-362" rx="50.7474" ry="18"/>
<text text-anchor="middle" x="1004.9036" y="-357.8" font-family="Times,serif" font-size="14.00" fill="#000000">Reducer 10</text>
</g>
<!-- Map 8&#45;&gt;Reducer 10 -->
<g id="edge11" class="edge">
<title>Map 8&#45;&gt;Reducer 10</title>
<path fill="none" stroke="#000000" d="M868.5122,-435.3104C894.6664,-421.2525 937.1816,-398.4006 967.797,-381.9448"/>
<polygon fill="#000000" stroke="#000000" points="969.7338,-384.8774 976.885,-377.06 966.4197,-378.7116 969.7338,-384.8774"/>
<text text-anchor="middle" x="958.0106" y="-400.8" font-family="Times,serif" font-size="14.00" fill="#000000">unsorted</text>
</g>
<!-- Reducer 12&#45;&gt;Map 3 -->
<g id="edge6" class="edge">
<title>Reducer 12&#45;&gt;Map 3</title>
<path fill="none" stroke="#000000" d="M150.9059,-346.0805C169.0097,-335.1562 194.3938,-321.0511 218.262,-312 255.197,-297.9938 299.2374,-288.3878 330.8553,-282.6445"/>
<polygon fill="#000000" stroke="#000000" points="331.8325,-286.0264 341.0734,-280.8441 330.6177,-279.1325 331.8325,-286.0264"/>
<text text-anchor="middle" x="245.7244" y="-314.8" font-family="Times,serif" font-size="14.00" fill="#000000">broadcast</text>
</g>
<!-- Reducer 9&#45;&gt;Map 3 -->
<g id="edge7" class="edge">
<title>Reducer 9&#45;&gt;Map 3</title>
<path fill="none" stroke="#000000" d="M386.3273,-350.7696C374.6396,-345.2577 362.9975,-337.294 356.262,-326 351.8835,-318.6582 352.9182,-310.0148 355.9978,-301.9981"/>
<polygon fill="#000000" stroke="#000000" points="359.1509,-303.5173 360.3506,-292.9906 352.8482,-300.4716 359.1509,-303.5173"/>
<text text-anchor="middle" x="383.7244" y="-314.8" font-family="Times,serif" font-size="14.00" fill="#000000">broadcast</text>
</g>
<!-- Map 15 -->
<g id="node9" class="node">
<title>Map 15</title>
<ellipse fill="none" stroke="#000000" cx="575.9036" cy="-448" rx="37.243" ry="18"/>
<text text-anchor="middle" x="575.9036" y="-443.8" font-family="Times,serif" font-size="14.00" fill="#000000">Map 15</text>
</g>
<!-- Map 15&#45;&gt;Map 1 -->
<g id="edge8" class="edge">
<title>Map 15&#45;&gt;Map 1</title>
<path fill="none" stroke="#000000" d="M571.1955,-429.7872C569.6362,-419.2934 569.871,-406.533 577.262,-398 608.1583,-362.3299 636.6517,-393.3866 681.9036,-380 684.3665,-379.2714 686.8781,-378.4393 689.3868,-377.5414"/>
<polygon fill="#000000" stroke="#000000" points="690.8837,-380.7148 698.9387,-373.8324 688.3499,-374.1894 690.8837,-380.7148"/>
<text text-anchor="middle" x="604.7244" y="-400.8" font-family="Times,serif" font-size="14.00" fill="#000000">broadcast</text>
</g>
<!-- Map 2 -->
<g id="node10" class="node">
<title>Map 2</title>
<ellipse fill="none" stroke="#000000" cx="723.9036" cy="-448" rx="32.8992" ry="18"/>
<text text-anchor="middle" x="723.9036" y="-443.8" font-family="Times,serif" font-size="14.00" fill="#000000">Map 2</text>
</g>
<!-- Map 2&#45;&gt;Map 1 -->
<g id="edge9" class="edge">
<title>Map 2&#45;&gt;Map 1</title>
<path fill="none" stroke="#000000" d="M723.9036,-429.7616C723.9036,-418.3597 723.9036,-403.4342 723.9036,-390.494"/>
<polygon fill="#000000" stroke="#000000" points="727.4037,-390.2121 723.9036,-380.2121 720.4037,-390.2121 727.4037,-390.2121"/>
<text text-anchor="middle" x="750.7244" y="-400.8" font-family="Times,serif" font-size="14.00" fill="#000000">broadcast</text>
</g>
<!-- Reducer 17 -->
<g id="node12" class="node">
<title>Reducer 17</title>
<ellipse fill="none" stroke="#000000" cx="682.9036" cy="-190" rx="50.7474" ry="18"/>
<text text-anchor="middle" x="682.9036" y="-185.8" font-family="Times,serif" font-size="14.00" fill="#000000">Reducer 17</text>
</g>
<!-- Map 16&#45;&gt;Reducer 17 -->
<g id="edge10" class="edge">
<title>Map 16&#45;&gt;Reducer 17</title>
<path fill="none" stroke="#000000" d="M721.9878,-258.5966C715.1259,-246.5534 705.8643,-230.2984 698.0792,-216.6346"/>
<polygon fill="#000000" stroke="#000000" points="700.9645,-214.6286 692.973,-207.6727 694.8825,-218.094 700.9645,-214.6286"/>
<text text-anchor="middle" x="728.0106" y="-228.8" font-family="Times,serif" font-size="14.00" fill="#000000">sorted</text>
</g>
<!-- Reducer 5 -->
<g id="node15" class="node">
<title>Reducer 5</title>
<ellipse fill="none" stroke="#000000" cx="589.9036" cy="-104" rx="46.4045" ry="18"/>
<text text-anchor="middle" x="589.9036" y="-99.8" font-family="Times,serif" font-size="14.00" fill="#000000">Reducer 5</text>
</g>
<!-- Reducer 17&#45;&gt;Reducer 5 -->
<g id="edge14" class="edge">
<title>Reducer 17&#45;&gt;Reducer 5</title>
<path fill="none" stroke="#000000" d="M664.5298,-173.0092C650.5557,-160.0868 631.153,-142.1446 615.6346,-127.7942"/>
<polygon fill="#000000" stroke="#000000" points="617.6411,-124.8826 607.9228,-120.6629 612.8885,-130.022 617.6411,-124.8826"/>
<text text-anchor="middle" x="658.0657" y="-142.8" font-family="Times,serif" font-size="14.00" fill="#000000">None</text>
</g>
<!-- Reducer 10&#45;&gt;Map 16 -->
<g id="edge22" class="edge">
<title>Reducer 10&#45;&gt;Map 16</title>
<path fill="none" stroke="#000000" d="M976.7232,-346.8759C955.3278,-335.9104 924.911,-321.412 896.9036,-312 857.4863,-298.7536 811.1005,-289.135 777.5661,-283.1903"/>
<polygon fill="#000000" stroke="#000000" points="778.044,-279.721 767.5934,-281.4634 776.8496,-286.6184 778.044,-279.721"/>
<text text-anchor="middle" x="956.7244" y="-314.8" font-family="Times,serif" font-size="14.00" fill="#000000">broadcast</text>
</g>
<!-- Reducer 13&#45;&gt;Map 16 -->
<g id="edge23" class="edge">
<title>Reducer 13&#45;&gt;Map 16</title>
<path fill="none" stroke="#000000" d="M648.7274,-346.5354C658.506,-340.5192 669.471,-333.3177 678.9036,-326 689.2108,-318.0039 699.8143,-308.3363 708.8029,-299.6414"/>
<polygon fill="#000000" stroke="#000000" points="711.2601,-302.1339 715.9315,-292.6245 706.3495,-297.1452 711.2601,-302.1339"/>
<text text-anchor="middle" x="721.7244" y="-314.8" font-family="Times,serif" font-size="14.00" fill="#000000">broadcast</text>
</g>
<!-- Reducer 6 -->
<g id="node17" class="node">
<title>Reducer 6</title>
<ellipse fill="none" stroke="#000000" cx="589.9036" cy="-18" rx="46.4045" ry="18"/>
<text text-anchor="middle" x="589.9036" y="-13.8" font-family="Times,serif" font-size="14.00" fill="#000000">Reducer 6</text>
</g>
<!-- Reducer 5&#45;&gt;Reducer 6 -->
<g id="edge17" class="edge">
<title>Reducer 5&#45;&gt;Reducer 6</title>
<path fill="none" stroke="#000000" d="M589.9036,-85.7616C589.9036,-74.3597 589.9036,-59.4342 589.9036,-46.494"/>
<polygon fill="#000000" stroke="#000000" points="593.4037,-46.2121 589.9036,-36.2121 586.4037,-46.2121 593.4037,-46.2121"/>
<text text-anchor="middle" x="607.0106" y="-56.8" font-family="Times,serif" font-size="14.00" fill="#000000">sorted</text>
</g>
<!-- Reducer 4&#45;&gt;Reducer 5 -->
<g id="edge15" class="edge">
<title>Reducer 4&#45;&gt;Reducer 5</title>
<path fill="none" stroke="#000000" d="M544.7141,-172.1807C552.7924,-159.9924 563.6328,-143.6367 572.6712,-129.9998"/>
<polygon fill="#000000" stroke="#000000" points="575.6961,-131.7712 578.3034,-121.5022 569.8613,-127.9039 575.6961,-131.7712"/>
<text text-anchor="middle" x="580.0657" y="-142.8" font-family="Times,serif" font-size="14.00" fill="#000000">None</text>
</g>
</g>
</svg>
