<?xml version="1.0" encoding="UTF-8" standalone="no"?>
<!DOCTYPE svg PUBLIC "-//W3C//DTD SVG 1.1//EN"
 "http://www.w3.org/Graphics/SVG/1.1/DTD/svg11.dtd">
<!-- Generated by graphviz version 2.40.1 (20161225.0304)
 -->
<!-- Title: %3 Pages: 1 -->
<svg width="369pt" height="474pt"
 viewBox="0.00 0.00 368.90 474.00" xmlns="http://www.w3.org/2000/svg" xmlns:xlink="http://www.w3.org/1999/xlink">
<g id="graph0" class="graph" transform="scale(1 1) rotate(0) translate(4 470)">
<title>%3</title>
<polygon fill="#ffffff" stroke="transparent" points="-4,4 -4,-470 364.8991,-470 364.8991,4 -4,4"/>
<!-- Reducer 8 -->
<g id="node1" class="node">
<title>Reducer 8</title>
<ellipse fill="none" stroke="#000000" cx="189.9496" cy="-362" rx="46.4045" ry="18"/>
<text text-anchor="middle" x="189.9496" y="-357.8" font-family="Times,serif" font-size="14.00" fill="#000000">Reducer 8</text>
</g>
<!-- Map 5 -->
<g id="node2" class="node">
<title>Map 5</title>
<ellipse fill="none" stroke="#000000" cx="116.9496" cy="-276" rx="32.8992" ry="18"/>
<text text-anchor="middle" x="116.9496" y="-271.8" font-family="Times,serif" font-size="14.00" fill="#000000">Map 5</text>
</g>
<!-- Reducer 8&#45;&gt;Map 5 -->
<g id="edge1" class="edge">
<title>Reducer 8&#45;&gt;Map 5</title>
<path fill="none" stroke="#000000" d="M158.91,-348.6115C148.8561,-342.9326 138.4647,-335.4156 131.308,-326 126.4439,-319.6008 123.2265,-311.6078 121.0987,-303.9026"/>
<polygon fill="#000000" stroke="#000000" points="124.501,-303.0796 118.8822,-294.0975 117.6733,-304.6231 124.501,-303.0796"/>
<text text-anchor="middle" x="157.7704" y="-314.8" font-family="Times,serif" font-size="14.00" fill="#000000">broadcast</text>
</g>
<!-- Map 1 -->
<g id="node3" class="node">
<title>Map 1</title>
<ellipse fill="none" stroke="#000000" cx="200.9496" cy="-276" rx="32.8992" ry="18"/>
<text text-anchor="middle" x="200.9496" y="-271.8" font-family="Times,serif" font-size="14.00" fill="#000000">Map 1</text>
</g>
<!-- Reducer 8&#45;&gt;Map 1 -->
<g id="edge2" class="edge">
<title>Reducer 8&#45;&gt;Map 1</title>
<path fill="none" stroke="#000000" d="M189.4232,-343.8608C189.4033,-334.3309 189.7832,-322.4839 191.308,-312 191.7046,-309.2728 192.2361,-306.4565 192.8467,-303.6562"/>
<polygon fill="#000000" stroke="#000000" points="196.2878,-304.3217 195.3047,-293.7726 189.4947,-302.6323 196.2878,-304.3217"/>
<text text-anchor="middle" x="217.7704" y="-314.8" font-family="Times,serif" font-size="14.00" fill="#000000">broadcast</text>
</g>
<!-- Reducer 2 -->
<g id="node6" class="node">
<title>Reducer 2</title>
<ellipse fill="none" stroke="#000000" cx="200.9496" cy="-190" rx="46.4045" ry="18"/>
<text text-anchor="middle" x="200.9496" y="-185.8" font-family="Times,serif" font-size="14.00" fill="#000000">Reducer 2</text>
</g>
<!-- Map 5&#45;&gt;Reducer 2 -->
<g id="edge6" class="edge">
<title>Map 5&#45;&gt;Reducer 2</title>
<path fill="none" stroke="#000000" d="M125.728,-258.5847C131.4066,-248.3736 139.4585,-235.6304 148.7357,-226 153.9875,-220.5483 160.1842,-215.4284 166.4396,-210.8552"/>
<polygon fill="#000000" stroke="#000000" points="168.6959,-213.55 174.9228,-204.9782 164.7096,-207.7959 168.6959,-213.55"/>
<text text-anchor="middle" x="172.0565" y="-228.8" font-family="Times,serif" font-size="14.00" fill="#000000">unsorted</text>
</g>
<!-- Map 1&#45;&gt;Reducer 2 -->
<g id="edge5" class="edge">
<title>Map 1&#45;&gt;Reducer 2</title>
<path fill="none" stroke="#000000" d="M200.9496,-257.7616C200.9496,-246.3597 200.9496,-231.4342 200.9496,-218.494"/>
<polygon fill="#000000" stroke="#000000" points="204.4497,-218.2121 200.9496,-208.2121 197.4497,-218.2121 204.4497,-218.2121"/>
<text text-anchor="middle" x="225.0565" y="-228.8" font-family="Times,serif" font-size="14.00" fill="#000000">unsorted</text>
</g>
<!-- Reducer 3 -->
<g id="node4" class="node">
<title>Reducer 3</title>
<ellipse fill="none" stroke="#000000" cx="200.9496" cy="-104" rx="46.4045" ry="18"/>
<text text-anchor="middle" x="200.9496" y="-99.8" font-family="Times,serif" font-size="14.00" fill="#000000">Reducer 3</text>
</g>
<!-- Reducer 4 -->
<g id="node5" class="node">
<title>Reducer 4</title>
<ellipse fill="none" stroke="#000000" cx="200.9496" cy="-18" rx="46.4045" ry="18"/>
<text text-anchor="middle" x="200.9496" y="-13.8" font-family="Times,serif" font-size="14.00" fill="#000000">Reducer 4</text>
</g>
<!-- Reducer 3&#45;&gt;Reducer 4 -->
<g id="edge3" class="edge">
<title>Reducer 3&#45;&gt;Reducer 4</title>
<path fill="none" stroke="#000000" d="M200.9496,-85.7616C200.9496,-74.3597 200.9496,-59.4342 200.9496,-46.494"/>
<polygon fill="#000000" stroke="#000000" points="204.4497,-46.2121 200.9496,-36.2121 197.4497,-46.2121 204.4497,-46.2121"/>
<text text-anchor="middle" x="218.0565" y="-56.8" font-family="Times,serif" font-size="14.00" fill="#000000">sorted</text>
</g>
<!-- Reducer 2&#45;&gt;Reducer 3 -->
<g id="edge4" class="edge">
<title>Reducer 2&#45;&gt;Reducer 3</title>
<path fill="none" stroke="#000000" d="M200.9496,-171.7616C200.9496,-160.3597 200.9496,-145.4342 200.9496,-132.494"/>
<polygon fill="#000000" stroke="#000000" points="204.4497,-132.2121 200.9496,-122.2121 197.4497,-132.2121 204.4497,-132.2121"/>
<text text-anchor="middle" x="218.0565" y="-142.8" font-family="Times,serif" font-size="14.00" fill="#000000">sorted</text>
</g>
<!-- Map 6 -->
<g id="node7" class="node">
<title>Map 6</title>
<ellipse fill="none" stroke="#000000" cx="32.9496" cy="-276" rx="32.8992" ry="18"/>
<text text-anchor="middle" x="32.9496" y="-271.8" font-family="Times,serif" font-size="14.00" fill="#000000">Map 6</text>
</g>
<!-- Map 6&#45;&gt;Reducer 2 -->
<g id="edge7" class="edge">
<title>Map 6&#45;&gt;Reducer 2</title>
<path fill="none" stroke="#000000" d="M44.9418,-258.9368C53.4006,-248.0703 65.6292,-234.4895 79.308,-226 100.0791,-213.1087 125.7068,-204.6284 148.0745,-199.1576"/>
<polygon fill="#000000" stroke="#000000" points="149.1334,-202.5055 158.093,-196.8508 147.5626,-195.684 149.1334,-202.5055"/>
<text text-anchor="middle" x="106.7704" y="-228.8" font-family="Times,serif" font-size="14.00" fill="#000000">broadcast</text>
</g>
<!-- Map 7 -->
<g id="node8" class="node">
<title>Map 7</title>
<ellipse fill="none" stroke="#000000" cx="227.9496" cy="-448" rx="32.8992" ry="18"/>
<text text-anchor="middle" x="227.9496" y="-443.8" font-family="Times,serif" font-size="14.00" fill="#000000">Map 7</text>
</g>
<!-- Map 7&#45;&gt;Reducer 8 -->
<g id="edge10" class="edge">
<title>Map 7&#45;&gt;Reducer 8</title>
<path fill="none" stroke="#000000" d="M215.5694,-430.9949C211.7214,-425.1737 207.7127,-418.489 204.7357,-412 201.5178,-404.986 198.8034,-397.0987 196.614,-389.6975"/>
<polygon fill="#000000" stroke="#000000" points="199.9828,-388.7477 193.9558,-380.0341 193.2334,-390.6043 199.9828,-388.7477"/>
<text text-anchor="middle" x="228.0565" y="-400.8" font-family="Times,serif" font-size="14.00" fill="#000000">unsorted</text>
</g>
<!-- Map 7&#45;&gt;Reducer 2 -->
<g id="edge8" class="edge">
<title>Map 7&#45;&gt;Reducer 2</title>
<path fill="none" stroke="#000000" d="M242.4811,-431.5598C246.7051,-425.7763 250.7665,-418.971 252.9496,-412 277.655,-333.1114 291.3157,-299.2244 252.9496,-226 249.6969,-219.7921 244.8337,-214.4419 239.3651,-209.9076"/>
<polygon fill="#000000" stroke="#000000" points="241.1813,-206.9004 231.0371,-203.8432 237.0607,-212.5591 241.1813,-206.9004"/>
<text text-anchor="middle" x="302.7704" y="-314.8" font-family="Times,serif" font-size="14.00" fill="#000000">broadcast</text>
</g>
<!-- Map 9 -->
<g id="node9" class="node">
<title>Map 9</title>
<ellipse fill="none" stroke="#000000" cx="327.9496" cy="-276" rx="32.8992" ry="18"/>
<text text-anchor="middle" x="327.9496" y="-271.8" font-family="Times,serif" font-size="14.00" fill="#000000">Map 9</text>
</g>
<!-- Map 9&#45;&gt;Reducer 2 -->
<g id="edge9" class="edge">
<title>Map 9&#45;&gt;Reducer 2</title>
<path fill="none" stroke="#000000" d="M314.9558,-259.0727C306.2145,-248.5352 293.9463,-235.2704 280.9496,-226 270.0895,-218.2537 257.2962,-211.594 245.1638,-206.184"/>
<polygon fill="#000000" stroke="#000000" points="246.1965,-202.8195 235.625,-202.1164 243.4507,-209.2585 246.1965,-202.8195"/>
<text text-anchor="middle" x="322.7704" y="-228.8" font-family="Times,serif" font-size="14.00" fill="#000000">broadcast</text>
</g>
</g>
</svg>
