<?xml version="1.0" encoding="UTF-8" standalone="no"?>
<!DOCTYPE svg PUBLIC "-//W3C//DTD SVG 1.1//EN"
 "http://www.w3.org/Graphics/SVG/1.1/DTD/svg11.dtd">
<!-- Generated by graphviz version 2.40.1 (20161225.0304)
 -->
<!-- Title: %3 Pages: 1 -->
<svg width="210pt" height="388pt"
 viewBox="0.00 0.00 210.40 388.00" xmlns="http://www.w3.org/2000/svg" xmlns:xlink="http://www.w3.org/1999/xlink">
<g id="graph0" class="graph" transform="scale(1 1) rotate(0) translate(4 384)">
<title>%3</title>
<polygon fill="#ffffff" stroke="transparent" points="-4,4 -4,-384 206.4036,-384 206.4036,4 -4,4"/>
<!-- Map 5 -->
<g id="node1" class="node">
<title>Map 5</title>
<ellipse fill="none" stroke="#000000" cx="106.2018" cy="-362" rx="32.8992" ry="18"/>
<text text-anchor="middle" x="106.2018" y="-357.8" font-family="Times,serif" font-size="14.00" fill="#000000">Map 5</text>
</g>
<!-- Map 6 -->
<g id="node2" class="node">
<title>Map 6</title>
<ellipse fill="none" stroke="#000000" cx="65.2018" cy="-276" rx="32.8992" ry="18"/>
<text text-anchor="middle" x="65.2018" y="-271.8" font-family="Times,serif" font-size="14.00" fill="#000000">Map 6</text>
</g>
<!-- Map 5&#45;&gt;Map 6 -->
<g id="edge1" class="edge">
<title>Map 5&#45;&gt;Map 6</title>
<path fill="none" stroke="#000000" d="M87.4592,-346.904C81.4092,-341.0286 75.3043,-333.824 71.5602,-326 68.3767,-319.3475 66.6002,-311.6559 65.6493,-304.3304"/>
<polygon fill="#000000" stroke="#000000" points="69.1364,-304.0289 64.7942,-294.3648 62.162,-304.6275 69.1364,-304.0289"/>
<text text-anchor="middle" x="99.0226" y="-314.8" font-family="Times,serif" font-size="14.00" fill="#000000">broadcast</text>
</g>
<!-- Map 1 -->
<g id="node3" class="node">
<title>Map 1</title>
<ellipse fill="none" stroke="#000000" cx="152.2018" cy="-276" rx="32.8992" ry="18"/>
<text text-anchor="middle" x="152.2018" y="-271.8" font-family="Times,serif" font-size="14.00" fill="#000000">Map 1</text>
</g>
<!-- Map 5&#45;&gt;Map 1 -->
<g id="edge2" class="edge">
<title>Map 5&#45;&gt;Map 1</title>
<path fill="none" stroke="#000000" d="M115.5106,-344.5966C121.995,-332.4736 130.7621,-316.0829 138.1004,-302.3635"/>
<polygon fill="#000000" stroke="#000000" points="141.2765,-303.8462 142.9069,-293.3775 135.104,-300.5446 141.2765,-303.8462"/>
<text text-anchor="middle" x="158.0226" y="-314.8" font-family="Times,serif" font-size="14.00" fill="#000000">broadcast</text>
</g>
<!-- Reducer 7 -->
<g id="node6" class="node">
<title>Reducer 7</title>
<ellipse fill="none" stroke="#000000" cx="46.2018" cy="-190" rx="46.4045" ry="18"/>
<text text-anchor="middle" x="46.2018" y="-185.8" font-family="Times,serif" font-size="14.00" fill="#000000">Reducer 7</text>
</g>
<!-- Map 6&#45;&gt;Reducer 7 -->
<g id="edge4" class="edge">
<title>Map 6&#45;&gt;Reducer 7</title>
<path fill="none" stroke="#000000" d="M61.1724,-257.7616C58.6282,-246.2456 55.2898,-231.1353 52.4114,-218.1064"/>
<polygon fill="#000000" stroke="#000000" points="55.8004,-217.2216 50.2254,-208.2121 48.9652,-218.7317 55.8004,-217.2216"/>
<text text-anchor="middle" x="74.3087" y="-228.8" font-family="Times,serif" font-size="14.00" fill="#000000">sorted</text>
</g>
<!-- Reducer 2 -->
<g id="node7" class="node">
<title>Reducer 2</title>
<ellipse fill="none" stroke="#000000" cx="156.2018" cy="-190" rx="46.4045" ry="18"/>
<text text-anchor="middle" x="156.2018" y="-185.8" font-family="Times,serif" font-size="14.00" fill="#000000">Reducer 2</text>
</g>
<!-- Map 1&#45;&gt;Reducer 2 -->
<g id="edge7" class="edge">
<title>Map 1&#45;&gt;Reducer 2</title>
<path fill="none" stroke="#000000" d="M153.0501,-257.7616C153.5804,-246.3597 154.2746,-231.4342 154.8765,-218.494"/>
<polygon fill="#000000" stroke="#000000" points="158.3862,-218.3639 155.3547,-208.2121 151.3938,-218.0387 158.3862,-218.3639"/>
<text text-anchor="middle" x="171.3087" y="-228.8" font-family="Times,serif" font-size="14.00" fill="#000000">sorted</text>
</g>
<!-- Reducer 3 -->
<g id="node4" class="node">
<title>Reducer 3</title>
<ellipse fill="none" stroke="#000000" cx="100.2018" cy="-104" rx="46.4045" ry="18"/>
<text text-anchor="middle" x="100.2018" y="-99.8" font-family="Times,serif" font-size="14.00" fill="#000000">Reducer 3</text>
</g>
<!-- Reducer 4 -->
<g id="node5" class="node">
<title>Reducer 4</title>
<ellipse fill="none" stroke="#000000" cx="100.2018" cy="-18" rx="46.4045" ry="18"/>
<text text-anchor="middle" x="100.2018" y="-13.8" font-family="Times,serif" font-size="14.00" fill="#000000">Reducer 4</text>
</g>
<!-- Reducer 3&#45;&gt;Reducer 4 -->
<g id="edge3" class="edge">
<title>Reducer 3&#45;&gt;Reducer 4</title>
<path fill="none" stroke="#000000" d="M100.2018,-85.7616C100.2018,-74.3597 100.2018,-59.4342 100.2018,-46.494"/>
<polygon fill="#000000" stroke="#000000" points="103.7019,-46.2121 100.2018,-36.2121 96.7019,-46.2121 103.7019,-46.2121"/>
<text text-anchor="middle" x="117.3087" y="-56.8" font-family="Times,serif" font-size="14.00" fill="#000000">sorted</text>
</g>
<!-- Reducer 7&#45;&gt;Reducer 3 -->
<g id="edge6" class="edge">
<title>Reducer 7&#45;&gt;Reducer 3</title>
<path fill="none" stroke="#000000" d="M57.3906,-172.1807C65.0438,-159.9924 75.3137,-143.6367 83.8764,-129.9998"/>
<polygon fill="#000000" stroke="#000000" points="86.8585,-131.8323 89.2121,-121.5022 80.9302,-128.1099 86.8585,-131.8323"/>
<text text-anchor="middle" x="94.3087" y="-142.8" font-family="Times,serif" font-size="14.00" fill="#000000">sorted</text>
</g>
<!-- Reducer 2&#45;&gt;Reducer 3 -->
<g id="edge5" class="edge">
<title>Reducer 2&#45;&gt;Reducer 3</title>
<path fill="none" stroke="#000000" d="M144.5986,-172.1807C136.662,-159.9924 126.0117,-143.6367 117.1319,-129.9998"/>
<polygon fill="#000000" stroke="#000000" points="119.9883,-127.9723 111.5986,-121.5022 114.1224,-131.792 119.9883,-127.9723"/>
<text text-anchor="middle" x="148.3087" y="-142.8" font-family="Times,serif" font-size="14.00" fill="#000000">sorted</text>
</g>
</g>
</svg>
