<?xml version="1.0" encoding="UTF-8" standalone="no"?>
<!DOCTYPE svg PUBLIC "-//W3C//DTD SVG 1.1//EN"
 "http://www.w3.org/Graphics/SVG/1.1/DTD/svg11.dtd">
<!-- Generated by graphviz version 2.40.1 (20161225.0304)
 -->
<!-- Title: %3 Pages: 1 -->
<svg width="274pt" height="474pt"
 viewBox="0.00 0.00 274.15 474.00" xmlns="http://www.w3.org/2000/svg" xmlns:xlink="http://www.w3.org/1999/xlink">
<g id="graph0" class="graph" transform="scale(1 1) rotate(0) translate(4 470)">
<title>%3</title>
<polygon fill="#ffffff" stroke="transparent" points="-4,4 -4,-470 270.1514,-470 270.1514,4 -4,4"/>
<!-- Reducer 3 -->
<g id="node1" class="node">
<title>Reducer 3</title>
<ellipse fill="none" stroke="#000000" cx="128.2018" cy="-104" rx="46.4045" ry="18"/>
<text text-anchor="middle" x="128.2018" y="-99.8" font-family="Times,serif" font-size="14.00" fill="#000000">Reducer 3</text>
</g>
<!-- Reducer 4 -->
<g id="node2" class="node">
<title>Reducer 4</title>
<ellipse fill="none" stroke="#000000" cx="128.2018" cy="-18" rx="46.4045" ry="18"/>
<text text-anchor="middle" x="128.2018" y="-13.8" font-family="Times,serif" font-size="14.00" fill="#000000">Reducer 4</text>
</g>
<!-- Reducer 3&#45;&gt;Reducer 4 -->
<g id="edge1" class="edge">
<title>Reducer 3&#45;&gt;Reducer 4</title>
<path fill="none" stroke="#000000" d="M128.2018,-85.7616C128.2018,-74.3597 128.2018,-59.4342 128.2018,-46.494"/>
<polygon fill="#000000" stroke="#000000" points="131.7019,-46.2121 128.2018,-36.2121 124.7019,-46.2121 131.7019,-46.2121"/>
<text text-anchor="middle" x="145.3087" y="-56.8" font-family="Times,serif" font-size="14.00" fill="#000000">sorted</text>
</g>
<!-- Map 6 -->
<g id="node3" class="node">
<title>Map 6</title>
<ellipse fill="none" stroke="#000000" cx="87.2018" cy="-448" rx="32.8992" ry="18"/>
<text text-anchor="middle" x="87.2018" y="-443.8" font-family="Times,serif" font-size="14.00" fill="#000000">Map 6</text>
</g>
<!-- Reducer 7 -->
<g id="node4" class="node">
<title>Reducer 7</title>
<ellipse fill="none" stroke="#000000" cx="46.2018" cy="-362" rx="46.4045" ry="18"/>
<text text-anchor="middle" x="46.2018" y="-357.8" font-family="Times,serif" font-size="14.00" fill="#000000">Reducer 7</text>
</g>
<!-- Map 6&#45;&gt;Reducer 7 -->
<g id="edge2" class="edge">
<title>Map 6&#45;&gt;Reducer 7</title>
<path fill="none" stroke="#000000" d="M76.2842,-430.7228C72.7941,-424.8835 69.0463,-418.2568 65.9879,-412 62.4532,-404.7687 59.0551,-396.7369 56.1025,-389.2639"/>
<polygon fill="#000000" stroke="#000000" points="59.3514,-387.9608 52.5037,-379.8763 52.8153,-390.4666 59.3514,-387.9608"/>
<text text-anchor="middle" x="90.3087" y="-400.8" font-family="Times,serif" font-size="14.00" fill="#000000">unsorted</text>
</g>
<!-- Map 1 -->
<g id="node7" class="node">
<title>Map 1</title>
<ellipse fill="none" stroke="#000000" cx="128.2018" cy="-276" rx="32.8992" ry="18"/>
<text text-anchor="middle" x="128.2018" y="-271.8" font-family="Times,serif" font-size="14.00" fill="#000000">Map 1</text>
</g>
<!-- Map 6&#45;&gt;Map 1 -->
<g id="edge5" class="edge">
<title>Map 6&#45;&gt;Map 1</title>
<path fill="none" stroke="#000000" d="M102.1723,-431.9353C106.8008,-426.0763 111.4115,-419.1297 114.2018,-412 127.948,-376.8763 130.0232,-332.9559 129.6199,-304.6928"/>
<polygon fill="#000000" stroke="#000000" points="133.1091,-304.2279 129.3498,-294.3225 126.1114,-304.4102 133.1091,-304.2279"/>
<text text-anchor="middle" x="156.0226" y="-357.8" font-family="Times,serif" font-size="14.00" fill="#000000">broadcast</text>
</g>
<!-- Reducer 7&#45;&gt;Map 1 -->
<g id="edge6" class="edge">
<title>Reducer 7&#45;&gt;Map 1</title>
<path fill="none" stroke="#000000" d="M47.9247,-343.738C49.6956,-333.484 53.2852,-320.984 60.5602,-312 68.4088,-302.3078 79.5803,-294.8864 90.5884,-289.3724"/>
<polygon fill="#000000" stroke="#000000" points="92.0917,-292.5336 99.7203,-285.1814 89.1718,-286.1716 92.0917,-292.5336"/>
<text text-anchor="middle" x="88.0226" y="-314.8" font-family="Times,serif" font-size="14.00" fill="#000000">broadcast</text>
</g>
<!-- Reducer 2 -->
<g id="node5" class="node">
<title>Reducer 2</title>
<ellipse fill="none" stroke="#000000" cx="128.2018" cy="-190" rx="46.4045" ry="18"/>
<text text-anchor="middle" x="128.2018" y="-185.8" font-family="Times,serif" font-size="14.00" fill="#000000">Reducer 2</text>
</g>
<!-- Reducer 2&#45;&gt;Reducer 3 -->
<g id="edge3" class="edge">
<title>Reducer 2&#45;&gt;Reducer 3</title>
<path fill="none" stroke="#000000" d="M128.2018,-171.7616C128.2018,-160.3597 128.2018,-145.4342 128.2018,-132.494"/>
<polygon fill="#000000" stroke="#000000" points="131.7019,-132.2121 128.2018,-122.2121 124.7019,-132.2121 131.7019,-132.2121"/>
<text text-anchor="middle" x="145.3087" y="-142.8" font-family="Times,serif" font-size="14.00" fill="#000000">sorted</text>
</g>
<!-- Map 5 -->
<g id="node6" class="node">
<title>Map 5</title>
<ellipse fill="none" stroke="#000000" cx="233.2018" cy="-362" rx="32.8992" ry="18"/>
<text text-anchor="middle" x="233.2018" y="-357.8" font-family="Times,serif" font-size="14.00" fill="#000000">Map 5</text>
</g>
<!-- Map 5&#45;&gt;Map 1 -->
<g id="edge4" class="edge">
<title>Map 5&#45;&gt;Map 1</title>
<path fill="none" stroke="#000000" d="M214.9122,-347.0199C198.2268,-333.3538 173.3757,-312.9996 154.5499,-297.5804"/>
<polygon fill="#000000" stroke="#000000" points="156.5882,-294.7257 146.6341,-291.0969 152.1527,-300.1411 156.5882,-294.7257"/>
<text text-anchor="middle" x="213.0226" y="-314.8" font-family="Times,serif" font-size="14.00" fill="#000000">broadcast</text>
</g>
<!-- Map 1&#45;&gt;Reducer 2 -->
<g id="edge7" class="edge">
<title>Map 1&#45;&gt;Reducer 2</title>
<path fill="none" stroke="#000000" d="M128.2018,-257.7616C128.2018,-246.3597 128.2018,-231.4342 128.2018,-218.494"/>
<polygon fill="#000000" stroke="#000000" points="131.7019,-218.2121 128.2018,-208.2121 124.7019,-218.2121 131.7019,-218.2121"/>
<text text-anchor="middle" x="145.3087" y="-228.8" font-family="Times,serif" font-size="14.00" fill="#000000">sorted</text>
</g>
</g>
</svg>
