<?xml version="1.0" encoding="UTF-8" standalone="no"?>
<!DOCTYPE svg PUBLIC "-//W3C//DTD SVG 1.1//EN"
 "http://www.w3.org/Graphics/SVG/1.1/DTD/svg11.dtd">
<!-- Generated by graphviz version 2.40.1 (20161225.0304)
 -->
<!-- Title: %3 Pages: 1 -->
<svg width="2222pt" height="884pt"
 viewBox="0.00 0.00 2221.74 884.00" xmlns="http://www.w3.org/2000/svg" xmlns:xlink="http://www.w3.org/1999/xlink">
<g id="graph0" class="graph" transform="scale(1 1) rotate(0) translate(4 880)">
<title>%3</title>
<polygon fill="#ffffff" stroke="transparent" points="-4,4 -4,-880 2217.7426,-880 2217.7426,4 -4,4"/>
<!-- Map 17 -->
<g id="node1" class="node">
<title>Map 17</title>
<ellipse fill="none" stroke="#000000" cx="37.3713" cy="-858" rx="37.243" ry="18"/>
<text text-anchor="middle" x="37.3713" y="-853.8" font-family="Times,serif" font-size="14.00" fill="#000000">Map 17</text>
</g>
<!-- Map 1 -->
<g id="node2" class="node">
<title>Map 1</title>
<ellipse fill="none" stroke="#000000" cx="1106.3713" cy="-772" rx="32.8992" ry="18"/>
<text text-anchor="middle" x="1106.3713" y="-767.8" font-family="Times,serif" font-size="14.00" fill="#000000">Map 1</text>
</g>
<!-- Map 17&#45;&gt;Map 1 -->
<g id="edge1" class="edge">
<title>Map 17&#45;&gt;Map 1</title>
<path fill="none" stroke="#000000" d="M58.6919,-843.088C77.0913,-831.1332 104.8702,-815.2056 131.7297,-808 222.3308,-783.6945 886.3729,-774.493 1063.208,-772.4588"/>
<polygon fill="#000000" stroke="#000000" points="1063.4667,-775.9562 1073.4264,-772.3431 1063.3874,-768.9567 1063.4667,-775.9562"/>
<text text-anchor="middle" x="159.1921" y="-810.8" font-family="Times,serif" font-size="14.00" fill="#000000">broadcast</text>
</g>
<!-- Reducer 15 -->
<g id="node26" class="node">
<title>Reducer 15</title>
<ellipse fill="none" stroke="#000000" cx="847.3713" cy="-632" rx="50.7474" ry="18"/>
<text text-anchor="middle" x="847.3713" y="-627.8" font-family="Times,serif" font-size="14.00" fill="#000000">Reducer 15</text>
</g>
<!-- Map 1&#45;&gt;Reducer 15 -->
<g id="edge25" class="edge">
<title>Map 1&#45;&gt;Reducer 15</title>
<path fill="none" stroke="#000000" d="M1073.3615,-769.216C1010.7894,-763.6325 879.8315,-750.3658 865.1574,-736 845.4069,-716.6644 842.7598,-683.9914 843.9156,-660.421"/>
<polygon fill="#000000" stroke="#000000" points="847.416,-660.5443 844.6665,-650.3125 840.4353,-660.0257 847.416,-660.5443"/>
<text text-anchor="middle" x="881.4782" y="-724.8" font-family="Times,serif" font-size="14.00" fill="#000000">sorted</text>
</g>
<!-- Reducer 14 -->
<g id="node27" class="node">
<title>Reducer 14</title>
<ellipse fill="none" stroke="#000000" cx="1286.3713" cy="-416" rx="50.7474" ry="18"/>
<text text-anchor="middle" x="1286.3713" y="-411.8" font-family="Times,serif" font-size="14.00" fill="#000000">Reducer 14</text>
</g>
<!-- Map 1&#45;&gt;Reducer 14 -->
<g id="edge26" class="edge">
<title>Map 1&#45;&gt;Reducer 14</title>
<path fill="none" stroke="#000000" d="M1139.3004,-769.835C1169.7928,-766.4741 1215.2852,-757.8955 1248.3713,-736 1271.6476,-720.5963 1286.3713,-713.9117 1286.3713,-686 1286.3713,-686 1286.3713,-686 1286.3713,-524 1286.3713,-497.0527 1286.3713,-466.3234 1286.3713,-444.5515"/>
<polygon fill="#000000" stroke="#000000" points="1289.8714,-444.3449 1286.3713,-434.345 1282.8714,-444.345 1289.8714,-444.3449"/>
<text text-anchor="middle" x="1303.4782" y="-627.8" font-family="Times,serif" font-size="14.00" fill="#000000">sorted</text>
</g>
<!-- Reducer 16 -->
<g id="node28" class="node">
<title>Reducer 16</title>
<ellipse fill="none" stroke="#000000" cx="1352.3713" cy="-524" rx="50.7474" ry="18"/>
<text text-anchor="middle" x="1352.3713" y="-519.8" font-family="Times,serif" font-size="14.00" fill="#000000">Reducer 16</text>
</g>
<!-- Map 1&#45;&gt;Reducer 16 -->
<g id="edge27" class="edge">
<title>Map 1&#45;&gt;Reducer 16</title>
<path fill="none" stroke="#000000" d="M1139.461,-770.0197C1188.5361,-766.4126 1277.3106,-757.1016 1300.3713,-736 1352.3965,-688.3946 1356.2639,-597.9843 1354.4957,-552.1501"/>
<polygon fill="#000000" stroke="#000000" points="1357.9846,-551.8415 1353.9837,-542.0311 1350.9936,-552.1953 1357.9846,-551.8415"/>
<text text-anchor="middle" x="1357.4782" y="-681.8" font-family="Times,serif" font-size="14.00" fill="#000000">sorted</text>
</g>
<!-- Reducer 11 -->
<g id="node29" class="node">
<title>Reducer 11</title>
<ellipse fill="none" stroke="#000000" cx="980.3713" cy="-632" rx="50.1002" ry="18"/>
<text text-anchor="middle" x="980.3713" y="-627.8" font-family="Times,serif" font-size="14.00" fill="#000000">Reducer 11</text>
</g>
<!-- Map 1&#45;&gt;Reducer 11 -->
<g id="edge28" class="edge">
<title>Map 1&#45;&gt;Reducer 11</title>
<path fill="none" stroke="#000000" d="M1077.4332,-763.2743C1050.7046,-753.5257 1012.486,-734.9108 994.3713,-704 986.624,-690.7801 983.0667,-674.0808 981.472,-660.0936"/>
<polygon fill="#000000" stroke="#000000" points="984.9501,-659.6886 980.5983,-650.0288 977.9764,-660.294 984.9501,-659.6886"/>
<text text-anchor="middle" x="1039.4782" y="-724.8" font-family="Times,serif" font-size="14.00" fill="#000000">sorted</text>
</g>
<!-- Reducer 10 -->
<g id="node30" class="node">
<title>Reducer 10</title>
<ellipse fill="none" stroke="#000000" cx="1164.3713" cy="-686" rx="50.7474" ry="18"/>
<text text-anchor="middle" x="1164.3713" y="-681.8" font-family="Times,serif" font-size="14.00" fill="#000000">Reducer 10</text>
</g>
<!-- Map 1&#45;&gt;Reducer 10 -->
<g id="edge29" class="edge">
<title>Map 1&#45;&gt;Reducer 10</title>
<path fill="none" stroke="#000000" d="M1117.8302,-755.0092C1126.063,-742.802 1137.3169,-726.1151 1146.6959,-712.2083"/>
<polygon fill="#000000" stroke="#000000" points="1149.8483,-713.7937 1152.538,-703.546 1144.0448,-709.8797 1149.8483,-713.7937"/>
<text text-anchor="middle" x="1155.4782" y="-724.8" font-family="Times,serif" font-size="14.00" fill="#000000">sorted</text>
</g>
<!-- Reducer 13 -->
<g id="node31" class="node">
<title>Reducer 13</title>
<ellipse fill="none" stroke="#000000" cx="1212.3713" cy="-632" rx="50.7474" ry="18"/>
<text text-anchor="middle" x="1212.3713" y="-627.8" font-family="Times,serif" font-size="14.00" fill="#000000">Reducer 13</text>
</g>
<!-- Map 1&#45;&gt;Reducer 13 -->
<g id="edge30" class="edge">
<title>Map 1&#45;&gt;Reducer 13</title>
<path fill="none" stroke="#000000" d="M1136.446,-764.4714C1165.1494,-755.4643 1206.5763,-737.2503 1224.3713,-704 1231.637,-690.424 1229.3021,-673.515 1224.8434,-659.4955"/>
<polygon fill="#000000" stroke="#000000" points="1228.0509,-658.0756 1221.3284,-649.8867 1221.477,-660.4805 1228.0509,-658.0756"/>
<text text-anchor="middle" x="1227.4782" y="-724.8" font-family="Times,serif" font-size="14.00" fill="#000000">sorted</text>
</g>
<!-- Reducer 12 -->
<g id="node32" class="node">
<title>Reducer 12</title>
<ellipse fill="none" stroke="#000000" cx="926.3713" cy="-578" rx="50.7474" ry="18"/>
<text text-anchor="middle" x="926.3713" y="-573.8" font-family="Times,serif" font-size="14.00" fill="#000000">Reducer 12</text>
</g>
<!-- Map 1&#45;&gt;Reducer 12 -->
<g id="edge31" class="edge">
<title>Map 1&#45;&gt;Reducer 12</title>
<path fill="none" stroke="#000000" d="M1074.3549,-767.5078C1037.3203,-760.5698 977.2154,-743.6285 944.1574,-704 921.4448,-676.773 920.2201,-634.1609 922.4674,-606.1562"/>
<polygon fill="#000000" stroke="#000000" points="925.9505,-606.4991 923.4611,-596.2009 918.9851,-605.8038 925.9505,-606.4991"/>
<text text-anchor="middle" x="960.4782" y="-681.8" font-family="Times,serif" font-size="14.00" fill="#000000">sorted</text>
</g>
<!-- Reducer 2 -->
<g id="node38" class="node">
<title>Reducer 2</title>
<ellipse fill="none" stroke="#000000" cx="1049.3713" cy="-686" rx="46.4045" ry="18"/>
<text text-anchor="middle" x="1049.3713" y="-681.8" font-family="Times,serif" font-size="14.00" fill="#000000">Reducer 2</text>
</g>
<!-- Map 1&#45;&gt;Reducer 2 -->
<g id="edge42" class="edge">
<title>Map 1&#45;&gt;Reducer 2</title>
<path fill="none" stroke="#000000" d="M1093.2433,-755.4294C1088.6405,-749.4154 1083.5313,-742.5003 1079.1574,-736 1074.1302,-728.5286 1068.9931,-720.1992 1064.4321,-712.5148"/>
<polygon fill="#000000" stroke="#000000" points="1067.4525,-710.7463 1059.3834,-703.8803 1061.4096,-714.2796 1067.4525,-710.7463"/>
<text text-anchor="middle" x="1095.4782" y="-724.8" font-family="Times,serif" font-size="14.00" fill="#000000">sorted</text>
</g>
<!-- Map 18 -->
<g id="node3" class="node">
<title>Map 18</title>
<ellipse fill="none" stroke="#000000" cx="130.3713" cy="-858" rx="37.243" ry="18"/>
<text text-anchor="middle" x="130.3713" y="-853.8" font-family="Times,serif" font-size="14.00" fill="#000000">Map 18</text>
</g>
<!-- Map 18&#45;&gt;Map 1 -->
<g id="edge2" class="edge">
<title>Map 18&#45;&gt;Map 1</title>
<path fill="none" stroke="#000000" d="M151.6991,-843.1148C170.103,-831.1765 197.8843,-815.2578 224.7297,-808 305.9448,-786.043 896.9793,-775.2603 1063.0653,-772.6425"/>
<polygon fill="#000000" stroke="#000000" points="1063.4364,-776.1372 1073.3806,-772.4818 1063.3273,-769.1381 1063.4364,-776.1372"/>
<text text-anchor="middle" x="252.1921" y="-810.8" font-family="Times,serif" font-size="14.00" fill="#000000">broadcast</text>
</g>
<!-- Map 19 -->
<g id="node4" class="node">
<title>Map 19</title>
<ellipse fill="none" stroke="#000000" cx="223.3713" cy="-858" rx="37.243" ry="18"/>
<text text-anchor="middle" x="223.3713" y="-853.8" font-family="Times,serif" font-size="14.00" fill="#000000">Map 19</text>
</g>
<!-- Map 19&#45;&gt;Map 1 -->
<g id="edge3" class="edge">
<title>Map 19&#45;&gt;Map 1</title>
<path fill="none" stroke="#000000" d="M244.7082,-843.148C263.1175,-831.2299 290.9018,-815.3223 317.7297,-808 389.6268,-788.3767 908.6364,-776.1114 1063.1089,-772.8662"/>
<polygon fill="#000000" stroke="#000000" points="1063.2447,-776.3642 1073.1697,-772.6568 1063.099,-769.3657 1063.2447,-776.3642"/>
<text text-anchor="middle" x="345.1921" y="-810.8" font-family="Times,serif" font-size="14.00" fill="#000000">broadcast</text>
</g>
<!-- Map 20 -->
<g id="node5" class="node">
<title>Map 20</title>
<ellipse fill="none" stroke="#000000" cx="316.3713" cy="-858" rx="37.243" ry="18"/>
<text text-anchor="middle" x="316.3713" y="-853.8" font-family="Times,serif" font-size="14.00" fill="#000000">Map 20</text>
</g>
<!-- Map 20&#45;&gt;Map 1 -->
<g id="edge4" class="edge">
<title>Map 20&#45;&gt;Map 1</title>
<path fill="none" stroke="#000000" d="M337.8349,-842.9498C356.0425,-831.0831 383.3389,-815.3512 409.7297,-808 472.3998,-790.5432 920.6522,-777.0289 1063.061,-773.1372"/>
<polygon fill="#000000" stroke="#000000" points="1063.2655,-776.6331 1073.167,-772.8632 1063.0757,-769.6356 1063.2655,-776.6331"/>
<text text-anchor="middle" x="436.1921" y="-810.8" font-family="Times,serif" font-size="14.00" fill="#000000">broadcast</text>
</g>
<!-- Map 21 -->
<g id="node6" class="node">
<title>Map 21</title>
<ellipse fill="none" stroke="#000000" cx="409.3713" cy="-858" rx="37.243" ry="18"/>
<text text-anchor="middle" x="409.3713" y="-853.8" font-family="Times,serif" font-size="14.00" fill="#000000">Map 21</text>
</g>
<!-- Map 21&#45;&gt;Map 1 -->
<g id="edge5" class="edge">
<title>Map 21&#45;&gt;Map 1</title>
<path fill="none" stroke="#000000" d="M430.8503,-843.0047C449.0671,-831.1706 476.3683,-815.4558 502.7297,-808 556.1585,-792.8886 933.5096,-778.1683 1062.932,-773.5122"/>
<polygon fill="#000000" stroke="#000000" points="1063.3781,-776.9986 1073.2467,-773.1436 1063.128,-770.0031 1063.3781,-776.9986"/>
<text text-anchor="middle" x="529.1921" y="-810.8" font-family="Times,serif" font-size="14.00" fill="#000000">broadcast</text>
</g>
<!-- Map 22 -->
<g id="node7" class="node">
<title>Map 22</title>
<ellipse fill="none" stroke="#000000" cx="502.3713" cy="-858" rx="37.243" ry="18"/>
<text text-anchor="middle" x="502.3713" y="-853.8" font-family="Times,serif" font-size="14.00" fill="#000000">Map 22</text>
</g>
<!-- Map 22&#45;&gt;Map 1 -->
<g id="edge6" class="edge">
<title>Map 22&#45;&gt;Map 1</title>
<path fill="none" stroke="#000000" d="M523.8716,-843.0794C542.1011,-831.2897 569.409,-815.5983 595.7297,-808 683.0126,-782.8031 956.5564,-774.8912 1063.1984,-772.7264"/>
<polygon fill="#000000" stroke="#000000" points="1063.3541,-776.2241 1073.2836,-772.5288 1063.2169,-769.2255 1063.3541,-776.2241"/>
<text text-anchor="middle" x="622.1921" y="-810.8" font-family="Times,serif" font-size="14.00" fill="#000000">broadcast</text>
</g>
<!-- Map 23 -->
<g id="node8" class="node">
<title>Map 23</title>
<ellipse fill="none" stroke="#000000" cx="595.3713" cy="-858" rx="37.243" ry="18"/>
<text text-anchor="middle" x="595.3713" y="-853.8" font-family="Times,serif" font-size="14.00" fill="#000000">Map 23</text>
</g>
<!-- Map 23&#45;&gt;Map 1 -->
<g id="edge7" class="edge">
<title>Map 23&#45;&gt;Map 1</title>
<path fill="none" stroke="#000000" d="M616.4937,-842.9362C634.1105,-831.2291 660.3444,-815.7247 685.7297,-808 755.4423,-786.7867 970.6243,-776.8086 1063.2458,-773.4102"/>
<polygon fill="#000000" stroke="#000000" points="1063.525,-776.9025 1073.3931,-773.0463 1063.2741,-769.907 1063.525,-776.9025"/>
<text text-anchor="middle" x="712.1921" y="-810.8" font-family="Times,serif" font-size="14.00" fill="#000000">broadcast</text>
</g>
<!-- Map 24 -->
<g id="node9" class="node">
<title>Map 24</title>
<ellipse fill="none" stroke="#000000" cx="688.3713" cy="-858" rx="37.243" ry="18"/>
<text text-anchor="middle" x="688.3713" y="-853.8" font-family="Times,serif" font-size="14.00" fill="#000000">Map 24</text>
</g>
<!-- Map 24&#45;&gt;Map 1 -->
<g id="edge8" class="edge">
<title>Map 24&#45;&gt;Map 1</title>
<path fill="none" stroke="#000000" d="M708.5788,-842.8297C725.1694,-831.2256 749.7558,-815.914 773.7297,-808 826.4116,-790.6092 985.673,-779.128 1063.1338,-774.4197"/>
<polygon fill="#000000" stroke="#000000" points="1063.7279,-777.8905 1073.5013,-773.8004 1063.3104,-770.903 1063.7279,-777.8905"/>
<text text-anchor="middle" x="800.1921" y="-810.8" font-family="Times,serif" font-size="14.00" fill="#000000">broadcast</text>
</g>
<!-- Map 25 -->
<g id="node10" class="node">
<title>Map 25</title>
<ellipse fill="none" stroke="#000000" cx="781.3713" cy="-858" rx="37.243" ry="18"/>
<text text-anchor="middle" x="781.3713" y="-853.8" font-family="Times,serif" font-size="14.00" fill="#000000">Map 25</text>
</g>
<!-- Map 25&#45;&gt;Map 1 -->
<g id="edge9" class="edge">
<title>Map 25&#45;&gt;Map 1</title>
<path fill="none" stroke="#000000" d="M800.4564,-842.3098C815.389,-830.901 837.1708,-816.0922 858.7297,-808 895.3533,-794.2532 1002.9933,-782.0326 1063.6148,-775.9934"/>
<polygon fill="#000000" stroke="#000000" points="1064.0311,-779.4694 1073.6409,-775.0082 1063.3466,-772.503 1064.0311,-779.4694"/>
<text text-anchor="middle" x="885.1921" y="-810.8" font-family="Times,serif" font-size="14.00" fill="#000000">broadcast</text>
</g>
<!-- Map 26 -->
<g id="node11" class="node">
<title>Map 26</title>
<ellipse fill="none" stroke="#000000" cx="874.3713" cy="-858" rx="37.243" ry="18"/>
<text text-anchor="middle" x="874.3713" y="-853.8" font-family="Times,serif" font-size="14.00" fill="#000000">Map 26</text>
</g>
<!-- Map 26&#45;&gt;Map 1 -->
<g id="edge10" class="edge">
<title>Map 26&#45;&gt;Map 1</title>
<path fill="none" stroke="#000000" d="M891.2849,-841.6737C903.7288,-830.5576 921.5736,-816.3906 939.7297,-808 979.4186,-789.6583 1028.7893,-780.4973 1063.4537,-776.0291"/>
<polygon fill="#000000" stroke="#000000" points="1064.2052,-779.4638 1073.7125,-774.7881 1063.3645,-772.5145 1064.2052,-779.4638"/>
<text text-anchor="middle" x="966.1921" y="-810.8" font-family="Times,serif" font-size="14.00" fill="#000000">broadcast</text>
</g>
<!-- Map 27 -->
<g id="node12" class="node">
<title>Map 27</title>
<ellipse fill="none" stroke="#000000" cx="967.3713" cy="-858" rx="37.243" ry="18"/>
<text text-anchor="middle" x="967.3713" y="-853.8" font-family="Times,serif" font-size="14.00" fill="#000000">Map 27</text>
</g>
<!-- Map 27&#45;&gt;Map 1 -->
<g id="edge11" class="edge">
<title>Map 27&#45;&gt;Map 1</title>
<path fill="none" stroke="#000000" d="M979.9832,-840.8313C988.5237,-830.1974 1000.6103,-816.916 1013.7297,-808 1029.716,-797.1357 1049.4495,-788.8864 1066.5901,-783.0438"/>
<polygon fill="#000000" stroke="#000000" points="1067.9042,-786.2971 1076.3348,-779.8803 1065.7427,-779.6392 1067.9042,-786.2971"/>
<text text-anchor="middle" x="1040.1921" y="-810.8" font-family="Times,serif" font-size="14.00" fill="#000000">broadcast</text>
</g>
<!-- Map 28 -->
<g id="node13" class="node">
<title>Map 28</title>
<ellipse fill="none" stroke="#000000" cx="1060.3713" cy="-858" rx="37.243" ry="18"/>
<text text-anchor="middle" x="1060.3713" y="-853.8" font-family="Times,serif" font-size="14.00" fill="#000000">Map 28</text>
</g>
<!-- Map 28&#45;&gt;Map 1 -->
<g id="edge12" class="edge">
<title>Map 28&#45;&gt;Map 1</title>
<path fill="none" stroke="#000000" d="M1065.0755,-839.7904C1067.9918,-830.0252 1072.2361,-817.9823 1077.7297,-808 1079.9114,-804.0357 1082.5303,-800.0628 1085.286,-796.2794"/>
<polygon fill="#000000" stroke="#000000" points="1088.0536,-798.4218 1091.4205,-788.3761 1082.524,-794.1296 1088.0536,-798.4218"/>
<text text-anchor="middle" x="1104.1921" y="-810.8" font-family="Times,serif" font-size="14.00" fill="#000000">broadcast</text>
</g>
<!-- Map 29 -->
<g id="node14" class="node">
<title>Map 29</title>
<ellipse fill="none" stroke="#000000" cx="1153.3713" cy="-858" rx="37.243" ry="18"/>
<text text-anchor="middle" x="1153.3713" y="-853.8" font-family="Times,serif" font-size="14.00" fill="#000000">Map 29</text>
</g>
<!-- Map 29&#45;&gt;Map 1 -->
<g id="edge13" class="edge">
<title>Map 29&#45;&gt;Map 1</title>
<path fill="none" stroke="#000000" d="M1146.4409,-840.0111C1142.4611,-830.3105 1137.1198,-818.259 1131.3713,-808 1129.3778,-804.4424 1127.1233,-800.7965 1124.8044,-797.2553"/>
<polygon fill="#000000" stroke="#000000" points="1127.5474,-795.0654 1119.0197,-788.7782 1121.7653,-799.0111 1127.5474,-795.0654"/>
<text text-anchor="middle" x="1164.1921" y="-810.8" font-family="Times,serif" font-size="14.00" fill="#000000">broadcast</text>
</g>
<!-- Map 30 -->
<g id="node15" class="node">
<title>Map 30</title>
<ellipse fill="none" stroke="#000000" cx="1246.3713" cy="-858" rx="37.243" ry="18"/>
<text text-anchor="middle" x="1246.3713" y="-853.8" font-family="Times,serif" font-size="14.00" fill="#000000">Map 30</text>
</g>
<!-- Map 30&#45;&gt;Map 1 -->
<g id="edge14" class="edge">
<title>Map 30&#45;&gt;Map 1</title>
<path fill="none" stroke="#000000" d="M1232.1326,-840.9599C1222.5918,-830.3773 1209.27,-817.1047 1195.3713,-808 1180.0151,-797.9405 1161.3982,-789.8732 1145.169,-783.9459"/>
<polygon fill="#000000" stroke="#000000" points="1146.0178,-780.5348 1135.423,-780.5332 1143.7043,-787.1415 1146.0178,-780.5348"/>
<text text-anchor="middle" x="1238.1921" y="-810.8" font-family="Times,serif" font-size="14.00" fill="#000000">broadcast</text>
</g>
<!-- Map 31 -->
<g id="node16" class="node">
<title>Map 31</title>
<ellipse fill="none" stroke="#000000" cx="1339.3713" cy="-858" rx="37.243" ry="18"/>
<text text-anchor="middle" x="1339.3713" y="-853.8" font-family="Times,serif" font-size="14.00" fill="#000000">Map 31</text>
</g>
<!-- Map 31&#45;&gt;Map 1 -->
<g id="edge15" class="edge">
<title>Map 31&#45;&gt;Map 1</title>
<path fill="none" stroke="#000000" d="M1321.3314,-841.9799C1307.8905,-830.8619 1288.6091,-816.5636 1269.3713,-808 1230.5014,-790.6972 1182.6057,-781.4004 1148.8203,-776.6175"/>
<polygon fill="#000000" stroke="#000000" points="1149.1906,-773.1359 1138.8138,-775.2742 1148.2592,-780.0736 1149.1906,-773.1359"/>
<text text-anchor="middle" x="1320.1921" y="-810.8" font-family="Times,serif" font-size="14.00" fill="#000000">broadcast</text>
</g>
<!-- Map 32 -->
<g id="node17" class="node">
<title>Map 32</title>
<ellipse fill="none" stroke="#000000" cx="1432.3713" cy="-858" rx="37.243" ry="18"/>
<text text-anchor="middle" x="1432.3713" y="-853.8" font-family="Times,serif" font-size="14.00" fill="#000000">Map 32</text>
</g>
<!-- Map 32&#45;&gt;Map 1 -->
<g id="edge16" class="edge">
<title>Map 32&#45;&gt;Map 1</title>
<path fill="none" stroke="#000000" d="M1412.5905,-842.5787C1396.8814,-831.1558 1373.8855,-816.2046 1351.3713,-808 1315.1715,-794.8081 1209.561,-782.4413 1149.4809,-776.2109"/>
<polygon fill="#000000" stroke="#000000" points="1149.4808,-772.6927 1139.1764,-775.1562 1148.768,-779.6563 1149.4808,-772.6927"/>
<text text-anchor="middle" x="1406.1921" y="-810.8" font-family="Times,serif" font-size="14.00" fill="#000000">broadcast</text>
</g>
<!-- Map 33 -->
<g id="node18" class="node">
<title>Map 33</title>
<ellipse fill="none" stroke="#000000" cx="1525.3713" cy="-858" rx="37.243" ry="18"/>
<text text-anchor="middle" x="1525.3713" y="-853.8" font-family="Times,serif" font-size="14.00" fill="#000000">Map 33</text>
</g>
<!-- Map 33&#45;&gt;Map 1 -->
<g id="edge17" class="edge">
<title>Map 33&#45;&gt;Map 1</title>
<path fill="none" stroke="#000000" d="M1504.4641,-842.8447C1487.318,-831.2491 1461.9505,-815.9416 1437.3713,-808 1384.9035,-791.0475 1226.8132,-779.3689 1149.6632,-774.5185"/>
<polygon fill="#000000" stroke="#000000" points="1149.5306,-771.0037 1139.3335,-773.8795 1149.0984,-777.9903 1149.5306,-771.0037"/>
<text text-anchor="middle" x="1494.1921" y="-810.8" font-family="Times,serif" font-size="14.00" fill="#000000">broadcast</text>
</g>
<!-- Map 34 -->
<g id="node19" class="node">
<title>Map 34</title>
<ellipse fill="none" stroke="#000000" cx="1618.3713" cy="-858" rx="37.243" ry="18"/>
<text text-anchor="middle" x="1618.3713" y="-853.8" font-family="Times,serif" font-size="14.00" fill="#000000">Map 34</text>
</g>
<!-- Map 34&#45;&gt;Map 1 -->
<g id="edge18" class="edge">
<title>Map 34&#45;&gt;Map 1</title>
<path fill="none" stroke="#000000" d="M1596.9312,-843.1837C1578.7585,-831.4562 1551.5484,-815.7975 1525.3713,-808 1455.8897,-787.3033 1242.0512,-777.0529 1149.6453,-773.4966"/>
<polygon fill="#000000" stroke="#000000" points="1149.6424,-769.9941 1139.5177,-773.115 1149.3788,-776.9892 1149.6424,-769.9941"/>
<text text-anchor="middle" x="1584.1921" y="-810.8" font-family="Times,serif" font-size="14.00" fill="#000000">broadcast</text>
</g>
<!-- Map 35 -->
<g id="node20" class="node">
<title>Map 35</title>
<ellipse fill="none" stroke="#000000" cx="1711.3713" cy="-858" rx="37.243" ry="18"/>
<text text-anchor="middle" x="1711.3713" y="-853.8" font-family="Times,serif" font-size="14.00" fill="#000000">Map 35</text>
</g>
<!-- Map 35&#45;&gt;Map 1 -->
<g id="edge19" class="edge">
<title>Map 35&#45;&gt;Map 1</title>
<path fill="none" stroke="#000000" d="M1689.5762,-843.3242C1670.7936,-831.5136 1642.4968,-815.6649 1615.3713,-808 1528.2272,-783.3755 1255.6475,-775.1218 1149.3882,-772.796"/>
<polygon fill="#000000" stroke="#000000" points="1149.4112,-769.2958 1139.3392,-772.583 1149.2628,-776.2943 1149.4112,-769.2958"/>
<text text-anchor="middle" x="1677.1921" y="-810.8" font-family="Times,serif" font-size="14.00" fill="#000000">broadcast</text>
</g>
<!-- Map 36 -->
<g id="node21" class="node">
<title>Map 36</title>
<ellipse fill="none" stroke="#000000" cx="1804.3713" cy="-858" rx="37.243" ry="18"/>
<text text-anchor="middle" x="1804.3713" y="-853.8" font-family="Times,serif" font-size="14.00" fill="#000000">Map 36</text>
</g>
<!-- Map 36&#45;&gt;Map 1 -->
<g id="edge20" class="edge">
<title>Map 36&#45;&gt;Map 1</title>
<path fill="none" stroke="#000000" d="M1782.5975,-843.2483C1763.8278,-831.3913 1735.5381,-815.5172 1708.3713,-808 1603.0725,-778.8631 1269.3631,-773.3071 1149.6447,-772.2487"/>
<polygon fill="#000000" stroke="#000000" points="1149.4303,-768.747 1139.4019,-772.1647 1149.3728,-775.7467 1149.4303,-768.747"/>
<text text-anchor="middle" x="1770.1921" y="-810.8" font-family="Times,serif" font-size="14.00" fill="#000000">broadcast</text>
</g>
<!-- Map 37 -->
<g id="node22" class="node">
<title>Map 37</title>
<ellipse fill="none" stroke="#000000" cx="1897.3713" cy="-858" rx="37.243" ry="18"/>
<text text-anchor="middle" x="1897.3713" y="-853.8" font-family="Times,serif" font-size="14.00" fill="#000000">Map 37</text>
</g>
<!-- Map 37&#45;&gt;Map 1 -->
<g id="edge21" class="edge">
<title>Map 37&#45;&gt;Map 1</title>
<path fill="none" stroke="#000000" d="M1875.6128,-843.1925C1856.8524,-831.3016 1828.5678,-815.4088 1801.3713,-808 1738.7502,-790.9409 1291.621,-777.1567 1149.5719,-773.168"/>
<polygon fill="#000000" stroke="#000000" points="1149.5851,-769.6671 1139.4915,-772.8871 1149.3901,-776.6644 1149.5851,-769.6671"/>
<text text-anchor="middle" x="1863.1921" y="-810.8" font-family="Times,serif" font-size="14.00" fill="#000000">broadcast</text>
</g>
<!-- Map 38 -->
<g id="node23" class="node">
<title>Map 38</title>
<ellipse fill="none" stroke="#000000" cx="1990.3713" cy="-858" rx="37.243" ry="18"/>
<text text-anchor="middle" x="1990.3713" y="-853.8" font-family="Times,serif" font-size="14.00" fill="#000000">Map 38</text>
</g>
<!-- Map 38&#45;&gt;Map 1 -->
<g id="edge22" class="edge">
<title>Map 38&#45;&gt;Map 1</title>
<path fill="none" stroke="#000000" d="M1968.6243,-843.1498C1949.871,-831.2329 1921.5903,-815.3258 1894.3713,-808 1822.4638,-788.6465 1303.9246,-776.1925 1149.5938,-772.8845"/>
<polygon fill="#000000" stroke="#000000" points="1149.6144,-769.3842 1139.5423,-772.671 1149.4657,-776.3827 1149.6144,-769.3842"/>
<text text-anchor="middle" x="1956.1921" y="-810.8" font-family="Times,serif" font-size="14.00" fill="#000000">broadcast</text>
</g>
<!-- Map 39 -->
<g id="node24" class="node">
<title>Map 39</title>
<ellipse fill="none" stroke="#000000" cx="2083.3713" cy="-858" rx="37.243" ry="18"/>
<text text-anchor="middle" x="2083.3713" y="-853.8" font-family="Times,serif" font-size="14.00" fill="#000000">Map 39</text>
</g>
<!-- Map 39&#45;&gt;Map 1 -->
<g id="edge23" class="edge">
<title>Map 39&#45;&gt;Map 1</title>
<path fill="none" stroke="#000000" d="M2061.6334,-843.1161C2042.8856,-831.1786 2014.6078,-815.2603 1987.3713,-808 1906.1381,-786.3461 1315.589,-775.3463 1149.6411,-772.6608"/>
<polygon fill="#000000" stroke="#000000" points="1149.3891,-769.1564 1139.3344,-772.4959 1149.2771,-776.1555 1149.3891,-769.1564"/>
<text text-anchor="middle" x="2049.1921" y="-810.8" font-family="Times,serif" font-size="14.00" fill="#000000">broadcast</text>
</g>
<!-- Map 40 -->
<g id="node25" class="node">
<title>Map 40</title>
<ellipse fill="none" stroke="#000000" cx="2176.3713" cy="-858" rx="37.243" ry="18"/>
<text text-anchor="middle" x="2176.3713" y="-853.8" font-family="Times,serif" font-size="14.00" fill="#000000">Map 40</text>
</g>
<!-- Map 40&#45;&gt;Map 1 -->
<g id="edge24" class="edge">
<title>Map 40&#45;&gt;Map 1</title>
<path fill="none" stroke="#000000" d="M2154.6406,-843.0888C2135.8972,-831.1346 2107.6219,-815.2072 2080.3713,-808 1989.7945,-784.0443 1326.9353,-774.5939 1149.795,-772.4806"/>
<polygon fill="#000000" stroke="#000000" points="1149.5965,-768.9781 1139.556,-772.3602 1149.5141,-775.9776 1149.5965,-768.9781"/>
<text text-anchor="middle" x="2142.1921" y="-810.8" font-family="Times,serif" font-size="14.00" fill="#000000">broadcast</text>
</g>
<!-- Reducer 8 -->
<g id="node40" class="node">
<title>Reducer 8</title>
<ellipse fill="none" stroke="#000000" cx="1248.3713" cy="-104" rx="46.4045" ry="18"/>
<text text-anchor="middle" x="1248.3713" y="-99.8" font-family="Times,serif" font-size="14.00" fill="#000000">Reducer 8</text>
</g>
<!-- Reducer 15&#45;&gt;Reducer 8 -->
<g id="edge45" class="edge">
<title>Reducer 15&#45;&gt;Reducer 8</title>
<path fill="none" stroke="#000000" d="M847.3713,-613.655C847.3713,-592.168 847.3713,-555.5 847.3713,-524 847.3713,-524 847.3713,-524 847.3713,-190 847.3713,-155.0378 1083.4243,-123.0997 1193.3106,-110.1262"/>
<polygon fill="#000000" stroke="#000000" points="1194.0128,-113.568 1203.5387,-108.9304 1193.1999,-106.6154 1194.0128,-113.568"/>
<text text-anchor="middle" x="862.5334" y="-357.8" font-family="Times,serif" font-size="14.00" fill="#000000">None</text>
</g>
<!-- Reducer 7 -->
<g id="node36" class="node">
<title>Reducer 7</title>
<ellipse fill="none" stroke="#000000" cx="1248.3713" cy="-190" rx="46.4045" ry="18"/>
<text text-anchor="middle" x="1248.3713" y="-185.8" font-family="Times,serif" font-size="14.00" fill="#000000">Reducer 7</text>
</g>
<!-- Reducer 14&#45;&gt;Reducer 7 -->
<g id="edge36" class="edge">
<title>Reducer 14&#45;&gt;Reducer 7</title>
<path fill="none" stroke="#000000" d="M1286.595,-397.7739C1286.5513,-363.4388 1284.2312,-287.1276 1266.3713,-226 1265.498,-223.0111 1264.3833,-219.9719 1263.1378,-216.9905"/>
<polygon fill="#000000" stroke="#000000" points="1266.248,-215.3787 1258.8483,-207.7961 1259.9044,-218.3382 1266.248,-215.3787"/>
<text text-anchor="middle" x="1298.5334" y="-314.8" font-family="Times,serif" font-size="14.00" fill="#000000">None</text>
</g>
<!-- Reducer 9 -->
<g id="node39" class="node">
<title>Reducer 9</title>
<ellipse fill="none" stroke="#000000" cx="1282.3713" cy="-18" rx="46.4045" ry="18"/>
<text text-anchor="middle" x="1282.3713" y="-13.8" font-family="Times,serif" font-size="14.00" fill="#000000">Reducer 9</text>
</g>
<!-- Reducer 16&#45;&gt;Reducer 9 -->
<g id="edge43" class="edge">
<title>Reducer 16&#45;&gt;Reducer 9</title>
<path fill="none" stroke="#000000" d="M1352.3713,-505.655C1352.3713,-484.168 1352.3713,-447.5 1352.3713,-416 1352.3713,-416 1352.3713,-416 1352.3713,-104 1352.3713,-78.1236 1333.0735,-55.7115 1314.7427,-40.2596"/>
<polygon fill="#000000" stroke="#000000" points="1316.4637,-37.1557 1306.4613,-33.6623 1312.102,-42.6308 1316.4637,-37.1557"/>
<text text-anchor="middle" x="1367.5334" y="-271.8" font-family="Times,serif" font-size="14.00" fill="#000000">None</text>
</g>
<!-- Reducer 4 -->
<g id="node34" class="node">
<title>Reducer 4</title>
<ellipse fill="none" stroke="#000000" cx="1069.3713" cy="-470" rx="46.4045" ry="18"/>
<text text-anchor="middle" x="1069.3713" y="-465.8" font-family="Times,serif" font-size="14.00" fill="#000000">Reducer 4</text>
</g>
<!-- Reducer 11&#45;&gt;Reducer 4 -->
<g id="edge34" class="edge">
<title>Reducer 11&#45;&gt;Reducer 4</title>
<path fill="none" stroke="#000000" d="M990.2359,-614.0442C1005.8065,-585.7022 1036.1828,-530.4104 1054.437,-497.1837"/>
<polygon fill="#000000" stroke="#000000" points="1057.715,-498.486 1059.4625,-488.0362 1051.5799,-495.1154 1057.715,-498.486"/>
<text text-anchor="middle" x="1033.5334" y="-573.8" font-family="Times,serif" font-size="14.00" fill="#000000">None</text>
</g>
<!-- Reducer 3 -->
<g id="node35" class="node">
<title>Reducer 3</title>
<ellipse fill="none" stroke="#000000" cx="1108.3713" cy="-578" rx="46.4045" ry="18"/>
<text text-anchor="middle" x="1108.3713" y="-573.8" font-family="Times,serif" font-size="14.00" fill="#000000">Reducer 3</text>
</g>
<!-- Reducer 10&#45;&gt;Reducer 3 -->
<g id="edge40" class="edge">
<title>Reducer 10&#45;&gt;Reducer 3</title>
<path fill="none" stroke="#000000" d="M1140.0107,-670.0515C1133.2305,-664.4784 1126.5093,-657.6714 1122.0471,-650 1114.3492,-636.7661 1110.8665,-620.0659 1109.337,-606.0818"/>
<polygon fill="#000000" stroke="#000000" points="1112.8175,-605.6998 1108.5107,-596.0199 1105.841,-606.2728 1112.8175,-605.6998"/>
<text text-anchor="middle" x="1136.5334" y="-627.8" font-family="Times,serif" font-size="14.00" fill="#000000">None</text>
</g>
<!-- Reducer 6 -->
<g id="node37" class="node">
<title>Reducer 6</title>
<ellipse fill="none" stroke="#000000" cx="1212.3713" cy="-276" rx="46.4045" ry="18"/>
<text text-anchor="middle" x="1212.3713" y="-271.8" font-family="Times,serif" font-size="14.00" fill="#000000">Reducer 6</text>
</g>
<!-- Reducer 13&#45;&gt;Reducer 6 -->
<g id="edge38" class="edge">
<title>Reducer 13&#45;&gt;Reducer 6</title>
<path fill="none" stroke="#000000" d="M1212.3713,-613.655C1212.3713,-592.168 1212.3713,-555.5 1212.3713,-524 1212.3713,-524 1212.3713,-524 1212.3713,-362 1212.3713,-342.7711 1212.3713,-321.1237 1212.3713,-304.358"/>
<polygon fill="#000000" stroke="#000000" points="1215.8714,-304.1198 1212.3713,-294.1199 1208.8714,-304.1199 1215.8714,-304.1198"/>
<text text-anchor="middle" x="1227.5334" y="-465.8" font-family="Times,serif" font-size="14.00" fill="#000000">None</text>
</g>
<!-- Reducer 5 -->
<g id="node33" class="node">
<title>Reducer 5</title>
<ellipse fill="none" stroke="#000000" cx="1069.3713" cy="-362" rx="46.4045" ry="18"/>
<text text-anchor="middle" x="1069.3713" y="-357.8" font-family="Times,serif" font-size="14.00" fill="#000000">Reducer 5</text>
</g>
<!-- Reducer 12&#45;&gt;Reducer 5 -->
<g id="edge32" class="edge">
<title>Reducer 12&#45;&gt;Reducer 5</title>
<path fill="none" stroke="#000000" d="M932.4964,-559.9199C941.5581,-534.5412 960.0797,-487.4876 984.0471,-452 1000.9177,-427.0203 1024.8542,-402.4456 1043.0827,-385.3038"/>
<polygon fill="#000000" stroke="#000000" points="1045.5455,-387.7934 1050.5082,-378.4328 1040.7913,-382.6555 1045.5455,-387.7934"/>
<text text-anchor="middle" x="998.5334" y="-465.8" font-family="Times,serif" font-size="14.00" fill="#000000">None</text>
</g>
<!-- Reducer 5&#45;&gt;Reducer 6 -->
<g id="edge39" class="edge">
<title>Reducer 5&#45;&gt;Reducer 6</title>
<path fill="none" stroke="#000000" d="M1094.6077,-346.8229C1117.8462,-332.8472 1152.5112,-311.9998 1178.2197,-296.5387"/>
<polygon fill="#000000" stroke="#000000" points="1180.1404,-299.4679 1186.9062,-291.3147 1176.5327,-293.4691 1180.1404,-299.4679"/>
<text text-anchor="middle" x="1164.5334" y="-314.8" font-family="Times,serif" font-size="14.00" fill="#000000">None</text>
</g>
<!-- Reducer 4&#45;&gt;Reducer 5 -->
<g id="edge33" class="edge">
<title>Reducer 4&#45;&gt;Reducer 5</title>
<path fill="none" stroke="#000000" d="M1069.3713,-451.6793C1069.3713,-434.821 1069.3713,-409.5651 1069.3713,-390.147"/>
<polygon fill="#000000" stroke="#000000" points="1072.8714,-390.0501 1069.3713,-380.0502 1065.8714,-390.0502 1072.8714,-390.0501"/>
<text text-anchor="middle" x="1084.5334" y="-411.8" font-family="Times,serif" font-size="14.00" fill="#000000">None</text>
</g>
<!-- Reducer 3&#45;&gt;Reducer 4 -->
<g id="edge35" class="edge">
<title>Reducer 3&#45;&gt;Reducer 4</title>
<path fill="none" stroke="#000000" d="M1101.9312,-560.166C1095.7778,-543.1257 1086.4132,-517.1929 1079.304,-497.506"/>
<polygon fill="#000000" stroke="#000000" points="1082.5094,-496.0773 1075.8209,-487.8605 1075.9255,-498.4548 1082.5094,-496.0773"/>
<text text-anchor="middle" x="1109.5334" y="-519.8" font-family="Times,serif" font-size="14.00" fill="#000000">None</text>
</g>
<!-- Reducer 7&#45;&gt;Reducer 8 -->
<g id="edge46" class="edge">
<title>Reducer 7&#45;&gt;Reducer 8</title>
<path fill="none" stroke="#000000" d="M1248.3713,-171.7616C1248.3713,-160.3597 1248.3713,-145.4342 1248.3713,-132.494"/>
<polygon fill="#000000" stroke="#000000" points="1251.8714,-132.2121 1248.3713,-122.2121 1244.8714,-132.2121 1251.8714,-132.2121"/>
<text text-anchor="middle" x="1263.5334" y="-142.8" font-family="Times,serif" font-size="14.00" fill="#000000">None</text>
</g>
<!-- Reducer 6&#45;&gt;Reducer 7 -->
<g id="edge37" class="edge">
<title>Reducer 6&#45;&gt;Reducer 7</title>
<path fill="none" stroke="#000000" d="M1219.8305,-258.1807C1224.8023,-246.3038 1231.4306,-230.4695 1237.048,-217.05"/>
<polygon fill="#000000" stroke="#000000" points="1240.2887,-218.3724 1240.9216,-207.7964 1233.8316,-215.6693 1240.2887,-218.3724"/>
<text text-anchor="middle" x="1247.5334" y="-228.8" font-family="Times,serif" font-size="14.00" fill="#000000">None</text>
</g>
<!-- Reducer 2&#45;&gt;Reducer 3 -->
<g id="edge41" class="edge">
<title>Reducer 2&#45;&gt;Reducer 3</title>
<path fill="none" stroke="#000000" d="M1053.9882,-667.9939C1058.3293,-652.8942 1065.7113,-631.117 1076.0471,-614 1078.4066,-610.0924 1081.221,-606.2216 1084.1908,-602.5479"/>
<polygon fill="#000000" stroke="#000000" points="1086.9267,-604.7351 1090.8242,-594.8831 1081.6337,-600.1543 1086.9267,-604.7351"/>
<text text-anchor="middle" x="1090.5334" y="-627.8" font-family="Times,serif" font-size="14.00" fill="#000000">None</text>
</g>
<!-- Reducer 8&#45;&gt;Reducer 9 -->
<g id="edge44" class="edge">
<title>Reducer 8&#45;&gt;Reducer 9</title>
<path fill="none" stroke="#000000" d="M1255.4161,-86.1807C1260.0661,-74.4191 1266.2503,-58.7766 1271.5223,-45.4416"/>
<polygon fill="#000000" stroke="#000000" points="1274.9137,-46.3829 1275.3355,-35.7964 1268.404,-43.8092 1274.9137,-46.3829"/>
<text text-anchor="middle" x="1282.5334" y="-56.8" font-family="Times,serif" font-size="14.00" fill="#000000">None</text>
</g>
</g>
</svg>
