<?xml version="1.0" encoding="UTF-8" standalone="no"?>
<!DOCTYPE svg PUBLIC "-//W3C//DTD SVG 1.1//EN"
 "http://www.w3.org/Graphics/SVG/1.1/DTD/svg11.dtd">
<!-- Generated by graphviz version 2.40.1 (20161225.0304)
 -->
<!-- Title: %3 Pages: 1 -->
<svg width="502pt" height="582pt"
 viewBox="0.00 0.00 501.90 582.00" xmlns="http://www.w3.org/2000/svg" xmlns:xlink="http://www.w3.org/1999/xlink">
<g id="graph0" class="graph" transform="scale(1 1) rotate(0) translate(4 578)">
<title>%3</title>
<polygon fill="#ffffff" stroke="transparent" points="-4,4 -4,-578 497.8991,-578 497.8991,4 -4,4"/>
<!-- Map 1 -->
<g id="node1" class="node">
<title>Map 1</title>
<ellipse fill="none" stroke="#000000" cx="248.9496" cy="-384" rx="32.8992" ry="18"/>
<text text-anchor="middle" x="248.9496" y="-379.8" font-family="Times,serif" font-size="14.00" fill="#000000">Map 1</text>
</g>
<!-- Map 6 -->
<g id="node2" class="node">
<title>Map 6</title>
<ellipse fill="none" stroke="#000000" cx="209.9496" cy="-244" rx="32.8992" ry="18"/>
<text text-anchor="middle" x="209.9496" y="-239.8" font-family="Times,serif" font-size="14.00" fill="#000000">Map 6</text>
</g>
<!-- Map 1&#45;&gt;Map 6 -->
<g id="edge1" class="edge">
<title>Map 1&#45;&gt;Map 6</title>
<path fill="none" stroke="#000000" d="M227.2359,-370.451C219.7934,-364.5566 212.3315,-356.9391 208.308,-348 197.4798,-323.9433 199.5451,-293.4738 203.3142,-271.7454"/>
<polygon fill="#000000" stroke="#000000" points="206.7655,-272.3335 205.2524,-261.8473 199.8959,-270.9884 206.7655,-272.3335"/>
<text text-anchor="middle" x="234.7704" y="-336.8" font-family="Times,serif" font-size="14.00" fill="#000000">broadcast</text>
</g>
<!-- Map 11 -->
<g id="node12" class="node">
<title>Map 11</title>
<ellipse fill="none" stroke="#000000" cx="287.9496" cy="-298" rx="37.0949" ry="18"/>
<text text-anchor="middle" x="287.9496" y="-293.8" font-family="Times,serif" font-size="14.00" fill="#000000">Map 11</text>
</g>
<!-- Map 1&#45;&gt;Map 11 -->
<g id="edge14" class="edge">
<title>Map 1&#45;&gt;Map 11</title>
<path fill="none" stroke="#000000" d="M257.3444,-366.4655C260.1176,-360.6091 263.1965,-354.0373 265.9496,-348 269.3422,-340.5603 272.945,-332.4604 276.2316,-324.9889"/>
<polygon fill="#000000" stroke="#000000" points="279.5214,-326.2015 280.3258,-315.6373 273.109,-323.3941 279.5214,-326.2015"/>
<text text-anchor="middle" x="298.7704" y="-336.8" font-family="Times,serif" font-size="14.00" fill="#000000">broadcast</text>
</g>
<!-- Reducer 7 -->
<g id="node13" class="node">
<title>Reducer 7</title>
<ellipse fill="none" stroke="#000000" cx="225.9496" cy="-18" rx="46.4045" ry="18"/>
<text text-anchor="middle" x="225.9496" y="-13.8" font-family="Times,serif" font-size="14.00" fill="#000000">Reducer 7</text>
</g>
<!-- Map 6&#45;&gt;Reducer 7 -->
<g id="edge11" class="edge">
<title>Map 6&#45;&gt;Reducer 7</title>
<path fill="none" stroke="#000000" d="M211.2319,-225.8875C214.0112,-186.6289 220.6083,-93.4447 223.9443,-46.3243"/>
<polygon fill="#000000" stroke="#000000" points="227.4461,-46.421 224.6612,-36.1988 220.4636,-45.9266 227.4461,-46.421"/>
<text text-anchor="middle" x="234.0565" y="-142.8" font-family="Times,serif" font-size="14.00" fill="#000000">sorted</text>
</g>
<!-- Map 3 -->
<g id="node3" class="node">
<title>Map 3</title>
<ellipse fill="none" stroke="#000000" cx="73.9496" cy="-556" rx="32.8992" ry="18"/>
<text text-anchor="middle" x="73.9496" y="-551.8" font-family="Times,serif" font-size="14.00" fill="#000000">Map 3</text>
</g>
<!-- Map 4 -->
<g id="node4" class="node">
<title>Map 4</title>
<ellipse fill="none" stroke="#000000" cx="32.9496" cy="-470" rx="32.8992" ry="18"/>
<text text-anchor="middle" x="32.9496" y="-465.8" font-family="Times,serif" font-size="14.00" fill="#000000">Map 4</text>
</g>
<!-- Map 3&#45;&gt;Map 4 -->
<g id="edge2" class="edge">
<title>Map 3&#45;&gt;Map 4</title>
<path fill="none" stroke="#000000" d="M55.207,-540.904C49.1569,-535.0286 43.052,-527.824 39.308,-520 36.1245,-513.3475 34.348,-505.6559 33.3971,-498.3304"/>
<polygon fill="#000000" stroke="#000000" points="36.8842,-498.0289 32.542,-488.3648 29.9098,-498.6275 36.8842,-498.0289"/>
<text text-anchor="middle" x="66.7704" y="-508.8" font-family="Times,serif" font-size="14.00" fill="#000000">broadcast</text>
</g>
<!-- Map 8 -->
<g id="node8" class="node">
<title>Map 8</title>
<ellipse fill="none" stroke="#000000" cx="116.9496" cy="-470" rx="32.8992" ry="18"/>
<text text-anchor="middle" x="116.9496" y="-465.8" font-family="Times,serif" font-size="14.00" fill="#000000">Map 8</text>
</g>
<!-- Map 3&#45;&gt;Map 8 -->
<g id="edge13" class="edge">
<title>Map 3&#45;&gt;Map 8</title>
<path fill="none" stroke="#000000" d="M83.3615,-538.4913C86.4629,-532.6365 89.8978,-526.0592 92.9496,-520 96.7259,-512.5022 100.7138,-504.312 104.3311,-496.7706"/>
<polygon fill="#000000" stroke="#000000" points="107.5274,-498.1991 108.671,-487.6662 101.2086,-495.187 107.5274,-498.1991"/>
<text text-anchor="middle" x="125.7704" y="-508.8" font-family="Times,serif" font-size="14.00" fill="#000000">broadcast</text>
</g>
<!-- Map 4&#45;&gt;Map 1 -->
<g id="edge5" class="edge">
<title>Map 4&#45;&gt;Map 1</title>
<path fill="none" stroke="#000000" d="M45.3388,-453.0892C54.3641,-442.0004 67.5545,-428.1041 82.308,-420 103.398,-408.4151 164.9201,-397.024 207.0073,-390.2537"/>
<polygon fill="#000000" stroke="#000000" points="207.6572,-393.6945 216.988,-388.6758 206.5641,-386.7804 207.6572,-393.6945"/>
<text text-anchor="middle" x="108.7704" y="-422.8" font-family="Times,serif" font-size="14.00" fill="#000000">broadcast</text>
</g>
<!-- Map 10 -->
<g id="node5" class="node">
<title>Map 10</title>
<ellipse fill="none" stroke="#000000" cx="204.9496" cy="-470" rx="37.243" ry="18"/>
<text text-anchor="middle" x="204.9496" y="-465.8" font-family="Times,serif" font-size="14.00" fill="#000000">Map 10</text>
</g>
<!-- Map 10&#45;&gt;Map 1 -->
<g id="edge3" class="edge">
<title>Map 10&#45;&gt;Map 1</title>
<path fill="none" stroke="#000000" d="M207.3213,-451.666C209.1113,-441.8642 212.1713,-429.8262 217.308,-420 219.5968,-415.6216 222.526,-411.3376 225.6754,-407.3398"/>
<polygon fill="#000000" stroke="#000000" points="228.4622,-409.4667 232.3148,-399.5971 223.1483,-404.91 228.4622,-409.4667"/>
<text text-anchor="middle" x="243.7704" y="-422.8" font-family="Times,serif" font-size="14.00" fill="#000000">broadcast</text>
</g>
<!-- Map 2 -->
<g id="node6" class="node">
<title>Map 2</title>
<ellipse fill="none" stroke="#000000" cx="292.9496" cy="-470" rx="32.8992" ry="18"/>
<text text-anchor="middle" x="292.9496" y="-465.8" font-family="Times,serif" font-size="14.00" fill="#000000">Map 2</text>
</g>
<!-- Map 2&#45;&gt;Map 1 -->
<g id="edge4" class="edge">
<title>Map 2&#45;&gt;Map 1</title>
<path fill="none" stroke="#000000" d="M285.7782,-452.1416C281.7277,-442.4792 276.3959,-430.4225 270.9496,-420 269.2195,-416.6892 267.3056,-413.2688 265.3498,-409.9138"/>
<polygon fill="#000000" stroke="#000000" points="268.326,-408.0713 260.1723,-401.3061 262.3275,-411.6795 268.326,-408.0713"/>
<text text-anchor="middle" x="303.7704" y="-422.8" font-family="Times,serif" font-size="14.00" fill="#000000">broadcast</text>
</g>
<!-- Map 5 -->
<g id="node7" class="node">
<title>Map 5</title>
<ellipse fill="none" stroke="#000000" cx="376.9496" cy="-470" rx="32.8992" ry="18"/>
<text text-anchor="middle" x="376.9496" y="-465.8" font-family="Times,serif" font-size="14.00" fill="#000000">Map 5</text>
</g>
<!-- Map 5&#45;&gt;Map 1 -->
<g id="edge6" class="edge">
<title>Map 5&#45;&gt;Map 1</title>
<path fill="none" stroke="#000000" d="M365.7621,-452.8901C358.1198,-442.2797 347.1859,-429.0024 334.9496,-420 320.9392,-409.6925 303.5373,-401.6951 288.06,-395.8847"/>
<polygon fill="#000000" stroke="#000000" points="288.8167,-392.4388 278.222,-392.3799 286.4675,-399.0329 288.8167,-392.4388"/>
<text text-anchor="middle" x="375.7704" y="-422.8" font-family="Times,serif" font-size="14.00" fill="#000000">broadcast</text>
</g>
<!-- Map 8&#45;&gt;Map 1 -->
<g id="edge7" class="edge">
<title>Map 8&#45;&gt;Map 1</title>
<path fill="none" stroke="#000000" d="M126.4185,-452.7145C133.0239,-442.034 142.7162,-428.7445 154.308,-420 170.2935,-407.9409 190.7905,-399.4859 208.6195,-393.8152"/>
<polygon fill="#000000" stroke="#000000" points="209.6281,-397.1668 218.2044,-390.946 207.6207,-390.4608 209.6281,-397.1668"/>
<text text-anchor="middle" x="180.7704" y="-422.8" font-family="Times,serif" font-size="14.00" fill="#000000">broadcast</text>
</g>
<!-- Map 9 -->
<g id="node9" class="node">
<title>Map 9</title>
<ellipse fill="none" stroke="#000000" cx="460.9496" cy="-470" rx="32.8992" ry="18"/>
<text text-anchor="middle" x="460.9496" y="-465.8" font-family="Times,serif" font-size="14.00" fill="#000000">Map 9</text>
</g>
<!-- Map 9&#45;&gt;Map 1 -->
<g id="edge8" class="edge">
<title>Map 9&#45;&gt;Map 1</title>
<path fill="none" stroke="#000000" d="M447.0469,-453.168C437.0174,-442.1143 422.5439,-428.2277 406.9496,-420 370.913,-400.9868 325.0827,-391.9645 292.0732,-387.7139"/>
<polygon fill="#000000" stroke="#000000" points="292.1787,-384.2018 281.835,-386.4949 291.3511,-391.1527 292.1787,-384.2018"/>
<text text-anchor="middle" x="452.7704" y="-422.8" font-family="Times,serif" font-size="14.00" fill="#000000">broadcast</text>
</g>
<!-- Reducer 12 -->
<g id="node10" class="node">
<title>Reducer 12</title>
<ellipse fill="none" stroke="#000000" cx="288.9496" cy="-190" rx="50.7474" ry="18"/>
<text text-anchor="middle" x="288.9496" y="-185.8" font-family="Times,serif" font-size="14.00" fill="#000000">Reducer 12</text>
</g>
<!-- Reducer 13 -->
<g id="node11" class="node">
<title>Reducer 13</title>
<ellipse fill="none" stroke="#000000" cx="288.9496" cy="-104" rx="50.7474" ry="18"/>
<text text-anchor="middle" x="288.9496" y="-99.8" font-family="Times,serif" font-size="14.00" fill="#000000">Reducer 13</text>
</g>
<!-- Reducer 12&#45;&gt;Reducer 13 -->
<g id="edge9" class="edge">
<title>Reducer 12&#45;&gt;Reducer 13</title>
<path fill="none" stroke="#000000" d="M288.9496,-171.7616C288.9496,-160.3597 288.9496,-145.4342 288.9496,-132.494"/>
<polygon fill="#000000" stroke="#000000" points="292.4497,-132.2121 288.9496,-122.2121 285.4497,-132.2121 292.4497,-132.2121"/>
<text text-anchor="middle" x="306.0565" y="-142.8" font-family="Times,serif" font-size="14.00" fill="#000000">sorted</text>
</g>
<!-- Reducer 13&#45;&gt;Reducer 7 -->
<g id="edge12" class="edge">
<title>Reducer 13&#45;&gt;Reducer 7</title>
<path fill="none" stroke="#000000" d="M275.8959,-86.1807C266.8822,-73.8764 254.7572,-57.3247 244.711,-43.6109"/>
<polygon fill="#000000" stroke="#000000" points="247.504,-41.5009 238.7709,-35.5022 241.8571,-45.6376 247.504,-41.5009"/>
<text text-anchor="middle" x="287.7704" y="-56.8" font-family="Times,serif" font-size="14.00" fill="#000000">broadcast</text>
</g>
<!-- Map 11&#45;&gt;Reducer 12 -->
<g id="edge10" class="edge">
<title>Map 11&#45;&gt;Reducer 12</title>
<path fill="none" stroke="#000000" d="M288.1192,-279.6793C288.2753,-262.821 288.5091,-237.5651 288.6889,-218.147"/>
<polygon fill="#000000" stroke="#000000" points="292.1896,-218.0822 288.7824,-208.0502 285.1899,-218.0173 292.1896,-218.0822"/>
<text text-anchor="middle" x="305.0565" y="-239.8" font-family="Times,serif" font-size="14.00" fill="#000000">sorted</text>
</g>
</g>
</svg>
