<?xml version="1.0" encoding="UTF-8" standalone="no"?>
<!DOCTYPE svg PUBLIC "-//W3C//DTD SVG 1.1//EN"
 "http://www.w3.org/Graphics/SVG/1.1/DTD/svg11.dtd">
<!-- Generated by graphviz version 2.40.1 (20161225.0304)
 -->
<!-- Title: %3 Pages: 1 -->
<svg width="1126pt" height="1400pt"
 viewBox="0.00 0.00 1125.64 1400.00" xmlns="http://www.w3.org/2000/svg" xmlns:xlink="http://www.w3.org/1999/xlink">
<g id="graph0" class="graph" transform="scale(1 1) rotate(0) translate(4 1396)">
<title>%3</title>
<polygon fill="#ffffff" stroke="transparent" points="-4,4 -4,-1396 1121.6416,-1396 1121.6416,4 -4,4"/>
<!-- Map 29 -->
<g id="node1" class="node">
<title>Map 29</title>
<ellipse fill="none" stroke="#000000" cx="400" cy="-878" rx="37.243" ry="18"/>
<text text-anchor="middle" x="400" y="-873.8" font-family="Times,serif" font-size="14.00" fill="#000000">Map 29</text>
</g>
<!-- Map 44 -->
<g id="node2" class="node">
<title>Map 44</title>
<ellipse fill="none" stroke="#000000" cx="596" cy="-792" rx="37.243" ry="18"/>
<text text-anchor="middle" x="596" y="-787.8" font-family="Times,serif" font-size="14.00" fill="#000000">Map 44</text>
</g>
<!-- Map 29&#45;&gt;Map 44 -->
<g id="edge1" class="edge">
<title>Map 29&#45;&gt;Map 44</title>
<path fill="none" stroke="#000000" d="M431.6947,-868.0655C450.9827,-861.5751 475.8879,-852.3919 497,-842 507.5191,-836.8222 509.0652,-833.6136 519.3584,-828 531.9055,-821.1572 545.9759,-814.3198 558.6031,-808.4705"/>
<polygon fill="#000000" stroke="#000000" points="560.2898,-811.5479 567.9288,-804.2065 557.379,-805.1818 560.2898,-811.5479"/>
<text text-anchor="middle" x="546.8208" y="-830.8" font-family="Times,serif" font-size="14.00" fill="#000000">broadcast</text>
</g>
<!-- Map 26 -->
<g id="node24" class="node">
<title>Map 26</title>
<ellipse fill="none" stroke="#000000" cx="365" cy="-792" rx="37.243" ry="18"/>
<text text-anchor="middle" x="365" y="-787.8" font-family="Times,serif" font-size="14.00" fill="#000000">Map 26</text>
</g>
<!-- Map 29&#45;&gt;Map 26 -->
<g id="edge20" class="edge">
<title>Map 29&#45;&gt;Map 26</title>
<path fill="none" stroke="#000000" d="M380.6558,-862.2938C374.9858,-856.5593 369.4756,-849.5974 366.3584,-842 363.6122,-835.3068 362.5096,-827.6746 362.2716,-820.4233"/>
<polygon fill="#000000" stroke="#000000" points="365.7745,-820.2858 362.4509,-810.2258 358.7755,-820.1627 365.7745,-820.2858"/>
<text text-anchor="middle" x="393.8208" y="-830.8" font-family="Times,serif" font-size="14.00" fill="#000000">broadcast</text>
</g>
<!-- Reducer 45 -->
<g id="node41" class="node">
<title>Reducer 45</title>
<ellipse fill="none" stroke="#000000" cx="754" cy="-706" rx="50.7474" ry="18"/>
<text text-anchor="middle" x="754" y="-701.8" font-family="Times,serif" font-size="14.00" fill="#000000">Reducer 45</text>
</g>
<!-- Map 44&#45;&gt;Reducer 45 -->
<g id="edge49" class="edge">
<title>Map 44&#45;&gt;Reducer 45</title>
<path fill="none" stroke="#000000" d="M621.0356,-778.373C646.9797,-764.2516 687.7977,-742.0342 717.3684,-725.9387"/>
<polygon fill="#000000" stroke="#000000" points="719.0455,-729.0108 726.1554,-721.1559 715.699,-722.8626 719.0455,-729.0108"/>
<text text-anchor="middle" x="702.1069" y="-744.8" font-family="Times,serif" font-size="14.00" fill="#000000">sorted</text>
</g>
<!-- Map 30 -->
<g id="node3" class="node">
<title>Map 30</title>
<ellipse fill="none" stroke="#000000" cx="562" cy="-878" rx="37.243" ry="18"/>
<text text-anchor="middle" x="562" y="-873.8" font-family="Times,serif" font-size="14.00" fill="#000000">Map 30</text>
</g>
<!-- Map 30&#45;&gt;Map 44 -->
<g id="edge2" class="edge">
<title>Map 30&#45;&gt;Map 44</title>
<path fill="none" stroke="#000000" d="M569.0448,-860.1807C573.6948,-848.4191 579.879,-832.7766 585.151,-819.4416"/>
<polygon fill="#000000" stroke="#000000" points="588.5424,-820.3829 588.9642,-809.7964 582.0327,-817.8092 588.5424,-820.3829"/>
<text text-anchor="middle" x="608.8208" y="-830.8" font-family="Times,serif" font-size="14.00" fill="#000000">broadcast</text>
</g>
<!-- Map 30&#45;&gt;Map 26 -->
<g id="edge21" class="edge">
<title>Map 30&#45;&gt;Map 26</title>
<path fill="none" stroke="#000000" d="M527.2643,-871.1322C502.0471,-865.3628 467.5518,-855.822 439.3584,-842 429.8246,-837.326 428.7463,-834.0202 420,-828 412.3503,-822.7346 404.0066,-817.1791 396.1829,-812.0499"/>
<polygon fill="#000000" stroke="#000000" points="397.9241,-809.0071 387.6355,-806.4784 394.1016,-814.8712 397.9241,-809.0071"/>
<text text-anchor="middle" x="466.8208" y="-830.8" font-family="Times,serif" font-size="14.00" fill="#000000">broadcast</text>
</g>
<!-- Reducer 35 -->
<g id="node4" class="node">
<title>Reducer 35</title>
<ellipse fill="none" stroke="#000000" cx="797" cy="-878" rx="50.7474" ry="18"/>
<text text-anchor="middle" x="797" y="-873.8" font-family="Times,serif" font-size="14.00" fill="#000000">Reducer 35</text>
</g>
<!-- Reducer 36 -->
<g id="node5" class="node">
<title>Reducer 36</title>
<ellipse fill="none" stroke="#000000" cx="966" cy="-792" rx="50.7474" ry="18"/>
<text text-anchor="middle" x="966" y="-787.8" font-family="Times,serif" font-size="14.00" fill="#000000">Reducer 36</text>
</g>
<!-- Reducer 35&#45;&gt;Reducer 36 -->
<g id="edge3" class="edge">
<title>Reducer 35&#45;&gt;Reducer 36</title>
<path fill="none" stroke="#000000" d="M826.0521,-863.2161C854.1049,-848.9407 896.7551,-827.237 927.5978,-811.5419"/>
<polygon fill="#000000" stroke="#000000" points="929.4364,-814.5335 936.7614,-806.8788 926.2616,-808.2948 929.4364,-814.5335"/>
<text text-anchor="middle" x="907.1621" y="-830.8" font-family="Times,serif" font-size="14.00" fill="#000000">None</text>
</g>
<!-- Reducer 37 -->
<g id="node31" class="node">
<title>Reducer 37</title>
<ellipse fill="none" stroke="#000000" cx="995" cy="-706" rx="50.7474" ry="18"/>
<text text-anchor="middle" x="995" y="-701.8" font-family="Times,serif" font-size="14.00" fill="#000000">Reducer 37</text>
</g>
<!-- Reducer 36&#45;&gt;Reducer 37 -->
<g id="edge29" class="edge">
<title>Reducer 36&#45;&gt;Reducer 37</title>
<path fill="none" stroke="#000000" d="M972.1502,-773.7616C976.0984,-762.053 981.2996,-746.6289 985.7421,-733.4544"/>
<polygon fill="#000000" stroke="#000000" points="989.0793,-734.5113 988.9582,-723.9172 982.4463,-732.2746 989.0793,-734.5113"/>
<text text-anchor="middle" x="1000.1069" y="-744.8" font-family="Times,serif" font-size="14.00" fill="#000000">sorted</text>
</g>
<!-- Reducer 43 -->
<g id="node6" class="node">
<title>Reducer 43</title>
<ellipse fill="none" stroke="#000000" cx="966" cy="-1126" rx="50.7474" ry="18"/>
<text text-anchor="middle" x="966" y="-1121.8" font-family="Times,serif" font-size="14.00" fill="#000000">Reducer 43</text>
</g>
<!-- Reducer 43&#45;&gt;Reducer 36 -->
<g id="edge4" class="edge">
<title>Reducer 43&#45;&gt;Reducer 36</title>
<path fill="none" stroke="#000000" d="M966,-1107.655C966,-1086.168 966,-1049.5 966,-1018 966,-1018 966,-1018 966,-878 966,-858.7711 966,-837.1237 966,-820.358"/>
<polygon fill="#000000" stroke="#000000" points="969.5001,-820.1198 966,-810.1199 962.5001,-820.1199 969.5001,-820.1198"/>
<text text-anchor="middle" x="981.1621" y="-959.8" font-family="Times,serif" font-size="14.00" fill="#000000">None</text>
</g>
<!-- Reducer 34 -->
<g id="node7" class="node">
<title>Reducer 34</title>
<ellipse fill="none" stroke="#000000" cx="615" cy="-1018" rx="50.7474" ry="18"/>
<text text-anchor="middle" x="615" y="-1013.8" font-family="Times,serif" font-size="14.00" fill="#000000">Reducer 34</text>
</g>
<!-- Reducer 34&#45;&gt;Reducer 35 -->
<g id="edge5" class="edge">
<title>Reducer 34&#45;&gt;Reducer 35</title>
<path fill="none" stroke="#000000" d="M634.5917,-1001.3467C652.1996,-986.5211 678.8888,-964.3962 702.7861,-946 723.3467,-930.1725 747.0312,-913.0828 765.5095,-899.9952"/>
<polygon fill="#000000" stroke="#000000" points="767.7119,-902.7248 773.864,-894.0991 763.6756,-897.0056 767.7119,-902.7248"/>
<text text-anchor="middle" x="720.1069" y="-959.8" font-family="Times,serif" font-size="14.00" fill="#000000">sorted</text>
</g>
<!-- Reducer 41 -->
<g id="node8" class="node">
<title>Reducer 41</title>
<ellipse fill="none" stroke="#000000" cx="797" cy="-964" rx="50.7474" ry="18"/>
<text text-anchor="middle" x="797" y="-959.8" font-family="Times,serif" font-size="14.00" fill="#000000">Reducer 41</text>
</g>
<!-- Reducer 41&#45;&gt;Reducer 35 -->
<g id="edge6" class="edge">
<title>Reducer 41&#45;&gt;Reducer 35</title>
<path fill="none" stroke="#000000" d="M797,-945.7616C797,-934.3597 797,-919.4342 797,-906.494"/>
<polygon fill="#000000" stroke="#000000" points="800.5001,-906.2121 797,-896.2121 793.5001,-906.2121 800.5001,-906.2121"/>
<text text-anchor="middle" x="823.8208" y="-916.8" font-family="Times,serif" font-size="14.00" fill="#000000">broadcast</text>
</g>
<!-- Map 33 -->
<g id="node9" class="node">
<title>Map 33</title>
<ellipse fill="none" stroke="#000000" cx="601" cy="-1180" rx="37.243" ry="18"/>
<text text-anchor="middle" x="601" y="-1175.8" font-family="Times,serif" font-size="14.00" fill="#000000">Map 33</text>
</g>
<!-- Map 33&#45;&gt;Reducer 34 -->
<g id="edge7" class="edge">
<title>Map 33&#45;&gt;Reducer 34</title>
<path fill="none" stroke="#000000" d="M602.5788,-1161.7314C605.005,-1133.6565 609.6701,-1079.6749 612.5414,-1046.4494"/>
<polygon fill="#000000" stroke="#000000" points="616.0314,-1046.7146 613.4055,-1036.4503 609.0574,-1046.1118 616.0314,-1046.7146"/>
<text text-anchor="middle" x="625.1069" y="-1121.8" font-family="Times,serif" font-size="14.00" fill="#000000">sorted</text>
</g>
<!-- Map 16 -->
<g id="node10" class="node">
<title>Map 16</title>
<ellipse fill="none" stroke="#000000" cx="511" cy="-1374" rx="37.243" ry="18"/>
<text text-anchor="middle" x="511" y="-1369.8" font-family="Times,serif" font-size="14.00" fill="#000000">Map 16</text>
</g>
<!-- Map 16&#45;&gt;Map 33 -->
<g id="edge47" class="edge">
<title>Map 16&#45;&gt;Map 33</title>
<path fill="none" stroke="#000000" d="M519.9685,-1356.2852C530.4951,-1335.5477 548.5275,-1300.1943 564.3584,-1270 568.5725,-1261.9624 570.2559,-1260.267 574,-1252 580.4956,-1237.6577 586.7367,-1221.2491 591.5791,-1207.7219"/>
<polygon fill="#000000" stroke="#000000" points="594.9748,-1208.6161 594.9906,-1198.0213 588.3712,-1206.2938 594.9748,-1208.6161"/>
<text text-anchor="middle" x="591.8208" y="-1283.8" font-family="Times,serif" font-size="14.00" fill="#000000">broadcast</text>
</g>
<!-- Reducer 19 -->
<g id="node11" class="node">
<title>Reducer 19</title>
<ellipse fill="none" stroke="#000000" cx="678" cy="-1288" rx="50.7474" ry="18"/>
<text text-anchor="middle" x="678" y="-1283.8" font-family="Times,serif" font-size="14.00" fill="#000000">Reducer 19</text>
</g>
<!-- Map 16&#45;&gt;Reducer 19 -->
<g id="edge8" class="edge">
<title>Map 16&#45;&gt;Reducer 19</title>
<path fill="none" stroke="#000000" d="M536.7278,-1360.751C564.3746,-1346.5137 608.5951,-1323.7415 640.1966,-1307.4676"/>
<polygon fill="#000000" stroke="#000000" points="641.87,-1310.5428 649.158,-1302.8528 638.6652,-1304.3195 641.87,-1310.5428"/>
<text text-anchor="middle" x="629.1069" y="-1326.8" font-family="Times,serif" font-size="14.00" fill="#000000">unsorted</text>
</g>
<!-- Reducer 18 -->
<g id="node12" class="node">
<title>Reducer 18</title>
<ellipse fill="none" stroke="#000000" cx="377" cy="-1288" rx="50.7474" ry="18"/>
<text text-anchor="middle" x="377" y="-1283.8" font-family="Times,serif" font-size="14.00" fill="#000000">Reducer 18</text>
</g>
<!-- Map 16&#45;&gt;Reducer 18 -->
<g id="edge9" class="edge">
<title>Map 16&#45;&gt;Reducer 18</title>
<path fill="none" stroke="#000000" d="M488.2687,-1359.4113C466.8549,-1345.6681 434.5209,-1324.9164 410.2182,-1309.3191"/>
<polygon fill="#000000" stroke="#000000" points="411.9693,-1306.2842 401.663,-1303.8285 408.1885,-1312.1753 411.9693,-1306.2842"/>
<text text-anchor="middle" x="477.1069" y="-1326.8" font-family="Times,serif" font-size="14.00" fill="#000000">unsorted</text>
</g>
<!-- Map 42 -->
<g id="node13" class="node">
<title>Map 42</title>
<ellipse fill="none" stroke="#000000" cx="966" cy="-1234" rx="37.243" ry="18"/>
<text text-anchor="middle" x="966" y="-1229.8" font-family="Times,serif" font-size="14.00" fill="#000000">Map 42</text>
</g>
<!-- Map 16&#45;&gt;Map 42 -->
<g id="edge10" class="edge">
<title>Map 16&#45;&gt;Map 42</title>
<path fill="none" stroke="#000000" d="M548.4418,-1373.0342C632.6659,-1370.4578 834.6297,-1361.909 898,-1338 920.6237,-1329.4643 927.7176,-1325.5117 942,-1306 951.5191,-1292.9956 957.4207,-1275.9818 960.9886,-1261.7585"/>
<polygon fill="#000000" stroke="#000000" points="964.4053,-1262.5173 963.1925,-1251.9922 957.577,-1260.9764 964.4053,-1262.5173"/>
<text text-anchor="middle" x="952.8208" y="-1326.8" font-family="Times,serif" font-size="14.00" fill="#000000">broadcast</text>
</g>
<!-- Reducer 17 -->
<g id="node16" class="node">
<title>Reducer 17</title>
<ellipse fill="none" stroke="#000000" cx="168" cy="-1288" rx="50.7474" ry="18"/>
<text text-anchor="middle" x="168" y="-1283.8" font-family="Times,serif" font-size="14.00" fill="#000000">Reducer 17</text>
</g>
<!-- Map 16&#45;&gt;Reducer 17 -->
<g id="edge12" class="edge">
<title>Map 16&#45;&gt;Reducer 17</title>
<path fill="none" stroke="#000000" d="M473.7682,-1371.7839C394.7042,-1366.7934 215.4035,-1353.8621 192.7861,-1338 185.0633,-1332.5838 179.6297,-1324.0555 175.861,-1315.5656"/>
<polygon fill="#000000" stroke="#000000" points="179.1105,-1314.2637 172.2802,-1306.1644 172.5689,-1316.7553 179.1105,-1314.2637"/>
<text text-anchor="middle" x="217.1069" y="-1326.8" font-family="Times,serif" font-size="14.00" fill="#000000">unsorted</text>
</g>
<!-- Map 24 -->
<g id="node25" class="node">
<title>Map 24</title>
<ellipse fill="none" stroke="#000000" cx="170" cy="-362" rx="37.243" ry="18"/>
<text text-anchor="middle" x="170" y="-357.8" font-family="Times,serif" font-size="14.00" fill="#000000">Map 24</text>
</g>
<!-- Map 16&#45;&gt;Map 24 -->
<g id="edge22" class="edge">
<title>Map 16&#45;&gt;Map 24</title>
<path fill="none" stroke="#000000" d="M473.4123,-1372.6226C385.0525,-1369.0818 166.3033,-1358.4715 96,-1338 49.8115,-1324.5505 0,-1336.1069 0,-1288 0,-1288 0,-1288 0,-577 0,-548.9183 112.0391,-447.4501 139,-412 144.5993,-404.6376 150.1165,-396.227 154.909,-388.4311"/>
<polygon fill="#000000" stroke="#000000" points="158.0261,-390.0385 160.1635,-379.6615 152.0214,-386.4406 158.0261,-390.0385"/>
<text text-anchor="middle" x="26.8208" y="-830.8" font-family="Times,serif" font-size="14.00" fill="#000000">broadcast</text>
</g>
<!-- Map 21 -->
<g id="node28" class="node">
<title>Map 21</title>
<ellipse fill="none" stroke="#000000" cx="353" cy="-1180" rx="37.243" ry="18"/>
<text text-anchor="middle" x="353" y="-1175.8" font-family="Times,serif" font-size="14.00" fill="#000000">Map 21</text>
</g>
<!-- Map 16&#45;&gt;Map 21 -->
<g id="edge25" class="edge">
<title>Map 16&#45;&gt;Map 21</title>
<path fill="none" stroke="#000000" d="M474.7353,-1369.4189C412.3595,-1360.7134 288.9712,-1339.5938 263.3584,-1306 255.076,-1295.1367 265.6934,-1220.4878 269,-1216 278.496,-1203.1118 293.5554,-1194.7907 308.3175,-1189.4386"/>
<polygon fill="#000000" stroke="#000000" points="309.4779,-1192.7418 317.9139,-1186.3321 307.322,-1186.0821 309.4779,-1192.7418"/>
<text text-anchor="middle" x="290.8208" y="-1283.8" font-family="Times,serif" font-size="14.00" fill="#000000">broadcast</text>
</g>
<!-- Reducer 20 -->
<g id="node32" class="node">
<title>Reducer 20</title>
<ellipse fill="none" stroke="#000000" cx="797" cy="-1288" rx="50.7474" ry="18"/>
<text text-anchor="middle" x="797" y="-1283.8" font-family="Times,serif" font-size="14.00" fill="#000000">Reducer 20</text>
</g>
<!-- Map 16&#45;&gt;Reducer 20 -->
<g id="edge30" class="edge">
<title>Map 16&#45;&gt;Reducer 20</title>
<path fill="none" stroke="#000000" d="M545.1903,-1366.6002C574.948,-1359.9153 619.1274,-1349.4002 657,-1338 689.5758,-1328.1942 725.7216,-1315.2305 753.1246,-1304.9606"/>
<polygon fill="#000000" stroke="#000000" points="754.6813,-1308.1142 762.8022,-1301.3096 752.2104,-1301.5648 754.6813,-1308.1142"/>
<text text-anchor="middle" x="724.1069" y="-1326.8" font-family="Times,serif" font-size="14.00" fill="#000000">unsorted</text>
</g>
<!-- Map 39 -->
<g id="node36" class="node">
<title>Map 39</title>
<ellipse fill="none" stroke="#000000" cx="797" cy="-1180" rx="37.243" ry="18"/>
<text text-anchor="middle" x="797" y="-1175.8" font-family="Times,serif" font-size="14.00" fill="#000000">Map 39</text>
</g>
<!-- Map 16&#45;&gt;Map 39 -->
<g id="edge52" class="edge">
<title>Map 16&#45;&gt;Map 39</title>
<path fill="none" stroke="#000000" d="M548.5027,-1372.7101C630.3541,-1368.992 820.6096,-1355.1333 857,-1306 862.5779,-1298.4688 860.1138,-1224.8052 855,-1216 850.4225,-1208.1183 843.3609,-1201.7232 835.7208,-1196.6328"/>
<polygon fill="#000000" stroke="#000000" points="836.9906,-1193.3179 826.6004,-1191.2456 833.4305,-1199.345 836.9906,-1193.3179"/>
<text text-anchor="middle" x="887.8208" y="-1283.8" font-family="Times,serif" font-size="14.00" fill="#000000">broadcast</text>
</g>
<!-- Map 7 -->
<g id="node44" class="node">
<title>Map 7</title>
<ellipse fill="none" stroke="#000000" cx="168" cy="-1180" rx="32.8992" ry="18"/>
<text text-anchor="middle" x="168" y="-1175.8" font-family="Times,serif" font-size="14.00" fill="#000000">Map 7</text>
</g>
<!-- Map 16&#45;&gt;Map 7 -->
<g id="edge55" class="edge">
<title>Map 16&#45;&gt;Map 7</title>
<path fill="none" stroke="#000000" d="M473.8152,-1371.3726C369.5004,-1363.6089 80.0233,-1339.2207 54.3584,-1306 22.3286,-1264.5406 89.6509,-1219.874 133.7395,-1196.4665"/>
<polygon fill="#000000" stroke="#000000" points="135.4782,-1199.5076 142.7508,-1191.803 132.2609,-1193.2908 135.4782,-1199.5076"/>
<text text-anchor="middle" x="81.8208" y="-1283.8" font-family="Times,serif" font-size="14.00" fill="#000000">broadcast</text>
</g>
<!-- Reducer 19&#45;&gt;Map 33 -->
<g id="edge48" class="edge">
<title>Reducer 19&#45;&gt;Map 33</title>
<path fill="none" stroke="#000000" d="M656.8717,-1271.3158C650.4498,-1265.6178 643.6891,-1258.9246 638.3584,-1252 627.8191,-1238.3094 618.8012,-1221.2043 612.2672,-1207.102"/>
<polygon fill="#000000" stroke="#000000" points="615.4288,-1205.5982 608.1523,-1197.8974 609.0383,-1208.4551 615.4288,-1205.5982"/>
<text text-anchor="middle" x="665.8208" y="-1229.8" font-family="Times,serif" font-size="14.00" fill="#000000">broadcast</text>
</g>
<!-- Reducer 18&#45;&gt;Map 21 -->
<g id="edge26" class="edge">
<title>Reducer 18&#45;&gt;Map 21</title>
<path fill="none" stroke="#000000" d="M371.2157,-1269.7851C369.5248,-1264.1198 367.757,-1257.8305 366.3584,-1252 362.9186,-1237.6603 359.8535,-1221.5339 357.5297,-1208.1837"/>
<polygon fill="#000000" stroke="#000000" points="360.9528,-1207.4346 355.832,-1198.1595 354.0511,-1208.6036 360.9528,-1207.4346"/>
<text text-anchor="middle" x="393.8208" y="-1229.8" font-family="Times,serif" font-size="14.00" fill="#000000">broadcast</text>
</g>
<!-- Map 42&#45;&gt;Reducer 43 -->
<g id="edge36" class="edge">
<title>Map 42&#45;&gt;Reducer 43</title>
<path fill="none" stroke="#000000" d="M966,-1215.6793C966,-1198.821 966,-1173.5651 966,-1154.147"/>
<polygon fill="#000000" stroke="#000000" points="969.5001,-1154.0501 966,-1144.0502 962.5001,-1154.0502 969.5001,-1154.0501"/>
<text text-anchor="middle" x="983.1069" y="-1175.8" font-family="Times,serif" font-size="14.00" fill="#000000">sorted</text>
</g>
<!-- Union 13 -->
<g id="node14" class="node">
<title>Union 13</title>
<ellipse fill="none" stroke="#000000" cx="109" cy="-104" rx="43.0409" ry="18"/>
<text text-anchor="middle" x="109" y="-99.8" font-family="Times,serif" font-size="14.00" fill="#000000">Union 13</text>
</g>
<!-- Reducer 14 -->
<g id="node15" class="node">
<title>Reducer 14</title>
<ellipse fill="none" stroke="#000000" cx="102" cy="-18" rx="50.7474" ry="18"/>
<text text-anchor="middle" x="102" y="-13.8" font-family="Times,serif" font-size="14.00" fill="#000000">Reducer 14</text>
</g>
<!-- Union 13&#45;&gt;Reducer 14 -->
<g id="edge11" class="edge">
<title>Union 13&#45;&gt;Reducer 14</title>
<path fill="none" stroke="#000000" d="M107.5155,-85.7616C106.5874,-74.3597 105.3725,-59.4342 104.3193,-46.494"/>
<polygon fill="#000000" stroke="#000000" points="107.7822,-45.8952 103.4824,-36.2121 100.8053,-46.4631 107.7822,-45.8952"/>
<text text-anchor="middle" x="123.1069" y="-56.8" font-family="Times,serif" font-size="14.00" fill="#000000">sorted</text>
</g>
<!-- Reducer 12 -->
<g id="node23" class="node">
<title>Reducer 12</title>
<ellipse fill="none" stroke="#000000" cx="221" cy="-18" rx="50.7474" ry="18"/>
<text text-anchor="middle" x="221" y="-13.8" font-family="Times,serif" font-size="14.00" fill="#000000">Reducer 12</text>
</g>
<!-- Union 13&#45;&gt;Reducer 12 -->
<g id="edge19" class="edge">
<title>Union 13&#45;&gt;Reducer 12</title>
<path fill="none" stroke="#000000" d="M129.8039,-88.0256C147.1848,-74.6795 172.1728,-55.4923 191.5986,-40.5761"/>
<polygon fill="#000000" stroke="#000000" points="193.7451,-43.3407 199.545,-34.4744 189.4819,-37.7886 193.7451,-43.3407"/>
<text text-anchor="middle" x="187.1621" y="-56.8" font-family="Times,serif" font-size="14.00" fill="#000000">None</text>
</g>
<!-- Reducer 32 -->
<g id="node30" class="node">
<title>Reducer 32</title>
<ellipse fill="none" stroke="#000000" cx="449" cy="-18" rx="50.7474" ry="18"/>
<text text-anchor="middle" x="449" y="-13.8" font-family="Times,serif" font-size="14.00" fill="#000000">Reducer 32</text>
</g>
<!-- Union 13&#45;&gt;Reducer 32 -->
<g id="edge28" class="edge">
<title>Union 13&#45;&gt;Reducer 32</title>
<path fill="none" stroke="#000000" d="M141.5725,-92.1169C148.2749,-89.9042 155.3244,-87.7433 162,-86 204.4244,-74.9211 216.2136,-77.5859 259,-68 307.1221,-57.2187 361.4913,-42.6672 399.7022,-32.0428"/>
<polygon fill="#000000" stroke="#000000" points="400.8531,-35.3554 409.5429,-29.2942 398.9699,-28.6135 400.8531,-35.3554"/>
<text text-anchor="middle" x="332.1621" y="-56.8" font-family="Times,serif" font-size="14.00" fill="#000000">None</text>
</g>
<!-- Reducer 17&#45;&gt;Map 7 -->
<g id="edge56" class="edge">
<title>Reducer 17&#45;&gt;Map 7</title>
<path fill="none" stroke="#000000" d="M168,-1269.6793C168,-1252.821 168,-1227.5651 168,-1208.147"/>
<polygon fill="#000000" stroke="#000000" points="171.5001,-1208.0501 168,-1198.0502 164.5001,-1208.0502 171.5001,-1208.0501"/>
<text text-anchor="middle" x="194.8208" y="-1229.8" font-family="Times,serif" font-size="14.00" fill="#000000">broadcast</text>
</g>
<!-- Map 1 -->
<g id="node17" class="node">
<title>Map 1</title>
<ellipse fill="none" stroke="#000000" cx="321" cy="-534" rx="32.8992" ry="18"/>
<text text-anchor="middle" x="321" y="-529.8" font-family="Times,serif" font-size="14.00" fill="#000000">Map 1</text>
</g>
<!-- Reducer 11 -->
<g id="node18" class="node">
<title>Reducer 11</title>
<ellipse fill="none" stroke="#000000" cx="221" cy="-104" rx="50.1002" ry="18"/>
<text text-anchor="middle" x="221" y="-99.8" font-family="Times,serif" font-size="14.00" fill="#000000">Reducer 11</text>
</g>
<!-- Map 1&#45;&gt;Reducer 11 -->
<g id="edge13" class="edge">
<title>Map 1&#45;&gt;Reducer 11</title>
<path fill="none" stroke="#000000" d="M300.479,-519.7789C281.1045,-504.5041 255,-478.3012 255,-448 255,-448 255,-448 255,-190 255,-169.0632 246.1774,-147.1409 237.5207,-130.6699"/>
<polygon fill="#000000" stroke="#000000" points="240.4264,-128.693 232.5108,-121.6506 234.307,-132.0921 240.4264,-128.693"/>
<text text-anchor="middle" x="281.8208" y="-314.8" font-family="Times,serif" font-size="14.00" fill="#000000">broadcast</text>
</g>
<!-- Reducer 2 -->
<g id="node26" class="node">
<title>Reducer 2</title>
<ellipse fill="none" stroke="#000000" cx="329" cy="-448" rx="46.4045" ry="18"/>
<text text-anchor="middle" x="329" y="-443.8" font-family="Times,serif" font-size="14.00" fill="#000000">Reducer 2</text>
</g>
<!-- Map 1&#45;&gt;Reducer 2 -->
<g id="edge63" class="edge">
<title>Map 1&#45;&gt;Reducer 2</title>
<path fill="none" stroke="#000000" d="M322.6966,-515.7616C323.7572,-504.3597 325.1457,-489.4342 326.3494,-476.494"/>
<polygon fill="#000000" stroke="#000000" points="329.8645,-476.4933 327.3059,-466.2121 322.8946,-475.8449 329.8645,-476.4933"/>
<text text-anchor="middle" x="350.1069" y="-486.8" font-family="Times,serif" font-size="14.00" fill="#000000">unsorted</text>
</g>
<!-- Reducer 11&#45;&gt;Reducer 12 -->
<g id="edge18" class="edge">
<title>Reducer 11&#45;&gt;Reducer 12</title>
<path fill="none" stroke="#000000" d="M221,-85.7616C221,-74.3597 221,-59.4342 221,-46.494"/>
<polygon fill="#000000" stroke="#000000" points="224.5001,-46.2121 221,-36.2121 217.5001,-46.2121 224.5001,-46.2121"/>
<text text-anchor="middle" x="238.1069" y="-56.8" font-family="Times,serif" font-size="14.00" fill="#000000">sorted</text>
</g>
<!-- Reducer 10 -->
<g id="node19" class="node">
<title>Reducer 10</title>
<ellipse fill="none" stroke="#000000" cx="170" cy="-190" rx="50.7474" ry="18"/>
<text text-anchor="middle" x="170" y="-185.8" font-family="Times,serif" font-size="14.00" fill="#000000">Reducer 10</text>
</g>
<!-- Reducer 10&#45;&gt;Reducer 11 -->
<g id="edge14" class="edge">
<title>Reducer 10&#45;&gt;Reducer 11</title>
<path fill="none" stroke="#000000" d="M180.5672,-172.1807C187.6789,-160.1885 197.1832,-144.1617 205.1901,-130.6598"/>
<polygon fill="#000000" stroke="#000000" points="208.3559,-132.183 210.4463,-121.7964 202.335,-128.6124 208.3559,-132.183"/>
<text text-anchor="middle" x="216.1069" y="-142.8" font-family="Times,serif" font-size="14.00" fill="#000000">sorted</text>
</g>
<!-- Reducer 27 -->
<g id="node20" class="node">
<title>Reducer 27</title>
<ellipse fill="none" stroke="#000000" cx="183" cy="-706" rx="50.7474" ry="18"/>
<text text-anchor="middle" x="183" y="-701.8" font-family="Times,serif" font-size="14.00" fill="#000000">Reducer 27</text>
</g>
<!-- Reducer 27&#45;&gt;Reducer 11 -->
<g id="edge15" class="edge">
<title>Reducer 27&#45;&gt;Reducer 11</title>
<path fill="none" stroke="#000000" d="M163.1775,-689.3683C149.5463,-676.7435 132.288,-658.1628 123,-638 71.1671,-525.4793 84,-485.8853 84,-362 84,-362 84,-362 84,-190 84,-167.4464 137.9332,-139.3387 178.1206,-121.5253"/>
<polygon fill="#000000" stroke="#000000" points="179.7145,-124.6487 187.486,-117.4477 176.9202,-118.2307 179.7145,-124.6487"/>
<text text-anchor="middle" x="110.8208" y="-400.8" font-family="Times,serif" font-size="14.00" fill="#000000">broadcast</text>
</g>
<!-- Reducer 28 -->
<g id="node35" class="node">
<title>Reducer 28</title>
<ellipse fill="none" stroke="#000000" cx="183" cy="-620" rx="50.7474" ry="18"/>
<text text-anchor="middle" x="183" y="-615.8" font-family="Times,serif" font-size="14.00" fill="#000000">Reducer 28</text>
</g>
<!-- Reducer 27&#45;&gt;Reducer 28 -->
<g id="edge35" class="edge">
<title>Reducer 27&#45;&gt;Reducer 28</title>
<path fill="none" stroke="#000000" d="M183,-687.7616C183,-676.3597 183,-661.4342 183,-648.494"/>
<polygon fill="#000000" stroke="#000000" points="186.5001,-648.2121 183,-638.2121 179.5001,-648.2121 186.5001,-648.2121"/>
<text text-anchor="middle" x="207.1069" y="-658.8" font-family="Times,serif" font-size="14.00" fill="#000000">unsorted</text>
</g>
<!-- Reducer 25 -->
<g id="node21" class="node">
<title>Reducer 25</title>
<ellipse fill="none" stroke="#000000" cx="170" cy="-276" rx="50.7474" ry="18"/>
<text text-anchor="middle" x="170" y="-271.8" font-family="Times,serif" font-size="14.00" fill="#000000">Reducer 25</text>
</g>
<!-- Reducer 25&#45;&gt;Reducer 10 -->
<g id="edge16" class="edge">
<title>Reducer 25&#45;&gt;Reducer 10</title>
<path fill="none" stroke="#000000" d="M170,-257.7616C170,-246.3597 170,-231.4342 170,-218.494"/>
<polygon fill="#000000" stroke="#000000" points="173.5001,-218.2121 170,-208.2121 166.5001,-218.2121 173.5001,-218.2121"/>
<text text-anchor="middle" x="185.1621" y="-228.8" font-family="Times,serif" font-size="14.00" fill="#000000">None</text>
</g>
<!-- Reducer 9 -->
<g id="node22" class="node">
<title>Reducer 9</title>
<ellipse fill="none" stroke="#000000" cx="168" cy="-878" rx="46.4045" ry="18"/>
<text text-anchor="middle" x="168" y="-873.8" font-family="Times,serif" font-size="14.00" fill="#000000">Reducer 9</text>
</g>
<!-- Reducer 9&#45;&gt;Reducer 10 -->
<g id="edge17" class="edge">
<title>Reducer 9&#45;&gt;Reducer 10</title>
<path fill="none" stroke="#000000" d="M158.0162,-860.109C128.8791,-806.1606 46,-639.6431 46,-491 46,-491 46,-491 46,-319 46,-269.1702 94.6838,-231.139 131.0421,-209.6844"/>
<polygon fill="#000000" stroke="#000000" points="133.0273,-212.5816 139.9831,-204.5899 129.5617,-206.4996 133.0273,-212.5816"/>
<text text-anchor="middle" x="66.1621" y="-529.8" font-family="Times,serif" font-size="14.00" fill="#000000">None</text>
</g>
<!-- Map 26&#45;&gt;Reducer 27 -->
<g id="edge34" class="edge">
<title>Map 26&#45;&gt;Reducer 27</title>
<path fill="none" stroke="#000000" d="M338.1453,-779.3104C307.7769,-764.9605 258.0166,-741.4474 223.0564,-724.9277"/>
<polygon fill="#000000" stroke="#000000" points="224.1534,-721.5751 213.6166,-720.4672 221.1627,-727.9041 224.1534,-721.5751"/>
<text text-anchor="middle" x="302.1069" y="-744.8" font-family="Times,serif" font-size="14.00" fill="#000000">sorted</text>
</g>
<!-- Map 24&#45;&gt;Reducer 25 -->
<g id="edge33" class="edge">
<title>Map 24&#45;&gt;Reducer 25</title>
<path fill="none" stroke="#000000" d="M170,-343.7616C170,-332.3597 170,-317.4342 170,-304.494"/>
<polygon fill="#000000" stroke="#000000" points="173.5001,-304.2121 170,-294.2121 166.5001,-304.2121 173.5001,-304.2121"/>
<text text-anchor="middle" x="187.1069" y="-314.8" font-family="Times,serif" font-size="14.00" fill="#000000">sorted</text>
</g>
<!-- Reducer 2&#45;&gt;Map 24 -->
<g id="edge23" class="edge">
<title>Reducer 2&#45;&gt;Map 24</title>
<path fill="none" stroke="#000000" d="M301.6669,-433.2161C274.5867,-418.5689 233.048,-396.1014 203.8855,-380.328"/>
<polygon fill="#000000" stroke="#000000" points="205.347,-377.1394 194.8861,-375.4604 202.0168,-383.2965 205.347,-377.1394"/>
<text text-anchor="middle" x="286.8208" y="-400.8" font-family="Times,serif" font-size="14.00" fill="#000000">broadcast</text>
</g>
<!-- Map 15 -->
<g id="node27" class="node">
<title>Map 15</title>
<ellipse fill="none" stroke="#000000" cx="483" cy="-1288" rx="37.243" ry="18"/>
<text text-anchor="middle" x="483" y="-1283.8" font-family="Times,serif" font-size="14.00" fill="#000000">Map 15</text>
</g>
<!-- Map 15&#45;&gt;Map 33 -->
<g id="edge46" class="edge">
<title>Map 15&#45;&gt;Map 33</title>
<path fill="none" stroke="#000000" d="M490.6013,-1270.196C498.8294,-1251.5767 511.9054,-1223.9703 520.3584,-1216 531.1301,-1205.8433 545.2492,-1198.2268 558.6578,-1192.6792"/>
<polygon fill="#000000" stroke="#000000" points="560.1583,-1195.8522 568.2378,-1188.9986 557.6478,-1189.3179 560.1583,-1195.8522"/>
<text text-anchor="middle" x="547.8208" y="-1229.8" font-family="Times,serif" font-size="14.00" fill="#000000">broadcast</text>
</g>
<!-- Map 15&#45;&gt;Map 21 -->
<g id="edge24" class="edge">
<title>Map 15&#45;&gt;Map 21</title>
<path fill="none" stroke="#000000" d="M463.3036,-1272.5687C456.2695,-1266.5561 448.5582,-1259.3484 442.3584,-1252 430.2129,-1237.6045 433.7291,-1228.894 420,-1216 411.6726,-1208.1791 401.3216,-1201.5328 391.2658,-1196.1604"/>
<polygon fill="#000000" stroke="#000000" points="392.6863,-1192.9571 382.1804,-1191.5875 389.5392,-1199.2098 392.6863,-1192.9571"/>
<text text-anchor="middle" x="469.8208" y="-1229.8" font-family="Times,serif" font-size="14.00" fill="#000000">broadcast</text>
</g>
<!-- Map 15&#45;&gt;Map 39 -->
<g id="edge51" class="edge">
<title>Map 15&#45;&gt;Map 39</title>
<path fill="none" stroke="#000000" d="M512.0608,-1276.472C519.1477,-1274.0162 526.7716,-1271.6648 534,-1270 602.8734,-1254.1377 626.41,-1278.3271 692,-1252 716.5363,-1242.1514 717.599,-1231.0185 739.3584,-1216 747.4164,-1210.4383 756.3071,-1204.6995 764.644,-1199.4829"/>
<polygon fill="#000000" stroke="#000000" points="766.7454,-1202.2985 773.4075,-1194.0603 763.0621,-1196.3459 766.7454,-1202.2985"/>
<text text-anchor="middle" x="766.8208" y="-1229.8" font-family="Times,serif" font-size="14.00" fill="#000000">broadcast</text>
</g>
<!-- Map 15&#45;&gt;Map 7 -->
<g id="edge54" class="edge">
<title>Map 15&#45;&gt;Map 7</title>
<path fill="none" stroke="#000000" d="M455.1341,-1275.8654C449.2321,-1273.6451 442.9781,-1271.5452 437,-1270 378.548,-1254.8913 359.809,-1270.5564 302.3584,-1252 281.6413,-1245.3084 232.0554,-1217.4776 199.2662,-1198.444"/>
<polygon fill="#000000" stroke="#000000" points="200.9031,-1195.347 190.5013,-1193.3337 197.3773,-1201.3942 200.9031,-1195.347"/>
<text text-anchor="middle" x="329.8208" y="-1229.8" font-family="Times,serif" font-size="14.00" fill="#000000">broadcast</text>
</g>
<!-- Reducer 22 -->
<g id="node33" class="node">
<title>Reducer 22</title>
<ellipse fill="none" stroke="#000000" cx="303" cy="-1072" rx="50.7474" ry="18"/>
<text text-anchor="middle" x="303" y="-1067.8" font-family="Times,serif" font-size="14.00" fill="#000000">Reducer 22</text>
</g>
<!-- Map 21&#45;&gt;Reducer 22 -->
<g id="edge31" class="edge">
<title>Map 21&#45;&gt;Reducer 22</title>
<path fill="none" stroke="#000000" d="M344.7435,-1162.166C336.7821,-1144.9693 324.6279,-1118.7164 315.4841,-1098.9657"/>
<polygon fill="#000000" stroke="#000000" points="318.6462,-1097.4647 311.2687,-1089.8605 312.2939,-1100.4056 318.6462,-1097.4647"/>
<text text-anchor="middle" x="353.1069" y="-1121.8" font-family="Times,serif" font-size="14.00" fill="#000000">sorted</text>
</g>
<!-- Map 31 -->
<g id="node29" class="node">
<title>Map 31</title>
<ellipse fill="none" stroke="#000000" cx="716" cy="-534" rx="37.243" ry="18"/>
<text text-anchor="middle" x="716" y="-529.8" font-family="Times,serif" font-size="14.00" fill="#000000">Map 31</text>
</g>
<!-- Map 31&#45;&gt;Reducer 32 -->
<g id="edge27" class="edge">
<title>Map 31&#45;&gt;Reducer 32</title>
<path fill="none" stroke="#000000" d="M682.751,-525.3011C630.9855,-510.7676 537,-479.9774 537,-448 537,-448 537,-448 537,-104 537,-74.8293 511.9611,-52.309 488.5956,-37.6443"/>
<polygon fill="#000000" stroke="#000000" points="490.164,-34.5051 479.7781,-32.411 486.5912,-40.5248 490.164,-34.5051"/>
<text text-anchor="middle" x="554.1069" y="-271.8" font-family="Times,serif" font-size="14.00" fill="#000000">sorted</text>
</g>
<!-- Reducer 37&#45;&gt;Map 31 -->
<g id="edge41" class="edge">
<title>Reducer 37&#45;&gt;Map 31</title>
<path fill="none" stroke="#000000" d="M1024.0622,-691.1947C1032.5581,-685.5972 1041.1286,-678.4886 1047,-670 1064.3107,-644.9727 1072.6324,-626.8016 1055,-602 1021.7366,-555.212 848.9346,-540.3794 763.6775,-535.8699"/>
<polygon fill="#000000" stroke="#000000" points="763.6459,-532.364 753.4829,-535.3579 763.2948,-539.3552 763.6459,-532.364"/>
<text text-anchor="middle" x="1090.8208" y="-615.8" font-family="Times,serif" font-size="14.00" fill="#000000">broadcast</text>
</g>
<!-- Reducer 38 -->
<g id="node40" class="node">
<title>Reducer 38</title>
<ellipse fill="none" stroke="#000000" cx="995" cy="-620" rx="50.7474" ry="18"/>
<text text-anchor="middle" x="995" y="-615.8" font-family="Times,serif" font-size="14.00" fill="#000000">Reducer 38</text>
</g>
<!-- Reducer 37&#45;&gt;Reducer 38 -->
<g id="edge50" class="edge">
<title>Reducer 37&#45;&gt;Reducer 38</title>
<path fill="none" stroke="#000000" d="M995,-687.7616C995,-676.3597 995,-661.4342 995,-648.494"/>
<polygon fill="#000000" stroke="#000000" points="998.5001,-648.2121 995,-638.2121 991.5001,-648.2121 998.5001,-648.2121"/>
<text text-anchor="middle" x="1019.1069" y="-658.8" font-family="Times,serif" font-size="14.00" fill="#000000">unsorted</text>
</g>
<!-- Reducer 20&#45;&gt;Map 39 -->
<g id="edge53" class="edge">
<title>Reducer 20&#45;&gt;Map 39</title>
<path fill="none" stroke="#000000" d="M797,-1269.6793C797,-1252.821 797,-1227.5651 797,-1208.147"/>
<polygon fill="#000000" stroke="#000000" points="800.5001,-1208.0501 797,-1198.0502 793.5001,-1208.0502 800.5001,-1208.0501"/>
<text text-anchor="middle" x="823.8208" y="-1229.8" font-family="Times,serif" font-size="14.00" fill="#000000">broadcast</text>
</g>
<!-- Reducer 23 -->
<g id="node34" class="node">
<title>Reducer 23</title>
<ellipse fill="none" stroke="#000000" cx="294" cy="-964" rx="50.7474" ry="18"/>
<text text-anchor="middle" x="294" y="-959.8" font-family="Times,serif" font-size="14.00" fill="#000000">Reducer 23</text>
</g>
<!-- Reducer 22&#45;&gt;Reducer 23 -->
<g id="edge32" class="edge">
<title>Reducer 22&#45;&gt;Reducer 23</title>
<path fill="none" stroke="#000000" d="M301.4733,-1053.6793C300.0684,-1036.821 297.9638,-1011.5651 296.3456,-992.147"/>
<polygon fill="#000000" stroke="#000000" points="299.8226,-991.7249 295.5042,-982.0502 292.8468,-992.3063 299.8226,-991.7249"/>
<text text-anchor="middle" x="317.1069" y="-1013.8" font-family="Times,serif" font-size="14.00" fill="#000000">sorted</text>
</g>
<!-- Reducer 23&#45;&gt;Reducer 9 -->
<g id="edge65" class="edge">
<title>Reducer 23&#45;&gt;Reducer 9</title>
<path fill="none" stroke="#000000" d="M270.5957,-948.0256C250.6162,-934.3889 221.7019,-914.6537 199.6576,-899.6076"/>
<polygon fill="#000000" stroke="#000000" points="201.5116,-896.6355 191.279,-893.8888 197.5654,-902.4172 201.5116,-896.6355"/>
<text text-anchor="middle" x="265.8208" y="-916.8" font-family="Times,serif" font-size="14.00" fill="#000000">broadcast</text>
</g>
<!-- Reducer 28&#45;&gt;Map 1 -->
<g id="edge59" class="edge">
<title>Reducer 28&#45;&gt;Map 1</title>
<path fill="none" stroke="#000000" d="M202.8777,-603.1836C215.47,-592.9446 232.3464,-579.9624 248.3584,-570 260.1458,-562.666 273.6334,-555.6394 285.7613,-549.772"/>
<polygon fill="#000000" stroke="#000000" points="287.5982,-552.7748 295.1377,-545.3312 284.6019,-546.4484 287.5982,-552.7748"/>
<text text-anchor="middle" x="275.8208" y="-572.8" font-family="Times,serif" font-size="14.00" fill="#000000">broadcast</text>
</g>
<!-- Reducer 40 -->
<g id="node37" class="node">
<title>Reducer 40</title>
<ellipse fill="none" stroke="#000000" cx="797" cy="-1072" rx="50.7474" ry="18"/>
<text text-anchor="middle" x="797" y="-1067.8" font-family="Times,serif" font-size="14.00" fill="#000000">Reducer 40</text>
</g>
<!-- Map 39&#45;&gt;Reducer 40 -->
<g id="edge37" class="edge">
<title>Map 39&#45;&gt;Reducer 40</title>
<path fill="none" stroke="#000000" d="M797,-1161.6793C797,-1144.821 797,-1119.5651 797,-1100.147"/>
<polygon fill="#000000" stroke="#000000" points="800.5001,-1100.0501 797,-1090.0502 793.5001,-1100.0502 800.5001,-1100.0501"/>
<text text-anchor="middle" x="814.1069" y="-1121.8" font-family="Times,serif" font-size="14.00" fill="#000000">sorted</text>
</g>
<!-- Reducer 40&#45;&gt;Reducer 41 -->
<g id="edge38" class="edge">
<title>Reducer 40&#45;&gt;Reducer 41</title>
<path fill="none" stroke="#000000" d="M797,-1053.6793C797,-1036.821 797,-1011.5651 797,-992.147"/>
<polygon fill="#000000" stroke="#000000" points="800.5001,-992.0501 797,-982.0502 793.5001,-992.0502 800.5001,-992.0501"/>
<text text-anchor="middle" x="814.1069" y="-1013.8" font-family="Times,serif" font-size="14.00" fill="#000000">sorted</text>
</g>
<!-- Map 3 -->
<g id="node38" class="node">
<title>Map 3</title>
<ellipse fill="none" stroke="#000000" cx="395" cy="-620" rx="32.8992" ry="18"/>
<text text-anchor="middle" x="395" y="-615.8" font-family="Times,serif" font-size="14.00" fill="#000000">Map 3</text>
</g>
<!-- Map 3&#45;&gt;Map 1 -->
<g id="edge57" class="edge">
<title>Map 3&#45;&gt;Map 1</title>
<path fill="none" stroke="#000000" d="M385.4921,-602.466C379.6562,-592.4547 371.6562,-579.9547 363,-570 358.6164,-564.9588 353.5139,-559.9992 348.407,-555.449"/>
<polygon fill="#000000" stroke="#000000" points="350.3589,-552.5134 340.4807,-548.6829 345.8141,-557.8375 350.3589,-552.5134"/>
<text text-anchor="middle" x="399.8208" y="-572.8" font-family="Times,serif" font-size="14.00" fill="#000000">broadcast</text>
</g>
<!-- Map 3&#45;&gt;Map 31 -->
<g id="edge39" class="edge">
<title>Map 3&#45;&gt;Map 31</title>
<path fill="none" stroke="#000000" d="M417.6137,-606.7105C438.0472,-595.2819 469.2883,-579.2237 498.3584,-570 555.5934,-551.8397 624.3575,-542.4205 669.0601,-537.8473"/>
<polygon fill="#000000" stroke="#000000" points="669.4421,-541.3267 679.0516,-536.865 668.7571,-534.3603 669.4421,-541.3267"/>
<text text-anchor="middle" x="525.8208" y="-572.8" font-family="Times,serif" font-size="14.00" fill="#000000">broadcast</text>
</g>
<!-- Map 4 -->
<g id="node39" class="node">
<title>Map 4</title>
<ellipse fill="none" stroke="#000000" cx="509" cy="-706" rx="32.8992" ry="18"/>
<text text-anchor="middle" x="509" y="-701.8" font-family="Times,serif" font-size="14.00" fill="#000000">Map 4</text>
</g>
<!-- Map 4&#45;&gt;Map 1 -->
<g id="edge58" class="edge">
<title>Map 4&#45;&gt;Map 1</title>
<path fill="none" stroke="#000000" d="M500.8547,-688.357C485.3597,-655.4598 451.3712,-586.5808 431,-570 411.6743,-554.2702 385.2602,-545.3323 363.1597,-540.2971"/>
<polygon fill="#000000" stroke="#000000" points="363.8544,-536.8668 353.35,-538.2479 362.423,-543.7189 363.8544,-536.8668"/>
<text text-anchor="middle" x="502.8208" y="-615.8" font-family="Times,serif" font-size="14.00" fill="#000000">broadcast</text>
</g>
<!-- Map 4&#45;&gt;Map 31 -->
<g id="edge40" class="edge">
<title>Map 4&#45;&gt;Map 31</title>
<path fill="none" stroke="#000000" d="M514.3357,-687.902C521.8761,-665.1423 537.6692,-626.1311 563.3584,-602 594.1146,-573.1093 639.1973,-555.0965 672.3977,-544.9272"/>
<polygon fill="#000000" stroke="#000000" points="673.6835,-548.1974 682.2908,-542.0196 671.7097,-541.4815 673.6835,-548.1974"/>
<text text-anchor="middle" x="590.8208" y="-615.8" font-family="Times,serif" font-size="14.00" fill="#000000">broadcast</text>
</g>
<!-- Reducer 6 -->
<g id="node43" class="node">
<title>Reducer 6</title>
<ellipse fill="none" stroke="#000000" cx="672" cy="-620" rx="46.4045" ry="18"/>
<text text-anchor="middle" x="672" y="-615.8" font-family="Times,serif" font-size="14.00" fill="#000000">Reducer 6</text>
</g>
<!-- Map 4&#45;&gt;Reducer 6 -->
<g id="edge62" class="edge">
<title>Map 4&#45;&gt;Reducer 6</title>
<path fill="none" stroke="#000000" d="M532.7016,-693.4949C559.7037,-679.2484 604.1451,-655.8008 635.56,-639.226"/>
<polygon fill="#000000" stroke="#000000" points="637.2418,-642.296 644.453,-634.534 633.9753,-636.1049 637.2418,-642.296"/>
<text text-anchor="middle" x="625.1069" y="-658.8" font-family="Times,serif" font-size="14.00" fill="#000000">unsorted</text>
</g>
<!-- Reducer 5 -->
<g id="node45" class="node">
<title>Reducer 5</title>
<ellipse fill="none" stroke="#000000" cx="298" cy="-620" rx="46.4045" ry="18"/>
<text text-anchor="middle" x="298" y="-615.8" font-family="Times,serif" font-size="14.00" fill="#000000">Reducer 5</text>
</g>
<!-- Map 4&#45;&gt;Reducer 5 -->
<g id="edge61" class="edge">
<title>Map 4&#45;&gt;Reducer 5</title>
<path fill="none" stroke="#000000" d="M479.9747,-697.3353C458.1992,-690.5754 427.7933,-680.5826 401.7861,-670 379.1793,-660.8011 354.542,-649.0107 334.9469,-639.1898"/>
<polygon fill="#000000" stroke="#000000" points="336.267,-635.9353 325.7636,-634.5468 333.1086,-642.1823 336.267,-635.9353"/>
<text text-anchor="middle" x="426.1069" y="-658.8" font-family="Times,serif" font-size="14.00" fill="#000000">unsorted</text>
</g>
<!-- Reducer 38&#45;&gt;Map 31 -->
<g id="edge42" class="edge">
<title>Reducer 38&#45;&gt;Map 31</title>
<path fill="none" stroke="#000000" d="M962.2921,-606.1969C936.0323,-595.4373 898.0531,-580.594 864,-570 829.6679,-559.3192 790.055,-549.8287 760.4557,-543.277"/>
<polygon fill="#000000" stroke="#000000" points="760.9456,-539.8015 750.4288,-541.0851 759.4506,-546.64 760.9456,-539.8015"/>
<text text-anchor="middle" x="931.8208" y="-572.8" font-family="Times,serif" font-size="14.00" fill="#000000">broadcast</text>
</g>
<!-- Reducer 45&#45;&gt;Map 31 -->
<g id="edge43" class="edge">
<title>Reducer 45&#45;&gt;Map 31</title>
<path fill="none" stroke="#000000" d="M754.8545,-687.7877C755.5076,-661.1068 754.461,-610.2029 740,-570 738.7304,-566.4703 737.0428,-562.9478 735.1487,-559.564"/>
<polygon fill="#000000" stroke="#000000" points="738.0723,-557.638 729.7977,-551.0213 732.14,-561.3539 738.0723,-557.638"/>
<text text-anchor="middle" x="780.8208" y="-615.8" font-family="Times,serif" font-size="14.00" fill="#000000">broadcast</text>
</g>
<!-- Reducer 46 -->
<g id="node42" class="node">
<title>Reducer 46</title>
<ellipse fill="none" stroke="#000000" cx="876" cy="-620" rx="50.7474" ry="18"/>
<text text-anchor="middle" x="876" y="-615.8" font-family="Times,serif" font-size="14.00" fill="#000000">Reducer 46</text>
</g>
<!-- Reducer 45&#45;&gt;Reducer 46 -->
<g id="edge64" class="edge">
<title>Reducer 45&#45;&gt;Reducer 46</title>
<path fill="none" stroke="#000000" d="M776.9473,-689.8241C796.1177,-676.3105 823.6366,-656.9119 844.8057,-641.9894"/>
<polygon fill="#000000" stroke="#000000" points="846.9988,-644.7257 853.1556,-636.1034 842.9657,-639.0043 846.9988,-644.7257"/>
<text text-anchor="middle" x="847.1069" y="-658.8" font-family="Times,serif" font-size="14.00" fill="#000000">unsorted</text>
</g>
<!-- Reducer 46&#45;&gt;Map 31 -->
<g id="edge44" class="edge">
<title>Reducer 46&#45;&gt;Map 31</title>
<path fill="none" stroke="#000000" d="M847.7635,-604.8229C820.4828,-590.1595 779.1283,-567.9315 750.0407,-552.2969"/>
<polygon fill="#000000" stroke="#000000" points="751.5265,-549.122 741.0611,-547.4704 748.2123,-555.2877 751.5265,-549.122"/>
<text text-anchor="middle" x="832.8208" y="-572.8" font-family="Times,serif" font-size="14.00" fill="#000000">broadcast</text>
</g>
<!-- Reducer 6&#45;&gt;Map 31 -->
<g id="edge45" class="edge">
<title>Reducer 6&#45;&gt;Map 31</title>
<path fill="none" stroke="#000000" d="M675.3573,-601.7339C677.6132,-591.9521 681.1449,-579.9114 686.3584,-570 688.3936,-566.1308 690.8892,-562.2921 693.5602,-558.6432"/>
<polygon fill="#000000" stroke="#000000" points="696.5077,-560.5592 699.9773,-550.5485 691.0223,-556.2106 696.5077,-560.5592"/>
<text text-anchor="middle" x="713.8208" y="-572.8" font-family="Times,serif" font-size="14.00" fill="#000000">broadcast</text>
</g>
<!-- Reducer 8 -->
<g id="node46" class="node">
<title>Reducer 8</title>
<ellipse fill="none" stroke="#000000" cx="168" cy="-1018" rx="46.4045" ry="18"/>
<text text-anchor="middle" x="168" y="-1013.8" font-family="Times,serif" font-size="14.00" fill="#000000">Reducer 8</text>
</g>
<!-- Map 7&#45;&gt;Reducer 8 -->
<g id="edge67" class="edge">
<title>Map 7&#45;&gt;Reducer 8</title>
<path fill="none" stroke="#000000" d="M168,-1161.7314C168,-1133.778 168,-1080.1418 168,-1046.882"/>
<polygon fill="#000000" stroke="#000000" points="171.5001,-1046.4503 168,-1036.4503 164.5001,-1046.4504 171.5001,-1046.4503"/>
<text text-anchor="middle" x="185.1069" y="-1121.8" font-family="Times,serif" font-size="14.00" fill="#000000">sorted</text>
</g>
<!-- Reducer 5&#45;&gt;Map 1 -->
<g id="edge60" class="edge">
<title>Reducer 5&#45;&gt;Map 1</title>
<path fill="none" stroke="#000000" d="M301.7138,-601.8512C303.7674,-592.3187 306.4819,-580.4722 309.3584,-570 310.125,-567.2091 310.9726,-564.3124 311.8506,-561.429"/>
<polygon fill="#000000" stroke="#000000" points="315.2016,-562.4402 314.8793,-551.8503 308.5273,-560.3299 315.2016,-562.4402"/>
<text text-anchor="middle" x="336.8208" y="-572.8" font-family="Times,serif" font-size="14.00" fill="#000000">broadcast</text>
</g>
<!-- Reducer 8&#45;&gt;Reducer 9 -->
<g id="edge66" class="edge">
<title>Reducer 8&#45;&gt;Reducer 9</title>
<path fill="none" stroke="#000000" d="M168,-999.9841C168,-976.3829 168,-934.7198 168,-906.7374"/>
<polygon fill="#000000" stroke="#000000" points="171.5001,-906.3913 168,-896.3914 164.5001,-906.3914 171.5001,-906.3913"/>
<text text-anchor="middle" x="185.1069" y="-959.8" font-family="Times,serif" font-size="14.00" fill="#000000">sorted</text>
</g>
</g>
</svg>
