<?xml version="1.0" encoding="UTF-8" standalone="no"?>
<!DOCTYPE svg PUBLIC "-//W3C//DTD SVG 1.1//EN"
 "http://www.w3.org/Graphics/SVG/1.1/DTD/svg11.dtd">
<!-- Generated by graphviz version 2.40.1 (20161225.0304)
 -->
<!-- Title: %3 Pages: 1 -->
<svg width="541pt" height="474pt"
 viewBox="0.00 0.00 540.83 474.00" xmlns="http://www.w3.org/2000/svg" xmlns:xlink="http://www.w3.org/1999/xlink">
<g id="graph0" class="graph" transform="scale(1 1) rotate(0) translate(4 470)">
<title>%3</title>
<polygon fill="#ffffff" stroke="transparent" points="-4,4 -4,-470 536.8253,-470 536.8253,4 -4,4"/>
<!-- Map 13 -->
<g id="node1" class="node">
<title>Map 13</title>
<ellipse fill="none" stroke="#000000" cx="50.6235" cy="-190" rx="37.243" ry="18"/>
<text text-anchor="middle" x="50.6235" y="-185.8" font-family="Times,serif" font-size="14.00" fill="#000000">Map 13</text>
</g>
<!-- Reducer 14 -->
<g id="node2" class="node">
<title>Reducer 14</title>
<ellipse fill="none" stroke="#000000" cx="50.6235" cy="-104" rx="50.7474" ry="18"/>
<text text-anchor="middle" x="50.6235" y="-99.8" font-family="Times,serif" font-size="14.00" fill="#000000">Reducer 14</text>
</g>
<!-- Map 13&#45;&gt;Reducer 14 -->
<g id="edge1" class="edge">
<title>Map 13&#45;&gt;Reducer 14</title>
<path fill="none" stroke="#000000" d="M50.6235,-171.7616C50.6235,-160.3597 50.6235,-145.4342 50.6235,-132.494"/>
<polygon fill="#000000" stroke="#000000" points="54.1236,-132.2121 50.6235,-122.2121 47.1236,-132.2121 54.1236,-132.2121"/>
<text text-anchor="middle" x="67.7305" y="-142.8" font-family="Times,serif" font-size="14.00" fill="#000000">sorted</text>
</g>
<!-- Reducer 6 -->
<g id="node10" class="node">
<title>Reducer 6</title>
<ellipse fill="none" stroke="#000000" cx="107.6235" cy="-18" rx="46.4045" ry="18"/>
<text text-anchor="middle" x="107.6235" y="-13.8" font-family="Times,serif" font-size="14.00" fill="#000000">Reducer 6</text>
</g>
<!-- Reducer 14&#45;&gt;Reducer 6 -->
<g id="edge8" class="edge">
<title>Reducer 14&#45;&gt;Reducer 6</title>
<path fill="none" stroke="#000000" d="M62.434,-86.1807C70.5123,-73.9924 81.3527,-57.6367 90.3911,-43.9998"/>
<polygon fill="#000000" stroke="#000000" points="93.416,-45.7712 96.0233,-35.5022 87.5812,-41.9039 93.416,-45.7712"/>
<text text-anchor="middle" x="97.7856" y="-56.8" font-family="Times,serif" font-size="14.00" fill="#000000">None</text>
</g>
<!-- Map 9 -->
<g id="node3" class="node">
<title>Map 9</title>
<ellipse fill="none" stroke="#000000" cx="270.6235" cy="-362" rx="32.8992" ry="18"/>
<text text-anchor="middle" x="270.6235" y="-357.8" font-family="Times,serif" font-size="14.00" fill="#000000">Map 9</text>
</g>
<!-- Reducer 10 -->
<g id="node4" class="node">
<title>Reducer 10</title>
<ellipse fill="none" stroke="#000000" cx="270.6235" cy="-276" rx="50.7474" ry="18"/>
<text text-anchor="middle" x="270.6235" y="-271.8" font-family="Times,serif" font-size="14.00" fill="#000000">Reducer 10</text>
</g>
<!-- Map 9&#45;&gt;Reducer 10 -->
<g id="edge2" class="edge">
<title>Map 9&#45;&gt;Reducer 10</title>
<path fill="none" stroke="#000000" d="M270.6235,-343.7616C270.6235,-332.3597 270.6235,-317.4342 270.6235,-304.494"/>
<polygon fill="#000000" stroke="#000000" points="274.1236,-304.2121 270.6235,-294.2121 267.1236,-304.2121 274.1236,-304.2121"/>
<text text-anchor="middle" x="287.7305" y="-314.8" font-family="Times,serif" font-size="14.00" fill="#000000">sorted</text>
</g>
<!-- Reducer 4 -->
<g id="node8" class="node">
<title>Reducer 4</title>
<ellipse fill="none" stroke="#000000" cx="275.6235" cy="-190" rx="46.4045" ry="18"/>
<text text-anchor="middle" x="275.6235" y="-185.8" font-family="Times,serif" font-size="14.00" fill="#000000">Reducer 4</text>
</g>
<!-- Reducer 10&#45;&gt;Reducer 4 -->
<g id="edge6" class="edge">
<title>Reducer 10&#45;&gt;Reducer 4</title>
<path fill="none" stroke="#000000" d="M271.6839,-257.7616C272.3468,-246.3597 273.2146,-231.4342 273.9669,-218.494"/>
<polygon fill="#000000" stroke="#000000" points="277.4783,-218.3984 274.5647,-208.2121 270.4901,-217.9921 277.4783,-218.3984"/>
<text text-anchor="middle" x="288.7856" y="-228.8" font-family="Times,serif" font-size="14.00" fill="#000000">None</text>
</g>
<!-- Map 11 -->
<g id="node5" class="node">
<title>Map 11</title>
<ellipse fill="none" stroke="#000000" cx="160.6235" cy="-276" rx="37.0949" ry="18"/>
<text text-anchor="middle" x="160.6235" y="-271.8" font-family="Times,serif" font-size="14.00" fill="#000000">Map 11</text>
</g>
<!-- Reducer 12 -->
<g id="node6" class="node">
<title>Reducer 12</title>
<ellipse fill="none" stroke="#000000" cx="160.6235" cy="-190" rx="50.7474" ry="18"/>
<text text-anchor="middle" x="160.6235" y="-185.8" font-family="Times,serif" font-size="14.00" fill="#000000">Reducer 12</text>
</g>
<!-- Map 11&#45;&gt;Reducer 12 -->
<g id="edge3" class="edge">
<title>Map 11&#45;&gt;Reducer 12</title>
<path fill="none" stroke="#000000" d="M160.6235,-257.7616C160.6235,-246.3597 160.6235,-231.4342 160.6235,-218.494"/>
<polygon fill="#000000" stroke="#000000" points="164.1236,-218.2121 160.6235,-208.2121 157.1236,-218.2121 164.1236,-218.2121"/>
<text text-anchor="middle" x="177.7305" y="-228.8" font-family="Times,serif" font-size="14.00" fill="#000000">sorted</text>
</g>
<!-- Reducer 5 -->
<g id="node7" class="node">
<title>Reducer 5</title>
<ellipse fill="none" stroke="#000000" cx="165.6235" cy="-104" rx="46.4045" ry="18"/>
<text text-anchor="middle" x="165.6235" y="-99.8" font-family="Times,serif" font-size="14.00" fill="#000000">Reducer 5</text>
</g>
<!-- Reducer 12&#45;&gt;Reducer 5 -->
<g id="edge4" class="edge">
<title>Reducer 12&#45;&gt;Reducer 5</title>
<path fill="none" stroke="#000000" d="M161.6839,-171.7616C162.3468,-160.3597 163.2146,-145.4342 163.9669,-132.494"/>
<polygon fill="#000000" stroke="#000000" points="167.4783,-132.3984 164.5647,-122.2121 160.4901,-131.9921 167.4783,-132.3984"/>
<text text-anchor="middle" x="178.7856" y="-142.8" font-family="Times,serif" font-size="14.00" fill="#000000">None</text>
</g>
<!-- Reducer 5&#45;&gt;Reducer 6 -->
<g id="edge9" class="edge">
<title>Reducer 5&#45;&gt;Reducer 6</title>
<path fill="none" stroke="#000000" d="M153.6059,-86.1807C145.3859,-73.9924 134.3552,-57.6367 125.1583,-43.9998"/>
<polygon fill="#000000" stroke="#000000" points="127.9206,-41.8359 119.4273,-35.5022 122.117,-45.7499 127.9206,-41.8359"/>
<text text-anchor="middle" x="155.7856" y="-56.8" font-family="Times,serif" font-size="14.00" fill="#000000">None</text>
</g>
<!-- Reducer 4&#45;&gt;Reducer 5 -->
<g id="edge5" class="edge">
<title>Reducer 4&#45;&gt;Reducer 5</title>
<path fill="none" stroke="#000000" d="M254.9334,-173.8241C237.9107,-160.5154 213.5871,-141.4988 194.6216,-126.6712"/>
<polygon fill="#000000" stroke="#000000" points="196.6288,-123.7977 186.5949,-120.3958 192.3173,-129.3124 196.6288,-123.7977"/>
<text text-anchor="middle" x="242.7856" y="-142.8" font-family="Times,serif" font-size="14.00" fill="#000000">None</text>
</g>
<!-- Reducer 3 -->
<g id="node9" class="node">
<title>Reducer 3</title>
<ellipse fill="none" stroke="#000000" cx="385.6235" cy="-276" rx="46.4045" ry="18"/>
<text text-anchor="middle" x="385.6235" y="-271.8" font-family="Times,serif" font-size="14.00" fill="#000000">Reducer 3</text>
</g>
<!-- Reducer 3&#45;&gt;Reducer 4 -->
<g id="edge7" class="edge">
<title>Reducer 3&#45;&gt;Reducer 4</title>
<path fill="none" stroke="#000000" d="M364.9334,-259.8241C347.9107,-246.5154 323.5871,-227.4988 304.6216,-212.6712"/>
<polygon fill="#000000" stroke="#000000" points="306.6288,-209.7977 296.5949,-206.3958 302.3173,-215.3124 306.6288,-209.7977"/>
<text text-anchor="middle" x="352.7856" y="-228.8" font-family="Times,serif" font-size="14.00" fill="#000000">None</text>
</g>
<!-- Reducer 2 -->
<g id="node11" class="node">
<title>Reducer 2</title>
<ellipse fill="none" stroke="#000000" cx="376.6235" cy="-362" rx="46.4045" ry="18"/>
<text text-anchor="middle" x="376.6235" y="-357.8" font-family="Times,serif" font-size="14.00" fill="#000000">Reducer 2</text>
</g>
<!-- Reducer 2&#45;&gt;Reducer 3 -->
<g id="edge10" class="edge">
<title>Reducer 2&#45;&gt;Reducer 3</title>
<path fill="none" stroke="#000000" d="M378.5322,-343.7616C379.7254,-332.3597 381.2874,-317.4342 382.6416,-304.494"/>
<polygon fill="#000000" stroke="#000000" points="386.1577,-304.5221 383.7176,-294.2121 379.1957,-303.7935 386.1577,-304.5221"/>
<text text-anchor="middle" x="397.7856" y="-314.8" font-family="Times,serif" font-size="14.00" fill="#000000">None</text>
</g>
<!-- Reducer 8 -->
<g id="node12" class="node">
<title>Reducer 8</title>
<ellipse fill="none" stroke="#000000" cx="486.6235" cy="-362" rx="46.4045" ry="18"/>
<text text-anchor="middle" x="486.6235" y="-357.8" font-family="Times,serif" font-size="14.00" fill="#000000">Reducer 8</text>
</g>
<!-- Reducer 8&#45;&gt;Reducer 3 -->
<g id="edge11" class="edge">
<title>Reducer 8&#45;&gt;Reducer 3</title>
<path fill="none" stroke="#000000" d="M467.1497,-345.4183C451.78,-332.3312 430.15,-313.9136 413.0316,-299.3375"/>
<polygon fill="#000000" stroke="#000000" points="414.9205,-296.349 405.0376,-292.5308 410.3823,-301.6787 414.9205,-296.349"/>
<text text-anchor="middle" x="457.7856" y="-314.8" font-family="Times,serif" font-size="14.00" fill="#000000">None</text>
</g>
<!-- Map 1 -->
<g id="node13" class="node">
<title>Map 1</title>
<ellipse fill="none" stroke="#000000" cx="376.6235" cy="-448" rx="32.8992" ry="18"/>
<text text-anchor="middle" x="376.6235" y="-443.8" font-family="Times,serif" font-size="14.00" fill="#000000">Map 1</text>
</g>
<!-- Map 1&#45;&gt;Reducer 2 -->
<g id="edge12" class="edge">
<title>Map 1&#45;&gt;Reducer 2</title>
<path fill="none" stroke="#000000" d="M376.6235,-429.7616C376.6235,-418.3597 376.6235,-403.4342 376.6235,-390.494"/>
<polygon fill="#000000" stroke="#000000" points="380.1236,-390.2121 376.6235,-380.2121 373.1236,-390.2121 380.1236,-390.2121"/>
<text text-anchor="middle" x="393.7305" y="-400.8" font-family="Times,serif" font-size="14.00" fill="#000000">sorted</text>
</g>
<!-- Map 7 -->
<g id="node14" class="node">
<title>Map 7</title>
<ellipse fill="none" stroke="#000000" cx="486.6235" cy="-448" rx="32.8992" ry="18"/>
<text text-anchor="middle" x="486.6235" y="-443.8" font-family="Times,serif" font-size="14.00" fill="#000000">Map 7</text>
</g>
<!-- Map 7&#45;&gt;Reducer 8 -->
<g id="edge13" class="edge">
<title>Map 7&#45;&gt;Reducer 8</title>
<path fill="none" stroke="#000000" d="M486.6235,-429.7616C486.6235,-418.3597 486.6235,-403.4342 486.6235,-390.494"/>
<polygon fill="#000000" stroke="#000000" points="490.1236,-390.2121 486.6235,-380.2121 483.1236,-390.2121 490.1236,-390.2121"/>
<text text-anchor="middle" x="503.7305" y="-400.8" font-family="Times,serif" font-size="14.00" fill="#000000">sorted</text>
</g>
</g>
</svg>
