<?xml version="1.0" encoding="UTF-8" standalone="no"?>
<!DOCTYPE svg PUBLIC "-//W3C//DTD SVG 1.1//EN"
 "http://www.w3.org/Graphics/SVG/1.1/DTD/svg11.dtd">
<!-- Generated by graphviz version 2.40.1 (20161225.0304)
 -->
<!-- Title: %3 Pages: 1 -->
<svg width="1291pt" height="560pt"
 viewBox="0.00 0.00 1290.82 560.00" xmlns="http://www.w3.org/2000/svg" xmlns:xlink="http://www.w3.org/1999/xlink">
<g id="graph0" class="graph" transform="scale(1 1) rotate(0) translate(4 556)">
<title>%3</title>
<polygon fill="#ffffff" stroke="transparent" points="-4,4 -4,-556 1286.8206,-556 1286.8206,4 -4,4"/>
<!-- Map 19 -->
<g id="node1" class="node">
<title>Map 19</title>
<ellipse fill="none" stroke="#000000" cx="335.1971" cy="-190" rx="37.243" ry="18"/>
<text text-anchor="middle" x="335.1971" y="-185.8" font-family="Times,serif" font-size="14.00" fill="#000000">Map 19</text>
</g>
<!-- Reducer 20 -->
<g id="node2" class="node">
<title>Reducer 20</title>
<ellipse fill="none" stroke="#000000" cx="434.1971" cy="-104" rx="50.7474" ry="18"/>
<text text-anchor="middle" x="434.1971" y="-99.8" font-family="Times,serif" font-size="14.00" fill="#000000">Reducer 20</text>
</g>
<!-- Map 19&#45;&gt;Reducer 20 -->
<g id="edge1" class="edge">
<title>Map 19&#45;&gt;Reducer 20</title>
<path fill="none" stroke="#000000" d="M353.3552,-174.2263C368.3223,-161.2246 389.7836,-142.5814 406.8328,-127.771"/>
<polygon fill="#000000" stroke="#000000" points="409.5462,-130.0501 414.8002,-120.8498 404.9555,-124.7656 409.5462,-130.0501"/>
<text text-anchor="middle" x="408.304" y="-142.8" font-family="Times,serif" font-size="14.00" fill="#000000">sorted</text>
</g>
<!-- Union 3 -->
<g id="node3" class="node">
<title>Union 3</title>
<ellipse fill="none" stroke="#000000" cx="692.1971" cy="-190" rx="38.6968" ry="18"/>
<text text-anchor="middle" x="692.1971" y="-185.8" font-family="Times,serif" font-size="14.00" fill="#000000">Union 3</text>
</g>
<!-- Union 3&#45;&gt;Reducer 20 -->
<g id="edge2" class="edge">
<title>Union 3&#45;&gt;Reducer 20</title>
<path fill="none" stroke="#000000" d="M661.6721,-178.8198C645.5304,-172.4145 625.64,-163.7241 608.8729,-154 599.8992,-148.7957 599.6044,-144.3719 590.1971,-140 580.7953,-135.6307 529.365,-124.1265 488.0885,-115.2879"/>
<polygon fill="#000000" stroke="#000000" points="488.6249,-111.8237 478.1148,-113.1615 487.1652,-118.6698 488.6249,-111.8237"/>
<text text-anchor="middle" x="624.3592" y="-142.8" font-family="Times,serif" font-size="14.00" fill="#000000">None</text>
</g>
<!-- Reducer 22 -->
<g id="node7" class="node">
<title>Reducer 22</title>
<ellipse fill="none" stroke="#000000" cx="586.1971" cy="-104" rx="50.7474" ry="18"/>
<text text-anchor="middle" x="586.1971" y="-99.8" font-family="Times,serif" font-size="14.00" fill="#000000">Reducer 22</text>
</g>
<!-- Union 3&#45;&gt;Reducer 22 -->
<g id="edge5" class="edge">
<title>Union 3&#45;&gt;Reducer 22</title>
<path fill="none" stroke="#000000" d="M677.6298,-173.2667C668.3154,-163.059 655.6779,-150.0805 643.1971,-140 636.5218,-134.6085 628.9951,-129.3525 621.6521,-124.5967"/>
<polygon fill="#000000" stroke="#000000" points="623.5065,-121.6283 613.1786,-119.2653 619.7787,-127.5532 623.5065,-121.6283"/>
<text text-anchor="middle" x="673.3592" y="-142.8" font-family="Times,serif" font-size="14.00" fill="#000000">None</text>
</g>
<!-- Reducer 4 -->
<g id="node20" class="node">
<title>Reducer 4</title>
<ellipse fill="none" stroke="#000000" cx="718.1971" cy="-104" rx="46.4045" ry="18"/>
<text text-anchor="middle" x="718.1971" y="-99.8" font-family="Times,serif" font-size="14.00" fill="#000000">Reducer 4</text>
</g>
<!-- Union 3&#45;&gt;Reducer 4 -->
<g id="edge19" class="edge">
<title>Union 3&#45;&gt;Reducer 4</title>
<path fill="none" stroke="#000000" d="M697.711,-171.7616C701.2161,-160.1678 705.8226,-144.931 709.7796,-131.8426"/>
<polygon fill="#000000" stroke="#000000" points="713.2365,-132.5022 712.7802,-121.9172 706.536,-130.4764 713.2365,-132.5022"/>
<text text-anchor="middle" x="723.304" y="-142.8" font-family="Times,serif" font-size="14.00" fill="#000000">sorted</text>
</g>
<!-- Reducer 2 -->
<g id="node22" class="node">
<title>Reducer 2</title>
<ellipse fill="none" stroke="#000000" cx="828.1971" cy="-104" rx="46.4045" ry="18"/>
<text text-anchor="middle" x="828.1971" y="-99.8" font-family="Times,serif" font-size="14.00" fill="#000000">Reducer 2</text>
</g>
<!-- Union 3&#45;&gt;Reducer 2 -->
<g id="edge31" class="edge">
<title>Union 3&#45;&gt;Reducer 2</title>
<path fill="none" stroke="#000000" d="M715.2676,-175.4113C737.136,-161.5827 770.2257,-140.6583 794.9418,-125.0291"/>
<polygon fill="#000000" stroke="#000000" points="797.0512,-127.8363 803.6325,-119.5335 793.3099,-121.92 797.0512,-127.8363"/>
<text text-anchor="middle" x="783.3592" y="-142.8" font-family="Times,serif" font-size="14.00" fill="#000000">None</text>
</g>
<!-- Map 7 -->
<g id="node4" class="node">
<title>Map 7</title>
<ellipse fill="none" stroke="#000000" cx="357.1971" cy="-362" rx="32.8992" ry="18"/>
<text text-anchor="middle" x="357.1971" y="-357.8" font-family="Times,serif" font-size="14.00" fill="#000000">Map 7</text>
</g>
<!-- Map 7&#45;&gt;Map 19 -->
<g id="edge22" class="edge">
<title>Map 7&#45;&gt;Map 19</title>
<path fill="none" stroke="#000000" d="M324.1631,-360.7194C244.9089,-356.8838 47.5758,-342.5536 7.5555,-294 -2.6212,-281.6535 -2.3748,-270.5455 7.5555,-258 41.7865,-214.7536 205.4871,-198.2506 287.7665,-192.6107"/>
<polygon fill="#000000" stroke="#000000" points="288.1123,-196.0956 297.8604,-191.9454 287.6518,-189.1107 288.1123,-196.0956"/>
<text text-anchor="middle" x="35.0179" y="-271.8" font-family="Times,serif" font-size="14.00" fill="#000000">broadcast</text>
</g>
<!-- Reducer 9 -->
<g id="node5" class="node">
<title>Reducer 9</title>
<ellipse fill="none" stroke="#000000" cx="116.1971" cy="-276" rx="46.4045" ry="18"/>
<text text-anchor="middle" x="116.1971" y="-271.8" font-family="Times,serif" font-size="14.00" fill="#000000">Reducer 9</text>
</g>
<!-- Map 7&#45;&gt;Reducer 9 -->
<g id="edge3" class="edge">
<title>Map 7&#45;&gt;Reducer 9</title>
<path fill="none" stroke="#000000" d="M327.2631,-354.1899C302.3351,-347.4464 266.0271,-337.0666 234.9832,-326 208.2431,-316.4676 178.8313,-304.1026 155.964,-294.0541"/>
<polygon fill="#000000" stroke="#000000" points="157.1521,-290.7525 146.5913,-289.9044 154.3182,-297.1532 157.1521,-290.7525"/>
<text text-anchor="middle" x="259.304" y="-314.8" font-family="Times,serif" font-size="14.00" fill="#000000">unsorted</text>
</g>
<!-- Map 21 -->
<g id="node6" class="node">
<title>Map 21</title>
<ellipse fill="none" stroke="#000000" cx="555.1971" cy="-190" rx="37.243" ry="18"/>
<text text-anchor="middle" x="555.1971" y="-185.8" font-family="Times,serif" font-size="14.00" fill="#000000">Map 21</text>
</g>
<!-- Map 7&#45;&gt;Map 21 -->
<g id="edge27" class="edge">
<title>Map 7&#45;&gt;Map 21</title>
<path fill="none" stroke="#000000" d="M362.6186,-344.0354C370.6011,-320.6781 387.7694,-280.2481 416.5555,-258 440.8302,-239.2386 455.3795,-252.9399 483.1971,-240 499.1571,-232.5759 515.393,-221.6536 528.3974,-211.9098"/>
<polygon fill="#000000" stroke="#000000" points="530.6467,-214.5954 536.4412,-205.7255 526.3801,-209.0459 530.6467,-214.5954"/>
<text text-anchor="middle" x="444.0179" y="-271.8" font-family="Times,serif" font-size="14.00" fill="#000000">broadcast</text>
</g>
<!-- Map 1 -->
<g id="node11" class="node">
<title>Map 1</title>
<ellipse fill="none" stroke="#000000" cx="971.1971" cy="-190" rx="32.8992" ry="18"/>
<text text-anchor="middle" x="971.1971" y="-185.8" font-family="Times,serif" font-size="14.00" fill="#000000">Map 1</text>
</g>
<!-- Map 7&#45;&gt;Map 1 -->
<g id="edge9" class="edge">
<title>Map 7&#45;&gt;Map 1</title>
<path fill="none" stroke="#000000" d="M389.2238,-357.4678C459.4702,-347.1547 624.7519,-320.7479 674.1971,-294 694.1984,-283.1801 690.7965,-269.2563 710.5555,-258 780.649,-218.0692 874.6234,-201.0764 928.4699,-194.2394"/>
<polygon fill="#000000" stroke="#000000" points="929.1779,-197.6793 938.6852,-193.0036 928.3372,-190.73 929.1779,-197.6793"/>
<text text-anchor="middle" x="737.0179" y="-271.8" font-family="Times,serif" font-size="14.00" fill="#000000">broadcast</text>
</g>
<!-- Reducer 8 -->
<g id="node14" class="node">
<title>Reducer 8</title>
<ellipse fill="none" stroke="#000000" cx="819.1971" cy="-276" rx="46.4045" ry="18"/>
<text text-anchor="middle" x="819.1971" y="-271.8" font-family="Times,serif" font-size="14.00" fill="#000000">Reducer 8</text>
</g>
<!-- Map 7&#45;&gt;Reducer 8 -->
<g id="edge32" class="edge">
<title>Map 7&#45;&gt;Reducer 8</title>
<path fill="none" stroke="#000000" d="M390.1572,-360.1506C466.677,-355.621 654.4628,-343.0825 715.1971,-326 728.6212,-322.2242 758.2007,-307.7687 782.3948,-295.3655"/>
<polygon fill="#000000" stroke="#000000" points="784.0779,-298.4355 791.3588,-290.7388 780.8673,-292.2152 784.0779,-298.4355"/>
<text text-anchor="middle" x="772.304" y="-314.8" font-family="Times,serif" font-size="14.00" fill="#000000">unsorted</text>
</g>
<!-- Reducer 10 -->
<g id="node18" class="node">
<title>Reducer 10</title>
<ellipse fill="none" stroke="#000000" cx="231.1971" cy="-276" rx="50.7474" ry="18"/>
<text text-anchor="middle" x="231.1971" y="-271.8" font-family="Times,serif" font-size="14.00" fill="#000000">Reducer 10</text>
</g>
<!-- Map 7&#45;&gt;Reducer 10 -->
<g id="edge15" class="edge">
<title>Map 7&#45;&gt;Reducer 10</title>
<path fill="none" stroke="#000000" d="M336.3907,-347.7988C316.4334,-334.1771 286.021,-313.4195 263.0209,-297.721"/>
<polygon fill="#000000" stroke="#000000" points="264.8387,-294.7242 254.606,-291.9775 260.8924,-300.5058 264.8387,-294.7242"/>
<text text-anchor="middle" x="326.304" y="-314.8" font-family="Times,serif" font-size="14.00" fill="#000000">unsorted</text>
</g>
<!-- Reducer 9&#45;&gt;Map 19 -->
<g id="edge24" class="edge">
<title>Reducer 9&#45;&gt;Map 19</title>
<path fill="none" stroke="#000000" d="M128.6376,-258.5785C137.4321,-247.5607 150.1818,-233.946 164.5555,-226 185.5911,-214.3712 246.1713,-203.3194 289.1535,-196.6019"/>
<polygon fill="#000000" stroke="#000000" points="289.769,-200.0485 299.1223,-195.0718 288.707,-193.1295 289.769,-200.0485"/>
<text text-anchor="middle" x="192.0179" y="-228.8" font-family="Times,serif" font-size="14.00" fill="#000000">broadcast</text>
</g>
<!-- Map 21&#45;&gt;Reducer 22 -->
<g id="edge4" class="edge">
<title>Map 21&#45;&gt;Reducer 22</title>
<path fill="none" stroke="#000000" d="M552.6081,-171.8736C551.9194,-162.1327 552.2214,-150.0865 555.9832,-140 557.3866,-136.2372 559.3672,-132.5905 561.6511,-129.1545"/>
<polygon fill="#000000" stroke="#000000" points="564.5129,-131.1737 567.7975,-121.1009 558.9483,-126.9269 564.5129,-131.1737"/>
<text text-anchor="middle" x="573.304" y="-142.8" font-family="Times,serif" font-size="14.00" fill="#000000">sorted</text>
</g>
<!-- Map 15 -->
<g id="node8" class="node">
<title>Map 15</title>
<ellipse fill="none" stroke="#000000" cx="940.1971" cy="-534" rx="37.243" ry="18"/>
<text text-anchor="middle" x="940.1971" y="-529.8" font-family="Times,serif" font-size="14.00" fill="#000000">Map 15</text>
</g>
<!-- Reducer 18 -->
<g id="node9" class="node">
<title>Reducer 18</title>
<ellipse fill="none" stroke="#000000" cx="821.1971" cy="-448" rx="50.7474" ry="18"/>
<text text-anchor="middle" x="821.1971" y="-443.8" font-family="Times,serif" font-size="14.00" fill="#000000">Reducer 18</text>
</g>
<!-- Map 15&#45;&gt;Reducer 18 -->
<g id="edge6" class="edge">
<title>Map 15&#45;&gt;Reducer 18</title>
<path fill="none" stroke="#000000" d="M919.4689,-519.0199C900.8574,-505.5696 873.2814,-485.6408 852.0741,-470.3145"/>
<polygon fill="#000000" stroke="#000000" points="853.8663,-467.2914 843.7112,-464.2707 849.7661,-472.9649 853.8663,-467.2914"/>
<text text-anchor="middle" x="904.304" y="-486.8" font-family="Times,serif" font-size="14.00" fill="#000000">sorted</text>
</g>
<!-- Reducer 17 -->
<g id="node16" class="node">
<title>Reducer 17</title>
<ellipse fill="none" stroke="#000000" cx="940.1971" cy="-448" rx="50.7474" ry="18"/>
<text text-anchor="middle" x="940.1971" y="-443.8" font-family="Times,serif" font-size="14.00" fill="#000000">Reducer 17</text>
</g>
<!-- Map 15&#45;&gt;Reducer 17 -->
<g id="edge13" class="edge">
<title>Map 15&#45;&gt;Reducer 17</title>
<path fill="none" stroke="#000000" d="M940.1971,-515.7616C940.1971,-504.3597 940.1971,-489.4342 940.1971,-476.494"/>
<polygon fill="#000000" stroke="#000000" points="943.6972,-476.2121 940.1971,-466.2121 936.6972,-476.2121 943.6972,-476.2121"/>
<text text-anchor="middle" x="957.304" y="-486.8" font-family="Times,serif" font-size="14.00" fill="#000000">sorted</text>
</g>
<!-- Reducer 16 -->
<g id="node17" class="node">
<title>Reducer 16</title>
<ellipse fill="none" stroke="#000000" cx="1059.1971" cy="-448" rx="50.7474" ry="18"/>
<text text-anchor="middle" x="1059.1971" y="-443.8" font-family="Times,serif" font-size="14.00" fill="#000000">Reducer 16</text>
</g>
<!-- Map 15&#45;&gt;Reducer 16 -->
<g id="edge14" class="edge">
<title>Map 15&#45;&gt;Reducer 16</title>
<path fill="none" stroke="#000000" d="M960.9253,-519.0199C979.5368,-505.5696 1007.1127,-485.6408 1028.32,-470.3145"/>
<polygon fill="#000000" stroke="#000000" points="1030.628,-472.9649 1036.6829,-464.2707 1026.5278,-467.2914 1030.628,-472.9649"/>
<text text-anchor="middle" x="1023.304" y="-486.8" font-family="Times,serif" font-size="14.00" fill="#000000">sorted</text>
</g>
<!-- Map 11 -->
<g id="node10" class="node">
<title>Map 11</title>
<ellipse fill="none" stroke="#000000" cx="940.1971" cy="-362" rx="37.0949" ry="18"/>
<text text-anchor="middle" x="940.1971" y="-357.8" font-family="Times,serif" font-size="14.00" fill="#000000">Map 11</text>
</g>
<!-- Reducer 18&#45;&gt;Map 11 -->
<g id="edge35" class="edge">
<title>Reducer 18&#45;&gt;Map 11</title>
<path fill="none" stroke="#000000" d="M840.5987,-431.1399C852.4313,-421.1255 868.027,-408.3943 882.5555,-398 890.5184,-392.303 899.3757,-386.5167 907.7108,-381.2975"/>
<polygon fill="#000000" stroke="#000000" points="909.8087,-384.1158 916.4833,-375.8878 906.1345,-378.1576 909.8087,-384.1158"/>
<text text-anchor="middle" x="909.0179" y="-400.8" font-family="Times,serif" font-size="14.00" fill="#000000">broadcast</text>
</g>
<!-- Map 11&#45;&gt;Map 19 -->
<g id="edge20" class="edge">
<title>Map 11&#45;&gt;Map 19</title>
<path fill="none" stroke="#000000" d="M902.8837,-360.6871C776.0156,-355.8449 367.0319,-336.9912 328.5555,-294 310.2674,-273.5661 315.9632,-240.8718 323.6534,-217.5982"/>
<polygon fill="#000000" stroke="#000000" points="327.0309,-218.5496 327.1273,-207.9552 320.4451,-216.1771 327.0309,-218.5496"/>
<text text-anchor="middle" x="356.0179" y="-271.8" font-family="Times,serif" font-size="14.00" fill="#000000">broadcast</text>
</g>
<!-- Map 11&#45;&gt;Map 21 -->
<g id="edge25" class="edge">
<title>Map 11&#45;&gt;Map 21</title>
<path fill="none" stroke="#000000" d="M933.9419,-344.1745C924.7043,-320.5868 905.0961,-279.4888 874.1971,-258 868.5292,-254.0582 686.2768,-216.6406 599.8434,-199.0525"/>
<polygon fill="#000000" stroke="#000000" points="600.293,-195.5724 589.7961,-197.0095 598.8981,-202.432 600.293,-195.5724"/>
<text text-anchor="middle" x="934.0179" y="-271.8" font-family="Times,serif" font-size="14.00" fill="#000000">broadcast</text>
</g>
<!-- Map 11&#45;&gt;Map 1 -->
<g id="edge7" class="edge">
<title>Map 11&#45;&gt;Map 1</title>
<path fill="none" stroke="#000000" d="M975.9469,-357.1719C1011.2564,-350.1917 1062.8403,-333.4549 1083.1971,-294 1098.5122,-264.3166 1078.6864,-244.9734 1051.1971,-226 1038.1611,-217.0024 1022.5138,-209.374 1008.5282,-203.4872"/>
<polygon fill="#000000" stroke="#000000" points="1009.7465,-200.2045 999.1639,-199.6946 1007.1187,-206.6926 1009.7465,-200.2045"/>
<text text-anchor="middle" x="1115.0179" y="-271.8" font-family="Times,serif" font-size="14.00" fill="#000000">broadcast</text>
</g>
<!-- Reducer 12 -->
<g id="node13" class="node">
<title>Reducer 12</title>
<ellipse fill="none" stroke="#000000" cx="1232.1971" cy="-276" rx="50.7474" ry="18"/>
<text text-anchor="middle" x="1232.1971" y="-271.8" font-family="Times,serif" font-size="14.00" fill="#000000">Reducer 12</text>
</g>
<!-- Map 11&#45;&gt;Reducer 12 -->
<g id="edge17" class="edge">
<title>Map 11&#45;&gt;Reducer 12</title>
<path fill="none" stroke="#000000" d="M976.1131,-357.5787C1013.6757,-352.3547 1074.0343,-342.2566 1124.1971,-326 1148.5714,-318.1008 1174.6737,-306.122 1195.1105,-295.8695"/>
<polygon fill="#000000" stroke="#000000" points="1196.7544,-298.9601 1204.0751,-291.3012 1193.5761,-292.7232 1196.7544,-298.9601"/>
<text text-anchor="middle" x="1181.304" y="-314.8" font-family="Times,serif" font-size="14.00" fill="#000000">unsorted</text>
</g>
<!-- Reducer 14 -->
<g id="node15" class="node">
<title>Reducer 14</title>
<ellipse fill="none" stroke="#000000" cx="1023.1971" cy="-276" rx="50.7474" ry="18"/>
<text text-anchor="middle" x="1023.1971" y="-271.8" font-family="Times,serif" font-size="14.00" fill="#000000">Reducer 14</text>
</g>
<!-- Map 11&#45;&gt;Reducer 14 -->
<g id="edge12" class="edge">
<title>Map 11&#45;&gt;Reducer 14</title>
<path fill="none" stroke="#000000" d="M956.2003,-345.4183C968.4423,-332.7339 985.517,-315.042 999.3648,-300.6936"/>
<polygon fill="#000000" stroke="#000000" points="1002.2488,-302.7454 1006.6749,-293.1194 997.212,-297.8843 1002.2488,-302.7454"/>
<text text-anchor="middle" x="1010.304" y="-314.8" font-family="Times,serif" font-size="14.00" fill="#000000">unsorted</text>
</g>
<!-- Reducer 13 -->
<g id="node19" class="node">
<title>Reducer 13</title>
<ellipse fill="none" stroke="#000000" cx="530.1971" cy="-276" rx="50.7474" ry="18"/>
<text text-anchor="middle" x="530.1971" y="-271.8" font-family="Times,serif" font-size="14.00" fill="#000000">Reducer 13</text>
</g>
<!-- Map 11&#45;&gt;Reducer 13 -->
<g id="edge16" class="edge">
<title>Map 11&#45;&gt;Reducer 13</title>
<path fill="none" stroke="#000000" d="M910.0189,-351.4607C889.8639,-344.374 862.7863,-334.7615 838.9832,-326 822.5666,-319.9574 819.2527,-315.8889 802.1971,-312 710.002,-290.9786 683.0907,-311.6804 590.1971,-294 585.8118,-293.1654 581.2903,-292.1356 576.7889,-290.9948"/>
<polygon fill="#000000" stroke="#000000" points="577.5948,-287.587 567.0277,-288.3525 575.7657,-294.3439 577.5948,-287.587"/>
<text text-anchor="middle" x="862.304" y="-314.8" font-family="Times,serif" font-size="14.00" fill="#000000">unsorted</text>
</g>
<!-- Map 1&#45;&gt;Reducer 2 -->
<g id="edge30" class="edge">
<title>Map 1&#45;&gt;Reducer 2</title>
<path fill="none" stroke="#000000" d="M948.8533,-176.5625C925.705,-162.6411 889.2333,-140.7071 862.4435,-124.5957"/>
<polygon fill="#000000" stroke="#000000" points="864.1361,-121.5295 853.7626,-119.3751 860.5284,-127.5283 864.1361,-121.5295"/>
<text text-anchor="middle" x="925.304" y="-142.8" font-family="Times,serif" font-size="14.00" fill="#000000">sorted</text>
</g>
<!-- Map 6 -->
<g id="node12" class="node">
<title>Map 6</title>
<ellipse fill="none" stroke="#000000" cx="632.1971" cy="-276" rx="32.8992" ry="18"/>
<text text-anchor="middle" x="632.1971" y="-271.8" font-family="Times,serif" font-size="14.00" fill="#000000">Map 6</text>
</g>
<!-- Map 6&#45;&gt;Map 19 -->
<g id="edge21" class="edge">
<title>Map 6&#45;&gt;Map 19</title>
<path fill="none" stroke="#000000" d="M607.2121,-264.2345C601.6919,-261.9345 595.8132,-259.7094 590.1971,-258 548.8177,-245.4054 536.5171,-250.4926 494.5555,-240 453.435,-229.7177 407.3153,-214.8752 375.3132,-204.033"/>
<polygon fill="#000000" stroke="#000000" points="376.0378,-200.5821 365.4433,-200.6642 373.7766,-207.2069 376.0378,-200.5821"/>
<text text-anchor="middle" x="522.0179" y="-228.8" font-family="Times,serif" font-size="14.00" fill="#000000">broadcast</text>
</g>
<!-- Map 6&#45;&gt;Map 21 -->
<g id="edge26" class="edge">
<title>Map 6&#45;&gt;Map 21</title>
<path fill="none" stroke="#000000" d="M606.4685,-264.5265C585.1453,-254.8975 558.0824,-242.3466 556.5555,-240 552.3876,-233.5949 550.9247,-225.6852 550.7995,-218.062"/>
<polygon fill="#000000" stroke="#000000" points="554.2978,-218.1832 551.3295,-208.0127 547.3076,-217.8144 554.2978,-218.1832"/>
<text text-anchor="middle" x="584.0179" y="-228.8" font-family="Times,serif" font-size="14.00" fill="#000000">broadcast</text>
</g>
<!-- Map 6&#45;&gt;Map 1 -->
<g id="edge8" class="edge">
<title>Map 6&#45;&gt;Map 1</title>
<path fill="none" stroke="#000000" d="M627.3694,-258.0974C625.6588,-247.4496 625.7769,-234.4192 633.5555,-226 643.4523,-215.2881 839.8499,-199.6223 928.4653,-193.0647"/>
<polygon fill="#000000" stroke="#000000" points="928.7496,-196.5533 938.466,-192.3295 928.2363,-189.5722 928.7496,-196.5533"/>
<text text-anchor="middle" x="661.0179" y="-228.8" font-family="Times,serif" font-size="14.00" fill="#000000">broadcast</text>
</g>
<!-- Reducer 12&#45;&gt;Map 1 -->
<g id="edge10" class="edge">
<title>Reducer 12&#45;&gt;Map 1</title>
<path fill="none" stroke="#000000" d="M1203.9713,-261.009C1182.5528,-250.1113 1152.1269,-235.6396 1124.1971,-226 1087.3488,-213.2823 1043.9832,-203.5482 1012.8475,-197.428"/>
<polygon fill="#000000" stroke="#000000" points="1013.2656,-193.9444 1002.7844,-195.4919 1011.943,-200.8183 1013.2656,-193.9444"/>
<text text-anchor="middle" x="1184.0179" y="-228.8" font-family="Times,serif" font-size="14.00" fill="#000000">broadcast</text>
</g>
<!-- Reducer 8&#45;&gt;Map 1 -->
<g id="edge11" class="edge">
<title>Reducer 8&#45;&gt;Map 1</title>
<path fill="none" stroke="#000000" d="M854.8462,-264.4805C862.8089,-262.1388 871.2495,-259.8343 879.1971,-258 903.3322,-252.4296 973.1588,-258.876 989.1971,-240 995.0757,-233.0813 993.7751,-224.0935 989.946,-215.6497"/>
<polygon fill="#000000" stroke="#000000" points="992.9496,-213.8496 985.0187,-206.8245 986.8376,-217.262 992.9496,-213.8496"/>
<text text-anchor="middle" x="1020.0179" y="-228.8" font-family="Times,serif" font-size="14.00" fill="#000000">broadcast</text>
</g>
<!-- Reducer 14&#45;&gt;Map 21 -->
<g id="edge29" class="edge">
<title>Reducer 14&#45;&gt;Map 21</title>
<path fill="none" stroke="#000000" d="M985.6718,-263.6855C968.6976,-257.5073 948.6546,-249.3462 931.5555,-240 922.2385,-234.9074 922.1836,-229.6069 912.1971,-226 856.0568,-205.7235 703.3572,-215.9337 644.1971,-208 629.3613,-206.0104 613.2868,-203.0204 598.9336,-200.0459"/>
<polygon fill="#000000" stroke="#000000" points="599.3381,-196.5537 588.8288,-197.8971 597.8821,-203.4006 599.3381,-196.5537"/>
<text text-anchor="middle" x="958.0179" y="-228.8" font-family="Times,serif" font-size="14.00" fill="#000000">broadcast</text>
</g>
<!-- Reducer 17&#45;&gt;Map 11 -->
<g id="edge34" class="edge">
<title>Reducer 17&#45;&gt;Map 11</title>
<path fill="none" stroke="#000000" d="M940.1971,-429.7616C940.1971,-418.3597 940.1971,-403.4342 940.1971,-390.494"/>
<polygon fill="#000000" stroke="#000000" points="943.6972,-390.2121 940.1971,-380.2121 936.6972,-390.2121 943.6972,-390.2121"/>
<text text-anchor="middle" x="967.0179" y="-400.8" font-family="Times,serif" font-size="14.00" fill="#000000">broadcast</text>
</g>
<!-- Reducer 16&#45;&gt;Map 11 -->
<g id="edge33" class="edge">
<title>Reducer 16&#45;&gt;Map 11</title>
<path fill="none" stroke="#000000" d="M1039.933,-431.1139C1028.1783,-421.0903 1012.6742,-408.3585 998.1971,-398 990.1137,-392.2163 981.1017,-386.3584 972.6372,-381.0957"/>
<polygon fill="#000000" stroke="#000000" points="974.4324,-378.091 964.0762,-375.8549 970.7776,-384.0611 974.4324,-378.091"/>
<text text-anchor="middle" x="1042.0179" y="-400.8" font-family="Times,serif" font-size="14.00" fill="#000000">broadcast</text>
</g>
<!-- Reducer 10&#45;&gt;Map 21 -->
<g id="edge28" class="edge">
<title>Reducer 10&#45;&gt;Map 21</title>
<path fill="none" stroke="#000000" d="M245.4225,-258.2181C255.4102,-247.0481 269.7646,-233.3992 285.5555,-226 305.2738,-216.7605 436.5295,-202.1492 508.379,-194.7015"/>
<polygon fill="#000000" stroke="#000000" points="508.9396,-198.1624 518.5283,-193.6562 508.2223,-191.1992 508.9396,-198.1624"/>
<text text-anchor="middle" x="313.0179" y="-228.8" font-family="Times,serif" font-size="14.00" fill="#000000">broadcast</text>
</g>
<!-- Reducer 13&#45;&gt;Map 19 -->
<g id="edge23" class="edge">
<title>Reducer 13&#45;&gt;Map 19</title>
<path fill="none" stroke="#000000" d="M491.4591,-264.3199C483.1685,-262.0411 474.4278,-259.8028 466.1971,-258 416.2443,-247.0587 391.7702,-272.8207 352.5555,-240 345.9428,-234.4655 341.8456,-226.2697 339.3083,-218.1075"/>
<polygon fill="#000000" stroke="#000000" points="342.6974,-217.2319 336.9227,-208.3492 335.8977,-218.8943 342.6974,-217.2319"/>
<text text-anchor="middle" x="380.0179" y="-228.8" font-family="Times,serif" font-size="14.00" fill="#000000">broadcast</text>
</g>
<!-- Reducer 5 -->
<g id="node21" class="node">
<title>Reducer 5</title>
<ellipse fill="none" stroke="#000000" cx="718.1971" cy="-18" rx="46.4045" ry="18"/>
<text text-anchor="middle" x="718.1971" y="-13.8" font-family="Times,serif" font-size="14.00" fill="#000000">Reducer 5</text>
</g>
<!-- Reducer 4&#45;&gt;Reducer 5 -->
<g id="edge18" class="edge">
<title>Reducer 4&#45;&gt;Reducer 5</title>
<path fill="none" stroke="#000000" d="M718.1971,-85.7616C718.1971,-74.3597 718.1971,-59.4342 718.1971,-46.494"/>
<polygon fill="#000000" stroke="#000000" points="721.6972,-46.2121 718.1971,-36.2121 714.6972,-46.2121 721.6972,-46.2121"/>
<text text-anchor="middle" x="735.304" y="-56.8" font-family="Times,serif" font-size="14.00" fill="#000000">sorted</text>
</g>
</g>
</svg>
