<?xml version="1.0" encoding="UTF-8" standalone="no"?>
<!DOCTYPE svg PUBLIC "-//W3C//DTD SVG 1.1//EN"
 "http://www.w3.org/Graphics/SVG/1.1/DTD/svg11.dtd">
<!-- Generated by graphviz version 2.40.1 (20161225.0304)
 -->
<!-- Title: %3 Pages: 1 -->
<svg width="577pt" height="646pt"
 viewBox="0.00 0.00 576.90 646.00" xmlns="http://www.w3.org/2000/svg" xmlns:xlink="http://www.w3.org/1999/xlink">
<g id="graph0" class="graph" transform="scale(1 1) rotate(0) translate(4 642)">
<title>%3</title>
<polygon fill="#ffffff" stroke="transparent" points="-4,4 -4,-642 572.9019,-642 572.9019,4 -4,4"/>
<!-- Map 4 -->
<g id="node1" class="node">
<title>Map 4</title>
<ellipse fill="none" stroke="#000000" cx="262.688" cy="-620" rx="32.8992" ry="18"/>
<text text-anchor="middle" x="262.688" y="-615.8" font-family="Times,serif" font-size="14.00" fill="#000000">Map 4</text>
</g>
<!-- Map 5 -->
<g id="node2" class="node">
<title>Map 5</title>
<ellipse fill="none" stroke="#000000" cx="261.688" cy="-362" rx="32.8992" ry="18"/>
<text text-anchor="middle" x="261.688" y="-357.8" font-family="Times,serif" font-size="14.00" fill="#000000">Map 5</text>
</g>
<!-- Map 4&#45;&gt;Map 5 -->
<g id="edge1" class="edge">
<title>Map 4&#45;&gt;Map 5</title>
<path fill="none" stroke="#000000" d="M262.6177,-601.8579C262.4459,-557.5401 262.0039,-443.5129 261.7974,-390.2275"/>
<polygon fill="#000000" stroke="#000000" points="265.2971,-390.1083 261.7582,-380.122 258.2971,-390.1355 265.2971,-390.1083"/>
<text text-anchor="middle" x="288.5088" y="-486.8" font-family="Times,serif" font-size="14.00" fill="#000000">broadcast</text>
</g>
<!-- Map 1 -->
<g id="node7" class="node">
<title>Map 1</title>
<ellipse fill="none" stroke="#000000" cx="397.688" cy="-534" rx="32.8992" ry="18"/>
<text text-anchor="middle" x="397.688" y="-529.8" font-family="Times,serif" font-size="14.00" fill="#000000">Map 1</text>
</g>
<!-- Map 4&#45;&gt;Map 1 -->
<g id="edge6" class="edge">
<title>Map 4&#45;&gt;Map 1</title>
<path fill="none" stroke="#000000" d="M284.3781,-606.1826C306.9135,-591.8267 342.3474,-569.254 367.5871,-553.1754"/>
<polygon fill="#000000" stroke="#000000" points="369.4982,-556.1079 376.0517,-547.7831 365.7372,-550.204 369.4982,-556.1079"/>
<text text-anchor="middle" x="364.5088" y="-572.8" font-family="Times,serif" font-size="14.00" fill="#000000">broadcast</text>
</g>
<!-- Map 10 -->
<g id="node8" class="node">
<title>Map 10</title>
<ellipse fill="none" stroke="#000000" cx="96.688" cy="-534" rx="37.243" ry="18"/>
<text text-anchor="middle" x="96.688" y="-529.8" font-family="Times,serif" font-size="14.00" fill="#000000">Map 10</text>
</g>
<!-- Map 4&#45;&gt;Map 10 -->
<g id="edge19" class="edge">
<title>Map 4&#45;&gt;Map 10</title>
<path fill="none" stroke="#000000" d="M238.5502,-607.4949C210.3145,-592.8668 163.3544,-568.538 131.257,-551.9092"/>
<polygon fill="#000000" stroke="#000000" points="132.7077,-548.719 122.2185,-547.2266 129.4876,-554.9345 132.7077,-548.719"/>
<text text-anchor="middle" x="215.5088" y="-572.8" font-family="Times,serif" font-size="14.00" fill="#000000">broadcast</text>
</g>
<!-- Reducer 6 -->
<g id="node12" class="node">
<title>Reducer 6</title>
<ellipse fill="none" stroke="#000000" cx="258.688" cy="-276" rx="46.4045" ry="18"/>
<text text-anchor="middle" x="258.688" y="-271.8" font-family="Times,serif" font-size="14.00" fill="#000000">Reducer 6</text>
</g>
<!-- Map 5&#45;&gt;Reducer 6 -->
<g id="edge14" class="edge">
<title>Map 5&#45;&gt;Reducer 6</title>
<path fill="none" stroke="#000000" d="M261.0518,-343.7616C260.654,-332.3597 260.1334,-317.4342 259.682,-304.494"/>
<polygon fill="#000000" stroke="#000000" points="263.1699,-304.084 259.3233,-294.2121 256.1741,-304.3281 263.1699,-304.084"/>
<text text-anchor="middle" x="283.7949" y="-314.8" font-family="Times,serif" font-size="14.00" fill="#000000">unsorted</text>
</g>
<!-- Reducer 11 -->
<g id="node3" class="node">
<title>Reducer 11</title>
<ellipse fill="none" stroke="#000000" cx="64.688" cy="-448" rx="50.1002" ry="18"/>
<text text-anchor="middle" x="64.688" y="-443.8" font-family="Times,serif" font-size="14.00" fill="#000000">Reducer 11</text>
</g>
<!-- Reducer 11&#45;&gt;Map 5 -->
<g id="edge2" class="edge">
<title>Reducer 11&#45;&gt;Map 5</title>
<path fill="none" stroke="#000000" d="M82.8311,-431.0265C95.2785,-420.1979 112.6363,-406.6256 130.0464,-398 158.4418,-383.9318 193.0986,-374.7372 219.7238,-369.1637"/>
<polygon fill="#000000" stroke="#000000" points="220.7504,-372.5277 229.8688,-367.1326 219.3762,-365.6639 220.7504,-372.5277"/>
<text text-anchor="middle" x="157.5088" y="-400.8" font-family="Times,serif" font-size="14.00" fill="#000000">broadcast</text>
</g>
<!-- Reducer 12 -->
<g id="node4" class="node">
<title>Reducer 12</title>
<ellipse fill="none" stroke="#000000" cx="183.688" cy="-448" rx="50.7474" ry="18"/>
<text text-anchor="middle" x="183.688" y="-443.8" font-family="Times,serif" font-size="14.00" fill="#000000">Reducer 12</text>
</g>
<!-- Reducer 12&#45;&gt;Map 5 -->
<g id="edge3" class="edge">
<title>Reducer 12&#45;&gt;Map 5</title>
<path fill="none" stroke="#000000" d="M184.1993,-429.8059C185.3162,-419.5746 188.1558,-407.0746 195.0464,-398 202.3656,-388.3608 213.036,-380.9994 223.7018,-375.5238"/>
<polygon fill="#000000" stroke="#000000" points="225.4089,-378.5896 232.9893,-371.1876 222.4475,-372.2468 225.4089,-378.5896"/>
<text text-anchor="middle" x="221.5088" y="-400.8" font-family="Times,serif" font-size="14.00" fill="#000000">broadcast</text>
</g>
<!-- Reducer 2 -->
<g id="node5" class="node">
<title>Reducer 2</title>
<ellipse fill="none" stroke="#000000" cx="446.688" cy="-448" rx="46.4045" ry="18"/>
<text text-anchor="middle" x="446.688" y="-443.8" font-family="Times,serif" font-size="14.00" fill="#000000">Reducer 2</text>
</g>
<!-- Reducer 2&#45;&gt;Map 5 -->
<g id="edge4" class="edge">
<title>Reducer 2&#45;&gt;Map 5</title>
<path fill="none" stroke="#000000" d="M422.4759,-432.3626C405.5788,-421.8422 382.2746,-408.102 360.688,-398 341.171,-388.8666 318.6482,-380.5146 300.0207,-374.1594"/>
<polygon fill="#000000" stroke="#000000" points="300.9887,-370.7926 290.3948,-370.9335 298.7643,-377.4298 300.9887,-370.7926"/>
<text text-anchor="middle" x="413.5088" y="-400.8" font-family="Times,serif" font-size="14.00" fill="#000000">broadcast</text>
</g>
<!-- Reducer 3 -->
<g id="node6" class="node">
<title>Reducer 3</title>
<ellipse fill="none" stroke="#000000" cx="336.688" cy="-448" rx="46.4045" ry="18"/>
<text text-anchor="middle" x="336.688" y="-443.8" font-family="Times,serif" font-size="14.00" fill="#000000">Reducer 3</text>
</g>
<!-- Reducer 3&#45;&gt;Map 5 -->
<g id="edge5" class="edge">
<title>Reducer 3&#45;&gt;Map 5</title>
<path fill="none" stroke="#000000" d="M321.5106,-430.5966C310.4186,-417.8777 295.2298,-400.4613 282.9327,-386.3606"/>
<polygon fill="#000000" stroke="#000000" points="285.2899,-383.7384 276.0794,-378.5021 280.0142,-388.3392 285.2899,-383.7384"/>
<text text-anchor="middle" x="329.5088" y="-400.8" font-family="Times,serif" font-size="14.00" fill="#000000">broadcast</text>
</g>
<!-- Map 1&#45;&gt;Reducer 2 -->
<g id="edge16" class="edge">
<title>Map 1&#45;&gt;Reducer 2</title>
<path fill="none" stroke="#000000" d="M407.6039,-516.5966C414.4657,-504.5534 423.7273,-488.2984 431.5125,-474.6346"/>
<polygon fill="#000000" stroke="#000000" points="434.7092,-476.094 436.6187,-465.6727 428.6271,-472.6286 434.7092,-476.094"/>
<text text-anchor="middle" x="448.7949" y="-486.8" font-family="Times,serif" font-size="14.00" fill="#000000">unsorted</text>
</g>
<!-- Map 1&#45;&gt;Reducer 3 -->
<g id="edge15" class="edge">
<title>Map 1&#45;&gt;Reducer 3</title>
<path fill="none" stroke="#000000" d="M382.4395,-517.657C377.1422,-511.6644 371.3194,-504.7046 366.4741,-498 361.1994,-490.7012 355.9872,-482.4242 351.4333,-474.7349"/>
<polygon fill="#000000" stroke="#000000" points="354.4604,-472.9778 346.4255,-466.0719 348.4001,-476.4811 354.4604,-472.9778"/>
<text text-anchor="middle" x="389.7949" y="-486.8" font-family="Times,serif" font-size="14.00" fill="#000000">unsorted</text>
</g>
<!-- Reducer 7 -->
<g id="node9" class="node">
<title>Reducer 7</title>
<ellipse fill="none" stroke="#000000" cx="406.688" cy="-190" rx="46.4045" ry="18"/>
<text text-anchor="middle" x="406.688" y="-185.8" font-family="Times,serif" font-size="14.00" fill="#000000">Reducer 7</text>
</g>
<!-- Map 1&#45;&gt;Reducer 7 -->
<g id="edge9" class="edge">
<title>Map 1&#45;&gt;Reducer 7</title>
<path fill="none" stroke="#000000" d="M428.0925,-526.9568C464.5163,-516.5042 520.688,-493.0771 520.688,-448 520.688,-448 520.688,-448 520.688,-276 520.688,-250.9529 513.1879,-242.8852 494.688,-226 483.5933,-215.8737 469.2667,-208.3976 455.4079,-202.9672"/>
<polygon fill="#000000" stroke="#000000" points="456.5276,-199.6503 445.9334,-199.5271 454.1385,-206.23 456.5276,-199.6503"/>
<text text-anchor="middle" x="544.7949" y="-357.8" font-family="Times,serif" font-size="14.00" fill="#000000">unsorted</text>
</g>
<!-- Map 10&#45;&gt;Reducer 11 -->
<g id="edge7" class="edge">
<title>Map 10&#45;&gt;Reducer 11</title>
<path fill="none" stroke="#000000" d="M90.0576,-516.1807C85.7103,-504.4975 79.9382,-488.985 74.9982,-475.7086"/>
<polygon fill="#000000" stroke="#000000" points="78.1877,-474.2439 71.42,-466.0923 71.6271,-476.6851 78.1877,-474.2439"/>
<text text-anchor="middle" x="106.7949" y="-486.8" font-family="Times,serif" font-size="14.00" fill="#000000">unsorted</text>
</g>
<!-- Map 10&#45;&gt;Reducer 12 -->
<g id="edge8" class="edge">
<title>Map 10&#45;&gt;Reducer 12</title>
<path fill="none" stroke="#000000" d="M113.8415,-518.0048C120.4136,-511.81 127.9487,-504.6262 134.688,-498 143.0485,-489.7797 152.0661,-480.6547 160.0584,-472.474"/>
<polygon fill="#000000" stroke="#000000" points="162.5943,-474.8867 167.0617,-465.2798 157.5784,-470.004 162.5943,-474.8867"/>
<text text-anchor="middle" x="172.7949" y="-486.8" font-family="Times,serif" font-size="14.00" fill="#000000">unsorted</text>
</g>
<!-- Map 10&#45;&gt;Reducer 6 -->
<g id="edge13" class="edge">
<title>Map 10&#45;&gt;Reducer 6</title>
<path fill="none" stroke="#000000" d="M68.7474,-521.8374C47.1362,-510.7459 18.7647,-492.0959 5.688,-466 -1.48,-451.6955 -2.104,-443.9744 5.688,-430 49.2166,-351.9341 150.276,-308.8815 210.6714,-289.2857"/>
<polygon fill="#000000" stroke="#000000" points="211.8788,-292.5749 220.363,-286.229 209.7733,-285.899 211.8788,-292.5749"/>
<text text-anchor="middle" x="50.7949" y="-400.8" font-family="Times,serif" font-size="14.00" fill="#000000">unsorted</text>
</g>
<!-- Reducer 8 -->
<g id="node13" class="node">
<title>Reducer 8</title>
<ellipse fill="none" stroke="#000000" cx="406.688" cy="-104" rx="46.4045" ry="18"/>
<text text-anchor="middle" x="406.688" y="-99.8" font-family="Times,serif" font-size="14.00" fill="#000000">Reducer 8</text>
</g>
<!-- Reducer 7&#45;&gt;Reducer 8 -->
<g id="edge18" class="edge">
<title>Reducer 7&#45;&gt;Reducer 8</title>
<path fill="none" stroke="#000000" d="M406.688,-171.7616C406.688,-160.3597 406.688,-145.4342 406.688,-132.494"/>
<polygon fill="#000000" stroke="#000000" points="410.1881,-132.2121 406.688,-122.2121 403.1881,-132.2121 410.1881,-132.2121"/>
<text text-anchor="middle" x="423.7949" y="-142.8" font-family="Times,serif" font-size="14.00" fill="#000000">sorted</text>
</g>
<!-- Map 13 -->
<g id="node10" class="node">
<title>Map 13</title>
<ellipse fill="none" stroke="#000000" cx="360.688" cy="-276" rx="37.243" ry="18"/>
<text text-anchor="middle" x="360.688" y="-271.8" font-family="Times,serif" font-size="14.00" fill="#000000">Map 13</text>
</g>
<!-- Map 13&#45;&gt;Reducer 7 -->
<g id="edge10" class="edge">
<title>Map 13&#45;&gt;Reducer 7</title>
<path fill="none" stroke="#000000" d="M364.4087,-257.7034C366.8596,-247.9127 370.6322,-235.8732 376.0464,-226 378.133,-222.1949 380.6648,-218.4259 383.369,-214.8403"/>
<polygon fill="#000000" stroke="#000000" points="386.2558,-216.8384 389.8628,-206.8765 380.8307,-212.4147 386.2558,-216.8384"/>
<text text-anchor="middle" x="402.5088" y="-228.8" font-family="Times,serif" font-size="14.00" fill="#000000">broadcast</text>
</g>
<!-- Map 14 -->
<g id="node11" class="node">
<title>Map 14</title>
<ellipse fill="none" stroke="#000000" cx="453.688" cy="-276" rx="37.243" ry="18"/>
<text text-anchor="middle" x="453.688" y="-271.8" font-family="Times,serif" font-size="14.00" fill="#000000">Map 14</text>
</g>
<!-- Map 14&#45;&gt;Reducer 7 -->
<g id="edge11" class="edge">
<title>Map 14&#45;&gt;Reducer 7</title>
<path fill="none" stroke="#000000" d="M445.7582,-258.149C441.3084,-248.4887 435.496,-236.4318 429.688,-226 427.9393,-222.8592 426.0283,-219.6173 424.0792,-216.425"/>
<polygon fill="#000000" stroke="#000000" points="426.8718,-214.2908 418.588,-207.6855 420.9446,-218.0149 426.8718,-214.2908"/>
<text text-anchor="middle" x="463.5088" y="-228.8" font-family="Times,serif" font-size="14.00" fill="#000000">broadcast</text>
</g>
<!-- Reducer 6&#45;&gt;Reducer 7 -->
<g id="edge12" class="edge">
<title>Reducer 6&#45;&gt;Reducer 7</title>
<path fill="none" stroke="#000000" d="M275.5503,-259.0894C286.7272,-248.5585 302.1138,-235.2948 317.4741,-226 330.942,-217.8504 346.5855,-210.8219 360.9773,-205.1938"/>
<polygon fill="#000000" stroke="#000000" points="362.5789,-208.3303 370.6987,-201.5245 360.1069,-201.7813 362.5789,-208.3303"/>
<text text-anchor="middle" x="340.7949" y="-228.8" font-family="Times,serif" font-size="14.00" fill="#000000">unsorted</text>
</g>
<!-- Reducer 9 -->
<g id="node14" class="node">
<title>Reducer 9</title>
<ellipse fill="none" stroke="#000000" cx="406.688" cy="-18" rx="46.4045" ry="18"/>
<text text-anchor="middle" x="406.688" y="-13.8" font-family="Times,serif" font-size="14.00" fill="#000000">Reducer 9</text>
</g>
<!-- Reducer 8&#45;&gt;Reducer 9 -->
<g id="edge17" class="edge">
<title>Reducer 8&#45;&gt;Reducer 9</title>
<path fill="none" stroke="#000000" d="M406.688,-85.7616C406.688,-74.3597 406.688,-59.4342 406.688,-46.494"/>
<polygon fill="#000000" stroke="#000000" points="410.1881,-46.2121 406.688,-36.2121 403.1881,-46.2121 410.1881,-46.2121"/>
<text text-anchor="middle" x="423.7949" y="-56.8" font-family="Times,serif" font-size="14.00" fill="#000000">sorted</text>
</g>
</g>
</svg>
