<?xml version="1.0" encoding="UTF-8" standalone="no"?>
<!DOCTYPE svg PUBLIC "-//W3C//DTD SVG 1.1//EN"
 "http://www.w3.org/Graphics/SVG/1.1/DTD/svg11.dtd">
<!-- Generated by graphviz version 2.40.1 (20161225.0304)
 -->
<!-- Title: %3 Pages: 1 -->
<svg width="514pt" height="604pt"
 viewBox="0.00 0.00 513.92 604.00" xmlns="http://www.w3.org/2000/svg" xmlns:xlink="http://www.w3.org/1999/xlink">
<g id="graph0" class="graph" transform="scale(1 1) rotate(0) translate(4 600)">
<title>%3</title>
<polygon fill="#ffffff" stroke="transparent" points="-4,4 -4,-600 509.9232,-600 509.9232,4 -4,4"/>
<!-- Map 1 -->
<g id="node1" class="node">
<title>Map 1</title>
<ellipse fill="none" stroke="#000000" cx="283.2997" cy="-578" rx="32.8992" ry="18"/>
<text text-anchor="middle" x="283.2997" y="-573.8" font-family="Times,serif" font-size="14.00" fill="#000000">Map 1</text>
</g>
<!-- Reducer 11 -->
<g id="node2" class="node">
<title>Reducer 11</title>
<ellipse fill="none" stroke="#000000" cx="50.2997" cy="-438" rx="50.1002" ry="18"/>
<text text-anchor="middle" x="50.2997" y="-433.8" font-family="Times,serif" font-size="14.00" fill="#000000">Reducer 11</text>
</g>
<!-- Map 1&#45;&gt;Reducer 11 -->
<g id="edge1" class="edge">
<title>Map 1&#45;&gt;Reducer 11</title>
<path fill="none" stroke="#000000" d="M251.5118,-572.6517C196.182,-562.6635 85.727,-539.4909 61.2997,-510 51.3039,-497.9322 48.4079,-480.6764 48.0803,-466.0831"/>
<polygon fill="#000000" stroke="#000000" points="51.5805,-466.0911 48.2309,-456.0397 44.5812,-465.9861 51.5805,-466.0911"/>
<text text-anchor="middle" x="137.4066" y="-530.8" font-family="Times,serif" font-size="14.00" fill="#000000">sorted</text>
</g>
<!-- Reducer 10 -->
<g id="node3" class="node">
<title>Reducer 10</title>
<ellipse fill="none" stroke="#000000" cx="374.2997" cy="-438" rx="50.7474" ry="18"/>
<text text-anchor="middle" x="374.2997" y="-433.8" font-family="Times,serif" font-size="14.00" fill="#000000">Reducer 10</text>
</g>
<!-- Map 1&#45;&gt;Reducer 10 -->
<g id="edge2" class="edge">
<title>Map 1&#45;&gt;Reducer 10</title>
<path fill="none" stroke="#000000" d="M301.4275,-562.5192C308.2367,-556.3876 315.8774,-549.1126 322.2997,-542 334.2138,-528.8052 337.6645,-525.5397 346.2997,-510 354.0347,-496.0802 360.6179,-479.5842 365.4537,-465.8961"/>
<polygon fill="#000000" stroke="#000000" points="368.891,-466.6597 368.8013,-456.0652 362.2647,-464.4033 368.891,-466.6597"/>
<text text-anchor="middle" x="351.4066" y="-530.8" font-family="Times,serif" font-size="14.00" fill="#000000">sorted</text>
</g>
<!-- Reducer 12 -->
<g id="node4" class="node">
<title>Reducer 12</title>
<ellipse fill="none" stroke="#000000" cx="455.2997" cy="-330" rx="50.7474" ry="18"/>
<text text-anchor="middle" x="455.2997" y="-325.8" font-family="Times,serif" font-size="14.00" fill="#000000">Reducer 12</text>
</g>
<!-- Map 1&#45;&gt;Reducer 12 -->
<g id="edge3" class="edge">
<title>Map 1&#45;&gt;Reducer 12</title>
<path fill="none" stroke="#000000" d="M313.6434,-570.5438C332.0234,-564.9223 355.1498,-555.7817 372.2997,-542 408.4312,-512.9645 413.4731,-498.7874 431.2997,-456 444.6225,-424.0224 450.6159,-384.3803 453.268,-358.1975"/>
<polygon fill="#000000" stroke="#000000" points="456.7572,-358.4746 454.1843,-348.197 449.7864,-357.8358 456.7572,-358.4746"/>
<text text-anchor="middle" x="440.4066" y="-487.8" font-family="Times,serif" font-size="14.00" fill="#000000">sorted</text>
</g>
<!-- Reducer 9 -->
<g id="node8" class="node">
<title>Reducer 9</title>
<ellipse fill="none" stroke="#000000" cx="295.2997" cy="-384" rx="46.4045" ry="18"/>
<text text-anchor="middle" x="295.2997" y="-379.8" font-family="Times,serif" font-size="14.00" fill="#000000">Reducer 9</text>
</g>
<!-- Map 1&#45;&gt;Reducer 9 -->
<g id="edge15" class="edge">
<title>Map 1&#45;&gt;Reducer 9</title>
<path fill="none" stroke="#000000" d="M289.8262,-560.2924C291.6437,-554.5397 293.3729,-548.0728 294.2997,-542 301.148,-497.1243 299.5602,-444.2419 297.5813,-412.4572"/>
<polygon fill="#000000" stroke="#000000" points="301.0502,-411.881 296.8782,-402.1422 294.0664,-412.3571 301.0502,-411.881"/>
<text text-anchor="middle" x="316.4066" y="-487.8" font-family="Times,serif" font-size="14.00" fill="#000000">sorted</text>
</g>
<!-- Reducer 2 -->
<g id="node11" class="node">
<title>Reducer 2</title>
<ellipse fill="none" stroke="#000000" cx="226.2997" cy="-492" rx="46.4045" ry="18"/>
<text text-anchor="middle" x="226.2997" y="-487.8" font-family="Times,serif" font-size="14.00" fill="#000000">Reducer 2</text>
</g>
<!-- Map 1&#45;&gt;Reducer 2 -->
<g id="edge14" class="edge">
<title>Map 1&#45;&gt;Reducer 2</title>
<path fill="none" stroke="#000000" d="M272.0383,-561.0092C263.9475,-548.802 252.8876,-532.1151 243.6703,-518.2083"/>
<polygon fill="#000000" stroke="#000000" points="246.371,-515.9477 237.929,-509.546 240.5363,-519.815 246.371,-515.9477"/>
<text text-anchor="middle" x="275.4066" y="-530.8" font-family="Times,serif" font-size="14.00" fill="#000000">sorted</text>
</g>
<!-- Reducer 8 -->
<g id="node12" class="node">
<title>Reducer 8</title>
<ellipse fill="none" stroke="#000000" cx="116.2997" cy="-492" rx="46.4045" ry="18"/>
<text text-anchor="middle" x="116.2997" y="-487.8" font-family="Times,serif" font-size="14.00" fill="#000000">Reducer 8</text>
</g>
<!-- Map 1&#45;&gt;Reducer 8 -->
<g id="edge16" class="edge">
<title>Map 1&#45;&gt;Reducer 8</title>
<path fill="none" stroke="#000000" d="M259.0164,-565.4949C231.2694,-551.206 185.5486,-527.6611 153.3469,-511.0782"/>
<polygon fill="#000000" stroke="#000000" points="154.7291,-507.8532 144.2363,-506.3865 151.5243,-514.0765 154.7291,-507.8532"/>
<text text-anchor="middle" x="227.4066" y="-530.8" font-family="Times,serif" font-size="14.00" fill="#000000">sorted</text>
</g>
<!-- Reducer 6 -->
<g id="node10" class="node">
<title>Reducer 6</title>
<ellipse fill="none" stroke="#000000" cx="321.2997" cy="-104" rx="46.4045" ry="18"/>
<text text-anchor="middle" x="321.2997" y="-99.8" font-family="Times,serif" font-size="14.00" fill="#000000">Reducer 6</text>
</g>
<!-- Reducer 11&#45;&gt;Reducer 6 -->
<g id="edge10" class="edge">
<title>Reducer 11&#45;&gt;Reducer 6</title>
<path fill="none" stroke="#000000" d="M59.0438,-420.1349C68.5184,-399.0986 82.2997,-362.8536 82.2997,-330 82.2997,-330 82.2997,-330 82.2997,-190 82.2997,-150.8066 197.5323,-124.5779 267.9702,-112.2063"/>
<polygon fill="#000000" stroke="#000000" points="268.7548,-115.6229 278.0186,-110.4816 267.5706,-108.7238 268.7548,-115.6229"/>
<text text-anchor="middle" x="97.4618" y="-271.8" font-family="Times,serif" font-size="14.00" fill="#000000">None</text>
</g>
<!-- Reducer 5 -->
<g id="node5" class="node">
<title>Reducer 5</title>
<ellipse fill="none" stroke="#000000" cx="321.2997" cy="-190" rx="46.4045" ry="18"/>
<text text-anchor="middle" x="321.2997" y="-185.8" font-family="Times,serif" font-size="14.00" fill="#000000">Reducer 5</text>
</g>
<!-- Reducer 10&#45;&gt;Reducer 5 -->
<g id="edge4" class="edge">
<title>Reducer 10&#45;&gt;Reducer 5</title>
<path fill="none" stroke="#000000" d="M372.2416,-419.9861C366.6986,-372.0746 351.3973,-243.9294 344.2997,-226 343.0047,-222.7287 341.3999,-219.4336 339.6445,-216.2359"/>
<polygon fill="#000000" stroke="#000000" points="342.5896,-214.3419 334.4312,-207.5824 336.5936,-217.9542 342.5896,-214.3419"/>
<text text-anchor="middle" x="377.4618" y="-325.8" font-family="Times,serif" font-size="14.00" fill="#000000">None</text>
</g>
<!-- Reducer 7 -->
<g id="node9" class="node">
<title>Reducer 7</title>
<ellipse fill="none" stroke="#000000" cx="375.2997" cy="-18" rx="46.4045" ry="18"/>
<text text-anchor="middle" x="375.2997" y="-13.8" font-family="Times,serif" font-size="14.00" fill="#000000">Reducer 7</text>
</g>
<!-- Reducer 12&#45;&gt;Reducer 7 -->
<g id="edge8" class="edge">
<title>Reducer 12&#45;&gt;Reducer 7</title>
<path fill="none" stroke="#000000" d="M447.4988,-312.1483C439.8404,-292.9728 429.2997,-261.4186 429.2997,-233 429.2997,-233 429.2997,-233 429.2997,-104 429.2997,-80.73 414.9444,-58.5937 401.0369,-42.6081"/>
<polygon fill="#000000" stroke="#000000" points="403.2309,-39.8235 393.8834,-34.8359 398.0803,-44.564 403.2309,-39.8235"/>
<text text-anchor="middle" x="444.4618" y="-185.8" font-family="Times,serif" font-size="14.00" fill="#000000">None</text>
</g>
<!-- Reducer 5&#45;&gt;Reducer 6 -->
<g id="edge11" class="edge">
<title>Reducer 5&#45;&gt;Reducer 6</title>
<path fill="none" stroke="#000000" d="M321.2997,-171.7616C321.2997,-160.3597 321.2997,-145.4342 321.2997,-132.494"/>
<polygon fill="#000000" stroke="#000000" points="324.7998,-132.2121 321.2997,-122.2121 317.7998,-132.2121 324.7998,-132.2121"/>
<text text-anchor="middle" x="336.4618" y="-142.8" font-family="Times,serif" font-size="14.00" fill="#000000">None</text>
</g>
<!-- Reducer 4 -->
<g id="node6" class="node">
<title>Reducer 4</title>
<ellipse fill="none" stroke="#000000" cx="295.2997" cy="-276" rx="46.4045" ry="18"/>
<text text-anchor="middle" x="295.2997" y="-271.8" font-family="Times,serif" font-size="14.00" fill="#000000">Reducer 4</text>
</g>
<!-- Reducer 4&#45;&gt;Reducer 5 -->
<g id="edge5" class="edge">
<title>Reducer 4&#45;&gt;Reducer 5</title>
<path fill="none" stroke="#000000" d="M300.8136,-257.7616C304.3187,-246.1678 308.9252,-230.931 312.8822,-217.8426"/>
<polygon fill="#000000" stroke="#000000" points="316.3391,-218.5022 315.8829,-207.9172 309.6386,-216.4764 316.3391,-218.5022"/>
<text text-anchor="middle" x="325.4618" y="-228.8" font-family="Times,serif" font-size="14.00" fill="#000000">None</text>
</g>
<!-- Reducer 3 -->
<g id="node7" class="node">
<title>Reducer 3</title>
<ellipse fill="none" stroke="#000000" cx="185.2997" cy="-384" rx="46.4045" ry="18"/>
<text text-anchor="middle" x="185.2997" y="-379.8" font-family="Times,serif" font-size="14.00" fill="#000000">Reducer 3</text>
</g>
<!-- Reducer 3&#45;&gt;Reducer 4 -->
<g id="edge6" class="edge">
<title>Reducer 3&#45;&gt;Reducer 4</title>
<path fill="none" stroke="#000000" d="M202.4872,-367.125C220.8922,-349.0546 250.2465,-320.234 271.0086,-299.8494"/>
<polygon fill="#000000" stroke="#000000" points="273.5493,-302.2599 278.2329,-292.7565 268.6451,-297.2649 273.5493,-302.2599"/>
<text text-anchor="middle" x="272.4618" y="-325.8" font-family="Times,serif" font-size="14.00" fill="#000000">None</text>
</g>
<!-- Reducer 9&#45;&gt;Reducer 4 -->
<g id="edge7" class="edge">
<title>Reducer 9&#45;&gt;Reducer 4</title>
<path fill="none" stroke="#000000" d="M295.2997,-365.6793C295.2997,-348.821 295.2997,-323.5651 295.2997,-304.147"/>
<polygon fill="#000000" stroke="#000000" points="298.7998,-304.0501 295.2997,-294.0502 291.7998,-304.0502 298.7998,-304.0501"/>
<text text-anchor="middle" x="310.4618" y="-325.8" font-family="Times,serif" font-size="14.00" fill="#000000">None</text>
</g>
<!-- Reducer 6&#45;&gt;Reducer 7 -->
<g id="edge9" class="edge">
<title>Reducer 6&#45;&gt;Reducer 7</title>
<path fill="none" stroke="#000000" d="M332.4885,-86.1807C340.1416,-73.9924 350.4116,-57.6367 358.9742,-43.9998"/>
<polygon fill="#000000" stroke="#000000" points="361.9563,-45.8323 364.3099,-35.5022 356.0281,-42.1099 361.9563,-45.8323"/>
<text text-anchor="middle" x="366.4618" y="-56.8" font-family="Times,serif" font-size="14.00" fill="#000000">None</text>
</g>
<!-- Reducer 2&#45;&gt;Reducer 3 -->
<g id="edge12" class="edge">
<title>Reducer 2&#45;&gt;Reducer 3</title>
<path fill="none" stroke="#000000" d="M219.5294,-474.166C213.0307,-457.0475 203.1251,-430.9548 195.6391,-411.2355"/>
<polygon fill="#000000" stroke="#000000" points="198.9014,-409.9673 192.0801,-401.8605 192.3571,-412.4517 198.9014,-409.9673"/>
<text text-anchor="middle" x="227.4618" y="-433.8" font-family="Times,serif" font-size="14.00" fill="#000000">None</text>
</g>
<!-- Reducer 8&#45;&gt;Reducer 3 -->
<g id="edge13" class="edge">
<title>Reducer 8&#45;&gt;Reducer 3</title>
<path fill="none" stroke="#000000" d="M127.6936,-474.166C138.8467,-456.7091 155.9621,-429.9197 168.6416,-410.0736"/>
<polygon fill="#000000" stroke="#000000" points="171.6833,-411.8135 174.1178,-401.5022 165.7844,-408.0448 171.6833,-411.8135"/>
<text text-anchor="middle" x="176.4618" y="-433.8" font-family="Times,serif" font-size="14.00" fill="#000000">None</text>
</g>
</g>
</svg>
