<?xml version="1.0" encoding="UTF-8" standalone="no"?>
<!DOCTYPE svg PUBLIC "-//W3C//DTD SVG 1.1//EN"
 "http://www.w3.org/Graphics/SVG/1.1/DTD/svg11.dtd">
<!-- Generated by graphviz version 2.40.1 (20161225.0304)
 -->
<!-- Title: %3 Pages: 1 -->
<svg width="326pt" height="302pt"
 viewBox="0.00 0.00 325.90 302.00" xmlns="http://www.w3.org/2000/svg" xmlns:xlink="http://www.w3.org/1999/xlink">
<g id="graph0" class="graph" transform="scale(1 1) rotate(0) translate(4 298)">
<title>%3</title>
<polygon fill="#ffffff" stroke="transparent" points="-4,4 -4,-298 321.8991,-298 321.8991,4 -4,4"/>
<!-- Reducer 2 -->
<g id="node1" class="node">
<title>Reducer 2</title>
<ellipse fill="none" stroke="#000000" cx="158.9496" cy="-104" rx="46.4045" ry="18"/>
<text text-anchor="middle" x="158.9496" y="-99.8" font-family="Times,serif" font-size="14.00" fill="#000000">Reducer 2</text>
</g>
<!-- Reducer 3 -->
<g id="node2" class="node">
<title>Reducer 3</title>
<ellipse fill="none" stroke="#000000" cx="158.9496" cy="-18" rx="46.4045" ry="18"/>
<text text-anchor="middle" x="158.9496" y="-13.8" font-family="Times,serif" font-size="14.00" fill="#000000">Reducer 3</text>
</g>
<!-- Reducer 2&#45;&gt;Reducer 3 -->
<g id="edge1" class="edge">
<title>Reducer 2&#45;&gt;Reducer 3</title>
<path fill="none" stroke="#000000" d="M158.9496,-85.7616C158.9496,-74.3597 158.9496,-59.4342 158.9496,-46.494"/>
<polygon fill="#000000" stroke="#000000" points="162.4497,-46.2121 158.9496,-36.2121 155.4497,-46.2121 162.4497,-46.2121"/>
<text text-anchor="middle" x="176.0565" y="-56.8" font-family="Times,serif" font-size="14.00" fill="#000000">sorted</text>
</g>
<!-- Map 4 -->
<g id="node3" class="node">
<title>Map 4</title>
<ellipse fill="none" stroke="#000000" cx="32.9496" cy="-276" rx="32.8992" ry="18"/>
<text text-anchor="middle" x="32.9496" y="-271.8" font-family="Times,serif" font-size="14.00" fill="#000000">Map 4</text>
</g>
<!-- Map 1 -->
<g id="node4" class="node">
<title>Map 1</title>
<ellipse fill="none" stroke="#000000" cx="158.9496" cy="-190" rx="32.8992" ry="18"/>
<text text-anchor="middle" x="158.9496" y="-185.8" font-family="Times,serif" font-size="14.00" fill="#000000">Map 1</text>
</g>
<!-- Map 4&#45;&gt;Map 1 -->
<g id="edge2" class="edge">
<title>Map 4&#45;&gt;Map 1</title>
<path fill="none" stroke="#000000" d="M39.777,-258.1839C44.6425,-247.5685 52.1299,-234.542 62.308,-226 78.1181,-212.7311 99.2867,-204.1124 117.7815,-198.6464"/>
<polygon fill="#000000" stroke="#000000" points="118.7291,-202.0159 127.4477,-195.9962 116.8781,-195.265 118.7291,-202.0159"/>
<text text-anchor="middle" x="88.7704" y="-228.8" font-family="Times,serif" font-size="14.00" fill="#000000">broadcast</text>
</g>
<!-- Map 1&#45;&gt;Reducer 2 -->
<g id="edge6" class="edge">
<title>Map 1&#45;&gt;Reducer 2</title>
<path fill="none" stroke="#000000" d="M158.9496,-171.7616C158.9496,-160.3597 158.9496,-145.4342 158.9496,-132.494"/>
<polygon fill="#000000" stroke="#000000" points="162.4497,-132.2121 158.9496,-122.2121 155.4497,-132.2121 162.4497,-132.2121"/>
<text text-anchor="middle" x="176.0565" y="-142.8" font-family="Times,serif" font-size="14.00" fill="#000000">sorted</text>
</g>
<!-- Map 5 -->
<g id="node5" class="node">
<title>Map 5</title>
<ellipse fill="none" stroke="#000000" cx="116.9496" cy="-276" rx="32.8992" ry="18"/>
<text text-anchor="middle" x="116.9496" y="-271.8" font-family="Times,serif" font-size="14.00" fill="#000000">Map 5</text>
</g>
<!-- Map 5&#45;&gt;Map 1 -->
<g id="edge3" class="edge">
<title>Map 5&#45;&gt;Map 1</title>
<path fill="none" stroke="#000000" d="M117.4712,-257.6336C118.3648,-247.8224 120.4768,-235.7857 125.308,-226 127.6156,-221.3259 130.7308,-216.8372 134.1383,-212.7104"/>
<polygon fill="#000000" stroke="#000000" points="136.7711,-215.0176 140.916,-205.2671 131.5954,-210.3046 136.7711,-215.0176"/>
<text text-anchor="middle" x="151.7704" y="-228.8" font-family="Times,serif" font-size="14.00" fill="#000000">broadcast</text>
</g>
<!-- Map 6 -->
<g id="node6" class="node">
<title>Map 6</title>
<ellipse fill="none" stroke="#000000" cx="200.9496" cy="-276" rx="32.8992" ry="18"/>
<text text-anchor="middle" x="200.9496" y="-271.8" font-family="Times,serif" font-size="14.00" fill="#000000">Map 6</text>
</g>
<!-- Map 6&#45;&gt;Map 1 -->
<g id="edge4" class="edge">
<title>Map 6&#45;&gt;Map 1</title>
<path fill="none" stroke="#000000" d="M193.6049,-258.2298C189.5038,-248.5933 184.1787,-236.5332 178.9496,-226 177.3758,-222.83 175.6629,-219.54 173.9235,-216.2948"/>
<polygon fill="#000000" stroke="#000000" points="176.9242,-214.4876 169.0448,-207.4049 170.7876,-217.8554 176.9242,-214.4876"/>
<text text-anchor="middle" x="211.7704" y="-228.8" font-family="Times,serif" font-size="14.00" fill="#000000">broadcast</text>
</g>
<!-- Map 7 -->
<g id="node7" class="node">
<title>Map 7</title>
<ellipse fill="none" stroke="#000000" cx="284.9496" cy="-276" rx="32.8992" ry="18"/>
<text text-anchor="middle" x="284.9496" y="-271.8" font-family="Times,serif" font-size="14.00" fill="#000000">Map 7</text>
</g>
<!-- Map 7&#45;&gt;Map 1 -->
<g id="edge5" class="edge">
<title>Map 7&#45;&gt;Map 1</title>
<path fill="none" stroke="#000000" d="M273.7361,-258.9253C266.0834,-248.3289 255.1478,-235.054 242.9496,-226 229.3633,-215.9157 212.5199,-207.986 197.4906,-202.1657"/>
<polygon fill="#000000" stroke="#000000" points="198.5221,-198.8159 187.9286,-198.6441 196.1029,-205.3845 198.5221,-198.8159"/>
<text text-anchor="middle" x="283.7704" y="-228.8" font-family="Times,serif" font-size="14.00" fill="#000000">broadcast</text>
</g>
</g>
</svg>
