<?xml version="1.0" encoding="UTF-8" standalone="no"?>
<!DOCTYPE svg PUBLIC "-//W3C//DTD SVG 1.1//EN"
 "http://www.w3.org/Graphics/SVG/1.1/DTD/svg11.dtd">
<!-- Generated by graphviz version 2.40.1 (20161225.0304)
 -->
<!-- Title: %3 Pages: 1 -->
<svg width="442pt" height="388pt"
 viewBox="0.00 0.00 441.90 388.00" xmlns="http://www.w3.org/2000/svg" xmlns:xlink="http://www.w3.org/1999/xlink">
<g id="graph0" class="graph" transform="scale(1 1) rotate(0) translate(4 384)">
<title>%3</title>
<polygon fill="#ffffff" stroke="transparent" points="-4,4 -4,-384 437.8991,-384 437.8991,4 -4,4"/>
<!-- Reducer 4 -->
<g id="node1" class="node">
<title>Reducer 4</title>
<ellipse fill="none" stroke="#000000" cx="185.9496" cy="-104" rx="46.4045" ry="18"/>
<text text-anchor="middle" x="185.9496" y="-99.8" font-family="Times,serif" font-size="14.00" fill="#000000">Reducer 4</text>
</g>
<!-- Reducer 5 -->
<g id="node2" class="node">
<title>Reducer 5</title>
<ellipse fill="none" stroke="#000000" cx="185.9496" cy="-18" rx="46.4045" ry="18"/>
<text text-anchor="middle" x="185.9496" y="-13.8" font-family="Times,serif" font-size="14.00" fill="#000000">Reducer 5</text>
</g>
<!-- Reducer 4&#45;&gt;Reducer 5 -->
<g id="edge1" class="edge">
<title>Reducer 4&#45;&gt;Reducer 5</title>
<path fill="none" stroke="#000000" d="M185.9496,-85.7616C185.9496,-74.3597 185.9496,-59.4342 185.9496,-46.494"/>
<polygon fill="#000000" stroke="#000000" points="189.4497,-46.2121 185.9496,-36.2121 182.4497,-46.2121 189.4497,-46.2121"/>
<text text-anchor="middle" x="203.0565" y="-56.8" font-family="Times,serif" font-size="14.00" fill="#000000">sorted</text>
</g>
<!-- Map 3 -->
<g id="node3" class="node">
<title>Map 3</title>
<ellipse fill="none" stroke="#000000" cx="185.9496" cy="-190" rx="32.8992" ry="18"/>
<text text-anchor="middle" x="185.9496" y="-185.8" font-family="Times,serif" font-size="14.00" fill="#000000">Map 3</text>
</g>
<!-- Map 3&#45;&gt;Reducer 4 -->
<g id="edge2" class="edge">
<title>Map 3&#45;&gt;Reducer 4</title>
<path fill="none" stroke="#000000" d="M185.9496,-171.7616C185.9496,-160.3597 185.9496,-145.4342 185.9496,-132.494"/>
<polygon fill="#000000" stroke="#000000" points="189.4497,-132.2121 185.9496,-122.2121 182.4497,-132.2121 189.4497,-132.2121"/>
<text text-anchor="middle" x="203.0565" y="-142.8" font-family="Times,serif" font-size="14.00" fill="#000000">sorted</text>
</g>
<!-- Map 1 -->
<g id="node4" class="node">
<title>Map 1</title>
<ellipse fill="none" stroke="#000000" cx="32.9496" cy="-276" rx="32.8992" ry="18"/>
<text text-anchor="middle" x="32.9496" y="-271.8" font-family="Times,serif" font-size="14.00" fill="#000000">Map 1</text>
</g>
<!-- Map 1&#45;&gt;Map 3 -->
<g id="edge3" class="edge">
<title>Map 1&#45;&gt;Map 3</title>
<path fill="none" stroke="#000000" d="M37.2863,-257.9219C40.7452,-247.2079 46.6538,-234.1698 56.308,-226 69.6222,-214.7329 111.5195,-204.3604 144.1212,-197.6729"/>
<polygon fill="#000000" stroke="#000000" points="145.2102,-201.0247 154.3315,-195.6347 143.8398,-194.1601 145.2102,-201.0247"/>
<text text-anchor="middle" x="83.7704" y="-228.8" font-family="Times,serif" font-size="14.00" fill="#000000">broadcast</text>
</g>
<!-- Map 6 -->
<g id="node5" class="node">
<title>Map 6</title>
<ellipse fill="none" stroke="#000000" cx="116.9496" cy="-276" rx="32.8992" ry="18"/>
<text text-anchor="middle" x="116.9496" y="-271.8" font-family="Times,serif" font-size="14.00" fill="#000000">Map 6</text>
</g>
<!-- Map 6&#45;&gt;Map 3 -->
<g id="edge4" class="edge">
<title>Map 6&#45;&gt;Map 3</title>
<path fill="none" stroke="#000000" d="M113.24,-258.0876C112.1166,-247.9501 112.4562,-235.4501 118.308,-226 124.9285,-215.3084 135.8828,-207.604 147.0676,-202.1386"/>
<polygon fill="#000000" stroke="#000000" points="148.6593,-205.2629 156.427,-198.0578 145.8615,-198.8463 148.6593,-205.2629"/>
<text text-anchor="middle" x="145.7704" y="-228.8" font-family="Times,serif" font-size="14.00" fill="#000000">broadcast</text>
</g>
<!-- Map 7 -->
<g id="node6" class="node">
<title>Map 7</title>
<ellipse fill="none" stroke="#000000" cx="201.9496" cy="-362" rx="32.8992" ry="18"/>
<text text-anchor="middle" x="201.9496" y="-357.8" font-family="Times,serif" font-size="14.00" fill="#000000">Map 7</text>
</g>
<!-- Map 7&#45;&gt;Map 3 -->
<g id="edge5" class="edge">
<title>Map 7&#45;&gt;Map 3</title>
<path fill="none" stroke="#000000" d="M200.136,-343.8206C198.7792,-330.1269 196.8925,-310.8881 195.308,-294 192.8996,-268.332 190.2791,-239.0881 188.4253,-218.1621"/>
<polygon fill="#000000" stroke="#000000" points="191.8976,-217.6935 187.5309,-208.0404 184.9248,-218.3097 191.8976,-217.6935"/>
<text text-anchor="middle" x="221.7704" y="-271.8" font-family="Times,serif" font-size="14.00" fill="#000000">broadcast</text>
</g>
<!-- Reducer 8 -->
<g id="node8" class="node">
<title>Reducer 8</title>
<ellipse fill="none" stroke="#000000" cx="303.9496" cy="-276" rx="46.4045" ry="18"/>
<text text-anchor="middle" x="303.9496" y="-271.8" font-family="Times,serif" font-size="14.00" fill="#000000">Reducer 8</text>
</g>
<!-- Map 7&#45;&gt;Reducer 8 -->
<g id="edge8" class="edge">
<title>Map 7&#45;&gt;Reducer 8</title>
<path fill="none" stroke="#000000" d="M220.1851,-346.6249C235.8878,-333.3854 258.7767,-314.0869 276.6613,-299.0077"/>
<polygon fill="#000000" stroke="#000000" points="279.0935,-301.5351 284.4827,-292.4132 274.5813,-296.1834 279.0935,-301.5351"/>
<text text-anchor="middle" x="283.0565" y="-314.8" font-family="Times,serif" font-size="14.00" fill="#000000">unsorted</text>
</g>
<!-- Map 9 -->
<g id="node7" class="node">
<title>Map 9</title>
<ellipse fill="none" stroke="#000000" cx="400.9496" cy="-276" rx="32.8992" ry="18"/>
<text text-anchor="middle" x="400.9496" y="-271.8" font-family="Times,serif" font-size="14.00" fill="#000000">Map 9</text>
</g>
<!-- Map 9&#45;&gt;Map 3 -->
<g id="edge6" class="edge">
<title>Map 9&#45;&gt;Map 3</title>
<path fill="none" stroke="#000000" d="M379.1885,-262.2602C361.163,-251.3214 334.5999,-236.2044 309.9496,-226 282.8256,-214.7716 251.0033,-205.6103 226.3876,-199.3396"/>
<polygon fill="#000000" stroke="#000000" points="227.2041,-195.9362 216.6546,-196.9145 225.5117,-202.7285 227.2041,-195.9362"/>
<text text-anchor="middle" x="364.7704" y="-228.8" font-family="Times,serif" font-size="14.00" fill="#000000">broadcast</text>
</g>
<!-- Reducer 8&#45;&gt;Map 3 -->
<g id="edge7" class="edge">
<title>Reducer 8&#45;&gt;Map 3</title>
<path fill="none" stroke="#000000" d="M282.0312,-260.0256C262.8173,-246.0223 234.7799,-225.5882 213.9464,-210.4045"/>
<polygon fill="#000000" stroke="#000000" points="215.9303,-207.5195 205.7874,-204.4581 211.8074,-213.1765 215.9303,-207.5195"/>
<text text-anchor="middle" x="278.7704" y="-228.8" font-family="Times,serif" font-size="14.00" fill="#000000">broadcast</text>
</g>
<!-- Map 2 -->
<g id="node9" class="node">
<title>Map 2</title>
<ellipse fill="none" stroke="#000000" cx="32.9496" cy="-362" rx="32.8992" ry="18"/>
<text text-anchor="middle" x="32.9496" y="-357.8" font-family="Times,serif" font-size="14.00" fill="#000000">Map 2</text>
</g>
<!-- Map 2&#45;&gt;Map 1 -->
<g id="edge9" class="edge">
<title>Map 2&#45;&gt;Map 1</title>
<path fill="none" stroke="#000000" d="M32.9496,-343.7616C32.9496,-332.3597 32.9496,-317.4342 32.9496,-304.494"/>
<polygon fill="#000000" stroke="#000000" points="36.4497,-304.2121 32.9496,-294.2121 29.4497,-304.2121 36.4497,-304.2121"/>
<text text-anchor="middle" x="59.7704" y="-314.8" font-family="Times,serif" font-size="14.00" fill="#000000">broadcast</text>
</g>
</g>
</svg>
