<?xml version="1.0" encoding="UTF-8" standalone="no"?>
<!DOCTYPE svg PUBLIC "-//W3C//DTD SVG 1.1//EN"
 "http://www.w3.org/Graphics/SVG/1.1/DTD/svg11.dtd">
<!-- Generated by graphviz version 2.40.1 (20161225.0304)
 -->
<!-- Title: %3 Pages: 1 -->
<svg width="732pt" height="302pt"
 viewBox="0.00 0.00 732.49 302.00" xmlns="http://www.w3.org/2000/svg" xmlns:xlink="http://www.w3.org/1999/xlink">
<g id="graph0" class="graph" transform="scale(1 1) rotate(0) translate(4 298)">
<title>%3</title>
<polygon fill="#ffffff" stroke="transparent" points="-4,4 -4,-298 728.4897,-298 728.4897,4 -4,4"/>
<!-- Map 6 -->
<g id="node1" class="node">
<title>Map 6</title>
<ellipse fill="none" stroke="#000000" cx="259.8481" cy="-276" rx="32.8992" ry="18"/>
<text text-anchor="middle" x="259.8481" y="-271.8" font-family="Times,serif" font-size="14.00" fill="#000000">Map 6</text>
</g>
<!-- Map 5 -->
<g id="node2" class="node">
<title>Map 5</title>
<ellipse fill="none" stroke="#000000" cx="90.8481" cy="-190" rx="32.8992" ry="18"/>
<text text-anchor="middle" x="90.8481" y="-185.8" font-family="Times,serif" font-size="14.00" fill="#000000">Map 5</text>
</g>
<!-- Map 6&#45;&gt;Map 5 -->
<g id="edge1" class="edge">
<title>Map 6&#45;&gt;Map 5</title>
<path fill="none" stroke="#000000" d="M226.8703,-273.5423C183.3152,-269.5477 110.1331,-259.991 93.2065,-240 88.1306,-234.0052 86.3451,-226.0102 86.1593,-218.1749"/>
<polygon fill="#000000" stroke="#000000" points="89.6564,-218.3206 86.6943,-208.1483 82.6664,-217.9475 89.6564,-218.3206"/>
<text text-anchor="middle" x="120.6689" y="-228.8" font-family="Times,serif" font-size="14.00" fill="#000000">broadcast</text>
</g>
<!-- Map 1 -->
<g id="node4" class="node">
<title>Map 1</title>
<ellipse fill="none" stroke="#000000" cx="207.8481" cy="-190" rx="32.8992" ry="18"/>
<text text-anchor="middle" x="207.8481" y="-185.8" font-family="Times,serif" font-size="14.00" fill="#000000">Map 1</text>
</g>
<!-- Map 6&#45;&gt;Map 1 -->
<g id="edge3" class="edge">
<title>Map 6&#45;&gt;Map 1</title>
<path fill="none" stroke="#000000" d="M241.1509,-261.0299C234.7075,-255.0672 227.9309,-247.7732 223.2065,-240 219.1209,-233.2779 216.0417,-225.3801 213.7557,-217.8718"/>
<polygon fill="#000000" stroke="#000000" points="217.0843,-216.7715 211.1099,-208.0218 210.3239,-218.5874 217.0843,-216.7715"/>
<text text-anchor="middle" x="250.6689" y="-228.8" font-family="Times,serif" font-size="14.00" fill="#000000">broadcast</text>
</g>
<!-- Map 8 -->
<g id="node8" class="node">
<title>Map 8</title>
<ellipse fill="none" stroke="#000000" cx="311.8481" cy="-190" rx="32.8992" ry="18"/>
<text text-anchor="middle" x="311.8481" y="-185.8" font-family="Times,serif" font-size="14.00" fill="#000000">Map 8</text>
</g>
<!-- Map 6&#45;&gt;Map 8 -->
<g id="edge7" class="edge">
<title>Map 6&#45;&gt;Map 8</title>
<path fill="none" stroke="#000000" d="M270.3711,-258.5966C277.7717,-246.3571 287.8028,-229.7673 296.1462,-215.9685"/>
<polygon fill="#000000" stroke="#000000" points="299.1616,-217.7458 301.3408,-207.3775 293.1714,-214.1239 299.1616,-217.7458"/>
<text text-anchor="middle" x="316.6689" y="-228.8" font-family="Times,serif" font-size="14.00" fill="#000000">broadcast</text>
</g>
<!-- Map 11 -->
<g id="node11" class="node">
<title>Map 11</title>
<ellipse fill="none" stroke="#000000" cx="440.8481" cy="-190" rx="37.0949" ry="18"/>
<text text-anchor="middle" x="440.8481" y="-185.8" font-family="Times,serif" font-size="14.00" fill="#000000">Map 11</text>
</g>
<!-- Map 6&#45;&gt;Map 11 -->
<g id="edge13" class="edge">
<title>Map 6&#45;&gt;Map 11</title>
<path fill="none" stroke="#000000" d="M291.6011,-270.9666C329.0051,-264.5707 388.3947,-252.8123 406.8481,-240 415.4237,-234.0459 422.4677,-225.1718 427.8758,-216.5451"/>
<polygon fill="#000000" stroke="#000000" points="430.9663,-218.1916 432.915,-207.7775 424.8973,-214.7034 430.9663,-218.1916"/>
<text text-anchor="middle" x="448.6689" y="-228.8" font-family="Times,serif" font-size="14.00" fill="#000000">broadcast</text>
</g>
<!-- Union 2 -->
<g id="node3" class="node">
<title>Union 2</title>
<ellipse fill="none" stroke="#000000" cx="38.8481" cy="-276" rx="38.6968" ry="18"/>
<text text-anchor="middle" x="38.8481" y="-271.8" font-family="Times,serif" font-size="14.00" fill="#000000">Union 2</text>
</g>
<!-- Union 2&#45;&gt;Map 5 -->
<g id="edge2" class="edge">
<title>Union 2&#45;&gt;Map 5</title>
<path fill="none" stroke="#000000" d="M35.2389,-257.8953C34.1679,-247.9338 34.4115,-235.6703 39.5239,-226 43.4582,-218.558 49.7,-212.3267 56.496,-207.254"/>
<polygon fill="#000000" stroke="#000000" points="58.8637,-209.8839 65.2685,-201.4441 54.9985,-204.0477 58.8637,-209.8839"/>
<text text-anchor="middle" x="55.0102" y="-228.8" font-family="Times,serif" font-size="14.00" fill="#000000">None</text>
</g>
<!-- Union 2&#45;&gt;Map 1 -->
<g id="edge4" class="edge">
<title>Union 2&#45;&gt;Map 1</title>
<path fill="none" stroke="#000000" d="M73.7462,-267.8487C95.581,-261.9197 123.8325,-252.6988 146.8481,-240 160.2238,-232.62 173.5262,-222.1765 184.279,-212.7413"/>
<polygon fill="#000000" stroke="#000000" points="186.8954,-215.094 191.9637,-205.7901 182.1996,-209.9027 186.8954,-215.094"/>
<text text-anchor="middle" x="182.0102" y="-228.8" font-family="Times,serif" font-size="14.00" fill="#000000">None</text>
</g>
<!-- Reducer 3 -->
<g id="node9" class="node">
<title>Reducer 3</title>
<ellipse fill="none" stroke="#000000" cx="577.8481" cy="-104" rx="46.4045" ry="18"/>
<text text-anchor="middle" x="577.8481" y="-99.8" font-family="Times,serif" font-size="14.00" fill="#000000">Reducer 3</text>
</g>
<!-- Union 2&#45;&gt;Reducer 3 -->
<g id="edge12" class="edge">
<title>Union 2&#45;&gt;Reducer 3</title>
<path fill="none" stroke="#000000" d="M26.646,-258.6445C12.3303,-235.9615 -6.8872,-196.2762 14.6342,-172 47.9453,-134.4251 385.6087,-113.5627 521.5729,-106.6312"/>
<polygon fill="#000000" stroke="#000000" points="521.9682,-110.1158 531.7797,-106.1178 521.6165,-103.1247 521.9682,-110.1158"/>
<text text-anchor="middle" x="31.955" y="-185.8" font-family="Times,serif" font-size="14.00" fill="#000000">sorted</text>
</g>
<!-- Map 7 -->
<g id="node5" class="node">
<title>Map 7</title>
<ellipse fill="none" stroke="#000000" cx="649.8481" cy="-276" rx="32.8992" ry="18"/>
<text text-anchor="middle" x="649.8481" y="-271.8" font-family="Times,serif" font-size="14.00" fill="#000000">Map 7</text>
</g>
<!-- Reducer 10 -->
<g id="node6" class="node">
<title>Reducer 10</title>
<ellipse fill="none" stroke="#000000" cx="577.8481" cy="-190" rx="50.7474" ry="18"/>
<text text-anchor="middle" x="577.8481" y="-185.8" font-family="Times,serif" font-size="14.00" fill="#000000">Reducer 10</text>
</g>
<!-- Map 7&#45;&gt;Reducer 10 -->
<g id="edge5" class="edge">
<title>Map 7&#45;&gt;Reducer 10</title>
<path fill="none" stroke="#000000" d="M634.6534,-259.7262C629.0716,-253.6225 622.7613,-246.5724 617.2065,-240 610.7127,-232.3167 603.8587,-223.7729 597.7224,-215.953"/>
<polygon fill="#000000" stroke="#000000" points="600.3011,-213.5677 591.3965,-207.8266 594.7773,-217.8676 600.3011,-213.5677"/>
<text text-anchor="middle" x="643.6689" y="-228.8" font-family="Times,serif" font-size="14.00" fill="#000000">broadcast</text>
</g>
<!-- Map 7&#45;&gt;Reducer 3 -->
<g id="edge10" class="edge">
<title>Map 7&#45;&gt;Reducer 3</title>
<path fill="none" stroke="#000000" d="M662.0791,-259.2486C665.6289,-253.4444 669.0353,-246.7055 670.8481,-240 681.1946,-201.7291 655.455,-163.2354 635.8481,-140 630.5278,-133.6951 623.8125,-128.1572 616.8542,-123.4355"/>
<polygon fill="#000000" stroke="#000000" points="618.3312,-120.231 607.9971,-117.8947 614.6187,-126.1655 618.3312,-120.231"/>
<text text-anchor="middle" x="697.6689" y="-185.8" font-family="Times,serif" font-size="14.00" fill="#000000">broadcast</text>
</g>
<!-- Reducer 10&#45;&gt;Reducer 3 -->
<g id="edge11" class="edge">
<title>Reducer 10&#45;&gt;Reducer 3</title>
<path fill="none" stroke="#000000" d="M577.8481,-171.7616C577.8481,-160.3597 577.8481,-145.4342 577.8481,-132.494"/>
<polygon fill="#000000" stroke="#000000" points="581.3482,-132.2121 577.8481,-122.2121 574.3482,-132.2121 581.3482,-132.2121"/>
<text text-anchor="middle" x="604.6689" y="-142.8" font-family="Times,serif" font-size="14.00" fill="#000000">broadcast</text>
</g>
<!-- Union 9 -->
<g id="node7" class="node">
<title>Union 9</title>
<ellipse fill="none" stroke="#000000" cx="505.8481" cy="-276" rx="38.6968" ry="18"/>
<text text-anchor="middle" x="505.8481" y="-271.8" font-family="Times,serif" font-size="14.00" fill="#000000">Union 9</text>
</g>
<!-- Union 9&#45;&gt;Reducer 10 -->
<g id="edge6" class="edge">
<title>Union 9&#45;&gt;Reducer 10</title>
<path fill="none" stroke="#000000" d="M520.073,-259.0092C530.4876,-246.5694 544.7969,-229.4778 556.569,-215.4167"/>
<polygon fill="#000000" stroke="#000000" points="559.4227,-217.4604 563.1584,-207.546 554.0554,-212.9668 559.4227,-217.4604"/>
<text text-anchor="middle" x="562.955" y="-228.8" font-family="Times,serif" font-size="14.00" fill="#000000">sorted</text>
</g>
<!-- Union 9&#45;&gt;Map 8 -->
<g id="edge8" class="edge">
<title>Union 9&#45;&gt;Map 8</title>
<path fill="none" stroke="#000000" d="M468.6583,-270.3411C441.0205,-265.1152 402.99,-255.725 372.5239,-240 358.992,-233.0156 345.7311,-222.6229 335.0749,-213.1191"/>
<polygon fill="#000000" stroke="#000000" points="337.1928,-210.3107 327.4724,-206.0959 332.4428,-215.4525 337.1928,-210.3107"/>
<text text-anchor="middle" x="388.0102" y="-228.8" font-family="Times,serif" font-size="14.00" fill="#000000">None</text>
</g>
<!-- Union 9&#45;&gt;Map 11 -->
<g id="edge14" class="edge">
<title>Union 9&#45;&gt;Map 11</title>
<path fill="none" stroke="#000000" d="M500.1416,-257.806C496.4655,-247.8167 491.0239,-235.555 483.8481,-226 479.9345,-220.7888 475.1276,-215.8415 470.1622,-211.3764"/>
<polygon fill="#000000" stroke="#000000" points="472.2391,-208.5497 462.3345,-204.7881 467.7315,-213.9053 472.2391,-208.5497"/>
<text text-anchor="middle" x="507.0102" y="-228.8" font-family="Times,serif" font-size="14.00" fill="#000000">None</text>
</g>
<!-- Reducer 4 -->
<g id="node10" class="node">
<title>Reducer 4</title>
<ellipse fill="none" stroke="#000000" cx="577.8481" cy="-18" rx="46.4045" ry="18"/>
<text text-anchor="middle" x="577.8481" y="-13.8" font-family="Times,serif" font-size="14.00" fill="#000000">Reducer 4</text>
</g>
<!-- Reducer 3&#45;&gt;Reducer 4 -->
<g id="edge9" class="edge">
<title>Reducer 3&#45;&gt;Reducer 4</title>
<path fill="none" stroke="#000000" d="M577.8481,-85.7616C577.8481,-74.3597 577.8481,-59.4342 577.8481,-46.494"/>
<polygon fill="#000000" stroke="#000000" points="581.3482,-46.2121 577.8481,-36.2121 574.3482,-46.2121 581.3482,-46.2121"/>
<text text-anchor="middle" x="594.955" y="-56.8" font-family="Times,serif" font-size="14.00" fill="#000000">sorted</text>
</g>
</g>
</svg>
