<?xml version="1.0" encoding="UTF-8" standalone="no"?>
<!DOCTYPE svg PUBLIC "-//W3C//DTD SVG 1.1//EN"
 "http://www.w3.org/Graphics/SVG/1.1/DTD/svg11.dtd">
<!-- Generated by graphviz version 2.40.1 (20161225.0304)
 -->
<!-- Title: %3 Pages: 1 -->
<svg width="210pt" height="474pt"
 viewBox="0.00 0.00 210.40 474.00" xmlns="http://www.w3.org/2000/svg" xmlns:xlink="http://www.w3.org/1999/xlink">
<g id="graph0" class="graph" transform="scale(1 1) rotate(0) translate(4 470)">
<title>%3</title>
<polygon fill="#ffffff" stroke="transparent" points="-4,4 -4,-470 206.4036,-470 206.4036,4 -4,4"/>
<!-- Map 6 -->
<g id="node1" class="node">
<title>Map 6</title>
<ellipse fill="none" stroke="#000000" cx="106.2018" cy="-448" rx="32.8992" ry="18"/>
<text text-anchor="middle" x="106.2018" y="-443.8" font-family="Times,serif" font-size="14.00" fill="#000000">Map 6</text>
</g>
<!-- Map 7 -->
<g id="node2" class="node">
<title>Map 7</title>
<ellipse fill="none" stroke="#000000" cx="65.2018" cy="-362" rx="32.8992" ry="18"/>
<text text-anchor="middle" x="65.2018" y="-357.8" font-family="Times,serif" font-size="14.00" fill="#000000">Map 7</text>
</g>
<!-- Map 6&#45;&gt;Map 7 -->
<g id="edge1" class="edge">
<title>Map 6&#45;&gt;Map 7</title>
<path fill="none" stroke="#000000" d="M87.4592,-432.904C81.4092,-427.0286 75.3043,-419.824 71.5602,-412 68.3767,-405.3475 66.6002,-397.6559 65.6493,-390.3304"/>
<polygon fill="#000000" stroke="#000000" points="69.1364,-390.0289 64.7942,-380.3648 62.162,-390.6275 69.1364,-390.0289"/>
<text text-anchor="middle" x="99.0226" y="-400.8" font-family="Times,serif" font-size="14.00" fill="#000000">broadcast</text>
</g>
<!-- Map 1 -->
<g id="node3" class="node">
<title>Map 1</title>
<ellipse fill="none" stroke="#000000" cx="152.2018" cy="-362" rx="32.8992" ry="18"/>
<text text-anchor="middle" x="152.2018" y="-357.8" font-family="Times,serif" font-size="14.00" fill="#000000">Map 1</text>
</g>
<!-- Map 6&#45;&gt;Map 1 -->
<g id="edge2" class="edge">
<title>Map 6&#45;&gt;Map 1</title>
<path fill="none" stroke="#000000" d="M115.5106,-430.5966C121.995,-418.4736 130.7621,-402.0829 138.1004,-388.3635"/>
<polygon fill="#000000" stroke="#000000" points="141.2765,-389.8462 142.9069,-379.3775 135.104,-386.5446 141.2765,-389.8462"/>
<text text-anchor="middle" x="158.0226" y="-400.8" font-family="Times,serif" font-size="14.00" fill="#000000">broadcast</text>
</g>
<!-- Reducer 8 -->
<g id="node8" class="node">
<title>Reducer 8</title>
<ellipse fill="none" stroke="#000000" cx="46.2018" cy="-276" rx="46.4045" ry="18"/>
<text text-anchor="middle" x="46.2018" y="-271.8" font-family="Times,serif" font-size="14.00" fill="#000000">Reducer 8</text>
</g>
<!-- Map 7&#45;&gt;Reducer 8 -->
<g id="edge8" class="edge">
<title>Map 7&#45;&gt;Reducer 8</title>
<path fill="none" stroke="#000000" d="M61.1724,-343.7616C58.6282,-332.2456 55.2898,-317.1353 52.4114,-304.1064"/>
<polygon fill="#000000" stroke="#000000" points="55.8004,-303.2216 50.2254,-294.2121 48.9652,-304.7317 55.8004,-303.2216"/>
<text text-anchor="middle" x="74.3087" y="-314.8" font-family="Times,serif" font-size="14.00" fill="#000000">sorted</text>
</g>
<!-- Reducer 2 -->
<g id="node7" class="node">
<title>Reducer 2</title>
<ellipse fill="none" stroke="#000000" cx="156.2018" cy="-276" rx="46.4045" ry="18"/>
<text text-anchor="middle" x="156.2018" y="-271.8" font-family="Times,serif" font-size="14.00" fill="#000000">Reducer 2</text>
</g>
<!-- Map 1&#45;&gt;Reducer 2 -->
<g id="edge7" class="edge">
<title>Map 1&#45;&gt;Reducer 2</title>
<path fill="none" stroke="#000000" d="M153.0501,-343.7616C153.5804,-332.3597 154.2746,-317.4342 154.8765,-304.494"/>
<polygon fill="#000000" stroke="#000000" points="158.3862,-304.3639 155.3547,-294.2121 151.3938,-304.0387 158.3862,-304.3639"/>
<text text-anchor="middle" x="171.3087" y="-314.8" font-family="Times,serif" font-size="14.00" fill="#000000">sorted</text>
</g>
<!-- Reducer 4 -->
<g id="node4" class="node">
<title>Reducer 4</title>
<ellipse fill="none" stroke="#000000" cx="100.2018" cy="-104" rx="46.4045" ry="18"/>
<text text-anchor="middle" x="100.2018" y="-99.8" font-family="Times,serif" font-size="14.00" fill="#000000">Reducer 4</text>
</g>
<!-- Reducer 5 -->
<g id="node5" class="node">
<title>Reducer 5</title>
<ellipse fill="none" stroke="#000000" cx="100.2018" cy="-18" rx="46.4045" ry="18"/>
<text text-anchor="middle" x="100.2018" y="-13.8" font-family="Times,serif" font-size="14.00" fill="#000000">Reducer 5</text>
</g>
<!-- Reducer 4&#45;&gt;Reducer 5 -->
<g id="edge3" class="edge">
<title>Reducer 4&#45;&gt;Reducer 5</title>
<path fill="none" stroke="#000000" d="M100.2018,-85.7616C100.2018,-74.3597 100.2018,-59.4342 100.2018,-46.494"/>
<polygon fill="#000000" stroke="#000000" points="103.7019,-46.2121 100.2018,-36.2121 96.7019,-46.2121 103.7019,-46.2121"/>
<text text-anchor="middle" x="117.3087" y="-56.8" font-family="Times,serif" font-size="14.00" fill="#000000">sorted</text>
</g>
<!-- Reducer 3 -->
<g id="node6" class="node">
<title>Reducer 3</title>
<ellipse fill="none" stroke="#000000" cx="100.2018" cy="-190" rx="46.4045" ry="18"/>
<text text-anchor="middle" x="100.2018" y="-185.8" font-family="Times,serif" font-size="14.00" fill="#000000">Reducer 3</text>
</g>
<!-- Reducer 3&#45;&gt;Reducer 4 -->
<g id="edge4" class="edge">
<title>Reducer 3&#45;&gt;Reducer 4</title>
<path fill="none" stroke="#000000" d="M100.2018,-171.7616C100.2018,-160.3597 100.2018,-145.4342 100.2018,-132.494"/>
<polygon fill="#000000" stroke="#000000" points="103.7019,-132.2121 100.2018,-122.2121 96.7019,-132.2121 103.7019,-132.2121"/>
<text text-anchor="middle" x="117.3087" y="-142.8" font-family="Times,serif" font-size="14.00" fill="#000000">sorted</text>
</g>
<!-- Reducer 2&#45;&gt;Reducer 3 -->
<g id="edge5" class="edge">
<title>Reducer 2&#45;&gt;Reducer 3</title>
<path fill="none" stroke="#000000" d="M144.5986,-258.1807C136.662,-245.9924 126.0117,-229.6367 117.1319,-215.9998"/>
<polygon fill="#000000" stroke="#000000" points="119.9883,-213.9723 111.5986,-207.5022 114.1224,-217.792 119.9883,-213.9723"/>
<text text-anchor="middle" x="148.3087" y="-228.8" font-family="Times,serif" font-size="14.00" fill="#000000">sorted</text>
</g>
<!-- Reducer 8&#45;&gt;Reducer 3 -->
<g id="edge6" class="edge">
<title>Reducer 8&#45;&gt;Reducer 3</title>
<path fill="none" stroke="#000000" d="M57.3906,-258.1807C65.0438,-245.9924 75.3137,-229.6367 83.8764,-215.9998"/>
<polygon fill="#000000" stroke="#000000" points="86.8585,-217.8323 89.2121,-207.5022 80.9302,-214.1099 86.8585,-217.8323"/>
<text text-anchor="middle" x="94.3087" y="-228.8" font-family="Times,serif" font-size="14.00" fill="#000000">sorted</text>
</g>
</g>
</svg>
