<?xml version="1.0" encoding="UTF-8" standalone="no"?>
<!DOCTYPE svg PUBLIC "-//W3C//DTD SVG 1.1//EN"
 "http://www.w3.org/Graphics/SVG/1.1/DTD/svg11.dtd">
<!-- Generated by graphviz version 2.40.1 (20161225.0304)
 -->
<!-- Title: %3 Pages: 1 -->
<svg width="1301pt" height="732pt"
 viewBox="0.00 0.00 1300.76 732.00" xmlns="http://www.w3.org/2000/svg" xmlns:xlink="http://www.w3.org/1999/xlink">
<g id="graph0" class="graph" transform="scale(1 1) rotate(0) translate(4 728)">
<title>%3</title>
<polygon fill="#ffffff" stroke="transparent" points="-4,4 -4,-728 1296.7629,-728 1296.7629,4 -4,4"/>
<!-- Map 20 -->
<g id="node1" class="node">
<title>Map 20</title>
<ellipse fill="none" stroke="#000000" cx="510.5611" cy="-620" rx="37.243" ry="18"/>
<text text-anchor="middle" x="510.5611" y="-615.8" font-family="Times,serif" font-size="14.00" fill="#000000">Map 20</text>
</g>
<!-- Reducer 21 -->
<g id="node2" class="node">
<title>Reducer 21</title>
<ellipse fill="none" stroke="#000000" cx="510.5611" cy="-534" rx="50.7474" ry="18"/>
<text text-anchor="middle" x="510.5611" y="-529.8" font-family="Times,serif" font-size="14.00" fill="#000000">Reducer 21</text>
</g>
<!-- Map 20&#45;&gt;Reducer 21 -->
<g id="edge1" class="edge">
<title>Map 20&#45;&gt;Reducer 21</title>
<path fill="none" stroke="#000000" d="M510.5611,-601.7616C510.5611,-590.3597 510.5611,-575.4342 510.5611,-562.494"/>
<polygon fill="#000000" stroke="#000000" points="514.0612,-562.2121 510.5611,-552.2121 507.0612,-562.2121 514.0612,-562.2121"/>
<text text-anchor="middle" x="534.668" y="-572.8" font-family="Times,serif" font-size="14.00" fill="#000000">unsorted</text>
</g>
<!-- Map 18 -->
<g id="node22" class="node">
<title>Map 18</title>
<ellipse fill="none" stroke="#000000" cx="545.5611" cy="-448" rx="37.243" ry="18"/>
<text text-anchor="middle" x="545.5611" y="-443.8" font-family="Times,serif" font-size="14.00" fill="#000000">Map 18</text>
</g>
<!-- Map 20&#45;&gt;Map 18 -->
<g id="edge22" class="edge">
<title>Map 20&#45;&gt;Map 18</title>
<path fill="none" stroke="#000000" d="M547.2889,-616.3632C586.35,-610.3152 646.3138,-594.2915 674.5611,-552 693.0092,-524.3798 671.4045,-502.1094 643.5611,-484 626.8947,-473.1601 606.519,-465.0003 588.6724,-459.2139"/>
<polygon fill="#000000" stroke="#000000" points="589.6451,-455.8512 579.0575,-456.2415 587.5776,-462.539 589.6451,-455.8512"/>
<text text-anchor="middle" x="707.3819" y="-529.8" font-family="Times,serif" font-size="14.00" fill="#000000">broadcast</text>
</g>
<!-- Map 15 -->
<g id="node23" class="node">
<title>Map 15</title>
<ellipse fill="none" stroke="#000000" cx="160.5611" cy="-448" rx="37.243" ry="18"/>
<text text-anchor="middle" x="160.5611" y="-443.8" font-family="Times,serif" font-size="14.00" fill="#000000">Map 15</text>
</g>
<!-- Map 20&#45;&gt;Map 15 -->
<g id="edge28" class="edge">
<title>Map 20&#45;&gt;Map 15</title>
<path fill="none" stroke="#000000" d="M473.1825,-618.2173C414.6939,-613.9855 299.5843,-599.7525 215.9195,-552 212.3238,-549.9477 166.2496,-501.7802 164.5611,-498 161.6022,-491.3757 160.1456,-483.7675 159.5267,-476.5173"/>
<polygon fill="#000000" stroke="#000000" points="163.0162,-476.1687 159.1422,-466.3075 156.0211,-476.4322 163.0162,-476.1687"/>
<text text-anchor="middle" x="243.3819" y="-529.8" font-family="Times,serif" font-size="14.00" fill="#000000">broadcast</text>
</g>
<!-- Reducer 21&#45;&gt;Map 18 -->
<g id="edge24" class="edge">
<title>Reducer 21&#45;&gt;Map 18</title>
<path fill="none" stroke="#000000" d="M528.1575,-517.1044C532.9768,-511.4927 537.6656,-504.9021 540.5611,-498 543.3727,-491.2978 544.8838,-483.6624 545.6431,-476.411"/>
<polygon fill="#000000" stroke="#000000" points="549.1497,-476.4143 546.2817,-466.2151 542.1634,-475.9767 549.1497,-476.4143"/>
<text text-anchor="middle" x="570.3819" y="-486.8" font-family="Times,serif" font-size="14.00" fill="#000000">broadcast</text>
</g>
<!-- Reducer 21&#45;&gt;Map 15 -->
<g id="edge30" class="edge">
<title>Reducer 21&#45;&gt;Map 15</title>
<path fill="none" stroke="#000000" d="M472.2451,-522.011C463.8485,-519.725 454.9583,-517.562 446.5611,-516 362.4548,-500.3553 336.2113,-524.6507 254.9195,-498 243.4184,-494.2295 242.156,-489.8515 231.5611,-484 220.2193,-477.736 207.6627,-471.2319 196.302,-465.5036"/>
<polygon fill="#000000" stroke="#000000" points="197.6025,-462.2407 187.0932,-460.8967 194.4706,-468.501 197.6025,-462.2407"/>
<text text-anchor="middle" x="282.3819" y="-486.8" font-family="Times,serif" font-size="14.00" fill="#000000">broadcast</text>
</g>
<!-- Map 22 -->
<g id="node3" class="node">
<title>Map 22</title>
<ellipse fill="none" stroke="#000000" cx="119.5611" cy="-620" rx="37.243" ry="18"/>
<text text-anchor="middle" x="119.5611" y="-615.8" font-family="Times,serif" font-size="14.00" fill="#000000">Map 22</text>
</g>
<!-- Reducer 23 -->
<g id="node4" class="node">
<title>Reducer 23</title>
<ellipse fill="none" stroke="#000000" cx="119.5611" cy="-534" rx="50.7474" ry="18"/>
<text text-anchor="middle" x="119.5611" y="-529.8" font-family="Times,serif" font-size="14.00" fill="#000000">Reducer 23</text>
</g>
<!-- Map 22&#45;&gt;Reducer 23 -->
<g id="edge2" class="edge">
<title>Map 22&#45;&gt;Reducer 23</title>
<path fill="none" stroke="#000000" d="M119.5611,-601.7616C119.5611,-590.3597 119.5611,-575.4342 119.5611,-562.494"/>
<polygon fill="#000000" stroke="#000000" points="123.0612,-562.2121 119.5611,-552.2121 116.0612,-562.2121 123.0612,-562.2121"/>
<text text-anchor="middle" x="143.668" y="-572.8" font-family="Times,serif" font-size="14.00" fill="#000000">unsorted</text>
</g>
<!-- Map 22&#45;&gt;Map 18 -->
<g id="edge23" class="edge">
<title>Map 22&#45;&gt;Map 18</title>
<path fill="none" stroke="#000000" d="M155.9,-615.7452C205.3512,-608.68 295.2647,-591.2154 361.5611,-552 380.8637,-540.5822 376.9498,-526.2063 396.9195,-516 444.4095,-491.7284 471.2585,-527.6934 515.5611,-498 523.8362,-492.4537 530.1822,-483.7832 534.8596,-475.21"/>
<polygon fill="#000000" stroke="#000000" points="538.0652,-476.6213 539.2924,-466.0978 531.7705,-473.5591 538.0652,-476.6213"/>
<text text-anchor="middle" x="424.3819" y="-529.8" font-family="Times,serif" font-size="14.00" fill="#000000">broadcast</text>
</g>
<!-- Map 22&#45;&gt;Map 15 -->
<g id="edge29" class="edge">
<title>Map 22&#45;&gt;Map 15</title>
<path fill="none" stroke="#000000" d="M89.4735,-609.0614C47.8437,-592.1331 -19.4833,-557.2061 5.9195,-516 28.8506,-478.8032 77.4708,-461.8702 114.1106,-454.2134"/>
<polygon fill="#000000" stroke="#000000" points="114.9382,-457.6185 124.0959,-452.2907 113.6145,-450.7448 114.9382,-457.6185"/>
<text text-anchor="middle" x="33.3819" y="-529.8" font-family="Times,serif" font-size="14.00" fill="#000000">broadcast</text>
</g>
<!-- Reducer 23&#45;&gt;Map 18 -->
<g id="edge25" class="edge">
<title>Reducer 23&#45;&gt;Map 18</title>
<path fill="none" stroke="#000000" d="M158.1493,-522.1619C166.7773,-519.8384 175.9301,-517.6219 184.5611,-516 262.2733,-501.3966 287.6621,-526.1315 361.5611,-498 371.4843,-494.2225 371.2274,-488.3363 380.9195,-484 418.6774,-467.1067 464.9437,-457.8928 498.8057,-453.0285"/>
<polygon fill="#000000" stroke="#000000" points="499.4569,-456.4722 508.8932,-451.6548 498.5124,-449.5362 499.4569,-456.4722"/>
<text text-anchor="middle" x="408.3819" y="-486.8" font-family="Times,serif" font-size="14.00" fill="#000000">broadcast</text>
</g>
<!-- Reducer 23&#45;&gt;Map 15 -->
<g id="edge31" class="edge">
<title>Reducer 23&#45;&gt;Map 15</title>
<path fill="none" stroke="#000000" d="M92.2467,-518.6655C79.0398,-509.1919 67.6567,-496.4935 75.9195,-484 84.8798,-470.4519 100.0826,-461.9865 115.1525,-456.7038"/>
<polygon fill="#000000" stroke="#000000" points="116.4484,-459.9667 124.9694,-453.6704 114.3818,-453.2787 116.4484,-459.9667"/>
<text text-anchor="middle" x="103.3819" y="-486.8" font-family="Times,serif" font-size="14.00" fill="#000000">broadcast</text>
</g>
<!-- Map 1 -->
<g id="node5" class="node">
<title>Map 1</title>
<ellipse fill="none" stroke="#000000" cx="1067.5611" cy="-706" rx="32.8992" ry="18"/>
<text text-anchor="middle" x="1067.5611" y="-701.8" font-family="Times,serif" font-size="14.00" fill="#000000">Map 1</text>
</g>
<!-- Reducer 9 -->
<g id="node6" class="node">
<title>Reducer 9</title>
<ellipse fill="none" stroke="#000000" cx="1026.5611" cy="-620" rx="46.4045" ry="18"/>
<text text-anchor="middle" x="1026.5611" y="-615.8" font-family="Times,serif" font-size="14.00" fill="#000000">Reducer 9</text>
</g>
<!-- Map 1&#45;&gt;Reducer 9 -->
<g id="edge3" class="edge">
<title>Map 1&#45;&gt;Reducer 9</title>
<path fill="none" stroke="#000000" d="M1059.0658,-688.1807C1053.4036,-676.3038 1045.8547,-660.4695 1039.457,-647.05"/>
<polygon fill="#000000" stroke="#000000" points="1042.5082,-645.3169 1035.0454,-637.7964 1036.1895,-648.3293 1042.5082,-645.3169"/>
<text text-anchor="middle" x="1065.668" y="-658.8" font-family="Times,serif" font-size="14.00" fill="#000000">sorted</text>
</g>
<!-- Reducer 2 -->
<g id="node10" class="node">
<title>Reducer 2</title>
<ellipse fill="none" stroke="#000000" cx="1246.5611" cy="-620" rx="46.4045" ry="18"/>
<text text-anchor="middle" x="1246.5611" y="-615.8" font-family="Times,serif" font-size="14.00" fill="#000000">Reducer 2</text>
</g>
<!-- Map 1&#45;&gt;Reducer 2 -->
<g id="edge6" class="edge">
<title>Map 1&#45;&gt;Reducer 2</title>
<path fill="none" stroke="#000000" d="M1092.5774,-694.2237C1107.4136,-687.2213 1126.579,-678.1437 1143.5611,-670 1165.1249,-659.6591 1189.1699,-647.9944 1208.601,-638.5343"/>
<polygon fill="#000000" stroke="#000000" points="1210.2812,-641.609 1217.7382,-634.0827 1207.2154,-635.3161 1210.2812,-641.609"/>
<text text-anchor="middle" x="1188.668" y="-658.8" font-family="Times,serif" font-size="14.00" fill="#000000">sorted</text>
</g>
<!-- Reducer 10 -->
<g id="node11" class="node">
<title>Reducer 10</title>
<ellipse fill="none" stroke="#000000" cx="911.5611" cy="-620" rx="50.7474" ry="18"/>
<text text-anchor="middle" x="911.5611" y="-615.8" font-family="Times,serif" font-size="14.00" fill="#000000">Reducer 10</text>
</g>
<!-- Map 1&#45;&gt;Reducer 10 -->
<g id="edge9" class="edge">
<title>Map 1&#45;&gt;Reducer 10</title>
<path fill="none" stroke="#000000" d="M1044.2063,-693.1249C1018.7097,-679.0691 977.5582,-656.383 947.8472,-640.0039"/>
<polygon fill="#000000" stroke="#000000" points="949.471,-636.9025 939.0238,-635.1397 946.0915,-643.0327 949.471,-636.9025"/>
<text text-anchor="middle" x="1015.668" y="-658.8" font-family="Times,serif" font-size="14.00" fill="#000000">sorted</text>
</g>
<!-- Reducer 3 -->
<g id="node18" class="node">
<title>Reducer 3</title>
<ellipse fill="none" stroke="#000000" cx="1136.5611" cy="-620" rx="46.4045" ry="18"/>
<text text-anchor="middle" x="1136.5611" y="-615.8" font-family="Times,serif" font-size="14.00" fill="#000000">Reducer 3</text>
</g>
<!-- Map 1&#45;&gt;Reducer 3 -->
<g id="edge20" class="edge">
<title>Map 1&#45;&gt;Reducer 3</title>
<path fill="none" stroke="#000000" d="M1080.865,-689.4183C1090.8823,-676.9329 1104.7922,-659.596 1116.2048,-645.3716"/>
<polygon fill="#000000" stroke="#000000" points="1119.0594,-647.4065 1122.5875,-637.4163 1113.5995,-643.0259 1119.0594,-647.4065"/>
<text text-anchor="middle" x="1122.668" y="-658.8" font-family="Times,serif" font-size="14.00" fill="#000000">sorted</text>
</g>
<!-- Reducer 11 -->
<g id="node12" class="node">
<title>Reducer 11</title>
<ellipse fill="none" stroke="#000000" cx="924.5611" cy="-534" rx="50.1002" ry="18"/>
<text text-anchor="middle" x="924.5611" y="-529.8" font-family="Times,serif" font-size="14.00" fill="#000000">Reducer 11</text>
</g>
<!-- Reducer 9&#45;&gt;Reducer 11 -->
<g id="edge8" class="edge">
<title>Reducer 9&#45;&gt;Reducer 11</title>
<path fill="none" stroke="#000000" d="M1006.8944,-603.4183C991.472,-590.4151 969.8082,-572.1495 952.5735,-557.6183"/>
<polygon fill="#000000" stroke="#000000" points="954.4167,-554.5944 944.5154,-550.8242 949.9045,-559.946 954.4167,-554.5944"/>
<text text-anchor="middle" x="1008.3819" y="-572.8" font-family="Times,serif" font-size="14.00" fill="#000000">broadcast</text>
</g>
<!-- Map 13 -->
<g id="node7" class="node">
<title>Map 13</title>
<ellipse fill="none" stroke="#000000" cx="810.5611" cy="-534" rx="37.243" ry="18"/>
<text text-anchor="middle" x="810.5611" y="-529.8" font-family="Times,serif" font-size="14.00" fill="#000000">Map 13</text>
</g>
<!-- Reducer 17 -->
<g id="node8" class="node">
<title>Reducer 17</title>
<ellipse fill="none" stroke="#000000" cx="810.5611" cy="-448" rx="50.7474" ry="18"/>
<text text-anchor="middle" x="810.5611" y="-443.8" font-family="Times,serif" font-size="14.00" fill="#000000">Reducer 17</text>
</g>
<!-- Map 13&#45;&gt;Reducer 17 -->
<g id="edge4" class="edge">
<title>Map 13&#45;&gt;Reducer 17</title>
<path fill="none" stroke="#000000" d="M810.5611,-515.7616C810.5611,-504.3597 810.5611,-489.4342 810.5611,-476.494"/>
<polygon fill="#000000" stroke="#000000" points="814.0612,-476.2121 810.5611,-466.2121 807.0612,-476.2121 814.0612,-476.2121"/>
<text text-anchor="middle" x="837.3819" y="-486.8" font-family="Times,serif" font-size="14.00" fill="#000000">broadcast</text>
</g>
<!-- Map 24 -->
<g id="node15" class="node">
<title>Map 24</title>
<ellipse fill="none" stroke="#000000" cx="971.5611" cy="-362" rx="37.243" ry="18"/>
<text text-anchor="middle" x="971.5611" y="-357.8" font-family="Times,serif" font-size="14.00" fill="#000000">Map 24</text>
</g>
<!-- Reducer 17&#45;&gt;Map 24 -->
<g id="edge17" class="edge">
<title>Reducer 17&#45;&gt;Map 24</title>
<path fill="none" stroke="#000000" d="M838.974,-432.8229C866.4252,-418.1595 908.0382,-395.9315 937.3076,-380.2969"/>
<polygon fill="#000000" stroke="#000000" points="939.1719,-383.2692 946.3433,-375.4704 935.8737,-377.0948 939.1719,-383.2692"/>
<text text-anchor="middle" x="927.3819" y="-400.8" font-family="Times,serif" font-size="14.00" fill="#000000">broadcast</text>
</g>
<!-- Union 16 -->
<g id="node9" class="node">
<title>Union 16</title>
<ellipse fill="none" stroke="#000000" cx="622.5611" cy="-534" rx="43.0409" ry="18"/>
<text text-anchor="middle" x="622.5611" y="-529.8" font-family="Times,serif" font-size="14.00" fill="#000000">Union 16</text>
</g>
<!-- Union 16&#45;&gt;Reducer 17 -->
<g id="edge5" class="edge">
<title>Union 16&#45;&gt;Reducer 17</title>
<path fill="none" stroke="#000000" d="M651.9361,-520.5625C683.6941,-506.0349 734.5267,-482.7817 770.0639,-466.5253"/>
<polygon fill="#000000" stroke="#000000" points="771.5622,-469.6888 779.1999,-462.346 768.6503,-463.3232 771.5622,-469.6888"/>
<text text-anchor="middle" x="744.668" y="-486.8" font-family="Times,serif" font-size="14.00" fill="#000000">sorted</text>
</g>
<!-- Union 16&#45;&gt;Map 18 -->
<g id="edge26" class="edge">
<title>Union 16&#45;&gt;Map 18</title>
<path fill="none" stroke="#000000" d="M617.8738,-515.9215C614.5613,-505.7287 609.3113,-493.2287 601.5611,-484 595.8447,-477.1932 588.509,-471.2272 581.0427,-466.211"/>
<polygon fill="#000000" stroke="#000000" points="582.6449,-463.0855 572.3072,-460.7654 578.9418,-469.0258 582.6449,-463.0855"/>
<text text-anchor="middle" x="624.7232" y="-486.8" font-family="Times,serif" font-size="14.00" fill="#000000">None</text>
</g>
<!-- Union 16&#45;&gt;Map 15 -->
<g id="edge32" class="edge">
<title>Union 16&#45;&gt;Map 15</title>
<path fill="none" stroke="#000000" d="M591.0273,-521.6254C584.358,-519.4225 577.2975,-517.3904 570.5611,-516 464.36,-494.08 428.7803,-536.0537 327.2369,-498 317.523,-494.3597 317.9425,-488.4273 308.5611,-484 276.3659,-468.8062 237.1024,-459.6368 207.1086,-454.3574"/>
<polygon fill="#000000" stroke="#000000" points="207.3537,-450.8498 196.9128,-452.6488 206.1967,-457.7535 207.3537,-450.8498"/>
<text text-anchor="middle" x="342.7232" y="-486.8" font-family="Times,serif" font-size="14.00" fill="#000000">None</text>
</g>
<!-- Reducer 4 -->
<g id="node17" class="node">
<title>Reducer 4</title>
<ellipse fill="none" stroke="#000000" cx="1136.5611" cy="-534" rx="46.4045" ry="18"/>
<text text-anchor="middle" x="1136.5611" y="-529.8" font-family="Times,serif" font-size="14.00" fill="#000000">Reducer 4</text>
</g>
<!-- Reducer 2&#45;&gt;Reducer 4 -->
<g id="edge14" class="edge">
<title>Reducer 2&#45;&gt;Reducer 4</title>
<path fill="none" stroke="#000000" d="M1225.8709,-603.8241C1208.8482,-590.5154 1184.5247,-571.4988 1165.5591,-556.6712"/>
<polygon fill="#000000" stroke="#000000" points="1167.5663,-553.7977 1157.5325,-550.3958 1163.2548,-559.3124 1167.5663,-553.7977"/>
<text text-anchor="middle" x="1224.3819" y="-572.8" font-family="Times,serif" font-size="14.00" fill="#000000">broadcast</text>
</g>
<!-- Reducer 10&#45;&gt;Reducer 11 -->
<g id="edge7" class="edge">
<title>Reducer 10&#45;&gt;Reducer 11</title>
<path fill="none" stroke="#000000" d="M914.318,-601.7616C916.0588,-590.2456 918.3429,-575.1353 920.3124,-562.1064"/>
<polygon fill="#000000" stroke="#000000" points="923.774,-562.6229 921.8081,-552.2121 916.8527,-561.5766 923.774,-562.6229"/>
<text text-anchor="middle" x="935.668" y="-572.8" font-family="Times,serif" font-size="14.00" fill="#000000">sorted</text>
</g>
<!-- Reducer 12 -->
<g id="node14" class="node">
<title>Reducer 12</title>
<ellipse fill="none" stroke="#000000" cx="971.5611" cy="-448" rx="50.7474" ry="18"/>
<text text-anchor="middle" x="971.5611" y="-443.8" font-family="Times,serif" font-size="14.00" fill="#000000">Reducer 12</text>
</g>
<!-- Reducer 11&#45;&gt;Reducer 12 -->
<g id="edge11" class="edge">
<title>Reducer 11&#45;&gt;Reducer 12</title>
<path fill="none" stroke="#000000" d="M934.2995,-516.1807C940.8534,-504.1885 949.6122,-488.1617 956.9912,-474.6598"/>
<polygon fill="#000000" stroke="#000000" points="960.1107,-476.25 961.8351,-465.7964 953.9681,-472.893 960.1107,-476.25"/>
<text text-anchor="middle" x="965.7232" y="-486.8" font-family="Times,serif" font-size="14.00" fill="#000000">None</text>
</g>
<!-- Map 25 -->
<g id="node13" class="node">
<title>Map 25</title>
<ellipse fill="none" stroke="#000000" cx="1030.5611" cy="-534" rx="37.243" ry="18"/>
<text text-anchor="middle" x="1030.5611" y="-529.8" font-family="Times,serif" font-size="14.00" fill="#000000">Map 25</text>
</g>
<!-- Map 25&#45;&gt;Reducer 12 -->
<g id="edge10" class="edge">
<title>Map 25&#45;&gt;Reducer 12</title>
<path fill="none" stroke="#000000" d="M1018.6215,-516.5966C1010.2799,-504.4376 998.9929,-487.9854 989.5637,-474.2412"/>
<polygon fill="#000000" stroke="#000000" points="992.2286,-471.9387 983.6854,-465.6727 986.4564,-475.8987 992.2286,-471.9387"/>
<text text-anchor="middle" x="1019.7232" y="-486.8" font-family="Times,serif" font-size="14.00" fill="#000000">None</text>
</g>
<!-- Reducer 12&#45;&gt;Map 24 -->
<g id="edge16" class="edge">
<title>Reducer 12&#45;&gt;Map 24</title>
<path fill="none" stroke="#000000" d="M971.5611,-429.7616C971.5611,-418.3597 971.5611,-403.4342 971.5611,-390.494"/>
<polygon fill="#000000" stroke="#000000" points="975.0612,-390.2121 971.5611,-380.2121 968.0612,-390.2121 975.0612,-390.2121"/>
<text text-anchor="middle" x="998.3819" y="-400.8" font-family="Times,serif" font-size="14.00" fill="#000000">broadcast</text>
</g>
<!-- Reducer 5 -->
<g id="node16" class="node">
<title>Reducer 5</title>
<ellipse fill="none" stroke="#000000" cx="1031.5611" cy="-276" rx="46.4045" ry="18"/>
<text text-anchor="middle" x="1031.5611" y="-271.8" font-family="Times,serif" font-size="14.00" fill="#000000">Reducer 5</text>
</g>
<!-- Map 24&#45;&gt;Reducer 5 -->
<g id="edge12" class="edge">
<title>Map 24&#45;&gt;Reducer 5</title>
<path fill="none" stroke="#000000" d="M983.703,-344.5966C992.2422,-332.3571 1003.8165,-315.7673 1013.4435,-301.9685"/>
<polygon fill="#000000" stroke="#000000" points="1016.5858,-303.5814 1019.4372,-293.3775 1010.8449,-299.5761 1016.5858,-303.5814"/>
<text text-anchor="middle" x="1019.7232" y="-314.8" font-family="Times,serif" font-size="14.00" fill="#000000">None</text>
</g>
<!-- Reducer 6 -->
<g id="node19" class="node">
<title>Reducer 6</title>
<ellipse fill="none" stroke="#000000" cx="1031.5611" cy="-190" rx="46.4045" ry="18"/>
<text text-anchor="middle" x="1031.5611" y="-185.8" font-family="Times,serif" font-size="14.00" fill="#000000">Reducer 6</text>
</g>
<!-- Reducer 5&#45;&gt;Reducer 6 -->
<g id="edge18" class="edge">
<title>Reducer 5&#45;&gt;Reducer 6</title>
<path fill="none" stroke="#000000" d="M1031.5611,-257.7616C1031.5611,-246.3597 1031.5611,-231.4342 1031.5611,-218.494"/>
<polygon fill="#000000" stroke="#000000" points="1035.0612,-218.2121 1031.5611,-208.2121 1028.0612,-218.2121 1035.0612,-218.2121"/>
<text text-anchor="middle" x="1048.668" y="-228.8" font-family="Times,serif" font-size="14.00" fill="#000000">sorted</text>
</g>
<!-- Reducer 4&#45;&gt;Reducer 5 -->
<g id="edge13" class="edge">
<title>Reducer 4&#45;&gt;Reducer 5</title>
<path fill="none" stroke="#000000" d="M1129.1777,-515.8579C1111.0222,-471.2473 1064.1205,-356.0031 1042.6224,-303.1794"/>
<polygon fill="#000000" stroke="#000000" points="1045.8083,-301.7224 1038.7969,-293.7795 1039.3247,-304.3612 1045.8083,-301.7224"/>
<text text-anchor="middle" x="1100.7232" y="-400.8" font-family="Times,serif" font-size="14.00" fill="#000000">None</text>
</g>
<!-- Reducer 3&#45;&gt;Reducer 4 -->
<g id="edge15" class="edge">
<title>Reducer 3&#45;&gt;Reducer 4</title>
<path fill="none" stroke="#000000" d="M1136.5611,-601.7616C1136.5611,-590.3597 1136.5611,-575.4342 1136.5611,-562.494"/>
<polygon fill="#000000" stroke="#000000" points="1140.0612,-562.2121 1136.5611,-552.2121 1133.0612,-562.2121 1140.0612,-562.2121"/>
<text text-anchor="middle" x="1153.668" y="-572.8" font-family="Times,serif" font-size="14.00" fill="#000000">sorted</text>
</g>
<!-- Reducer 7 -->
<g id="node20" class="node">
<title>Reducer 7</title>
<ellipse fill="none" stroke="#000000" cx="1031.5611" cy="-104" rx="46.4045" ry="18"/>
<text text-anchor="middle" x="1031.5611" y="-99.8" font-family="Times,serif" font-size="14.00" fill="#000000">Reducer 7</text>
</g>
<!-- Reducer 6&#45;&gt;Reducer 7 -->
<g id="edge19" class="edge">
<title>Reducer 6&#45;&gt;Reducer 7</title>
<path fill="none" stroke="#000000" d="M1031.5611,-171.7616C1031.5611,-160.3597 1031.5611,-145.4342 1031.5611,-132.494"/>
<polygon fill="#000000" stroke="#000000" points="1035.0612,-132.2121 1031.5611,-122.2121 1028.0612,-132.2121 1035.0612,-132.2121"/>
<text text-anchor="middle" x="1048.668" y="-142.8" font-family="Times,serif" font-size="14.00" fill="#000000">sorted</text>
</g>
<!-- Reducer 8 -->
<g id="node25" class="node">
<title>Reducer 8</title>
<ellipse fill="none" stroke="#000000" cx="1031.5611" cy="-18" rx="46.4045" ry="18"/>
<text text-anchor="middle" x="1031.5611" y="-13.8" font-family="Times,serif" font-size="14.00" fill="#000000">Reducer 8</text>
</g>
<!-- Reducer 7&#45;&gt;Reducer 8 -->
<g id="edge34" class="edge">
<title>Reducer 7&#45;&gt;Reducer 8</title>
<path fill="none" stroke="#000000" d="M1031.5611,-85.7616C1031.5611,-74.3597 1031.5611,-59.4342 1031.5611,-46.494"/>
<polygon fill="#000000" stroke="#000000" points="1035.0612,-46.2121 1031.5611,-36.2121 1028.0612,-46.2121 1035.0612,-46.2121"/>
<text text-anchor="middle" x="1048.668" y="-56.8" font-family="Times,serif" font-size="14.00" fill="#000000">sorted</text>
</g>
<!-- Map 19 -->
<g id="node21" class="node">
<title>Map 19</title>
<ellipse fill="none" stroke="#000000" cx="315.5611" cy="-534" rx="37.243" ry="18"/>
<text text-anchor="middle" x="315.5611" y="-529.8" font-family="Times,serif" font-size="14.00" fill="#000000">Map 19</text>
</g>
<!-- Map 19&#45;&gt;Map 18 -->
<g id="edge21" class="edge">
<title>Map 19&#45;&gt;Map 18</title>
<path fill="none" stroke="#000000" d="M345.3399,-522.9597C352.265,-520.5403 359.6375,-518.0822 366.5611,-516 398.1484,-506.5004 408.0841,-510.6155 438.5611,-498 449.7442,-493.3709 451.146,-489.5159 461.9195,-484 476.3256,-476.6242 492.5857,-469.3904 506.9132,-463.3646"/>
<polygon fill="#000000" stroke="#000000" points="508.5802,-466.4624 516.4769,-459.399 505.8989,-459.9963 508.5802,-466.4624"/>
<text text-anchor="middle" x="489.3819" y="-486.8" font-family="Times,serif" font-size="14.00" fill="#000000">broadcast</text>
</g>
<!-- Map 19&#45;&gt;Map 15 -->
<g id="edge27" class="edge">
<title>Map 19&#45;&gt;Map 15</title>
<path fill="none" stroke="#000000" d="M286.1112,-522.8492C279.1056,-520.4078 271.6155,-517.9681 264.5611,-516 226.6781,-505.4313 207.4684,-523.9553 177.9195,-498 171.4408,-492.3092 167.3794,-484.0717 164.8336,-475.9194"/>
<polygon fill="#000000" stroke="#000000" points="168.2257,-475.0565 162.4194,-466.1944 161.4319,-476.7431 168.2257,-475.0565"/>
<text text-anchor="middle" x="205.3819" y="-486.8" font-family="Times,serif" font-size="14.00" fill="#000000">broadcast</text>
</g>
<!-- Map 14 -->
<g id="node24" class="node">
<title>Map 14</title>
<ellipse fill="none" stroke="#000000" cx="805.5611" cy="-620" rx="37.243" ry="18"/>
<text text-anchor="middle" x="805.5611" y="-615.8" font-family="Times,serif" font-size="14.00" fill="#000000">Map 14</text>
</g>
<!-- Map 14&#45;&gt;Map 13 -->
<g id="edge33" class="edge">
<title>Map 14&#45;&gt;Map 13</title>
<path fill="none" stroke="#000000" d="M806.6214,-601.7616C807.2843,-590.3597 808.1521,-575.4342 808.9044,-562.494"/>
<polygon fill="#000000" stroke="#000000" points="812.4158,-562.3984 809.5022,-552.2121 805.4276,-561.9921 812.4158,-562.3984"/>
<text text-anchor="middle" x="834.3819" y="-572.8" font-family="Times,serif" font-size="14.00" fill="#000000">broadcast</text>
</g>
</g>
</svg>
