<?xml version="1.0" encoding="UTF-8" standalone="no"?>
<!DOCTYPE svg PUBLIC "-//W3C//DTD SVG 1.1//EN"
 "http://www.w3.org/Graphics/SVG/1.1/DTD/svg11.dtd">
<!-- Generated by graphviz version 2.40.1 (20161225.0304)
 -->
<!-- Title: %3 Pages: 1 -->
<svg width="1051pt" height="302pt"
 viewBox="0.00 0.00 1051.39 302.00" xmlns="http://www.w3.org/2000/svg" xmlns:xlink="http://www.w3.org/1999/xlink">
<g id="graph0" class="graph" transform="scale(1 1) rotate(0) translate(4 298)">
<title>%3</title>
<polygon fill="#ffffff" stroke="transparent" points="-4,4 -4,-298 1047.389,-298 1047.389,4 -4,4"/>
<!-- Map 10 -->
<g id="node1" class="node">
<title>Map 10</title>
<ellipse fill="none" stroke="#000000" cx="557.4394" cy="-276" rx="37.243" ry="18"/>
<text text-anchor="middle" x="557.4394" y="-271.8" font-family="Times,serif" font-size="14.00" fill="#000000">Map 10</text>
</g>
<!-- Map 6 -->
<g id="node2" class="node">
<title>Map 6</title>
<ellipse fill="none" stroke="#000000" cx="133.4394" cy="-104" rx="32.8992" ry="18"/>
<text text-anchor="middle" x="133.4394" y="-99.8" font-family="Times,serif" font-size="14.00" fill="#000000">Map 6</text>
</g>
<!-- Map 10&#45;&gt;Map 6 -->
<g id="edge1" class="edge">
<title>Map 10&#45;&gt;Map 6</title>
<path fill="none" stroke="#000000" d="M519.9014,-274.1738C401.6581,-268.0419 42.7212,-246.3875 8.7978,-208 -24.2005,-170.6593 47.8466,-135.2863 95.5723,-116.9767"/>
<polygon fill="#000000" stroke="#000000" points="96.9027,-120.2161 105.0477,-113.4404 94.4551,-113.6579 96.9027,-120.2161"/>
<text text-anchor="middle" x="36.2602" y="-185.8" font-family="Times,serif" font-size="14.00" fill="#000000">broadcast</text>
</g>
<!-- Reducer 11 -->
<g id="node5" class="node">
<title>Reducer 11</title>
<ellipse fill="none" stroke="#000000" cx="234.4394" cy="-190" rx="50.1002" ry="18"/>
<text text-anchor="middle" x="234.4394" y="-185.8" font-family="Times,serif" font-size="14.00" fill="#000000">Reducer 11</text>
</g>
<!-- Map 10&#45;&gt;Reducer 11 -->
<g id="edge11" class="edge">
<title>Map 10&#45;&gt;Reducer 11</title>
<path fill="none" stroke="#000000" d="M524.691,-267.2806C468.0943,-252.2115 351.6339,-221.2035 284.7148,-203.386"/>
<polygon fill="#000000" stroke="#000000" points="285.3793,-199.9411 274.8154,-200.7503 283.5782,-206.7054 285.3793,-199.9411"/>
<text text-anchor="middle" x="438.5464" y="-228.8" font-family="Times,serif" font-size="14.00" fill="#000000">unsorted</text>
</g>
<!-- Map 1 -->
<g id="node7" class="node">
<title>Map 1</title>
<ellipse fill="none" stroke="#000000" cx="595.4394" cy="-104" rx="32.8992" ry="18"/>
<text text-anchor="middle" x="595.4394" y="-99.8" font-family="Times,serif" font-size="14.00" fill="#000000">Map 1</text>
</g>
<!-- Map 10&#45;&gt;Map 1 -->
<g id="edge6" class="edge">
<title>Map 10&#45;&gt;Map 1</title>
<path fill="none" stroke="#000000" d="M580.9655,-261.9291C599.1097,-249.8593 623.4046,-230.8261 637.4394,-208 650.3691,-186.9713 647.5303,-178.5137 650.4394,-154 651.1727,-147.8211 653.3986,-145.4735 650.4394,-140 645.9754,-131.7429 638.7025,-125.0755 630.8863,-119.8286"/>
<polygon fill="#000000" stroke="#000000" points="632.6761,-116.8209 622.2989,-114.6847 629.079,-122.826 632.6761,-116.8209"/>
<text text-anchor="middle" x="675.2602" y="-185.8" font-family="Times,serif" font-size="14.00" fill="#000000">broadcast</text>
</g>
<!-- Map 8 -->
<g id="node9" class="node">
<title>Map 8</title>
<ellipse fill="none" stroke="#000000" cx="880.4394" cy="-104" rx="32.8992" ry="18"/>
<text text-anchor="middle" x="880.4394" y="-99.8" font-family="Times,serif" font-size="14.00" fill="#000000">Map 8</text>
</g>
<!-- Map 10&#45;&gt;Map 8 -->
<g id="edge12" class="edge">
<title>Map 10&#45;&gt;Map 8</title>
<path fill="none" stroke="#000000" d="M593.294,-270.619C659.547,-260.1432 797.9892,-235.603 837.4394,-208 861.0731,-191.4637 863.1825,-180.9592 873.4394,-154 876.0362,-147.1748 877.6841,-139.4964 878.7258,-132.243"/>
<polygon fill="#000000" stroke="#000000" points="882.2304,-132.3948 879.8581,-122.069 875.2734,-131.6205 882.2304,-132.3948"/>
<text text-anchor="middle" x="892.2602" y="-185.8" font-family="Times,serif" font-size="14.00" fill="#000000">broadcast</text>
</g>
<!-- Map 12 -->
<g id="node3" class="node">
<title>Map 12</title>
<ellipse fill="none" stroke="#000000" cx="441.4394" cy="-190" rx="37.243" ry="18"/>
<text text-anchor="middle" x="441.4394" y="-185.8" font-family="Times,serif" font-size="14.00" fill="#000000">Map 12</text>
</g>
<!-- Map 12&#45;&gt;Map 6 -->
<g id="edge2" class="edge">
<title>Map 12&#45;&gt;Map 6</title>
<path fill="none" stroke="#000000" d="M418.289,-175.8146C398.749,-164.4625 369.6811,-149.0012 342.4394,-140 286.727,-121.5914 219.3875,-112.1513 176.4857,-107.6473"/>
<polygon fill="#000000" stroke="#000000" points="176.6925,-104.1505 166.3923,-106.6317 175.9916,-111.1154 176.6925,-104.1505"/>
<text text-anchor="middle" x="402.2602" y="-142.8" font-family="Times,serif" font-size="14.00" fill="#000000">broadcast</text>
</g>
<!-- Map 12&#45;&gt;Map 1 -->
<g id="edge7" class="edge">
<title>Map 12&#45;&gt;Map 1</title>
<path fill="none" stroke="#000000" d="M436.9238,-171.9488C435.4327,-161.5122 435.6717,-148.7554 442.7978,-140 456.5139,-123.1481 512.4598,-113.3159 552.6464,-108.3007"/>
<polygon fill="#000000" stroke="#000000" points="553.2282,-111.7563 562.7446,-107.0991 552.401,-104.8053 553.2282,-111.7563"/>
<text text-anchor="middle" x="469.2602" y="-142.8" font-family="Times,serif" font-size="14.00" fill="#000000">broadcast</text>
</g>
<!-- Map 12&#45;&gt;Map 8 -->
<g id="edge13" class="edge">
<title>Map 12&#45;&gt;Map 8</title>
<path fill="none" stroke="#000000" d="M463.3028,-175.2495C482.1477,-163.3932 510.5458,-147.5195 537.7978,-140 666.8337,-104.3959 708.1786,-152.8223 838.4394,-122 841.098,-121.3709 843.8013,-120.5854 846.4892,-119.6968"/>
<polygon fill="#000000" stroke="#000000" points="847.9069,-122.9035 856.0484,-116.1236 845.4559,-116.3466 847.9069,-122.9035"/>
<text text-anchor="middle" x="564.2602" y="-142.8" font-family="Times,serif" font-size="14.00" fill="#000000">broadcast</text>
</g>
<!-- Map 7 -->
<g id="node4" class="node">
<title>Map 7</title>
<ellipse fill="none" stroke="#000000" cx="104.4394" cy="-190" rx="32.8992" ry="18"/>
<text text-anchor="middle" x="104.4394" y="-185.8" font-family="Times,serif" font-size="14.00" fill="#000000">Map 7</text>
</g>
<!-- Map 7&#45;&gt;Map 6 -->
<g id="edge3" class="edge">
<title>Map 7&#45;&gt;Map 6</title>
<path fill="none" stroke="#000000" d="M79.9008,-177.7639C64.349,-168.2722 48.7333,-154.3529 57.7978,-140 65.6718,-127.5323 79.1739,-119.2935 92.6109,-113.8894"/>
<polygon fill="#000000" stroke="#000000" points="94.0576,-117.0896 102.3022,-110.4355 91.7076,-110.4958 94.0576,-117.0896"/>
<text text-anchor="middle" x="84.2602" y="-142.8" font-family="Times,serif" font-size="14.00" fill="#000000">broadcast</text>
</g>
<!-- Reducer 11&#45;&gt;Map 6 -->
<g id="edge4" class="edge">
<title>Reducer 11&#45;&gt;Map 6</title>
<path fill="none" stroke="#000000" d="M192.497,-179.9207C168.5755,-173.2444 141.9607,-163.9148 134.7978,-154 130.3228,-147.8057 128.7638,-139.9617 128.6449,-132.3342"/>
<polygon fill="#000000" stroke="#000000" points="132.1452,-132.4303 129.2368,-122.2425 125.1572,-132.0204 132.1452,-132.4303"/>
<text text-anchor="middle" x="161.2602" y="-142.8" font-family="Times,serif" font-size="14.00" fill="#000000">broadcast</text>
</g>
<!-- Reducer 11&#45;&gt;Map 1 -->
<g id="edge9" class="edge">
<title>Reducer 11&#45;&gt;Map 1</title>
<path fill="none" stroke="#000000" d="M217.6884,-172.7177C209.6136,-162.3033 203.3292,-149.3005 211.7978,-140 234.3721,-115.2082 456.8805,-107.1682 552.3243,-104.847"/>
<polygon fill="#000000" stroke="#000000" points="552.5895,-108.3419 562.5051,-104.6095 552.4262,-101.3438 552.5895,-108.3419"/>
<text text-anchor="middle" x="238.2602" y="-142.8" font-family="Times,serif" font-size="14.00" fill="#000000">broadcast</text>
</g>
<!-- Reducer 11&#45;&gt;Map 8 -->
<g id="edge15" class="edge">
<title>Reducer 11&#45;&gt;Map 8</title>
<path fill="none" stroke="#000000" d="M249.2954,-172.7394C260.9031,-159.7577 276.4262,-143.6104 284.7978,-140 341.3144,-115.6265 778.3572,-135.3533 838.4394,-122 841.1063,-121.4073 843.8157,-120.6483 846.508,-119.7785"/>
<polygon fill="#000000" stroke="#000000" points="847.9091,-122.9922 856.0757,-116.2426 845.4825,-116.4262 847.9091,-122.9922"/>
<text text-anchor="middle" x="311.2602" y="-142.8" font-family="Times,serif" font-size="14.00" fill="#000000">broadcast</text>
</g>
<!-- Union 2 -->
<g id="node6" class="node">
<title>Union 2</title>
<ellipse fill="none" stroke="#000000" cx="789.4394" cy="-190" rx="38.6968" ry="18"/>
<text text-anchor="middle" x="789.4394" y="-185.8" font-family="Times,serif" font-size="14.00" fill="#000000">Union 2</text>
</g>
<!-- Union 2&#45;&gt;Map 6 -->
<g id="edge5" class="edge">
<title>Union 2&#45;&gt;Map 6</title>
<path fill="none" stroke="#000000" d="M759.1543,-178.6196C720.7499,-164.2247 658.836,-141.1543 653.4394,-140 562.8746,-120.6291 284.7081,-109.2202 176.8286,-105.4246"/>
<polygon fill="#000000" stroke="#000000" points="176.7467,-101.9198 166.6313,-105.0708 176.5038,-108.9156 176.7467,-101.9198"/>
<text text-anchor="middle" x="704.6015" y="-142.8" font-family="Times,serif" font-size="14.00" fill="#000000">None</text>
</g>
<!-- Union 2&#45;&gt;Map 1 -->
<g id="edge10" class="edge">
<title>Union 2&#45;&gt;Map 1</title>
<path fill="none" stroke="#000000" d="M773.2149,-173.4373C761.6533,-162.5039 745.24,-148.6503 728.4394,-140 699.7746,-125.241 664.4268,-116.044 637.3787,-110.6435"/>
<polygon fill="#000000" stroke="#000000" points="637.9277,-107.1852 627.4499,-108.7558 636.6202,-114.062 637.9277,-107.1852"/>
<text text-anchor="middle" x="764.6015" y="-142.8" font-family="Times,serif" font-size="14.00" fill="#000000">None</text>
</g>
<!-- Union 2&#45;&gt;Map 8 -->
<g id="edge16" class="edge">
<title>Union 2&#45;&gt;Map 8</title>
<path fill="none" stroke="#000000" d="M806.5558,-173.8241C820.6258,-160.5272 840.7248,-141.5325 856.4085,-126.7106"/>
<polygon fill="#000000" stroke="#000000" points="858.8433,-129.2252 863.7072,-119.8128 854.0353,-124.1377 858.8433,-129.2252"/>
<text text-anchor="middle" x="854.6015" y="-142.8" font-family="Times,serif" font-size="14.00" fill="#000000">None</text>
</g>
<!-- Reducer 3 -->
<g id="node11" class="node">
<title>Reducer 3</title>
<ellipse fill="none" stroke="#000000" cx="783.4394" cy="-104" rx="46.4045" ry="18"/>
<text text-anchor="middle" x="783.4394" y="-99.8" font-family="Times,serif" font-size="14.00" fill="#000000">Reducer 3</text>
</g>
<!-- Union 2&#45;&gt;Reducer 3 -->
<g id="edge18" class="edge">
<title>Union 2&#45;&gt;Reducer 3</title>
<path fill="none" stroke="#000000" d="M788.167,-171.7616C787.3715,-160.3597 786.3302,-145.4342 785.4274,-132.494"/>
<polygon fill="#000000" stroke="#000000" points="788.8976,-131.9442 784.7101,-122.2121 781.9146,-132.4315 788.8976,-131.9442"/>
<text text-anchor="middle" x="803.5464" y="-142.8" font-family="Times,serif" font-size="14.00" fill="#000000">sorted</text>
</g>
<!-- Map 5 -->
<g id="node8" class="node">
<title>Map 5</title>
<ellipse fill="none" stroke="#000000" cx="595.4394" cy="-190" rx="32.8992" ry="18"/>
<text text-anchor="middle" x="595.4394" y="-185.8" font-family="Times,serif" font-size="14.00" fill="#000000">Map 5</text>
</g>
<!-- Map 5&#45;&gt;Map 1 -->
<g id="edge8" class="edge">
<title>Map 5&#45;&gt;Map 1</title>
<path fill="none" stroke="#000000" d="M595.4394,-171.7616C595.4394,-160.3597 595.4394,-145.4342 595.4394,-132.494"/>
<polygon fill="#000000" stroke="#000000" points="598.9395,-132.2121 595.4394,-122.2121 591.9395,-132.2121 598.9395,-132.2121"/>
<text text-anchor="middle" x="622.2602" y="-142.8" font-family="Times,serif" font-size="14.00" fill="#000000">broadcast</text>
</g>
<!-- Map 9 -->
<g id="node10" class="node">
<title>Map 9</title>
<ellipse fill="none" stroke="#000000" cx="1010.4394" cy="-190" rx="32.8992" ry="18"/>
<text text-anchor="middle" x="1010.4394" y="-185.8" font-family="Times,serif" font-size="14.00" fill="#000000">Map 9</text>
</g>
<!-- Map 9&#45;&gt;Map 8 -->
<g id="edge14" class="edge">
<title>Map 9&#45;&gt;Map 8</title>
<path fill="none" stroke="#000000" d="M989.2634,-175.9912C967.7331,-161.7481 934.1954,-139.5616 910.0412,-123.5827"/>
<polygon fill="#000000" stroke="#000000" points="911.8777,-120.6011 901.6065,-118.0028 908.0156,-126.4393 911.8777,-120.6011"/>
<text text-anchor="middle" x="979.2602" y="-142.8" font-family="Times,serif" font-size="14.00" fill="#000000">broadcast</text>
</g>
<!-- Reducer 4 -->
<g id="node12" class="node">
<title>Reducer 4</title>
<ellipse fill="none" stroke="#000000" cx="783.4394" cy="-18" rx="46.4045" ry="18"/>
<text text-anchor="middle" x="783.4394" y="-13.8" font-family="Times,serif" font-size="14.00" fill="#000000">Reducer 4</text>
</g>
<!-- Reducer 3&#45;&gt;Reducer 4 -->
<g id="edge17" class="edge">
<title>Reducer 3&#45;&gt;Reducer 4</title>
<path fill="none" stroke="#000000" d="M783.4394,-85.7616C783.4394,-74.3597 783.4394,-59.4342 783.4394,-46.494"/>
<polygon fill="#000000" stroke="#000000" points="786.9395,-46.2121 783.4394,-36.2121 779.9395,-46.2121 786.9395,-46.2121"/>
<text text-anchor="middle" x="800.5464" y="-56.8" font-family="Times,serif" font-size="14.00" fill="#000000">sorted</text>
</g>
</g>
</svg>
