<?xml version="1.0" encoding="UTF-8" standalone="no"?>
<!DOCTYPE svg PUBLIC "-//W3C//DTD SVG 1.1//EN"
 "http://www.w3.org/Graphics/SVG/1.1/DTD/svg11.dtd">
<!-- Generated by graphviz version 2.40.1 (20161225.0304)
 -->
<!-- Title: g Pages: 1 -->
<svg width="535pt" height="2965pt"
 viewBox="0.00 0.00 535.00 2965.00" xmlns="http://www.w3.org/2000/svg" xmlns:xlink="http://www.w3.org/1999/xlink">
<g id="graph0" class="graph" transform="scale(1 1) rotate(0) translate(4 2961)">
<title>g</title>
<polygon fill="#ffffff" stroke="transparent" points="-4,4 -4,-2961 531,-2961 531,4 -4,4"/>
<g id="clust1" class="cluster">
<title>cluster_Map_5</title>
<polygon fill="none" stroke="#0000ff" stroke-dasharray="5,2" points="8,-2004 8,-2949 327,-2949 327,-2004 8,-2004"/>
<text text-anchor="middle" x="167.5" y="-2933.8" font-family="Times,serif" font-size="14.00" fill="#000000">Map 5 (vectorized=true)</text>
</g>
<g id="clust2" class="cluster">
<title>cluster_Map_4</title>
<polygon fill="none" stroke="#0000ff" stroke-dasharray="5,2" points="335,-2004 335,-2601 519,-2601 519,-2004 335,-2004"/>
<text text-anchor="middle" x="427" y="-2585.8" font-family="Times,serif" font-size="14.00" fill="#000000">Map 4 (vectorized=true)</text>
</g>
<g id="clust3" class="cluster">
<title>cluster_Reducer_3</title>
<polygon fill="none" stroke="#0000ff" stroke-dasharray="5,2" points="236,-8 236,-430 409,-430 409,-8 236,-8"/>
<text text-anchor="middle" x="322.5" y="-414.8" font-family="Times,serif" font-size="14.00" fill="#000000">Reducer 3 (vectorized=true)</text>
</g>
<g id="clust4" class="cluster">
<title>cluster_Map_1</title>
<polygon fill="none" stroke="#0000ff" stroke-dasharray="5,2" points="229,-763 229,-1972 415,-1972 415,-763 229,-763"/>
<text text-anchor="middle" x="322" y="-1956.8" font-family="Times,serif" font-size="14.00" fill="#000000">Map 1 (vectorized=true)</text>
</g>
<g id="clust5" class="cluster">
<title>cluster_Reducer_2</title>
<polygon fill="none" stroke="#0000ff" stroke-dasharray="5,2" points="230,-462 230,-731 414,-731 414,-462 230,-462"/>
<text text-anchor="middle" x="322" y="-715.8" font-family="Times,serif" font-size="14.00" fill="#000000">Reducer 2 (vectorized=true)</text>
</g>
<!-- Map_5_0 -->
<g id="Map_5_0" class="node">
<title>Map_5_0</title>
<polygon fill="none" stroke="#000000" points="126,-2892 126,-2912 230,-2912 230,-2892 126,-2892"/>
<text text-anchor="start" x="148.9473" y="-2898.8" font-family="Times,serif" font-weight="bold" font-size="14.00" fill="#000000">TableScan</text>
<polygon fill="none" stroke="#000000" points="126,-2870 126,-2890 167,-2890 167,-2870 126,-2870"/>
<text text-anchor="start" x="132.5034" y="-2875.8" font-family="Times,serif" font-size="14.00" fill="#000000">Size:</text>
<polygon fill="none" stroke="#000000" points="169,-2870 169,-2890 230,-2890 230,-2870 169,-2870"/>
<text text-anchor="start" x="171.7563" y="-2875.8" font-family="Times,serif" font-size="14.00" fill="#000000"> 1168784 </text>
<polygon fill="none" stroke="#000000" points="126,-2848 126,-2868 167,-2868 167,-2848 126,-2848"/>
<text text-anchor="start" x="128.6069" y="-2853.8" font-family="Times,serif" font-size="14.00" fill="#000000">Rows:</text>
<polygon fill="none" stroke="#000000" points="169,-2848 169,-2868 230,-2868 230,-2848 169,-2848"/>
<text text-anchor="start" x="178.5" y="-2853.8" font-family="Times,serif" font-size="14.00" fill="#000000"> 73049 </text>
<polygon fill="none" stroke="#000000" points="126,-2826 126,-2846 167,-2846 167,-2826 126,-2826"/>
<text text-anchor="start" x="131.7275" y="-2831.8" font-family="Times,serif" font-size="14.00" fill="#000000">alias:</text>
<polygon fill="none" stroke="#000000" points="169,-2826 169,-2846 230,-2846 230,-2826 169,-2826"/>
<text text-anchor="start" x="188.3403" y="-2831.8" font-family="Times,serif" font-size="14.00" fill="#000000">&quot;dt&quot;</text>
<polygon fill="none" stroke="#000000" points="123,-2823 123,-2915 233,-2915 233,-2823 123,-2823"/>
</g>
<!-- Map_5_1 -->
<g id="Map_5_1" class="node">
<title>Map_5_1</title>
<polygon fill="none" stroke="#000000" points="133,-2717 133,-2737 224,-2737 224,-2717 133,-2717"/>
<text text-anchor="start" x="136.7085" y="-2723.8" font-family="Times,serif" font-weight="bold" font-size="14.00" fill="#000000">Filter Operator</text>
<polygon fill="none" stroke="#000000" points="133,-2695 133,-2715 174,-2715 174,-2695 133,-2695"/>
<text text-anchor="start" x="139.5034" y="-2700.8" font-family="Times,serif" font-size="14.00" fill="#000000">Size:</text>
<polygon fill="none" stroke="#000000" points="176,-2695 176,-2715 224,-2715 224,-2695 176,-2695"/>
<text text-anchor="start" x="179" y="-2700.8" font-family="Times,serif" font-size="14.00" fill="#000000"> 89904 </text>
<polygon fill="none" stroke="#000000" points="133,-2673 133,-2693 174,-2693 174,-2673 133,-2673"/>
<text text-anchor="start" x="135.6069" y="-2678.8" font-family="Times,serif" font-size="14.00" fill="#000000">Rows:</text>
<polygon fill="none" stroke="#000000" points="176,-2673 176,-2693 224,-2693 224,-2673 176,-2673"/>
<text text-anchor="start" x="182.5" y="-2678.8" font-family="Times,serif" font-size="14.00" fill="#000000"> 5619 </text>
<polygon fill="none" stroke="#000000" points="129.5,-2670 129.5,-2740 226.5,-2740 226.5,-2670 129.5,-2670"/>
</g>
<!-- Map_5_0&#45;&gt;Map_5_1 -->
<g id="edge1" class="edge">
<title>Map_5_0&#45;&gt;Map_5_1</title>
<path fill="none" stroke="#000000" d="M178,-2818.9035C178,-2798.3547 178,-2774.6392 178,-2754.1856"/>
<polygon fill="#000000" stroke="#000000" points="181.5001,-2754.129 178,-2744.129 174.5001,-2754.1291 181.5001,-2754.129"/>
</g>
<!-- Map_5_2 -->
<g id="Map_5_2" class="node">
<title>Map_5_2</title>
<polygon fill="none" stroke="#000000" points="131,-2533 131,-2553 226,-2553 226,-2533 131,-2533"/>
<text text-anchor="start" x="134.7705" y="-2539.8" font-family="Times,serif" font-weight="bold" font-size="14.00" fill="#000000">Select Operator</text>
<polygon fill="none" stroke="#000000" points="131,-2511 131,-2531 174,-2531 174,-2511 131,-2511"/>
<text text-anchor="start" x="138.5034" y="-2516.8" font-family="Times,serif" font-size="14.00" fill="#000000">Size:</text>
<polygon fill="none" stroke="#000000" points="176,-2511 176,-2531 226,-2531 226,-2511 176,-2511"/>
<text text-anchor="start" x="180" y="-2516.8" font-family="Times,serif" font-size="14.00" fill="#000000"> 89904 </text>
<polygon fill="none" stroke="#000000" points="131,-2489 131,-2509 174,-2509 174,-2489 131,-2489"/>
<text text-anchor="start" x="134.6069" y="-2494.8" font-family="Times,serif" font-size="14.00" fill="#000000">Rows:</text>
<polygon fill="none" stroke="#000000" points="176,-2489 176,-2509 226,-2509 226,-2489 176,-2489"/>
<text text-anchor="start" x="183.5" y="-2494.8" font-family="Times,serif" font-size="14.00" fill="#000000"> 5619 </text>
<polygon fill="none" stroke="#000000" points="127.5,-2486 127.5,-2556 228.5,-2556 228.5,-2486 127.5,-2486"/>
</g>
<!-- Map_5_1&#45;&gt;Map_5_2 -->
<g id="edge2" class="edge">
<title>Map_5_1&#45;&gt;Map_5_2</title>
<path fill="none" stroke="#000000" d="M178,-2665.9783C178,-2638.1406 178,-2600.486 178,-2570.5287"/>
<polygon fill="#000000" stroke="#000000" points="181.5001,-2570.2821 178,-2560.2822 174.5001,-2570.2822 181.5001,-2570.2821"/>
</g>
<!-- Map_5_3 -->
<g id="Map_5_3" class="node">
<title>Map_5_3</title>
<polygon fill="none" stroke="#000000" points="28,-2369 28,-2389 173,-2389 173,-2369 28,-2369"/>
<text text-anchor="start" x="31.6895" y="-2375.8" font-family="Times,serif" font-weight="bold" font-size="14.00" fill="#000000">Reduce Output Operator</text>
<polygon fill="none" stroke="#000000" points="28,-2347 28,-2367 96,-2367 96,-2347 28,-2347"/>
<text text-anchor="start" x="48.0034" y="-2352.8" font-family="Times,serif" font-size="14.00" fill="#000000">Size:</text>
<polygon fill="none" stroke="#000000" points="98,-2347 98,-2367 173,-2367 173,-2347 98,-2347"/>
<text text-anchor="start" x="114.5" y="-2352.8" font-family="Times,serif" font-size="14.00" fill="#000000"> 89904 </text>
<polygon fill="none" stroke="#000000" points="28,-2325 28,-2345 96,-2345 96,-2325 28,-2325"/>
<text text-anchor="start" x="44.1069" y="-2330.8" font-family="Times,serif" font-size="14.00" fill="#000000">Rows:</text>
<polygon fill="none" stroke="#000000" points="98,-2325 98,-2345 173,-2345 173,-2325 98,-2325"/>
<text text-anchor="start" x="118" y="-2330.8" font-family="Times,serif" font-size="14.00" fill="#000000"> 5619 </text>
<polygon fill="none" stroke="#000000" points="24.5,-2322 24.5,-2392 175.5,-2392 175.5,-2322 24.5,-2322"/>
</g>
<!-- Map_5_2&#45;&gt;Map_5_3 -->
<g id="edge3" class="edge">
<title>Map_5_2&#45;&gt;Map_5_3</title>
<path fill="none" stroke="#000000" d="M159.3171,-2481.7179C148.4069,-2458.7786 134.5536,-2429.6512 122.9791,-2405.315"/>
<polygon fill="#000000" stroke="#000000" points="126.1214,-2403.7728 118.6655,-2396.2454 119.7999,-2406.7794 126.1214,-2403.7728"/>
</g>
<!-- Map_5_4 -->
<g id="Map_5_4" class="node">
<title>Map_5_4</title>
<polygon fill="none" stroke="#000000" points="213,-2369 213,-2389 308,-2389 308,-2369 213,-2369"/>
<text text-anchor="start" x="216.7705" y="-2375.8" font-family="Times,serif" font-weight="bold" font-size="14.00" fill="#000000">Select Operator</text>
<polygon fill="none" stroke="#000000" points="213,-2347 213,-2367 256,-2367 256,-2347 213,-2347"/>
<text text-anchor="start" x="220.5034" y="-2352.8" font-family="Times,serif" font-size="14.00" fill="#000000">Size:</text>
<polygon fill="none" stroke="#000000" points="258,-2347 258,-2367 308,-2367 308,-2347 258,-2347"/>
<text text-anchor="start" x="262" y="-2352.8" font-family="Times,serif" font-size="14.00" fill="#000000"> 89904 </text>
<polygon fill="none" stroke="#000000" points="213,-2325 213,-2345 256,-2345 256,-2325 213,-2325"/>
<text text-anchor="start" x="216.6069" y="-2330.8" font-family="Times,serif" font-size="14.00" fill="#000000">Rows:</text>
<polygon fill="none" stroke="#000000" points="258,-2325 258,-2345 308,-2345 308,-2325 258,-2325"/>
<text text-anchor="start" x="265.5" y="-2330.8" font-family="Times,serif" font-size="14.00" fill="#000000"> 5619 </text>
<polygon fill="none" stroke="#000000" points="209.5,-2322 209.5,-2392 310.5,-2392 310.5,-2322 209.5,-2322"/>
</g>
<!-- Map_5_2&#45;&gt;Map_5_4 -->
<g id="edge4" class="edge">
<title>Map_5_2&#45;&gt;Map_5_4</title>
<path fill="none" stroke="#000000" d="M197.641,-2481.7179C209.1107,-2458.7786 223.6744,-2429.6512 235.8425,-2405.315"/>
<polygon fill="#000000" stroke="#000000" points="239.0356,-2406.755 240.3773,-2396.2454 232.7746,-2403.6245 239.0356,-2406.755"/>
</g>
<!-- Map_5_5 -->
<g id="Map_5_5" class="node">
<title>Map_5_5</title>
<polygon fill="none" stroke="#000000" points="179,-2216 179,-2236 295,-2236 295,-2216 179,-2216"/>
<text text-anchor="start" x="182.5688" y="-2222.8" font-family="Times,serif" font-weight="bold" font-size="14.00" fill="#000000">Group By Operator</text>
<polygon fill="none" stroke="#000000" points="179,-2194 179,-2214 232,-2214 232,-2194 179,-2194"/>
<text text-anchor="start" x="191.5034" y="-2199.8" font-family="Times,serif" font-size="14.00" fill="#000000">Size:</text>
<polygon fill="none" stroke="#000000" points="234,-2194 234,-2214 295,-2214 295,-2194 234,-2194"/>
<text text-anchor="start" x="243.5" y="-2199.8" font-family="Times,serif" font-size="14.00" fill="#000000"> 44944 </text>
<polygon fill="none" stroke="#000000" points="179,-2172 179,-2192 232,-2192 232,-2172 179,-2172"/>
<text text-anchor="start" x="187.6069" y="-2177.8" font-family="Times,serif" font-size="14.00" fill="#000000">Rows:</text>
<polygon fill="none" stroke="#000000" points="234,-2172 234,-2192 295,-2192 295,-2172 234,-2172"/>
<text text-anchor="start" x="247" y="-2177.8" font-family="Times,serif" font-size="14.00" fill="#000000"> 2809 </text>
<polygon fill="none" stroke="#000000" points="176,-2169 176,-2239 298,-2239 298,-2169 176,-2169"/>
</g>
<!-- Map_5_4&#45;&gt;Map_5_5 -->
<g id="edge5" class="edge">
<title>Map_5_4&#45;&gt;Map_5_5</title>
<path fill="none" stroke="#000000" d="M254.1366,-2317.9958C251.1743,-2298.2897 247.549,-2274.1737 244.397,-2253.206"/>
<polygon fill="#000000" stroke="#000000" points="247.8404,-2252.5673 242.8926,-2243.1987 240.9182,-2253.608 247.8404,-2252.5673"/>
</g>
<!-- Map_5_6 -->
<g id="Map_5_6" class="node">
<title>Map_5_6</title>
<polygon fill="none" stroke="#000000" points="90,-2063 90,-2083 308,-2083 308,-2063 90,-2063"/>
<text text-anchor="start" x="93.8325" y="-2069.8" font-family="Times,serif" font-weight="bold" font-size="14.00" fill="#000000">Dynamic Partitioning Event Operator</text>
<polygon fill="none" stroke="#000000" points="90,-2041 90,-2061 194,-2061 194,-2041 90,-2041"/>
<text text-anchor="start" x="128.0034" y="-2046.8" font-family="Times,serif" font-size="14.00" fill="#000000">Size:</text>
<polygon fill="none" stroke="#000000" points="196,-2041 196,-2061 308,-2061 308,-2041 196,-2041"/>
<text text-anchor="start" x="231" y="-2046.8" font-family="Times,serif" font-size="14.00" fill="#000000"> 44944 </text>
<polygon fill="none" stroke="#000000" points="90,-2019 90,-2039 194,-2039 194,-2019 90,-2019"/>
<text text-anchor="start" x="124.1069" y="-2024.8" font-family="Times,serif" font-size="14.00" fill="#000000">Rows:</text>
<polygon fill="none" stroke="#000000" points="196,-2019 196,-2039 308,-2039 308,-2019 196,-2019"/>
<text text-anchor="start" x="234.5" y="-2024.8" font-family="Times,serif" font-size="14.00" fill="#000000"> 2809 </text>
<polygon fill="none" stroke="#000000" points="87,-2016 87,-2086 311,-2086 311,-2016 87,-2016"/>
</g>
<!-- Map_5_5&#45;&gt;Map_5_6 -->
<g id="edge6" class="edge">
<title>Map_5_5&#45;&gt;Map_5_6</title>
<path fill="none" stroke="#000000" d="M227.3127,-2164.9958C222.3961,-2145.2002 216.3743,-2120.9543 211.1501,-2099.9202"/>
<polygon fill="#000000" stroke="#000000" points="214.5429,-2099.0602 208.7356,-2090.1987 207.7493,-2100.7476 214.5429,-2099.0602"/>
</g>
<!-- Map_1_0 -->
<g id="Map_1_0" class="node">
<title>Map_1_0</title>
<polygon fill="none" stroke="#000000" points="249,-1915 249,-1935 396,-1935 396,-1915 249,-1915"/>
<text text-anchor="start" x="293.4473" y="-1921.8" font-family="Times,serif" font-weight="bold" font-size="14.00" fill="#000000">TableScan</text>
<polygon fill="none" stroke="#000000" points="249,-1893 249,-1913 290,-1913 290,-1893 249,-1893"/>
<text text-anchor="start" x="255.5034" y="-1898.8" font-family="Times,serif" font-size="14.00" fill="#000000">Size:</text>
<polygon fill="none" stroke="#000000" points="292,-1893 292,-1913 396,-1913 396,-1893 292,-1893"/>
<text text-anchor="start" x="295" y="-1898.8" font-family="Times,serif" font-size="14.00" fill="#000000"> 6574379343904 </text>
<polygon fill="none" stroke="#000000" points="249,-1871 249,-1891 290,-1891 290,-1871 249,-1871"/>
<text text-anchor="start" x="251.6069" y="-1876.8" font-family="Times,serif" font-size="14.00" fill="#000000">Rows:</text>
<polygon fill="none" stroke="#000000" points="292,-1871 292,-1891 396,-1891 396,-1871 292,-1871"/>
<text text-anchor="start" x="298.5" y="-1876.8" font-family="Times,serif" font-size="14.00" fill="#000000"> 275035746821 </text>
<polygon fill="none" stroke="#000000" points="249,-1849 249,-1869 290,-1869 290,-1849 249,-1849"/>
<text text-anchor="start" x="254.7275" y="-1854.8" font-family="Times,serif" font-size="14.00" fill="#000000">alias:</text>
<polygon fill="none" stroke="#000000" points="292,-1849 292,-1869 396,-1869 396,-1849 292,-1849"/>
<text text-anchor="start" x="307.5713" y="-1854.8" font-family="Times,serif" font-size="14.00" fill="#000000">&quot;store_sales&quot;</text>
<polygon fill="none" stroke="#000000" points="245.5,-1846 245.5,-1938 398.5,-1938 398.5,-1846 245.5,-1846"/>
</g>
<!-- Map_5_6&#45;&gt;Map_1_0 -->
<g id="edge22" class="edge">
<title>Map_5_6&#45;&gt;Map_1_0</title>
<path fill="none" stroke="#000000" d="M224.3151,-2011.7511C231.3872,-2001.2679 239.2352,-1990.0608 246.8828,-1980 254.3643,-1970.1579 262.5902,-1959.9617 270.7702,-1950.1507"/>
<polygon fill="#000000" stroke="#000000" points="273.5481,-1952.2853 277.3054,-1942.3791 268.1906,-1947.7801 273.5481,-1952.2853"/>
<text text-anchor="middle" x="310.5586" y="-1982.8" font-family="Times,serif" font-size="14.00" fill="#000000">BROADCAST_EDGE</text>
</g>
<!-- Map_4_0 -->
<g id="Map_4_0" class="node">
<title>Map_4_0</title>
<polygon fill="none" stroke="#000000" points="371,-2544 371,-2564 483,-2564 483,-2544 371,-2544"/>
<text text-anchor="start" x="397.9473" y="-2550.8" font-family="Times,serif" font-weight="bold" font-size="14.00" fill="#000000">TableScan</text>
<polygon fill="none" stroke="#000000" points="371,-2522 371,-2542 412,-2542 412,-2522 371,-2522"/>
<text text-anchor="start" x="377.5034" y="-2527.8" font-family="Times,serif" font-size="14.00" fill="#000000">Size:</text>
<polygon fill="none" stroke="#000000" points="414,-2522 414,-2542 483,-2542 483,-2522 414,-2522"/>
<text text-anchor="start" x="417" y="-2527.8" font-family="Times,serif" font-size="14.00" fill="#000000"> 58222032 </text>
<polygon fill="none" stroke="#000000" points="371,-2500 371,-2520 412,-2520 412,-2500 371,-2500"/>
<text text-anchor="start" x="373.6069" y="-2505.8" font-family="Times,serif" font-size="14.00" fill="#000000">Rows:</text>
<polygon fill="none" stroke="#000000" points="414,-2500 414,-2520 483,-2520 483,-2500 414,-2500"/>
<text text-anchor="start" x="424" y="-2505.8" font-family="Times,serif" font-size="14.00" fill="#000000"> 502000 </text>
<polygon fill="none" stroke="#000000" points="371,-2478 371,-2498 412,-2498 412,-2478 371,-2478"/>
<text text-anchor="start" x="376.7275" y="-2483.8" font-family="Times,serif" font-size="14.00" fill="#000000">alias:</text>
<polygon fill="none" stroke="#000000" points="414,-2478 414,-2498 483,-2498 483,-2478 414,-2478"/>
<text text-anchor="start" x="430.3438" y="-2483.8" font-family="Times,serif" font-size="14.00" fill="#000000">&quot;item&quot;</text>
<polygon fill="none" stroke="#000000" points="368,-2475 368,-2567 486,-2567 486,-2475 368,-2475"/>
</g>
<!-- Map_4_1 -->
<g id="Map_4_1" class="node">
<title>Map_4_1</title>
<polygon fill="none" stroke="#000000" points="382,-2369 382,-2389 473,-2389 473,-2369 382,-2369"/>
<text text-anchor="start" x="385.7085" y="-2375.8" font-family="Times,serif" font-weight="bold" font-size="14.00" fill="#000000">Filter Operator</text>
<polygon fill="none" stroke="#000000" points="382,-2347 382,-2367 423,-2367 423,-2347 382,-2347"/>
<text text-anchor="start" x="388.5034" y="-2352.8" font-family="Times,serif" font-size="14.00" fill="#000000">Size:</text>
<polygon fill="none" stroke="#000000" points="425,-2347 425,-2367 473,-2367 473,-2347 425,-2347"/>
<text text-anchor="start" x="428" y="-2352.8" font-family="Times,serif" font-size="14.00" fill="#000000"> 84208 </text>
<polygon fill="none" stroke="#000000" points="382,-2325 382,-2345 423,-2345 423,-2325 382,-2325"/>
<text text-anchor="start" x="384.6069" y="-2330.8" font-family="Times,serif" font-size="14.00" fill="#000000">Rows:</text>
<polygon fill="none" stroke="#000000" points="425,-2325 425,-2345 473,-2345 473,-2325 425,-2325"/>
<text text-anchor="start" x="435" y="-2330.8" font-family="Times,serif" font-size="14.00" fill="#000000"> 726 </text>
<polygon fill="none" stroke="#000000" points="378.5,-2322 378.5,-2392 475.5,-2392 475.5,-2322 378.5,-2322"/>
</g>
<!-- Map_4_0&#45;&gt;Map_4_1 -->
<g id="edge7" class="edge">
<title>Map_4_0&#45;&gt;Map_4_1</title>
<path fill="none" stroke="#000000" d="M427,-2470.9035C427,-2450.3547 427,-2426.6392 427,-2406.1856"/>
<polygon fill="#000000" stroke="#000000" points="430.5001,-2406.129 427,-2396.129 423.5001,-2406.1291 430.5001,-2406.129"/>
</g>
<!-- Map_4_2 -->
<g id="Map_4_2" class="node">
<title>Map_4_2</title>
<polygon fill="none" stroke="#000000" points="380,-2216 380,-2236 475,-2236 475,-2216 380,-2216"/>
<text text-anchor="start" x="383.7705" y="-2222.8" font-family="Times,serif" font-weight="bold" font-size="14.00" fill="#000000">Select Operator</text>
<polygon fill="none" stroke="#000000" points="380,-2194 380,-2214 423,-2214 423,-2194 380,-2194"/>
<text text-anchor="start" x="387.5034" y="-2199.8" font-family="Times,serif" font-size="14.00" fill="#000000">Size:</text>
<polygon fill="none" stroke="#000000" points="425,-2194 425,-2214 475,-2214 475,-2194 425,-2194"/>
<text text-anchor="start" x="429" y="-2199.8" font-family="Times,serif" font-size="14.00" fill="#000000"> 84212 </text>
<polygon fill="none" stroke="#000000" points="380,-2172 380,-2192 423,-2192 423,-2172 380,-2172"/>
<text text-anchor="start" x="383.6069" y="-2177.8" font-family="Times,serif" font-size="14.00" fill="#000000">Rows:</text>
<polygon fill="none" stroke="#000000" points="425,-2172 425,-2192 475,-2192 475,-2172 425,-2172"/>
<text text-anchor="start" x="436" y="-2177.8" font-family="Times,serif" font-size="14.00" fill="#000000"> 726 </text>
<polygon fill="none" stroke="#000000" points="376.5,-2169 376.5,-2239 477.5,-2239 477.5,-2169 376.5,-2169"/>
</g>
<!-- Map_4_1&#45;&gt;Map_4_2 -->
<g id="edge8" class="edge">
<title>Map_4_1&#45;&gt;Map_4_2</title>
<path fill="none" stroke="#000000" d="M427,-2317.9958C427,-2298.2897 427,-2274.1737 427,-2253.206"/>
<polygon fill="#000000" stroke="#000000" points="430.5001,-2253.1987 427,-2243.1987 423.5001,-2253.1988 430.5001,-2253.1987"/>
</g>
<!-- Map_4_3 -->
<g id="Map_4_3" class="node">
<title>Map_4_3</title>
<polygon fill="none" stroke="#000000" points="355,-2063 355,-2083 500,-2083 500,-2063 355,-2063"/>
<text text-anchor="start" x="358.6895" y="-2069.8" font-family="Times,serif" font-weight="bold" font-size="14.00" fill="#000000">Reduce Output Operator</text>
<polygon fill="none" stroke="#000000" points="355,-2041 355,-2061 423,-2061 423,-2041 355,-2041"/>
<text text-anchor="start" x="375.0034" y="-2046.8" font-family="Times,serif" font-size="14.00" fill="#000000">Size:</text>
<polygon fill="none" stroke="#000000" points="425,-2041 425,-2061 500,-2061 500,-2041 425,-2041"/>
<text text-anchor="start" x="441.5" y="-2046.8" font-family="Times,serif" font-size="14.00" fill="#000000"> 84212 </text>
<polygon fill="none" stroke="#000000" points="355,-2019 355,-2039 423,-2039 423,-2019 355,-2019"/>
<text text-anchor="start" x="371.1069" y="-2024.8" font-family="Times,serif" font-size="14.00" fill="#000000">Rows:</text>
<polygon fill="none" stroke="#000000" points="425,-2019 425,-2039 500,-2039 500,-2019 425,-2019"/>
<text text-anchor="start" x="448.5" y="-2024.8" font-family="Times,serif" font-size="14.00" fill="#000000"> 726 </text>
<polygon fill="none" stroke="#000000" points="351.5,-2016 351.5,-2086 502.5,-2086 502.5,-2016 351.5,-2016"/>
</g>
<!-- Map_4_2&#45;&gt;Map_4_3 -->
<g id="edge9" class="edge">
<title>Map_4_2&#45;&gt;Map_4_3</title>
<path fill="none" stroke="#000000" d="M427,-2164.9958C427,-2145.2897 427,-2121.1737 427,-2100.206"/>
<polygon fill="#000000" stroke="#000000" points="430.5001,-2100.1987 427,-2090.1987 423.5001,-2100.1988 430.5001,-2100.1987"/>
</g>
<!-- Map_4_3&#45;&gt;Map_1_0 -->
<g id="edge21" class="edge">
<title>Map_4_3&#45;&gt;Map_1_0</title>
<path fill="none" stroke="#000000" d="M401.0449,-2011.6966C388.9294,-1993.3502 374.2544,-1971.1281 360.854,-1950.836"/>
<polygon fill="#000000" stroke="#000000" points="363.6314,-1948.6904 355.2001,-1942.2745 357.7902,-1952.5479 363.6314,-1948.6904"/>
<text text-anchor="middle" x="450.5586" y="-1982.8" font-family="Times,serif" font-size="14.00" fill="#000000">BROADCAST_EDGE</text>
</g>
<!-- Reducer_3_0 -->
<g id="Reducer_3_0" class="node">
<title>Reducer_3_0</title>
<polygon fill="none" stroke="#000000" points="275,-373 275,-393 370,-393 370,-373 275,-373"/>
<text text-anchor="start" x="278.7705" y="-379.8" font-family="Times,serif" font-weight="bold" font-size="14.00" fill="#000000">Select Operator</text>
<polygon fill="none" stroke="#000000" points="275,-351 275,-371 321,-371 321,-351 275,-351"/>
<text text-anchor="start" x="284.0034" y="-356.8" font-family="Times,serif" font-size="14.00" fill="#000000">Size:</text>
<polygon fill="none" stroke="#000000" points="323,-351 323,-371 370,-371 370,-351 323,-351"/>
<text text-anchor="start" x="329" y="-356.8" font-family="Times,serif" font-size="14.00" fill="#000000"> 1044 </text>
<polygon fill="none" stroke="#000000" points="275,-329 275,-349 321,-349 321,-329 275,-329"/>
<text text-anchor="start" x="280.1069" y="-334.8" font-family="Times,serif" font-size="14.00" fill="#000000">Rows:</text>
<polygon fill="none" stroke="#000000" points="323,-329 323,-349 370,-349 370,-329 323,-329"/>
<text text-anchor="start" x="339.5" y="-334.8" font-family="Times,serif" font-size="14.00" fill="#000000"> 9 </text>
<polygon fill="none" stroke="#000000" points="271.5,-326 271.5,-396 372.5,-396 372.5,-326 271.5,-326"/>
</g>
<!-- Reducer_3_1 -->
<g id="Reducer_3_1" class="node">
<title>Reducer_3_1</title>
<polygon fill="none" stroke="#000000" points="280,-220 280,-240 364,-240 364,-220 280,-220"/>
<text text-anchor="start" x="306.4448" y="-226.8" font-family="Times,serif" font-weight="bold" font-size="14.00" fill="#000000">Limit</text>
<polygon fill="none" stroke="#000000" points="280,-198 280,-218 321,-218 321,-198 280,-198"/>
<text text-anchor="start" x="286.5034" y="-203.8" font-family="Times,serif" font-size="14.00" fill="#000000">Size:</text>
<polygon fill="none" stroke="#000000" points="323,-198 323,-218 364,-218 364,-198 323,-198"/>
<text text-anchor="start" x="326" y="-203.8" font-family="Times,serif" font-size="14.00" fill="#000000"> 1044 </text>
<polygon fill="none" stroke="#000000" points="280,-176 280,-196 321,-196 321,-176 280,-176"/>
<text text-anchor="start" x="282.6069" y="-181.8" font-family="Times,serif" font-size="14.00" fill="#000000">Rows:</text>
<polygon fill="none" stroke="#000000" points="323,-176 323,-196 364,-196 364,-176 323,-176"/>
<text text-anchor="start" x="336.5" y="-181.8" font-family="Times,serif" font-size="14.00" fill="#000000"> 9 </text>
<polygon fill="none" stroke="#000000" points="277,-173 277,-243 367,-243 367,-173 277,-173"/>
</g>
<!-- Reducer_3_0&#45;&gt;Reducer_3_1 -->
<g id="edge10" class="edge">
<title>Reducer_3_0&#45;&gt;Reducer_3_1</title>
<path fill="none" stroke="#000000" d="M322,-321.9958C322,-302.2897 322,-278.1737 322,-257.206"/>
<polygon fill="#000000" stroke="#000000" points="325.5001,-257.1987 322,-247.1987 318.5001,-257.1988 325.5001,-257.1987"/>
</g>
<!-- Reducer_3_2 -->
<g id="Reducer_3_2" class="node">
<title>Reducer_3_2</title>
<polygon fill="none" stroke="#000000" points="260,-67 260,-87 385,-87 385,-67 260,-67"/>
<text text-anchor="start" x="263.7896" y="-73.8" font-family="Times,serif" font-weight="bold" font-size="14.00" fill="#000000">File Output Operator</text>
<polygon fill="none" stroke="#000000" points="260,-45 260,-65 321,-65 321,-45 260,-45"/>
<text text-anchor="start" x="276.5034" y="-50.8" font-family="Times,serif" font-size="14.00" fill="#000000">Size:</text>
<polygon fill="none" stroke="#000000" points="323,-45 323,-65 385,-65 385,-45 323,-45"/>
<text text-anchor="start" x="336.5" y="-50.8" font-family="Times,serif" font-size="14.00" fill="#000000"> 1044 </text>
<polygon fill="none" stroke="#000000" points="260,-23 260,-43 321,-43 321,-23 260,-23"/>
<text text-anchor="start" x="272.6069" y="-28.8" font-family="Times,serif" font-size="14.00" fill="#000000">Rows:</text>
<polygon fill="none" stroke="#000000" points="323,-23 323,-43 385,-43 385,-23 323,-23"/>
<text text-anchor="start" x="347" y="-28.8" font-family="Times,serif" font-size="14.00" fill="#000000"> 9 </text>
<polygon fill="none" stroke="#000000" points="256.5,-20 256.5,-90 387.5,-90 387.5,-20 256.5,-20"/>
</g>
<!-- Reducer_3_1&#45;&gt;Reducer_3_2 -->
<g id="edge11" class="edge">
<title>Reducer_3_1&#45;&gt;Reducer_3_2</title>
<path fill="none" stroke="#000000" d="M322,-168.9958C322,-149.2897 322,-125.1737 322,-104.206"/>
<polygon fill="#000000" stroke="#000000" points="325.5001,-104.1987 322,-94.1987 318.5001,-104.1988 325.5001,-104.1987"/>
</g>
<!-- Map_1_1 -->
<g id="Map_1_1" class="node">
<title>Map_1_1</title>
<polygon fill="none" stroke="#000000" points="249,-1740 249,-1760 396,-1760 396,-1740 249,-1740"/>
<text text-anchor="start" x="280.7085" y="-1746.8" font-family="Times,serif" font-weight="bold" font-size="14.00" fill="#000000">Filter Operator</text>
<polygon fill="none" stroke="#000000" points="249,-1718 249,-1738 290,-1738 290,-1718 249,-1718"/>
<text text-anchor="start" x="255.5034" y="-1723.8" font-family="Times,serif" font-size="14.00" fill="#000000">Size:</text>
<polygon fill="none" stroke="#000000" points="292,-1718 292,-1738 396,-1738 396,-1718 292,-1718"/>
<text text-anchor="start" x="295" y="-1723.8" font-family="Times,serif" font-size="14.00" fill="#000000"> 6574379343904 </text>
<polygon fill="none" stroke="#000000" points="249,-1696 249,-1716 290,-1716 290,-1696 249,-1696"/>
<text text-anchor="start" x="251.6069" y="-1701.8" font-family="Times,serif" font-size="14.00" fill="#000000">Rows:</text>
<polygon fill="none" stroke="#000000" points="292,-1696 292,-1716 396,-1716 396,-1696 292,-1696"/>
<text text-anchor="start" x="298.5" y="-1701.8" font-family="Times,serif" font-size="14.00" fill="#000000"> 275035746821 </text>
<polygon fill="none" stroke="#000000" points="245.5,-1693 245.5,-1763 398.5,-1763 398.5,-1693 245.5,-1693"/>
</g>
<!-- Map_1_0&#45;&gt;Map_1_1 -->
<g id="edge12" class="edge">
<title>Map_1_0&#45;&gt;Map_1_1</title>
<path fill="none" stroke="#000000" d="M322,-1841.9035C322,-1821.3547 322,-1797.6392 322,-1777.1856"/>
<polygon fill="#000000" stroke="#000000" points="325.5001,-1777.129 322,-1767.129 318.5001,-1777.1291 325.5001,-1777.129"/>
</g>
<!-- Map_1_2 -->
<g id="Map_1_2" class="node">
<title>Map_1_2</title>
<polygon fill="none" stroke="#000000" points="249,-1587 249,-1607 396,-1607 396,-1587 249,-1587"/>
<text text-anchor="start" x="278.7705" y="-1593.8" font-family="Times,serif" font-weight="bold" font-size="14.00" fill="#000000">Select Operator</text>
<polygon fill="none" stroke="#000000" points="249,-1565 249,-1585 290,-1585 290,-1565 249,-1565"/>
<text text-anchor="start" x="255.5034" y="-1570.8" font-family="Times,serif" font-size="14.00" fill="#000000">Size:</text>
<polygon fill="none" stroke="#000000" points="292,-1565 292,-1585 396,-1585 396,-1565 292,-1565"/>
<text text-anchor="start" x="295" y="-1570.8" font-family="Times,serif" font-size="14.00" fill="#000000"> 6574379343904 </text>
<polygon fill="none" stroke="#000000" points="249,-1543 249,-1563 290,-1563 290,-1543 249,-1543"/>
<text text-anchor="start" x="251.6069" y="-1548.8" font-family="Times,serif" font-size="14.00" fill="#000000">Rows:</text>
<polygon fill="none" stroke="#000000" points="292,-1543 292,-1563 396,-1563 396,-1543 292,-1543"/>
<text text-anchor="start" x="298.5" y="-1548.8" font-family="Times,serif" font-size="14.00" fill="#000000"> 275035746821 </text>
<polygon fill="none" stroke="#000000" points="245.5,-1540 245.5,-1610 398.5,-1610 398.5,-1540 245.5,-1540"/>
</g>
<!-- Map_1_1&#45;&gt;Map_1_2 -->
<g id="edge13" class="edge">
<title>Map_1_1&#45;&gt;Map_1_2</title>
<path fill="none" stroke="#000000" d="M322,-1688.9958C322,-1669.2897 322,-1645.1737 322,-1624.206"/>
<polygon fill="#000000" stroke="#000000" points="325.5001,-1624.1987 322,-1614.1987 318.5001,-1624.1988 325.5001,-1624.1987"/>
</g>
<!-- Map_1_3 -->
<g id="Map_1_3" class="node">
<title>Map_1_3</title>
<polygon fill="none" stroke="#000000" points="256,-1434 256,-1454 389,-1454 389,-1434 256,-1434"/>
<text text-anchor="start" x="269.624" y="-1440.8" font-family="Times,serif" font-weight="bold" font-size="14.00" fill="#000000">Map Join Operator</text>
<polygon fill="none" stroke="#000000" points="256,-1412 256,-1432 297,-1432 297,-1412 256,-1412"/>
<text text-anchor="start" x="262.5034" y="-1417.8" font-family="Times,serif" font-size="14.00" fill="#000000">Size:</text>
<polygon fill="none" stroke="#000000" points="299,-1412 299,-1432 389,-1432 389,-1412 299,-1412"/>
<text text-anchor="start" x="302" y="-1417.8" font-family="Times,serif" font-size="14.00" fill="#000000"> 47731301640 </text>
<polygon fill="none" stroke="#000000" points="256,-1390 256,-1410 297,-1410 297,-1390 256,-1390"/>
<text text-anchor="start" x="258.6069" y="-1395.8" font-family="Times,serif" font-size="14.00" fill="#000000">Rows:</text>
<polygon fill="none" stroke="#000000" points="299,-1390 299,-1410 389,-1410 389,-1390 299,-1390"/>
<text text-anchor="start" x="309" y="-1395.8" font-family="Times,serif" font-size="14.00" fill="#000000"> 397760847 </text>
<polygon fill="none" stroke="#000000" points="252.5,-1387 252.5,-1457 391.5,-1457 391.5,-1387 252.5,-1387"/>
</g>
<!-- Map_1_2&#45;&gt;Map_1_3 -->
<g id="edge14" class="edge">
<title>Map_1_2&#45;&gt;Map_1_3</title>
<path fill="none" stroke="#000000" d="M322,-1535.9958C322,-1516.2897 322,-1492.1737 322,-1471.206"/>
<polygon fill="#000000" stroke="#000000" points="325.5001,-1471.1987 322,-1461.1987 318.5001,-1471.1988 325.5001,-1471.1987"/>
</g>
<!-- Map_1_4 -->
<g id="Map_1_4" class="node">
<title>Map_1_4</title>
<polygon fill="none" stroke="#000000" points="259,-1281 259,-1301 385,-1301 385,-1281 259,-1281"/>
<text text-anchor="start" x="269.124" y="-1287.8" font-family="Times,serif" font-weight="bold" font-size="14.00" fill="#000000">Map Join Operator</text>
<polygon fill="none" stroke="#000000" points="259,-1259 259,-1279 300,-1279 300,-1259 259,-1259"/>
<text text-anchor="start" x="265.5034" y="-1264.8" font-family="Times,serif" font-size="14.00" fill="#000000">Size:</text>
<polygon fill="none" stroke="#000000" points="302,-1259 302,-1279 385,-1279 385,-1259 302,-1259"/>
<text text-anchor="start" x="305" y="-1264.8" font-family="Times,serif" font-size="14.00" fill="#000000"> 3549153516 </text>
<polygon fill="none" stroke="#000000" points="259,-1237 259,-1257 300,-1257 300,-1237 259,-1237"/>
<text text-anchor="start" x="261.6069" y="-1242.8" font-family="Times,serif" font-size="14.00" fill="#000000">Rows:</text>
<polygon fill="none" stroke="#000000" points="302,-1237 302,-1257 385,-1257 385,-1237 302,-1237"/>
<text text-anchor="start" x="312" y="-1242.8" font-family="Times,serif" font-size="14.00" fill="#000000"> 30596151 </text>
<polygon fill="none" stroke="#000000" points="256,-1234 256,-1304 388,-1304 388,-1234 256,-1234"/>
</g>
<!-- Map_1_3&#45;&gt;Map_1_4 -->
<g id="edge15" class="edge">
<title>Map_1_3&#45;&gt;Map_1_4</title>
<path fill="none" stroke="#000000" d="M322,-1382.9958C322,-1363.2897 322,-1339.1737 322,-1318.206"/>
<polygon fill="#000000" stroke="#000000" points="325.5001,-1318.1987 322,-1308.1987 318.5001,-1318.1988 325.5001,-1318.1987"/>
</g>
<!-- Map_1_5 -->
<g id="Map_1_5" class="node">
<title>Map_1_5</title>
<polygon fill="none" stroke="#000000" points="259,-1128 259,-1148 385,-1148 385,-1128 259,-1128"/>
<text text-anchor="start" x="278.2705" y="-1134.8" font-family="Times,serif" font-weight="bold" font-size="14.00" fill="#000000">Select Operator</text>
<polygon fill="none" stroke="#000000" points="259,-1106 259,-1126 300,-1126 300,-1106 259,-1106"/>
<text text-anchor="start" x="265.5034" y="-1111.8" font-family="Times,serif" font-size="14.00" fill="#000000">Size:</text>
<polygon fill="none" stroke="#000000" points="302,-1106 302,-1126 385,-1126 385,-1106 302,-1106"/>
<text text-anchor="start" x="305" y="-1111.8" font-family="Times,serif" font-size="14.00" fill="#000000"> 3549153516 </text>
<polygon fill="none" stroke="#000000" points="259,-1084 259,-1104 300,-1104 300,-1084 259,-1084"/>
<text text-anchor="start" x="261.6069" y="-1089.8" font-family="Times,serif" font-size="14.00" fill="#000000">Rows:</text>
<polygon fill="none" stroke="#000000" points="302,-1084 302,-1104 385,-1104 385,-1084 302,-1084"/>
<text text-anchor="start" x="312" y="-1089.8" font-family="Times,serif" font-size="14.00" fill="#000000"> 30596151 </text>
<polygon fill="none" stroke="#000000" points="256,-1081 256,-1151 388,-1151 388,-1081 256,-1081"/>
</g>
<!-- Map_1_4&#45;&gt;Map_1_5 -->
<g id="edge16" class="edge">
<title>Map_1_4&#45;&gt;Map_1_5</title>
<path fill="none" stroke="#000000" d="M322,-1229.9958C322,-1210.2897 322,-1186.1737 322,-1165.206"/>
<polygon fill="#000000" stroke="#000000" points="325.5001,-1165.1987 322,-1155.1987 318.5001,-1165.1988 325.5001,-1165.1987"/>
</g>
<!-- Map_1_6 -->
<g id="Map_1_6" class="node">
<title>Map_1_6</title>
<polygon fill="none" stroke="#000000" points="264,-975 264,-995 380,-995 380,-975 264,-975"/>
<text text-anchor="start" x="267.5688" y="-981.8" font-family="Times,serif" font-weight="bold" font-size="14.00" fill="#000000">Group By Operator</text>
<polygon fill="none" stroke="#000000" points="264,-953 264,-973 317,-973 317,-953 264,-953"/>
<text text-anchor="start" x="276.5034" y="-958.8" font-family="Times,serif" font-size="14.00" fill="#000000">Size:</text>
<polygon fill="none" stroke="#000000" points="319,-953 319,-973 380,-973 380,-953 319,-953"/>
<text text-anchor="start" x="328.5" y="-958.8" font-family="Times,serif" font-size="14.00" fill="#000000"> 55332 </text>
<polygon fill="none" stroke="#000000" points="264,-931 264,-951 317,-951 317,-931 264,-931"/>
<text text-anchor="start" x="272.6069" y="-936.8" font-family="Times,serif" font-size="14.00" fill="#000000">Rows:</text>
<polygon fill="none" stroke="#000000" points="319,-931 319,-951 380,-951 380,-931 319,-931"/>
<text text-anchor="start" x="335.5" y="-936.8" font-family="Times,serif" font-size="14.00" fill="#000000"> 477 </text>
<polygon fill="none" stroke="#000000" points="261,-928 261,-998 383,-998 383,-928 261,-928"/>
</g>
<!-- Map_1_5&#45;&gt;Map_1_6 -->
<g id="edge17" class="edge">
<title>Map_1_5&#45;&gt;Map_1_6</title>
<path fill="none" stroke="#000000" d="M322,-1076.9958C322,-1057.2897 322,-1033.1737 322,-1012.206"/>
<polygon fill="#000000" stroke="#000000" points="325.5001,-1012.1987 322,-1002.1987 318.5001,-1012.1988 325.5001,-1012.1987"/>
</g>
<!-- Map_1_7 -->
<g id="Map_1_7" class="node">
<title>Map_1_7</title>
<polygon fill="none" stroke="#000000" points="250,-822 250,-842 395,-842 395,-822 250,-822"/>
<text text-anchor="start" x="253.6895" y="-828.8" font-family="Times,serif" font-weight="bold" font-size="14.00" fill="#000000">Reduce Output Operator</text>
<polygon fill="none" stroke="#000000" points="250,-800 250,-820 318,-820 318,-800 250,-800"/>
<text text-anchor="start" x="270.0034" y="-805.8" font-family="Times,serif" font-size="14.00" fill="#000000">Size:</text>
<polygon fill="none" stroke="#000000" points="320,-800 320,-820 395,-820 395,-800 320,-800"/>
<text text-anchor="start" x="336.5" y="-805.8" font-family="Times,serif" font-size="14.00" fill="#000000"> 55332 </text>
<polygon fill="none" stroke="#000000" points="250,-778 250,-798 318,-798 318,-778 250,-778"/>
<text text-anchor="start" x="266.1069" y="-783.8" font-family="Times,serif" font-size="14.00" fill="#000000">Rows:</text>
<polygon fill="none" stroke="#000000" points="320,-778 320,-798 395,-798 395,-778 320,-778"/>
<text text-anchor="start" x="343.5" y="-783.8" font-family="Times,serif" font-size="14.00" fill="#000000"> 477 </text>
<polygon fill="none" stroke="#000000" points="246.5,-775 246.5,-845 397.5,-845 397.5,-775 246.5,-775"/>
</g>
<!-- Map_1_6&#45;&gt;Map_1_7 -->
<g id="edge18" class="edge">
<title>Map_1_6&#45;&gt;Map_1_7</title>
<path fill="none" stroke="#000000" d="M322,-923.9958C322,-904.2897 322,-880.1737 322,-859.206"/>
<polygon fill="#000000" stroke="#000000" points="325.5001,-859.1987 322,-849.1987 318.5001,-859.1988 325.5001,-859.1987"/>
</g>
<!-- Reducer_2_0 -->
<g id="Reducer_2_0" class="node">
<title>Reducer_2_0</title>
<polygon fill="none" stroke="#000000" points="264,-674 264,-694 380,-694 380,-674 264,-674"/>
<text text-anchor="start" x="267.5688" y="-680.8" font-family="Times,serif" font-weight="bold" font-size="14.00" fill="#000000">Group By Operator</text>
<polygon fill="none" stroke="#000000" points="264,-652 264,-672 321,-672 321,-652 264,-652"/>
<text text-anchor="start" x="278.5034" y="-657.8" font-family="Times,serif" font-size="14.00" fill="#000000">Size:</text>
<polygon fill="none" stroke="#000000" points="323,-652 323,-672 380,-672 380,-652 323,-652"/>
<text text-anchor="start" x="334" y="-657.8" font-family="Times,serif" font-size="14.00" fill="#000000"> 1044 </text>
<polygon fill="none" stroke="#000000" points="264,-630 264,-650 321,-650 321,-630 264,-630"/>
<text text-anchor="start" x="274.6069" y="-635.8" font-family="Times,serif" font-size="14.00" fill="#000000">Rows:</text>
<polygon fill="none" stroke="#000000" points="323,-630 323,-650 380,-650 380,-630 323,-630"/>
<text text-anchor="start" x="344.5" y="-635.8" font-family="Times,serif" font-size="14.00" fill="#000000"> 9 </text>
<polygon fill="none" stroke="#000000" points="261,-627 261,-697 383,-697 383,-627 261,-627"/>
</g>
<!-- Map_1_7&#45;&gt;Reducer_2_0 -->
<g id="edge23" class="edge">
<title>Map_1_7&#45;&gt;Reducer_2_0</title>
<path fill="none" stroke="#000000" d="M322,-770.7273C322,-752.5072 322,-730.6546 322,-711.3347"/>
<polygon fill="#000000" stroke="#000000" points="325.5001,-711.1992 322,-701.1992 318.5001,-711.1993 325.5001,-711.1992"/>
<text text-anchor="middle" x="369.0552" y="-741.8" font-family="Times,serif" font-size="14.00" fill="#000000">SIMPLE_EDGE</text>
</g>
<!-- Reducer_2_1 -->
<g id="Reducer_2_1" class="node">
<title>Reducer_2_1</title>
<polygon fill="none" stroke="#000000" points="250,-521 250,-541 395,-541 395,-521 250,-521"/>
<text text-anchor="start" x="253.6895" y="-527.8" font-family="Times,serif" font-weight="bold" font-size="14.00" fill="#000000">Reduce Output Operator</text>
<polygon fill="none" stroke="#000000" points="250,-499 250,-519 321,-519 321,-499 250,-499"/>
<text text-anchor="start" x="271.5034" y="-504.8" font-family="Times,serif" font-size="14.00" fill="#000000">Size:</text>
<polygon fill="none" stroke="#000000" points="323,-499 323,-519 395,-519 395,-499 323,-499"/>
<text text-anchor="start" x="341.5" y="-504.8" font-family="Times,serif" font-size="14.00" fill="#000000"> 1044 </text>
<polygon fill="none" stroke="#000000" points="250,-477 250,-497 321,-497 321,-477 250,-477"/>
<text text-anchor="start" x="267.6069" y="-482.8" font-family="Times,serif" font-size="14.00" fill="#000000">Rows:</text>
<polygon fill="none" stroke="#000000" points="323,-477 323,-497 395,-497 395,-477 323,-477"/>
<text text-anchor="start" x="352" y="-482.8" font-family="Times,serif" font-size="14.00" fill="#000000"> 9 </text>
<polygon fill="none" stroke="#000000" points="246.5,-474 246.5,-544 397.5,-544 397.5,-474 246.5,-474"/>
</g>
<!-- Reducer_2_0&#45;&gt;Reducer_2_1 -->
<g id="edge19" class="edge">
<title>Reducer_2_0&#45;&gt;Reducer_2_1</title>
<path fill="none" stroke="#000000" d="M322,-622.9958C322,-603.2897 322,-579.1737 322,-558.206"/>
<polygon fill="#000000" stroke="#000000" points="325.5001,-558.1987 322,-548.1987 318.5001,-558.1988 325.5001,-558.1987"/>
</g>
<!-- Reducer_2_1&#45;&gt;Reducer_3_0 -->
<g id="edge20" class="edge">
<title>Reducer_2_1&#45;&gt;Reducer_3_0</title>
<path fill="none" stroke="#000000" d="M322,-469.7273C322,-451.5072 322,-429.6546 322,-410.3347"/>
<polygon fill="#000000" stroke="#000000" points="325.5001,-410.1992 322,-400.1992 318.5001,-410.1993 325.5001,-410.1992"/>
<text text-anchor="middle" x="369.0552" y="-440.8" font-family="Times,serif" font-size="14.00" fill="#000000">SIMPLE_EDGE</text>
</g>
</g>
</svg>
