<?xml version="1.0" encoding="UTF-8" standalone="no"?>
<!DOCTYPE svg PUBLIC "-//W3C//DTD SVG 1.1//EN"
 "http://www.w3.org/Graphics/SVG/1.1/DTD/svg11.dtd">
<!-- Generated by graphviz version 2.40.1 (20161225.0304)
 -->
<!-- Title: g Pages: 1 -->
<svg width="650pt" height="2617pt"
 viewBox="0.00 0.00 650.00 2617.00" xmlns="http://www.w3.org/2000/svg" xmlns:xlink="http://www.w3.org/1999/xlink">
<g id="graph0" class="graph" transform="scale(1 1) rotate(0) translate(4 2613)">
<title>g</title>
<polygon fill="#ffffff" stroke="transparent" points="-4,4 -4,-2613 646,-2613 646,4 -4,4"/>
<g id="clust1" class="cluster">
<title>cluster_Map_6</title>
<polygon fill="none" stroke="#0000ff" stroke-dasharray="5,2" points="8,-2004 8,-2601 250,-2601 250,-2004 8,-2004"/>
<text text-anchor="middle" x="129" y="-2585.8" font-family="Times,serif" font-size="14.00" fill="#000000">Map 6 (vectorized=true)</text>
</g>
<g id="clust2" class="cluster">
<title>cluster_Map_5</title>
<polygon fill="none" stroke="#0000ff" stroke-dasharray="5,2" points="258,-2004 258,-2601 442,-2601 442,-2004 258,-2004"/>
<text text-anchor="middle" x="350" y="-2585.8" font-family="Times,serif" font-size="14.00" fill="#000000">Map 5 (vectorized=true)</text>
</g>
<g id="clust3" class="cluster">
<title>cluster_Map_4</title>
<polygon fill="none" stroke="#0000ff" stroke-dasharray="5,2" points="450,-2004 450,-2601 634,-2601 634,-2004 450,-2004"/>
<text text-anchor="middle" x="542" y="-2585.8" font-family="Times,serif" font-size="14.00" fill="#000000">Map 4 (vectorized=true)</text>
</g>
<g id="clust4" class="cluster">
<title>cluster_Map_1</title>
<polygon fill="none" stroke="#0000ff" stroke-dasharray="5,2" points="257,-763 257,-1972 443,-1972 443,-763 257,-763"/>
<text text-anchor="middle" x="350" y="-1956.8" font-family="Times,serif" font-size="14.00" fill="#000000">Map 1 (vectorized=true)</text>
</g>
<g id="clust5" class="cluster">
<title>cluster_Reducer_3</title>
<polygon fill="none" stroke="#0000ff" stroke-dasharray="5,2" points="264,-8 264,-430 437,-430 437,-8 264,-8"/>
<text text-anchor="middle" x="350.5" y="-414.8" font-family="Times,serif" font-size="14.00" fill="#000000">Reducer 3 (vectorized=true)</text>
</g>
<g id="clust6" class="cluster">
<title>cluster_Reducer_2</title>
<polygon fill="none" stroke="#0000ff" stroke-dasharray="5,2" points="258,-462 258,-731 442,-731 442,-462 258,-462"/>
<text text-anchor="middle" x="350" y="-715.8" font-family="Times,serif" font-size="14.00" fill="#000000">Reducer 2 (vectorized=true)</text>
</g>
<!-- Map_6_0 -->
<g id="Map_6_0" class="node">
<title>Map_6_0</title>
<polygon fill="none" stroke="#000000" points="28,-2544 28,-2564 231,-2564 231,-2544 28,-2544"/>
<text text-anchor="start" x="100.4473" y="-2550.8" font-family="Times,serif" font-weight="bold" font-size="14.00" fill="#000000">TableScan</text>
<polygon fill="none" stroke="#000000" points="28,-2522 28,-2542 69,-2542 69,-2522 28,-2522"/>
<text text-anchor="start" x="34.5034" y="-2527.8" font-family="Times,serif" font-size="14.00" fill="#000000">Size:</text>
<polygon fill="none" stroke="#000000" points="71,-2522 71,-2542 231,-2542 231,-2522 71,-2522"/>
<text text-anchor="start" x="130" y="-2527.8" font-family="Times,serif" font-size="14.00" fill="#000000"> 86400 </text>
<polygon fill="none" stroke="#000000" points="28,-2500 28,-2520 69,-2520 69,-2500 28,-2500"/>
<text text-anchor="start" x="30.6069" y="-2505.8" font-family="Times,serif" font-size="14.00" fill="#000000">Rows:</text>
<polygon fill="none" stroke="#000000" points="71,-2500 71,-2520 231,-2520 231,-2500 71,-2500"/>
<text text-anchor="start" x="133.5" y="-2505.8" font-family="Times,serif" font-size="14.00" fill="#000000"> 7200 </text>
<polygon fill="none" stroke="#000000" points="28,-2478 28,-2498 69,-2498 69,-2478 28,-2478"/>
<text text-anchor="start" x="33.7275" y="-2483.8" font-family="Times,serif" font-size="14.00" fill="#000000">alias:</text>
<polygon fill="none" stroke="#000000" points="71,-2478 71,-2498 231,-2498 231,-2478 71,-2478"/>
<text text-anchor="start" x="73.7437" y="-2483.8" font-family="Times,serif" font-size="14.00" fill="#000000">&quot;household_demographics&quot;</text>
<polygon fill="none" stroke="#000000" points="24.5,-2475 24.5,-2567 233.5,-2567 233.5,-2475 24.5,-2475"/>
</g>
<!-- Map_6_1 -->
<g id="Map_6_1" class="node">
<title>Map_6_1</title>
<polygon fill="none" stroke="#000000" points="99,-2369 99,-2389 190,-2389 190,-2369 99,-2369"/>
<text text-anchor="start" x="102.7085" y="-2375.8" font-family="Times,serif" font-weight="bold" font-size="14.00" fill="#000000">Filter Operator</text>
<polygon fill="none" stroke="#000000" points="99,-2347 99,-2367 143,-2367 143,-2347 99,-2347"/>
<text text-anchor="start" x="107.0034" y="-2352.8" font-family="Times,serif" font-size="14.00" fill="#000000">Size:</text>
<polygon fill="none" stroke="#000000" points="145,-2347 145,-2367 190,-2367 190,-2347 145,-2347"/>
<text text-anchor="start" x="150" y="-2352.8" font-family="Times,serif" font-size="14.00" fill="#000000"> 7860 </text>
<polygon fill="none" stroke="#000000" points="99,-2325 99,-2345 143,-2345 143,-2325 99,-2325"/>
<text text-anchor="start" x="103.1069" y="-2330.8" font-family="Times,serif" font-size="14.00" fill="#000000">Rows:</text>
<polygon fill="none" stroke="#000000" points="145,-2325 145,-2345 190,-2345 190,-2325 145,-2325"/>
<text text-anchor="start" x="153.5" y="-2330.8" font-family="Times,serif" font-size="14.00" fill="#000000"> 655 </text>
<polygon fill="none" stroke="#000000" points="95.5,-2322 95.5,-2392 192.5,-2392 192.5,-2322 95.5,-2322"/>
</g>
<!-- Map_6_0&#45;&gt;Map_6_1 -->
<g id="edge1" class="edge">
<title>Map_6_0&#45;&gt;Map_6_1</title>
<path fill="none" stroke="#000000" d="M133.582,-2470.9035C135.4615,-2450.3547 137.6306,-2426.6392 139.5013,-2406.1856"/>
<polygon fill="#000000" stroke="#000000" points="142.9957,-2406.4063 140.4211,-2396.129 136.0248,-2405.7686 142.9957,-2406.4063"/>
</g>
<!-- Map_6_2 -->
<g id="Map_6_2" class="node">
<title>Map_6_2</title>
<polygon fill="none" stroke="#000000" points="106,-2216 106,-2236 201,-2236 201,-2216 106,-2216"/>
<text text-anchor="start" x="109.7705" y="-2222.8" font-family="Times,serif" font-weight="bold" font-size="14.00" fill="#000000">Select Operator</text>
<polygon fill="none" stroke="#000000" points="106,-2194 106,-2214 152,-2214 152,-2194 106,-2194"/>
<text text-anchor="start" x="115.0034" y="-2199.8" font-family="Times,serif" font-size="14.00" fill="#000000">Size:</text>
<polygon fill="none" stroke="#000000" points="154,-2194 154,-2214 201,-2214 201,-2194 154,-2194"/>
<text text-anchor="start" x="160" y="-2199.8" font-family="Times,serif" font-size="14.00" fill="#000000"> 7860 </text>
<polygon fill="none" stroke="#000000" points="106,-2172 106,-2192 152,-2192 152,-2172 106,-2172"/>
<text text-anchor="start" x="111.1069" y="-2177.8" font-family="Times,serif" font-size="14.00" fill="#000000">Rows:</text>
<polygon fill="none" stroke="#000000" points="154,-2172 154,-2192 201,-2192 201,-2172 154,-2172"/>
<text text-anchor="start" x="163.5" y="-2177.8" font-family="Times,serif" font-size="14.00" fill="#000000"> 655 </text>
<polygon fill="none" stroke="#000000" points="102.5,-2169 102.5,-2239 203.5,-2239 203.5,-2169 102.5,-2169"/>
</g>
<!-- Map_6_1&#45;&gt;Map_6_2 -->
<g id="edge2" class="edge">
<title>Map_6_1&#45;&gt;Map_6_2</title>
<path fill="none" stroke="#000000" d="M146.2944,-2317.9958C147.4535,-2298.2897 148.8721,-2274.1737 150.1055,-2253.206"/>
<polygon fill="#000000" stroke="#000000" points="153.6008,-2253.387 150.6942,-2243.1987 146.6129,-2252.9759 153.6008,-2253.387"/>
</g>
<!-- Map_6_3 -->
<g id="Map_6_3" class="node">
<title>Map_6_3</title>
<polygon fill="none" stroke="#000000" points="86,-2063 86,-2083 231,-2083 231,-2063 86,-2063"/>
<text text-anchor="start" x="89.6895" y="-2069.8" font-family="Times,serif" font-weight="bold" font-size="14.00" fill="#000000">Reduce Output Operator</text>
<polygon fill="none" stroke="#000000" points="86,-2041 86,-2061 157,-2061 157,-2041 86,-2041"/>
<text text-anchor="start" x="107.5034" y="-2046.8" font-family="Times,serif" font-size="14.00" fill="#000000">Size:</text>
<polygon fill="none" stroke="#000000" points="159,-2041 159,-2061 231,-2061 231,-2041 159,-2041"/>
<text text-anchor="start" x="177.5" y="-2046.8" font-family="Times,serif" font-size="14.00" fill="#000000"> 7860 </text>
<polygon fill="none" stroke="#000000" points="86,-2019 86,-2039 157,-2039 157,-2019 86,-2019"/>
<text text-anchor="start" x="103.6069" y="-2024.8" font-family="Times,serif" font-size="14.00" fill="#000000">Rows:</text>
<polygon fill="none" stroke="#000000" points="159,-2019 159,-2039 231,-2039 231,-2019 159,-2019"/>
<text text-anchor="start" x="181" y="-2024.8" font-family="Times,serif" font-size="14.00" fill="#000000"> 655 </text>
<polygon fill="none" stroke="#000000" points="82.5,-2016 82.5,-2086 233.5,-2086 233.5,-2016 82.5,-2016"/>
</g>
<!-- Map_6_2&#45;&gt;Map_6_3 -->
<g id="edge3" class="edge">
<title>Map_6_2&#45;&gt;Map_6_3</title>
<path fill="none" stroke="#000000" d="M154.2746,-2164.9958C154.9186,-2145.2897 155.7067,-2121.1737 156.392,-2100.206"/>
<polygon fill="#000000" stroke="#000000" points="159.8904,-2100.3078 156.719,-2090.1987 152.8941,-2100.0791 159.8904,-2100.3078"/>
</g>
<!-- Map_1_0 -->
<g id="Map_1_0" class="node">
<title>Map_1_0</title>
<polygon fill="none" stroke="#000000" points="277,-1915 277,-1935 424,-1935 424,-1915 277,-1915"/>
<text text-anchor="start" x="321.4473" y="-1921.8" font-family="Times,serif" font-weight="bold" font-size="14.00" fill="#000000">TableScan</text>
<polygon fill="none" stroke="#000000" points="277,-1893 277,-1913 318,-1913 318,-1893 277,-1893"/>
<text text-anchor="start" x="283.5034" y="-1898.8" font-family="Times,serif" font-size="14.00" fill="#000000">Size:</text>
<polygon fill="none" stroke="#000000" points="320,-1893 320,-1913 424,-1913 424,-1893 320,-1893"/>
<text text-anchor="start" x="323" y="-1898.8" font-family="Times,serif" font-size="14.00" fill="#000000"> 6833012994008 </text>
<polygon fill="none" stroke="#000000" points="277,-1871 277,-1891 318,-1891 318,-1871 277,-1871"/>
<text text-anchor="start" x="279.6069" y="-1876.8" font-family="Times,serif" font-size="14.00" fill="#000000">Rows:</text>
<polygon fill="none" stroke="#000000" points="320,-1871 320,-1891 424,-1891 424,-1871 320,-1871"/>
<text text-anchor="start" x="326.7563" y="-1876.8" font-family="Times,serif" font-size="14.00" fill="#000000"> 288018711538 </text>
<polygon fill="none" stroke="#000000" points="277,-1849 277,-1869 318,-1869 318,-1849 277,-1849"/>
<text text-anchor="start" x="282.7275" y="-1854.8" font-family="Times,serif" font-size="14.00" fill="#000000">alias:</text>
<polygon fill="none" stroke="#000000" points="320,-1849 320,-1869 424,-1869 424,-1849 320,-1849"/>
<text text-anchor="start" x="335.5713" y="-1854.8" font-family="Times,serif" font-size="14.00" fill="#000000">&quot;store_sales&quot;</text>
<polygon fill="none" stroke="#000000" points="273.5,-1846 273.5,-1938 426.5,-1938 426.5,-1846 273.5,-1846"/>
</g>
<!-- Map_6_3&#45;&gt;Map_1_0 -->
<g id="edge22" class="edge">
<title>Map_6_3&#45;&gt;Map_1_0</title>
<path fill="none" stroke="#000000" d="M186.9374,-2011.9286C195.9253,-2000.9993 206.2744,-1989.5179 216.8828,-1980 229.3802,-1968.7873 243.4209,-1957.9515 257.5739,-1947.9427"/>
<polygon fill="#000000" stroke="#000000" points="259.6958,-1950.7303 265.9091,-1942.1486 255.7003,-1944.9825 259.6958,-1950.7303"/>
<text text-anchor="middle" x="280.5586" y="-1982.8" font-family="Times,serif" font-size="14.00" fill="#000000">BROADCAST_EDGE</text>
</g>
<!-- Map_5_0 -->
<g id="Map_5_0" class="node">
<title>Map_5_0</title>
<polygon fill="none" stroke="#000000" points="301,-2544 301,-2564 399,-2564 399,-2544 301,-2544"/>
<text text-anchor="start" x="320.9473" y="-2550.8" font-family="Times,serif" font-weight="bold" font-size="14.00" fill="#000000">TableScan</text>
<polygon fill="none" stroke="#000000" points="301,-2522 301,-2542 342,-2542 342,-2522 301,-2522"/>
<text text-anchor="start" x="307.5034" y="-2527.8" font-family="Times,serif" font-size="14.00" fill="#000000">Size:</text>
<polygon fill="none" stroke="#000000" points="344,-2522 344,-2542 399,-2542 399,-2522 344,-2522"/>
<text text-anchor="start" x="347" y="-2527.8" font-family="Times,serif" font-size="14.00" fill="#000000"> 182592 </text>
<polygon fill="none" stroke="#000000" points="301,-2500 301,-2520 342,-2520 342,-2500 301,-2500"/>
<text text-anchor="start" x="303.6069" y="-2505.8" font-family="Times,serif" font-size="14.00" fill="#000000">Rows:</text>
<polygon fill="none" stroke="#000000" points="344,-2500 344,-2520 399,-2520 399,-2500 344,-2500"/>
<text text-anchor="start" x="354" y="-2505.8" font-family="Times,serif" font-size="14.00" fill="#000000"> 1902 </text>
<polygon fill="none" stroke="#000000" points="301,-2478 301,-2498 342,-2498 342,-2478 301,-2478"/>
<text text-anchor="start" x="306.7275" y="-2483.8" font-family="Times,serif" font-size="14.00" fill="#000000">alias:</text>
<polygon fill="none" stroke="#000000" points="344,-2478 344,-2498 399,-2498 399,-2478 344,-2478"/>
<text text-anchor="start" x="352.1782" y="-2483.8" font-family="Times,serif" font-size="14.00" fill="#000000">&quot;store&quot;</text>
<polygon fill="none" stroke="#000000" points="298,-2475 298,-2567 402,-2567 402,-2475 298,-2475"/>
</g>
<!-- Map_5_1 -->
<g id="Map_5_1" class="node">
<title>Map_5_1</title>
<polygon fill="none" stroke="#000000" points="305,-2369 305,-2389 396,-2389 396,-2369 305,-2369"/>
<text text-anchor="start" x="308.7085" y="-2375.8" font-family="Times,serif" font-weight="bold" font-size="14.00" fill="#000000">Filter Operator</text>
<polygon fill="none" stroke="#000000" points="305,-2347 305,-2367 346,-2367 346,-2347 305,-2347"/>
<text text-anchor="start" x="311.5034" y="-2352.8" font-family="Times,serif" font-size="14.00" fill="#000000">Size:</text>
<polygon fill="none" stroke="#000000" points="348,-2347 348,-2367 396,-2367 396,-2347 348,-2347"/>
<text text-anchor="start" x="351" y="-2352.8" font-family="Times,serif" font-size="14.00" fill="#000000"> 16608 </text>
<polygon fill="none" stroke="#000000" points="305,-2325 305,-2345 346,-2345 346,-2325 305,-2325"/>
<text text-anchor="start" x="307.6069" y="-2330.8" font-family="Times,serif" font-size="14.00" fill="#000000">Rows:</text>
<polygon fill="none" stroke="#000000" points="348,-2325 348,-2345 396,-2345 396,-2325 348,-2325"/>
<text text-anchor="start" x="358" y="-2330.8" font-family="Times,serif" font-size="14.00" fill="#000000"> 173 </text>
<polygon fill="none" stroke="#000000" points="301.5,-2322 301.5,-2392 398.5,-2392 398.5,-2322 301.5,-2322"/>
</g>
<!-- Map_5_0&#45;&gt;Map_5_1 -->
<g id="edge4" class="edge">
<title>Map_5_0&#45;&gt;Map_5_1</title>
<path fill="none" stroke="#000000" d="M350,-2470.9035C350,-2450.3547 350,-2426.6392 350,-2406.1856"/>
<polygon fill="#000000" stroke="#000000" points="353.5001,-2406.129 350,-2396.129 346.5001,-2406.1291 353.5001,-2406.129"/>
</g>
<!-- Map_5_2 -->
<g id="Map_5_2" class="node">
<title>Map_5_2</title>
<polygon fill="none" stroke="#000000" points="303,-2216 303,-2236 398,-2236 398,-2216 303,-2216"/>
<text text-anchor="start" x="306.7705" y="-2222.8" font-family="Times,serif" font-weight="bold" font-size="14.00" fill="#000000">Select Operator</text>
<polygon fill="none" stroke="#000000" points="303,-2194 303,-2214 346,-2214 346,-2194 303,-2194"/>
<text text-anchor="start" x="310.5034" y="-2199.8" font-family="Times,serif" font-size="14.00" fill="#000000">Size:</text>
<polygon fill="none" stroke="#000000" points="348,-2194 348,-2214 398,-2214 398,-2194 348,-2194"/>
<text text-anchor="start" x="352" y="-2199.8" font-family="Times,serif" font-size="14.00" fill="#000000"> 16435 </text>
<polygon fill="none" stroke="#000000" points="303,-2172 303,-2192 346,-2192 346,-2172 303,-2172"/>
<text text-anchor="start" x="306.6069" y="-2177.8" font-family="Times,serif" font-size="14.00" fill="#000000">Rows:</text>
<polygon fill="none" stroke="#000000" points="348,-2172 348,-2192 398,-2192 398,-2172 348,-2172"/>
<text text-anchor="start" x="359" y="-2177.8" font-family="Times,serif" font-size="14.00" fill="#000000"> 173 </text>
<polygon fill="none" stroke="#000000" points="299.5,-2169 299.5,-2239 400.5,-2239 400.5,-2169 299.5,-2169"/>
</g>
<!-- Map_5_1&#45;&gt;Map_5_2 -->
<g id="edge5" class="edge">
<title>Map_5_1&#45;&gt;Map_5_2</title>
<path fill="none" stroke="#000000" d="M350,-2317.9958C350,-2298.2897 350,-2274.1737 350,-2253.206"/>
<polygon fill="#000000" stroke="#000000" points="353.5001,-2253.1987 350,-2243.1987 346.5001,-2253.1988 353.5001,-2253.1987"/>
</g>
<!-- Map_5_3 -->
<g id="Map_5_3" class="node">
<title>Map_5_3</title>
<polygon fill="none" stroke="#000000" points="278,-2063 278,-2083 423,-2083 423,-2063 278,-2063"/>
<text text-anchor="start" x="281.6895" y="-2069.8" font-family="Times,serif" font-weight="bold" font-size="14.00" fill="#000000">Reduce Output Operator</text>
<polygon fill="none" stroke="#000000" points="278,-2041 278,-2061 346,-2061 346,-2041 278,-2041"/>
<text text-anchor="start" x="298.0034" y="-2046.8" font-family="Times,serif" font-size="14.00" fill="#000000">Size:</text>
<polygon fill="none" stroke="#000000" points="348,-2041 348,-2061 423,-2061 423,-2041 348,-2041"/>
<text text-anchor="start" x="364.5" y="-2046.8" font-family="Times,serif" font-size="14.00" fill="#000000"> 16435 </text>
<polygon fill="none" stroke="#000000" points="278,-2019 278,-2039 346,-2039 346,-2019 278,-2019"/>
<text text-anchor="start" x="294.1069" y="-2024.8" font-family="Times,serif" font-size="14.00" fill="#000000">Rows:</text>
<polygon fill="none" stroke="#000000" points="348,-2019 348,-2039 423,-2039 423,-2019 348,-2019"/>
<text text-anchor="start" x="371.5" y="-2024.8" font-family="Times,serif" font-size="14.00" fill="#000000"> 173 </text>
<polygon fill="none" stroke="#000000" points="274.5,-2016 274.5,-2086 425.5,-2086 425.5,-2016 274.5,-2016"/>
</g>
<!-- Map_5_2&#45;&gt;Map_5_3 -->
<g id="edge6" class="edge">
<title>Map_5_2&#45;&gt;Map_5_3</title>
<path fill="none" stroke="#000000" d="M350,-2164.9958C350,-2145.2897 350,-2121.1737 350,-2100.206"/>
<polygon fill="#000000" stroke="#000000" points="353.5001,-2100.1987 350,-2090.1987 346.5001,-2100.1988 353.5001,-2100.1987"/>
</g>
<!-- Map_5_3&#45;&gt;Map_1_0 -->
<g id="edge21" class="edge">
<title>Map_5_3&#45;&gt;Map_1_0</title>
<path fill="none" stroke="#000000" d="M350,-2011.6966C350,-1993.8417 350,-1972.3158 350,-1952.4707"/>
<polygon fill="#000000" stroke="#000000" points="353.5001,-1952.2744 350,-1942.2745 346.5001,-1952.2745 353.5001,-1952.2744"/>
<text text-anchor="middle" x="414.5586" y="-1982.8" font-family="Times,serif" font-size="14.00" fill="#000000">BROADCAST_EDGE</text>
</g>
<!-- Map_4_0 -->
<g id="Map_4_0" class="node">
<title>Map_4_0</title>
<polygon fill="none" stroke="#000000" points="485,-2544 485,-2564 599,-2564 599,-2544 485,-2544"/>
<text text-anchor="start" x="512.9473" y="-2550.8" font-family="Times,serif" font-weight="bold" font-size="14.00" fill="#000000">TableScan</text>
<polygon fill="none" stroke="#000000" points="485,-2522 485,-2542 526,-2542 526,-2522 485,-2522"/>
<text text-anchor="start" x="491.5034" y="-2527.8" font-family="Times,serif" font-size="14.00" fill="#000000">Size:</text>
<polygon fill="none" stroke="#000000" points="528,-2522 528,-2542 599,-2542 599,-2522 528,-2522"/>
<text text-anchor="start" x="535.5" y="-2527.8" font-family="Times,serif" font-size="14.00" fill="#000000"> 1382400 </text>
<polygon fill="none" stroke="#000000" points="485,-2500 485,-2520 526,-2520 526,-2500 485,-2500"/>
<text text-anchor="start" x="487.6069" y="-2505.8" font-family="Times,serif" font-size="14.00" fill="#000000">Rows:</text>
<polygon fill="none" stroke="#000000" points="528,-2500 528,-2520 599,-2520 599,-2500 528,-2500"/>
<text text-anchor="start" x="542.5" y="-2505.8" font-family="Times,serif" font-size="14.00" fill="#000000"> 86400 </text>
<polygon fill="none" stroke="#000000" points="485,-2478 485,-2498 526,-2498 526,-2478 485,-2478"/>
<text text-anchor="start" x="490.7275" y="-2483.8" font-family="Times,serif" font-size="14.00" fill="#000000">alias:</text>
<polygon fill="none" stroke="#000000" points="528,-2478 528,-2498 599,-2498 599,-2478 528,-2478"/>
<text text-anchor="start" x="530.9541" y="-2483.8" font-family="Times,serif" font-size="14.00" fill="#000000">&quot;time_dim&quot;</text>
<polygon fill="none" stroke="#000000" points="482,-2475 482,-2567 602,-2567 602,-2475 482,-2475"/>
</g>
<!-- Map_4_1 -->
<g id="Map_4_1" class="node">
<title>Map_4_1</title>
<polygon fill="none" stroke="#000000" points="497,-2369 497,-2389 588,-2389 588,-2369 497,-2369"/>
<text text-anchor="start" x="500.7085" y="-2375.8" font-family="Times,serif" font-weight="bold" font-size="14.00" fill="#000000">Filter Operator</text>
<polygon fill="none" stroke="#000000" points="497,-2347 497,-2367 538,-2367 538,-2347 497,-2347"/>
<text text-anchor="start" x="503.5034" y="-2352.8" font-family="Times,serif" font-size="14.00" fill="#000000">Size:</text>
<polygon fill="none" stroke="#000000" points="540,-2347 540,-2367 588,-2367 588,-2347 540,-2347"/>
<text text-anchor="start" x="543" y="-2352.8" font-family="Times,serif" font-size="14.00" fill="#000000"> 24240 </text>
<polygon fill="none" stroke="#000000" points="497,-2325 497,-2345 538,-2345 538,-2325 497,-2325"/>
<text text-anchor="start" x="499.6069" y="-2330.8" font-family="Times,serif" font-size="14.00" fill="#000000">Rows:</text>
<polygon fill="none" stroke="#000000" points="540,-2325 540,-2345 588,-2345 588,-2325 540,-2325"/>
<text text-anchor="start" x="546.5" y="-2330.8" font-family="Times,serif" font-size="14.00" fill="#000000"> 1515 </text>
<polygon fill="none" stroke="#000000" points="493.5,-2322 493.5,-2392 590.5,-2392 590.5,-2322 493.5,-2322"/>
</g>
<!-- Map_4_0&#45;&gt;Map_4_1 -->
<g id="edge7" class="edge">
<title>Map_4_0&#45;&gt;Map_4_1</title>
<path fill="none" stroke="#000000" d="M542,-2470.9035C542,-2450.3547 542,-2426.6392 542,-2406.1856"/>
<polygon fill="#000000" stroke="#000000" points="545.5001,-2406.129 542,-2396.129 538.5001,-2406.1291 545.5001,-2406.129"/>
</g>
<!-- Map_4_2 -->
<g id="Map_4_2" class="node">
<title>Map_4_2</title>
<polygon fill="none" stroke="#000000" points="495,-2216 495,-2236 590,-2236 590,-2216 495,-2216"/>
<text text-anchor="start" x="498.7705" y="-2222.8" font-family="Times,serif" font-weight="bold" font-size="14.00" fill="#000000">Select Operator</text>
<polygon fill="none" stroke="#000000" points="495,-2194 495,-2214 538,-2214 538,-2194 495,-2194"/>
<text text-anchor="start" x="502.5034" y="-2199.8" font-family="Times,serif" font-size="14.00" fill="#000000">Size:</text>
<polygon fill="none" stroke="#000000" points="540,-2194 540,-2214 590,-2214 590,-2194 540,-2194"/>
<text text-anchor="start" x="544" y="-2199.8" font-family="Times,serif" font-size="14.00" fill="#000000"> 24240 </text>
<polygon fill="none" stroke="#000000" points="495,-2172 495,-2192 538,-2192 538,-2172 495,-2172"/>
<text text-anchor="start" x="498.6069" y="-2177.8" font-family="Times,serif" font-size="14.00" fill="#000000">Rows:</text>
<polygon fill="none" stroke="#000000" points="540,-2172 540,-2192 590,-2192 590,-2172 540,-2172"/>
<text text-anchor="start" x="547.5" y="-2177.8" font-family="Times,serif" font-size="14.00" fill="#000000"> 1515 </text>
<polygon fill="none" stroke="#000000" points="491.5,-2169 491.5,-2239 592.5,-2239 592.5,-2169 491.5,-2169"/>
</g>
<!-- Map_4_1&#45;&gt;Map_4_2 -->
<g id="edge8" class="edge">
<title>Map_4_1&#45;&gt;Map_4_2</title>
<path fill="none" stroke="#000000" d="M542,-2317.9958C542,-2298.2897 542,-2274.1737 542,-2253.206"/>
<polygon fill="#000000" stroke="#000000" points="545.5001,-2253.1987 542,-2243.1987 538.5001,-2253.1988 545.5001,-2253.1987"/>
</g>
<!-- Map_4_3 -->
<g id="Map_4_3" class="node">
<title>Map_4_3</title>
<polygon fill="none" stroke="#000000" points="470,-2063 470,-2083 615,-2083 615,-2063 470,-2063"/>
<text text-anchor="start" x="473.6895" y="-2069.8" font-family="Times,serif" font-weight="bold" font-size="14.00" fill="#000000">Reduce Output Operator</text>
<polygon fill="none" stroke="#000000" points="470,-2041 470,-2061 538,-2061 538,-2041 470,-2041"/>
<text text-anchor="start" x="490.0034" y="-2046.8" font-family="Times,serif" font-size="14.00" fill="#000000">Size:</text>
<polygon fill="none" stroke="#000000" points="540,-2041 540,-2061 615,-2061 615,-2041 540,-2041"/>
<text text-anchor="start" x="556.5" y="-2046.8" font-family="Times,serif" font-size="14.00" fill="#000000"> 24240 </text>
<polygon fill="none" stroke="#000000" points="470,-2019 470,-2039 538,-2039 538,-2019 470,-2019"/>
<text text-anchor="start" x="486.1069" y="-2024.8" font-family="Times,serif" font-size="14.00" fill="#000000">Rows:</text>
<polygon fill="none" stroke="#000000" points="540,-2019 540,-2039 615,-2039 615,-2019 540,-2019"/>
<text text-anchor="start" x="560" y="-2024.8" font-family="Times,serif" font-size="14.00" fill="#000000"> 1515 </text>
<polygon fill="none" stroke="#000000" points="466.5,-2016 466.5,-2086 617.5,-2086 617.5,-2016 466.5,-2016"/>
</g>
<!-- Map_4_2&#45;&gt;Map_4_3 -->
<g id="edge9" class="edge">
<title>Map_4_2&#45;&gt;Map_4_3</title>
<path fill="none" stroke="#000000" d="M542,-2164.9958C542,-2145.2897 542,-2121.1737 542,-2100.206"/>
<polygon fill="#000000" stroke="#000000" points="545.5001,-2100.1987 542,-2090.1987 538.5001,-2100.1988 545.5001,-2100.1987"/>
</g>
<!-- Map_4_3&#45;&gt;Map_1_0 -->
<g id="edge20" class="edge">
<title>Map_4_3&#45;&gt;Map_1_0</title>
<path fill="none" stroke="#000000" d="M512.9925,-2011.9346C503.9864,-2001.0055 493.6197,-1989.5226 483,-1980 470.5071,-1968.7977 456.4753,-1957.9675 442.3333,-1947.9609"/>
<polygon fill="#000000" stroke="#000000" points="444.2127,-1945.0048 434.0048,-1942.1678 440.2155,-1950.7514 444.2127,-1945.0048"/>
<text text-anchor="middle" x="559.5586" y="-1982.8" font-family="Times,serif" font-size="14.00" fill="#000000">BROADCAST_EDGE</text>
</g>
<!-- Map_1_1 -->
<g id="Map_1_1" class="node">
<title>Map_1_1</title>
<polygon fill="none" stroke="#000000" points="277,-1740 277,-1760 424,-1760 424,-1740 277,-1740"/>
<text text-anchor="start" x="308.7085" y="-1746.8" font-family="Times,serif" font-weight="bold" font-size="14.00" fill="#000000">Filter Operator</text>
<polygon fill="none" stroke="#000000" points="277,-1718 277,-1738 318,-1738 318,-1718 277,-1718"/>
<text text-anchor="start" x="283.5034" y="-1723.8" font-family="Times,serif" font-size="14.00" fill="#000000">Size:</text>
<polygon fill="none" stroke="#000000" points="320,-1718 320,-1738 424,-1738 424,-1718 320,-1718"/>
<text text-anchor="start" x="323" y="-1723.8" font-family="Times,serif" font-size="14.00" fill="#000000"> 6600140056448 </text>
<polygon fill="none" stroke="#000000" points="277,-1696 277,-1716 318,-1716 318,-1696 277,-1696"/>
<text text-anchor="start" x="279.6069" y="-1701.8" font-family="Times,serif" font-size="14.00" fill="#000000">Rows:</text>
<polygon fill="none" stroke="#000000" points="320,-1696 320,-1716 424,-1716 424,-1696 320,-1696"/>
<text text-anchor="start" x="326.5" y="-1701.8" font-family="Times,serif" font-size="14.00" fill="#000000"> 278202871368 </text>
<polygon fill="none" stroke="#000000" points="273.5,-1693 273.5,-1763 426.5,-1763 426.5,-1693 273.5,-1693"/>
</g>
<!-- Map_1_0&#45;&gt;Map_1_1 -->
<g id="edge10" class="edge">
<title>Map_1_0&#45;&gt;Map_1_1</title>
<path fill="none" stroke="#000000" d="M350,-1841.9035C350,-1821.3547 350,-1797.6392 350,-1777.1856"/>
<polygon fill="#000000" stroke="#000000" points="353.5001,-1777.129 350,-1767.129 346.5001,-1777.1291 353.5001,-1777.129"/>
</g>
<!-- Map_1_2 -->
<g id="Map_1_2" class="node">
<title>Map_1_2</title>
<polygon fill="none" stroke="#000000" points="277,-1587 277,-1607 424,-1607 424,-1587 277,-1587"/>
<text text-anchor="start" x="306.7705" y="-1593.8" font-family="Times,serif" font-weight="bold" font-size="14.00" fill="#000000">Select Operator</text>
<polygon fill="none" stroke="#000000" points="277,-1565 277,-1585 318,-1585 318,-1565 277,-1565"/>
<text text-anchor="start" x="283.5034" y="-1570.8" font-family="Times,serif" font-size="14.00" fill="#000000">Size:</text>
<polygon fill="none" stroke="#000000" points="320,-1565 320,-1585 424,-1585 424,-1565 320,-1565"/>
<text text-anchor="start" x="323" y="-1570.8" font-family="Times,serif" font-size="14.00" fill="#000000"> 6600140056448 </text>
<polygon fill="none" stroke="#000000" points="277,-1543 277,-1563 318,-1563 318,-1543 277,-1543"/>
<text text-anchor="start" x="279.6069" y="-1548.8" font-family="Times,serif" font-size="14.00" fill="#000000">Rows:</text>
<polygon fill="none" stroke="#000000" points="320,-1543 320,-1563 424,-1563 424,-1543 320,-1543"/>
<text text-anchor="start" x="326.5" y="-1548.8" font-family="Times,serif" font-size="14.00" fill="#000000"> 278202871368 </text>
<polygon fill="none" stroke="#000000" points="273.5,-1540 273.5,-1610 426.5,-1610 426.5,-1540 273.5,-1540"/>
</g>
<!-- Map_1_1&#45;&gt;Map_1_2 -->
<g id="edge11" class="edge">
<title>Map_1_1&#45;&gt;Map_1_2</title>
<path fill="none" stroke="#000000" d="M350,-1688.9958C350,-1669.2897 350,-1645.1737 350,-1624.206"/>
<polygon fill="#000000" stroke="#000000" points="353.5001,-1624.1987 350,-1614.1987 346.5001,-1624.1988 353.5001,-1624.1987"/>
</g>
<!-- Map_1_3 -->
<g id="Map_1_3" class="node">
<title>Map_1_3</title>
<polygon fill="none" stroke="#000000" points="280,-1434 280,-1454 420,-1454 420,-1434 280,-1434"/>
<text text-anchor="start" x="297.124" y="-1440.8" font-family="Times,serif" font-weight="bold" font-size="14.00" fill="#000000">Map Join Operator</text>
<polygon fill="none" stroke="#000000" points="280,-1412 280,-1432 321,-1432 321,-1412 280,-1412"/>
<text text-anchor="start" x="286.5034" y="-1417.8" font-family="Times,serif" font-size="14.00" fill="#000000">Size:</text>
<polygon fill="none" stroke="#000000" points="323,-1412 323,-1432 420,-1432 420,-1412 323,-1412"/>
<text text-anchor="start" x="326" y="-1417.8" font-family="Times,serif" font-size="14.00" fill="#000000"> 144096230800 </text>
<polygon fill="none" stroke="#000000" points="280,-1390 280,-1410 321,-1410 321,-1390 280,-1390"/>
<text text-anchor="start" x="282.6069" y="-1395.8" font-family="Times,serif" font-size="14.00" fill="#000000">Rows:</text>
<polygon fill="none" stroke="#000000" points="323,-1390 323,-1410 420,-1410 420,-1390 323,-1390"/>
<text text-anchor="start" x="333" y="-1395.8" font-family="Times,serif" font-size="14.00" fill="#000000"> 9006014425 </text>
<polygon fill="none" stroke="#000000" points="277,-1387 277,-1457 423,-1457 423,-1387 277,-1387"/>
</g>
<!-- Map_1_2&#45;&gt;Map_1_3 -->
<g id="edge12" class="edge">
<title>Map_1_2&#45;&gt;Map_1_3</title>
<path fill="none" stroke="#000000" d="M350,-1535.9958C350,-1516.2897 350,-1492.1737 350,-1471.206"/>
<polygon fill="#000000" stroke="#000000" points="353.5001,-1471.1987 350,-1461.1987 346.5001,-1471.1988 353.5001,-1471.1987"/>
</g>
<!-- Map_1_4 -->
<g id="Map_1_4" class="node">
<title>Map_1_4</title>
<polygon fill="none" stroke="#000000" points="287,-1281 287,-1301 413,-1301 413,-1281 287,-1281"/>
<text text-anchor="start" x="297.124" y="-1287.8" font-family="Times,serif" font-weight="bold" font-size="14.00" fill="#000000">Map Join Operator</text>
<polygon fill="none" stroke="#000000" points="287,-1259 287,-1279 328,-1279 328,-1259 287,-1259"/>
<text text-anchor="start" x="293.5034" y="-1264.8" font-family="Times,serif" font-size="14.00" fill="#000000">Size:</text>
<polygon fill="none" stroke="#000000" points="330,-1259 330,-1279 413,-1279 413,-1259 330,-1259"/>
<text text-anchor="start" x="333" y="-1264.8" font-family="Times,serif" font-size="14.00" fill="#000000"> 6560174448 </text>
<polygon fill="none" stroke="#000000" points="287,-1237 287,-1257 328,-1257 328,-1237 287,-1237"/>
<text text-anchor="start" x="289.6069" y="-1242.8" font-family="Times,serif" font-size="14.00" fill="#000000">Rows:</text>
<polygon fill="none" stroke="#000000" points="330,-1237 330,-1257 413,-1257 413,-1237 330,-1237"/>
<text text-anchor="start" x="336.5" y="-1242.8" font-family="Times,serif" font-size="14.00" fill="#000000"> 820021806 </text>
<polygon fill="none" stroke="#000000" points="284,-1234 284,-1304 416,-1304 416,-1234 284,-1234"/>
</g>
<!-- Map_1_3&#45;&gt;Map_1_4 -->
<g id="edge13" class="edge">
<title>Map_1_3&#45;&gt;Map_1_4</title>
<path fill="none" stroke="#000000" d="M350,-1382.9958C350,-1363.2897 350,-1339.1737 350,-1318.206"/>
<polygon fill="#000000" stroke="#000000" points="353.5001,-1318.1987 350,-1308.1987 346.5001,-1318.1988 353.5001,-1318.1987"/>
</g>
<!-- Map_1_5 -->
<g id="Map_1_5" class="node">
<title>Map_1_5</title>
<polygon fill="none" stroke="#000000" points="291,-1128 291,-1148 410,-1148 410,-1128 291,-1128"/>
<text text-anchor="start" x="297.624" y="-1134.8" font-family="Times,serif" font-weight="bold" font-size="14.00" fill="#000000">Map Join Operator</text>
<polygon fill="none" stroke="#000000" points="291,-1106 291,-1126 332,-1126 332,-1106 291,-1106"/>
<text text-anchor="start" x="297.5034" y="-1111.8" font-family="Times,serif" font-size="14.00" fill="#000000">Size:</text>
<polygon fill="none" stroke="#000000" points="334,-1106 334,-1126 410,-1126 410,-1106 334,-1106"/>
<text text-anchor="start" x="337" y="-1111.8" font-family="Times,serif" font-size="14.00" fill="#000000"> 596793656 </text>
<polygon fill="none" stroke="#000000" points="291,-1084 291,-1104 332,-1104 332,-1084 291,-1084"/>
<text text-anchor="start" x="293.6069" y="-1089.8" font-family="Times,serif" font-size="14.00" fill="#000000">Rows:</text>
<polygon fill="none" stroke="#000000" points="334,-1084 334,-1104 410,-1104 410,-1084 334,-1084"/>
<text text-anchor="start" x="340.5" y="-1089.8" font-family="Times,serif" font-size="14.00" fill="#000000"> 74599207 </text>
<polygon fill="none" stroke="#000000" points="287.5,-1081 287.5,-1151 412.5,-1151 412.5,-1081 287.5,-1081"/>
</g>
<!-- Map_1_4&#45;&gt;Map_1_5 -->
<g id="edge14" class="edge">
<title>Map_1_4&#45;&gt;Map_1_5</title>
<path fill="none" stroke="#000000" d="M350,-1229.9958C350,-1210.2897 350,-1186.1737 350,-1165.206"/>
<polygon fill="#000000" stroke="#000000" points="353.5001,-1165.1987 350,-1155.1987 346.5001,-1165.1988 353.5001,-1165.1987"/>
</g>
<!-- Map_1_6 -->
<g id="Map_1_6" class="node">
<title>Map_1_6</title>
<polygon fill="none" stroke="#000000" points="292,-975 292,-995 408,-995 408,-975 292,-975"/>
<text text-anchor="start" x="295.5688" y="-981.8" font-family="Times,serif" font-weight="bold" font-size="14.00" fill="#000000">Group By Operator</text>
<polygon fill="none" stroke="#000000" points="292,-953 292,-973 359,-973 359,-953 292,-953"/>
<text text-anchor="start" x="311.5034" y="-958.8" font-family="Times,serif" font-size="14.00" fill="#000000">Size:</text>
<polygon fill="none" stroke="#000000" points="361,-953 361,-973 408,-973 408,-953 361,-953"/>
<text text-anchor="start" x="377.5" y="-958.8" font-family="Times,serif" font-size="14.00" fill="#000000"> 8 </text>
<polygon fill="none" stroke="#000000" points="292,-931 292,-951 359,-951 359,-931 292,-931"/>
<text text-anchor="start" x="307.6069" y="-936.8" font-family="Times,serif" font-size="14.00" fill="#000000">Rows:</text>
<polygon fill="none" stroke="#000000" points="361,-931 361,-951 408,-951 408,-931 361,-931"/>
<text text-anchor="start" x="377.5" y="-936.8" font-family="Times,serif" font-size="14.00" fill="#000000"> 1 </text>
<polygon fill="none" stroke="#000000" points="289,-928 289,-998 411,-998 411,-928 289,-928"/>
</g>
<!-- Map_1_5&#45;&gt;Map_1_6 -->
<g id="edge15" class="edge">
<title>Map_1_5&#45;&gt;Map_1_6</title>
<path fill="none" stroke="#000000" d="M350,-1076.9958C350,-1057.2897 350,-1033.1737 350,-1012.206"/>
<polygon fill="#000000" stroke="#000000" points="353.5001,-1012.1987 350,-1002.1987 346.5001,-1012.1988 353.5001,-1012.1987"/>
</g>
<!-- Map_1_7 -->
<g id="Map_1_7" class="node">
<title>Map_1_7</title>
<polygon fill="none" stroke="#000000" points="278,-822 278,-842 423,-842 423,-822 278,-822"/>
<text text-anchor="start" x="281.6895" y="-828.8" font-family="Times,serif" font-weight="bold" font-size="14.00" fill="#000000">Reduce Output Operator</text>
<polygon fill="none" stroke="#000000" points="278,-800 278,-820 360,-820 360,-800 278,-800"/>
<text text-anchor="start" x="305.0034" y="-805.8" font-family="Times,serif" font-size="14.00" fill="#000000">Size:</text>
<polygon fill="none" stroke="#000000" points="362,-800 362,-820 423,-820 423,-800 362,-800"/>
<text text-anchor="start" x="385.5" y="-805.8" font-family="Times,serif" font-size="14.00" fill="#000000"> 8 </text>
<polygon fill="none" stroke="#000000" points="278,-778 278,-798 360,-798 360,-778 278,-778"/>
<text text-anchor="start" x="301.1069" y="-783.8" font-family="Times,serif" font-size="14.00" fill="#000000">Rows:</text>
<polygon fill="none" stroke="#000000" points="362,-778 362,-798 423,-798 423,-778 362,-778"/>
<text text-anchor="start" x="385.5" y="-783.8" font-family="Times,serif" font-size="14.00" fill="#000000"> 1 </text>
<polygon fill="none" stroke="#000000" points="274.5,-775 274.5,-845 425.5,-845 425.5,-775 274.5,-775"/>
</g>
<!-- Map_1_6&#45;&gt;Map_1_7 -->
<g id="edge16" class="edge">
<title>Map_1_6&#45;&gt;Map_1_7</title>
<path fill="none" stroke="#000000" d="M350,-923.9958C350,-904.2897 350,-880.1737 350,-859.206"/>
<polygon fill="#000000" stroke="#000000" points="353.5001,-859.1987 350,-849.1987 346.5001,-859.1988 353.5001,-859.1987"/>
</g>
<!-- Reducer_2_0 -->
<g id="Reducer_2_0" class="node">
<title>Reducer_2_0</title>
<polygon fill="none" stroke="#000000" points="292,-674 292,-694 408,-694 408,-674 292,-674"/>
<text text-anchor="start" x="295.5688" y="-680.8" font-family="Times,serif" font-weight="bold" font-size="14.00" fill="#000000">Group By Operator</text>
<polygon fill="none" stroke="#000000" points="292,-652 292,-672 359,-672 359,-652 292,-652"/>
<text text-anchor="start" x="311.5034" y="-657.8" font-family="Times,serif" font-size="14.00" fill="#000000">Size:</text>
<polygon fill="none" stroke="#000000" points="361,-652 361,-672 408,-672 408,-652 361,-652"/>
<text text-anchor="start" x="377.5" y="-657.8" font-family="Times,serif" font-size="14.00" fill="#000000"> 8 </text>
<polygon fill="none" stroke="#000000" points="292,-630 292,-650 359,-650 359,-630 292,-630"/>
<text text-anchor="start" x="307.6069" y="-635.8" font-family="Times,serif" font-size="14.00" fill="#000000">Rows:</text>
<polygon fill="none" stroke="#000000" points="361,-630 361,-650 408,-650 408,-630 361,-630"/>
<text text-anchor="start" x="377.5" y="-635.8" font-family="Times,serif" font-size="14.00" fill="#000000"> 1 </text>
<polygon fill="none" stroke="#000000" points="289,-627 289,-697 411,-697 411,-627 289,-627"/>
</g>
<!-- Map_1_7&#45;&gt;Reducer_2_0 -->
<g id="edge24" class="edge">
<title>Map_1_7&#45;&gt;Reducer_2_0</title>
<path fill="none" stroke="#000000" d="M350,-770.7273C350,-752.5072 350,-730.6546 350,-711.3347"/>
<polygon fill="#000000" stroke="#000000" points="353.5001,-711.1992 350,-701.1992 346.5001,-711.1993 353.5001,-711.1992"/>
<text text-anchor="middle" x="397.0552" y="-741.8" font-family="Times,serif" font-size="14.00" fill="#000000">SIMPLE_EDGE</text>
</g>
<!-- Reducer_3_0 -->
<g id="Reducer_3_0" class="node">
<title>Reducer_3_0</title>
<polygon fill="none" stroke="#000000" points="303,-373 303,-393 398,-393 398,-373 303,-373"/>
<text text-anchor="start" x="306.7705" y="-379.8" font-family="Times,serif" font-weight="bold" font-size="14.00" fill="#000000">Select Operator</text>
<polygon fill="none" stroke="#000000" points="303,-351 303,-371 360,-371 360,-351 303,-351"/>
<text text-anchor="start" x="317.5034" y="-356.8" font-family="Times,serif" font-size="14.00" fill="#000000">Size:</text>
<polygon fill="none" stroke="#000000" points="362,-351 362,-371 398,-371 398,-351 362,-351"/>
<text text-anchor="start" x="373" y="-356.8" font-family="Times,serif" font-size="14.00" fill="#000000"> 8 </text>
<polygon fill="none" stroke="#000000" points="303,-329 303,-349 360,-349 360,-329 303,-329"/>
<text text-anchor="start" x="313.6069" y="-334.8" font-family="Times,serif" font-size="14.00" fill="#000000">Rows:</text>
<polygon fill="none" stroke="#000000" points="362,-329 362,-349 398,-349 398,-329 362,-329"/>
<text text-anchor="start" x="373" y="-334.8" font-family="Times,serif" font-size="14.00" fill="#000000"> 1 </text>
<polygon fill="none" stroke="#000000" points="299.5,-326 299.5,-396 400.5,-396 400.5,-326 299.5,-326"/>
</g>
<!-- Reducer_3_1 -->
<g id="Reducer_3_1" class="node">
<title>Reducer_3_1</title>
<polygon fill="none" stroke="#000000" points="319,-220 319,-240 382,-240 382,-220 319,-220"/>
<text text-anchor="start" x="334.9448" y="-226.8" font-family="Times,serif" font-weight="bold" font-size="14.00" fill="#000000">Limit</text>
<polygon fill="none" stroke="#000000" points="319,-198 319,-218 360,-218 360,-198 319,-198"/>
<text text-anchor="start" x="325.5034" y="-203.8" font-family="Times,serif" font-size="14.00" fill="#000000">Size:</text>
<polygon fill="none" stroke="#000000" points="362,-198 362,-218 382,-218 382,-198 362,-198"/>
<text text-anchor="start" x="365" y="-203.8" font-family="Times,serif" font-size="14.00" fill="#000000"> 8 </text>
<polygon fill="none" stroke="#000000" points="319,-176 319,-196 360,-196 360,-176 319,-176"/>
<text text-anchor="start" x="321.6069" y="-181.8" font-family="Times,serif" font-size="14.00" fill="#000000">Rows:</text>
<polygon fill="none" stroke="#000000" points="362,-176 362,-196 382,-196 382,-176 362,-176"/>
<text text-anchor="start" x="365" y="-181.8" font-family="Times,serif" font-size="14.00" fill="#000000"> 1 </text>
<polygon fill="none" stroke="#000000" points="315.5,-173 315.5,-243 384.5,-243 384.5,-173 315.5,-173"/>
</g>
<!-- Reducer_3_0&#45;&gt;Reducer_3_1 -->
<g id="edge17" class="edge">
<title>Reducer_3_0&#45;&gt;Reducer_3_1</title>
<path fill="none" stroke="#000000" d="M350,-321.9958C350,-302.2897 350,-278.1737 350,-257.206"/>
<polygon fill="#000000" stroke="#000000" points="353.5001,-257.1987 350,-247.1987 346.5001,-257.1988 353.5001,-257.1987"/>
</g>
<!-- Reducer_3_2 -->
<g id="Reducer_3_2" class="node">
<title>Reducer_3_2</title>
<polygon fill="none" stroke="#000000" points="288,-67 288,-87 413,-87 413,-67 288,-67"/>
<text text-anchor="start" x="291.7896" y="-73.8" font-family="Times,serif" font-weight="bold" font-size="14.00" fill="#000000">File Output Operator</text>
<polygon fill="none" stroke="#000000" points="288,-45 288,-65 360,-65 360,-45 288,-45"/>
<text text-anchor="start" x="310.0034" y="-50.8" font-family="Times,serif" font-size="14.00" fill="#000000">Size:</text>
<polygon fill="none" stroke="#000000" points="362,-45 362,-65 413,-65 413,-45 362,-45"/>
<text text-anchor="start" x="380.5" y="-50.8" font-family="Times,serif" font-size="14.00" fill="#000000"> 8 </text>
<polygon fill="none" stroke="#000000" points="288,-23 288,-43 360,-43 360,-23 288,-23"/>
<text text-anchor="start" x="306.1069" y="-28.8" font-family="Times,serif" font-size="14.00" fill="#000000">Rows:</text>
<polygon fill="none" stroke="#000000" points="362,-23 362,-43 413,-43 413,-23 362,-23"/>
<text text-anchor="start" x="380.5" y="-28.8" font-family="Times,serif" font-size="14.00" fill="#000000"> 1 </text>
<polygon fill="none" stroke="#000000" points="284.5,-20 284.5,-90 415.5,-90 415.5,-20 284.5,-20"/>
</g>
<!-- Reducer_3_1&#45;&gt;Reducer_3_2 -->
<g id="edge18" class="edge">
<title>Reducer_3_1&#45;&gt;Reducer_3_2</title>
<path fill="none" stroke="#000000" d="M350,-168.9958C350,-149.2897 350,-125.1737 350,-104.206"/>
<polygon fill="#000000" stroke="#000000" points="353.5001,-104.1987 350,-94.1987 346.5001,-104.1988 353.5001,-104.1987"/>
</g>
<!-- Reducer_2_1 -->
<g id="Reducer_2_1" class="node">
<title>Reducer_2_1</title>
<polygon fill="none" stroke="#000000" points="278,-521 278,-541 423,-541 423,-521 278,-521"/>
<text text-anchor="start" x="281.6895" y="-527.8" font-family="Times,serif" font-weight="bold" font-size="14.00" fill="#000000">Reduce Output Operator</text>
<polygon fill="none" stroke="#000000" points="278,-499 278,-519 360,-519 360,-499 278,-499"/>
<text text-anchor="start" x="305.0034" y="-504.8" font-family="Times,serif" font-size="14.00" fill="#000000">Size:</text>
<polygon fill="none" stroke="#000000" points="362,-499 362,-519 423,-519 423,-499 362,-499"/>
<text text-anchor="start" x="385.5" y="-504.8" font-family="Times,serif" font-size="14.00" fill="#000000"> 8 </text>
<polygon fill="none" stroke="#000000" points="278,-477 278,-497 360,-497 360,-477 278,-477"/>
<text text-anchor="start" x="301.1069" y="-482.8" font-family="Times,serif" font-size="14.00" fill="#000000">Rows:</text>
<polygon fill="none" stroke="#000000" points="362,-477 362,-497 423,-497 423,-477 362,-477"/>
<text text-anchor="start" x="385.5" y="-482.8" font-family="Times,serif" font-size="14.00" fill="#000000"> 1 </text>
<polygon fill="none" stroke="#000000" points="274.5,-474 274.5,-544 425.5,-544 425.5,-474 274.5,-474"/>
</g>
<!-- Reducer_2_0&#45;&gt;Reducer_2_1 -->
<g id="edge19" class="edge">
<title>Reducer_2_0&#45;&gt;Reducer_2_1</title>
<path fill="none" stroke="#000000" d="M350,-622.9958C350,-603.2897 350,-579.1737 350,-558.206"/>
<polygon fill="#000000" stroke="#000000" points="353.5001,-558.1987 350,-548.1987 346.5001,-558.1988 353.5001,-558.1987"/>
</g>
<!-- Reducer_2_1&#45;&gt;Reducer_3_0 -->
<g id="edge23" class="edge">
<title>Reducer_2_1&#45;&gt;Reducer_3_0</title>
<path fill="none" stroke="#000000" d="M350,-469.7273C350,-451.5072 350,-429.6546 350,-410.3347"/>
<polygon fill="#000000" stroke="#000000" points="353.5001,-410.1992 350,-400.1992 346.5001,-410.1993 353.5001,-410.1992"/>
<text text-anchor="middle" x="397.0552" y="-440.8" font-family="Times,serif" font-size="14.00" fill="#000000">SIMPLE_EDGE</text>
</g>
</g>
</svg>
